<svg width="1600" height="868" viewBox="0 0 1600 868" fill="none" xmlns="http://www.w3.org/2000/svg">
<g clip-path="url(#clip0_5273_13)">
<rect width="1600" height="867.47" rx="20.9424" fill="#CA5331"/>
<circle cx="20.8472" cy="215.329" r="4.18848" transform="rotate(-90 20.8472 215.329)" fill="#CA983F"/>
<circle cx="9.32862" cy="203.811" r="4.18848" transform="rotate(-90 9.32862 203.811)" fill="#CA983F"/>
<circle cx="20.8472" cy="203.811" r="4.18848" transform="rotate(-90 20.8472 203.811)" fill="#CA983F"/>
<circle cx="9.32862" cy="192.292" r="4.18848" transform="rotate(-90 9.32862 192.292)" fill="#CA983F"/>
<circle cx="20.8472" cy="192.292" r="4.18848" transform="rotate(-90 20.8472 192.292)" fill="#CA983F"/>
<circle cx="9.32862" cy="180.774" r="4.18848" transform="rotate(-90 9.32862 180.774)" fill="#CA983F"/>
<circle cx="20.8472" cy="180.774" r="4.18848" transform="rotate(-90 20.8472 180.774)" fill="#CA983F"/>
<circle cx="9.32862" cy="169.256" r="4.18848" transform="rotate(-90 9.32862 169.256)" fill="#CA983F"/>
<circle cx="20.8472" cy="169.256" r="4.18848" transform="rotate(-90 20.8472 169.256)" fill="#CA983F"/>
<circle cx="9.32862" cy="157.738" r="4.18848" transform="rotate(-90 9.32862 157.738)" fill="#CA983F"/>
<circle cx="20.8472" cy="157.738" r="4.18848" transform="rotate(-90 20.8472 157.738)" fill="#CA983F"/>
<circle cx="9.32862" cy="146.219" r="4.18848" transform="rotate(-90 9.32862 146.219)" fill="#CA983F"/>
<circle cx="20.8472" cy="146.219" r="4.18848" transform="rotate(-90 20.8472 146.219)" fill="#CA983F"/>
<circle cx="9.32862" cy="134.701" r="4.18848" transform="rotate(-90 9.32862 134.701)" fill="#CA983F"/>
<circle cx="20.8472" cy="134.701" r="4.18848" transform="rotate(-90 20.8472 134.701)" fill="#CA983F"/>
<circle cx="9.32862" cy="123.183" r="4.18848" transform="rotate(-90 9.32862 123.183)" fill="#CA983F"/>
<circle cx="20.8472" cy="123.183" r="4.18848" transform="rotate(-90 20.8472 123.183)" fill="#CA983F"/>
<circle cx="9.32862" cy="111.664" r="4.18848" transform="rotate(-90 9.32862 111.664)" fill="#CA983F"/>
<circle cx="20.8472" cy="111.664" r="4.18848" transform="rotate(-90 20.8472 111.664)" fill="#CA983F"/>
<circle cx="9.32862" cy="100.146" r="4.18848" transform="rotate(-90 9.32862 100.146)" fill="#CA983F"/>
<circle cx="20.8472" cy="100.146" r="4.18848" transform="rotate(-90 20.8472 100.146)" fill="#CA983F"/>
<circle cx="9.32862" cy="88.6279" r="4.18848" transform="rotate(-90 9.32862 88.6279)" fill="#CA983F"/>
<circle cx="20.8472" cy="88.6279" r="4.18848" transform="rotate(-90 20.8472 88.6279)" fill="#CA983F"/>
<circle cx="9.32862" cy="77.1094" r="4.18848" transform="rotate(-90 9.32862 77.1094)" fill="#CA983F"/>
<circle cx="20.8472" cy="77.1094" r="4.18848" transform="rotate(-90 20.8472 77.1094)" fill="#CA983F"/>
<circle cx="9.32862" cy="65.5911" r="4.18848" transform="rotate(-90 9.32862 65.5911)" fill="#CA983F"/>
<circle cx="20.8472" cy="65.5911" r="4.18848" transform="rotate(-90 20.8472 65.5911)" fill="#CA983F"/>
<circle cx="9.32862" cy="54.0727" r="4.18848" transform="rotate(-90 9.32862 54.0727)" fill="#CA983F"/>
<circle cx="20.8472" cy="54.0727" r="4.18848" transform="rotate(-90 20.8472 54.0727)" fill="#CA983F"/>
<circle cx="9.32862" cy="42.5544" r="4.18848" transform="rotate(-90 9.32862 42.5544)" fill="#CA983F"/>
<circle cx="20.8472" cy="42.5544" r="4.18848" transform="rotate(-90 20.8472 42.5544)" fill="#CA983F"/>
<circle cx="9.32862" cy="31.0361" r="4.18848" transform="rotate(-90 9.32862 31.0361)" fill="#CA983F"/>
<circle cx="20.8472" cy="31.0361" r="4.18848" transform="rotate(-90 20.8472 31.0361)" fill="#CA983F"/>
<circle cx="9.32862" cy="19.5176" r="4.18848" transform="rotate(-90 9.32862 19.5176)" fill="#CA983F"/>
<circle cx="20.8472" cy="19.5176" r="4.18848" transform="rotate(-90 20.8472 19.5176)" fill="#CA983F"/>
<circle cx="20.8472" cy="7.99926" r="4.18848" transform="rotate(-90 20.8472 7.99926)" fill="#CA983F"/>
<circle cx="4.18848" cy="4.18848" r="4.18848" transform="matrix(0 -1 -1 0 12.8989 426.47)" fill="#CA983F"/>
<circle cx="4.18848" cy="4.18848" r="4.18848" transform="matrix(0 -1 -1 0 24.4175 414.952)" fill="#CA983F"/>
<circle cx="4.18848" cy="4.18848" r="4.18848" transform="matrix(0 -1 -1 0 12.8989 414.952)" fill="#CA983F"/>
<circle cx="4.18848" cy="4.18848" r="4.18848" transform="matrix(0 -1 -1 0 24.4175 403.433)" fill="#CA983F"/>
<circle cx="4.18848" cy="4.18848" r="4.18848" transform="matrix(0 -1 -1 0 12.8989 403.433)" fill="#CA983F"/>
<circle cx="4.18848" cy="4.18848" r="4.18848" transform="matrix(0 -1 -1 0 24.4175 391.915)" fill="#CA983F"/>
<circle cx="4.18848" cy="4.18848" r="4.18848" transform="matrix(0 -1 -1 0 12.8989 391.915)" fill="#CA983F"/>
<circle cx="4.18848" cy="4.18848" r="4.18848" transform="matrix(0 -1 -1 0 24.4175 380.397)" fill="#CA983F"/>
<circle cx="4.18848" cy="4.18848" r="4.18848" transform="matrix(0 -1 -1 0 12.8989 380.397)" fill="#CA983F"/>
<circle cx="4.18848" cy="4.18848" r="4.18848" transform="matrix(0 -1 -1 0 24.4175 368.878)" fill="#CA983F"/>
<circle cx="4.18848" cy="4.18848" r="4.18848" transform="matrix(0 -1 -1 0 12.8989 368.878)" fill="#CA983F"/>
<circle cx="4.18848" cy="4.18848" r="4.18848" transform="matrix(0 -1 -1 0 24.4175 357.36)" fill="#CA983F"/>
<circle cx="4.18848" cy="4.18848" r="4.18848" transform="matrix(0 -1 -1 0 12.8989 357.36)" fill="#CA983F"/>
<circle cx="4.18848" cy="4.18848" r="4.18848" transform="matrix(0 -1 -1 0 24.4175 345.841)" fill="#CA983F"/>
<circle cx="4.18848" cy="4.18848" r="4.18848" transform="matrix(0 -1 -1 0 12.8989 345.841)" fill="#CA983F"/>
<circle cx="4.18848" cy="4.18848" r="4.18848" transform="matrix(0 -1 -1 0 24.4175 334.323)" fill="#CA983F"/>
<circle cx="4.18848" cy="4.18848" r="4.18848" transform="matrix(0 -1 -1 0 12.8989 334.323)" fill="#CA983F"/>
<circle cx="4.18848" cy="4.18848" r="4.18848" transform="matrix(0 -1 -1 0 24.4175 322.805)" fill="#CA983F"/>
<circle cx="4.18848" cy="4.18848" r="4.18848" transform="matrix(0 -1 -1 0 12.8989 322.805)" fill="#CA983F"/>
<circle cx="4.18848" cy="4.18848" r="4.18848" transform="matrix(0 -1 -1 0 24.4175 311.287)" fill="#CA983F"/>
<circle cx="4.18848" cy="4.18848" r="4.18848" transform="matrix(0 -1 -1 0 12.8989 311.287)" fill="#CA983F"/>
<circle cx="4.18848" cy="4.18848" r="4.18848" transform="matrix(0 -1 -1 0 24.4175 299.769)" fill="#CA983F"/>
<circle cx="4.18848" cy="4.18848" r="4.18848" transform="matrix(0 -1 -1 0 12.8989 299.769)" fill="#CA983F"/>
<circle cx="4.18848" cy="4.18848" r="4.18848" transform="matrix(0 -1 -1 0 24.4175 288.25)" fill="#CA983F"/>
<circle cx="4.18848" cy="4.18848" r="4.18848" transform="matrix(0 -1 -1 0 12.8989 288.25)" fill="#CA983F"/>
<circle cx="4.18848" cy="4.18848" r="4.18848" transform="matrix(0 -1 -1 0 24.4175 276.732)" fill="#CA983F"/>
<circle cx="4.18848" cy="4.18848" r="4.18848" transform="matrix(0 -1 -1 0 12.8989 276.732)" fill="#CA983F"/>
<circle cx="4.18848" cy="4.18848" r="4.18848" transform="matrix(0 -1 -1 0 24.4175 265.213)" fill="#CA983F"/>
<circle cx="4.18848" cy="4.18848" r="4.18848" transform="matrix(0 -1 -1 0 12.8989 265.213)" fill="#CA983F"/>
<circle cx="4.18848" cy="4.18848" r="4.18848" transform="matrix(0 -1 -1 0 24.4175 253.695)" fill="#CA983F"/>
<circle cx="4.18848" cy="4.18848" r="4.18848" transform="matrix(0 -1 -1 0 12.8989 253.695)" fill="#CA983F"/>
<circle cx="4.18848" cy="4.18848" r="4.18848" transform="matrix(0 -1 -1 0 24.4175 242.177)" fill="#CA983F"/>
<circle cx="4.18848" cy="4.18848" r="4.18848" transform="matrix(0 -1 -1 0 12.8989 242.177)" fill="#CA983F"/>
<circle cx="4.18848" cy="4.18848" r="4.18848" transform="matrix(0 -1 -1 0 24.4175 230.658)" fill="#CA983F"/>
<circle cx="4.18848" cy="4.18848" r="4.18848" transform="matrix(0 -1 -1 0 12.8989 230.658)" fill="#CA983F"/>
<circle cx="4.18848" cy="4.18848" r="4.18848" transform="matrix(0 -1 -1 0 12.8989 219.14)" fill="#CA983F"/>
<circle cx="9.93995" cy="628.812" r="4.18848" transform="rotate(-90 9.93995 628.812)" fill="#CA983F"/>
<circle cx="9.32862" cy="617.671" r="4.18848" transform="rotate(-90 9.32862 617.671)" fill="#CA983F"/>
<circle cx="20.8472" cy="617.671" r="4.18848" transform="rotate(-90 20.8472 617.671)" fill="#CA983F"/>
<circle cx="9.32862" cy="606.153" r="4.18848" transform="rotate(-90 9.32862 606.153)" fill="#CA983F"/>
<circle cx="20.8472" cy="606.153" r="4.18848" transform="rotate(-90 20.8472 606.153)" fill="#CA983F"/>
<circle cx="9.32862" cy="594.634" r="4.18848" transform="rotate(-90 9.32862 594.634)" fill="#CA983F"/>
<circle cx="20.8472" cy="594.634" r="4.18848" transform="rotate(-90 20.8472 594.634)" fill="#CA983F"/>
<circle cx="9.32862" cy="583.116" r="4.18848" transform="rotate(-90 9.32862 583.116)" fill="#CA983F"/>
<circle cx="20.8472" cy="583.116" r="4.18848" transform="rotate(-90 20.8472 583.116)" fill="#CA983F"/>
<circle cx="9.32862" cy="571.598" r="4.18848" transform="rotate(-90 9.32862 571.598)" fill="#CA983F"/>
<circle cx="20.8472" cy="571.598" r="4.18848" transform="rotate(-90 20.8472 571.598)" fill="#CA983F"/>
<circle cx="9.32862" cy="560.079" r="4.18848" transform="rotate(-90 9.32862 560.079)" fill="#CA983F"/>
<circle cx="20.8472" cy="560.079" r="4.18848" transform="rotate(-90 20.8472 560.079)" fill="#CA983F"/>
<circle cx="9.32862" cy="548.561" r="4.18848" transform="rotate(-90 9.32862 548.561)" fill="#CA983F"/>
<circle cx="20.8472" cy="548.561" r="4.18848" transform="rotate(-90 20.8472 548.561)" fill="#CA983F"/>
<circle cx="9.32862" cy="537.043" r="4.18848" transform="rotate(-90 9.32862 537.043)" fill="#CA983F"/>
<circle cx="20.8472" cy="537.043" r="4.18848" transform="rotate(-90 20.8472 537.043)" fill="#CA983F"/>
<circle cx="9.32862" cy="525.525" r="4.18848" transform="rotate(-90 9.32862 525.525)" fill="#CA983F"/>
<circle cx="20.8472" cy="525.525" r="4.18848" transform="rotate(-90 20.8472 525.525)" fill="#CA983F"/>
<circle cx="9.32862" cy="514.006" r="4.18848" transform="rotate(-90 9.32862 514.006)" fill="#CA983F"/>
<circle cx="20.8472" cy="514.006" r="4.18848" transform="rotate(-90 20.8472 514.006)" fill="#CA983F"/>
<circle cx="9.32862" cy="502.488" r="4.18848" transform="rotate(-90 9.32862 502.488)" fill="#CA983F"/>
<circle cx="20.8472" cy="502.488" r="4.18848" transform="rotate(-90 20.8472 502.488)" fill="#CA983F"/>
<circle cx="9.32862" cy="490.969" r="4.18848" transform="rotate(-90 9.32862 490.969)" fill="#CA983F"/>
<circle cx="20.8472" cy="490.969" r="4.18848" transform="rotate(-90 20.8472 490.969)" fill="#CA983F"/>
<circle cx="9.32862" cy="479.451" r="4.18848" transform="rotate(-90 9.32862 479.451)" fill="#CA983F"/>
<circle cx="20.8472" cy="479.451" r="4.18848" transform="rotate(-90 20.8472 479.451)" fill="#CA983F"/>
<circle cx="9.32862" cy="467.933" r="4.18848" transform="rotate(-90 9.32862 467.933)" fill="#CA983F"/>
<circle cx="20.8472" cy="467.933" r="4.18848" transform="rotate(-90 20.8472 467.933)" fill="#CA983F"/>
<circle cx="9.32862" cy="456.414" r="4.18848" transform="rotate(-90 9.32862 456.414)" fill="#CA983F"/>
<circle cx="20.8472" cy="456.414" r="4.18848" transform="rotate(-90 20.8472 456.414)" fill="#CA983F"/>
<circle cx="9.32862" cy="444.896" r="4.18848" transform="rotate(-90 9.32862 444.896)" fill="#CA983F"/>
<circle cx="20.8472" cy="444.896" r="4.18848" transform="rotate(-90 20.8472 444.896)" fill="#CA983F"/>
<circle cx="9.32862" cy="433.378" r="4.18848" transform="rotate(-90 9.32862 433.378)" fill="#CA983F"/>
<circle cx="20.8472" cy="433.378" r="4.18848" transform="rotate(-90 20.8472 433.378)" fill="#CA983F"/>
<circle cx="20.8472" cy="421.86" r="4.18848" transform="rotate(-90 20.8472 421.86)" fill="#CA983F"/>
<circle cx="20.8472" cy="836.096" r="4.18848" transform="rotate(-90 20.8472 836.096)" fill="#CA983F"/>
<circle cx="9.93995" cy="835.719" r="4.18848" transform="rotate(-90 9.93995 835.719)" fill="#CA983F"/>
<circle cx="9.32862" cy="824.578" r="4.18848" transform="rotate(-90 9.32862 824.578)" fill="#CA983F"/>
<circle cx="20.8472" cy="824.578" r="4.18848" transform="rotate(-90 20.8472 824.578)" fill="#CA983F"/>
<circle cx="9.32862" cy="813.06" r="4.18848" transform="rotate(-90 9.32862 813.06)" fill="#CA983F"/>
<circle cx="20.8472" cy="813.06" r="4.18848" transform="rotate(-90 20.8472 813.06)" fill="#CA983F"/>
<circle cx="9.32862" cy="801.541" r="4.18848" transform="rotate(-90 9.32862 801.541)" fill="#CA983F"/>
<circle cx="20.8472" cy="801.541" r="4.18848" transform="rotate(-90 20.8472 801.541)" fill="#CA983F"/>
<circle cx="9.32862" cy="790.023" r="4.18848" transform="rotate(-90 9.32862 790.023)" fill="#CA983F"/>
<circle cx="20.8472" cy="790.023" r="4.18848" transform="rotate(-90 20.8472 790.023)" fill="#CA983F"/>
<circle cx="9.32862" cy="778.505" r="4.18848" transform="rotate(-90 9.32862 778.505)" fill="#CA983F"/>
<circle cx="20.8472" cy="778.505" r="4.18848" transform="rotate(-90 20.8472 778.505)" fill="#CA983F"/>
<circle cx="9.32862" cy="766.987" r="4.18848" transform="rotate(-90 9.32862 766.987)" fill="#CA983F"/>
<circle cx="20.8472" cy="766.987" r="4.18848" transform="rotate(-90 20.8472 766.987)" fill="#CA983F"/>
<circle cx="9.32862" cy="755.468" r="4.18848" transform="rotate(-90 9.32862 755.468)" fill="#CA983F"/>
<circle cx="20.8472" cy="755.468" r="4.18848" transform="rotate(-90 20.8472 755.468)" fill="#CA983F"/>
<circle cx="9.32862" cy="743.95" r="4.18848" transform="rotate(-90 9.32862 743.95)" fill="#CA983F"/>
<circle cx="20.8472" cy="743.95" r="4.18848" transform="rotate(-90 20.8472 743.95)" fill="#CA983F"/>
<circle cx="9.32862" cy="732.432" r="4.18848" transform="rotate(-90 9.32862 732.432)" fill="#CA983F"/>
<circle cx="20.8472" cy="732.432" r="4.18848" transform="rotate(-90 20.8472 732.432)" fill="#CA983F"/>
<circle cx="9.32862" cy="720.913" r="4.18848" transform="rotate(-90 9.32862 720.913)" fill="#CA983F"/>
<circle cx="20.8472" cy="720.913" r="4.18848" transform="rotate(-90 20.8472 720.913)" fill="#CA983F"/>
<circle cx="9.32862" cy="709.395" r="4.18848" transform="rotate(-90 9.32862 709.395)" fill="#CA983F"/>
<circle cx="20.8472" cy="709.395" r="4.18848" transform="rotate(-90 20.8472 709.395)" fill="#CA983F"/>
<circle cx="9.32862" cy="697.877" r="4.18848" transform="rotate(-90 9.32862 697.877)" fill="#CA983F"/>
<circle cx="20.8472" cy="697.877" r="4.18848" transform="rotate(-90 20.8472 697.877)" fill="#CA983F"/>
<circle cx="9.32862" cy="686.358" r="4.18848" transform="rotate(-90 9.32862 686.358)" fill="#CA983F"/>
<circle cx="20.8472" cy="686.358" r="4.18848" transform="rotate(-90 20.8472 686.358)" fill="#CA983F"/>
<circle cx="9.32862" cy="674.84" r="4.18848" transform="rotate(-90 9.32862 674.84)" fill="#CA983F"/>
<circle cx="20.8472" cy="674.84" r="4.18848" transform="rotate(-90 20.8472 674.84)" fill="#CA983F"/>
<circle cx="9.32862" cy="663.322" r="4.18848" transform="rotate(-90 9.32862 663.322)" fill="#CA983F"/>
<circle cx="20.8472" cy="663.322" r="4.18848" transform="rotate(-90 20.8472 663.322)" fill="#CA983F"/>
<circle cx="9.32862" cy="651.803" r="4.18848" transform="rotate(-90 9.32862 651.803)" fill="#CA983F"/>
<circle cx="20.8472" cy="651.803" r="4.18848" transform="rotate(-90 20.8472 651.803)" fill="#CA983F"/>
<circle cx="9.32862" cy="640.285" r="4.18848" transform="rotate(-90 9.32862 640.285)" fill="#CA983F"/>
<circle cx="20.8472" cy="640.285" r="4.18848" transform="rotate(-90 20.8472 640.285)" fill="#CA983F"/>
<circle cx="20.8472" cy="628.766" r="4.18848" transform="rotate(-90 20.8472 628.766)" fill="#CA983F"/>
<circle cx="1581.06" cy="191.942" r="4.18848" transform="rotate(-90 1581.06 191.942)" fill="#CA983F"/>
<circle cx="1592.57" cy="191.942" r="4.18848" transform="rotate(-90 1592.57 191.942)" fill="#CA983F"/>
<circle cx="1581.06" cy="180.423" r="4.18848" transform="rotate(-90 1581.06 180.423)" fill="#CA983F"/>
<circle cx="1592.57" cy="180.423" r="4.18848" transform="rotate(-90 1592.57 180.423)" fill="#CA983F"/>
<circle cx="1581.06" cy="168.906" r="4.18848" transform="rotate(-90 1581.06 168.906)" fill="#CA983F"/>
<circle cx="1592.57" cy="168.906" r="4.18848" transform="rotate(-90 1592.57 168.906)" fill="#CA983F"/>
<circle cx="1581.06" cy="157.386" r="4.18848" transform="rotate(-90 1581.06 157.386)" fill="#CA983F"/>
<circle cx="1592.57" cy="157.386" r="4.18848" transform="rotate(-90 1592.57 157.386)" fill="#CA983F"/>
<circle cx="1581.06" cy="145.868" r="4.18848" transform="rotate(-90 1581.06 145.868)" fill="#CA983F"/>
<circle cx="1592.57" cy="145.868" r="4.18848" transform="rotate(-90 1592.57 145.868)" fill="#CA983F"/>
<circle cx="1581.06" cy="134.35" r="4.18848" transform="rotate(-90 1581.06 134.35)" fill="#CA983F"/>
<circle cx="1592.57" cy="134.35" r="4.18848" transform="rotate(-90 1592.57 134.35)" fill="#CA983F"/>
<circle cx="1581.06" cy="122.832" r="4.18848" transform="rotate(-90 1581.06 122.832)" fill="#CA983F"/>
<circle cx="1592.57" cy="122.832" r="4.18848" transform="rotate(-90 1592.57 122.832)" fill="#CA983F"/>
<circle cx="1581.06" cy="111.313" r="4.18848" transform="rotate(-90 1581.06 111.313)" fill="#CA983F"/>
<circle cx="1592.57" cy="111.313" r="4.18848" transform="rotate(-90 1592.57 111.313)" fill="#CA983F"/>
<circle cx="1581.06" cy="99.7949" r="4.18848" transform="rotate(-90 1581.06 99.7949)" fill="#CA983F"/>
<circle cx="1592.57" cy="99.7949" r="4.18848" transform="rotate(-90 1592.57 99.7949)" fill="#CA983F"/>
<circle cx="1581.06" cy="88.2766" r="4.18848" transform="rotate(-90 1581.06 88.2766)" fill="#CA983F"/>
<circle cx="1592.57" cy="88.2766" r="4.18848" transform="rotate(-90 1592.57 88.2766)" fill="#CA983F"/>
<circle cx="1581.06" cy="76.7585" r="4.18848" transform="rotate(-90 1581.06 76.7585)" fill="#CA983F"/>
<circle cx="1592.57" cy="76.7585" r="4.18848" transform="rotate(-90 1592.57 76.7585)" fill="#CA983F"/>
<circle cx="1581.06" cy="65.2402" r="4.18848" transform="rotate(-90 1581.06 65.2402)" fill="#CA983F"/>
<circle cx="1592.57" cy="65.2402" r="4.18848" transform="rotate(-90 1592.57 65.2402)" fill="#CA983F"/>
<circle cx="1581.06" cy="53.7219" r="4.18848" transform="rotate(-90 1581.06 53.7219)" fill="#CA983F"/>
<circle cx="1592.57" cy="53.7219" r="4.18848" transform="rotate(-90 1592.57 53.7219)" fill="#CA983F"/>
<circle cx="1581.06" cy="42.2034" r="4.18848" transform="rotate(-90 1581.06 42.2034)" fill="#CA983F"/>
<circle cx="1592.57" cy="42.2034" r="4.18848" transform="rotate(-90 1592.57 42.2034)" fill="#CA983F"/>
<circle cx="1581.06" cy="30.6853" r="4.18848" transform="rotate(-90 1581.06 30.6853)" fill="#CA983F"/>
<circle cx="1592.57" cy="30.6853" r="4.18848" transform="rotate(-90 1592.57 30.6853)" fill="#CA983F"/>
</g>
<circle cx="1581.06" cy="365.927" r="4.18848" transform="rotate(-90 1581.06 365.927)" fill="#CA983F"/>
<circle cx="1592" cy="365.927" r="4.18848" transform="rotate(-90 1592 365.927)" fill="#CA983F"/>
<circle cx="1581.06" cy="354.409" r="4.18848" transform="rotate(-90 1581.06 354.409)" fill="#CA983F"/>
<circle cx="1592" cy="354.409" r="4.18848" transform="rotate(-90 1592 354.409)" fill="#CA983F"/>
<circle cx="1581.06" cy="342.891" r="4.18848" transform="rotate(-90 1581.06 342.891)" fill="#CA983F"/>
<circle cx="1592" cy="342.891" r="4.18848" transform="rotate(-90 1592 342.891)" fill="#CA983F"/>
<circle cx="1581.06" cy="331.372" r="4.18848" transform="rotate(-90 1581.06 331.372)" fill="#CA983F"/>
<circle cx="1592" cy="331.372" r="4.18848" transform="rotate(-90 1592 331.372)" fill="#CA983F"/>
<circle cx="1581.06" cy="319.854" r="4.18848" transform="rotate(-90 1581.06 319.854)" fill="#CA983F"/>
<circle cx="1592" cy="319.854" r="4.18848" transform="rotate(-90 1592 319.854)" fill="#CA983F"/>
<circle cx="1581.06" cy="308.335" r="4.18848" transform="rotate(-90 1581.06 308.335)" fill="#CA983F"/>
<circle cx="1592" cy="308.335" r="4.18848" transform="rotate(-90 1592 308.335)" fill="#CA983F"/>
<circle cx="1581.06" cy="296.817" r="4.18848" transform="rotate(-90 1581.06 296.817)" fill="#CA983F"/>
<circle cx="1592" cy="296.817" r="4.18848" transform="rotate(-90 1592 296.817)" fill="#CA983F"/>
<circle cx="1581.06" cy="285.298" r="4.18848" transform="rotate(-90 1581.06 285.298)" fill="#CA983F"/>
<circle cx="1592" cy="285.299" r="4.18848" transform="rotate(-90 1592 285.299)" fill="#CA983F"/>
<circle cx="1581.06" cy="273.78" r="4.18848" transform="rotate(-90 1581.06 273.78)" fill="#CA983F"/>
<circle cx="1592" cy="273.78" r="4.18848" transform="rotate(-90 1592 273.78)" fill="#CA983F"/>
<circle cx="1581.06" cy="262.262" r="4.18848" transform="rotate(-90 1581.06 262.262)" fill="#CA983F"/>
<circle cx="1592" cy="262.262" r="4.18848" transform="rotate(-90 1592 262.262)" fill="#CA983F"/>
<circle cx="1581.06" cy="250.744" r="4.18848" transform="rotate(-90 1581.06 250.744)" fill="#CA983F"/>
<circle cx="1592" cy="250.744" r="4.18848" transform="rotate(-90 1592 250.744)" fill="#CA983F"/>
<circle cx="1581.06" cy="239.226" r="4.18848" transform="rotate(-90 1581.06 239.226)" fill="#CA983F"/>
<circle cx="1592" cy="239.226" r="4.18848" transform="rotate(-90 1592 239.226)" fill="#CA983F"/>
<circle cx="1581.06" cy="227.707" r="4.18848" transform="rotate(-90 1581.06 227.707)" fill="#CA983F"/>
<circle cx="1592" cy="227.707" r="4.18848" transform="rotate(-90 1592 227.707)" fill="#CA983F"/>
<circle cx="1581.06" cy="216.189" r="4.18848" transform="rotate(-90 1581.06 216.189)" fill="#CA983F"/>
<circle cx="1592" cy="216.189" r="4.18848" transform="rotate(-90 1592 216.189)" fill="#CA983F"/>
<circle cx="1581.06" cy="204.671" r="4.18848" transform="rotate(-90 1581.06 204.671)" fill="#CA983F"/>
<circle cx="1592" cy="204.671" r="4.18848" transform="rotate(-90 1592 204.671)" fill="#CA983F"/>
<circle cx="1581.06" cy="539.421" r="4.18848" transform="rotate(-90 1581.06 539.421)" fill="#CA983F"/>
<circle cx="1592.57" cy="539.421" r="4.18848" transform="rotate(-90 1592.57 539.421)" fill="#CA983F"/>
<circle cx="1581.06" cy="527.903" r="4.18848" transform="rotate(-90 1581.06 527.903)" fill="#CA983F"/>
<circle cx="1592.57" cy="527.903" r="4.18848" transform="rotate(-90 1592.57 527.903)" fill="#CA983F"/>
<circle cx="1581.06" cy="516.385" r="4.18848" transform="rotate(-90 1581.06 516.385)" fill="#CA983F"/>
<circle cx="1592.57" cy="516.385" r="4.18848" transform="rotate(-90 1592.57 516.385)" fill="#CA983F"/>
<circle cx="1581.06" cy="504.866" r="4.18848" transform="rotate(-90 1581.06 504.866)" fill="#CA983F"/>
<circle cx="1592.57" cy="504.866" r="4.18848" transform="rotate(-90 1592.57 504.866)" fill="#CA983F"/>
<circle cx="1581.06" cy="493.348" r="4.18848" transform="rotate(-90 1581.06 493.348)" fill="#CA983F"/>
<circle cx="1592.57" cy="493.348" r="4.18848" transform="rotate(-90 1592.57 493.348)" fill="#CA983F"/>
<circle cx="1581.06" cy="481.829" r="4.18848" transform="rotate(-90 1581.06 481.829)" fill="#CA983F"/>
<circle cx="1592.57" cy="481.829" r="4.18848" transform="rotate(-90 1592.57 481.829)" fill="#CA983F"/>
<circle cx="1581.06" cy="470.311" r="4.18848" transform="rotate(-90 1581.06 470.311)" fill="#CA983F"/>
<circle cx="1592.57" cy="470.311" r="4.18848" transform="rotate(-90 1592.57 470.311)" fill="#CA983F"/>
<circle cx="1581.06" cy="458.793" r="4.18848" transform="rotate(-90 1581.06 458.793)" fill="#CA983F"/>
<circle cx="1592.57" cy="458.793" r="4.18848" transform="rotate(-90 1592.57 458.793)" fill="#CA983F"/>
<circle cx="1581.06" cy="447.274" r="4.18848" transform="rotate(-90 1581.06 447.274)" fill="#CA983F"/>
<circle cx="1592.57" cy="447.274" r="4.18848" transform="rotate(-90 1592.57 447.274)" fill="#CA983F"/>
<circle cx="1581.06" cy="435.756" r="4.18848" transform="rotate(-90 1581.06 435.756)" fill="#CA983F"/>
<circle cx="1592.57" cy="435.756" r="4.18848" transform="rotate(-90 1592.57 435.756)" fill="#CA983F"/>
<circle cx="1581.06" cy="424.238" r="4.18848" transform="rotate(-90 1581.06 424.238)" fill="#CA983F"/>
<circle cx="1592.57" cy="424.238" r="4.18848" transform="rotate(-90 1592.57 424.238)" fill="#CA983F"/>
<circle cx="1581.06" cy="412.719" r="4.18848" transform="rotate(-90 1581.06 412.719)" fill="#CA983F"/>
<circle cx="1592.57" cy="412.719" r="4.18848" transform="rotate(-90 1592.57 412.719)" fill="#CA983F"/>
<circle cx="1581.06" cy="401.201" r="4.18848" transform="rotate(-90 1581.06 401.201)" fill="#CA983F"/>
<circle cx="1592.57" cy="401.201" r="4.18848" transform="rotate(-90 1592.57 401.201)" fill="#CA983F"/>
<circle cx="1581.06" cy="389.683" r="4.18848" transform="rotate(-90 1581.06 389.683)" fill="#CA983F"/>
<circle cx="1592.57" cy="389.683" r="4.18848" transform="rotate(-90 1592.57 389.683)" fill="#CA983F"/>
<circle cx="1581.06" cy="378.164" r="4.18848" transform="rotate(-90 1581.06 378.164)" fill="#CA983F"/>
<circle cx="1592.57" cy="378.164" r="4.18848" transform="rotate(-90 1592.57 378.164)" fill="#CA983F"/>
<circle cx="1581.06" cy="712.915" r="4.18848" transform="rotate(-90 1581.06 712.915)" fill="#CA983F"/>
<circle cx="1592.57" cy="712.915" r="4.18848" transform="rotate(-90 1592.57 712.915)" fill="#CA983F"/>
<circle cx="1581.06" cy="701.397" r="4.18848" transform="rotate(-90 1581.06 701.397)" fill="#CA983F"/>
<circle cx="1592.57" cy="701.397" r="4.18848" transform="rotate(-90 1592.57 701.397)" fill="#CA983F"/>
<circle cx="1581.06" cy="689.879" r="4.18848" transform="rotate(-90 1581.06 689.879)" fill="#CA983F"/>
<circle cx="1592.57" cy="689.879" r="4.18848" transform="rotate(-90 1592.57 689.879)" fill="#CA983F"/>
<circle cx="1581.06" cy="678.36" r="4.18848" transform="rotate(-90 1581.06 678.36)" fill="#CA983F"/>
<circle cx="1592.57" cy="678.36" r="4.18848" transform="rotate(-90 1592.57 678.36)" fill="#CA983F"/>
<circle cx="1581.06" cy="666.842" r="4.18848" transform="rotate(-90 1581.06 666.842)" fill="#CA983F"/>
<circle cx="1592.57" cy="666.842" r="4.18848" transform="rotate(-90 1592.57 666.842)" fill="#CA983F"/>
<circle cx="1581.06" cy="655.324" r="4.18848" transform="rotate(-90 1581.06 655.324)" fill="#CA983F"/>
<circle cx="1592.57" cy="655.324" r="4.18848" transform="rotate(-90 1592.57 655.324)" fill="#CA983F"/>
<circle cx="1581.06" cy="643.805" r="4.18848" transform="rotate(-90 1581.06 643.805)" fill="#CA983F"/>
<circle cx="1592.57" cy="643.805" r="4.18848" transform="rotate(-90 1592.57 643.805)" fill="#CA983F"/>
<circle cx="1581.06" cy="632.287" r="4.18848" transform="rotate(-90 1581.06 632.287)" fill="#CA983F"/>
<circle cx="1592.57" cy="632.287" r="4.18848" transform="rotate(-90 1592.57 632.287)" fill="#CA983F"/>
<circle cx="1581.06" cy="620.769" r="4.18848" transform="rotate(-90 1581.06 620.769)" fill="#CA983F"/>
<circle cx="1592.57" cy="620.769" r="4.18848" transform="rotate(-90 1592.57 620.769)" fill="#CA983F"/>
<circle cx="1581.06" cy="609.25" r="4.18848" transform="rotate(-90 1581.06 609.25)" fill="#CA983F"/>
<circle cx="1592.57" cy="609.25" r="4.18848" transform="rotate(-90 1592.57 609.25)" fill="#CA983F"/>
<circle cx="1581.06" cy="597.732" r="4.18848" transform="rotate(-90 1581.06 597.732)" fill="#CA983F"/>
<circle cx="1592.57" cy="597.732" r="4.18848" transform="rotate(-90 1592.57 597.732)" fill="#CA983F"/>
<circle cx="1581.06" cy="586.214" r="4.18848" transform="rotate(-90 1581.06 586.214)" fill="#CA983F"/>
<circle cx="1592.57" cy="586.214" r="4.18848" transform="rotate(-90 1592.57 586.214)" fill="#CA983F"/>
<circle cx="1581.06" cy="574.695" r="4.18848" transform="rotate(-90 1581.06 574.695)" fill="#CA983F"/>
<circle cx="1592.57" cy="574.695" r="4.18848" transform="rotate(-90 1592.57 574.695)" fill="#CA983F"/>
<circle cx="1581.06" cy="563.177" r="4.18848" transform="rotate(-90 1581.06 563.177)" fill="#CA983F"/>
<circle cx="1592.57" cy="563.177" r="4.18848" transform="rotate(-90 1592.57 563.177)" fill="#CA983F"/>
<circle cx="1581.06" cy="551.658" r="4.18848" transform="rotate(-90 1581.06 551.658)" fill="#CA983F"/>
<circle cx="1592.57" cy="551.658" r="4.18848" transform="rotate(-90 1592.57 551.658)" fill="#CA983F"/>
<circle cx="1581.06" cy="851.854" r="4.18848" transform="rotate(-90 1581.06 851.854)" fill="#CA983F"/>
<circle cx="1581.06" cy="840.336" r="4.18848" transform="rotate(-90 1581.06 840.336)" fill="#CA983F"/>
<circle cx="1592.57" cy="840.336" r="4.18848" transform="rotate(-90 1592.57 840.336)" fill="#CA983F"/>
<circle cx="1581.06" cy="828.817" r="4.18848" transform="rotate(-90 1581.06 828.817)" fill="#CA983F"/>
<circle cx="1592.57" cy="828.817" r="4.18848" transform="rotate(-90 1592.57 828.817)" fill="#CA983F"/>
<circle cx="1581.06" cy="817.299" r="4.18848" transform="rotate(-90 1581.06 817.299)" fill="#CA983F"/>
<circle cx="1592.57" cy="817.299" r="4.18848" transform="rotate(-90 1592.57 817.299)" fill="#CA983F"/>
<circle cx="1581.06" cy="805.781" r="4.18848" transform="rotate(-90 1581.06 805.781)" fill="#CA983F"/>
<circle cx="1592.57" cy="805.781" r="4.18848" transform="rotate(-90 1592.57 805.781)" fill="#CA983F"/>
<circle cx="1581.06" cy="794.262" r="4.18848" transform="rotate(-90 1581.06 794.262)" fill="#CA983F"/>
<circle cx="1592.57" cy="794.262" r="4.18848" transform="rotate(-90 1592.57 794.262)" fill="#CA983F"/>
<circle cx="1581.06" cy="782.744" r="4.18848" transform="rotate(-90 1581.06 782.744)" fill="#CA983F"/>
<circle cx="1592.57" cy="782.744" r="4.18848" transform="rotate(-90 1592.57 782.744)" fill="#CA983F"/>
<circle cx="1581.06" cy="771.226" r="4.18848" transform="rotate(-90 1581.06 771.226)" fill="#CA983F"/>
<circle cx="1592.57" cy="771.226" r="4.18848" transform="rotate(-90 1592.57 771.226)" fill="#CA983F"/>
<circle cx="1581.06" cy="759.707" r="4.18848" transform="rotate(-90 1581.06 759.707)" fill="#CA983F"/>
<circle cx="1592.57" cy="759.707" r="4.18848" transform="rotate(-90 1592.57 759.707)" fill="#CA983F"/>
<circle cx="1581.06" cy="748.189" r="4.18848" transform="rotate(-90 1581.06 748.189)" fill="#CA983F"/>
<circle cx="1592.57" cy="748.189" r="4.18848" transform="rotate(-90 1592.57 748.189)" fill="#CA983F"/>
<circle cx="1581.06" cy="736.671" r="4.18848" transform="rotate(-90 1581.06 736.671)" fill="#CA983F"/>
<circle cx="1592.57" cy="736.671" r="4.18848" transform="rotate(-90 1592.57 736.671)" fill="#CA983F"/>
<circle cx="1581.06" cy="725.153" r="4.18848" transform="rotate(-90 1581.06 725.153)" fill="#CA983F"/>
<circle cx="1592.57" cy="725.153" r="4.18848" transform="rotate(-90 1592.57 725.153)" fill="#CA983F"/>
<circle cx="31.3901" cy="7.84009" r="4.18848" fill="#CA983F"/>
<circle cx="31.3901" cy="19.3579" r="4.18848" fill="#CA983F"/>
<circle cx="42.9087" cy="7.84009" r="4.18848" fill="#CA983F"/>
<circle cx="42.9087" cy="19.3579" r="4.18848" fill="#CA983F"/>
<circle cx="54.4268" cy="7.84009" r="4.18848" fill="#CA983F"/>
<circle cx="54.4268" cy="19.3579" r="4.18848" fill="#CA983F"/>
<circle cx="65.9448" cy="7.84009" r="4.18848" fill="#CA983F"/>
<circle cx="65.9448" cy="19.3579" r="4.18848" fill="#CA983F"/>
<circle cx="77.4634" cy="7.84009" r="4.18848" fill="#CA983F"/>
<circle cx="77.4634" cy="19.3579" r="4.18848" fill="#CA983F"/>
<circle cx="88.9815" cy="7.84009" r="4.18848" fill="#CA983F"/>
<circle cx="88.9815" cy="19.3579" r="4.18848" fill="#CA983F"/>
<circle cx="100.5" cy="7.84009" r="4.18848" fill="#CA983F"/>
<circle cx="100.5" cy="19.3579" r="4.18848" fill="#CA983F"/>
<circle cx="112.018" cy="7.84009" r="4.18848" fill="#CA983F"/>
<circle cx="112.018" cy="19.3579" r="4.18848" fill="#CA983F"/>
<circle cx="123.537" cy="7.84009" r="4.18848" fill="#CA983F"/>
<circle cx="123.537" cy="19.3579" r="4.18848" fill="#CA983F"/>
<circle cx="135.056" cy="7.84009" r="4.18848" fill="#CA983F"/>
<circle cx="135.056" cy="19.3579" r="4.18848" fill="#CA983F"/>
<circle cx="146.573" cy="7.84009" r="4.18848" fill="#CA983F"/>
<circle cx="146.573" cy="19.3579" r="4.18848" fill="#CA983F"/>
<circle cx="158.091" cy="7.84009" r="4.18848" fill="#CA983F"/>
<circle cx="158.091" cy="19.3579" r="4.18848" fill="#CA983F"/>
<circle cx="169.609" cy="7.84009" r="4.18848" fill="#CA983F"/>
<circle cx="169.609" cy="19.3579" r="4.18848" fill="#CA983F"/>
<circle cx="181.128" cy="7.84009" r="4.18848" fill="#CA983F"/>
<circle cx="181.128" cy="19.3579" r="4.18848" fill="#CA983F"/>
<circle cx="192.647" cy="7.84009" r="4.18848" fill="#CA983F"/>
<circle cx="192.647" cy="19.3579" r="4.18848" fill="#CA983F"/>
<circle cx="204.165" cy="7.84009" r="4.18848" fill="#CA983F"/>
<circle cx="204.165" cy="19.3579" r="4.18848" fill="#CA983F"/>
<circle cx="215.683" cy="7.84009" r="4.18848" fill="#CA983F"/>
<circle cx="215.683" cy="19.3579" r="4.18848" fill="#CA983F"/>
<circle cx="227.201" cy="7.84009" r="4.18848" fill="#CA983F"/>
<circle cx="227.201" cy="19.3579" r="4.18848" fill="#CA983F"/>
<circle cx="238.72" cy="7.84009" r="4.18848" fill="#CA983F"/>
<circle cx="238.72" cy="19.3579" r="4.18848" fill="#CA983F"/>
<circle cx="250.238" cy="7.84009" r="4.18848" fill="#CA983F"/>
<circle cx="250.238" cy="19.3579" r="4.18848" fill="#CA983F"/>
<circle cx="261.756" cy="7.84009" r="4.18848" fill="#CA983F"/>
<circle cx="261.756" cy="19.3579" r="4.18848" fill="#CA983F"/>
<circle cx="273.274" cy="7.84009" r="4.18848" fill="#CA983F"/>
<circle cx="273.274" cy="19.3579" r="4.18848" fill="#CA983F"/>
<circle cx="284.792" cy="7.84009" r="4.18848" fill="#CA983F"/>
<circle cx="284.792" cy="19.3579" r="4.18848" fill="#CA983F"/>
<circle cx="296.311" cy="7.84009" r="4.18848" fill="#CA983F"/>
<circle cx="296.311" cy="19.3579" r="4.18848" fill="#CA983F"/>
<circle cx="307.83" cy="7.84009" r="4.18848" fill="#CA983F"/>
<circle cx="307.83" cy="19.3579" r="4.18848" fill="#CA983F"/>
<circle cx="319.348" cy="7.84009" r="4.18848" fill="#CA983F"/>
<circle cx="319.348" cy="19.3579" r="4.18848" fill="#CA983F"/>
<circle cx="330.866" cy="7.84009" r="4.18848" fill="#CA983F"/>
<circle cx="330.866" cy="19.3579" r="4.18848" fill="#CA983F"/>
<circle cx="342.385" cy="7.84009" r="4.18848" fill="#CA983F"/>
<circle cx="342.385" cy="19.3579" r="4.18848" fill="#CA983F"/>
<circle cx="353.902" cy="7.84009" r="4.18848" fill="#CA983F"/>
<circle cx="353.902" cy="19.3579" r="4.18848" fill="#CA983F"/>
<circle cx="365.421" cy="7.84009" r="4.18848" fill="#CA983F"/>
<circle cx="365.421" cy="19.3579" r="4.18848" fill="#CA983F"/>
<circle cx="378.063" cy="7.84009" r="4.18848" fill="#CA983F"/>
<circle cx="378.063" cy="19.3579" r="4.18848" fill="#CA983F"/>
<circle cx="389.582" cy="7.84009" r="4.18848" fill="#CA983F"/>
<circle cx="389.582" cy="19.3579" r="4.18848" fill="#CA983F"/>
<circle cx="401.101" cy="7.84009" r="4.18848" fill="#CA983F"/>
<circle cx="401.101" cy="19.3579" r="4.18848" fill="#CA983F"/>
<circle cx="412.619" cy="7.84009" r="4.18848" fill="#CA983F"/>
<circle cx="412.619" cy="19.3579" r="4.18848" fill="#CA983F"/>
<circle cx="424.137" cy="7.84009" r="4.18848" fill="#CA983F"/>
<circle cx="424.137" cy="19.3579" r="4.18848" fill="#CA983F"/>
<circle cx="435.655" cy="7.84009" r="4.18848" fill="#CA983F"/>
<circle cx="435.655" cy="19.3579" r="4.18848" fill="#CA983F"/>
<circle cx="447.174" cy="7.84009" r="4.18848" fill="#CA983F"/>
<circle cx="447.174" cy="19.3579" r="4.18848" fill="#CA983F"/>
<circle cx="458.692" cy="7.84009" r="4.18848" fill="#CA983F"/>
<circle cx="458.692" cy="19.3579" r="4.18848" fill="#CA983F"/>
<circle cx="470.21" cy="7.84009" r="4.18848" fill="#CA983F"/>
<circle cx="470.21" cy="19.3579" r="4.18848" fill="#CA983F"/>
<circle cx="481.729" cy="7.84009" r="4.18848" fill="#CA983F"/>
<circle cx="481.729" cy="19.3579" r="4.18848" fill="#CA983F"/>
<circle cx="493.247" cy="7.84009" r="4.18848" fill="#CA983F"/>
<circle cx="493.247" cy="19.3579" r="4.18848" fill="#CA983F"/>
<circle cx="504.765" cy="7.84009" r="4.18848" fill="#CA983F"/>
<circle cx="504.765" cy="19.3579" r="4.18848" fill="#CA983F"/>
<circle cx="516.284" cy="7.84009" r="4.18848" fill="#CA983F"/>
<circle cx="516.284" cy="19.3579" r="4.18848" fill="#CA983F"/>
<circle cx="527.803" cy="7.84009" r="4.18848" fill="#CA983F"/>
<circle cx="527.803" cy="19.3579" r="4.18848" fill="#CA983F"/>
<circle cx="539.32" cy="7.84009" r="4.18848" fill="#CA983F"/>
<circle cx="539.32" cy="19.3579" r="4.18848" fill="#CA983F"/>
<circle cx="550.839" cy="7.84009" r="4.18848" fill="#CA983F"/>
<circle cx="550.839" cy="19.3579" r="4.18848" fill="#CA983F"/>
<circle cx="562.357" cy="7.84009" r="4.18848" fill="#CA983F"/>
<circle cx="562.357" cy="19.3579" r="4.18848" fill="#CA983F"/>
<circle cx="573.875" cy="7.84009" r="4.18848" fill="#CA983F"/>
<circle cx="573.875" cy="19.3579" r="4.18848" fill="#CA983F"/>
<circle cx="585.394" cy="7.84009" r="4.18848" fill="#CA983F"/>
<circle cx="585.394" cy="19.3579" r="4.18848" fill="#CA983F"/>
<circle cx="596.912" cy="7.84009" r="4.18848" fill="#CA983F"/>
<circle cx="596.912" cy="19.3579" r="4.18848" fill="#CA983F"/>
<circle cx="608.43" cy="7.84009" r="4.18848" fill="#CA983F"/>
<circle cx="608.43" cy="19.3579" r="4.18848" fill="#CA983F"/>
<circle cx="619.949" cy="7.84009" r="4.18848" fill="#CA983F"/>
<circle cx="619.949" cy="19.3579" r="4.18848" fill="#CA983F"/>
<circle cx="631.467" cy="7.84009" r="4.18848" fill="#CA983F"/>
<circle cx="631.467" cy="19.3579" r="4.18848" fill="#CA983F"/>
<circle cx="642.985" cy="7.84009" r="4.18848" fill="#CA983F"/>
<circle cx="642.985" cy="19.3579" r="4.18848" fill="#CA983F"/>
<circle cx="654.503" cy="7.84009" r="4.18848" fill="#CA983F"/>
<circle cx="654.503" cy="19.3579" r="4.18848" fill="#CA983F"/>
<circle cx="666.022" cy="7.84009" r="4.18848" fill="#CA983F"/>
<circle cx="666.022" cy="19.3579" r="4.18848" fill="#CA983F"/>
<circle cx="677.541" cy="7.84009" r="4.18848" fill="#CA983F"/>
<circle cx="677.541" cy="19.3579" r="4.18848" fill="#CA983F"/>
<circle cx="689.059" cy="7.84009" r="4.18848" fill="#CA983F"/>
<circle cx="689.059" cy="19.3579" r="4.18848" fill="#CA983F"/>
<circle cx="700.577" cy="7.84009" r="4.18848" fill="#CA983F"/>
<circle cx="700.577" cy="19.3579" r="4.18848" fill="#CA983F"/>
<circle cx="712.095" cy="7.84009" r="4.18848" fill="#CA983F"/>
<circle cx="712.095" cy="19.3579" r="4.18848" fill="#CA983F"/>
<circle cx="724.738" cy="7.84009" r="4.18848" fill="#CA983F"/>
<circle cx="724.738" cy="19.3579" r="4.18848" fill="#CA983F"/>
<circle cx="736.257" cy="7.84009" r="4.18848" fill="#CA983F"/>
<circle cx="736.257" cy="19.3579" r="4.18848" fill="#CA983F"/>
<circle cx="747.775" cy="7.84009" r="4.18848" fill="#CA983F"/>
<circle cx="747.775" cy="19.3579" r="4.18848" fill="#CA983F"/>
<circle cx="759.293" cy="7.84009" r="4.18848" fill="#CA983F"/>
<circle cx="759.293" cy="19.3579" r="4.18848" fill="#CA983F"/>
<circle cx="770.812" cy="7.84009" r="4.18848" fill="#CA983F"/>
<circle cx="770.812" cy="19.3579" r="4.18848" fill="#CA983F"/>
<circle cx="782.33" cy="7.84009" r="4.18848" fill="#CA983F"/>
<circle cx="782.33" cy="19.3579" r="4.18848" fill="#CA983F"/>
<circle cx="793.848" cy="7.84009" r="4.18848" fill="#CA983F"/>
<circle cx="793.848" cy="19.3579" r="4.18848" fill="#CA983F"/>
<circle cx="805.366" cy="7.84009" r="4.18848" fill="#CA983F"/>
<circle cx="805.366" cy="19.3579" r="4.18848" fill="#CA983F"/>
<circle cx="816.885" cy="7.84009" r="4.18848" fill="#CA983F"/>
<circle cx="816.885" cy="19.3579" r="4.18848" fill="#CA983F"/>
<circle cx="828.403" cy="7.84009" r="4.18848" fill="#CA983F"/>
<circle cx="828.403" cy="19.3579" r="4.18848" fill="#CA983F"/>
<circle cx="839.921" cy="7.84009" r="4.18848" fill="#CA983F"/>
<circle cx="839.921" cy="19.3579" r="4.18848" fill="#CA983F"/>
<circle cx="851.44" cy="7.84009" r="4.18848" fill="#CA983F"/>
<circle cx="851.44" cy="19.3579" r="4.18848" fill="#CA983F"/>
<circle cx="862.958" cy="7.84009" r="4.18848" fill="#CA983F"/>
<circle cx="862.958" cy="19.3579" r="4.18848" fill="#CA983F"/>
<circle cx="874.476" cy="7.84009" r="4.18848" fill="#CA983F"/>
<circle cx="874.476" cy="19.3579" r="4.18848" fill="#CA983F"/>
<circle cx="885.995" cy="7.84009" r="4.18848" fill="#CA983F"/>
<circle cx="885.995" cy="19.3579" r="4.18848" fill="#CA983F"/>
<circle cx="897.513" cy="7.84009" r="4.18848" fill="#CA983F"/>
<circle cx="897.513" cy="19.3579" r="4.18848" fill="#CA983F"/>
<circle cx="909.031" cy="7.84009" r="4.18848" fill="#CA983F"/>
<circle cx="909.031" cy="19.3579" r="4.18848" fill="#CA983F"/>
<circle cx="920.55" cy="7.84009" r="4.18848" fill="#CA983F"/>
<circle cx="920.55" cy="19.3579" r="4.18848" fill="#CA983F"/>
<circle cx="932.068" cy="7.84009" r="4.18848" fill="#CA983F"/>
<circle cx="932.068" cy="19.3579" r="4.18848" fill="#CA983F"/>
<circle cx="943.586" cy="7.84009" r="4.18848" fill="#CA983F"/>
<circle cx="943.586" cy="19.3579" r="4.18848" fill="#CA983F"/>
<circle cx="955.104" cy="7.84009" r="4.18848" fill="#CA983F"/>
<circle cx="955.104" cy="19.3579" r="4.18848" fill="#CA983F"/>
<circle cx="966.623" cy="7.84009" r="4.18848" fill="#CA983F"/>
<circle cx="966.623" cy="19.3579" r="4.18848" fill="#CA983F"/>
<circle cx="978.141" cy="7.84009" r="4.18848" fill="#CA983F"/>
<circle cx="978.141" cy="19.3579" r="4.18848" fill="#CA983F"/>
<circle cx="989.66" cy="7.84009" r="4.18848" fill="#CA983F"/>
<circle cx="989.66" cy="19.3579" r="4.18848" fill="#CA983F"/>
<circle cx="1001.18" cy="7.84009" r="4.18848" fill="#CA983F"/>
<circle cx="1001.18" cy="19.3579" r="4.18848" fill="#CA983F"/>
<circle cx="1012.7" cy="7.84009" r="4.18848" fill="#CA983F"/>
<circle cx="1012.7" cy="19.3579" r="4.18848" fill="#CA983F"/>
<circle cx="1024.22" cy="7.84009" r="4.18848" fill="#CA983F"/>
<circle cx="1024.22" cy="19.3579" r="4.18848" fill="#CA983F"/>
<circle cx="1035.73" cy="7.84009" r="4.18848" fill="#CA983F"/>
<circle cx="1035.73" cy="19.3579" r="4.18848" fill="#CA983F"/>
<circle cx="1047.25" cy="7.84009" r="4.18848" fill="#CA983F"/>
<circle cx="1047.25" cy="19.3579" r="4.18848" fill="#CA983F"/>
<circle cx="1058.77" cy="7.84009" r="4.18848" fill="#CA983F"/>
<circle cx="1058.77" cy="19.3579" r="4.18848" fill="#CA983F"/>
<circle cx="1071.41" cy="7.84009" r="4.18848" fill="#CA983F"/>
<circle cx="1071.41" cy="19.3579" r="4.18848" fill="#CA983F"/>
<circle cx="1082.93" cy="7.84009" r="4.18848" fill="#CA983F"/>
<circle cx="1082.93" cy="19.3579" r="4.18848" fill="#CA983F"/>
<circle cx="1094.45" cy="7.84009" r="4.18848" fill="#CA983F"/>
<circle cx="1094.45" cy="19.3579" r="4.18848" fill="#CA983F"/>
<circle cx="1105.97" cy="7.84009" r="4.18848" fill="#CA983F"/>
<circle cx="1105.97" cy="19.3579" r="4.18848" fill="#CA983F"/>
<circle cx="1117.49" cy="7.84009" r="4.18848" fill="#CA983F"/>
<circle cx="1117.49" cy="19.3579" r="4.18848" fill="#CA983F"/>
<circle cx="1129" cy="7.84009" r="4.18848" fill="#CA983F"/>
<circle cx="1129" cy="19.3579" r="4.18848" fill="#CA983F"/>
<circle cx="1140.52" cy="7.84009" r="4.18848" fill="#CA983F"/>
<circle cx="1140.52" cy="19.3579" r="4.18848" fill="#CA983F"/>
<circle cx="1152.04" cy="7.84009" r="4.18848" fill="#CA983F"/>
<circle cx="1152.04" cy="19.3579" r="4.18848" fill="#CA983F"/>
<circle cx="1163.56" cy="7.84009" r="4.18848" fill="#CA983F"/>
<circle cx="1163.56" cy="19.3579" r="4.18848" fill="#CA983F"/>
<circle cx="1175.08" cy="7.84009" r="4.18848" fill="#CA983F"/>
<circle cx="1175.08" cy="19.3579" r="4.18848" fill="#CA983F"/>
<circle cx="1186.6" cy="7.84009" r="4.18848" fill="#CA983F"/>
<circle cx="1186.6" cy="19.3579" r="4.18848" fill="#CA983F"/>
<circle cx="1198.11" cy="7.84009" r="4.18848" fill="#CA983F"/>
<circle cx="1198.11" cy="19.3579" r="4.18848" fill="#CA983F"/>
<circle cx="1209.63" cy="7.84009" r="4.18848" fill="#CA983F"/>
<circle cx="1209.63" cy="19.3579" r="4.18848" fill="#CA983F"/>
<circle cx="1221.15" cy="7.84009" r="4.18848" fill="#CA983F"/>
<circle cx="1221.15" cy="19.3579" r="4.18848" fill="#CA983F"/>
<circle cx="1232.67" cy="7.84009" r="4.18848" fill="#CA983F"/>
<circle cx="1232.67" cy="19.3579" r="4.18848" fill="#CA983F"/>
<circle cx="1244.19" cy="7.84009" r="4.18848" fill="#CA983F"/>
<circle cx="1244.19" cy="19.3579" r="4.18848" fill="#CA983F"/>
<circle cx="1255.71" cy="7.84009" r="4.18848" fill="#CA983F"/>
<circle cx="1255.71" cy="19.3579" r="4.18848" fill="#CA983F"/>
<circle cx="1267.22" cy="7.84009" r="4.18848" fill="#CA983F"/>
<circle cx="1267.22" cy="19.3579" r="4.18848" fill="#CA983F"/>
<circle cx="1278.74" cy="7.84009" r="4.18848" fill="#CA983F"/>
<circle cx="1278.74" cy="19.3579" r="4.18848" fill="#CA983F"/>
<circle cx="1290.26" cy="7.84009" r="4.18848" fill="#CA983F"/>
<circle cx="1290.26" cy="19.3579" r="4.18848" fill="#CA983F"/>
<circle cx="1301.78" cy="7.84009" r="4.18848" fill="#CA983F"/>
<circle cx="1301.78" cy="19.3579" r="4.18848" fill="#CA983F"/>
<circle cx="1313.3" cy="7.84009" r="4.18848" fill="#CA983F"/>
<circle cx="1313.3" cy="19.3579" r="4.18848" fill="#CA983F"/>
<circle cx="1324.82" cy="7.84009" r="4.18848" fill="#CA983F"/>
<circle cx="1324.82" cy="19.3579" r="4.18848" fill="#CA983F"/>
<circle cx="1336.33" cy="7.84009" r="4.18848" fill="#CA983F"/>
<circle cx="1336.33" cy="19.3579" r="4.18848" fill="#CA983F"/>
<circle cx="1347.85" cy="7.84009" r="4.18848" fill="#CA983F"/>
<circle cx="1347.85" cy="19.3579" r="4.18848" fill="#CA983F"/>
<circle cx="1359.37" cy="7.84009" r="4.18848" fill="#CA983F"/>
<circle cx="1359.37" cy="19.3579" r="4.18848" fill="#CA983F"/>
<circle cx="1370.89" cy="7.84009" r="4.18848" fill="#CA983F"/>
<circle cx="1370.89" cy="19.3579" r="4.18848" fill="#CA983F"/>
<circle cx="1382.41" cy="7.84009" r="4.18848" fill="#CA983F"/>
<circle cx="1382.41" cy="19.3579" r="4.18848" fill="#CA983F"/>
<circle cx="1393.93" cy="7.84009" r="4.18848" fill="#CA983F"/>
<circle cx="1393.93" cy="19.3579" r="4.18848" fill="#CA983F"/>
<circle cx="1405.44" cy="7.84009" r="4.18848" fill="#CA983F"/>
<circle cx="1405.44" cy="19.3579" r="4.18848" fill="#CA983F"/>
<circle cx="1418.09" cy="7.84009" r="4.18848" fill="#CA983F"/>
<circle cx="1418.09" cy="19.3579" r="4.18848" fill="#CA983F"/>
<circle cx="1429.6" cy="7.84009" r="4.18848" fill="#CA983F"/>
<circle cx="1429.6" cy="19.3579" r="4.18848" fill="#CA983F"/>
<circle cx="1441.12" cy="7.84009" r="4.18848" fill="#CA983F"/>
<circle cx="1441.12" cy="19.3579" r="4.18848" fill="#CA983F"/>
<circle cx="1452.64" cy="7.84009" r="4.18848" fill="#CA983F"/>
<circle cx="1452.64" cy="19.3579" r="4.18848" fill="#CA983F"/>
<circle cx="1464.16" cy="7.84009" r="4.18848" fill="#CA983F"/>
<circle cx="1464.16" cy="19.3579" r="4.18848" fill="#CA983F"/>
<circle cx="1475.68" cy="7.84009" r="4.18848" fill="#CA983F"/>
<circle cx="1475.68" cy="19.3579" r="4.18848" fill="#CA983F"/>
<circle cx="1487.2" cy="7.84009" r="4.18848" fill="#CA983F"/>
<circle cx="1487.2" cy="19.3579" r="4.18848" fill="#CA983F"/>
<circle cx="1498.71" cy="7.84009" r="4.18848" fill="#CA983F"/>
<circle cx="1498.71" cy="19.3579" r="4.18848" fill="#CA983F"/>
<circle cx="1510.23" cy="7.84009" r="4.18848" fill="#CA983F"/>
<circle cx="1510.23" cy="19.3579" r="4.18848" fill="#CA983F"/>
<circle cx="1521.75" cy="7.84009" r="4.18848" fill="#CA983F"/>
<circle cx="1521.75" cy="19.3579" r="4.18848" fill="#CA983F"/>
<circle cx="1533.27" cy="7.84009" r="4.18848" fill="#CA983F"/>
<circle cx="1533.27" cy="19.3579" r="4.18848" fill="#CA983F"/>
<circle cx="1544.79" cy="7.84009" r="4.18848" fill="#CA983F"/>
<circle cx="1544.79" cy="19.3579" r="4.18848" fill="#CA983F"/>
<circle cx="1556.31" cy="7.84009" r="4.18848" fill="#CA983F"/>
<circle cx="1556.31" cy="19.3579" r="4.18848" fill="#CA983F"/>
<circle cx="1567.83" cy="7.84009" r="4.18848" fill="#CA983F"/>
<circle cx="1567.83" cy="19.3579" r="4.18848" fill="#CA983F"/>
<circle cx="1579.34" cy="7.84009" r="4.18848" fill="#CA983F"/>
<circle cx="1579.34" cy="19.3579" r="4.18848" fill="#CA983F"/>
<circle cx="1591.39" cy="19.3579" r="4.18848" fill="#CA983F"/>
<circle cx="9.32862" cy="849.811" r="4.18848" fill="#CA983F"/>
<circle cx="20.8472" cy="849.811" r="4.18848" fill="#CA983F"/>
<circle cx="20.8472" cy="861.33" r="4.18848" fill="#CA983F"/>
<circle cx="32.3657" cy="849.811" r="4.18848" fill="#CA983F"/>
<circle cx="32.3657" cy="861.33" r="4.18848" fill="#CA983F"/>
<circle cx="43.8843" cy="849.811" r="4.18848" fill="#CA983F"/>
<circle cx="43.8843" cy="861.33" r="4.18848" fill="#CA983F"/>
<circle cx="55.4028" cy="849.811" r="4.18848" fill="#CA983F"/>
<circle cx="55.4028" cy="861.33" r="4.18848" fill="#CA983F"/>
<circle cx="66.9209" cy="849.811" r="4.18848" fill="#CA983F"/>
<circle cx="66.9209" cy="861.33" r="4.18848" fill="#CA983F"/>
<circle cx="78.439" cy="849.811" r="4.18848" fill="#CA983F"/>
<circle cx="78.439" cy="861.33" r="4.18848" fill="#CA983F"/>
<circle cx="89.957" cy="849.811" r="4.18848" fill="#CA983F"/>
<circle cx="89.957" cy="861.33" r="4.18848" fill="#CA983F"/>
<circle cx="101.476" cy="849.811" r="4.18848" fill="#CA983F"/>
<circle cx="101.476" cy="861.33" r="4.18848" fill="#CA983F"/>
<circle cx="112.994" cy="849.811" r="4.18848" fill="#CA983F"/>
<circle cx="112.994" cy="861.33" r="4.18848" fill="#CA983F"/>
<circle cx="124.512" cy="849.811" r="4.18848" fill="#CA983F"/>
<circle cx="124.512" cy="861.33" r="4.18848" fill="#CA983F"/>
<circle cx="136.031" cy="849.811" r="4.18848" fill="#CA983F"/>
<circle cx="136.031" cy="861.33" r="4.18848" fill="#CA983F"/>
<circle cx="147.549" cy="849.811" r="4.18848" fill="#CA983F"/>
<circle cx="147.549" cy="861.33" r="4.18848" fill="#CA983F"/>
<circle cx="159.067" cy="849.811" r="4.18848" fill="#CA983F"/>
<circle cx="159.067" cy="861.33" r="4.18848" fill="#CA983F"/>
<circle cx="170.586" cy="849.811" r="4.18848" fill="#CA983F"/>
<circle cx="170.586" cy="861.33" r="4.18848" fill="#CA983F"/>
<circle cx="182.104" cy="849.811" r="4.18848" fill="#CA983F"/>
<circle cx="182.104" cy="861.33" r="4.18848" fill="#CA983F"/>
<circle cx="193.623" cy="849.811" r="4.18848" fill="#CA983F"/>
<circle cx="193.623" cy="861.33" r="4.18848" fill="#CA983F"/>
<circle cx="205.141" cy="849.811" r="4.18848" fill="#CA983F"/>
<circle cx="205.141" cy="861.33" r="4.18848" fill="#CA983F"/>
<circle cx="216.659" cy="849.811" r="4.18848" fill="#CA983F"/>
<circle cx="216.659" cy="861.33" r="4.18848" fill="#CA983F"/>
<circle cx="228.177" cy="849.811" r="4.18848" fill="#CA983F"/>
<circle cx="228.177" cy="861.33" r="4.18848" fill="#CA983F"/>
<circle cx="239.696" cy="849.811" r="4.18848" fill="#CA983F"/>
<circle cx="239.696" cy="861.33" r="4.18848" fill="#CA983F"/>
<circle cx="251.214" cy="849.811" r="4.18848" fill="#CA983F"/>
<circle cx="251.214" cy="861.33" r="4.18848" fill="#CA983F"/>
<circle cx="262.732" cy="849.811" r="4.18848" fill="#CA983F"/>
<circle cx="262.732" cy="861.33" r="4.18848" fill="#CA983F"/>
<circle cx="274.251" cy="849.811" r="4.18848" fill="#CA983F"/>
<circle cx="274.251" cy="861.33" r="4.18848" fill="#CA983F"/>
<circle cx="285.769" cy="849.811" r="4.18848" fill="#CA983F"/>
<circle cx="285.769" cy="861.33" r="4.18848" fill="#CA983F"/>
<circle cx="297.287" cy="849.811" r="4.18848" fill="#CA983F"/>
<circle cx="297.287" cy="861.33" r="4.18848" fill="#CA983F"/>
<circle cx="308.806" cy="849.811" r="4.18848" fill="#CA983F"/>
<circle cx="308.806" cy="861.33" r="4.18848" fill="#CA983F"/>
<circle cx="320.324" cy="849.811" r="4.18848" fill="#CA983F"/>
<circle cx="320.324" cy="861.33" r="4.18848" fill="#CA983F"/>
<circle cx="331.843" cy="849.811" r="4.18848" fill="#CA983F"/>
<circle cx="331.843" cy="861.33" r="4.18848" fill="#CA983F"/>
<circle cx="343.36" cy="849.811" r="4.18848" fill="#CA983F"/>
<circle cx="343.36" cy="861.33" r="4.18848" fill="#CA983F"/>
<circle cx="356.317" cy="849.811" r="4.18848" fill="#CA983F"/>
<circle cx="356.317" cy="861.33" r="4.18848" fill="#CA983F"/>
<circle cx="367.835" cy="849.811" r="4.18848" fill="#CA983F"/>
<circle cx="367.835" cy="861.33" r="4.18848" fill="#CA983F"/>
<circle cx="379.354" cy="849.811" r="4.18848" fill="#CA983F"/>
<circle cx="379.354" cy="861.33" r="4.18848" fill="#CA983F"/>
<circle cx="390.872" cy="849.811" r="4.18848" fill="#CA983F"/>
<circle cx="390.872" cy="861.33" r="4.18848" fill="#CA983F"/>
<circle cx="402.39" cy="849.811" r="4.18848" fill="#CA983F"/>
<circle cx="402.39" cy="861.33" r="4.18848" fill="#CA983F"/>
<circle cx="413.908" cy="849.811" r="4.18848" fill="#CA983F"/>
<circle cx="413.908" cy="861.33" r="4.18848" fill="#CA983F"/>
<circle cx="425.427" cy="849.811" r="4.18848" fill="#CA983F"/>
<circle cx="425.427" cy="861.33" r="4.18848" fill="#CA983F"/>
<circle cx="436.945" cy="849.811" r="4.18848" fill="#CA983F"/>
<circle cx="436.945" cy="861.33" r="4.18848" fill="#CA983F"/>
<circle cx="448.464" cy="849.811" r="4.18848" fill="#CA983F"/>
<circle cx="448.464" cy="861.33" r="4.18848" fill="#CA983F"/>
<circle cx="459.981" cy="849.811" r="4.18848" fill="#CA983F"/>
<circle cx="459.981" cy="861.33" r="4.18848" fill="#CA983F"/>
<circle cx="471.5" cy="849.811" r="4.18848" fill="#CA983F"/>
<circle cx="471.5" cy="861.33" r="4.18848" fill="#CA983F"/>
<circle cx="483.018" cy="849.811" r="4.18848" fill="#CA983F"/>
<circle cx="483.018" cy="861.33" r="4.18848" fill="#CA983F"/>
<circle cx="494.537" cy="849.811" r="4.18848" fill="#CA983F"/>
<circle cx="494.537" cy="861.33" r="4.18848" fill="#CA983F"/>
<circle cx="506.055" cy="849.811" r="4.18848" fill="#CA983F"/>
<circle cx="506.055" cy="861.33" r="4.18848" fill="#CA983F"/>
<circle cx="517.573" cy="849.811" r="4.18848" fill="#CA983F"/>
<circle cx="517.573" cy="861.33" r="4.18848" fill="#CA983F"/>
<circle cx="529.092" cy="849.811" r="4.18848" fill="#CA983F"/>
<circle cx="529.092" cy="861.33" r="4.18848" fill="#CA983F"/>
<circle cx="540.611" cy="849.811" r="4.18848" fill="#CA983F"/>
<circle cx="540.611" cy="861.33" r="4.18848" fill="#CA983F"/>
<circle cx="552.129" cy="849.811" r="4.18848" fill="#CA983F"/>
<circle cx="552.129" cy="861.33" r="4.18848" fill="#CA983F"/>
<circle cx="563.647" cy="849.811" r="4.18848" fill="#CA983F"/>
<circle cx="563.647" cy="861.33" r="4.18848" fill="#CA983F"/>
<circle cx="575.165" cy="849.811" r="4.18848" fill="#CA983F"/>
<circle cx="575.165" cy="861.33" r="4.18848" fill="#CA983F"/>
<circle cx="586.683" cy="849.811" r="4.18848" fill="#CA983F"/>
<circle cx="586.683" cy="861.33" r="4.18848" fill="#CA983F"/>
<circle cx="598.202" cy="849.811" r="4.18848" fill="#CA983F"/>
<circle cx="598.202" cy="861.33" r="4.18848" fill="#CA983F"/>
<circle cx="609.72" cy="849.811" r="4.18848" fill="#CA983F"/>
<circle cx="609.72" cy="861.33" r="4.18848" fill="#CA983F"/>
<circle cx="621.238" cy="849.811" r="4.18848" fill="#CA983F"/>
<circle cx="621.238" cy="861.33" r="4.18848" fill="#CA983F"/>
<circle cx="632.756" cy="849.811" r="4.18848" fill="#CA983F"/>
<circle cx="632.756" cy="861.33" r="4.18848" fill="#CA983F"/>
<circle cx="644.275" cy="849.811" r="4.18848" fill="#CA983F"/>
<circle cx="644.275" cy="861.33" r="4.18848" fill="#CA983F"/>
<circle cx="655.794" cy="849.811" r="4.18848" fill="#CA983F"/>
<circle cx="655.794" cy="861.33" r="4.18848" fill="#CA983F"/>
<circle cx="667.312" cy="849.811" r="4.18848" fill="#CA983F"/>
<circle cx="667.312" cy="861.33" r="4.18848" fill="#CA983F"/>
<circle cx="678.83" cy="849.811" r="4.18848" fill="#CA983F"/>
<circle cx="678.83" cy="861.33" r="4.18848" fill="#CA983F"/>
<circle cx="690.348" cy="849.811" r="4.18848" fill="#CA983F"/>
<circle cx="690.348" cy="861.33" r="4.18848" fill="#CA983F"/>
<circle cx="703.306" cy="849.811" r="4.18848" fill="#CA983F"/>
<circle cx="703.306" cy="861.33" r="4.18848" fill="#CA983F"/>
<circle cx="714.823" cy="849.811" r="4.18848" fill="#CA983F"/>
<circle cx="714.823" cy="861.33" r="4.18848" fill="#CA983F"/>
<circle cx="726.341" cy="849.811" r="4.18848" fill="#CA983F"/>
<circle cx="726.341" cy="861.33" r="4.18848" fill="#CA983F"/>
<circle cx="737.86" cy="849.811" r="4.18848" fill="#CA983F"/>
<circle cx="737.86" cy="861.33" r="4.18848" fill="#CA983F"/>
<circle cx="749.378" cy="849.811" r="4.18848" fill="#CA983F"/>
<circle cx="749.378" cy="861.33" r="4.18848" fill="#CA983F"/>
<circle cx="760.897" cy="849.811" r="4.18848" fill="#CA983F"/>
<circle cx="760.897" cy="861.33" r="4.18848" fill="#CA983F"/>
<circle cx="772.416" cy="849.811" r="4.18848" fill="#CA983F"/>
<circle cx="772.416" cy="861.33" r="4.18848" fill="#CA983F"/>
<circle cx="783.933" cy="849.811" r="4.18848" fill="#CA983F"/>
<circle cx="783.933" cy="861.33" r="4.18848" fill="#CA983F"/>
<circle cx="795.451" cy="849.811" r="4.18848" fill="#CA983F"/>
<circle cx="795.451" cy="861.33" r="4.18848" fill="#CA983F"/>
<circle cx="806.97" cy="849.811" r="4.18848" fill="#CA983F"/>
<circle cx="806.97" cy="861.33" r="4.18848" fill="#CA983F"/>
<circle cx="818.488" cy="849.811" r="4.18848" fill="#CA983F"/>
<circle cx="818.488" cy="861.33" r="4.18848" fill="#CA983F"/>
<circle cx="830.006" cy="849.811" r="4.18848" fill="#CA983F"/>
<circle cx="830.006" cy="861.33" r="4.18848" fill="#CA983F"/>
<circle cx="841.524" cy="849.811" r="4.18848" fill="#CA983F"/>
<circle cx="841.524" cy="861.33" r="4.18848" fill="#CA983F"/>
<circle cx="853.043" cy="849.811" r="4.18848" fill="#CA983F"/>
<circle cx="853.043" cy="861.33" r="4.18848" fill="#CA983F"/>
<circle cx="864.562" cy="849.811" r="4.18848" fill="#CA983F"/>
<circle cx="864.562" cy="861.33" r="4.18848" fill="#CA983F"/>
<circle cx="876.08" cy="849.811" r="4.18848" fill="#CA983F"/>
<circle cx="876.08" cy="861.33" r="4.18848" fill="#CA983F"/>
<circle cx="887.599" cy="849.811" r="4.18848" fill="#CA983F"/>
<circle cx="887.599" cy="861.33" r="4.18848" fill="#CA983F"/>
<circle cx="899.116" cy="849.811" r="4.18848" fill="#CA983F"/>
<circle cx="899.116" cy="861.33" r="4.18848" fill="#CA983F"/>
<circle cx="910.634" cy="849.811" r="4.18848" fill="#CA983F"/>
<circle cx="910.634" cy="861.33" r="4.18848" fill="#CA983F"/>
<circle cx="922.153" cy="849.811" r="4.18848" fill="#CA983F"/>
<circle cx="922.153" cy="861.33" r="4.18848" fill="#CA983F"/>
<circle cx="933.671" cy="849.811" r="4.18848" fill="#CA983F"/>
<circle cx="933.671" cy="861.33" r="4.18848" fill="#CA983F"/>
<circle cx="945.189" cy="849.811" r="4.18848" fill="#CA983F"/>
<circle cx="945.189" cy="861.33" r="4.18848" fill="#CA983F"/>
<circle cx="956.708" cy="849.811" r="4.18848" fill="#CA983F"/>
<circle cx="956.708" cy="861.33" r="4.18848" fill="#CA983F"/>
<circle cx="968.227" cy="849.811" r="4.18848" fill="#CA983F"/>
<circle cx="968.227" cy="861.33" r="4.18848" fill="#CA983F"/>
<circle cx="979.744" cy="849.811" r="4.18848" fill="#CA983F"/>
<circle cx="979.744" cy="861.33" r="4.18848" fill="#CA983F"/>
<circle cx="991.263" cy="849.811" r="4.18848" fill="#CA983F"/>
<circle cx="991.263" cy="861.33" r="4.18848" fill="#CA983F"/>
<circle cx="1002.78" cy="849.811" r="4.18848" fill="#CA983F"/>
<circle cx="1002.78" cy="861.33" r="4.18848" fill="#CA983F"/>
<circle cx="1014.3" cy="849.811" r="4.18848" fill="#CA983F"/>
<circle cx="1014.3" cy="861.33" r="4.18848" fill="#CA983F"/>
<circle cx="1025.82" cy="849.811" r="4.18848" fill="#CA983F"/>
<circle cx="1025.82" cy="861.33" r="4.18848" fill="#CA983F"/>
<circle cx="1037.34" cy="849.811" r="4.18848" fill="#CA983F"/>
<circle cx="1037.34" cy="861.33" r="4.18848" fill="#CA983F"/>
<circle cx="1049.98" cy="849.811" r="4.18848" fill="#CA983F"/>
<circle cx="1049.98" cy="861.33" r="4.18848" fill="#CA983F"/>
<circle cx="1061.5" cy="849.811" r="4.18848" fill="#CA983F"/>
<circle cx="1061.5" cy="861.33" r="4.18848" fill="#CA983F"/>
<circle cx="1073.02" cy="849.811" r="4.18848" fill="#CA983F"/>
<circle cx="1073.02" cy="861.33" r="4.18848" fill="#CA983F"/>
<circle cx="1084.53" cy="849.811" r="4.18848" fill="#CA983F"/>
<circle cx="1084.53" cy="861.33" r="4.18848" fill="#CA983F"/>
<circle cx="1096.05" cy="849.811" r="4.18848" fill="#CA983F"/>
<circle cx="1096.05" cy="861.33" r="4.18848" fill="#CA983F"/>
<circle cx="1107.57" cy="849.811" r="4.18848" fill="#CA983F"/>
<circle cx="1107.57" cy="861.33" r="4.18848" fill="#CA983F"/>
<circle cx="1119.09" cy="849.811" r="4.18848" fill="#CA983F"/>
<circle cx="1119.09" cy="861.33" r="4.18848" fill="#CA983F"/>
<circle cx="1130.61" cy="849.811" r="4.18848" fill="#CA983F"/>
<circle cx="1130.61" cy="861.33" r="4.18848" fill="#CA983F"/>
<circle cx="1142.13" cy="849.811" r="4.18848" fill="#CA983F"/>
<circle cx="1142.13" cy="861.33" r="4.18848" fill="#CA983F"/>
<circle cx="1153.64" cy="849.811" r="4.18848" fill="#CA983F"/>
<circle cx="1153.64" cy="861.33" r="4.18848" fill="#CA983F"/>
<circle cx="1165.16" cy="849.811" r="4.18848" fill="#CA983F"/>
<circle cx="1165.16" cy="861.33" r="4.18848" fill="#CA983F"/>
<circle cx="1176.68" cy="849.811" r="4.18848" fill="#CA983F"/>
<circle cx="1176.68" cy="861.33" r="4.18848" fill="#CA983F"/>
<circle cx="1188.2" cy="849.811" r="4.18848" fill="#CA983F"/>
<circle cx="1188.2" cy="861.33" r="4.18848" fill="#CA983F"/>
<circle cx="1199.72" cy="849.811" r="4.18848" fill="#CA983F"/>
<circle cx="1199.72" cy="861.33" r="4.18848" fill="#CA983F"/>
<circle cx="1211.24" cy="849.811" r="4.18848" fill="#CA983F"/>
<circle cx="1211.24" cy="861.33" r="4.18848" fill="#CA983F"/>
<circle cx="1222.75" cy="849.811" r="4.18848" fill="#CA983F"/>
<circle cx="1222.75" cy="861.33" r="4.18848" fill="#CA983F"/>
<circle cx="1234.27" cy="849.811" r="4.18848" fill="#CA983F"/>
<circle cx="1234.27" cy="861.33" r="4.18848" fill="#CA983F"/>
<circle cx="1245.79" cy="849.811" r="4.18848" fill="#CA983F"/>
<circle cx="1245.79" cy="861.33" r="4.18848" fill="#CA983F"/>
<circle cx="1257.31" cy="849.811" r="4.18848" fill="#CA983F"/>
<circle cx="1257.31" cy="861.33" r="4.18848" fill="#CA983F"/>
<circle cx="1268.83" cy="849.811" r="4.18848" fill="#CA983F"/>
<circle cx="1268.83" cy="861.33" r="4.18848" fill="#CA983F"/>
<circle cx="1280.35" cy="849.811" r="4.18848" fill="#CA983F"/>
<circle cx="1280.35" cy="861.33" r="4.18848" fill="#CA983F"/>
<circle cx="1291.86" cy="849.811" r="4.18848" fill="#CA983F"/>
<circle cx="1291.86" cy="861.33" r="4.18848" fill="#CA983F"/>
<circle cx="1303.38" cy="849.811" r="4.18848" fill="#CA983F"/>
<circle cx="1303.38" cy="861.33" r="4.18848" fill="#CA983F"/>
<circle cx="1314.9" cy="849.811" r="4.18848" fill="#CA983F"/>
<circle cx="1314.9" cy="861.33" r="4.18848" fill="#CA983F"/>
<circle cx="1326.42" cy="849.811" r="4.18848" fill="#CA983F"/>
<circle cx="1326.42" cy="861.33" r="4.18848" fill="#CA983F"/>
<circle cx="1337.94" cy="849.811" r="4.18848" fill="#CA983F"/>
<circle cx="1337.94" cy="861.33" r="4.18848" fill="#CA983F"/>
<circle cx="1349.46" cy="849.811" r="4.18848" fill="#CA983F"/>
<circle cx="1349.46" cy="861.33" r="4.18848" fill="#CA983F"/>
<circle cx="1360.97" cy="849.811" r="4.18848" fill="#CA983F"/>
<circle cx="1360.97" cy="861.33" r="4.18848" fill="#CA983F"/>
<circle cx="1372.49" cy="849.811" r="4.18848" fill="#CA983F"/>
<circle cx="1372.49" cy="861.33" r="4.18848" fill="#CA983F"/>
<circle cx="1384.01" cy="849.811" r="4.18848" fill="#CA983F"/>
<circle cx="1384.01" cy="861.33" r="4.18848" fill="#CA983F"/>
<circle cx="1396.65" cy="849.811" r="4.18848" fill="#CA983F"/>
<circle cx="1396.65" cy="861.33" r="4.18848" fill="#CA983F"/>
<circle cx="1408.17" cy="849.811" r="4.18848" fill="#CA983F"/>
<circle cx="1408.17" cy="861.33" r="4.18848" fill="#CA983F"/>
<circle cx="1419.69" cy="849.811" r="4.18848" fill="#CA983F"/>
<circle cx="1419.69" cy="861.33" r="4.18848" fill="#CA983F"/>
<circle cx="1431.21" cy="849.811" r="4.18848" fill="#CA983F"/>
<circle cx="1431.21" cy="861.33" r="4.18848" fill="#CA983F"/>
<circle cx="1442.73" cy="849.811" r="4.18848" fill="#CA983F"/>
<circle cx="1442.73" cy="861.33" r="4.18848" fill="#CA983F"/>
<circle cx="1454.25" cy="849.811" r="4.18848" fill="#CA983F"/>
<circle cx="1454.25" cy="861.33" r="4.18848" fill="#CA983F"/>
<circle cx="1465.76" cy="849.811" r="4.18848" fill="#CA983F"/>
<circle cx="1465.76" cy="861.33" r="4.18848" fill="#CA983F"/>
<circle cx="1477.28" cy="849.811" r="4.18848" fill="#CA983F"/>
<circle cx="1477.28" cy="861.33" r="4.18848" fill="#CA983F"/>
<circle cx="1488.8" cy="849.811" r="4.18848" fill="#CA983F"/>
<circle cx="1488.8" cy="861.33" r="4.18848" fill="#CA983F"/>
<circle cx="1500.32" cy="849.811" r="4.18848" fill="#CA983F"/>
<circle cx="1500.32" cy="861.33" r="4.18848" fill="#CA983F"/>
<circle cx="1511.84" cy="849.811" r="4.18848" fill="#CA983F"/>
<circle cx="1511.84" cy="861.33" r="4.18848" fill="#CA983F"/>
<circle cx="1523.35" cy="849.811" r="4.18848" fill="#CA983F"/>
<circle cx="1523.35" cy="861.33" r="4.18848" fill="#CA983F"/>
<circle cx="1534.87" cy="849.811" r="4.18848" fill="#CA983F"/>
<circle cx="1534.87" cy="861.33" r="4.18848" fill="#CA983F"/>
<circle cx="1546.39" cy="849.811" r="4.18848" fill="#CA983F"/>
<circle cx="1546.39" cy="861.33" r="4.18848" fill="#CA983F"/>
<circle cx="1557.91" cy="849.811" r="4.18848" fill="#CA983F"/>
<circle cx="1569.43" cy="849.811" r="4.18848" fill="#CA983F"/>
<circle cx="1569.49" cy="861.377" r="4.18848" fill="#CA983F"/>
<circle cx="1557.91" cy="861.33" r="4.18848" fill="#CA983F"/>
<defs>
<clipPath id="clip0_5273_13">
<rect width="1600" height="867.47" rx="20.9424" fill="white"/>
</clipPath>
</defs>
</svg>
