<svg width="71" height="71" viewBox="0 0 71 71" fill="none" xmlns="http://www.w3.org/2000/svg">
<path d="M35.6815 0L42.8207 10.8811L54.7094 5.58711L54.8326 18.6007L67.6962 20.5746L60.7641 31.5889L70.5184 40.204L58.732 45.722L62.2802 58.2431L49.3816 56.513L45.5971 68.9647L35.6815 60.5357L25.7659 68.9647L21.9814 56.513L9.08273 58.2431L12.6309 45.722L0.844528 40.204L10.5989 31.5889L3.66681 20.5746L16.5304 18.6007L16.6535 5.58711L28.5422 10.8811L35.6815 0Z" fill="#8151FB"/>
<path d="M29.2262 42.3184V27.5673H25.5796L21.5004 30.6164V34.6956L24.8173 32.2646H25.0233V42.3184H29.2262ZM36.0897 42.6686C39.4684 42.6686 41.5493 41.2264 41.5493 38.8572C41.5493 36.3438 39.1182 35.8699 37.1816 35.6639C35.7601 35.4991 34.5034 35.4579 34.5034 34.6544C34.5034 34.0775 35.1214 33.6861 35.9867 33.6861C36.9756 33.6861 37.6761 34.1805 37.6967 34.9222H41.1166C41.1166 32.7384 38.9328 31.3581 35.9867 31.3581C32.9582 31.3581 30.9598 32.759 30.9598 35.0046C30.9598 37.9507 33.7823 38.1155 35.6983 38.301C36.8108 38.404 37.7173 38.5276 37.7173 39.2899C37.7173 39.9285 37.0786 40.32 36.1721 40.32C34.9566 40.32 34.1737 39.7225 34.1737 38.816H30.898C30.898 41.2058 32.8964 42.6686 36.0897 42.6686ZM47.5121 42.5862C48.1714 42.5862 49.1603 42.4626 49.8401 42.2153V39.5371C49.5105 39.6195 49.0985 39.6813 48.81 39.6813C48.0478 39.6813 47.5533 39.125 47.5533 38.301V34.4278H49.7783V31.6877H47.5533V28.3708H44.5248L43.8243 31.6877H42.3204V34.4278H43.6801V38.4864C43.6801 40.938 45.1841 42.5862 47.5121 42.5862Z" fill="#EBE5DB"/>
</svg>
