<svg width="71" height="71" viewBox="0 0 71 71" fill="none" xmlns="http://www.w3.org/2000/svg">
<path d="M35.6815 0L42.8207 10.8811L54.7094 5.58711L54.8326 18.6007L67.6962 20.5746L60.7641 31.5889L70.5184 40.204L58.7321 45.722L62.2802 58.2431L49.3816 56.513L45.5971 68.9647L35.6815 60.5357L25.7659 68.9647L21.9814 56.513L9.08274 58.2431L12.6309 45.722L0.844536 40.204L10.5989 31.5889L3.66682 20.5746L16.5304 18.6007L16.6535 5.58711L28.5422 10.8811L35.6815 0Z" fill="#8151FB"/>
<path d="M28.4651 42.3188V39.1873H22.9026V38.9813L26.0547 36.4679C27.6823 35.1699 28.8566 33.8308 28.8566 32.0178C28.836 29.2571 26.4461 27.2793 23.1704 27.2793C19.5444 27.2793 16.9898 29.7722 17.134 33.2127H20.9248C20.966 31.6264 21.8725 30.6787 23.088 30.6787C24.1593 30.6787 24.9216 31.3998 24.9216 32.4093C24.9216 33.2951 24.2211 33.8926 23.2116 34.7579L17.0722 39.8466V42.3188H28.4651ZM34.169 42.3188V36.4679C34.169 35.4172 34.8695 34.6755 35.776 34.6755C36.6825 34.6755 37.2593 35.376 37.2593 36.4061V42.3188H41.1119V35.685C41.1119 33.2333 39.5668 31.441 37.3623 31.441C36.1056 31.441 35.2197 32.0178 34.375 33.2539H34.169V31.6882H30.3164V42.3188H34.169ZM47.0957 42.5867C48.476 42.5867 49.4649 42.051 50.1654 41.0827H50.3714V42.3188H54.224V26.9497H50.3714V32.9243H50.1654C49.4649 31.956 48.4348 31.4204 47.0751 31.4204C44.2938 31.4204 42.3778 33.6248 42.3778 37.0035C42.3778 40.4235 44.2732 42.5867 47.0957 42.5867ZM48.3936 39.3522C47.1369 39.3522 46.251 38.3426 46.251 37.0035C46.251 35.6644 47.1369 34.6549 48.3936 34.6549C49.6297 34.6549 50.5362 35.6644 50.5362 37.0035C50.5362 38.3426 49.6297 39.3522 48.3936 39.3522Z" fill="#EBE5DB"/>
</svg>
