<svg width="244" height="244" viewBox="0 0 244 244" fill="none" xmlns="http://www.w3.org/2000/svg">
<path d="M2.48098 126.197C-0.562004 124.226 -0.562004 119.774 2.48098 117.803L21.289 105.624C23.6542 104.092 24.2872 100.91 22.6882 98.5894L9.97275 80.1395C7.91549 77.1544 9.61946 73.0407 13.1849 72.3846L35.2222 68.3298C37.9934 67.8199 39.7962 65.1219 39.2068 62.3664L34.5197 40.4549C33.7613 36.9098 36.9098 33.7613 40.4549 34.5197L62.3664 39.2068C65.1219 39.7962 67.8199 37.9934 68.3298 35.2222L72.3846 13.1849C73.0407 9.61946 77.1544 7.9155 80.1395 9.97275L98.5894 22.6882C100.91 24.2872 104.092 23.6542 105.624 21.289L117.803 2.48097C119.774 -0.561996 124.226 -0.561996 126.197 2.48097L138.376 21.289C139.908 23.6542 143.09 24.2872 145.411 22.6882L163.861 9.97275C166.846 7.9155 170.959 9.61946 171.615 13.1849L175.67 35.2222C176.18 37.9934 178.878 39.7962 181.634 39.2068L203.545 34.5197C207.09 33.7613 210.239 36.9098 209.48 40.4549L204.793 62.3664C204.204 65.1219 206.007 67.8199 208.778 68.3298L230.815 72.3846C234.381 73.0407 236.085 77.1544 234.027 80.1395L221.312 98.5894C219.713 100.91 220.346 104.092 222.711 105.624L241.519 117.803C244.562 119.774 244.562 124.226 241.519 126.197L222.711 138.376C220.346 139.908 219.713 143.09 221.312 145.411L234.027 163.861C236.085 166.846 234.381 170.959 230.815 171.615L208.778 175.67C206.007 176.18 204.204 178.878 204.793 181.634L209.48 203.545C210.239 207.09 207.09 210.239 203.545 209.48L181.634 204.793C178.878 204.204 176.18 206.007 175.67 208.778L171.615 230.815C170.959 234.381 166.846 236.085 163.861 234.027L145.411 221.312C143.09 219.713 139.908 220.346 138.376 222.711L126.197 241.519C124.226 244.562 119.774 244.562 117.803 241.519L105.624 222.711C104.092 220.346 100.91 219.713 98.5894 221.312L80.1395 234.027C77.1544 236.085 73.0407 234.381 72.3846 230.815L68.3298 208.778C67.8199 206.007 65.1219 204.204 62.3664 204.793L40.4549 209.48C36.9098 210.239 33.7613 207.09 34.5197 203.545L39.2068 181.634C39.7962 178.878 37.9934 176.18 35.2222 175.67L13.1849 171.615C9.61946 170.959 7.91549 166.846 9.97275 163.861L22.6882 145.411C24.2872 143.09 23.6542 139.908 21.289 138.376L2.48098 126.197Z" fill="#75A9B5"/>
</svg>
