<svg width="1091" height="562" viewBox="0 0 1091 562" fill="none" xmlns="http://www.w3.org/2000/svg">
<path d="M140.52 163.224L155.392 183.712C156.536 185.272 157.16 186.728 157.16 188.288C157.16 190.16 156.328 192.136 154.976 194.528L150.92 202.016C148.008 207.424 145.616 208.36 142.704 208.36C138.44 208.36 136.152 204.928 134.904 199.624L127.416 166.656C125.856 160 123.256 157.92 119.304 157.92C114.624 157.92 110.568 161.456 107.24 166.448L83.528 201.912C80.2 206.904 78.432 208.776 75.728 208.776C71.984 208.776 70.112 206.592 70.112 203.472C70.112 200.664 71.568 198.376 74.064 194.528L89.144 170.608C92.992 164.576 95.592 159.272 95.592 154.8C95.592 148.56 90.808 144.4 79.056 144.4C62.312 144.4 52.12 164.16 52.12 178.512C52.12 181.216 54.512 182.88 56.384 182.88C59.712 182.88 61.688 181.008 62.208 176.536L64.704 157.608C65.224 153.656 67.616 152.096 70.008 152.096C72.608 152.096 74.064 154.384 73.336 158.44L64.08 204.824C63.664 207.008 63.56 208.984 63.56 210.856C63.56 221.152 69.8 226.56 78.328 226.56C82.592 226.56 87.688 224.272 91.12 219.488L120.136 178.824C121.176 177.368 122.528 176.016 123.88 176.016C125.544 176.016 126.064 177.16 126.064 178.304C126.064 179.032 125.96 180.072 125.544 180.904L117.744 197.44C109.216 215.432 112.44 226.56 127.936 226.56C150.296 226.56 162.984 196.4 162.984 176.12C162.984 152.2 158.096 144.4 149.984 144.4C141.976 144.4 136.776 149.08 136.776 154.904C136.776 157.504 138.336 160.208 140.52 163.224ZM172.394 169.048C172.394 170.92 173.226 172.376 175.826 172.376H180.298C183.626 172.376 185.498 173.208 185.498 175.6C185.498 176.12 185.394 176.744 185.186 177.472L176.762 208.256C173.954 218.656 179.466 226.56 191.322 226.56C199.33 226.56 207.65 223.024 206.922 216.056C206.298 210.024 201.202 209.4 196.834 211.272L184.354 216.68C182.378 217.512 180.61 215.744 180.61 213.664C180.61 212.624 181.13 211.792 182.794 209.92L202.658 187.248C209.522 179.344 205.986 170.504 195.482 171.752L188.41 172.584C187.474 172.688 185.706 172.688 185.706 170.92C185.706 169.88 186.33 168.944 187.682 168.528L199.122 164.576C204.114 162.808 207.65 160.104 207.65 154.28C207.65 148.04 202.554 144.4 197.25 144.4C194.234 144.4 191.218 145.544 189.034 148.04L177.282 161.56C174.682 164.576 172.394 167.384 172.394 169.048ZM232.996 226.56C244.228 226.56 246.308 216.784 241.628 205.24L227.484 170.608C226.548 168.32 225.612 163.64 225.612 160.728C225.612 154.8 229.044 150.432 234.868 150.432C238.612 150.432 241.836 153.136 241.004 158.44L240.068 164.368C238.716 173 243.084 182.256 247.244 187.976L264.508 211.896C271.892 222.088 275.116 226.56 281.46 226.56C288.22 226.56 291.652 221.984 292.796 212L298.1 163.848C299.14 154.28 296.02 144.296 285.724 144.296C276.988 144.296 274.284 151.056 274.284 156.36C274.284 158.856 274.076 162.184 276.676 168.84L286.244 193.488C287.596 196.92 288.428 199.312 288.428 201.184C288.428 203.472 287.18 204.616 284.58 204.616C282.708 204.616 281.252 203.16 278.756 199.208L254.108 160.624C247.868 150.848 243.292 144.4 235.076 144.4C223.948 144.4 219.06 149.6 219.06 173V201.08C219.06 216.16 219.372 226.56 232.996 226.56ZM344.467 158.544L327.723 207.216C323.459 218.552 325.747 226.56 336.875 226.56C346.859 226.56 348.939 220.84 349.147 209.816L350.291 158.96C350.395 152.408 351.539 149.704 354.347 149.704C357.883 149.704 358.923 153.136 358.923 157.712V162.288C358.923 176.64 361.939 183.504 371.403 183.192C378.059 182.984 383.051 177.264 383.051 170.816C383.051 156.36 371.611 145.96 352.787 145.96H317.219C306.403 145.96 302.971 152.2 302.971 157.504C302.971 169.464 318.363 175.496 327.931 164.888L339.579 151.888C340.619 150.744 341.763 150.224 342.699 150.224C345.507 150.224 346.547 152.616 344.467 158.544ZM453.943 161.04C461.743 161.768 463.511 158.648 463.511 155.32C463.511 148.768 457.167 144.504 438.551 144.504C411.927 144.504 389.255 155.216 389.255 174.144C389.255 183.608 398.095 188.6 408.287 184.44L429.087 175.912C433.871 173.936 435.951 177.784 431.791 180.696L400.799 202.224C396.119 205.552 393.519 209.296 393.519 213.144C393.519 223.544 405.999 226.664 419.831 226.664C433.767 226.768 449.367 224.376 455.399 221.568C460.911 218.968 463.823 215.64 463.511 209.712C463.199 203.472 458.519 200.976 449.575 204.096L407.039 218.968C401.943 220.736 399.135 216.472 399.135 214.184C399.135 211.584 399.967 209.504 404.855 207.944L445.415 195.048C454.567 192.136 456.023 187.248 456.023 183.4C456.023 178.408 453.319 173.624 445.415 172.688L408.183 168.112C401.839 167.28 399.447 165.2 399.447 162.184C399.447 159.272 402.151 156.464 408.183 156.984L453.943 161.04ZM553.194 213.456C553.194 207.008 547.994 202.744 541.13 202.64L520.642 202.432C516.69 202.432 515.026 201.6 515.026 199.208C515.026 196.712 517.002 195.464 519.498 194.632L536.554 188.6C551.218 183.4 553.818 177.056 553.818 169.984C553.818 160.624 547.682 144.4 521.994 144.4C490.378 144.4 475.506 171.336 475.506 206.696C475.506 221.568 482.682 226.56 489.13 226.56C500.986 226.56 502.234 217.408 498.178 207.84L487.57 182.88C486.738 180.904 486.218 178.824 486.218 176.848C486.218 169.464 492.042 163.12 502.754 163.12H535.306C542.898 163.12 546.85 167.072 546.85 172.168C546.85 177.576 543.21 182.568 532.082 181.112L500.466 177.056C496.618 176.536 494.538 177.264 494.434 179.968C494.434 181.424 495.474 183.608 497.762 186.52L523.45 217.616C529.17 224.584 534.682 226.56 538.842 226.56C549.658 226.56 553.194 220.008 553.194 213.456ZM653 145.96H616.912C610.048 145.96 606.408 151.472 606.408 156.88C606.408 161.664 609.112 165.616 614.936 166.656C619.616 167.488 621.176 169.048 619.408 172.688L615.56 180.488C605.264 201.392 610.672 226.352 637.504 226.456C669.224 226.56 684.408 212.728 684.408 186C684.408 160.52 675.568 145.96 653 145.96ZM670.992 171.544L653 214.912C649.776 222.608 638.232 224.584 635.216 213.872L624.504 176.224C622.528 169.152 625.544 164.472 634.384 162.808L660.384 157.816C668.288 156.256 675.152 161.456 670.992 171.544ZM759.544 210.128L713.784 214.184C707.752 214.704 705.048 211.896 705.048 208.984C705.048 205.968 707.44 203.888 713.784 203.056L751.016 198.48C758.92 197.544 761.624 192.76 761.624 187.768C761.624 183.92 760.168 179.032 751.016 176.12L710.456 163.224C705.568 161.664 704.736 159.584 704.736 156.984C704.736 154.696 707.544 150.432 712.64 152.2L755.176 167.072C764.12 170.192 768.8 167.696 769.112 161.456C769.424 155.528 766.512 152.2 761 149.6C754.968 146.792 739.368 144.4 725.432 144.504C711.6 144.504 699.12 147.624 699.12 158.024C699.12 161.872 701.72 165.616 706.4 168.944L737.392 190.472C741.552 193.384 739.472 197.232 734.688 195.256L713.888 186.728C703.696 182.568 694.856 187.56 694.856 197.024C694.856 215.952 717.528 226.664 744.152 226.664C762.768 226.664 769.112 222.4 769.112 215.848C769.112 212.52 767.344 209.4 759.544 210.128ZM823.747 144.504C799.931 144.504 781.107 159.064 781.107 173.52C781.107 178.512 784.019 182.672 789.947 183.712L842.883 193.28C846.211 193.904 847.563 194.84 847.875 197.128C848.187 199.312 847.147 201.288 842.675 202.224L797.851 211.896C794.419 212.624 792.235 212.728 790.571 211.584C789.531 210.856 789.219 208.984 790.467 207.112L795.043 200.248C800.659 191.824 794.523 187.872 790.467 187.872C784.331 187.872 781.523 192.968 781.523 200.352C781.523 219.072 799.307 226.768 817.299 226.768C835.603 226.768 854.115 216.888 854.115 198.792C854.115 194.528 851.307 190.368 847.043 189.328L840.491 187.768C836.331 186.832 834.667 186.312 834.563 182.464L834.459 178.512C834.251 171.024 827.491 164.368 817.611 168.944L795.563 179.136C792.027 180.8 788.803 180.28 787.763 176.432C786.723 172.584 790.467 170.92 794.835 168.84L831.235 151.264C837.475 148.248 840.595 150.848 840.595 155.84V173.52C840.595 177.888 843.715 182.152 848.707 182.152C854.947 182.152 857.235 175.496 857.235 169.776C857.235 157.712 848.707 144.504 823.747 144.504ZM865.762 169.048C865.762 170.92 866.594 172.376 869.194 172.376H873.666C876.994 172.376 878.866 173.208 878.866 175.6C878.866 176.12 878.762 176.744 878.554 177.472L870.13 208.256C867.322 218.656 872.834 226.56 884.69 226.56C892.698 226.56 901.018 223.024 900.29 216.056C899.666 210.024 894.57 209.4 890.202 211.272L877.722 216.68C875.746 217.512 873.978 215.744 873.978 213.664C873.978 212.624 874.498 211.792 876.162 209.92L896.026 187.248C902.89 179.344 899.354 170.504 888.85 171.752L881.778 172.584C880.842 172.688 879.074 172.688 879.074 170.92C879.074 169.88 879.698 168.944 881.05 168.528L892.49 164.576C897.482 162.808 901.018 160.104 901.018 154.28C901.018 148.04 895.922 144.4 890.618 144.4C887.602 144.4 884.586 145.544 882.402 148.04L870.65 161.56C868.05 164.576 865.762 167.384 865.762 169.048ZM939.572 165.824C935.724 161.04 935.308 153.136 942.588 150.016C948.828 147.312 955.588 149.496 959.02 153.968L970.564 169.152C977.116 177.784 991.364 171.648 988.452 161.872C985.228 150.848 972.124 144.4 952.364 144.4C928.756 144.4 912.428 159.896 912.428 186.936C912.428 213.248 923.868 226.56 936.14 226.56C945.5 226.56 949.868 223.128 957.876 212.624L974.932 190.368C978.676 185.376 980.236 185.168 982.212 185.168C984.5 185.168 987.1 187.56 984.916 190.888L973.788 208.048C966.924 218.552 973.06 226.56 980.756 226.56C988.452 226.56 993.548 222.088 993.028 210.856L991.988 189.016C991.572 180.488 984.084 176.952 974.1 182.88L930.108 209.088C922.1 213.872 915.236 201.184 923.036 195.88L939.78 184.44C946.124 180.176 946.54 174.664 942.588 169.672L939.572 165.824ZM1071.29 144.4C1060.06 144.4 1060.16 154.072 1064.01 165.72L1075.76 201.184C1076.49 203.472 1077.63 208.152 1077.63 211.064C1077.63 216.992 1074.93 221.36 1069.11 221.36C1065.36 221.36 1062.14 218.656 1062.97 213.352L1063.91 207.424C1065.26 198.792 1060.79 190.264 1056.52 184.648L1037.18 159.064C1029.59 149.08 1026.57 144.4 1020.23 144.4C1013.47 144.4 1009.1 148.976 1008.89 158.96L1007.75 207.112C1007.54 216.68 1009.83 226.664 1020.12 226.664C1028.86 226.664 1031.56 219.904 1031.56 214.6C1031.56 212.104 1032.6 208.36 1029.17 202.12L1015.44 177.472C1013.67 174.352 1013.26 171.648 1013.26 169.776C1013.26 167.488 1014.51 166.344 1017.11 166.344C1018.98 166.344 1020.23 167.8 1022.93 171.752L1050.18 211.272C1056.73 220.84 1061.72 226.664 1069.11 226.664C1081.17 226.664 1083.67 218.448 1084.71 195.152L1085.85 169.776C1086.58 154.696 1084.91 144.4 1071.29 144.4Z" fill="#201E29"/>
<path d="M505.148 59.848L505.34 61.192C507.788 61.096 510.476 61 512.012 61C513.548 61 517.196 61.096 520.988 61.336L521.18 59.992C514.94 58.6 514.46 56.872 514.46 53.224V45.64C516.332 48.184 519.26 49.72 523.58 49.72C530.732 49.72 536.012 43.624 536.012 35.848C536.012 28.024 530.396 21.88 523.244 21.88C518.588 21.88 515.612 23.752 513.884 26.776L513.452 21.832L512.252 21.736C511.243 24.568 509.756 26.2 505.484 26.68V27.976C509.036 27.976 510.14 31.048 510.14 34.696V53.224C510.14 56.872 508.508 58.744 505.148 59.848ZM514.652 35.944C513.884 29.896 516.092 25.24 520.028 24.664C525.068 23.944 529.292 28.36 530.3 35.416C531.212 42.424 528.859 47.512 524.636 47.704C519.692 47.896 515.564 43.048 514.652 35.944ZM539.634 47.992L539.826 49.336C542.754 49.096 545.154 49 546.69 49C548.226 49 551.106 49.096 553.458 49.336L553.65 47.992C549.81 46.696 548.802 44.872 548.802 41.224V33.544C548.802 29.656 551.154 26.92 554.034 26.92C556.674 26.92 558.834 28.552 559.506 32.248L560.562 31.96C560.514 29.56 560.514 26.248 561.09 22.888C557.826 21.592 551.538 22.072 548.802 29.032C548.802 27.16 548.898 25.096 549.33 22.408L547.986 22.072C546.162 24.424 543.57 26.2 539.826 27.352V28.504C543.426 28.792 544.482 31.624 544.482 34.936V41.224C544.482 44.872 543.474 46.744 539.634 47.992ZM589.229 40.936L588.365 40.408C584.189 46.888 574.973 46.696 570.845 41.176C569.309 39.112 568.541 36.568 568.445 34.072L587.837 34.12C588.317 25.288 582.509 21.88 576.413 21.88C568.973 21.88 563.981 28.072 563.981 35.752C563.981 43.816 569.837 49.72 576.797 49.72C583.517 49.72 587.741 45.976 589.229 40.936ZM568.493 32.152C568.781 28.984 570.077 26.104 572.093 24.76C576.845 21.592 582.461 25.384 582.461 32.2L568.493 32.152ZM593.809 38.728L592.849 39.016C593.377 41.608 592.849 45.976 592.369 48.04C596.257 49.192 599.473 49.48 602.929 49.48C610.177 49.48 613.297 46.792 613.297 42.184C613.297 38.488 611.137 36.088 604.417 33.208C599.953 31.288 597.601 29.656 597.601 27.64C597.601 25.192 599.713 24.04 602.209 24.04C605.425 24.04 608.881 26.104 610.609 31.672L611.665 31.432C611.329 28.552 611.377 25.96 611.569 23.032C607.825 23.032 606.481 22.12 603.025 22.12C597.841 22.12 593.233 24.376 593.233 29.272C593.233 32.728 595.729 35.224 601.537 37.576C606.865 39.688 609.073 41.704 609.073 43.96C609.073 46.312 606.721 47.56 603.985 47.56C599.473 47.56 596.161 45.304 593.809 38.728ZM642.62 40.936L641.756 40.408C637.58 46.888 628.364 46.696 624.236 41.176C622.7 39.112 621.932 36.568 621.836 34.072L641.228 34.12C641.708 25.288 635.9 21.88 629.804 21.88C622.364 21.88 617.372 28.072 617.372 35.752C617.372 43.816 623.228 49.72 630.188 49.72C636.908 49.72 641.132 45.976 642.62 40.936ZM621.884 32.152C622.172 28.984 623.468 26.104 625.484 24.76C630.236 21.592 635.852 25.384 635.852 32.2L621.884 32.152ZM664.959 47.992L665.151 49.336C667.599 49.096 669.999 49 671.535 49C673.071 49 675.951 49.096 678.303 49.336L678.495 47.992C674.655 46.696 673.647 44.872 673.647 41.224V33.112C673.647 25.624 671.007 21.88 665.631 21.88C661.983 21.88 657.567 24.52 654.927 29.32C654.927 27.352 655.023 25.192 655.455 22.408L654.111 22.072C652.287 24.424 649.695 26.2 645.951 27.352V28.504C649.551 28.792 650.607 31.624 650.607 34.936V41.224C650.607 44.872 649.599 46.744 645.759 47.992L645.951 49.336C648.879 49.096 651.279 49 652.815 49C654.351 49 657.231 49.096 659.583 49.336L659.775 47.992C655.935 46.696 654.927 44.872 654.927 41.224V33.16V31.432C657.039 28.36 659.295 25.576 663.423 25.576C667.359 25.576 669.327 28.12 669.327 33.304V41.224C669.327 44.872 668.319 46.744 664.959 47.992ZM693.074 49.72C697.058 49.72 701.474 46.696 704.018 41.032L702.962 40.408C700.85 43.576 698.546 46.024 695.282 46.024C691.346 46.024 689.378 43.48 689.378 37.816C689.378 32.872 689.378 28.984 689.474 25.336L701.282 25.96L703.25 23.272L702.818 22.6L689.522 23.128C689.618 20.776 689.714 18.52 689.906 16.072L688.754 15.88C686.594 20.68 684.722 22.6 680.402 23.608V24.904C684.002 25.192 685.058 26.776 685.058 32.008V39.208C685.058 46.696 687.698 49.72 693.074 49.72ZM708.09 38.728L707.13 39.016C707.658 41.608 707.13 45.976 706.65 48.04C710.538 49.192 713.754 49.48 717.21 49.48C724.458 49.48 727.578 46.792 727.578 42.184C727.578 38.488 725.418 36.088 718.698 33.208C714.234 31.288 711.882 29.656 711.882 27.64C711.882 25.192 713.994 24.04 716.49 24.04C719.706 24.04 723.162 26.104 724.89 31.672L725.946 31.432C725.61 28.552 725.658 25.96 725.85 23.032C722.106 23.032 720.762 22.12 717.306 22.12C712.122 22.12 707.514 24.376 707.514 29.272C707.514 32.728 710.01 35.224 715.818 37.576C721.146 39.688 723.354 41.704 723.354 43.96C723.354 46.312 721.002 47.56 718.266 47.56C713.754 47.56 710.442 45.304 708.09 38.728ZM736.908 49.768C738.876 49.768 740.46 48.184 740.46 46.216C740.46 44.248 738.876 42.664 736.908 42.664C734.94 42.664 733.356 44.248 733.356 46.216C733.356 48.184 734.94 49.768 736.908 49.768ZM751.673 49.768C753.641 49.768 755.225 48.184 755.225 46.216C755.225 44.248 753.641 42.664 751.673 42.664C749.705 42.664 748.121 44.248 748.121 46.216C748.121 48.184 749.705 49.768 751.673 49.768ZM766.439 49.768C768.407 49.768 769.991 48.184 769.991 46.216C769.991 44.248 768.407 42.664 766.439 42.664C764.471 42.664 762.887 44.248 762.887 46.216C762.887 48.184 764.471 49.768 766.439 49.768Z" fill="#201E29"/>
<path d="M48.0772 15.592L48.1732 16.312L55.4692 17.8L50.1892 21.928L52.4932 24.808L53.2132 24.952L56.9092 18.424L59.1652 24.664L62.6212 23.368L63.0052 22.744L58.0132 17.272L64.5892 17.032L64.4452 13.384L63.9652 12.808L57.1012 15.928L58.9732 9.496L55.4212 8.536L54.7492 8.824L55.6132 16.216L50.0932 12.472L48.0772 15.592ZM69.7743 35.464L68.5743 35.848C69.2463 39.064 69.0543 44.968 67.9503 47.752C72.9903 49.336 77.2143 49.72 81.3903 49.72C90.7983 49.72 94.7343 45.976 94.7343 40.552C94.7343 35.656 91.5183 32.824 83.1663 29.08C76.2063 25.96 72.9903 23.368 72.9903 19.624C72.9903 16.552 76.3503 14.44 79.9023 14.44C84.2223 14.44 89.0703 17.272 91.4223 25.336L92.5263 25.096C92.0943 21.208 92.0463 17.704 92.4303 13.768C86.2863 13.768 85.1823 12.52 80.5263 12.52C74.7663 12.52 68.7663 15.544 68.7663 21.544C68.7663 26.2 71.8863 29.704 79.3743 32.92C87.4863 36.424 90.6063 38.968 90.6063 42.664C90.6063 45.64 87.6303 47.8 82.7343 47.8C77.6943 47.8 72.7023 44.776 69.7743 35.464ZM116.813 49.336C125.933 49.336 130.589 45.736 130.589 39.736C130.589 34.216 127.181 30.712 121.517 29.512C125.309 28.12 127.805 25.384 127.805 21.064C127.805 15.736 124.109 12.52 114.989 13C112.253 13.144 108.605 13.24 107.069 13.24C105.533 13.24 103.133 13.144 100.205 12.904L100.013 14.248C103.853 15.496 104.861 17.368 104.861 21.016V41.224C104.861 44.872 103.853 46.744 100.013 47.992L100.205 49.336C103.133 49.096 105.533 49 107.453 49C109.325 49 113.261 49.336 116.813 49.336ZM109.181 38.968V31.816L114.461 31.288C122.093 30.52 125.549 34.36 125.549 39.928C125.549 44.968 122.093 47.416 117.005 47.416C111.677 47.416 109.181 44.056 109.181 38.968ZM109.181 29.848V15.16C118.109 14.392 122.765 15.736 122.765 21.88C122.765 25.768 120.845 28.648 113.837 29.368L109.181 29.848ZM182.578 34.936L181.426 34.744C178.882 41.944 175.378 45.496 168.082 45.496C159.874 45.496 153.346 38.44 153.346 29.32C153.346 20.824 158.626 14.488 165.538 14.488C171.586 14.488 176.146 17.944 178.354 25.912L179.554 25.768C179.41 21.88 180.178 17.56 181.282 14.056L180.418 13.48C176.866 15.496 172.354 12.52 166.45 12.52C156.754 12.52 148.354 20.872 148.354 31.096C148.354 41.512 156.322 49.72 166.45 49.72C175.474 49.72 180.754 43.912 182.578 34.936ZM185.455 47.992L185.647 49.336C188.575 49.096 190.975 49 192.511 49C194.047 49 196.927 49.096 199.279 49.336L199.471 47.992C195.631 46.696 194.623 44.872 194.623 41.224V33.544C194.623 29.656 196.975 26.92 199.855 26.92C202.495 26.92 204.655 28.552 205.327 32.248L206.383 31.96C206.335 29.56 206.335 26.248 206.911 22.888C203.647 21.592 197.359 22.072 194.623 29.032C194.623 27.16 194.719 25.096 195.151 22.408L193.807 22.072C191.983 24.424 189.391 26.2 185.647 27.352V28.504C189.247 28.792 190.303 31.624 190.303 34.936V41.224C190.303 44.872 189.295 46.744 185.455 47.992ZM235.05 40.936L234.186 40.408C230.01 46.888 220.794 46.696 216.666 41.176C215.13 39.112 214.362 36.568 214.266 34.072L233.658 34.12C234.138 25.288 228.33 21.88 222.234 21.88C214.794 21.88 209.802 28.072 209.802 35.752C209.802 43.816 215.658 49.72 222.618 49.72C229.338 49.72 233.562 45.976 235.05 40.936ZM214.314 32.152C214.602 28.984 215.898 26.104 217.914 24.76C222.666 21.592 228.282 25.384 228.282 32.2L214.314 32.152ZM239.138 25.096L239.426 26.056C244.754 24.472 249.554 24.04 252.434 27.16C237.554 36.184 236.45 46.408 239.618 48.664C242.594 50.776 251.81 49.624 255.986 40.168L257.282 49H264.578L264.914 47.656C259.202 45.256 256.034 29.08 262.754 24.232L262.082 23.128C260.498 23.56 258.482 24.28 256.466 25.192C254.21 22.792 251.666 21.88 248.066 21.88C244.37 21.88 241.682 23.176 239.138 25.096ZM244.082 44.44C242.162 42.616 243.17 38.056 246.722 34.504C249.17 32.056 251.666 30.376 253.778 29.176C253.922 29.56 254.114 29.944 254.258 30.376C255.746 35.8 254.498 39.304 252.674 41.704C249.986 45.208 245.906 46.12 244.082 44.44ZM279.504 49.72C283.488 49.72 287.904 46.696 290.448 41.032L289.392 40.408C287.28 43.576 284.976 46.024 281.712 46.024C277.776 46.024 275.808 43.48 275.808 37.816C275.808 32.872 275.808 28.984 275.904 25.336L287.712 25.96L289.68 23.272L289.248 22.6L275.952 23.128C276.048 20.776 276.144 18.52 276.336 16.072L275.184 15.88C273.024 20.68 271.152 22.6 266.832 23.608V24.904C270.432 25.192 271.488 26.776 271.488 32.008V39.208C271.488 46.696 274.128 49.72 279.504 49.72ZM299.416 17.608C301.288 17.608 302.824 16.12 302.824 14.248C302.824 12.376 301.288 10.888 299.416 10.888C297.544 10.888 296.056 12.376 296.056 14.248C296.056 16.12 297.544 17.608 299.416 17.608ZM293.08 47.992L293.272 49.336C296.2 49.096 298.6 49 300.136 49C301.672 49 304.552 49.096 306.904 49.336L307.096 47.992C303.256 46.696 302.248 44.872 302.248 41.224V33.16C302.248 29.992 302.056 27.112 302.776 22.408L301.432 22.072C299.608 24.424 297.016 26.2 293.272 27.352V28.504C296.872 28.792 297.928 31.624 297.928 34.936V41.224C297.928 44.872 296.92 46.744 293.08 47.992ZM307.291 22.6L307.099 23.944C310.747 25.192 312.619 27.592 314.491 31.528L323.227 49.72H324.235L332.683 31.144C334.267 27.64 335.755 25.72 339.595 23.944L339.403 22.6C337.051 22.84 334.363 22.936 332.827 22.936C331.291 22.936 330.379 22.84 327.931 22.6L327.739 23.944C331.579 24.616 332.347 27.256 330.907 30.376L325.243 42.808L319.435 30.664C317.851 27.352 317.371 24.616 320.779 23.944L320.587 22.6C317.755 22.84 315.979 22.936 314.443 22.936C312.907 22.936 310.219 22.84 307.291 22.6ZM364.612 40.936L363.748 40.408C359.572 46.888 350.356 46.696 346.228 41.176C344.692 39.112 343.924 36.568 343.828 34.072L363.22 34.12C363.7 25.288 357.892 21.88 351.796 21.88C344.356 21.88 339.364 28.072 339.364 35.752C339.364 43.816 345.22 49.72 352.18 49.72C358.9 49.72 363.124 45.976 364.612 40.936ZM343.876 32.152C344.164 28.984 345.46 26.104 347.476 24.76C352.228 21.592 357.844 25.384 357.844 32.2L343.876 32.152ZM382.622 47.992L382.814 49.336C385.742 49.096 388.142 49 397.406 49C404.894 49 408.638 49.096 411.422 49.288L412.094 33.784H410.75C408.974 42.856 405.374 47.08 398.222 47.08C393.758 47.08 391.79 44.968 391.79 40.744V21.016C391.79 17.368 392.798 15.544 396.638 14.248L396.446 12.904C394.094 13.144 391.214 13.24 389.678 13.24C388.142 13.24 385.742 13.144 382.814 12.904L382.622 14.248C386.462 15.496 387.47 17.368 387.47 21.016V41.224C387.47 44.872 386.462 46.744 382.622 47.992ZM416.888 25.096L417.176 26.056C422.504 24.472 427.304 24.04 430.184 27.16C415.304 36.184 414.2 46.408 417.368 48.664C420.344 50.776 429.56 49.624 433.736 40.168L435.032 49H442.328L442.664 47.656C436.952 45.256 433.784 29.08 440.504 24.232L439.832 23.128C438.248 23.56 436.232 24.28 434.216 25.192C431.96 22.792 429.416 21.88 425.816 21.88C422.12 21.88 419.432 23.176 416.888 25.096ZM421.832 44.44C419.912 42.616 420.92 38.056 424.472 34.504C426.92 32.056 429.416 30.376 431.528 29.176C431.672 29.56 431.864 29.944 432.008 30.376C433.496 35.8 432.248 39.304 430.424 41.704C427.736 45.208 423.656 46.12 421.832 44.44ZM462.232 49.72C469.384 49.72 474.664 43.624 474.664 35.848C474.664 28.024 469.048 21.88 461.896 21.88C457.672 21.88 454.84 23.416 453.064 25.96V21.016C453.064 17.368 453.544 13.48 455.032 9.784L454.168 9.064C451.72 11.896 449.032 13.624 444.088 14.44V15.736C447.64 15.736 448.744 18.808 448.744 22.456V35.464C448.744 41.512 448.36 45.304 447.88 49H449.512L452.536 44.824C454.36 47.848 457.432 49.72 462.232 49.72ZM453.304 35.944C452.536 29.896 454.744 25.24 458.68 24.664C463.72 23.944 467.944 28.36 468.952 35.416C469.864 42.424 467.512 47.512 463.288 47.704C458.344 47.896 454.216 43.048 453.304 35.944Z" fill="#201E29"/>
<path d="M365.751 276.2H322.167V276.776L329.847 279.944L315.543 337.64L306.327 340.424V341H328.503V340.424L321.015 337.64L327.831 310.088H341.367C347.223 310.088 345.879 312.872 346.647 321.512L347.127 321.8L353.367 296.648L352.887 296.36C347.799 304.808 347.511 308.36 341.559 308.36H328.311L335.895 277.928H355.191C360.087 277.928 360.183 278.6 360.375 290.312C360.279 292.04 360.279 293.768 360.375 295.784L360.855 296.072L365.751 276.2ZM394.636 298.088C394.636 295.496 393.196 290.024 384.556 290.024C381.676 290.024 368.332 294.44 362.86 314.12C357.964 331.784 364.3 341.96 374.764 341.96C377.452 341.96 381.388 339.56 387.724 335.336L387.244 334.76C384.268 336.488 382.732 338.024 378.7 338.024C368.524 338.024 365.356 328.232 366.604 317.288C379.852 314.984 394.636 310.28 394.636 298.088ZM381.772 294.056C387.82 294.056 388.588 298.088 388.588 300.488C388.588 311.432 374.284 314.792 366.892 315.752C367.084 314.216 367.468 312.584 367.852 310.952C371.884 295.4 378.508 294.056 381.772 294.056ZM406.007 342.056C413.687 342.056 418.775 338.792 421.463 331.4C424.343 323.432 419.831 317.672 413.975 313.16L413.015 312.488C408.023 308.648 403.991 303.08 406.199 297.32C407.447 293.576 411.575 291.752 415.415 291.752C425.591 291.752 426.839 299.24 424.151 310.472H424.631L429.911 292.712C424.727 289.928 420.983 289.544 418.487 289.544C410.807 289.544 405.143 293.384 403.127 298.76C399.767 307.88 404.471 313.064 409.463 317.48L410.231 318.152C415.511 322.664 419.735 328.52 417.431 334.568C415.895 338.792 412.151 340.232 408.119 340.232C401.591 340.232 393.527 337.448 396.791 321.608H396.215L391.607 340.136C394.871 340.616 400.727 342.056 406.007 342.056ZM460.519 290.888H448.999L451.591 280.52H451.207C449.479 283.304 445.255 288.872 443.527 290.888H436.711L436.519 291.368C437.671 291.656 440.551 292.04 442.951 292.424L432.583 331.784C431.719 341.48 433.543 341.864 434.983 341.864C438.631 341.864 447.559 332.072 451.783 328.616L451.591 328.328L435.655 338.12L448.423 292.904C453.607 293.384 458.599 293.768 459.847 293.768L460.519 290.888Z" fill="#DB3A2C"/>
<path d="M56 67.5C68.9336 58.8333 80.4301 58.8333 93.3636 67.5C106.297 76.1667 117.794 76.1667 130.727 67.5C143.661 58.8333 155.157 58.8333 168.091 67.5C181.024 76.1667 192.521 76.1667 205.455 67.5C218.388 58.8333 229.885 58.8333 242.818 67.5C255.752 76.1667 267.248 76.1667 280.182 67.5C293.115 58.8333 304.612 58.8333 317.545 67.5C330.479 76.1667 341.976 76.1667 354.909 67.5C367.843 58.8333 379.339 58.8333 392.273 67.5C405.206 76.1667 416.703 76.1667 429.636 67.5C442.57 58.8333 454.066 58.8333 467 67.5" stroke="#DB3A2C" stroke-width="3" stroke-linecap="round" stroke-linejoin="round"/>
<path d="M278.061 314.061C278.646 313.475 278.646 312.525 278.061 311.939L268.515 302.393C267.929 301.808 266.979 301.808 266.393 302.393C265.808 302.979 265.808 303.929 266.393 304.515L274.879 313L266.393 321.485C265.808 322.071 265.808 323.021 266.393 323.607C266.979 324.192 267.929 324.192 268.515 323.607L278.061 314.061ZM59 314.5L277 314.5L277 311.5L59 311.5L59 314.5Z" fill="#DB3A2C"/>
<path d="M490.939 311.939C490.354 312.525 490.354 313.475 490.939 314.061L500.485 323.607C501.071 324.192 502.021 324.192 502.607 323.607C503.192 323.021 503.192 322.071 502.607 321.485L494.121 313L502.607 304.515C503.192 303.929 503.192 302.979 502.607 302.393C502.021 301.808 501.071 301.808 500.485 302.393L490.939 311.939ZM492 314.5H707V311.5H492V314.5Z" fill="#DB3A2C"/>
<path d="M468.5 264L470.913 277.5L478 279L470.913 280.5L468.5 294L466.087 280.5L459 279L466.087 277.5L468.5 264Z" fill="#DB3A2C"/>
<path d="M475.192 286.224C476.051 289.428 474.426 293.269 470.427 297.539C466.449 301.786 460.232 306.336 452.222 310.912C436.21 320.059 413.137 329.251 386.802 336.308C360.467 343.364 335.89 346.94 317.449 347.024C308.224 347.066 300.565 346.235 294.997 344.545C289.398 342.847 286.071 340.333 285.212 337.129C284.354 333.926 285.979 330.085 289.978 325.814C293.955 321.567 300.173 317.017 308.182 312.442C324.195 303.294 347.267 294.102 373.602 287.046C399.937 279.989 424.515 276.414 442.956 276.329C452.18 276.287 459.84 277.119 465.408 278.808C471.006 280.507 474.334 283.021 475.192 286.224Z" stroke="#DB3A2C"/>
<circle cx="288.5" cy="340.5" r="5.5" fill="#DB3A2C"/>
<path d="M44.5 107L52.5 152L76 157L52.5 162L44.5 207L36.5 162L13 157L36.5 152L44.5 107Z" fill="#75A9B5"/>
<path d="M761.5 256L766.198 283L780 286L766.198 289L761.5 316L756.802 289L743 286L756.802 283L761.5 256Z" fill="#75A9B5"/>
<path d="M14 112L17.5556 132.25L28 134.5L17.5556 136.75L14 157L10.4444 136.75L0 134.5L10.4444 132.25L14 112Z" fill="#75A9B5"/>
<path d="M766.481 440.197C763.438 438.226 763.438 433.774 766.481 431.803L785.289 419.624C787.654 418.092 788.287 414.91 786.688 412.589L773.973 394.139C771.915 391.154 773.619 387.041 777.185 386.385L799.222 382.33C801.993 381.82 803.796 379.122 803.207 376.366L798.52 354.455C797.761 350.91 800.91 347.761 804.455 348.52L826.366 353.207C829.122 353.796 831.82 351.993 832.33 349.222L836.385 327.185C837.041 323.619 841.154 321.915 844.139 323.973L862.589 336.688C864.91 338.287 868.092 337.654 869.624 335.289L881.803 316.481C883.774 313.438 888.226 313.438 890.197 316.481L902.376 335.289C903.908 337.654 907.09 338.287 909.411 336.688L927.861 323.973C930.846 321.915 934.959 323.619 935.615 327.185L939.67 349.222C940.18 351.993 942.878 353.796 945.634 353.207L967.545 348.52C971.09 347.761 974.239 350.91 973.48 354.455L968.793 376.366C968.204 379.122 970.007 381.82 972.778 382.33L994.815 386.385C998.381 387.041 1000.08 391.154 998.027 394.139L985.312 412.589C983.713 414.91 984.346 418.092 986.711 419.624L1005.52 431.803C1008.56 433.774 1008.56 438.226 1005.52 440.197L986.711 452.376C984.346 453.908 983.713 457.09 985.312 459.411L998.027 477.861C1000.08 480.846 998.381 484.959 994.815 485.615L972.778 489.67C970.007 490.18 968.204 492.878 968.793 495.634L973.48 517.545C974.239 521.09 971.09 524.239 967.545 523.48L945.634 518.793C942.878 518.204 940.18 520.007 939.67 522.778L935.615 544.815C934.959 548.381 930.846 550.085 927.861 548.027L909.411 535.312C907.09 533.713 903.908 534.346 902.376 536.711L890.197 555.519C888.226 558.562 883.774 558.562 881.803 555.519L869.624 536.711C868.092 534.346 864.91 533.713 862.589 535.312L844.139 548.027C841.154 550.085 837.041 548.381 836.385 544.815L832.33 522.778C831.82 520.007 829.122 518.204 826.366 518.793L804.455 523.48C800.91 524.239 797.761 521.09 798.52 517.545L803.207 495.634C803.796 492.878 801.993 490.18 799.222 489.67L777.185 485.615C773.619 484.959 771.915 480.846 773.973 477.861L786.688 459.411C788.287 457.09 787.654 453.908 785.289 452.376L766.481 440.197Z" fill="#75A9B5"/>
<g filter="url(#filter0_dddddd_3414_55)">
<path d="M838.774 420.205L839.43 439.743L828.658 423.657L823.505 425.398L824.707 444.752L813.379 428.819L808.225 430.561L824.091 452.526L829.912 450.559L829.114 433.501L838.825 447.548L844.645 445.581L843.928 418.464L838.774 420.205ZM850.179 416.386L845.146 418.086L853.433 442.612L858.465 440.912L850.179 416.386ZM870.03 409.679L875.622 426.231L857.994 413.745L852.992 415.435L861.278 439.961L866.281 438.271L860.799 421.546L878.316 434.205L883.349 432.504L875.062 407.978L870.03 409.679ZM876.708 407.422L878.367 412.334L886.917 409.445L893.544 429.06L898.97 427.226L892.343 407.611L900.892 404.723L899.233 399.812L876.708 407.422ZM900.894 399.25L909.181 423.776L926.703 417.856L925.054 412.975L912.837 417.103L910.993 411.646L921.19 408.235L919.541 403.354L909.334 406.735L907.859 402.369L920.076 398.241L918.417 393.33L900.894 399.25ZM941.574 402.395C944.085 400.33 944.91 396.674 943.855 393.551C942.482 389.489 937.907 386.745 932.571 388.548L921.233 392.378L929.52 416.904L934.946 415.071L931.966 406.249C931.966 406.249 932.572 406.044 936.453 404.733L944.284 411.916L950.529 409.806L941.574 402.395ZM930.358 401.489L928.268 395.305L934.604 393.164C936.484 392.529 938.45 393.249 939.095 395.159C939.73 397.039 938.573 398.713 936.694 399.348L930.358 401.489ZM862.45 461.782C865.992 459.572 868.296 456.294 866.76 451.747C865.142 446.957 861.924 444.632 855.77 446.712C850.131 448.617 848.367 452.793 849.934 457.432L850.088 457.886L855.454 456.073L855.3 455.619C854.665 453.739 855.538 451.924 857.873 451.135C859.419 450.613 861.112 451.426 861.634 452.972C862.218 454.7 862.438 456.45 859.743 458.07C856.099 460.28 852.876 464.038 854.709 469.464C855.652 472.253 855.262 471.101 856.389 474.335L872.881 468.763L871.232 463.882L859.53 467.836C858.597 465.077 859.664 463.534 862.45 461.782ZM876.373 439.683C870.007 441.834 867.482 448.159 870.135 456.011C872.911 464.226 878.955 467.217 884.988 465.179C891.142 463.1 893.991 457.037 891.236 448.881C888.562 440.969 882.891 437.481 876.373 439.683ZM883.195 459.874C879.982 460.959 877.128 458.512 875.653 454.146C873.983 449.205 874.558 446.207 878.166 444.988C881.47 443.872 884.212 446.289 885.718 450.746C887.213 455.172 886.227 458.849 883.195 459.874ZM903.483 447.918C907.026 445.708 909.33 442.43 907.794 437.883C906.175 433.093 902.958 430.768 896.804 432.847C891.165 434.753 889.401 438.929 890.968 443.567L891.122 444.022L896.488 442.209L896.334 441.754C895.699 439.875 896.572 438.06 898.906 437.271C900.452 436.749 902.146 437.562 902.668 439.108C903.252 440.836 903.472 442.585 900.776 444.205C897.132 446.416 893.909 450.174 895.743 455.6C896.685 458.389 896.296 457.237 897.422 460.471L913.914 454.899L912.265 450.018L900.563 453.972C899.631 451.213 900.697 449.67 903.483 447.918ZM923.95 435.903C925.07 435.119 925.779 432.92 925.042 430.738C923.833 427.16 920.13 424.899 915.431 426.486C910.732 428.074 909.18 432.077 910.399 435.685C910.46 435.867 910.522 436.049 910.614 436.22L915.252 434.653C914.627 432.804 915.461 431.374 916.917 430.882C918.432 430.37 919.913 431.052 920.527 432.871C920.865 433.871 920.964 435.763 918.023 436.757L919.048 439.789C922.019 438.785 924.025 439.424 924.977 442.244C925.889 444.942 924.652 446.88 922.591 447.576C920.529 448.273 918.36 447.452 917.459 444.784L912.548 446.443C914.207 451.354 918.407 453.887 924.046 451.982C929.624 450.098 931.61 445.779 929.858 440.594C928.773 437.381 926.166 435.965 923.95 435.903Z" fill="white"/>
</g>
<defs>
<filter id="filter0_dddddd_3414_55" x="275.235" y="-147.73" width="1218.35" height="1165.62" filterUnits="userSpaceOnUse" color-interpolation-filters="sRGB">
<feFlood flood-opacity="0" result="BackgroundImageFix"/>
<feColorMatrix in="SourceAlpha" type="matrix" values="0 0 0 0 0 0 0 0 0 0 0 0 0 0 0 0 0 0 127 0" result="hardAlpha"/>
<feOffset/>
<feGaussianBlur stdDeviation="6.345"/>
<feColorMatrix type="matrix" values="0 0 0 0 1 0 0 0 0 1 0 0 0 0 1 0 0 0 1 0"/>
<feBlend mode="normal" in2="BackgroundImageFix" result="effect1_dropShadow_3414_55"/>
<feColorMatrix in="SourceAlpha" type="matrix" values="0 0 0 0 0 0 0 0 0 0 0 0 0 0 0 0 0 0 127 0" result="hardAlpha"/>
<feOffset/>
<feGaussianBlur stdDeviation="12.69"/>
<feColorMatrix type="matrix" values="0 0 0 0 1 0 0 0 0 1 0 0 0 0 1 0 0 0 1 0"/>
<feBlend mode="normal" in2="effect1_dropShadow_3414_55" result="effect2_dropShadow_3414_55"/>
<feColorMatrix in="SourceAlpha" type="matrix" values="0 0 0 0 0 0 0 0 0 0 0 0 0 0 0 0 0 0 127 0" result="hardAlpha"/>
<feOffset/>
<feGaussianBlur stdDeviation="44.415"/>
<feColorMatrix type="matrix" values="0 0 0 0 1 0 0 0 0 1 0 0 0 0 1 0 0 0 1 0"/>
<feBlend mode="normal" in2="effect2_dropShadow_3414_55" result="effect3_dropShadow_3414_55"/>
<feColorMatrix in="SourceAlpha" type="matrix" values="0 0 0 0 0 0 0 0 0 0 0 0 0 0 0 0 0 0 127 0" result="hardAlpha"/>
<feOffset/>
<feGaussianBlur stdDeviation="88.83"/>
<feColorMatrix type="matrix" values="0 0 0 0 1 0 0 0 0 1 0 0 0 0 1 0 0 0 1 0"/>
<feBlend mode="normal" in2="effect3_dropShadow_3414_55" result="effect4_dropShadow_3414_55"/>
<feColorMatrix in="SourceAlpha" type="matrix" values="0 0 0 0 0 0 0 0 0 0 0 0 0 0 0 0 0 0 127 0" result="hardAlpha"/>
<feOffset/>
<feGaussianBlur stdDeviation="152.28"/>
<feColorMatrix type="matrix" values="0 0 0 0 1 0 0 0 0 1 0 0 0 0 1 0 0 0 1 0"/>
<feBlend mode="normal" in2="effect4_dropShadow_3414_55" result="effect5_dropShadow_3414_55"/>
<feColorMatrix in="SourceAlpha" type="matrix" values="0 0 0 0 0 0 0 0 0 0 0 0 0 0 0 0 0 0 127 0" result="hardAlpha"/>
<feOffset/>
<feGaussianBlur stdDeviation="266.49"/>
<feColorMatrix type="matrix" values="0 0 0 0 1 0 0 0 0 1 0 0 0 0 1 0 0 0 1 0"/>
<feBlend mode="normal" in2="effect5_dropShadow_3414_55" result="effect6_dropShadow_3414_55"/>
<feBlend mode="normal" in="SourceGraphic" in2="effect6_dropShadow_3414_55" result="shape"/>
</filter>
</defs>
</svg>
