<svg width="105" height="55" viewBox="0 0 105 55" fill="none" xmlns="http://www.w3.org/2000/svg">
<path d="M12.998 55L12.998 5.625L0.185547 9.64844L0.185547 5.3125L12.998 1.32813H17.8027L17.8027 55H12.998ZM54.5762 55L54.5762 51.7188C61.321 47.9427 67.4277 44.4792 72.8965 41.3281C78.3913 38.151 83.0658 35.1823 86.9199 32.4219C90.7741 29.6354 93.7298 26.9922 95.7871 24.4922C97.8444 21.9661 98.821 19.4661 98.7168 16.9922C98.6387 15.1432 98.1178 13.4635 97.1543 11.9531C96.2168 10.4167 94.8496 9.11458 93.0527 8.04688C91.2559 6.95313 89.0423 6.10677 86.4121 5.50781C83.7819 4.90885 80.748 4.60938 77.3105 4.60938C75.1751 4.60938 73.1309 4.72656 71.1777 4.96094C69.2507 5.19531 67.3757 5.5599 65.5527 6.05469C63.7559 6.52344 61.998 7.1224 60.2793 7.85156C58.5605 8.58073 56.8678 9.4401 55.2012 10.4297V5.07813C56.998 4.34896 58.7428 3.69792 60.4355 3.125C62.1283 2.52604 63.847 2.01823 65.5918 1.60156C67.3366 1.1849 69.1465 0.872396 71.0215 0.664063C72.8965 0.455729 74.9017 0.351563 77.0371 0.351563C80.8652 0.351563 84.4069 0.729167 87.6621 1.48438C90.9173 2.23958 93.7298 3.34635 96.0996 4.80469C98.4694 6.23698 100.318 8.00781 101.646 10.1172C103.001 12.2266 103.678 14.6484 103.678 17.3828C103.678 19.8568 102.831 22.3307 101.139 24.8047C99.446 27.2786 96.972 29.8438 93.7168 32.5C90.4876 35.1563 86.5033 37.9557 81.7637 40.8984C77.0241 43.8411 71.6074 47.0443 65.5137 50.5078L104.811 50.5078V55H54.5762Z" fill="#FFE6DE"/>
<path d="M12.998 55H11.998V56H12.998V55ZM12.998 5.625H13.998V4.26283L12.6984 4.67093L12.998 5.625ZM0.185547 9.64844H-0.814453L-0.814453 11.0106L0.485147 10.6025L0.185547 9.64844ZM0.185547 5.3125L-0.111402 4.35761L-0.814453 4.57624V5.3125H0.185547ZM12.998 1.32813V0.328125H12.8461L12.7011 0.373232L12.998 1.32813ZM17.8027 1.32813L18.8027 1.32813L18.8027 0.328125L17.8027 0.328125L17.8027 1.32813ZM17.8027 55V56H18.8027V55H17.8027ZM13.998 55L13.998 5.625H11.998L11.998 55H13.998ZM12.6984 4.67093L-0.114053 8.69437L0.485147 10.6025L13.2976 6.57907L12.6984 4.67093ZM1.18555 9.64844L1.18555 5.3125H-0.814453L-0.814453 9.64844H1.18555ZM0.482495 6.26739L13.295 2.28302L12.7011 0.373232L-0.111402 4.35761L0.482495 6.26739ZM12.998 2.32813H17.8027L17.8027 0.328125H12.998V2.32813ZM16.8027 1.32813L16.8027 55H18.8027L18.8027 1.32813L16.8027 1.32813ZM17.8027 54H12.998V56H17.8027V54ZM54.5762 55H53.5762V56H54.5762V55ZM54.5762 51.7188L54.0877 50.8462L53.5762 51.1325V51.7188H54.5762ZM72.8965 41.3281L73.3957 42.1946L73.397 42.1938L72.8965 41.3281ZM86.9199 32.4219L87.5022 33.2349L87.5058 33.2323L86.9199 32.4219ZM95.7871 24.4922L96.5593 25.1276L96.5625 25.1237L95.7871 24.4922ZM98.7168 16.9922L99.7159 16.9501L99.7159 16.95L98.7168 16.9922ZM97.1543 11.9531L96.3007 12.474L96.3059 12.4825L96.3112 12.4909L97.1543 11.9531ZM93.0527 8.04688L92.5328 8.90112L92.5419 8.90656L93.0527 8.04688ZM71.1777 4.96094L71.0586 3.96806L71.057 3.96825L71.1777 4.96094ZM65.5527 6.05469L65.8052 7.02235L65.8147 7.01977L65.5527 6.05469ZM55.2012 10.4297H54.2012L54.2012 12.1864L55.7117 11.2895L55.2012 10.4297ZM55.2012 5.07813L54.8252 4.15151L54.2012 4.40472V5.07813H55.2012ZM60.4355 3.125L60.7562 4.07231L60.7691 4.06772L60.4355 3.125ZM96.0996 4.80469L95.5755 5.65637L95.5824 5.66052L96.0996 4.80469ZM101.646 10.1172L100.8 10.65L100.805 10.6574L101.646 10.1172ZM93.7168 32.5L93.0846 31.7252L93.0815 31.7277L93.7168 32.5ZM65.5137 50.5078L65.0195 49.6384L61.7305 51.5078H65.5137V50.5078ZM104.811 50.5078H105.811V49.5078H104.811V50.5078ZM104.811 55V56H105.811V55H104.811ZM55.5762 55L55.5762 51.7188H53.5762L53.5762 55H55.5762ZM55.0647 52.5913C61.8123 48.8137 67.9227 45.3481 73.3957 42.1946L72.3972 40.4617C66.9327 43.6103 60.8296 47.0717 54.0877 50.8462L55.0647 52.5913ZM73.397 42.1938C78.9112 39.0056 83.6146 36.0193 87.5022 33.2349L86.3376 31.6089C82.517 34.3453 77.8714 37.2965 72.3959 40.4624L73.397 42.1938ZM87.5058 33.2323C91.4001 30.4168 94.4287 27.7166 96.5593 25.1276L95.0149 23.8568C93.0309 26.2677 90.1481 28.854 86.334 31.6115L87.5058 33.2323ZM96.5625 25.1237C98.7245 22.4691 99.8333 19.737 99.7159 16.9501L97.7177 17.0343C97.8087 19.1953 96.9643 21.4632 95.0117 23.8607L96.5625 25.1237ZM99.7159 16.95C99.6306 14.931 99.0589 13.0793 97.9974 11.4153L96.3112 12.4909C97.1768 13.8478 97.6467 15.3554 97.7177 17.0344L99.7159 16.95ZM98.0079 11.4323C96.9727 9.73569 95.4779 8.32471 93.5636 7.18719L92.5419 8.90656C94.2213 9.90445 95.4609 11.0976 96.3007 12.474L98.0079 11.4323ZM93.5727 7.19268C91.6619 6.02957 89.3414 5.14927 86.6341 4.53277L86.1901 6.48285C88.7433 7.06428 90.8499 7.87668 92.5328 8.90107L93.5727 7.19268ZM86.6341 4.53277C83.9144 3.91343 80.8035 3.60938 77.3105 3.60938V5.60938C80.6926 5.60938 83.6494 5.90428 86.1901 6.48285L86.6341 4.53277ZM77.3105 3.60938C75.1386 3.60938 73.0544 3.72856 71.0586 3.96806L71.2969 5.95381C73.2073 5.72457 75.2116 5.60938 77.3105 5.60938V3.60938ZM71.057 3.96825C69.0836 4.20827 67.1613 4.58189 65.2908 5.08961L65.8147 7.01977C67.59 6.5379 69.4177 6.18236 71.2985 5.95362L71.057 3.96825ZM65.3003 5.08707C63.4561 5.56818 61.6521 6.1829 59.8887 6.93098L60.6698 8.77214C62.344 8.0619 64.0557 7.47869 65.8052 7.0223L65.3003 5.08707ZM59.8887 6.93098C58.1271 7.67833 56.3944 8.55821 54.6906 9.56983L55.7117 11.2895C57.3413 10.322 58.9939 9.48313 60.6698 8.77214L59.8887 6.93098ZM56.2012 10.4297V5.07813H54.2012V10.4297H56.2012ZM55.5772 6.00474C57.3573 5.28237 59.0836 4.63831 60.7561 4.07222L60.115 2.17778C58.4021 2.75753 56.6388 3.41555 54.8252 4.15151L55.5772 6.00474ZM60.7691 4.06772C62.4286 3.48051 64.1136 2.98269 65.8241 2.57421L65.3595 0.628912C63.5804 1.05377 61.8279 1.57158 60.102 2.18228L60.7691 4.06772ZM65.8241 2.57421C67.5267 2.16761 69.2958 1.86196 71.1319 1.65795L70.9111 -0.329822C68.9971 -0.117164 67.1465 0.202183 65.3595 0.628912L65.8241 2.57421ZM71.1319 1.65795C72.9658 1.45418 74.9339 1.35156 77.0371 1.35156V-0.648437C74.8695 -0.648437 72.8271 -0.542719 70.9111 -0.329822L71.1319 1.65795ZM77.0371 1.35156C80.7999 1.35156 84.2648 1.72276 87.4361 2.4585L87.8881 0.510247C84.549 -0.264429 80.9305 -0.648437 77.0371 -0.648437V1.35156ZM87.4361 2.4585C90.6065 3.19403 93.3142 4.26476 95.5755 5.65635L96.6237 3.95303C94.1455 2.42795 91.2281 1.28514 87.8881 0.510247L87.4361 2.4585ZM95.5824 5.66052C97.8338 7.02128 99.564 8.6865 100.8 10.65L102.493 9.58437C101.073 7.32913 99.105 5.45268 96.6169 3.94886L95.5824 5.66052ZM100.805 10.6574C102.046 12.591 102.678 14.8219 102.678 17.3828H104.678C104.678 14.475 103.955 11.8621 102.488 9.57696L100.805 10.6574ZM102.678 17.3828C102.678 19.6159 101.917 21.8967 100.313 24.24L101.964 25.3694C103.746 22.7648 104.678 20.0976 104.678 17.3828H102.678ZM100.313 24.24C98.6914 26.6105 96.293 29.1072 93.0846 31.7252L94.349 33.2748C97.651 30.5803 100.2 27.9468 101.964 25.3694L100.313 24.24ZM93.0815 31.7277C89.8957 34.3483 85.9498 37.1223 81.2362 40.0489L82.2912 41.748C87.0568 38.7891 91.0796 35.9642 94.3521 33.2723L93.0815 31.7277ZM81.2362 40.0489C76.5099 42.9833 71.1047 46.1797 65.0195 49.6384L66.0078 51.3772C72.1101 47.9088 77.5382 44.699 82.2912 41.748L81.2362 40.0489ZM65.5137 51.5078L104.811 51.5078V49.5078L65.5137 49.5078V51.5078ZM103.811 50.5078V55H105.811V50.5078H103.811ZM104.811 54L54.5762 54V56H104.811V54Z" fill="#FFE2DE"/>
</svg>
