<svg width="1440" height="184" viewBox="0 0 1440 184" fill="none" xmlns="http://www.w3.org/2000/svg">
<line y1="183" x2="1440" y2="183" stroke="#FFE2DE" stroke-width="2"/>
<line y1="1" x2="1440" y2="1" stroke="#FFE2DE" stroke-width="2"/>
<path d="M81.082 51L77.3906 43.9297H59.168L55.4766 51H52.8008L66.8438 24.1641H69.7148L83.7578 51H81.082ZM68.2891 26.5273L60.3594 41.6836H76.1992L68.2891 26.5273ZM121.223 32.4063C121.223 33.7474 121.001 34.9323 120.559 35.9609C120.129 36.9896 119.445 37.8555 118.508 38.5586C117.57 39.2617 116.359 39.7956 114.875 40.1602C113.404 40.5117 111.626 40.6875 109.543 40.6875L97.4922 40.6875V51H95.0508V24.1641H109.543C111.626 24.1641 113.404 24.3464 114.875 24.7109C116.359 25.0625 117.57 25.5833 118.508 26.2734C119.445 26.9635 120.129 27.8229 120.559 28.8516C121.001 29.8802 121.223 31.0651 121.223 32.4063ZM118.703 32.4063C118.703 31.1302 118.488 30.1016 118.059 29.3203C117.642 28.5391 116.991 27.9401 116.105 27.5234C115.233 27.0938 114.12 26.8073 112.766 26.6641C111.424 26.5208 109.829 26.4492 107.98 26.4492H97.4922V38.4023L107.98 38.4023C108.697 38.4023 109.458 38.4089 110.266 38.4219C111.086 38.4219 111.893 38.3828 112.688 38.3047C113.482 38.2135 114.237 38.0638 114.953 37.8555C115.682 37.6341 116.32 37.3021 116.867 36.8594C117.427 36.4167 117.87 35.8372 118.195 35.1211C118.534 34.4049 118.703 33.5 118.703 32.4063ZM136.266 39.5156V51H133.824V24.1641H147.184C149.228 24.1641 150.979 24.3268 152.438 24.6523C153.896 24.9648 155.087 25.4466 156.012 26.0977C156.949 26.7357 157.633 27.5365 158.062 28.5C158.492 29.4635 158.707 30.5898 158.707 31.8789C158.707 33.8841 158.18 35.4922 157.125 36.7031C156.07 37.901 154.371 38.7214 152.027 39.1641L161.188 51H158.121L149.469 39.4375C149.104 39.4635 148.733 39.4831 148.355 39.4961C147.978 39.5091 147.587 39.5156 147.184 39.5156H136.266ZM156.188 31.8789C156.188 30.7331 155.986 29.8086 155.582 29.1055C155.178 28.3893 154.521 27.8359 153.609 27.4453C152.698 27.0547 151.5 26.7943 150.016 26.6641C148.544 26.5208 146.734 26.4492 144.586 26.4492H136.266V37.2305H144.508C146.656 37.2305 148.473 37.1719 149.957 37.0547C151.441 36.9245 152.646 36.6706 153.57 36.293C154.495 35.9023 155.159 35.362 155.562 34.6719C155.979 33.9688 156.188 33.0378 156.188 31.8789ZM173.145 51V24.1641H175.586V51H173.145ZM190.629 51V24.1641H193.07V48.7148L212.68 48.7148V51L190.629 51ZM250.715 51H247.844L263.449 26.3906L241.203 26.3906V24.1641L266.809 24.1641V25.5117L250.715 51ZM277.203 38.793V36.3906L292.398 36.3906V38.793L277.203 38.793ZM308.008 51V26.3125L301.602 28.3242V26.1563L308.008 24.1641H310.41V51H308.008ZM338.363 36.6836C339.9 36.8789 341.234 37.1849 342.367 37.6016C343.513 38.0182 344.457 38.513 345.199 39.0859C345.954 39.6589 346.514 40.3099 346.879 41.0391C347.243 41.7552 347.426 42.5169 347.426 43.3242C347.426 44.7305 347.068 45.9544 346.352 46.9961C345.648 48.0247 344.685 48.8776 343.461 49.5547C342.25 50.2188 340.824 50.7135 339.184 51.0391C337.556 51.3646 335.824 51.5273 333.988 51.5273C332.673 51.5273 331.488 51.4753 330.434 51.3711C329.379 51.2799 328.409 51.1432 327.523 50.9609C326.638 50.7786 325.811 50.5638 325.043 50.3164C324.275 50.056 323.526 49.776 322.797 49.4766V46.6445C324.424 47.6081 326.104 48.3112 327.836 48.7539C329.568 49.1836 331.423 49.3984 333.402 49.3984C335.395 49.3984 337.113 49.2552 338.559 48.9688C340.017 48.6693 341.215 48.2591 342.152 47.7383C343.103 47.2044 343.806 46.5664 344.262 45.8242C344.73 45.082 344.965 44.2617 344.965 43.3633C344.965 41.4232 343.786 40.0104 341.43 39.125C339.086 38.2396 335.486 37.7839 330.629 37.7578V35.6484C335.056 35.6484 338.389 35.2643 340.629 34.4961C342.868 33.7148 343.988 32.4714 343.988 30.7656C343.988 29.1771 343.09 27.9466 341.293 27.0742C339.509 26.2018 336.879 25.7656 333.402 25.7656C332.387 25.7656 331.436 25.8177 330.551 25.9219C329.678 26.026 328.839 26.1823 328.031 26.3906C327.224 26.599 326.436 26.8529 325.668 27.1523C324.9 27.4518 324.118 27.8034 323.324 28.207V25.3945C324.197 25.1081 325.049 24.8607 325.883 24.6523C326.716 24.431 327.556 24.2487 328.402 24.1055C329.249 23.9622 330.115 23.8581 331 23.793C331.885 23.7148 332.816 23.6758 333.793 23.6758C334.887 23.6758 335.954 23.7279 336.996 23.832C338.051 23.9362 339.047 24.1055 339.984 24.3398C340.922 24.5612 341.781 24.8542 342.562 25.2188C343.357 25.5703 344.04 26.0065 344.613 26.5273C345.186 27.0352 345.629 27.6276 345.941 28.3047C346.267 28.9818 346.43 29.75 346.43 30.6094C346.43 31.2995 346.26 31.9701 345.922 32.6211C345.596 33.2721 345.095 33.8711 344.418 34.418C343.754 34.9648 342.914 35.4401 341.898 35.8438C340.896 36.2344 339.717 36.5143 338.363 36.6836ZM359.578 54.9648H357.215L358.816 46.7617H362.02L359.578 54.9648ZM392.32 51V49.3594C395.693 47.4714 398.746 45.7396 401.48 44.1641C404.228 42.5755 406.565 41.0911 408.492 39.7109C410.419 38.3177 411.897 36.9961 412.926 35.7461C413.954 34.4831 414.443 33.2331 414.391 31.9961C414.352 31.0716 414.091 30.2318 413.609 29.4766C413.141 28.7083 412.457 28.0573 411.559 27.5234C410.66 26.9766 409.553 26.5534 408.238 26.2539C406.923 25.9544 405.406 25.8047 403.688 25.8047C402.62 25.8047 401.598 25.8633 400.621 25.9805C399.658 26.0977 398.72 26.2799 397.809 26.5273C396.91 26.7617 396.031 27.0612 395.172 27.4258C394.312 27.7904 393.466 28.2201 392.633 28.7148V26.0391C393.531 25.6745 394.404 25.349 395.25 25.0625C396.096 24.763 396.956 24.5091 397.828 24.3008C398.701 24.0924 399.605 23.9362 400.543 23.832C401.48 23.7279 402.483 23.6758 403.551 23.6758C405.465 23.6758 407.236 23.8646 408.863 24.2422C410.491 24.6198 411.897 25.1732 413.082 25.9023C414.267 26.6185 415.191 27.5039 415.855 28.5586C416.533 29.6133 416.871 30.8242 416.871 32.1914C416.871 33.4284 416.448 34.6654 415.602 35.9023C414.755 37.1393 413.518 38.4219 411.891 39.75C410.276 41.0781 408.284 42.4779 405.914 43.9492C403.544 45.4206 400.836 47.0221 397.789 48.7539H417.438V51H392.32ZM456.738 37.6016C456.738 39.099 456.549 40.4857 456.172 41.7617C455.807 43.0247 455.299 44.1706 454.648 45.1992C453.997 46.2279 453.223 47.1393 452.324 47.9336C451.426 48.7148 450.449 49.3724 449.395 49.9063C448.353 50.4401 447.246 50.8438 446.074 51.1172C444.915 51.3906 443.737 51.5273 442.539 51.5273C441.341 51.5273 440.156 51.3906 438.984 51.1172C437.826 50.8438 436.719 50.4401 435.664 49.9063C434.609 49.3724 433.633 48.7148 432.734 47.9336C431.836 47.1393 431.055 46.2279 430.391 45.1992C429.74 44.1706 429.225 43.0247 428.848 41.7617C428.483 40.4857 428.301 39.099 428.301 37.6016C428.301 36.1042 428.483 34.724 428.848 33.4609C429.225 32.1849 429.74 31.0326 430.391 30.0039C431.055 28.9753 431.836 28.0703 432.734 27.2891C433.633 26.4948 434.609 25.8307 435.664 25.2969C436.719 24.763 437.826 24.3594 438.984 24.0859C440.156 23.8125 441.341 23.6758 442.539 23.6758C443.737 23.6758 444.915 23.8125 446.074 24.0859C447.246 24.3594 448.353 24.763 449.395 25.2969C450.449 25.8307 451.426 26.4948 452.324 27.2891C453.223 28.0703 453.997 28.9753 454.648 30.0039C455.299 31.0326 455.807 32.1849 456.172 33.4609C456.549 34.724 456.738 36.1042 456.738 37.6016ZM454.297 37.6016C454.297 36.2734 454.134 35.056 453.809 33.9492C453.496 32.8424 453.06 31.8529 452.5 30.9805C451.953 30.1081 451.302 29.3464 450.547 28.6953C449.792 28.0443 448.978 27.5104 448.105 27.0938C447.246 26.6641 446.341 26.3451 445.391 26.1367C444.44 25.9154 443.49 25.8047 442.539 25.8047C441.107 25.8047 439.688 26.0456 438.281 26.5273C436.875 26.9961 435.612 27.7188 434.492 28.6953C433.372 29.6719 432.467 30.9023 431.777 32.3867C431.087 33.8581 430.742 35.5964 430.742 37.6016C430.742 39.6068 431.087 41.3516 431.777 42.8359C432.467 44.3073 433.372 45.5313 434.492 46.5078C435.612 47.4844 436.875 48.2135 438.281 48.6953C439.688 49.1641 441.107 49.3984 442.539 49.3984C443.49 49.3984 444.44 49.2943 445.391 49.0859C446.341 48.8646 447.253 48.5391 448.125 48.1094C448.997 47.6797 449.811 47.1393 450.566 46.4883C451.322 45.8372 451.973 45.0755 452.52 44.2031C453.079 43.3177 453.516 42.3281 453.828 41.2344C454.141 40.1406 454.297 38.9297 454.297 37.6016ZM466.781 51V49.3594C470.154 47.4714 473.207 45.7396 475.941 44.1641C478.689 42.5755 481.026 41.0911 482.953 39.7109C484.88 38.3177 486.358 36.9961 487.387 35.7461C488.415 34.4831 488.904 33.2331 488.852 31.9961C488.812 31.0716 488.552 30.2318 488.07 29.4766C487.602 28.7083 486.918 28.0573 486.02 27.5234C485.121 26.9766 484.014 26.5534 482.699 26.2539C481.384 25.9544 479.867 25.8047 478.148 25.8047C477.081 25.8047 476.059 25.8633 475.082 25.9805C474.118 26.0977 473.181 26.2799 472.27 26.5273C471.371 26.7617 470.492 27.0612 469.633 27.4258C468.773 27.7904 467.927 28.2201 467.094 28.7148V26.0391C467.992 25.6745 468.865 25.349 469.711 25.0625C470.557 24.763 471.417 24.5091 472.289 24.3008C473.161 24.0924 474.066 23.9362 475.004 23.832C475.941 23.7279 476.944 23.6758 478.012 23.6758C479.926 23.6758 481.697 23.8646 483.324 24.2422C484.952 24.6198 486.358 25.1732 487.543 25.9023C488.728 26.6185 489.652 27.5039 490.316 28.5586C490.993 29.6133 491.332 30.8242 491.332 32.1914C491.332 33.4284 490.909 34.6654 490.062 35.9023C489.216 37.1393 487.979 38.4219 486.352 39.75C484.737 41.0781 482.745 42.4779 480.375 43.9492C478.005 45.4206 475.297 47.0221 472.25 48.7539H491.898V51L466.781 51ZM501.922 51V49.3594C505.294 47.4714 508.348 45.7396 511.082 44.1641C513.829 42.5755 516.167 41.0911 518.094 39.7109C520.021 38.3177 521.499 36.9961 522.527 35.7461C523.556 34.4831 524.044 33.2331 523.992 31.9961C523.953 31.0716 523.693 30.2318 523.211 29.4766C522.742 28.7083 522.059 28.0573 521.16 27.5234C520.262 26.9766 519.155 26.5534 517.84 26.2539C516.525 25.9544 515.008 25.8047 513.289 25.8047C512.221 25.8047 511.199 25.8633 510.223 25.9805C509.259 26.0977 508.322 26.2799 507.41 26.5273C506.512 26.7617 505.633 27.0612 504.773 27.4258C503.914 27.7904 503.068 28.2201 502.234 28.7148V26.0391C503.133 25.6745 504.005 25.349 504.852 25.0625C505.698 24.763 506.557 24.5091 507.43 24.3008C508.302 24.0924 509.207 23.9362 510.145 23.832C511.082 23.7279 512.085 23.6758 513.152 23.6758C515.066 23.6758 516.837 23.8646 518.465 24.2422C520.092 24.6198 521.499 25.1732 522.684 25.9023C523.868 26.6185 524.793 27.5039 525.457 28.5586C526.134 29.6133 526.473 30.8242 526.473 32.1914C526.473 33.4284 526.049 34.6654 525.203 35.9023C524.357 37.1393 523.12 38.4219 521.492 39.75C519.878 41.0781 517.885 42.4779 515.516 43.9492C513.146 45.4206 510.438 47.0221 507.391 48.7539L527.039 48.7539V51L501.922 51Z" fill="#FFE2DE"/>
<path fill-rule="evenodd" clip-rule="evenodd" d="M98.3828 144.29C98.3828 144.842 97.9351 145.29 97.3828 145.29H81.2676C80.7153 145.29 80.2676 144.842 80.2676 144.29V99.7998C80.2676 99.2475 80.7153 98.7998 81.2676 98.7998H97.3828C97.9351 98.7998 98.3828 99.2475 98.3828 99.7998V144.29ZM102 92.7998H125.898C126.451 92.7998 126.898 92.3521 126.898 91.7998V79.2002C126.898 78.6479 126.451 78.2002 125.898 78.2002H52.8008C52.2485 78.2002 51.8008 78.6479 51.8008 79.2002V91.7998C51.8008 92.3521 52.2485 92.7998 52.8008 92.7998H74H79.2676H99.3828H102ZM168.91 79.2002C168.91 78.6479 169.358 78.2002 169.91 78.2002H186.025C186.578 78.2002 187.025 78.6479 187.025 79.2002V144.29C187.025 144.842 186.578 145.29 186.025 145.29H169.91C169.358 145.29 168.91 144.842 168.91 144.29V79.2002ZM323.373 102.203C323.373 101.16 321.976 100.814 321.489 101.736L303.309 136.136C302.934 136.845 301.918 136.847 301.542 136.138L294.014 121.986C293.857 121.692 293.858 121.339 294.014 121.045L316.596 78.7294C316.77 78.4036 317.11 78.2002 317.479 78.2002H340.391C340.943 78.2002 341.391 78.6479 341.391 79.2002V144.29C341.391 144.842 340.943 145.29 340.391 145.29H324.373C323.821 145.29 323.373 144.842 323.373 144.29V102.203ZM298.473 145.285C298.475 145.282 298.475 145.279 298.473 145.276L289.799 128.969C289.797 128.963 289.789 128.963 289.786 128.969C289.784 128.972 289.782 128.973 289.779 128.973C289.776 128.973 289.774 128.971 289.773 128.969L262.962 78.7294C262.788 78.4036 262.449 78.2002 262.08 78.2002H239.07C238.518 78.2002 238.07 78.6479 238.07 79.2002V144.29C238.07 144.842 238.518 145.29 239.07 145.29H255.186C255.738 145.29 256.186 144.842 256.186 144.29V102.203C256.186 101.16 257.582 100.814 258.07 101.736L280.806 144.757C280.98 145.085 281.32 145.29 281.69 145.29H298.465C298.466 145.29 298.467 145.29 298.468 145.289C298.469 145.289 298.47 145.289 298.471 145.288C298.472 145.287 298.473 145.286 298.473 145.285ZM392.387 79.2002C392.387 78.6479 392.834 78.2002 393.387 78.2002H459.307C459.859 78.2002 460.307 78.6479 460.307 79.2002V91.5068C460.307 92.0591 459.859 92.5068 459.307 92.5068H411.99C411.438 92.5068 410.99 92.9546 410.99 93.5068V102.289C410.99 102.29 410.99 102.29 410.989 102.29C410.989 102.29 410.988 102.29 410.988 102.291V120.289C410.988 120.29 410.989 120.29 410.989 120.29C410.99 120.29 410.99 120.29 410.99 120.291V129.983C410.99 130.536 411.438 130.983 411.99 130.983H459.99C460.543 130.983 460.99 131.431 460.99 131.983V144.29C460.99 144.842 460.543 145.29 459.99 145.29H393.387C392.834 145.29 392.387 144.842 392.387 144.29V79.2002ZM414.988 116.897C414.988 117.45 415.436 117.897 415.988 117.897H456.768C457.32 117.897 457.768 117.45 457.768 116.897V104.591C457.768 104.039 457.32 103.591 456.768 103.591H415.988C415.436 103.591 414.988 104.039 414.988 104.591V116.897ZM508.52 79.2002C508.52 78.6479 508.967 78.2002 509.52 78.2002H525.635C526.187 78.2002 526.635 78.6479 526.635 79.2002V129.593C526.635 130.145 527.082 130.593 527.635 130.593H574.609C575.162 130.593 575.609 131.04 575.609 131.593V144.29C575.609 144.842 575.162 145.29 574.609 145.29H509.52C508.967 145.29 508.52 144.842 508.52 144.29V79.2002ZM620.16 79.2002C620.16 78.6479 620.608 78.2002 621.16 78.2002H637.275C637.828 78.2002 638.275 78.6479 638.275 79.2002V144.29C638.275 144.842 637.828 145.29 637.275 145.29H621.16C620.608 145.29 620.16 144.842 620.16 144.29V79.2002ZM709.149 100.941C708.522 100.302 707.436 100.747 707.436 101.642V144.29C707.436 144.842 706.988 145.29 706.436 145.29H690.32C689.768 145.29 689.32 144.842 689.32 144.29V79.2002C689.32 78.6479 689.768 78.2002 690.32 78.2002H708.578C708.846 78.2002 709.104 78.3085 709.292 78.5007L748.101 118.146C748.284 118.333 748.387 118.584 748.387 118.846V138.453C748.387 139.348 747.3 139.792 746.673 139.154L709.149 100.941ZM754.349 106.29C754.328 106.29 754.311 106.273 754.311 106.252V79.2002C754.311 78.6479 754.758 78.2002 755.311 78.2002H771.328C771.88 78.2002 772.328 78.6479 772.328 79.2002V144.29C772.328 144.842 771.88 145.29 771.328 145.29H755.387C754.834 145.29 754.387 144.842 754.387 144.29V106.328C754.387 106.307 754.37 106.29 754.349 106.29ZM823.324 79.2002C823.324 78.6479 823.772 78.2002 824.324 78.2002H890.244C890.796 78.2002 891.244 78.6479 891.244 79.2002V91.5068C891.244 92.0591 890.796 92.5068 890.244 92.5068H842.928C842.375 92.5068 841.928 92.9546 841.928 93.5068V97.1885C841.928 97.1949 841.922 97.2002 841.916 97.2002C841.91 97.2002 841.904 97.2054 841.904 97.2119V124.188C841.904 124.195 841.91 124.2 841.916 124.2C841.92 124.2 841.923 124.202 841.925 124.204C841.927 124.206 841.928 124.209 841.928 124.212V129.983C841.928 130.536 842.375 130.983 842.928 130.983H890.928C891.48 130.983 891.928 131.431 891.928 131.983V144.29C891.928 144.842 891.48 145.29 890.928 145.29H824.324C823.772 145.29 823.324 144.842 823.324 144.29V79.2002ZM848.984 117.897H887.705C888.257 117.897 888.705 117.45 888.705 116.897V104.591C888.705 104.039 888.257 103.591 887.705 103.591H848.984C848.432 103.591 847.984 104.039 847.984 104.591V116.897C847.984 117.45 848.432 117.897 848.984 117.897Z" fill="#FFE2DE"/>
</svg>
