<svg width="578" height="59" viewBox="0 0 578 59" fill="none" xmlns="http://www.w3.org/2000/svg">
<rect width="577.136" height="58.2512" rx="6" fill="#46C2C0"/>
<g filter="url(#filter0_d_1381_13)">
<path d="M317.612 34.4562H305.619L303.599 38.5271H297.117L308.374 17.0138H314.857L326.114 38.5271H319.632L317.612 34.4562ZM307.701 30.26H315.561L311.647 22.3374L307.701 30.26Z" fill="white"/>
<path d="M353.812 24.3572C353.812 25.4323 353.656 26.4239 353.343 27.3321C353.029 28.2298 352.523 29.0074 351.824 29.665C351.135 30.3122 350.237 30.8185 349.131 31.1838C348.024 31.5491 346.678 31.7318 345.091 31.7318H335.446V38.5271H329.637V17.0138H345.091C346.678 17.0138 348.024 17.1965 349.131 17.5618C350.237 17.9167 351.135 18.423 351.824 19.0806C352.523 19.7278 353.029 20.5002 353.343 21.3979C353.656 22.2956 353.812 23.282 353.812 24.3572ZM347.941 24.4511C347.941 23.9501 347.868 23.5221 347.722 23.1672C347.586 22.8019 347.356 22.5044 347.033 22.2747C346.709 22.0451 346.286 21.8781 345.764 21.7737C345.242 21.6589 344.6 21.6015 343.839 21.6015H335.446V27.1442H343.839C344.6 27.1442 345.242 27.1024 345.764 27.0189C346.286 26.925 346.709 26.7736 347.033 26.5649C347.356 26.3457 347.586 26.0638 347.722 25.7194C347.868 25.3749 347.941 24.9521 347.941 24.4511Z" fill="white"/>
<path d="M382.81 24.3572C382.81 25.4323 382.653 26.4239 382.34 27.3321C382.027 28.2298 381.521 29.0074 380.821 29.665C380.132 30.3122 379.235 30.8185 378.128 31.1838C377.022 31.5491 375.675 31.7318 374.089 31.7318H364.444V38.5271H358.635V17.0138H374.089C375.675 17.0138 377.022 17.1965 378.128 17.5618C379.235 17.9167 380.132 18.423 380.821 19.0806C381.521 19.7278 382.027 20.5002 382.34 21.3979C382.653 22.2956 382.81 23.282 382.81 24.3572ZM376.938 24.4511C376.938 23.9501 376.865 23.5221 376.719 23.1672C376.583 22.8019 376.354 22.5044 376.03 22.2747C375.707 22.0451 375.284 21.8781 374.762 21.7737C374.24 21.6589 373.598 21.6015 372.836 21.6015H364.444V27.1442H372.836C373.598 27.1442 374.24 27.1024 374.762 27.0189C375.284 26.925 375.707 26.7736 376.03 26.5649C376.354 26.3457 376.583 26.0638 376.719 25.7194C376.865 25.3749 376.938 24.9521 376.938 24.4511Z" fill="white"/>
<path d="M387.632 38.5271V17.0138H393.441V33.8142H409.146V38.5271H387.632Z" fill="white"/>
<path d="M424.803 29.7433V38.5271H419.01V29.7433L408.582 17.0138H415.095L421.922 25.6724L428.717 17.0138H435.231L424.803 29.7433Z" fill="white"/>
<path d="M471.619 38.5271L457.104 23.7465V38.5271H451.295V17.0138H457.605L472.135 31.8571V17.0138H477.913V38.5271H471.619Z" fill="white"/>
<path d="M512.485 27.7861C512.485 29.6337 512.145 31.2673 511.467 32.6869C510.788 34.0961 509.818 35.2756 508.555 36.2255C507.292 37.1754 505.757 37.8956 503.951 38.3862C502.156 38.8664 500.136 39.1065 497.892 39.1065C495.648 39.1065 493.617 38.8664 491.801 38.3862C489.995 37.8956 488.456 37.1754 487.182 36.2255C485.909 35.2756 484.928 34.0961 484.239 32.6869C483.55 31.2673 483.205 29.6337 483.205 27.7861C483.205 25.9386 483.55 24.3102 484.239 22.901C484.928 21.4814 485.909 20.2967 487.182 19.3468C488.456 18.3969 489.995 17.6819 491.801 17.2017C493.617 16.7111 495.648 16.4658 497.892 16.4658C500.136 16.4658 502.156 16.7111 503.951 17.2017C505.757 17.6819 507.292 18.3969 508.555 19.3468C509.818 20.2967 510.788 21.4814 511.467 22.901C512.145 24.3102 512.485 25.9386 512.485 27.7861ZM506.613 27.7861C506.613 26.9824 506.483 26.1839 506.222 25.3906C505.971 24.5868 505.517 23.8666 504.859 23.2298C504.212 22.5931 503.325 22.0764 502.198 21.6797C501.07 21.2831 499.635 21.0848 497.892 21.0848C496.723 21.0848 495.695 21.1787 494.807 21.3666C493.92 21.544 493.153 21.7946 492.506 22.1182C491.859 22.4417 491.316 22.8227 490.877 23.2611C490.439 23.6891 490.089 24.1536 489.828 24.6547C489.567 25.1453 489.379 25.662 489.265 26.2047C489.16 26.7371 489.108 27.2642 489.108 27.7861C489.108 28.3185 489.16 28.8561 489.265 29.3989C489.379 29.9416 489.567 30.4636 489.828 30.9646C490.089 31.4552 490.439 31.9145 490.877 32.3424C491.316 32.7704 491.859 33.1462 492.506 33.4698C493.153 33.7829 493.92 34.0335 494.807 34.2213C495.695 34.3988 496.723 34.4875 497.892 34.4875C499.635 34.4875 501.07 34.2892 502.198 33.8925C503.325 33.4959 504.212 32.9792 504.859 32.3424C505.517 31.7057 505.971 30.9907 506.222 30.1974C506.483 29.3936 506.613 28.5899 506.613 27.7861Z" fill="white"/>
<path d="M538.523 17.0138L544.019 31.951L549.969 17.0138H555.997L547.354 38.5271H540.903L535.282 24.0597L529.677 38.5271H523.226L514.567 17.0138H520.611L526.435 31.6379L532.056 17.0138H538.523Z" fill="white"/>
<path d="M41.6352 35.5828H29.6416L27.6218 39.6537H21.1396L32.3973 18.1404H38.8795L50.1372 39.6537H43.655L41.6352 35.5828ZM31.7241 31.3866H39.5841L35.6697 23.4639L31.7241 31.3866Z" fill="white"/>
<path d="M77.8352 25.4837C77.8352 26.5589 77.6786 27.5505 77.3655 28.4586C77.0523 29.3563 76.5461 30.134 75.8467 30.7916C75.1578 31.4388 74.2601 31.945 73.1536 32.3104C72.0472 32.6757 70.7006 32.8584 69.114 32.8584H59.469V39.6537H53.6601V18.1404H69.114C70.7006 18.1404 72.0472 18.3231 73.1536 18.6884C74.2601 19.0433 75.1578 19.5496 75.8467 20.2072C76.5461 20.8543 77.0523 21.6268 77.3655 22.5245C77.6786 23.4222 77.8352 24.4086 77.8352 25.4837ZM71.9636 25.5777C71.9636 25.0766 71.8906 24.6487 71.7444 24.2938C71.6087 23.9284 71.3791 23.6309 71.0555 23.4013C70.7319 23.1716 70.3092 23.0046 69.7873 22.9002C69.2654 22.7854 68.6234 22.728 67.8614 22.728H59.469V28.2707H67.8614C68.6234 28.2707 69.2654 28.229 69.7873 28.1455C70.3092 28.0515 70.7319 27.9002 71.0555 27.6914C71.3791 27.4722 71.6087 27.1904 71.7444 26.8459C71.8906 26.5015 71.9636 26.0787 71.9636 25.5777Z" fill="white"/>
<path d="M106.833 25.4837C106.833 26.5589 106.676 27.5505 106.363 28.4586C106.05 29.3563 105.544 30.134 104.844 30.7916C104.155 31.4388 103.258 31.945 102.151 32.3104C101.045 32.6757 99.6982 32.8584 98.1115 32.8584H88.4666V39.6537H82.6577V18.1404H98.1115C99.6982 18.1404 101.045 18.3231 102.151 18.6884C103.258 19.0433 104.155 19.5496 104.844 20.2072C105.544 20.8543 106.05 21.6268 106.363 22.5245C106.676 23.4222 106.833 24.4086 106.833 25.4837ZM100.961 25.5777C100.961 25.0766 100.888 24.6487 100.742 24.2938C100.606 23.9284 100.377 23.6309 100.053 23.4013C99.7295 23.1716 99.3067 23.0046 98.7848 22.9002C98.2629 22.7854 97.6209 22.728 96.859 22.728H88.4666V28.2707H96.859C97.6209 28.2707 98.2629 28.229 98.7848 28.1455C99.3067 28.0515 99.7295 27.9002 100.053 27.6914C100.377 27.4722 100.606 27.1904 100.742 26.8459C100.888 26.5015 100.961 26.0787 100.961 25.5777Z" fill="white"/>
<path d="M111.655 39.6537V18.1404H117.464V34.9408H133.169V39.6537H111.655Z" fill="white"/>
<path d="M148.826 30.8699V39.6537H143.033V30.8699L132.605 18.1404H139.118L145.945 26.7989L152.74 18.1404H159.254L148.826 30.8699Z" fill="white"/>
<path d="M195.642 39.6537L181.127 24.8731V39.6537H175.318V18.1404H181.628L196.158 32.9836V18.1404H201.936V39.6537H195.642Z" fill="white"/>
<path d="M236.508 28.9127C236.508 30.7603 236.168 32.3939 235.49 33.8135C234.811 35.2226 233.841 36.4022 232.578 37.3521C231.314 38.3019 229.78 39.0222 227.974 39.5128C226.179 39.9929 224.159 40.233 221.915 40.233C219.671 40.233 217.64 39.9929 215.824 39.5128C214.018 39.0222 212.479 38.3019 211.205 37.3521C209.932 36.4022 208.95 35.2226 208.262 33.8135C207.573 32.3939 207.228 30.7603 207.228 28.9127C207.228 27.0651 207.573 25.4368 208.262 24.0276C208.95 22.608 209.932 21.4232 211.205 20.4733C212.479 19.5235 214.018 18.8084 215.824 18.3283C217.64 17.8377 219.671 17.5924 221.915 17.5924C224.159 17.5924 226.179 17.8377 227.974 18.3283C229.78 18.8084 231.314 19.5235 232.578 20.4733C233.841 21.4232 234.811 22.608 235.49 24.0276C236.168 25.4368 236.508 27.0651 236.508 28.9127ZM230.636 28.9127C230.636 28.109 230.506 27.3104 230.245 26.5171C229.994 25.7134 229.54 24.9931 228.882 24.3564C228.235 23.7197 227.348 23.203 226.221 22.8063C225.093 22.4096 223.658 22.2113 221.915 22.2113C220.746 22.2113 219.718 22.3053 218.83 22.4932C217.943 22.6706 217.176 22.9211 216.529 23.2447C215.881 23.5683 215.339 23.9493 214.9 24.3877C214.462 24.8157 214.112 25.2802 213.851 25.7812C213.59 26.2718 213.402 26.7885 213.288 27.3313C213.183 27.8637 213.131 28.3908 213.131 28.9127C213.131 29.4451 213.183 29.9826 213.288 30.5254C213.402 31.0682 213.59 31.5901 213.851 32.0912C214.112 32.5818 214.462 33.041 214.9 33.469C215.339 33.897 215.881 34.2728 216.529 34.5963C217.176 34.9095 217.943 35.16 218.83 35.3479C219.718 35.5253 220.746 35.6141 221.915 35.6141C223.658 35.6141 225.093 35.4158 226.221 35.0191C227.348 34.6224 228.235 34.1057 228.882 33.469C229.54 32.8323 229.994 32.1173 230.245 31.3239C230.506 30.5202 230.636 29.7164 230.636 28.9127Z" fill="white"/>
<path d="M262.546 18.1404L268.042 33.0776L273.991 18.1404H280.02L271.377 39.6537H264.926L259.305 25.1862L253.699 39.6537H247.249L238.59 18.1404H244.634L250.458 32.7644L256.079 18.1404H262.546Z" fill="white"/>
</g>
<defs>
<filter id="filter0_d_1381_13" x="16.8358" y="16.4658" width="543.464" height="32.3747" filterUnits="userSpaceOnUse" color-interpolation-filters="sRGB">
<feFlood flood-opacity="0" result="BackgroundImageFix"/>
<feColorMatrix in="SourceAlpha" type="matrix" values="0 0 0 0 0 0 0 0 0 0 0 0 0 0 0 0 0 0 127 0" result="hardAlpha"/>
<feOffset dy="4.30383"/>
<feGaussianBlur stdDeviation="2.15191"/>
<feComposite in2="hardAlpha" operator="out"/>
<feColorMatrix type="matrix" values="0 0 0 0 0 0 0 0 0 0 0 0 0 0 0 0 0 0 0.25 0"/>
<feBlend mode="normal" in2="BackgroundImageFix" result="effect1_dropShadow_1381_13"/>
<feBlend mode="normal" in="SourceGraphic" in2="effect1_dropShadow_1381_13" result="shape"/>
</filter>
</defs>
</svg>
