<svg width="586" height="67" viewBox="0 0 586 67" fill="none" xmlns="http://www.w3.org/2000/svg">
<g filter="url(#filter0_d_1381_12)">
<rect x="4" width="577.136" height="58.2512" rx="10" fill="#FDFDFD"/>
<g filter="url(#filter1_d_1381_12)">
<path d="M321.612 34.4562H309.619L307.599 38.5271H301.117L312.374 17.0138H318.857L330.114 38.5271H323.632L321.612 34.4562ZM311.701 30.26H319.561L315.647 22.3374L311.701 30.26Z" fill="#F55E2F"/>
<path d="M357.812 24.3572C357.812 25.4323 357.656 26.4239 357.343 27.3321C357.029 28.2298 356.523 29.0074 355.824 29.665C355.135 30.3122 354.237 30.8185 353.131 31.1838C352.024 31.5491 350.678 31.7318 349.091 31.7318H339.446V38.5271H333.637V17.0138H349.091C350.678 17.0138 352.024 17.1965 353.131 17.5618C354.237 17.9167 355.135 18.423 355.824 19.0806C356.523 19.7278 357.029 20.5002 357.343 21.3979C357.656 22.2956 357.812 23.282 357.812 24.3572ZM351.941 24.4511C351.941 23.9501 351.868 23.5221 351.722 23.1672C351.586 22.8019 351.356 22.5044 351.033 22.2747C350.709 22.0451 350.286 21.8781 349.764 21.7737C349.242 21.6589 348.6 21.6015 347.839 21.6015H339.446V27.1442H347.839C348.6 27.1442 349.242 27.1024 349.764 27.0189C350.286 26.925 350.709 26.7736 351.033 26.5649C351.356 26.3457 351.586 26.0638 351.722 25.7194C351.868 25.3749 351.941 24.9521 351.941 24.4511Z" fill="#F55E2F"/>
<path d="M386.81 24.3572C386.81 25.4323 386.653 26.4239 386.34 27.3321C386.027 28.2298 385.521 29.0074 384.821 29.665C384.132 30.3122 383.235 30.8185 382.128 31.1838C381.022 31.5491 379.675 31.7318 378.089 31.7318H368.444V38.5271H362.635V17.0138H378.089C379.675 17.0138 381.022 17.1965 382.128 17.5618C383.235 17.9167 384.132 18.423 384.821 19.0806C385.521 19.7278 386.027 20.5002 386.34 21.3979C386.653 22.2956 386.81 23.282 386.81 24.3572ZM380.938 24.4511C380.938 23.9501 380.865 23.5221 380.719 23.1672C380.583 22.8019 380.354 22.5044 380.03 22.2747C379.707 22.0451 379.284 21.8781 378.762 21.7737C378.24 21.6589 377.598 21.6015 376.836 21.6015H368.444V27.1442H376.836C377.598 27.1442 378.24 27.1024 378.762 27.0189C379.284 26.925 379.707 26.7736 380.03 26.5649C380.354 26.3457 380.583 26.0638 380.719 25.7194C380.865 25.3749 380.938 24.9521 380.938 24.4511Z" fill="#F55E2F"/>
<path d="M391.632 38.5271V17.0138H397.441V33.8142H413.146V38.5271H391.632Z" fill="#F55E2F"/>
<path d="M428.803 29.7433V38.5271H423.01V29.7433L412.582 17.0138H419.095L425.922 25.6724L432.717 17.0138H439.231L428.803 29.7433Z" fill="#F55E2F"/>
<path d="M475.619 38.5271L461.104 23.7465V38.5271H455.295V17.0138H461.605L476.135 31.8571V17.0138H481.913V38.5271H475.619Z" fill="#F55E2F"/>
<path d="M516.485 27.7861C516.485 29.6337 516.145 31.2673 515.467 32.6869C514.788 34.0961 513.818 35.2756 512.555 36.2255C511.292 37.1754 509.757 37.8956 507.951 38.3862C506.156 38.8664 504.136 39.1065 501.892 39.1065C499.648 39.1065 497.617 38.8664 495.801 38.3862C493.995 37.8956 492.456 37.1754 491.182 36.2255C489.909 35.2756 488.928 34.0961 488.239 32.6869C487.55 31.2673 487.205 29.6337 487.205 27.7861C487.205 25.9386 487.55 24.3102 488.239 22.901C488.928 21.4814 489.909 20.2967 491.182 19.3468C492.456 18.3969 493.995 17.6819 495.801 17.2017C497.617 16.7111 499.648 16.4658 501.892 16.4658C504.136 16.4658 506.156 16.7111 507.951 17.2017C509.757 17.6819 511.292 18.3969 512.555 19.3468C513.818 20.2967 514.788 21.4814 515.467 22.901C516.145 24.3102 516.485 25.9386 516.485 27.7861ZM510.613 27.7861C510.613 26.9824 510.483 26.1839 510.222 25.3906C509.971 24.5868 509.517 23.8666 508.859 23.2298C508.212 22.5931 507.325 22.0764 506.198 21.6797C505.07 21.2831 503.635 21.0848 501.892 21.0848C500.723 21.0848 499.695 21.1787 498.807 21.3666C497.92 21.544 497.153 21.7946 496.506 22.1182C495.859 22.4417 495.316 22.8227 494.877 23.2611C494.439 23.6891 494.089 24.1536 493.828 24.6547C493.567 25.1453 493.379 25.662 493.265 26.2047C493.16 26.7371 493.108 27.2642 493.108 27.7861C493.108 28.3185 493.16 28.8561 493.265 29.3989C493.379 29.9416 493.567 30.4636 493.828 30.9646C494.089 31.4552 494.439 31.9145 494.877 32.3424C495.316 32.7704 495.859 33.1462 496.506 33.4698C497.153 33.7829 497.92 34.0335 498.807 34.2213C499.695 34.3988 500.723 34.4875 501.892 34.4875C503.635 34.4875 505.07 34.2892 506.198 33.8925C507.325 33.4959 508.212 32.9792 508.859 32.3424C509.517 31.7057 509.971 30.9907 510.222 30.1974C510.483 29.3936 510.613 28.5899 510.613 27.7861Z" fill="#F55E2F"/>
<path d="M542.523 17.0138L548.019 31.951L553.969 17.0138H559.997L551.354 38.5271H544.903L539.282 24.0597L533.677 38.5271H527.226L518.567 17.0138H524.611L530.435 31.6379L536.056 17.0138H542.523Z" fill="#F55E2F"/>
<path d="M45.6352 35.5828H33.6416L31.6218 39.6537H25.1396L36.3973 18.1404H42.8795L54.1372 39.6537H47.655L45.6352 35.5828ZM35.7241 31.3866H43.5841L39.6697 23.4639L35.7241 31.3866Z" fill="#F55E2F"/>
<path d="M81.8352 25.4837C81.8352 26.5589 81.6786 27.5505 81.3655 28.4586C81.0523 29.3563 80.5461 30.134 79.8467 30.7916C79.1578 31.4388 78.2601 31.945 77.1536 32.3104C76.0472 32.6757 74.7006 32.8584 73.114 32.8584H63.469V39.6537H57.6601V18.1404H73.114C74.7006 18.1404 76.0472 18.3231 77.1536 18.6884C78.2601 19.0433 79.1578 19.5496 79.8467 20.2072C80.5461 20.8543 81.0523 21.6268 81.3655 22.5245C81.6786 23.4222 81.8352 24.4086 81.8352 25.4837ZM75.9636 25.5777C75.9636 25.0766 75.8906 24.6487 75.7444 24.2938C75.6087 23.9284 75.3791 23.6309 75.0555 23.4013C74.7319 23.1716 74.3092 23.0046 73.7873 22.9002C73.2654 22.7854 72.6234 22.728 71.8614 22.728H63.469V28.2707H71.8614C72.6234 28.2707 73.2654 28.229 73.7873 28.1455C74.3092 28.0515 74.7319 27.9002 75.0555 27.6914C75.3791 27.4722 75.6087 27.1904 75.7444 26.8459C75.8906 26.5015 75.9636 26.0787 75.9636 25.5777Z" fill="#F55E2F"/>
<path d="M110.833 25.4837C110.833 26.5589 110.676 27.5505 110.363 28.4586C110.05 29.3563 109.544 30.134 108.844 30.7916C108.155 31.4388 107.258 31.945 106.151 32.3104C105.045 32.6757 103.698 32.8584 102.112 32.8584H92.4666V39.6537H86.6577V18.1404H102.112C103.698 18.1404 105.045 18.3231 106.151 18.6884C107.258 19.0433 108.155 19.5496 108.844 20.2072C109.544 20.8543 110.05 21.6268 110.363 22.5245C110.676 23.4222 110.833 24.4086 110.833 25.4837ZM104.961 25.5777C104.961 25.0766 104.888 24.6487 104.742 24.2938C104.606 23.9284 104.377 23.6309 104.053 23.4013C103.729 23.1716 103.307 23.0046 102.785 22.9002C102.263 22.7854 101.621 22.728 100.859 22.728H92.4666V28.2707H100.859C101.621 28.2707 102.263 28.229 102.785 28.1455C103.307 28.0515 103.729 27.9002 104.053 27.6914C104.377 27.4722 104.606 27.1904 104.742 26.8459C104.888 26.5015 104.961 26.0787 104.961 25.5777Z" fill="#F55E2F"/>
<path d="M115.655 39.6537V18.1404H121.464V34.9408H137.169V39.6537H115.655Z" fill="#F55E2F"/>
<path d="M152.826 30.8699V39.6537H147.033V30.8699L136.605 18.1404H143.118L149.945 26.7989L156.74 18.1404H163.254L152.826 30.8699Z" fill="#F55E2F"/>
<path d="M199.642 39.6537L185.127 24.8731V39.6537H179.318V18.1404H185.628L200.158 32.9836V18.1404H205.936V39.6537H199.642Z" fill="#F55E2F"/>
<path d="M240.508 28.9127C240.508 30.7603 240.168 32.3939 239.49 33.8135C238.811 35.2226 237.841 36.4022 236.578 37.3521C235.314 38.3019 233.78 39.0222 231.974 39.5128C230.179 39.9929 228.159 40.233 225.915 40.233C223.671 40.233 221.64 39.9929 219.824 39.5128C218.018 39.0222 216.479 38.3019 215.205 37.3521C213.932 36.4022 212.95 35.2226 212.262 33.8135C211.573 32.3939 211.228 30.7603 211.228 28.9127C211.228 27.0651 211.573 25.4368 212.262 24.0276C212.95 22.608 213.932 21.4232 215.205 20.4733C216.479 19.5235 218.018 18.8084 219.824 18.3283C221.64 17.8377 223.671 17.5924 225.915 17.5924C228.159 17.5924 230.179 17.8377 231.974 18.3283C233.78 18.8084 235.314 19.5235 236.578 20.4733C237.841 21.4232 238.811 22.608 239.49 24.0276C240.168 25.4368 240.508 27.0651 240.508 28.9127ZM234.636 28.9127C234.636 28.109 234.506 27.3104 234.245 26.5171C233.994 25.7134 233.54 24.9931 232.882 24.3564C232.235 23.7197 231.348 23.203 230.221 22.8063C229.093 22.4096 227.658 22.2113 225.915 22.2113C224.746 22.2113 223.718 22.3053 222.83 22.4932C221.943 22.6706 221.176 22.9211 220.529 23.2447C219.881 23.5683 219.339 23.9493 218.9 24.3877C218.462 24.8157 218.112 25.2802 217.851 25.7812C217.59 26.2718 217.402 26.7885 217.288 27.3313C217.183 27.8637 217.131 28.3908 217.131 28.9127C217.131 29.4451 217.183 29.9826 217.288 30.5254C217.402 31.0682 217.59 31.5901 217.851 32.0912C218.112 32.5818 218.462 33.041 218.9 33.469C219.339 33.897 219.881 34.2728 220.529 34.5963C221.176 34.9095 221.943 35.16 222.83 35.3479C223.718 35.5253 224.746 35.6141 225.915 35.6141C227.658 35.6141 229.093 35.4158 230.221 35.0191C231.348 34.6224 232.235 34.1057 232.882 33.469C233.54 32.8323 233.994 32.1173 234.245 31.3239C234.506 30.5202 234.636 29.7164 234.636 28.9127Z" fill="#F55E2F"/>
<path d="M266.546 18.1404L272.042 33.0776L277.991 18.1404H284.02L275.377 39.6537H268.926L263.305 25.1862L257.699 39.6537H251.249L242.59 18.1404H248.634L254.458 32.7644L260.079 18.1404H266.546Z" fill="#F55E2F"/>
</g>
</g>
<defs>
<filter id="filter0_d_1381_12" x="0" y="0" width="585.136" height="66.251" filterUnits="userSpaceOnUse" color-interpolation-filters="sRGB">
<feFlood flood-opacity="0" result="BackgroundImageFix"/>
<feColorMatrix in="SourceAlpha" type="matrix" values="0 0 0 0 0 0 0 0 0 0 0 0 0 0 0 0 0 0 127 0" result="hardAlpha"/>
<feOffset dy="4"/>
<feGaussianBlur stdDeviation="2"/>
<feComposite in2="hardAlpha" operator="out"/>
<feColorMatrix type="matrix" values="0 0 0 0 0 0 0 0 0 0 0 0 0 0 0 0 0 0 0.25 0"/>
<feBlend mode="normal" in2="BackgroundImageFix" result="effect1_dropShadow_1381_12"/>
<feBlend mode="normal" in="SourceGraphic" in2="effect1_dropShadow_1381_12" result="shape"/>
</filter>
<filter id="filter1_d_1381_12" x="20.8358" y="16.4658" width="543.464" height="32.3747" filterUnits="userSpaceOnUse" color-interpolation-filters="sRGB">
<feFlood flood-opacity="0" result="BackgroundImageFix"/>
<feColorMatrix in="SourceAlpha" type="matrix" values="0 0 0 0 0 0 0 0 0 0 0 0 0 0 0 0 0 0 127 0" result="hardAlpha"/>
<feOffset dy="4.30383"/>
<feGaussianBlur stdDeviation="2.15191"/>
<feComposite in2="hardAlpha" operator="out"/>
<feColorMatrix type="matrix" values="0 0 0 0 0 0 0 0 0 0 0 0 0 0 0 0 0 0 0.25 0"/>
<feBlend mode="normal" in2="BackgroundImageFix" result="effect1_dropShadow_1381_12"/>
<feBlend mode="normal" in="SourceGraphic" in2="effect1_dropShadow_1381_12" result="shape"/>
</filter>
</defs>
</svg>
