<svg width="381" height="225" viewBox="0 0 381 225" fill="none" xmlns="http://www.w3.org/2000/svg">
<rect x="65" y="11.0002" width="229" height="97" rx="30" fill="#356A69"/>
<path d="M182.742 84.2849C208.427 80.2989 231.364 74.0137 247.692 67.055C255.849 63.5788 262.411 59.9119 266.843 56.2431C271.22 52.6198 273.793 48.7613 273.29 44.9164C272.788 41.0715 269.329 38.1488 264.198 36.0013C259.002 33.8267 251.762 32.3016 243.039 31.445C225.578 29.7301 201.942 30.6727 176.257 34.6587C150.573 38.6446 127.635 44.9299 111.307 51.8885C103.15 55.3648 96.589 59.0316 92.1565 62.7005C87.7791 66.3237 85.2069 70.1822 85.7093 74.0272C86.2118 77.8721 89.67 80.7947 94.8015 82.9423C99.9975 85.1169 107.237 86.6419 115.96 87.4986C133.422 89.2134 157.058 88.2709 182.742 84.2849Z" stroke="#FBF2E6" stroke-width="2"/>
<path d="M102.416 42.6539C102.496 42.0406 102.882 41.7073 103.576 41.6539C104.829 41.5473 106.656 41.4939 109.056 41.4939C111.509 41.4939 113.176 41.5473 114.056 41.6539C115.042 41.7873 115.656 42.3606 115.896 43.3739C116.269 45.4273 116.629 47.2006 116.976 48.6939C117.562 51.1473 118.242 52.3739 119.016 52.3739C119.736 52.3739 120.349 51.2539 120.856 49.0139C121.042 48.2139 121.269 47.1473 121.536 45.8139C121.829 44.4806 122.016 43.6673 122.096 43.3739C122.336 42.3606 122.936 41.7873 123.896 41.6539C124.776 41.5473 126.456 41.4939 128.936 41.4939C131.149 41.4939 132.962 41.5473 134.376 41.6539C135.042 41.7073 135.442 42.0406 135.576 42.6539C137.069 52.2006 137.909 60.7739 138.096 68.3739C138.096 68.4006 138.096 68.4406 138.096 68.4939C138.096 68.7873 137.989 69.0406 137.776 69.2539C137.562 69.4673 137.282 69.6006 136.936 69.6539C136.056 69.7606 134.362 69.8139 131.856 69.8139C128.949 69.8139 127.042 69.7606 126.136 69.6539C125.416 69.5473 125.056 69.1606 125.056 68.4939C125.056 68.4406 125.056 68.3739 125.056 68.2939C125.429 65.3606 125.616 62.7206 125.616 60.3739C125.616 57.3873 125.229 55.8939 124.456 55.8939C124.029 55.8939 123.682 56.2273 123.416 56.8939C123.176 57.5606 122.869 58.6673 122.496 60.2139C122.122 62.1873 121.909 63.3339 121.856 63.6539C121.402 65.6539 120.429 66.6539 118.936 66.6539C117.576 66.6539 116.642 65.6539 116.136 63.6539C115.736 61.6806 115.482 60.4539 115.376 59.9739C115.082 58.6673 114.789 57.6939 114.496 57.0539C114.229 56.4139 113.896 56.0939 113.496 56.0939C113.149 56.0939 112.869 56.4806 112.656 57.2539C112.469 58.0006 112.376 58.9739 112.376 60.1739C112.376 60.3073 112.376 60.4539 112.376 60.6139C112.376 62.0539 112.549 64.6139 112.896 68.2939C112.896 68.3739 112.896 68.4406 112.896 68.4939C112.896 69.1606 112.549 69.5473 111.856 69.6539C110.949 69.7606 109.056 69.8139 106.176 69.8139C103.642 69.8139 101.936 69.7606 101.056 69.6539C100.709 69.6006 100.416 69.4673 100.176 69.2539C99.9623 69.0139 99.8556 68.7206 99.8556 68.3739C100.042 60.9873 100.896 52.4139 102.416 42.6539ZM138.717 68.3339C139.251 63.8539 140.211 59.2006 141.597 54.3739C142.984 49.5473 144.397 45.5339 145.837 42.3339C145.997 41.9339 146.317 41.7073 146.797 41.6539C148.024 41.5473 150.504 41.4939 154.237 41.4939C157.997 41.4939 160.504 41.5473 161.757 41.6539C162.237 41.7073 162.557 41.9339 162.717 42.3339C164.131 45.5073 165.531 49.5206 166.917 54.3739C168.331 59.2006 169.304 63.8539 169.837 68.3339C169.837 68.3873 169.837 68.4539 169.837 68.5339C169.837 68.7739 169.744 69.0139 169.557 69.2539C169.371 69.4673 169.117 69.6006 168.797 69.6539C167.491 69.7606 165.611 69.8139 163.157 69.8139C160.837 69.8139 159.077 69.7606 157.877 69.6539C157.531 69.6006 157.251 69.4673 157.037 69.2539C156.824 69.0139 156.717 68.7473 156.717 68.4539C156.717 68.4006 156.717 68.3339 156.717 68.2539C156.824 67.1873 156.891 66.2139 156.917 65.3339C156.891 65.0406 156.877 64.7606 156.877 64.4939C156.851 63.0273 156.024 62.2939 154.397 62.2939H154.157C153.491 62.2939 152.904 62.4806 152.397 62.8539C151.917 63.2006 151.664 63.7473 151.637 64.4939C151.637 66.0139 151.704 67.2806 151.837 68.2939C151.837 68.3206 151.837 68.3606 151.837 68.4139C151.837 68.7339 151.731 69.0139 151.517 69.2539C151.304 69.4673 151.024 69.6006 150.677 69.6539C149.397 69.7606 147.504 69.8139 144.997 69.8139C143.344 69.8139 141.611 69.7606 139.797 69.6539C139.451 69.6273 139.184 69.5073 138.997 69.2939C138.811 69.0539 138.717 68.8006 138.717 68.5339C138.717 68.4806 138.717 68.4139 138.717 68.3339ZM153.117 57.6539C153.357 57.8939 153.704 58.0139 154.157 58.0139H154.437C154.891 58.0139 155.211 57.9073 155.397 57.6939C155.611 57.4806 155.717 57.2406 155.717 56.9739C155.717 56.8939 155.704 56.8006 155.677 56.6939C155.517 54.8006 155.211 52.8006 154.757 50.6939C154.651 50.1339 154.491 49.8539 154.277 49.8539C154.064 49.8539 153.891 50.1339 153.757 50.6939C153.331 53.0406 153.037 55.0406 152.877 56.6939C152.851 56.8006 152.837 56.8939 152.837 56.9739C152.837 57.2406 152.931 57.4673 153.117 57.6539ZM170.681 68.4539C170.681 59.0939 171.081 50.5206 171.881 42.7339C171.907 42.4673 172.027 42.2273 172.241 42.0139C172.454 41.8006 172.707 41.6806 173.001 41.6539C175.134 41.5473 179.881 41.4939 187.241 41.4939C190.761 41.4939 193.454 42.0273 195.321 43.0939C197.214 44.1339 198.161 45.6806 198.161 47.7339C198.161 49.7606 197.321 51.4806 195.641 52.8939C193.961 54.3073 191.761 55.2273 189.041 55.6539C188.774 55.6806 188.601 55.7473 188.521 55.8539C188.441 55.9606 188.401 56.0539 188.401 56.1339C188.401 56.1873 188.441 56.2673 188.521 56.3739C188.627 56.4806 188.814 56.5473 189.081 56.5739C191.987 56.8139 194.454 57.9206 196.481 59.8939C198.534 61.8673 199.747 64.6539 200.121 68.2539C200.121 68.3073 200.121 68.3739 200.121 68.4539C200.121 68.7206 200.014 68.9739 199.801 69.2139C199.587 69.4539 199.294 69.6006 198.921 69.6539C197.614 69.7606 195.667 69.8139 193.081 69.8139C190.414 69.8139 188.494 69.7606 187.321 69.6539C186.521 69.5473 186.121 69.1473 186.121 68.4539C186.121 66.1606 185.921 64.0939 185.521 62.2539C185.147 60.4139 184.614 59.2006 183.921 58.6139C183.841 58.5606 183.774 58.5339 183.721 58.5339C183.561 58.5339 183.414 58.6539 183.281 58.8939C183.147 59.1339 183.067 59.5339 183.041 60.0939C183.041 60.3339 183.041 60.5873 183.041 60.8539C183.041 62.6673 183.281 65.1473 183.761 68.2939C183.787 68.3739 183.801 68.4539 183.801 68.5339C183.801 68.7473 183.694 68.9739 183.481 69.2139C183.267 69.4539 182.974 69.6006 182.601 69.6539C181.214 69.7606 179.267 69.8139 176.761 69.8139C174.681 69.8139 173.054 69.7606 171.881 69.6539C171.561 69.6006 171.281 69.4673 171.041 69.2539C170.801 69.0406 170.681 68.7739 170.681 68.4539ZM183.281 51.7739V54.6139C183.281 55.0406 183.427 55.2539 183.721 55.2539C183.827 55.2539 183.961 55.2139 184.121 55.1339C185.481 54.5739 186.161 53.6939 186.161 52.4939C186.161 51.9606 185.974 51.5473 185.601 51.2539C185.254 50.9606 184.774 50.8139 184.161 50.8139H184.041C183.534 50.8139 183.281 51.1339 183.281 51.7739ZM203.713 45.5739C206.779 42.7473 210.833 41.3339 215.873 41.3339C219.499 41.3339 222.446 41.8939 224.713 43.0139C225.139 43.2806 225.353 43.6406 225.353 44.0939C225.353 44.2006 225.339 44.3206 225.313 44.4539C225.206 45.2006 225.033 46.4539 224.793 48.2139C224.579 49.9739 224.419 51.2273 224.313 51.9739C224.259 52.4539 224.126 52.7339 223.913 52.8139C223.726 52.8673 223.593 52.8939 223.513 52.8939C223.273 52.8939 223.019 52.7873 222.753 52.5739C220.886 51.2673 218.886 50.6139 216.753 50.6139C213.393 50.6139 211.713 52.4139 211.713 56.0139C211.713 57.1873 212.193 58.1206 213.153 58.8139C214.139 59.4806 215.526 59.8139 217.313 59.8139C220.539 59.8139 223.526 58.7606 226.273 56.6539C226.459 56.4406 226.673 56.3339 226.913 56.3339C227.019 56.3339 227.193 56.3873 227.433 56.4939C227.699 56.5739 227.846 56.9073 227.873 57.4939C227.926 58.4273 227.979 59.4273 228.033 60.4939C228.086 61.5606 228.139 62.7206 228.193 63.9739C228.273 65.2273 228.326 66.2139 228.353 66.9339C228.353 67.4939 228.099 67.8939 227.593 68.1339C226.206 68.5873 224.379 69.0139 222.113 69.4139C219.873 69.7873 217.699 69.9739 215.593 69.9739C213.059 69.9739 210.819 69.7473 208.873 69.2939C206.926 68.8406 205.193 68.1206 203.673 67.1339C202.179 66.1206 201.033 64.7473 200.233 63.0139C199.459 61.2806 199.073 59.2139 199.073 56.8139C199.073 52.1473 200.619 48.4006 203.713 45.5739ZM229.587 68.4539C229.587 57.4939 229.987 48.9206 230.787 42.7339C230.867 42.1206 231.307 41.7606 232.107 41.6539C233.2 41.5473 234.627 41.4939 236.387 41.4939C238.734 41.4939 240.48 41.5473 241.627 41.6539C242.054 41.7073 242.374 41.8539 242.587 42.0939C242.8 42.3339 242.907 42.5873 242.907 42.8539C242.907 42.9339 242.894 43.0273 242.867 43.1339C242.52 45.9339 242.334 48.3873 242.307 50.4939C242.307 51.1073 242.494 51.5873 242.867 51.9339C243.24 52.2806 243.707 52.4539 244.267 52.4539H244.467C245.027 52.4539 245.48 52.2806 245.827 51.9339C246.174 51.5873 246.347 51.1073 246.347 50.4939C246.32 49.4806 246.147 47.0273 245.827 43.1339C245.827 43.0539 245.827 42.9873 245.827 42.9339C245.827 42.2139 246.227 41.7873 247.027 41.6539C248.2 41.5473 249.96 41.4939 252.307 41.4939C254.094 41.4939 255.52 41.5473 256.587 41.6539C257.36 41.7606 257.787 42.1206 257.867 42.7339C258.667 48.6273 259.067 57.2006 259.067 68.4539C259.067 68.7739 258.934 69.0406 258.667 69.2539C258.427 69.4673 258.12 69.6006 257.747 69.6539C256.6 69.7606 254.894 69.8139 252.627 69.8139C250.12 69.8139 248.267 69.7606 247.067 69.6539C246.24 69.5473 245.827 69.1473 245.827 68.4539C245.827 68.3739 245.827 68.2939 245.827 68.2139C246.174 64.0539 246.347 61.6539 246.347 61.0139C246.347 60.3739 246.174 59.8673 245.827 59.4939C245.48 59.0939 245.027 58.8939 244.467 58.8939H244.267C243.707 58.8939 243.254 59.0939 242.907 59.4939C242.56 59.8939 242.387 60.4006 242.387 61.0139C242.387 61.9739 242.547 64.3739 242.867 68.2139C242.867 68.2939 242.867 68.3606 242.867 68.4139C242.867 68.7606 242.747 69.0406 242.507 69.2539C242.294 69.4673 242 69.6006 241.627 69.6539C240.427 69.7606 238.56 69.8139 236.027 69.8139C233.787 69.8139 232.08 69.7606 230.907 69.6539C230.534 69.6006 230.214 69.4673 229.947 69.2539C229.707 69.0406 229.587 68.7739 229.587 68.4539Z" fill="#FFA8A6"/>
<path d="M260.205 48.1254C260.429 46.6789 260.541 45.9556 260.738 45.8346C260.898 45.7354 261.102 45.7354 261.262 45.8346C261.459 45.9556 261.571 46.6789 261.795 48.1254L263.711 60.4687C263.741 60.6627 263.756 60.7597 263.801 60.8388C263.839 60.9058 263.891 60.9631 263.955 61.0065C264.03 61.0576 264.125 61.0808 264.316 61.1273L268.791 62.2179C269.741 62.4494 270.216 62.5651 270.322 62.7518C270.41 62.9056 270.41 63.0944 270.322 63.2482C270.216 63.4349 269.741 63.5506 268.791 63.7821L264.316 64.8727C264.125 64.9192 264.03 64.9424 263.955 64.9936C263.891 65.0369 263.839 65.0942 263.801 65.1612C263.756 65.2403 263.741 65.3373 263.711 65.5313L261.795 77.8746C261.571 79.3211 261.459 80.0444 261.262 80.1654C261.102 80.2646 260.898 80.2646 260.738 80.1654C260.541 80.0444 260.429 79.3211 260.205 77.8746L258.289 65.5313C258.259 65.3373 258.244 65.2403 258.199 65.1612C258.161 65.0942 258.109 65.0369 258.045 64.9936C257.97 64.9424 257.875 64.9192 257.684 64.8727L253.209 63.7821C252.259 63.5506 251.784 63.4349 251.678 63.2482C251.59 63.0944 251.59 62.9056 251.678 62.7518C251.784 62.5651 252.259 62.4494 253.209 62.2179L257.684 61.1273C257.875 61.0808 257.97 61.0576 258.045 61.0065C258.109 60.9631 258.161 60.9058 258.199 60.8388C258.244 60.7597 258.259 60.6627 258.289 60.4687L260.205 48.1254Z" fill="#FBF2E6"/>
<path d="M100.043 45.1301C100.268 43.6823 100.38 42.9585 100.576 42.8374C100.737 42.7382 100.94 42.7382 101.101 42.8374C101.297 42.9585 101.41 43.6823 101.634 45.1301L102.747 52.3069C102.777 52.5009 102.792 52.5979 102.837 52.677C102.874 52.744 102.927 52.8014 102.991 52.8447C103.066 52.8959 103.161 52.9191 103.352 52.9657L105.471 53.4826C106.42 53.7141 106.895 53.8299 107.001 54.0166C107.089 54.1703 107.089 54.3591 107.001 54.5128C106.895 54.6995 106.42 54.8153 105.471 55.0468L103.352 55.5638C103.161 55.6103 103.066 55.6336 102.991 55.6847C102.927 55.728 102.874 55.7854 102.837 55.8524C102.792 55.9315 102.777 56.0285 102.747 56.2225L101.634 63.3994C101.41 64.8471 101.297 65.5709 101.101 65.692C100.94 65.7912 100.737 65.7912 100.576 65.692C100.38 65.5709 100.268 64.8471 100.043 63.3994L98.9303 56.2225C98.9002 56.0285 98.8851 55.9315 98.8406 55.8524C98.8028 55.7854 98.7502 55.728 98.6866 55.6847C98.6116 55.6336 98.5163 55.6103 98.3255 55.5638L96.2061 55.0468C95.257 54.8153 94.7825 54.6995 94.6758 54.5128C94.5879 54.3591 94.5879 54.1703 94.6758 54.0166C94.7825 53.8299 95.257 53.7141 96.2061 53.4826L98.3255 52.9657C98.5163 52.9191 98.6116 52.8959 98.6866 52.8447C98.7502 52.8014 98.8028 52.744 98.8406 52.677C98.8851 52.5979 98.9002 52.5009 98.9303 52.3069L100.043 45.1301Z" fill="#FBF2E6"/>
<path d="M105.364 66.077C105.588 64.6429 105.701 63.9259 105.897 63.8051C106.058 63.7061 106.26 63.7061 106.421 63.8051C106.617 63.9259 106.73 64.6429 106.954 66.077L107.64 70.4537C107.67 70.6478 107.685 70.7448 107.73 70.8239C107.768 70.8909 107.821 70.9482 107.885 70.9914C107.96 71.0424 108.055 71.0655 108.246 71.1116L109.077 71.3123C110.035 71.5436 110.514 71.6593 110.622 71.8462C110.71 72.0002 110.71 72.1893 110.622 72.3433C110.514 72.5302 110.035 72.6459 109.077 72.8773L108.246 73.0779C108.055 73.1241 107.96 73.1471 107.885 73.1981C107.821 73.2414 107.768 73.2987 107.73 73.3656C107.685 73.4447 107.67 73.5418 107.64 73.7359L106.954 78.1125C106.73 79.5466 106.617 80.2637 106.421 80.3845C106.26 80.4835 106.058 80.4835 105.897 80.3845C105.701 80.2637 105.588 79.5466 105.364 78.1125L104.678 73.7359C104.648 73.5418 104.632 73.4447 104.588 73.3656C104.55 73.2987 104.497 73.2414 104.433 73.1981C104.358 73.1471 104.263 73.1241 104.072 73.0779L103.241 72.8773C102.283 72.6459 101.803 72.5302 101.696 72.3433C101.608 72.1893 101.608 72.0002 101.696 71.8462C101.803 71.6593 102.283 71.5436 103.241 71.3123L104.072 71.1116C104.263 71.0655 104.358 71.0424 104.433 70.9914C104.497 70.9482 104.55 70.8909 104.588 70.8239C104.632 70.7448 104.648 70.6478 104.678 70.4537L105.364 66.077Z" fill="#FBF2E6"/>
<rect x="198.026" y="94.2126" width="146.243" height="36.1345" rx="7" transform="rotate(-3.54869 198.026 94.2126)" fill="#FCA71F" fill-opacity="0.85"/>
<path d="M206.7 99.1395C208.295 97.3328 207.042 93.6535 216.059 93.0943L204.491 93.8117C202.96 93.9067 198.111 95.5736 198.427 100.677L198.817 106.972C198.672 99.125 205.104 100.946 206.7 99.1395Z" fill="#FED269"/>
<path d="M223.072 104.149L220.562 114.854L217.073 104.539L214.019 104.728L211.832 115.414L208.018 105.1L204.964 105.29L210.357 119.545L213.806 119.331L215.875 109.951L219.088 119.004L222.537 118.79L226.126 103.959L223.072 104.149ZM229.826 103.748L226.843 103.933L227.745 118.467L230.727 118.282L229.826 103.748ZM241.589 103.018L242.198 112.827L234.457 103.461L231.493 103.644L232.394 118.178L235.358 117.995L234.835 108.108L242.491 117.552L245.473 117.367L244.572 102.833L241.589 103.018ZM245.547 102.773L245.727 105.683L250.794 105.369L251.514 116.993L254.73 116.793L254.009 105.17L259.076 104.855L258.895 101.945L245.547 102.773ZM259.88 101.884L260.781 116.418L271.165 115.774L270.986 112.882L263.745 113.331L263.545 110.097L269.582 109.74L269.403 106.848L263.364 107.186L263.204 104.599L270.444 104.15L270.264 101.24L259.88 101.884ZM281.508 109.56C283.175 108.807 284.159 106.943 284.045 105.092C283.895 102.685 281.814 100.524 278.652 100.72L271.933 101.136L272.834 115.671L276.05 115.471L275.725 110.243C275.725 110.243 276.085 110.221 278.384 110.078L281.583 115.128L285.284 114.898L281.508 109.56ZM275.551 107.423L275.323 103.758L279.078 103.525C280.192 103.456 281.154 104.135 281.224 105.267C281.293 106.381 280.419 107.121 279.305 107.19L275.551 107.423ZM297.637 108.524C299.885 107.843 301.617 106.401 301.45 103.706C301.274 100.868 299.868 99.1335 296.221 99.3596C292.88 99.5669 291.309 101.576 291.479 104.325L291.496 104.594L294.676 104.397L294.659 104.127C294.59 103.014 295.331 102.156 296.714 102.07C297.63 102.014 298.43 102.703 298.487 103.62C298.551 104.644 298.413 105.626 296.712 106.11C294.409 106.776 292.107 108.343 292.307 111.559C292.409 113.212 292.367 112.529 292.504 114.451L302.277 113.845L302.098 110.952L295.163 111.382C295.062 109.747 295.867 109.066 297.637 108.524ZM308.441 98.5658C304.668 98.7997 302.369 101.864 302.658 106.517C302.96 111.386 305.802 113.896 309.378 113.675C313.025 113.449 315.461 110.574 315.162 105.742C314.871 101.053 312.303 98.3262 308.441 98.5658ZM309.183 110.531C307.278 110.649 306.088 108.901 305.927 106.314C305.746 103.386 306.498 101.842 308.636 101.71C310.594 101.588 311.728 103.303 311.892 105.944C312.055 108.567 310.979 110.419 309.183 110.531ZM321.954 107.016C324.202 106.335 325.934 104.893 325.767 102.198C325.591 99.3598 324.185 97.6255 320.538 97.8516C317.196 98.0589 315.626 100.068 315.796 102.817L315.813 103.086L318.993 102.889L318.976 102.619C318.907 101.506 319.647 100.648 321.03 100.562C321.947 100.506 322.747 101.195 322.804 102.112C322.867 103.136 322.73 104.118 321.029 104.602C318.725 105.268 316.424 106.835 316.623 110.051C316.726 111.704 316.684 111.021 316.821 112.943L326.594 112.337L326.415 109.444L319.48 109.874C319.378 108.239 320.184 107.558 321.954 107.016ZM334.83 103.494C335.554 103.233 336.262 102.143 336.181 100.849C336.05 98.7292 334.371 96.9577 331.586 97.1304C328.802 97.3031 327.371 99.2493 327.504 101.387C327.511 101.495 327.517 101.603 327.542 101.709L330.291 101.539C330.223 100.443 330.886 99.7889 331.748 99.7354C332.646 99.6797 333.35 100.267 333.417 101.345C333.454 101.938 333.23 102.98 331.487 103.088L331.598 104.885C333.359 104.775 334.355 105.417 334.458 107.088C334.557 108.687 333.601 109.557 332.38 109.633C331.158 109.709 330.101 108.945 330.003 107.364L327.092 107.545C327.273 110.455 329.182 112.447 332.523 112.239C335.829 112.034 337.541 109.98 337.351 106.908C337.233 105.004 336.025 103.853 334.83 103.494Z" fill="#FBF2E6"/>
<rect width="97.2542" height="12.5922" transform="matrix(0.948821 -0.315814 -0.315814 -0.948821 50.9768 42.662)" fill="#5481BF" fill-opacity="0.85"/>
<path d="M62.6905 192.224C64.0065 192.224 64.9305 191.664 65.5465 190.502C66.1065 189.424 66.4005 187.856 66.4005 185.854C66.4005 181.248 64.3985 180.394 62.3405 180.436C60.9545 180.478 59.2465 181.626 59.2465 184.244C59.2465 185.42 59.9745 187.604 62.3685 187.604C64.8325 187.604 65.3085 186.008 65.3085 186.008C65.3085 186.008 65.3505 186.82 65.1265 188.248C64.8325 190.166 64.0765 190.992 62.7045 191.09C61.8785 191.146 61.0805 190.754 60.8145 189.788H59.6805C59.8905 191.188 60.7165 192.224 62.6905 192.224ZM62.4945 186.484C61.1645 186.484 60.3945 185.476 60.3245 184.37C60.2405 182.956 60.9685 181.682 62.4245 181.626C64.3145 181.528 65.1265 182.41 65.0705 184.44C65.0425 185.56 64.0765 186.484 62.4945 186.484Z" fill="#5481BF"/>
<path d="M46.5688 163.78V162.674H35.9428V163.78H40.6748V174H41.8228V163.78H46.5688ZM54.8909 174H56.0389V162.674H54.8909V167.378H48.4509V162.674H47.3029V174H48.4509V168.47H54.8909V174ZM65.2005 169.814C65.2005 171.816 64.1085 173.076 61.8965 173.076C59.6985 173.076 58.5925 171.83 58.5925 169.814V162.66H57.4445V169.604C57.4445 171.2 57.9905 174.224 61.8965 174.224C65.8165 174.224 66.3625 171.2 66.3625 169.604V162.66H65.2005V169.814Z" fill="#5481BF"/>
<rect x="82" y="162" width="299" height="63" rx="15" fill="#5481BF"/>
<path d="M94.4836 179.944C94.4836 178.077 95.1023 176.568 96.3396 175.416C97.5876 174.253 99.2143 173.672 101.22 173.672C102.713 173.672 103.998 173.864 105.076 174.248C105.268 174.344 105.364 174.488 105.364 174.68C105.364 174.712 105.358 174.749 105.348 174.792C105.337 174.899 105.284 175.357 105.188 176.168C105.092 176.979 105.022 177.533 104.98 177.832C104.958 178.003 104.9 178.104 104.804 178.136C104.718 178.168 104.654 178.184 104.612 178.184C104.526 178.184 104.452 178.157 104.388 178.104C103.641 177.709 102.756 177.512 101.732 177.512C100.292 177.512 99.5716 178.307 99.5716 179.896C99.5716 180.856 99.9183 181.336 100.612 181.336C100.836 181.336 101.038 181.229 101.22 181.016C101.412 180.792 101.508 180.493 101.508 180.12C101.508 179.757 101.46 179.496 101.364 179.336C101.342 179.261 101.332 179.197 101.332 179.144C101.332 179.069 101.353 178.995 101.396 178.92C101.438 178.845 101.529 178.803 101.668 178.792C102.265 178.749 103.62 178.659 105.732 178.52C105.742 178.52 105.758 178.52 105.78 178.52C105.897 178.52 106.004 178.563 106.1 178.648C106.196 178.733 106.249 178.845 106.26 178.984C106.388 180.552 106.452 182.392 106.452 184.504C106.452 184.792 106.292 184.957 105.972 185C105.769 185.021 105.214 185.032 104.308 185.032C103.401 185.032 102.846 185.021 102.644 185C102.484 184.979 102.361 184.931 102.276 184.856C102.201 184.781 102.164 184.696 102.164 184.6C102.164 184.579 102.164 184.557 102.164 184.536C102.217 184.013 102.244 183.603 102.244 183.304C102.244 183.251 102.244 183.203 102.244 183.16C102.244 183.139 102.244 183.117 102.244 183.096C102.244 182.883 102.217 182.776 102.164 182.776C102.121 182.765 102.1 182.76 102.1 182.76C102.004 182.76 101.902 182.883 101.796 183.128C101.273 184.461 100.372 185.128 99.0916 185.128C96.0196 185.128 94.4836 183.4 94.4836 179.944ZM107.899 174.2C107.931 173.955 108.086 173.821 108.363 173.8C108.864 173.757 109.595 173.736 110.555 173.736C111.536 173.736 112.203 173.757 112.555 173.8C112.95 173.853 113.195 174.083 113.291 174.488C113.44 175.309 113.584 176.019 113.723 176.616C113.958 177.597 114.23 178.088 114.539 178.088C114.827 178.088 115.072 177.64 115.275 176.744C115.35 176.424 115.44 175.997 115.547 175.464C115.664 174.931 115.739 174.605 115.771 174.488C115.867 174.083 116.107 173.853 116.491 173.8C116.843 173.757 117.515 173.736 118.507 173.736C119.392 173.736 120.118 173.757 120.683 173.8C120.95 173.821 121.11 173.955 121.163 174.2C121.76 178.019 122.096 181.448 122.171 184.488C122.171 184.499 122.171 184.515 122.171 184.536C122.171 184.653 122.128 184.755 122.043 184.84C121.958 184.925 121.846 184.979 121.707 185C121.355 185.043 120.678 185.064 119.675 185.064C118.512 185.064 117.75 185.043 117.387 185C117.099 184.957 116.955 184.803 116.955 184.536C116.955 184.515 116.955 184.488 116.955 184.456C117.104 183.283 117.179 182.227 117.179 181.288C117.179 180.093 117.024 179.496 116.715 179.496C116.544 179.496 116.406 179.629 116.299 179.896C116.203 180.163 116.08 180.605 115.931 181.224C115.782 182.013 115.696 182.472 115.675 182.6C115.494 183.4 115.104 183.8 114.507 183.8C113.963 183.8 113.59 183.4 113.387 182.6C113.227 181.811 113.126 181.32 113.083 181.128C112.966 180.605 112.848 180.216 112.731 179.96C112.624 179.704 112.491 179.576 112.331 179.576C112.192 179.576 112.08 179.731 111.995 180.04C111.92 180.339 111.883 180.728 111.883 181.208C111.883 181.261 111.883 181.32 111.883 181.384C111.883 181.96 111.952 182.984 112.091 184.456C112.091 184.488 112.091 184.515 112.091 184.536C112.091 184.803 111.952 184.957 111.675 185C111.312 185.043 110.555 185.064 109.403 185.064C108.39 185.064 107.707 185.043 107.355 185C107.216 184.979 107.099 184.925 107.003 184.84C106.918 184.744 106.875 184.627 106.875 184.488C106.95 181.533 107.291 178.104 107.899 174.2ZM128.054 174.232C128.118 173.987 128.289 173.843 128.566 173.8C129.003 173.757 129.563 173.736 130.246 173.736C131.185 173.736 131.873 173.757 132.31 173.8C132.47 173.821 132.577 173.875 132.63 173.96C132.694 174.045 132.726 174.136 132.726 174.232C132.726 174.285 132.721 174.339 132.71 174.392C132.369 175.875 132.187 177.139 132.166 178.184C132.166 178.696 132.374 178.952 132.79 178.952H132.95C133.163 178.952 133.329 178.888 133.446 178.76C133.574 178.621 133.638 178.429 133.638 178.184C133.638 178.152 133.638 178.12 133.638 178.088C133.638 177.501 133.558 176.269 133.398 174.392C133.398 174.36 133.398 174.333 133.398 174.312C133.398 174.024 133.547 173.853 133.846 173.8C134.305 173.757 134.993 173.736 135.91 173.736C136.603 173.736 137.163 173.757 137.59 173.8C137.867 173.832 138.022 173.976 138.054 174.232C138.278 175.971 138.39 177.4 138.39 178.52C138.39 178.573 138.411 178.621 138.454 178.664C138.497 178.707 138.545 178.728 138.598 178.728C138.694 178.728 138.833 178.728 139.014 178.728C139.206 178.717 139.345 178.712 139.43 178.712C139.633 178.712 139.734 178.819 139.734 179.032C139.745 179.373 139.755 179.715 139.766 180.056C139.755 180.408 139.745 180.755 139.734 181.096C139.734 181.341 139.638 181.464 139.446 181.464H138.742C138.571 181.464 138.486 181.549 138.486 181.72C138.486 182.019 138.486 182.483 138.486 183.112C138.497 183.731 138.502 184.2 138.502 184.52C138.502 184.648 138.454 184.76 138.358 184.856C138.273 184.941 138.166 184.989 138.038 185C137.355 185.043 136.689 185.064 136.038 185.064C135.291 185.064 134.566 185.043 133.862 185C133.734 184.989 133.622 184.936 133.526 184.84C133.441 184.733 133.398 184.611 133.398 184.472C133.398 184.451 133.398 184.435 133.398 184.424L133.59 182.312C133.59 181.811 133.318 181.56 132.774 181.56C132.497 181.56 131.969 181.571 131.19 181.592C130.422 181.613 129.899 181.629 129.622 181.64C129.345 181.64 129.158 181.64 129.062 181.64C128.689 181.64 128.321 181.629 127.958 181.608C127.734 181.587 127.542 181.485 127.382 181.304C127.233 181.123 127.158 180.893 127.158 180.616C127.158 178.728 127.457 176.6 128.054 174.232ZM140.574 181.768C140.937 181.437 141.406 181.272 141.982 181.272C142.569 181.272 143.038 181.443 143.39 181.784C143.753 182.115 143.934 182.579 143.934 183.176C143.934 183.763 143.753 184.221 143.39 184.552C143.038 184.883 142.569 185.048 141.982 185.048C141.406 185.048 140.937 184.883 140.574 184.552C140.212 184.221 140.03 183.757 140.03 183.16C140.03 182.563 140.212 182.099 140.574 181.768ZM140.574 176.36C140.937 176.029 141.406 175.864 141.982 175.864C142.569 175.864 143.038 176.035 143.39 176.376C143.753 176.707 143.934 177.171 143.934 177.768C143.934 178.355 143.753 178.813 143.39 179.144C143.038 179.464 142.569 179.624 141.982 179.624C141.406 179.624 140.937 179.459 140.574 179.128C140.212 178.797 140.03 178.339 140.03 177.752C140.03 177.155 140.212 176.691 140.574 176.36ZM149.148 180.136C149.202 180.115 149.255 180.104 149.308 180.104C149.436 180.104 149.554 180.163 149.66 180.28C150.62 181.027 151.74 181.4 153.02 181.4C153.82 181.4 154.231 181.149 154.252 180.648C154.252 180.467 154.13 180.307 153.884 180.168C153.65 180.019 153.351 179.901 152.988 179.816C152.626 179.72 152.231 179.592 151.804 179.432C151.378 179.272 150.983 179.096 150.62 178.904C150.258 178.701 149.954 178.419 149.708 178.056C149.463 177.693 149.34 177.267 149.34 176.776C149.34 175.699 149.751 174.915 150.572 174.424C151.394 173.923 152.631 173.672 154.284 173.672C156.012 173.672 157.458 173.816 158.62 174.104C158.834 174.168 158.956 174.307 158.988 174.52C159.138 176.109 159.223 177.085 159.244 177.448C159.244 177.48 159.244 177.512 159.244 177.544C159.244 177.768 159.196 177.901 159.1 177.944C159.004 177.976 158.93 177.992 158.876 177.992C158.77 177.992 158.663 177.939 158.556 177.832C157.724 177.363 156.828 177.112 155.868 177.08C155.826 177.08 155.783 177.08 155.74 177.08C155.282 177.08 154.908 177.139 154.62 177.256C154.332 177.363 154.188 177.517 154.188 177.72C154.188 177.901 154.327 178.061 154.604 178.2C154.882 178.328 155.228 178.435 155.644 178.52C156.071 178.595 156.53 178.707 157.02 178.856C157.511 179.005 157.964 179.181 158.38 179.384C158.796 179.587 159.143 179.896 159.42 180.312C159.698 180.717 159.836 181.197 159.836 181.752C159.826 182.851 159.34 183.688 158.38 184.264C157.42 184.84 156.05 185.128 154.268 185.128C153.586 185.128 152.759 185.069 151.788 184.952C150.818 184.835 149.996 184.68 149.324 184.488C149.122 184.413 149.01 184.259 148.988 184.024C148.988 183.864 148.972 183.363 148.94 182.52C148.908 181.667 148.887 181.021 148.876 180.584C148.876 180.573 148.876 180.563 148.876 180.552C148.876 180.339 148.967 180.2 149.148 180.136ZM159.941 174.232C159.963 173.955 160.123 173.811 160.421 173.8C161.285 173.757 162.912 173.736 165.301 173.736C167.691 173.736 169.317 173.757 170.181 173.8C170.48 173.811 170.64 173.955 170.661 174.232C170.789 175.533 170.853 176.819 170.853 178.088C170.853 178.301 170.8 178.435 170.693 178.488C170.597 178.541 170.523 178.568 170.469 178.568C170.395 178.568 170.32 178.531 170.245 178.456C170.107 178.392 169.867 178.253 169.525 178.04C169.195 177.827 168.891 177.656 168.613 177.528C168.336 177.389 168.107 177.32 167.925 177.32C167.723 177.32 167.573 177.384 167.477 177.512C167.392 177.629 167.349 177.763 167.349 177.912C167.349 177.997 167.36 178.088 167.381 178.184C167.424 178.493 167.547 179.4 167.749 180.904C167.963 182.408 168.128 183.565 168.245 184.376C168.245 184.408 168.245 184.435 168.245 184.456C168.245 184.573 168.208 184.685 168.133 184.792C168.059 184.899 167.941 184.963 167.781 184.984C167.376 185.027 166.565 185.048 165.349 185.048C164.091 185.048 163.253 185.027 162.837 184.984C162.677 184.963 162.56 184.899 162.485 184.792C162.411 184.685 162.373 184.573 162.373 184.456C162.373 184.435 162.373 184.408 162.373 184.376C162.491 183.565 162.651 182.408 162.853 180.904C163.067 179.4 163.195 178.493 163.237 178.184C163.259 178.077 163.269 177.987 163.269 177.912C163.269 177.752 163.221 177.613 163.125 177.496C163.029 177.379 162.88 177.32 162.677 177.32C162.485 177.32 162.251 177.389 161.973 177.528C161.707 177.656 161.403 177.827 161.061 178.04C160.731 178.253 160.496 178.392 160.357 178.456C160.293 178.52 160.219 178.552 160.133 178.552C160.08 178.552 160 178.525 159.893 178.472C159.797 178.408 159.749 178.269 159.749 178.056C159.803 176.275 159.867 175 159.941 174.232ZM171.75 174.2C171.782 173.955 171.931 173.821 172.198 173.8C172.678 173.757 173.344 173.736 174.198 173.736C175.115 173.736 175.814 173.757 176.294 173.8C176.432 173.811 176.544 173.864 176.63 173.96C176.715 174.056 176.758 174.157 176.758 174.264C176.758 174.285 176.758 174.307 176.758 174.328C176.395 176.269 176.214 177.955 176.214 179.384C176.214 180.493 176.518 181.048 177.126 181.048C177.744 181.048 178.054 180.493 178.054 179.384C178.054 178.189 177.872 176.504 177.51 174.328C177.51 174.307 177.51 174.28 177.51 174.248C177.51 174.141 177.547 174.045 177.622 173.96C177.707 173.864 177.824 173.811 177.974 173.8C178.475 173.757 179.195 173.736 180.134 173.736C180.944 173.736 181.584 173.757 182.054 173.8C182.31 173.821 182.464 173.955 182.518 174.2C182.912 176.792 183.11 178.776 183.11 180.152C183.099 181.912 182.587 183.181 181.574 183.96C180.56 184.739 179.078 185.128 177.126 185.128C175.174 185.128 173.691 184.739 172.678 183.96C171.664 183.181 171.158 181.912 171.158 180.152C171.158 180.109 171.158 180.072 171.158 180.04C171.158 178.557 171.355 176.611 171.75 174.2ZM183.596 184.472C183.596 180.931 183.75 177.512 184.06 174.216C184.092 173.96 184.252 173.821 184.54 173.8C185.244 173.757 186.572 173.736 188.524 173.736C190.572 173.736 192.209 174.285 193.436 175.384C194.673 176.483 195.292 178.024 195.292 180.008C195.292 181.843 194.769 183.155 193.724 183.944C192.678 184.733 191.094 185.128 188.972 185.128C186.753 185.128 185.116 185.085 184.06 185C183.921 184.989 183.809 184.936 183.724 184.84C183.638 184.733 183.596 184.611 183.596 184.472ZM188.604 180.616C188.604 180.744 188.641 180.845 188.716 180.92C188.79 180.995 188.876 181.032 188.972 181.032H189.052C189.457 181.032 189.782 180.925 190.028 180.712C190.284 180.499 190.412 180.184 190.412 179.768C190.412 179.043 190.289 178.483 190.044 178.088C189.798 177.693 189.462 177.496 189.036 177.496H188.972C188.726 177.496 188.604 177.619 188.604 177.864C188.593 178.323 188.588 178.781 188.588 179.24C188.588 179.699 188.593 180.157 188.604 180.616ZM194.876 174.008C194.961 173.891 195.089 173.821 195.26 173.8C195.718 173.757 196.342 173.736 197.132 173.736C198.188 173.736 198.988 173.757 199.532 173.8C199.681 173.821 199.798 173.88 199.884 173.976C199.969 174.072 200.012 174.179 200.012 174.296C200.012 174.317 200.012 174.333 200.012 174.344C200.001 174.568 199.996 174.803 199.996 175.048C199.996 175.624 200.049 176.296 200.156 177.064C200.262 177.821 200.428 178.2 200.652 178.2C200.876 178.2 201.041 177.816 201.148 177.048C201.254 176.269 201.308 175.576 201.308 174.968C201.308 174.755 201.302 174.547 201.292 174.344C201.292 174.333 201.292 174.317 201.292 174.296C201.292 174.179 201.334 174.072 201.42 173.976C201.505 173.88 201.622 173.821 201.772 173.8C202.273 173.757 203.073 173.736 204.172 173.736C205.068 173.736 205.692 173.757 206.044 173.8C206.214 173.821 206.337 173.885 206.412 173.992C206.486 174.099 206.524 174.211 206.524 174.328C206.524 174.349 206.524 174.376 206.524 174.408C206.342 175.859 205.91 177.117 205.228 178.184C204.556 179.251 203.729 179.896 202.748 180.12C202.641 180.152 202.588 180.216 202.588 180.312C202.588 180.365 202.598 180.424 202.62 180.488C203.078 182.376 203.366 183.725 203.484 184.536C203.484 184.557 203.484 184.579 203.484 184.6C203.484 184.696 203.441 184.781 203.356 184.856C203.281 184.931 203.174 184.979 203.036 185C202.556 185.043 201.782 185.064 200.716 185.064C199.628 185.064 198.822 185.043 198.3 185C198.161 184.979 198.049 184.931 197.964 184.856C197.889 184.781 197.852 184.696 197.852 184.6C197.852 184.579 197.852 184.557 197.852 184.536C198.012 183.512 198.305 182.163 198.732 180.488C198.753 180.435 198.764 180.381 198.764 180.328C198.764 180.232 198.705 180.168 198.588 180.136C197.574 179.933 196.716 179.293 196.012 178.216C195.308 177.128 194.892 175.859 194.764 174.408C194.764 174.376 194.764 174.349 194.764 174.328C194.764 174.211 194.801 174.104 194.876 174.008ZM206.829 184.552C208.098 179.912 209.122 176.461 209.901 174.2C209.997 173.965 210.194 173.832 210.493 173.8C210.781 173.757 211.485 173.736 212.605 173.736C213.181 173.736 213.666 173.757 214.061 173.8C214.168 173.811 214.248 173.848 214.301 173.912C214.354 173.976 214.381 174.04 214.381 174.104C214.381 174.136 214.376 174.168 214.365 174.2C212.754 179.725 211.73 183.176 211.293 184.552C211.208 184.819 211.01 184.968 210.701 185C210.37 185.043 209.864 185.064 209.181 185.064C208.093 185.064 207.405 185.043 207.117 185C206.914 184.979 206.813 184.877 206.813 184.696C206.813 184.653 206.818 184.605 206.829 184.552ZM215.278 174.2C215.31 173.933 215.465 173.789 215.742 173.768C217.14 173.683 219.022 173.64 221.39 173.64C222.82 173.64 223.934 173.923 224.734 174.488C225.534 175.043 225.934 175.848 225.934 176.904C225.934 177.704 225.748 178.413 225.374 179.032C225.012 179.651 224.537 180.125 223.95 180.456C223.374 180.787 222.804 181.016 222.238 181.144C221.673 181.261 221.161 181.32 220.702 181.32C220.532 181.32 220.361 181.315 220.19 181.304C220.18 181.304 220.164 181.304 220.142 181.304C220.036 181.304 219.961 181.341 219.918 181.416C219.876 181.491 219.854 181.603 219.854 181.752C219.854 181.784 219.854 181.816 219.854 181.848C219.865 182.211 219.94 182.707 220.078 183.336C220.228 183.965 220.313 184.333 220.334 184.44C220.334 184.472 220.334 184.499 220.334 184.52C220.334 184.627 220.297 184.728 220.222 184.824C220.148 184.92 220.036 184.979 219.886 185C219.502 185.043 218.724 185.064 217.55 185.064C216.58 185.064 215.822 185.043 215.278 185C215.14 184.979 215.028 184.925 214.942 184.84C214.857 184.755 214.814 184.653 214.814 184.536C214.836 180.515 214.99 177.069 215.278 174.2ZM219.838 177.64V179C219.838 179.075 219.865 179.139 219.918 179.192C219.972 179.235 220.03 179.256 220.094 179.256C220.116 179.256 220.132 179.256 220.142 179.256C220.462 179.224 220.702 179.107 220.862 178.904C221.033 178.691 221.118 178.461 221.118 178.216C221.118 177.949 221.033 177.747 220.862 177.608C220.702 177.459 220.473 177.384 220.174 177.384H220.126C219.934 177.384 219.838 177.469 219.838 177.64ZM226.41 174.232C226.431 173.955 226.591 173.811 226.89 173.8C227.754 173.757 229.381 173.736 231.77 173.736C234.159 173.736 235.786 173.757 236.65 173.8C236.949 173.811 237.109 173.955 237.13 174.232C237.258 175.533 237.322 176.819 237.322 178.088C237.322 178.301 237.269 178.435 237.162 178.488C237.066 178.541 236.991 178.568 236.938 178.568C236.863 178.568 236.789 178.531 236.714 178.456C236.575 178.392 236.335 178.253 235.994 178.04C235.663 177.827 235.359 177.656 235.082 177.528C234.805 177.389 234.575 177.32 234.394 177.32C234.191 177.32 234.042 177.384 233.946 177.512C233.861 177.629 233.818 177.763 233.818 177.912C233.818 177.997 233.829 178.088 233.85 178.184C233.893 178.493 234.015 179.4 234.218 180.904C234.431 182.408 234.597 183.565 234.714 184.376C234.714 184.408 234.714 184.435 234.714 184.456C234.714 184.573 234.677 184.685 234.602 184.792C234.527 184.899 234.41 184.963 234.25 184.984C233.845 185.027 233.034 185.048 231.818 185.048C230.559 185.048 229.722 185.027 229.306 184.984C229.146 184.963 229.029 184.899 228.954 184.792C228.879 184.685 228.842 184.573 228.842 184.456C228.842 184.435 228.842 184.408 228.842 184.376C228.959 183.565 229.119 182.408 229.322 180.904C229.535 179.4 229.663 178.493 229.706 178.184C229.727 178.077 229.738 177.987 229.738 177.912C229.738 177.752 229.69 177.613 229.594 177.496C229.498 177.379 229.349 177.32 229.146 177.32C228.954 177.32 228.719 177.389 228.442 177.528C228.175 177.656 227.871 177.827 227.53 178.04C227.199 178.253 226.965 178.392 226.826 178.456C226.762 178.52 226.687 178.552 226.602 178.552C226.549 178.552 226.469 178.525 226.362 178.472C226.266 178.408 226.218 178.269 226.218 178.056C226.271 176.275 226.335 175 226.41 174.232ZM242.049 184.472C242.049 180.931 242.203 177.512 242.513 174.216C242.545 173.96 242.705 173.821 242.993 173.8C243.697 173.757 245.025 173.736 246.977 173.736C249.025 173.736 250.662 174.285 251.889 175.384C253.126 176.483 253.745 178.024 253.745 180.008C253.745 181.843 253.222 183.155 252.177 183.944C251.131 184.733 249.547 185.128 247.425 185.128C245.206 185.128 243.569 185.085 242.513 185C242.374 184.989 242.262 184.936 242.177 184.84C242.091 184.733 242.049 184.611 242.049 184.472ZM247.057 180.616C247.057 180.744 247.094 180.845 247.169 180.92C247.243 180.995 247.329 181.032 247.425 181.032H247.505C247.91 181.032 248.235 180.925 248.481 180.712C248.737 180.499 248.865 180.184 248.865 179.768C248.865 179.043 248.742 178.483 248.497 178.088C248.251 177.693 247.915 177.496 247.489 177.496H247.425C247.179 177.496 247.057 177.619 247.057 177.864C247.046 178.323 247.041 178.781 247.041 179.24C247.041 179.699 247.046 180.157 247.057 180.616ZM254.607 174.2C254.628 173.955 254.783 173.821 255.071 173.8C255.647 173.757 257.05 173.736 259.279 173.736C261.391 173.736 262.826 173.757 263.583 173.8C263.871 173.821 264.026 173.976 264.047 174.264C264.1 175 264.138 176.136 264.159 177.672C264.159 177.875 264.111 177.997 264.015 178.04C263.919 178.072 263.85 178.088 263.807 178.088C263.7 178.088 263.583 178.045 263.455 177.96C262.431 177.363 261.386 177.064 260.319 177.064C259.914 177.064 259.615 177.133 259.423 177.272C259.242 177.4 259.151 177.56 259.151 177.752V177.816C259.151 178.189 259.636 178.376 260.607 178.376C260.852 178.376 261.183 178.365 261.599 178.344C262.015 178.312 262.346 178.296 262.591 178.296C262.602 178.296 262.618 178.296 262.639 178.296C262.756 178.296 262.863 178.339 262.959 178.424C263.055 178.499 263.103 178.605 263.103 178.744L263.087 179.944C263.087 180.093 263.05 180.195 262.975 180.248C262.9 180.291 262.836 180.312 262.783 180.312C262.719 180.312 262.655 180.291 262.591 180.248C261.823 179.928 261.172 179.768 260.639 179.768C260.628 179.768 260.612 179.768 260.591 179.768C260.079 179.779 259.711 179.848 259.487 179.976C259.263 180.104 259.151 180.307 259.151 180.584V180.744C259.151 181.395 259.738 181.72 260.911 181.72C261.636 181.72 262.239 181.603 262.719 181.368C263.21 181.123 263.674 180.696 264.111 180.088C264.196 179.96 264.303 179.896 264.431 179.896C264.474 179.896 264.559 179.912 264.687 179.944C264.815 179.976 264.89 180.099 264.911 180.312C265.05 181.528 265.14 182.92 265.183 184.488C265.183 184.499 265.183 184.509 265.183 184.52C265.183 184.637 265.14 184.744 265.055 184.84C264.97 184.925 264.863 184.979 264.735 185C264.17 185.043 262.324 185.064 259.199 185.064C256.66 185.064 255.13 185.043 254.607 185C254.479 184.979 254.367 184.92 254.271 184.824C254.175 184.728 254.127 184.616 254.127 184.488C254.18 180.019 254.34 176.589 254.607 174.2ZM265.674 184.408C265.674 181.08 265.828 177.677 266.138 174.2C266.17 173.955 266.319 173.821 266.586 173.8C267.396 173.757 269.402 173.736 272.602 173.736C275.482 173.736 276.922 174.461 276.922 175.912C276.922 176.531 276.607 177.085 275.978 177.576C275.348 178.067 274.468 178.408 273.338 178.6C273.242 178.643 273.178 178.685 273.146 178.728C273.124 178.771 273.114 178.803 273.114 178.824C273.114 178.856 273.124 178.893 273.146 178.936C273.178 178.979 273.247 179.016 273.354 179.048C274.676 179.283 275.684 179.704 276.378 180.312C277.082 180.909 277.434 181.549 277.434 182.232C277.434 182.787 277.236 183.261 276.842 183.656C276.447 184.051 275.908 184.349 275.226 184.552C274.554 184.755 273.855 184.904 273.13 185C272.415 185.085 271.647 185.128 270.826 185.128C269.45 185.128 267.919 185.085 266.234 185C266.074 184.989 265.94 184.931 265.834 184.824C265.727 184.707 265.674 184.568 265.674 184.408ZM270.634 179.896V181.256C270.634 181.512 270.762 181.64 271.018 181.64H271.562C272.148 181.64 272.442 181.363 272.442 180.808C272.442 180.552 272.303 180.301 272.026 180.056C271.759 179.811 271.407 179.656 270.97 179.592C270.948 179.581 270.922 179.576 270.89 179.576C270.826 179.576 270.767 179.603 270.714 179.656C270.66 179.709 270.634 179.789 270.634 179.896ZM270.97 178.44C271.706 178.28 272.074 177.917 272.074 177.352C272.074 176.915 271.77 176.696 271.162 176.696H270.97C270.746 176.696 270.634 176.808 270.634 177.032V178.168C270.634 178.36 270.714 178.456 270.874 178.456C270.906 178.456 270.938 178.451 270.97 178.44ZM277.83 184.52C277.83 180.776 277.99 177.347 278.31 174.232C278.321 174.125 278.369 174.029 278.454 173.944C278.539 173.859 278.641 173.811 278.758 173.8C279.611 173.757 281.51 173.736 284.454 173.736C285.862 173.736 286.939 173.949 287.686 174.376C288.443 174.792 288.822 175.411 288.822 176.232C288.822 177.043 288.486 177.731 287.814 178.296C287.142 178.861 286.262 179.229 285.174 179.4C285.067 179.411 284.998 179.437 284.966 179.48C284.934 179.523 284.918 179.56 284.918 179.592C284.918 179.613 284.934 179.645 284.966 179.688C285.009 179.731 285.083 179.757 285.19 179.768C286.353 179.864 287.339 180.307 288.15 181.096C288.971 181.885 289.457 183 289.606 184.44C289.606 184.461 289.606 184.488 289.606 184.52C289.606 184.627 289.563 184.728 289.478 184.824C289.393 184.92 289.275 184.979 289.126 185C288.603 185.043 287.825 185.064 286.79 185.064C285.723 185.064 284.955 185.043 284.486 185C284.166 184.957 284.006 184.797 284.006 184.52C284.006 183.603 283.926 182.776 283.766 182.04C283.617 181.304 283.403 180.819 283.126 180.584C283.094 180.563 283.067 180.552 283.046 180.552C282.982 180.552 282.923 180.6 282.87 180.696C282.817 180.792 282.785 180.952 282.774 181.176C282.774 181.272 282.774 181.373 282.774 181.48C282.774 182.205 282.87 183.197 283.062 184.456C283.073 184.488 283.078 184.52 283.078 184.552C283.078 184.637 283.035 184.728 282.95 184.824C282.865 184.92 282.747 184.979 282.598 185C282.043 185.043 281.265 185.064 280.262 185.064C279.43 185.064 278.779 185.043 278.31 185C278.182 184.979 278.07 184.925 277.974 184.84C277.878 184.755 277.83 184.648 277.83 184.52ZM282.87 177.848V178.984C282.87 179.155 282.929 179.24 283.046 179.24C283.089 179.24 283.142 179.224 283.206 179.192C283.75 178.968 284.022 178.616 284.022 178.136C284.022 177.923 283.947 177.757 283.798 177.64C283.659 177.523 283.467 177.464 283.222 177.464H283.174C282.971 177.464 282.87 177.592 282.87 177.848ZM290.433 174.232C290.465 173.976 290.62 173.832 290.897 173.8C291.324 173.757 291.927 173.736 292.705 173.736C293.473 173.736 294.076 173.757 294.513 173.8C294.78 173.832 294.929 173.976 294.961 174.232C295.239 176.781 295.377 180.205 295.377 184.504C295.377 184.632 295.329 184.744 295.233 184.84C295.137 184.925 295.02 184.979 294.881 185C294.423 185.043 293.697 185.064 292.705 185.064C291.713 185.064 290.983 185.043 290.513 185C290.375 184.979 290.257 184.925 290.161 184.84C290.065 184.744 290.017 184.632 290.017 184.504C290.017 180.205 290.156 176.781 290.433 174.232ZM296.372 174.2C296.394 173.955 296.548 173.821 296.836 173.8C297.412 173.757 298.815 173.736 301.044 173.736C303.156 173.736 304.591 173.757 305.348 173.8C305.636 173.821 305.791 173.976 305.812 174.264C305.866 175 305.903 176.136 305.924 177.672C305.924 177.875 305.876 177.997 305.78 178.04C305.684 178.072 305.615 178.088 305.572 178.088C305.466 178.088 305.348 178.045 305.22 177.96C304.196 177.363 303.151 177.064 302.084 177.064C301.679 177.064 301.38 177.133 301.188 177.272C301.007 177.4 300.916 177.56 300.916 177.752V177.816C300.916 178.189 301.402 178.376 302.372 178.376C302.618 178.376 302.948 178.365 303.364 178.344C303.78 178.312 304.111 178.296 304.356 178.296C304.367 178.296 304.383 178.296 304.404 178.296C304.522 178.296 304.628 178.339 304.724 178.424C304.82 178.499 304.868 178.605 304.868 178.744L304.852 179.944C304.852 180.093 304.815 180.195 304.74 180.248C304.666 180.291 304.602 180.312 304.548 180.312C304.484 180.312 304.42 180.291 304.356 180.248C303.588 179.928 302.938 179.768 302.404 179.768C302.394 179.768 302.378 179.768 302.356 179.768C301.844 179.779 301.476 179.848 301.252 179.976C301.028 180.104 300.916 180.307 300.916 180.584V180.744C300.916 181.395 301.503 181.72 302.676 181.72C303.402 181.72 304.004 181.603 304.484 181.368C304.975 181.123 305.439 180.696 305.876 180.088C305.962 179.96 306.068 179.896 306.196 179.896C306.239 179.896 306.324 179.912 306.452 179.944C306.58 179.976 306.655 180.099 306.676 180.312C306.815 181.528 306.906 182.92 306.948 184.488C306.948 184.499 306.948 184.509 306.948 184.52C306.948 184.637 306.906 184.744 306.82 184.84C306.735 184.925 306.628 184.979 306.5 185C305.935 185.043 304.09 185.064 300.964 185.064C298.426 185.064 296.895 185.043 296.372 185C296.244 184.979 296.132 184.92 296.036 184.824C295.94 184.728 295.892 184.616 295.892 184.488C295.946 180.019 296.106 176.589 296.372 174.2ZM307.439 184.504C307.471 180.109 307.631 176.675 307.919 174.2C307.93 174.083 307.978 173.987 308.063 173.912C308.159 173.837 308.266 173.8 308.383 173.8C309.877 173.757 311.306 173.736 312.671 173.736C314.73 173.736 316.133 173.757 316.879 173.8C317.178 173.821 317.338 173.981 317.359 174.28C317.434 175.667 317.482 176.947 317.503 178.12C317.503 178.291 317.45 178.397 317.343 178.44C317.237 178.483 317.157 178.504 317.103 178.504C317.007 178.504 316.917 178.461 316.831 178.376C316.383 177.907 315.903 177.587 315.391 177.416C314.879 177.235 314.293 177.144 313.631 177.144C313.226 177.144 312.927 177.219 312.735 177.368C312.554 177.507 312.463 177.672 312.463 177.864V177.96C312.463 178.461 312.949 178.712 313.919 178.712C314.122 178.712 314.757 178.659 315.823 178.552C315.845 178.552 315.861 178.552 315.871 178.552C315.989 178.552 316.085 178.589 316.159 178.664C316.245 178.739 316.298 178.851 316.319 179C316.341 179.149 316.362 179.347 316.383 179.592C316.405 179.837 316.426 180.104 316.447 180.392C316.469 180.669 316.485 180.867 316.495 180.984C316.495 180.995 316.495 181.011 316.495 181.032C316.495 181.192 316.453 181.293 316.367 181.336C316.282 181.379 316.213 181.4 316.159 181.4C316.085 181.4 316.015 181.368 315.951 181.304C315.162 180.909 314.431 180.712 313.759 180.712C313.727 180.712 313.695 180.712 313.663 180.712C313.205 180.723 312.89 180.819 312.719 181C312.549 181.181 312.463 181.453 312.463 181.816C312.463 182.04 312.485 182.296 312.527 182.584C312.57 182.872 312.634 183.213 312.719 183.608L312.879 184.456C312.879 184.467 312.879 184.477 312.879 184.488C312.879 184.605 312.831 184.717 312.735 184.824C312.65 184.92 312.543 184.979 312.415 185C312.01 185.043 311.194 185.064 309.967 185.064C309.103 185.064 308.421 185.043 307.919 185C307.791 184.979 307.679 184.925 307.583 184.84C307.487 184.744 307.439 184.632 307.439 184.504Z" fill="#FBF2E6"/>
<path d="M94.5866 211.142C94.5866 210.466 94.5909 209.959 94.5996 209.621C94.5996 209.448 94.6299 209.352 94.6906 209.335C94.7599 209.309 94.8076 209.296 94.8336 209.296C94.9116 209.296 94.9809 209.344 95.0416 209.439C95.6743 210.193 96.5496 210.57 97.6676 210.57C98.1356 210.57 98.5039 210.483 98.7726 210.31C99.0413 210.137 99.1756 209.885 99.1756 209.556C99.1756 209.227 99.0239 208.936 98.7206 208.685C98.4173 208.425 98.0489 208.2 97.6156 208.009C97.1909 207.81 96.7619 207.597 96.3286 207.372C95.9039 207.147 95.5399 206.848 95.2366 206.475C94.9333 206.094 94.7816 205.652 94.7816 205.149C94.7816 204.404 95.0719 203.827 95.6526 203.42C96.2333 203.013 96.9786 202.809 97.8886 202.809C98.7813 202.809 99.5483 202.974 100.19 203.303C100.32 203.39 100.385 203.511 100.385 203.667V205.006C100.385 205.171 100.35 205.266 100.281 205.292C100.22 205.318 100.177 205.331 100.151 205.331C100.081 205.331 100.012 205.283 99.9426 205.188C99.3793 204.616 98.7206 204.33 97.9666 204.33C97.5593 204.33 97.2039 204.408 96.9006 204.564C96.6059 204.72 96.4586 204.937 96.4586 205.214C96.4586 205.5 96.6103 205.769 96.9136 206.02C97.2169 206.271 97.5853 206.505 98.0186 206.722C98.4606 206.939 98.8983 207.168 99.3316 207.411C99.7649 207.654 100.133 207.97 100.437 208.36C100.74 208.741 100.892 209.17 100.892 209.647C100.892 210.401 100.606 210.999 100.034 211.441C99.4703 211.874 98.7076 212.091 97.7456 212.091C97.2863 212.091 96.7749 212.039 96.2116 211.935C95.6483 211.822 95.1673 211.679 94.7686 211.506C94.6473 211.454 94.5866 211.333 94.5866 211.142ZM101.328 211.142C101.328 210.466 101.332 209.959 101.341 209.621C101.341 209.448 101.371 209.352 101.432 209.335C101.501 209.309 101.549 209.296 101.575 209.296C101.653 209.296 101.722 209.344 101.783 209.439C102.415 210.193 103.291 210.57 104.409 210.57C104.877 210.57 105.245 210.483 105.514 210.31C105.782 210.137 105.917 209.885 105.917 209.556C105.917 209.227 105.765 208.936 105.462 208.685C105.158 208.425 104.79 208.2 104.357 208.009C103.932 207.81 103.503 207.597 103.07 207.372C102.645 207.147 102.281 206.848 101.978 206.475C101.674 206.094 101.523 205.652 101.523 205.149C101.523 204.404 101.813 203.827 102.394 203.42C102.974 203.013 103.72 202.809 104.63 202.809C105.522 202.809 106.289 202.974 106.931 203.303C107.061 203.39 107.126 203.511 107.126 203.667V205.006C107.126 205.171 107.091 205.266 107.022 205.292C106.961 205.318 106.918 205.331 106.892 205.331C106.822 205.331 106.753 205.283 106.684 205.188C106.12 204.616 105.462 204.33 104.708 204.33C104.3 204.33 103.945 204.408 103.642 204.564C103.347 204.72 103.2 204.937 103.2 205.214C103.2 205.5 103.351 205.769 103.655 206.02C103.958 206.271 104.326 206.505 104.76 206.722C105.202 206.939 105.639 207.168 106.073 207.411C106.506 207.654 106.874 207.97 107.178 208.36C107.481 208.741 107.633 209.17 107.633 209.647C107.633 210.401 107.347 210.999 106.775 211.441C106.211 211.874 105.449 212.091 104.487 212.091C104.027 212.091 103.516 212.039 102.953 211.935C102.389 211.822 101.908 211.679 101.51 211.506C101.388 211.454 101.328 211.333 101.328 211.142ZM108.652 203.212C108.661 203.047 108.756 202.943 108.938 202.9C109.146 202.865 109.367 202.848 109.601 202.848C109.853 202.848 110.091 202.865 110.316 202.9C110.481 202.926 110.598 202.965 110.667 203.017C110.745 203.06 110.81 203.147 110.862 203.277C110.914 203.424 110.975 203.641 111.044 203.927C111.114 204.204 111.192 204.534 111.278 204.915C111.374 205.296 111.443 205.574 111.486 205.747C111.807 206.9 112.058 207.476 112.24 207.476C112.414 207.476 112.661 206.895 112.981 205.734C113.025 205.561 113.09 205.288 113.176 204.915C113.272 204.542 113.354 204.213 113.423 203.927C113.493 203.641 113.553 203.424 113.605 203.277C113.631 203.182 113.67 203.112 113.722 203.069C113.783 203.017 113.839 202.982 113.891 202.965C113.952 202.939 114.039 202.917 114.151 202.9C114.377 202.865 114.602 202.848 114.827 202.848C115.07 202.848 115.304 202.865 115.529 202.9C115.711 202.943 115.807 203.047 115.815 203.212C116.084 205.907 116.244 208.724 116.296 211.662C116.296 211.844 116.21 211.957 116.036 212C115.854 212.035 115.629 212.052 115.36 212.052C115.118 212.052 114.884 212.035 114.658 212C114.459 211.957 114.359 211.861 114.359 211.714C114.359 211.697 114.359 211.679 114.359 211.662C114.446 210.969 114.489 210.206 114.489 209.374C114.489 209.114 114.485 208.85 114.476 208.581C114.45 207.844 114.42 207.329 114.385 207.034C114.351 206.731 114.29 206.579 114.203 206.579C114.16 206.579 114.117 206.609 114.073 206.67C114.039 206.731 114 206.826 113.956 206.956C113.922 207.086 113.887 207.212 113.852 207.333C113.826 207.446 113.787 207.606 113.735 207.814C113.692 208.022 113.657 208.187 113.631 208.308C113.493 208.767 113.289 209.348 113.02 210.05C112.83 210.483 112.57 210.7 112.24 210.7C111.92 210.7 111.66 210.483 111.46 210.05C111.166 209.27 110.962 208.694 110.849 208.321C110.832 208.252 110.81 208.161 110.784 208.048C110.758 207.927 110.737 207.831 110.719 207.762C110.702 207.684 110.68 207.597 110.654 207.502C110.637 207.398 110.62 207.311 110.602 207.242C110.585 207.173 110.563 207.099 110.537 207.021C110.511 206.943 110.485 206.882 110.459 206.839C110.442 206.787 110.42 206.739 110.394 206.696C110.377 206.653 110.355 206.622 110.329 206.605C110.312 206.579 110.29 206.566 110.264 206.566C110.178 206.566 110.117 206.718 110.082 207.021C110.048 207.324 110.017 207.844 109.991 208.581C109.983 208.85 109.978 209.114 109.978 209.374C109.978 210.206 110.022 210.969 110.108 211.662C110.108 211.679 110.108 211.697 110.108 211.714C110.108 211.861 110.009 211.957 109.809 212C109.584 212.035 109.359 212.052 109.133 212.052C108.847 212.052 108.613 212.035 108.431 212C108.258 211.957 108.171 211.844 108.171 211.662C108.223 208.698 108.384 205.881 108.652 203.212ZM116.829 211.142C116.829 210.466 116.833 209.959 116.842 209.621C116.842 209.448 116.872 209.352 116.933 209.335C117.002 209.309 117.05 209.296 117.076 209.296C117.154 209.296 117.223 209.344 117.284 209.439C117.916 210.193 118.792 210.57 119.91 210.57C120.378 210.57 120.746 210.483 121.015 210.31C121.283 210.137 121.418 209.885 121.418 209.556C121.418 209.227 121.266 208.936 120.963 208.685C120.659 208.425 120.291 208.2 119.858 208.009C119.433 207.81 119.004 207.597 118.571 207.372C118.146 207.147 117.782 206.848 117.479 206.475C117.175 206.094 117.024 205.652 117.024 205.149C117.024 204.404 117.314 203.827 117.895 203.42C118.475 203.013 119.221 202.809 120.131 202.809C121.023 202.809 121.79 202.974 122.432 203.303C122.562 203.39 122.627 203.511 122.627 203.667V205.006C122.627 205.171 122.592 205.266 122.523 205.292C122.462 205.318 122.419 205.331 122.393 205.331C122.323 205.331 122.254 205.283 122.185 205.188C121.621 204.616 120.963 204.33 120.209 204.33C119.801 204.33 119.446 204.408 119.143 204.564C118.848 204.72 118.701 204.937 118.701 205.214C118.701 205.5 118.852 205.769 119.156 206.02C119.459 206.271 119.827 206.505 120.261 206.722C120.703 206.939 121.14 207.168 121.574 207.411C122.007 207.654 122.375 207.97 122.679 208.36C122.982 208.741 123.134 209.17 123.134 209.647C123.134 210.401 122.848 210.999 122.276 211.441C121.712 211.874 120.95 212.091 119.988 212.091C119.528 212.091 119.017 212.039 118.454 211.935C117.89 211.822 117.409 211.679 117.011 211.506C116.889 211.454 116.829 211.333 116.829 211.142ZM126.785 203.069C127.4 202.922 127.998 202.848 128.579 202.848C128.882 202.848 129.155 202.865 129.398 202.9C129.554 202.926 129.641 203.017 129.658 203.173C129.771 204.863 129.836 207.71 129.853 211.714C129.853 211.887 129.766 211.983 129.593 212C129.246 212.035 129.008 212.052 128.878 212.052C128.618 212.052 128.388 212.035 128.189 212C128.016 211.965 127.929 211.874 127.929 211.727C127.929 211.718 127.929 211.705 127.929 211.688C128.016 210.908 128.081 209.942 128.124 208.789C128.176 207.636 128.202 206.7 128.202 205.981C128.202 205.756 128.202 205.548 128.202 205.357C128.193 205.054 128.159 204.841 128.098 204.72C128.037 204.599 127.938 204.538 127.799 204.538C127.574 204.538 127.314 204.629 127.019 204.811C126.958 204.854 126.898 204.876 126.837 204.876C126.794 204.876 126.737 204.863 126.668 204.837C126.607 204.802 126.573 204.711 126.564 204.564C126.547 203.836 126.538 203.446 126.538 203.394C126.538 203.212 126.62 203.104 126.785 203.069ZM130.412 207.619C130.412 206.076 130.698 204.889 131.27 204.057C131.851 203.225 132.661 202.809 133.701 202.809C134.741 202.809 135.547 203.225 136.119 204.057C136.7 204.889 136.99 206.076 136.99 207.619C136.99 209.118 136.704 210.236 136.132 210.973C135.552 211.718 134.741 212.091 133.701 212.091C132.661 212.091 131.851 211.723 131.27 210.986C130.698 210.241 130.412 209.118 130.412 207.619ZM132.089 207.541C132.089 208.529 132.232 209.27 132.518 209.764C132.804 210.267 133.199 210.518 133.701 210.518C134.204 210.518 134.598 210.271 134.884 209.777C135.17 209.274 135.313 208.529 135.313 207.541C135.313 206.536 135.17 205.76 134.884 205.214C134.598 204.659 134.204 204.382 133.701 204.382C133.199 204.382 132.804 204.659 132.518 205.214C132.232 205.76 132.089 206.536 132.089 207.541ZM137.458 207.619C137.458 206.076 137.744 204.889 138.316 204.057C138.897 203.225 139.707 202.809 140.747 202.809C141.787 202.809 142.593 203.225 143.165 204.057C143.746 204.889 144.036 206.076 144.036 207.619C144.036 209.118 143.75 210.236 143.178 210.973C142.598 211.718 141.787 212.091 140.747 212.091C139.707 212.091 138.897 211.723 138.316 210.986C137.744 210.241 137.458 209.118 137.458 207.619ZM139.135 207.541C139.135 208.529 139.278 209.27 139.564 209.764C139.85 210.267 140.245 210.518 140.747 210.518C141.25 210.518 141.644 210.271 141.93 209.777C142.216 209.274 142.359 208.529 142.359 207.541C142.359 206.536 142.216 205.76 141.93 205.214C141.644 204.659 141.25 204.382 140.747 204.382C140.245 204.382 139.85 204.659 139.564 205.214C139.278 205.76 139.135 206.536 139.135 207.541ZM144.543 209.621C144.543 209.439 144.574 209.335 144.634 209.309C144.704 209.283 144.751 209.27 144.777 209.27C144.855 209.27 144.929 209.326 144.998 209.439C145.466 210.193 146.337 210.57 147.611 210.57C148.071 210.57 148.439 210.431 148.716 210.154C149.002 209.868 149.145 209.508 149.145 209.075C149.145 207.801 148.591 207.164 147.481 207.164C147.057 207.164 146.684 207.173 146.363 207.19C146.043 207.199 145.778 207.216 145.57 207.242C145.371 207.268 145.25 207.281 145.206 207.281C145.18 207.281 145.154 207.281 145.128 207.281C145.042 207.281 144.955 207.255 144.868 207.203C144.782 207.142 144.738 207.056 144.738 206.943C144.738 205.626 144.799 204.447 144.92 203.407C144.938 203.242 144.977 203.121 145.037 203.043C145.098 202.965 145.193 202.917 145.323 202.9C145.549 202.874 146.35 202.861 147.728 202.861C148.82 202.861 149.613 202.874 150.107 202.9C150.298 202.917 150.406 203.034 150.432 203.251C150.441 203.442 150.458 203.754 150.484 204.187C150.51 204.612 150.528 204.911 150.536 205.084C150.536 205.093 150.536 205.106 150.536 205.123C150.536 205.288 150.497 205.379 150.419 205.396C150.35 205.413 150.302 205.422 150.276 205.422C150.181 205.422 150.103 205.361 150.042 205.24C149.644 204.564 148.929 204.226 147.897 204.226C146.883 204.226 146.363 204.534 146.337 205.149V205.617C146.346 205.79 146.485 205.912 146.753 205.981C147.022 206.05 147.312 206.085 147.624 206.085C147.694 206.085 147.767 206.085 147.845 206.085C147.923 206.085 147.997 206.085 148.066 206.085C148.89 206.085 149.57 206.315 150.107 206.774C150.653 207.233 150.926 208.048 150.926 209.218C150.926 210.102 150.627 210.804 150.029 211.324C149.44 211.835 148.66 212.091 147.689 212.091C147.23 212.091 146.719 212.039 146.155 211.935C145.592 211.822 145.111 211.679 144.712 211.506C144.582 211.454 144.517 211.333 144.517 211.142C144.517 210.804 144.526 210.297 144.543 209.621ZM154.419 211.662C155.554 207.849 156.438 205.019 157.071 203.173C157.114 203.034 157.24 202.943 157.448 202.9C157.673 202.865 157.859 202.848 158.007 202.848C158.076 202.848 158.284 202.865 158.631 202.9C158.752 202.926 158.813 202.982 158.813 203.069C158.813 203.095 158.808 203.125 158.8 203.16C157.673 206.904 156.793 209.738 156.161 211.662C156.091 211.861 155.961 211.974 155.771 212C155.519 212.035 155.294 212.052 155.095 212.052C154.965 212.052 154.796 212.035 154.588 212C154.466 211.983 154.406 211.913 154.406 211.792C154.406 211.757 154.41 211.714 154.419 211.662ZM159.218 211.662C160.353 207.849 161.237 205.019 161.87 203.173C161.913 203.034 162.039 202.943 162.247 202.9C162.472 202.865 162.658 202.848 162.806 202.848C162.875 202.848 163.083 202.865 163.43 202.9C163.551 202.926 163.612 202.982 163.612 203.069C163.612 203.095 163.607 203.125 163.599 203.16C162.472 206.904 161.592 209.738 160.96 211.662C160.89 211.861 160.76 211.974 160.57 212C160.318 212.035 160.093 212.052 159.894 212.052C159.764 212.052 159.595 212.035 159.387 212C159.265 211.983 159.205 211.913 159.205 211.792C159.205 211.757 159.209 211.714 159.218 211.662ZM164.016 211.662C165.152 207.849 166.036 205.019 166.668 203.173C166.712 203.034 166.837 202.943 167.045 202.9C167.271 202.865 167.457 202.848 167.604 202.848C167.674 202.848 167.882 202.865 168.228 202.9C168.35 202.926 168.41 202.982 168.41 203.069C168.41 203.095 168.406 203.125 168.397 203.16C167.271 206.904 166.391 209.738 165.758 211.662C165.689 211.861 165.559 211.974 165.368 212C165.117 212.035 164.892 212.052 164.692 212.052C164.562 212.052 164.393 212.035 164.185 212C164.064 211.983 164.003 211.913 164.003 211.792C164.003 211.757 164.008 211.714 164.016 211.662ZM168.815 211.662C169.951 207.849 170.835 205.019 171.467 203.173C171.511 203.034 171.636 202.943 171.844 202.9C172.07 202.865 172.256 202.848 172.403 202.848C172.473 202.848 172.681 202.865 173.027 202.9C173.149 202.926 173.209 202.982 173.209 203.069C173.209 203.095 173.205 203.125 173.196 203.16C172.07 206.904 171.19 209.738 170.557 211.662C170.488 211.861 170.358 211.974 170.167 212C169.916 212.035 169.691 212.052 169.491 212.052C169.361 212.052 169.192 212.035 168.984 212C168.863 211.983 168.802 211.913 168.802 211.792C168.802 211.757 168.807 211.714 168.815 211.662ZM177.623 204.122C178.265 203.247 179.114 202.809 180.171 202.809C181.003 202.809 181.762 202.995 182.446 203.368C182.559 203.446 182.615 203.559 182.615 203.706C182.615 203.732 182.615 203.754 182.615 203.771C182.589 204.482 182.563 205.049 182.537 205.474C182.537 205.578 182.511 205.652 182.459 205.695C182.416 205.73 182.373 205.747 182.329 205.747C182.303 205.747 182.264 205.738 182.212 205.721C182.169 205.695 182.126 205.634 182.082 205.539C181.666 204.794 181.021 204.421 180.145 204.421C179.703 204.421 179.326 204.616 179.014 205.006C178.702 205.387 178.503 205.86 178.416 206.423C178.408 206.466 178.403 206.51 178.403 206.553C178.403 206.622 178.421 206.674 178.455 206.709C178.49 206.744 178.525 206.761 178.559 206.761C178.611 206.761 178.676 206.731 178.754 206.67C179.231 206.349 179.846 206.189 180.6 206.189C181.259 206.189 181.831 206.458 182.316 206.995C182.802 207.532 183.044 208.187 183.044 208.958C183.044 209.981 182.767 210.761 182.212 211.298C181.666 211.827 180.925 212.091 179.989 212.091C178.941 212.091 178.122 211.723 177.532 210.986C176.952 210.249 176.661 209.162 176.661 207.723C176.661 206.198 176.982 204.997 177.623 204.122ZM178.923 210.102C179.244 210.397 179.625 210.544 180.067 210.544C180.501 210.544 180.83 210.397 181.055 210.102C181.289 209.807 181.406 209.426 181.406 208.958C181.406 208.473 181.298 208.083 181.081 207.788C180.865 207.493 180.561 207.346 180.171 207.346C179.764 207.346 179.37 207.493 178.988 207.788C178.616 208.083 178.429 208.442 178.429 208.867C178.429 209.396 178.594 209.807 178.923 210.102ZM183.777 205.591C183.985 205.392 184.25 205.292 184.57 205.292C184.9 205.292 185.164 205.392 185.363 205.591C185.571 205.782 185.675 206.05 185.675 206.397C185.675 206.735 185.571 206.999 185.363 207.19C185.164 207.381 184.9 207.476 184.57 207.476C184.25 207.476 183.985 207.381 183.777 207.19C183.569 206.999 183.465 206.735 183.465 206.397C183.465 206.059 183.569 205.79 183.777 205.591ZM183.777 210.193C183.985 210.002 184.25 209.907 184.57 209.907C184.9 209.907 185.164 210.007 185.363 210.206C185.571 210.397 185.675 210.665 185.675 211.012C185.675 211.35 185.571 211.614 185.363 211.805C185.164 211.996 184.9 212.091 184.57 212.091C184.25 212.091 183.985 211.996 183.777 211.805C183.569 211.606 183.465 211.337 183.465 210.999C183.465 210.661 183.569 210.392 183.777 210.193ZM186.21 211.545C186.245 210.427 186.284 209.716 186.327 209.413C186.336 209.248 186.375 209.162 186.444 209.153C186.514 209.144 186.553 209.14 186.561 209.14C186.674 209.14 186.756 209.205 186.808 209.335C187.19 210.176 187.857 210.596 188.81 210.596C189.304 210.596 189.72 210.457 190.058 210.18C190.405 209.894 190.578 209.491 190.578 208.971C190.578 208.416 190.474 208.018 190.266 207.775C190.058 207.532 189.725 207.411 189.265 207.411C188.581 207.411 188.078 207.55 187.757 207.827C187.688 207.914 187.614 207.957 187.536 207.957C187.519 207.957 187.484 207.953 187.432 207.944C187.38 207.927 187.354 207.844 187.354 207.697L187.367 206.527C187.367 206.449 187.393 206.388 187.445 206.345C187.506 206.293 187.567 206.267 187.627 206.267C187.645 206.267 187.658 206.267 187.666 206.267C188.195 206.336 188.758 206.371 189.356 206.371C190.162 206.371 190.565 206.024 190.565 205.331C190.565 204.984 190.422 204.724 190.136 204.551C189.859 204.369 189.499 204.278 189.057 204.278C188 204.278 187.276 204.612 186.886 205.279C186.817 205.4 186.735 205.461 186.639 205.461C186.631 205.461 186.592 205.457 186.522 205.448C186.462 205.431 186.431 205.353 186.431 205.214C186.431 205.197 186.431 205.184 186.431 205.175C186.466 204.326 186.501 203.736 186.535 203.407C186.544 203.26 186.639 203.164 186.821 203.121C187.532 202.913 188.316 202.809 189.174 202.809C190.015 202.809 190.713 202.978 191.267 203.316C191.822 203.645 192.099 204.135 192.099 204.785C192.099 205.695 191.705 206.336 190.916 206.709C190.83 206.761 190.786 206.813 190.786 206.865C190.786 206.865 190.786 206.882 190.786 206.917C190.795 206.952 190.843 206.991 190.929 207.034C191.415 207.233 191.761 207.506 191.969 207.853C192.186 208.191 192.294 208.637 192.294 209.192C192.294 210.119 191.982 210.834 191.358 211.337C190.734 211.84 189.976 212.091 189.083 212.091C188.078 212.091 187.203 212 186.457 211.818C186.293 211.766 186.21 211.679 186.21 211.558C186.21 211.558 186.21 211.554 186.21 211.545ZM192.759 207.619C192.759 206.076 193.045 204.889 193.617 204.057C194.198 203.225 195.008 202.809 196.048 202.809C197.088 202.809 197.894 203.225 198.466 204.057C199.047 204.889 199.337 206.076 199.337 207.619C199.337 209.118 199.051 210.236 198.479 210.973C197.898 211.718 197.088 212.091 196.048 212.091C195.008 212.091 194.198 211.723 193.617 210.986C193.045 210.241 192.759 209.118 192.759 207.619ZM194.436 207.541C194.436 208.529 194.579 209.27 194.865 209.764C195.151 210.267 195.545 210.518 196.048 210.518C196.551 210.518 196.945 210.271 197.231 209.777C197.517 209.274 197.66 208.529 197.66 207.541C197.66 206.536 197.517 205.76 197.231 205.214C196.945 204.659 196.551 204.382 196.048 204.382C195.545 204.382 195.151 204.659 194.865 205.214C194.579 205.76 194.436 206.536 194.436 207.541ZM203.126 203.186C203.126 203.013 203.212 202.917 203.386 202.9C204.235 202.839 205.002 202.809 205.687 202.809C206.735 202.809 207.55 202.995 208.131 203.368C208.711 203.741 209.002 204.282 209.002 204.993C209.002 205.938 208.616 206.722 207.845 207.346C207.082 207.961 206.077 208.299 204.829 208.36C204.638 208.386 204.543 208.551 204.543 208.854C204.543 209.296 204.603 209.846 204.725 210.505C204.855 211.155 204.924 211.541 204.933 211.662C204.933 211.671 204.933 211.684 204.933 211.701C204.933 211.77 204.907 211.835 204.855 211.896C204.803 211.948 204.733 211.983 204.647 212C204.465 212.035 204.226 212.052 203.932 212.052C203.594 212.052 203.347 212.035 203.191 212C203.009 211.957 202.918 211.861 202.918 211.714C202.918 208.057 202.987 205.214 203.126 203.186ZM204.608 206.839C204.634 207.047 204.746 207.151 204.946 207.151C204.98 207.151 205.015 207.147 205.05 207.138C205.795 207.095 206.376 206.9 206.792 206.553C207.208 206.198 207.416 205.777 207.416 205.292C207.416 204.581 206.844 204.226 205.7 204.226C205.526 204.226 205.292 204.235 204.998 204.252C204.772 204.261 204.642 204.382 204.608 204.616C204.573 204.919 204.556 205.257 204.556 205.63C204.556 206.003 204.573 206.406 204.608 206.839ZM209.91 203.212C209.919 203.047 210.014 202.943 210.196 202.9C210.404 202.865 210.625 202.848 210.859 202.848C211.111 202.848 211.349 202.865 211.574 202.9C211.739 202.926 211.856 202.965 211.925 203.017C212.003 203.06 212.068 203.147 212.12 203.277C212.172 203.424 212.233 203.641 212.302 203.927C212.372 204.204 212.45 204.534 212.536 204.915C212.632 205.296 212.701 205.574 212.744 205.747C213.065 206.9 213.316 207.476 213.498 207.476C213.672 207.476 213.919 206.895 214.239 205.734C214.283 205.561 214.348 205.288 214.434 204.915C214.53 204.542 214.612 204.213 214.681 203.927C214.751 203.641 214.811 203.424 214.863 203.277C214.889 203.182 214.928 203.112 214.98 203.069C215.041 203.017 215.097 202.982 215.149 202.965C215.21 202.939 215.297 202.917 215.409 202.9C215.635 202.865 215.86 202.848 216.085 202.848C216.328 202.848 216.562 202.865 216.787 202.9C216.969 202.943 217.065 203.047 217.073 203.212C217.342 205.907 217.502 208.724 217.554 211.662C217.554 211.844 217.468 211.957 217.294 212C217.112 212.035 216.887 212.052 216.618 212.052C216.376 212.052 216.142 212.035 215.916 212C215.717 211.957 215.617 211.861 215.617 211.714C215.617 211.697 215.617 211.679 215.617 211.662C215.704 210.969 215.747 210.206 215.747 209.374C215.747 209.114 215.743 208.85 215.734 208.581C215.708 207.844 215.678 207.329 215.643 207.034C215.609 206.731 215.548 206.579 215.461 206.579C215.418 206.579 215.375 206.609 215.331 206.67C215.297 206.731 215.258 206.826 215.214 206.956C215.18 207.086 215.145 207.212 215.11 207.333C215.084 207.446 215.045 207.606 214.993 207.814C214.95 208.022 214.915 208.187 214.889 208.308C214.751 208.767 214.547 209.348 214.278 210.05C214.088 210.483 213.828 210.7 213.498 210.7C213.178 210.7 212.918 210.483 212.718 210.05C212.424 209.27 212.22 208.694 212.107 208.321C212.09 208.252 212.068 208.161 212.042 208.048C212.016 207.927 211.995 207.831 211.977 207.762C211.96 207.684 211.938 207.597 211.912 207.502C211.895 207.398 211.878 207.311 211.86 207.242C211.843 207.173 211.821 207.099 211.795 207.021C211.769 206.943 211.743 206.882 211.717 206.839C211.7 206.787 211.678 206.739 211.652 206.696C211.635 206.653 211.613 206.622 211.587 206.605C211.57 206.579 211.548 206.566 211.522 206.566C211.436 206.566 211.375 206.718 211.34 207.021C211.306 207.324 211.275 207.844 211.249 208.581C211.241 208.85 211.236 209.114 211.236 209.374C211.236 210.206 211.28 210.969 211.366 211.662C211.366 211.679 211.366 211.697 211.366 211.714C211.366 211.861 211.267 211.957 211.067 212C210.842 212.035 210.617 212.052 210.391 212.052C210.105 212.052 209.871 212.035 209.689 212C209.516 211.957 209.429 211.844 209.429 211.662C209.481 208.698 209.642 205.881 209.91 203.212Z" fill="#FBF2E6"/>
<line x1="94.8396" y1="193.5" x2="303.614" y2="193.5" stroke="#FBF2E6" stroke-linecap="round"/>
<path d="M8.4109 159.702C9.27033 158.782 10.7297 158.782 11.5891 159.702C12.1001 160.249 12.8567 160.495 13.5918 160.353C14.8281 160.113 16.0088 160.971 16.163 162.221C16.2547 162.964 16.7223 163.608 17.4007 163.924C18.5418 164.457 18.9927 165.845 18.3828 166.947C18.0202 167.602 18.0202 168.398 18.3828 169.053C18.9927 170.155 18.5418 171.543 17.4007 172.076C16.7223 172.392 16.2547 173.036 16.163 173.779C16.0088 175.029 14.8281 175.887 13.5918 175.647C12.8567 175.505 12.1001 175.751 11.5891 176.298C10.7297 177.218 9.27033 177.218 8.4109 176.298C7.89994 175.751 7.1433 175.505 6.40823 175.647C5.17186 175.887 3.99122 175.029 3.83702 173.779C3.74534 173.036 3.27771 172.392 2.5993 172.076C1.45823 171.543 1.00727 170.155 1.61718 169.053C1.9798 168.398 1.9798 167.602 1.61718 166.947C1.00727 165.845 1.45823 164.457 2.5993 163.924C3.27771 163.608 3.74534 162.964 3.83702 162.221C3.99122 160.971 5.17186 160.113 6.40823 160.353C7.1433 160.495 7.89994 160.249 8.4109 159.702Z" fill="#5481BF"/>
</svg>
