<svg width="375" height="134" viewBox="0 0 375 134" fill="none" xmlns="http://www.w3.org/2000/svg">
    <g filter="url(#filter0_d_940_145)">
        <rect width="372" height="128" rx="15" fill="#F2E3C6" />
        <rect x="1" y="1" width="370" height="126" rx="14" stroke="black" stroke-width="2" />
    </g>
    <path
        d="M121.608 99.156C121.024 99.156 120.48 99.042 119.976 98.814C119.476 98.586 119.04 98.272 118.668 97.872C118.296 97.468 118.004 97.004 117.792 96.48C117.584 95.952 117.48 95.388 117.48 94.788C117.48 94.156 117.592 93.576 117.816 93.048C118.044 92.52 118.354 92.062 118.746 91.674C119.138 91.286 119.582 90.986 120.078 90.774C120.578 90.562 121.098 90.456 121.638 90.456C122.242 90.456 122.828 90.598 123.396 90.882C123.968 91.162 124.472 91.596 124.908 92.184L123.6 92.886C123.332 92.558 123.024 92.314 122.676 92.154C122.332 91.99 121.98 91.908 121.62 91.908C121.268 91.908 120.93 91.98 120.606 92.124C120.286 92.268 120 92.472 119.748 92.736C119.5 92.996 119.304 93.304 119.16 93.66C119.016 94.012 118.944 94.398 118.944 94.818C118.944 95.214 119.014 95.588 119.154 95.94C119.294 96.288 119.486 96.594 119.73 96.858C119.978 97.118 120.264 97.322 120.588 97.47C120.912 97.618 121.26 97.692 121.632 97.692C121.88 97.692 122.122 97.654 122.358 97.578C122.598 97.498 122.822 97.384 123.03 97.236C123.242 97.088 123.43 96.908 123.594 96.696C123.762 96.484 123.902 96.244 124.014 95.976H122.484V94.698H125.736C125.752 95.31 125.656 95.884 125.448 96.42C125.24 96.956 124.946 97.43 124.566 97.842C124.186 98.254 123.744 98.576 123.24 98.808C122.736 99.04 122.192 99.156 121.608 99.156ZM126.533 99L128.165 90.6H129.377L131.423 95.982L133.469 90.6H134.681L136.313 99H134.819L133.811 93.804L131.921 98.808H130.919L129.029 93.804L128.027 99H126.533ZM138.257 94.506C138.049 94.506 137.871 94.434 137.723 94.29C137.579 94.142 137.507 93.962 137.507 93.75C137.507 93.546 137.579 93.37 137.723 93.222C137.871 93.074 138.049 93 138.257 93C138.465 93 138.643 93.074 138.791 93.222C138.939 93.37 139.013 93.546 139.013 93.75C139.013 93.962 138.939 94.142 138.791 94.29C138.643 94.434 138.465 94.506 138.257 94.506ZM138.257 99.156C138.049 99.156 137.871 99.084 137.723 98.94C137.579 98.792 137.507 98.612 137.507 98.4C137.507 98.196 137.579 98.02 137.723 97.872C137.871 97.724 138.049 97.65 138.257 97.65C138.465 97.65 138.643 97.724 138.791 97.872C138.939 98.02 139.013 98.196 139.013 98.4C139.013 98.612 138.939 98.792 138.791 98.94C138.643 99.084 138.465 99.156 138.257 99.156ZM148.023 93H149.031V99.192C149.031 99.588 148.945 99.956 148.773 100.296C148.605 100.64 148.377 100.938 148.089 101.19C147.801 101.446 147.473 101.644 147.105 101.784C146.737 101.928 146.353 102 145.953 102C145.537 102 145.135 101.906 144.747 101.718C144.359 101.534 144.019 101.286 143.727 100.974C143.439 100.666 143.231 100.32 143.103 99.936L144.027 99.516C144.103 99.792 144.239 100.04 144.435 100.26C144.635 100.484 144.867 100.66 145.131 100.788C145.399 100.92 145.673 100.986 145.953 100.986C146.217 100.986 146.471 100.94 146.715 100.848C146.963 100.756 147.185 100.628 147.381 100.464C147.581 100.304 147.737 100.114 147.849 99.894C147.965 99.678 148.023 99.444 148.023 99.192V97.998C147.819 98.342 147.549 98.622 147.213 98.838C146.881 99.05 146.493 99.156 146.049 99.156C145.625 99.156 145.227 99.074 144.855 98.91C144.483 98.746 144.157 98.52 143.877 98.232C143.597 97.94 143.377 97.604 143.217 97.224C143.057 96.844 142.977 96.436 142.977 96C142.977 95.564 143.057 95.156 143.217 94.776C143.377 94.392 143.597 94.056 143.877 93.768C144.157 93.476 144.483 93.248 144.855 93.084C145.227 92.92 145.625 92.838 146.049 92.838C146.493 92.838 146.881 92.944 147.213 93.156C147.549 93.368 147.819 93.648 148.023 93.996V93ZM146.055 98.178C146.443 98.178 146.779 98.078 147.063 97.878C147.351 97.678 147.573 97.412 147.729 97.08C147.885 96.748 147.963 96.388 147.963 96C147.963 95.6 147.883 95.236 147.723 94.908C147.567 94.576 147.345 94.312 147.057 94.116C146.773 93.916 146.439 93.816 146.055 93.816C145.679 93.816 145.335 93.914 145.023 94.11C144.711 94.306 144.463 94.57 144.279 94.902C144.099 95.23 144.009 95.596 144.009 96C144.009 96.404 144.101 96.772 144.285 97.104C144.473 97.432 144.721 97.694 145.029 97.89C145.341 98.082 145.683 98.178 146.055 98.178ZM153.032 99.156C152.48 99.156 151.976 99.014 151.52 98.73C151.068 98.446 150.706 98.066 150.434 97.59C150.166 97.11 150.032 96.58 150.032 96C150.032 95.56 150.11 95.15 150.266 94.77C150.422 94.386 150.636 94.05 150.908 93.762C151.184 93.47 151.504 93.242 151.868 93.078C152.232 92.914 152.62 92.832 153.032 92.832C153.484 92.832 153.898 92.924 154.274 93.108C154.654 93.288 154.978 93.54 155.246 93.864C155.518 94.188 155.72 94.564 155.852 94.992C155.988 95.42 156.038 95.878 156.002 96.366H151.106C151.154 96.706 151.266 97.01 151.442 97.278C151.618 97.542 151.842 97.752 152.114 97.908C152.39 98.064 152.696 98.144 153.032 98.148C153.392 98.148 153.718 98.056 154.01 97.872C154.302 97.684 154.538 97.428 154.718 97.104L155.744 97.344C155.504 97.876 155.142 98.312 154.658 98.652C154.174 98.988 153.632 99.156 153.032 99.156ZM151.076 95.574H154.988C154.956 95.238 154.848 94.932 154.664 94.656C154.48 94.376 154.246 94.152 153.962 93.984C153.678 93.816 153.368 93.732 153.032 93.732C152.696 93.732 152.388 93.814 152.108 93.978C151.828 94.142 151.596 94.364 151.412 94.644C151.232 94.92 151.12 95.23 151.076 95.574ZM162.317 95.268V99H161.309V95.49C161.309 95.186 161.235 94.91 161.087 94.662C160.939 94.414 160.741 94.218 160.493 94.074C160.245 93.926 159.969 93.852 159.665 93.852C159.365 93.852 159.089 93.926 158.837 94.074C158.589 94.218 158.391 94.414 158.243 94.662C158.095 94.91 158.021 95.186 158.021 95.49V99H157.013V93H158.021V93.75C158.233 93.47 158.501 93.248 158.825 93.084C159.149 92.916 159.501 92.832 159.881 92.832C160.329 92.832 160.737 92.942 161.105 93.162C161.477 93.378 161.771 93.67 161.987 94.038C162.207 94.406 162.317 94.816 162.317 95.268ZM166.04 99.156C165.488 99.156 164.984 99.014 164.528 98.73C164.076 98.446 163.714 98.066 163.442 97.59C163.174 97.11 163.04 96.58 163.04 96C163.04 95.56 163.118 95.15 163.274 94.77C163.43 94.386 163.644 94.05 163.916 93.762C164.192 93.47 164.512 93.242 164.876 93.078C165.24 92.914 165.628 92.832 166.04 92.832C166.492 92.832 166.906 92.924 167.282 93.108C167.662 93.288 167.986 93.54 168.254 93.864C168.526 94.188 168.728 94.564 168.86 94.992C168.996 95.42 169.046 95.878 169.01 96.366H164.114C164.162 96.706 164.274 97.01 164.45 97.278C164.626 97.542 164.85 97.752 165.122 97.908C165.398 98.064 165.704 98.144 166.04 98.148C166.4 98.148 166.726 98.056 167.018 97.872C167.31 97.684 167.546 97.428 167.726 97.104L168.752 97.344C168.512 97.876 168.15 98.312 167.666 98.652C167.182 98.988 166.64 99.156 166.04 99.156ZM164.084 95.574H167.996C167.964 95.238 167.856 94.932 167.672 94.656C167.488 94.376 167.254 94.152 166.97 93.984C166.686 93.816 166.376 93.732 166.04 93.732C165.704 93.732 165.396 93.814 165.116 93.978C164.836 94.142 164.604 94.364 164.42 94.644C164.24 94.92 164.128 95.23 164.084 95.574ZM170.021 99V93H171.029V93.75C171.241 93.47 171.509 93.248 171.833 93.084C172.157 92.916 172.509 92.832 172.889 92.832C173.121 92.832 173.345 92.862 173.561 92.922L173.153 93.93C172.989 93.878 172.829 93.852 172.673 93.852C172.373 93.852 172.097 93.926 171.845 94.074C171.597 94.218 171.399 94.414 171.251 94.662C171.103 94.91 171.029 95.186 171.029 95.49V99H170.021ZM178.817 93H179.825V99H178.817L178.775 97.986C178.587 98.334 178.327 98.616 177.995 98.832C177.667 99.048 177.275 99.156 176.819 99.156C176.379 99.156 175.967 99.074 175.583 98.91C175.199 98.742 174.859 98.512 174.563 98.22C174.271 97.924 174.043 97.584 173.879 97.2C173.715 96.816 173.633 96.402 173.633 95.958C173.633 95.53 173.713 95.126 173.873 94.746C174.033 94.366 174.255 94.034 174.539 93.75C174.827 93.462 175.159 93.238 175.535 93.078C175.911 92.914 176.315 92.832 176.747 92.832C177.219 92.832 177.633 92.944 177.989 93.168C178.345 93.388 178.633 93.674 178.853 94.026L178.817 93ZM176.801 98.178C177.197 98.178 177.539 98.082 177.827 97.89C178.119 97.694 178.343 97.43 178.499 97.098C178.659 96.766 178.739 96.4 178.739 96C178.739 95.592 178.659 95.224 178.499 94.896C178.339 94.564 178.113 94.302 177.821 94.11C177.533 93.914 177.193 93.816 176.801 93.816C176.405 93.816 176.045 93.914 175.721 94.11C175.397 94.306 175.139 94.57 174.947 94.902C174.759 95.23 174.665 95.596 174.665 96C174.665 96.404 174.763 96.772 174.959 97.104C175.155 97.432 175.415 97.694 175.739 97.89C176.063 98.082 176.417 98.178 176.801 98.178ZM181.095 99V90H182.103V99H181.095ZM186.427 99V93H187.435V93.75C187.647 93.47 187.913 93.248 188.233 93.084C188.557 92.916 188.909 92.832 189.289 92.832C189.733 92.832 190.139 92.94 190.507 93.156C190.875 93.372 191.165 93.658 191.377 94.014C191.589 93.658 191.877 93.372 192.241 93.156C192.609 92.94 193.013 92.832 193.453 92.832C193.905 92.832 194.315 92.942 194.683 93.162C195.051 93.378 195.343 93.67 195.559 94.038C195.779 94.406 195.889 94.816 195.889 95.268V99H194.881V95.508C194.881 95.212 194.809 94.938 194.665 94.686C194.521 94.434 194.327 94.232 194.083 94.08C193.839 93.928 193.569 93.852 193.273 93.852C192.977 93.852 192.707 93.924 192.463 94.068C192.219 94.208 192.025 94.404 191.881 94.656C191.737 94.904 191.665 95.188 191.665 95.508V99H190.657V95.508C190.657 95.188 190.585 94.904 190.441 94.656C190.297 94.404 190.101 94.208 189.853 94.068C189.609 93.924 189.339 93.852 189.043 93.852C188.751 93.852 188.481 93.928 188.233 94.08C187.989 94.232 187.795 94.434 187.651 94.686C187.507 94.938 187.435 95.212 187.435 95.508V99H186.427ZM199.614 99.156C199.062 99.156 198.558 99.014 198.102 98.73C197.65 98.446 197.288 98.066 197.016 97.59C196.748 97.11 196.614 96.58 196.614 96C196.614 95.56 196.692 95.15 196.848 94.77C197.004 94.386 197.218 94.05 197.49 93.762C197.766 93.47 198.086 93.242 198.45 93.078C198.814 92.914 199.202 92.832 199.614 92.832C200.066 92.832 200.48 92.924 200.856 93.108C201.236 93.288 201.56 93.54 201.828 93.864C202.1 94.188 202.302 94.564 202.434 94.992C202.57 95.42 202.62 95.878 202.584 96.366H197.688C197.736 96.706 197.848 97.01 198.024 97.278C198.2 97.542 198.424 97.752 198.696 97.908C198.972 98.064 199.278 98.144 199.614 98.148C199.974 98.148 200.3 98.056 200.592 97.872C200.884 97.684 201.12 97.428 201.3 97.104L202.326 97.344C202.086 97.876 201.724 98.312 201.24 98.652C200.756 98.988 200.214 99.156 199.614 99.156ZM197.658 95.574H201.57C201.538 95.238 201.43 94.932 201.246 94.656C201.062 94.376 200.828 94.152 200.544 93.984C200.26 93.816 199.95 93.732 199.614 93.732C199.278 93.732 198.97 93.814 198.69 93.978C198.41 94.142 198.178 94.364 197.994 94.644C197.814 94.92 197.702 95.23 197.658 95.574ZM206.2 99.156C205.648 99.156 205.144 99.014 204.688 98.73C204.236 98.446 203.874 98.066 203.602 97.59C203.334 97.11 203.2 96.58 203.2 96C203.2 95.56 203.278 95.15 203.434 94.77C203.59 94.386 203.804 94.05 204.076 93.762C204.352 93.47 204.672 93.242 205.036 93.078C205.4 92.914 205.788 92.832 206.2 92.832C206.652 92.832 207.066 92.924 207.442 93.108C207.822 93.288 208.146 93.54 208.414 93.864C208.686 94.188 208.888 94.564 209.02 94.992C209.156 95.42 209.206 95.878 209.17 96.366H204.274C204.322 96.706 204.434 97.01 204.61 97.278C204.786 97.542 205.01 97.752 205.282 97.908C205.558 98.064 205.864 98.144 206.2 98.148C206.56 98.148 206.886 98.056 207.178 97.872C207.47 97.684 207.706 97.428 207.886 97.104L208.912 97.344C208.672 97.876 208.31 98.312 207.826 98.652C207.342 98.988 206.8 99.156 206.2 99.156ZM204.244 95.574H208.156C208.124 95.238 208.016 94.932 207.832 94.656C207.648 94.376 207.414 94.152 207.13 93.984C206.846 93.816 206.536 93.732 206.2 93.732C205.864 93.732 205.556 93.814 205.276 93.978C204.996 94.142 204.764 94.364 204.58 94.644C204.4 94.92 204.288 95.23 204.244 95.574ZM213.219 94.008H211.857L211.851 99H210.843L210.849 94.008H209.817V93H210.849L210.843 91.116H211.851L211.857 93H213.219V94.008ZM214.236 93H215.244V99H214.236V93ZM214.752 92.022C214.592 92.022 214.458 91.97 214.35 91.866C214.242 91.762 214.188 91.632 214.188 91.476C214.188 91.32 214.242 91.19 214.35 91.086C214.458 90.982 214.59 90.93 214.746 90.93C214.902 90.93 215.034 90.982 215.142 91.086C215.25 91.19 215.304 91.32 215.304 91.476C215.304 91.632 215.25 91.762 215.142 91.866C215.038 91.97 214.908 92.022 214.752 92.022ZM221.954 95.268V99H220.946V95.49C220.946 95.186 220.872 94.91 220.724 94.662C220.576 94.414 220.378 94.218 220.13 94.074C219.882 93.926 219.606 93.852 219.302 93.852C219.002 93.852 218.726 93.926 218.474 94.074C218.226 94.218 218.028 94.414 217.88 94.662C217.732 94.91 217.658 95.186 217.658 95.49V99H216.65V93H217.658V93.75C217.87 93.47 218.138 93.248 218.462 93.084C218.786 92.916 219.138 92.832 219.518 92.832C219.966 92.832 220.374 92.942 220.742 93.162C221.114 93.378 221.408 93.67 221.624 94.038C221.844 94.406 221.954 94.816 221.954 95.268ZM227.722 93H228.73V99.192C228.73 99.588 228.644 99.956 228.472 100.296C228.304 100.64 228.076 100.938 227.788 101.19C227.5 101.446 227.172 101.644 226.804 101.784C226.436 101.928 226.052 102 225.652 102C225.236 102 224.834 101.906 224.446 101.718C224.058 101.534 223.718 101.286 223.426 100.974C223.138 100.666 222.93 100.32 222.802 99.936L223.726 99.516C223.802 99.792 223.938 100.04 224.134 100.26C224.334 100.484 224.566 100.66 224.83 100.788C225.098 100.92 225.372 100.986 225.652 100.986C225.916 100.986 226.17 100.94 226.414 100.848C226.662 100.756 226.884 100.628 227.08 100.464C227.28 100.304 227.436 100.114 227.548 99.894C227.664 99.678 227.722 99.444 227.722 99.192V97.998C227.518 98.342 227.248 98.622 226.912 98.838C226.58 99.05 226.192 99.156 225.748 99.156C225.324 99.156 224.926 99.074 224.554 98.91C224.182 98.746 223.856 98.52 223.576 98.232C223.296 97.94 223.076 97.604 222.916 97.224C222.756 96.844 222.676 96.436 222.676 96C222.676 95.564 222.756 95.156 222.916 94.776C223.076 94.392 223.296 94.056 223.576 93.768C223.856 93.476 224.182 93.248 224.554 93.084C224.926 92.92 225.324 92.838 225.748 92.838C226.192 92.838 226.58 92.944 226.912 93.156C227.248 93.368 227.518 93.648 227.722 93.996V93ZM225.754 98.178C226.142 98.178 226.478 98.078 226.762 97.878C227.05 97.678 227.272 97.412 227.428 97.08C227.584 96.748 227.662 96.388 227.662 96C227.662 95.6 227.582 95.236 227.422 94.908C227.266 94.576 227.044 94.312 226.756 94.116C226.472 93.916 226.138 93.816 225.754 93.816C225.378 93.816 225.034 93.914 224.722 94.11C224.41 94.306 224.162 94.57 223.978 94.902C223.798 95.23 223.708 95.596 223.708 96C223.708 96.404 223.8 96.772 223.984 97.104C224.172 97.432 224.42 97.694 224.728 97.89C225.04 98.082 225.382 98.178 225.754 98.178Z"
        fill="black" />
    <g filter="url(#filter1_d_940_145)">
        <rect x="117" y="13" width="119.92" height="25" rx="6" fill="#DF7F35" />
        <rect x="117" y="13" width="119.92" height="25" rx="6" stroke="black" />
    </g>
    <path
        d="M137.664 23H139.32V29.084C139.32 29.528 139.23 29.928 139.05 30.284C138.87 30.644 138.624 30.952 138.312 31.208C138.004 31.464 137.648 31.66 137.244 31.796C136.844 31.932 136.42 32 135.972 32C135.548 32 135.142 31.916 134.754 31.748C134.366 31.584 134.022 31.356 133.722 31.064C133.422 30.772 133.188 30.436 133.02 30.056L134.532 29.366C134.616 29.566 134.73 29.738 134.874 29.882C135.022 30.026 135.19 30.136 135.378 30.212C135.57 30.292 135.768 30.332 135.972 30.332C136.192 30.332 136.402 30.306 136.602 30.254C136.806 30.202 136.988 30.124 137.148 30.02C137.308 29.916 137.434 29.786 137.526 29.63C137.618 29.474 137.664 29.292 137.664 29.084V28.388C137.48 28.616 137.256 28.802 136.992 28.946C136.732 29.086 136.43 29.156 136.086 29.156C135.654 29.156 135.248 29.074 134.868 28.91C134.492 28.746 134.16 28.52 133.872 28.232C133.584 27.94 133.358 27.604 133.194 27.224C133.03 26.844 132.948 26.436 132.948 26C132.948 25.564 133.03 25.156 133.194 24.776C133.358 24.396 133.584 24.062 133.872 23.774C134.16 23.482 134.492 23.254 134.868 23.09C135.248 22.926 135.654 22.844 136.086 22.844C136.43 22.844 136.732 22.916 136.992 23.06C137.256 23.2 137.48 23.384 137.664 23.612V23ZM136.11 27.566C136.382 27.566 136.628 27.496 136.848 27.356C137.068 27.212 137.24 27.022 137.364 26.786C137.492 26.55 137.556 26.288 137.556 26C137.556 25.712 137.492 25.45 137.364 25.214C137.24 24.974 137.068 24.784 136.848 24.644C136.628 24.504 136.382 24.434 136.11 24.434C135.842 24.434 135.596 24.504 135.372 24.644C135.152 24.784 134.976 24.974 134.844 25.214C134.712 25.45 134.646 25.712 134.646 26C134.646 26.288 134.712 26.552 134.844 26.792C134.976 27.028 135.152 27.216 135.372 27.356C135.596 27.496 135.842 27.566 136.11 27.566ZM143.237 29.156C142.685 29.156 142.181 29.014 141.725 28.73C141.273 28.446 140.911 28.064 140.639 27.584C140.371 27.104 140.237 26.574 140.237 25.994C140.237 25.558 140.315 25.15 140.471 24.77C140.627 24.386 140.841 24.05 141.113 23.762C141.389 23.47 141.709 23.242 142.073 23.078C142.437 22.914 142.825 22.832 143.237 22.832C143.713 22.832 144.147 22.934 144.539 23.138C144.935 23.342 145.269 23.62 145.541 23.972C145.817 24.324 146.013 24.722 146.129 25.166C146.249 25.61 146.269 26.072 146.189 26.552H142.025C142.077 26.728 142.157 26.888 142.265 27.032C142.377 27.172 142.513 27.284 142.673 27.368C142.837 27.452 143.025 27.496 143.237 27.5C143.445 27.504 143.637 27.456 143.813 27.356C143.989 27.256 144.139 27.122 144.263 26.954L145.955 27.344C145.711 27.876 145.347 28.312 144.863 28.652C144.379 28.988 143.837 29.156 143.237 29.156ZM141.965 25.328H144.515C144.463 25.128 144.375 24.948 144.251 24.788C144.127 24.628 143.977 24.502 143.801 24.41C143.629 24.318 143.441 24.272 143.237 24.272C143.037 24.272 142.849 24.318 142.673 24.41C142.501 24.502 142.353 24.628 142.229 24.788C142.109 24.944 142.021 25.124 141.965 25.328ZM152.722 25.184V29H151.066V25.64C151.066 25.428 151.014 25.238 150.91 25.07C150.81 24.898 150.674 24.762 150.502 24.662C150.334 24.562 150.146 24.512 149.938 24.512C149.73 24.512 149.54 24.562 149.368 24.662C149.196 24.762 149.06 24.898 148.96 25.07C148.86 25.238 148.81 25.428 148.81 25.64V29H147.154L147.148 23H148.804L148.81 23.444C149.01 23.252 149.244 23.102 149.512 22.994C149.784 22.886 150.07 22.832 150.37 22.832C150.806 22.832 151.2 22.938 151.552 23.15C151.908 23.362 152.192 23.646 152.404 24.002C152.616 24.354 152.722 24.748 152.722 25.184ZM156.444 29.156C155.892 29.156 155.388 29.014 154.932 28.73C154.48 28.446 154.118 28.064 153.846 27.584C153.578 27.104 153.444 26.574 153.444 25.994C153.444 25.558 153.522 25.15 153.678 24.77C153.834 24.386 154.048 24.05 154.32 23.762C154.596 23.47 154.916 23.242 155.28 23.078C155.644 22.914 156.032 22.832 156.444 22.832C156.92 22.832 157.354 22.934 157.746 23.138C158.142 23.342 158.476 23.62 158.748 23.972C159.024 24.324 159.22 24.722 159.336 25.166C159.456 25.61 159.476 26.072 159.396 26.552H155.232C155.284 26.728 155.364 26.888 155.472 27.032C155.584 27.172 155.72 27.284 155.88 27.368C156.044 27.452 156.232 27.496 156.444 27.5C156.652 27.504 156.844 27.456 157.02 27.356C157.196 27.256 157.346 27.122 157.47 26.954L159.162 27.344C158.918 27.876 158.554 28.312 158.07 28.652C157.586 28.988 157.044 29.156 156.444 29.156ZM155.172 25.328H157.722C157.67 25.128 157.582 24.948 157.458 24.788C157.334 24.628 157.184 24.502 157.008 24.41C156.836 24.318 156.648 24.272 156.444 24.272C156.244 24.272 156.056 24.318 155.88 24.41C155.708 24.502 155.56 24.628 155.436 24.788C155.316 24.944 155.228 25.124 155.172 25.328ZM160.361 29L160.355 23H162.011L162.017 23.444C162.217 23.252 162.451 23.102 162.719 22.994C162.991 22.886 163.277 22.832 163.577 22.832C163.797 22.832 164.017 22.864 164.237 22.928L163.583 24.602C163.439 24.542 163.293 24.512 163.145 24.512C162.937 24.512 162.747 24.562 162.575 24.662C162.403 24.762 162.267 24.898 162.167 25.07C162.067 25.238 162.017 25.428 162.017 25.64V29H160.361ZM169.012 23H170.668V29H169.006L168.928 28.376C168.772 28.608 168.572 28.796 168.328 28.94C168.084 29.084 167.798 29.156 167.47 29.156C167.022 29.156 166.604 29.072 166.216 28.904C165.828 28.736 165.486 28.504 165.19 28.208C164.894 27.912 164.662 27.57 164.494 27.182C164.33 26.79 164.248 26.37 164.248 25.922C164.248 25.494 164.326 25.094 164.482 24.722C164.638 24.35 164.858 24.022 165.142 23.738C165.426 23.454 165.752 23.232 166.12 23.072C166.492 22.912 166.892 22.832 167.32 22.832C167.688 22.832 168.018 22.91 168.31 23.066C168.606 23.222 168.864 23.42 169.084 23.66L169.012 23ZM167.428 27.566C167.7 27.566 167.946 27.496 168.166 27.356C168.386 27.216 168.56 27.028 168.688 26.792C168.816 26.552 168.88 26.288 168.88 26C168.88 25.708 168.816 25.444 168.688 25.208C168.56 24.972 168.386 24.784 168.166 24.644C167.946 24.504 167.7 24.434 167.428 24.434C167.152 24.434 166.902 24.504 166.678 24.644C166.454 24.784 166.276 24.974 166.144 25.214C166.012 25.45 165.946 25.712 165.946 26C165.946 26.288 166.012 26.552 166.144 26.792C166.28 27.028 166.46 27.216 166.684 27.356C166.908 27.496 167.156 27.566 167.428 27.566ZM171.886 29V20H173.542V29H171.886ZM177.862 29V23H179.518V23.444C179.722 23.252 179.958 23.102 180.226 22.994C180.494 22.886 180.778 22.832 181.078 22.832C181.486 22.832 181.86 22.926 182.2 23.114C182.544 23.302 182.82 23.552 183.028 23.864C183.24 23.552 183.516 23.302 183.856 23.114C184.196 22.926 184.568 22.832 184.972 22.832C185.408 22.832 185.802 22.938 186.154 23.15C186.51 23.362 186.794 23.646 187.006 24.002C187.218 24.354 187.324 24.748 187.324 25.184V29H185.668V25.64C185.668 25.432 185.616 25.244 185.512 25.076C185.412 24.904 185.278 24.768 185.11 24.668C184.942 24.564 184.754 24.512 184.546 24.512C184.338 24.512 184.148 24.562 183.976 24.662C183.808 24.762 183.672 24.898 183.568 25.07C183.468 25.238 183.418 25.428 183.418 25.64V29H181.762V25.64C181.762 25.428 181.712 25.238 181.612 25.07C181.512 24.898 181.376 24.762 181.204 24.662C181.036 24.562 180.848 24.512 180.64 24.512C180.436 24.512 180.248 24.564 180.076 24.668C179.908 24.768 179.772 24.904 179.668 25.076C179.568 25.244 179.518 25.432 179.518 25.64V29H177.862ZM191.049 29.156C190.497 29.156 189.993 29.014 189.537 28.73C189.085 28.446 188.723 28.064 188.451 27.584C188.183 27.104 188.049 26.574 188.049 25.994C188.049 25.558 188.127 25.15 188.283 24.77C188.439 24.386 188.653 24.05 188.925 23.762C189.201 23.47 189.521 23.242 189.885 23.078C190.249 22.914 190.637 22.832 191.049 22.832C191.525 22.832 191.959 22.934 192.351 23.138C192.747 23.342 193.081 23.62 193.353 23.972C193.629 24.324 193.825 24.722 193.941 25.166C194.061 25.61 194.081 26.072 194.001 26.552H189.837C189.889 26.728 189.969 26.888 190.077 27.032C190.189 27.172 190.325 27.284 190.485 27.368C190.649 27.452 190.837 27.496 191.049 27.5C191.257 27.504 191.449 27.456 191.625 27.356C191.801 27.256 191.951 27.122 192.075 26.954L193.767 27.344C193.523 27.876 193.159 28.312 192.675 28.652C192.191 28.988 191.649 29.156 191.049 29.156ZM189.777 25.328H192.327C192.275 25.128 192.187 24.948 192.063 24.788C191.939 24.628 191.789 24.502 191.613 24.41C191.441 24.318 191.253 24.272 191.049 24.272C190.849 24.272 190.661 24.318 190.485 24.41C190.313 24.502 190.165 24.628 190.041 24.788C189.921 24.944 189.833 25.124 189.777 25.328ZM197.647 29.156C197.095 29.156 196.591 29.014 196.135 28.73C195.683 28.446 195.321 28.064 195.049 27.584C194.781 27.104 194.647 26.574 194.647 25.994C194.647 25.558 194.725 25.15 194.881 24.77C195.037 24.386 195.251 24.05 195.523 23.762C195.799 23.47 196.119 23.242 196.483 23.078C196.847 22.914 197.235 22.832 197.647 22.832C198.123 22.832 198.557 22.934 198.949 23.138C199.345 23.342 199.679 23.62 199.951 23.972C200.227 24.324 200.423 24.722 200.539 25.166C200.659 25.61 200.679 26.072 200.599 26.552H196.435C196.487 26.728 196.567 26.888 196.675 27.032C196.787 27.172 196.923 27.284 197.083 27.368C197.247 27.452 197.435 27.496 197.647 27.5C197.855 27.504 198.047 27.456 198.223 27.356C198.399 27.256 198.549 27.122 198.673 26.954L200.365 27.344C200.121 27.876 199.757 28.312 199.273 28.652C198.789 28.988 198.247 29.156 197.647 29.156ZM196.375 25.328H198.925C198.873 25.128 198.785 24.948 198.661 24.788C198.537 24.628 198.387 24.502 198.211 24.41C198.039 24.318 197.851 24.272 197.647 24.272C197.447 24.272 197.259 24.318 197.083 24.41C196.911 24.502 196.763 24.628 196.639 24.788C196.519 24.944 196.431 25.124 196.375 25.328ZM204.857 24.656H203.777V29H202.121V24.656H201.293V23H202.121V21.116H203.777V23H204.857V24.656ZM205.823 23H207.479V29H205.823V23ZM206.663 22.31C206.423 22.31 206.221 22.23 206.057 22.07C205.893 21.91 205.811 21.712 205.811 21.476C205.811 21.24 205.893 21.042 206.057 20.882C206.221 20.722 206.421 20.642 206.657 20.642C206.893 20.642 207.091 20.722 207.251 20.882C207.415 21.042 207.497 21.24 207.497 21.476C207.497 21.712 207.417 21.91 207.257 22.07C207.101 22.23 206.903 22.31 206.663 22.31ZM214.432 25.184V29H212.776V25.64C212.776 25.428 212.724 25.238 212.62 25.07C212.52 24.898 212.384 24.762 212.212 24.662C212.044 24.562 211.856 24.512 211.648 24.512C211.44 24.512 211.25 24.562 211.078 24.662C210.906 24.762 210.77 24.898 210.67 25.07C210.57 25.238 210.52 25.428 210.52 25.64V29H208.864L208.858 23H210.514L210.52 23.444C210.72 23.252 210.954 23.102 211.222 22.994C211.494 22.886 211.78 22.832 212.08 22.832C212.516 22.832 212.91 22.938 213.262 23.15C213.618 23.362 213.902 23.646 214.114 24.002C214.326 24.354 214.432 24.748 214.432 25.184ZM219.871 23H221.527V29.084C221.527 29.528 221.437 29.928 221.257 30.284C221.077 30.644 220.831 30.952 220.519 31.208C220.211 31.464 219.855 31.66 219.451 31.796C219.051 31.932 218.627 32 218.179 32C217.755 32 217.349 31.916 216.961 31.748C216.573 31.584 216.229 31.356 215.929 31.064C215.629 30.772 215.395 30.436 215.227 30.056L216.739 29.366C216.823 29.566 216.937 29.738 217.081 29.882C217.229 30.026 217.397 30.136 217.585 30.212C217.777 30.292 217.975 30.332 218.179 30.332C218.399 30.332 218.609 30.306 218.809 30.254C219.013 30.202 219.195 30.124 219.355 30.02C219.515 29.916 219.641 29.786 219.733 29.63C219.825 29.474 219.871 29.292 219.871 29.084V28.388C219.687 28.616 219.463 28.802 219.199 28.946C218.939 29.086 218.637 29.156 218.293 29.156C217.861 29.156 217.455 29.074 217.075 28.91C216.699 28.746 216.367 28.52 216.079 28.232C215.791 27.94 215.565 27.604 215.401 27.224C215.237 26.844 215.155 26.436 215.155 26C215.155 25.564 215.237 25.156 215.401 24.776C215.565 24.396 215.791 24.062 216.079 23.774C216.367 23.482 216.699 23.254 217.075 23.09C217.455 22.926 217.861 22.844 218.293 22.844C218.637 22.844 218.939 22.916 219.199 23.06C219.463 23.2 219.687 23.384 219.871 23.612V23ZM218.317 27.566C218.589 27.566 218.835 27.496 219.055 27.356C219.275 27.212 219.447 27.022 219.571 26.786C219.699 26.55 219.763 26.288 219.763 26C219.763 25.712 219.699 25.45 219.571 25.214C219.447 24.974 219.275 24.784 219.055 24.644C218.835 24.504 218.589 24.434 218.317 24.434C218.049 24.434 217.803 24.504 217.579 24.644C217.359 24.784 217.183 24.974 217.051 25.214C216.919 25.45 216.853 25.712 216.853 26C216.853 26.288 216.919 26.552 217.051 26.792C217.183 27.028 217.359 27.216 217.579 27.356C217.803 27.496 218.049 27.566 218.317 27.566Z"
        fill="black" />
    <g filter="url(#filter2_d_940_145)">
        <rect x="244.244" y="13" width="119.92" height="25" rx="6" fill="#515839" />
        <rect x="244.244" y="13" width="119.92" height="25" rx="6" stroke="black" />
    </g>
    <path
        d="M271.157 29.108C270.849 29.084 270.553 29.02 270.269 28.916C269.985 28.808 269.731 28.664 269.507 28.484C269.287 28.3 269.115 28.08 268.991 27.824L270.383 27.224C270.427 27.288 270.493 27.358 270.581 27.434C270.669 27.506 270.775 27.57 270.899 27.626C271.027 27.682 271.175 27.71 271.343 27.71C271.467 27.71 271.587 27.696 271.703 27.668C271.819 27.636 271.913 27.586 271.985 27.518C272.057 27.446 272.093 27.352 272.093 27.236C272.093 27.108 272.047 27.01 271.955 26.942C271.863 26.874 271.751 26.824 271.619 26.792C271.491 26.756 271.367 26.726 271.247 26.702C270.879 26.638 270.531 26.524 270.203 26.36C269.879 26.192 269.615 25.976 269.411 25.712C269.207 25.448 269.105 25.132 269.105 24.764C269.105 24.36 269.211 24.012 269.423 23.72C269.635 23.424 269.911 23.196 270.251 23.036C270.591 22.876 270.959 22.796 271.355 22.796C271.823 22.796 272.257 22.894 272.657 23.09C273.057 23.286 273.379 23.562 273.623 23.918L272.315 24.692C272.263 24.616 272.195 24.544 272.111 24.476C272.031 24.404 271.937 24.344 271.829 24.296C271.725 24.244 271.613 24.214 271.493 24.206C271.337 24.194 271.195 24.204 271.067 24.236C270.939 24.264 270.837 24.318 270.761 24.398C270.689 24.478 270.653 24.586 270.653 24.722C270.653 24.854 270.711 24.952 270.827 25.016C270.943 25.076 271.077 25.122 271.229 25.154C271.381 25.182 271.515 25.216 271.631 25.256C271.979 25.368 272.305 25.512 272.609 25.688C272.917 25.86 273.165 26.072 273.353 26.324C273.541 26.576 273.629 26.872 273.617 27.212C273.617 27.608 273.499 27.956 273.263 28.256C273.027 28.552 272.721 28.778 272.345 28.934C271.973 29.086 271.577 29.144 271.157 29.108ZM276.293 32H274.637V23H276.293V23.648C276.485 23.412 276.713 23.22 276.977 23.072C277.241 22.92 277.549 22.844 277.901 22.844C278.337 22.844 278.745 22.926 279.125 23.09C279.509 23.254 279.845 23.482 280.133 23.774C280.421 24.062 280.647 24.396 280.811 24.776C280.975 25.156 281.057 25.564 281.057 26C281.057 26.436 280.975 26.846 280.811 27.23C280.647 27.614 280.421 27.952 280.133 28.244C279.845 28.532 279.509 28.758 279.125 28.922C278.745 29.086 278.337 29.168 277.901 29.168C277.549 29.168 277.241 29.092 276.977 28.94C276.713 28.788 276.485 28.596 276.293 28.364V32ZM277.877 24.434C277.605 24.434 277.359 24.506 277.139 24.65C276.923 24.79 276.751 24.978 276.623 25.214C276.499 25.45 276.437 25.712 276.437 26C276.437 26.288 276.499 26.552 276.623 26.792C276.751 27.028 276.923 27.216 277.139 27.356C277.359 27.496 277.605 27.566 277.877 27.566C278.149 27.566 278.397 27.496 278.621 27.356C278.849 27.216 279.029 27.028 279.161 26.792C279.297 26.556 279.365 26.292 279.365 26C279.365 25.716 279.299 25.456 279.167 25.22C279.035 24.98 278.855 24.79 278.627 24.65C278.403 24.506 278.153 24.434 277.877 24.434ZM284.66 29.156C284.108 29.156 283.604 29.014 283.148 28.73C282.696 28.446 282.334 28.064 282.062 27.584C281.794 27.104 281.66 26.574 281.66 25.994C281.66 25.558 281.738 25.15 281.894 24.77C282.05 24.386 282.264 24.05 282.536 23.762C282.812 23.47 283.132 23.242 283.496 23.078C283.86 22.914 284.248 22.832 284.66 22.832C285.136 22.832 285.57 22.934 285.962 23.138C286.358 23.342 286.692 23.62 286.964 23.972C287.24 24.324 287.436 24.722 287.552 25.166C287.672 25.61 287.692 26.072 287.612 26.552H283.448C283.5 26.728 283.58 26.888 283.688 27.032C283.8 27.172 283.936 27.284 284.096 27.368C284.26 27.452 284.448 27.496 284.66 27.5C284.868 27.504 285.06 27.456 285.236 27.356C285.412 27.256 285.562 27.122 285.686 26.954L287.378 27.344C287.134 27.876 286.77 28.312 286.286 28.652C285.802 28.988 285.26 29.156 284.66 29.156ZM283.388 25.328H285.938C285.886 25.128 285.798 24.948 285.674 24.788C285.55 24.628 285.4 24.502 285.224 24.41C285.052 24.318 284.864 24.272 284.66 24.272C284.46 24.272 284.272 24.318 284.096 24.41C283.924 24.502 283.776 24.628 283.652 24.788C283.532 24.944 283.444 25.124 283.388 25.328ZM292.17 27.104L293.658 27.908C293.382 28.284 293.036 28.586 292.62 28.814C292.204 29.042 291.75 29.156 291.258 29.156C290.706 29.156 290.202 29.014 289.746 28.73C289.294 28.446 288.932 28.066 288.66 27.59C288.392 27.11 288.258 26.58 288.258 26C288.258 25.56 288.336 25.15 288.492 24.77C288.648 24.386 288.862 24.05 289.134 23.762C289.41 23.47 289.73 23.242 290.094 23.078C290.458 22.914 290.846 22.832 291.258 22.832C291.75 22.832 292.204 22.946 292.62 23.174C293.036 23.402 293.382 23.708 293.658 24.092L292.17 24.896C292.046 24.764 291.904 24.664 291.744 24.596C291.588 24.524 291.426 24.488 291.258 24.488C291.002 24.488 290.772 24.558 290.568 24.698C290.368 24.838 290.208 25.024 290.088 25.256C289.972 25.484 289.914 25.732 289.914 26C289.914 26.264 289.974 26.51 290.094 26.738C290.214 26.966 290.374 27.15 290.574 27.29C290.778 27.43 291.006 27.5 291.258 27.5C291.43 27.5 291.594 27.464 291.75 27.392C291.906 27.32 292.046 27.224 292.17 27.104ZM294.465 23H296.121V29H294.465V23ZM295.305 22.31C295.065 22.31 294.863 22.23 294.699 22.07C294.535 21.91 294.453 21.712 294.453 21.476C294.453 21.24 294.535 21.042 294.699 20.882C294.863 20.722 295.063 20.642 295.299 20.642C295.535 20.642 295.733 20.722 295.893 20.882C296.057 21.042 296.139 21.24 296.139 21.476C296.139 21.712 296.059 21.91 295.899 22.07C295.743 22.23 295.545 22.31 295.305 22.31ZM301.799 23H303.455V29H301.793L301.715 28.376C301.559 28.608 301.359 28.796 301.115 28.94C300.871 29.084 300.585 29.156 300.257 29.156C299.809 29.156 299.391 29.072 299.003 28.904C298.615 28.736 298.273 28.504 297.977 28.208C297.681 27.912 297.449 27.57 297.281 27.182C297.117 26.79 297.035 26.37 297.035 25.922C297.035 25.494 297.113 25.094 297.269 24.722C297.425 24.35 297.645 24.022 297.929 23.738C298.213 23.454 298.539 23.232 298.907 23.072C299.279 22.912 299.679 22.832 300.107 22.832C300.475 22.832 300.805 22.91 301.097 23.066C301.393 23.222 301.651 23.42 301.871 23.66L301.799 23ZM300.215 27.566C300.487 27.566 300.733 27.496 300.953 27.356C301.173 27.216 301.347 27.028 301.475 26.792C301.603 26.552 301.667 26.288 301.667 26C301.667 25.708 301.603 25.444 301.475 25.208C301.347 24.972 301.173 24.784 300.953 24.644C300.733 24.504 300.487 24.434 300.215 24.434C299.939 24.434 299.689 24.504 299.465 24.644C299.241 24.784 299.063 24.974 298.931 25.214C298.799 25.45 298.733 25.712 298.733 26C298.733 26.288 298.799 26.552 298.931 26.792C299.067 27.028 299.247 27.216 299.471 27.356C299.695 27.496 299.943 27.566 300.215 27.566ZM304.672 29V20H306.328V29H304.672ZM313.289 29.156C312.737 29.156 312.233 29.014 311.777 28.73C311.325 28.446 310.963 28.064 310.691 27.584C310.423 27.104 310.289 26.574 310.289 25.994C310.289 25.558 310.367 25.15 310.523 24.77C310.679 24.386 310.893 24.05 311.165 23.762C311.441 23.47 311.761 23.242 312.125 23.078C312.489 22.914 312.877 22.832 313.289 22.832C313.765 22.832 314.199 22.934 314.591 23.138C314.987 23.342 315.321 23.62 315.593 23.972C315.869 24.324 316.065 24.722 316.181 25.166C316.301 25.61 316.321 26.072 316.241 26.552H312.077C312.129 26.728 312.209 26.888 312.317 27.032C312.429 27.172 312.565 27.284 312.725 27.368C312.889 27.452 313.077 27.496 313.289 27.5C313.497 27.504 313.689 27.456 313.865 27.356C314.041 27.256 314.191 27.122 314.315 26.954L316.007 27.344C315.763 27.876 315.399 28.312 314.915 28.652C314.431 28.988 313.889 29.156 313.289 29.156ZM312.017 25.328H314.567C314.515 25.128 314.427 24.948 314.303 24.788C314.179 24.628 314.029 24.502 313.853 24.41C313.681 24.318 313.493 24.272 313.289 24.272C313.089 24.272 312.901 24.318 312.725 24.41C312.553 24.502 312.405 24.628 312.281 24.788C312.161 24.944 312.073 25.124 312.017 25.328ZM320.873 29H318.731L316.547 23H318.311L319.799 27.098L321.287 23H323.057L320.873 29ZM326.32 29.156C325.768 29.156 325.264 29.014 324.808 28.73C324.356 28.446 323.994 28.064 323.722 27.584C323.454 27.104 323.32 26.574 323.32 25.994C323.32 25.558 323.398 25.15 323.554 24.77C323.71 24.386 323.924 24.05 324.196 23.762C324.472 23.47 324.792 23.242 325.156 23.078C325.52 22.914 325.908 22.832 326.32 22.832C326.796 22.832 327.23 22.934 327.622 23.138C328.018 23.342 328.352 23.62 328.624 23.972C328.9 24.324 329.096 24.722 329.212 25.166C329.332 25.61 329.352 26.072 329.272 26.552H325.108C325.16 26.728 325.24 26.888 325.348 27.032C325.46 27.172 325.596 27.284 325.756 27.368C325.92 27.452 326.108 27.496 326.32 27.5C326.528 27.504 326.72 27.456 326.896 27.356C327.072 27.256 327.222 27.122 327.346 26.954L329.038 27.344C328.794 27.876 328.43 28.312 327.946 28.652C327.462 28.988 326.92 29.156 326.32 29.156ZM325.048 25.328H327.598C327.546 25.128 327.458 24.948 327.334 24.788C327.21 24.628 327.06 24.502 326.884 24.41C326.712 24.318 326.524 24.272 326.32 24.272C326.12 24.272 325.932 24.318 325.756 24.41C325.584 24.502 325.436 24.628 325.312 24.788C325.192 24.944 325.104 25.124 325.048 25.328ZM335.805 25.184V29H334.149V25.64C334.149 25.428 334.097 25.238 333.993 25.07C333.893 24.898 333.757 24.762 333.585 24.662C333.417 24.562 333.229 24.512 333.021 24.512C332.813 24.512 332.623 24.562 332.451 24.662C332.279 24.762 332.143 24.898 332.043 25.07C331.943 25.238 331.893 25.428 331.893 25.64V29H330.237L330.231 23H331.887L331.893 23.444C332.093 23.252 332.327 23.102 332.595 22.994C332.867 22.886 333.153 22.832 333.453 22.832C333.889 22.832 334.283 22.938 334.635 23.15C334.991 23.362 335.275 23.646 335.487 24.002C335.699 24.354 335.805 24.748 335.805 25.184ZM340.268 24.656H339.188V29H337.532V24.656H336.704V23H337.532V21.116H339.188V23H340.268V24.656Z"
        fill="black" />
    <g filter="url(#filter3_d_940_145)">
        <rect x="117" y="46" width="119.92" height="25" rx="6" fill="#DF7F35" fill-opacity="0.5"
            shape-rendering="crispEdges" />
        <rect x="117" y="46" width="119.92" height="25" rx="6" stroke="black"
            shape-rendering="crispEdges" />
    </g>
    <path
        d="M154.783 62H153.151L151.147 56H152.767L153.973 59.594L155.167 56H156.787L157.981 59.594L159.181 56H160.807L158.797 62H157.171L155.977 58.4L154.783 62ZM164.073 62.156C163.521 62.156 163.017 62.014 162.561 61.73C162.109 61.446 161.747 61.066 161.475 60.59C161.207 60.11 161.073 59.58 161.073 59C161.073 58.56 161.151 58.15 161.307 57.77C161.463 57.386 161.677 57.05 161.949 56.762C162.225 56.47 162.545 56.242 162.909 56.078C163.273 55.914 163.661 55.832 164.073 55.832C164.625 55.832 165.127 55.974 165.579 56.258C166.035 56.542 166.397 56.924 166.665 57.404C166.937 57.884 167.073 58.416 167.073 59C167.073 59.436 166.995 59.844 166.839 60.224C166.683 60.604 166.467 60.94 166.191 61.232C165.919 61.52 165.601 61.746 165.237 61.91C164.877 62.074 164.489 62.156 164.073 62.156ZM164.073 60.5C164.329 60.5 164.559 60.432 164.763 60.296C164.967 60.156 165.127 59.972 165.243 59.744C165.359 59.516 165.417 59.268 165.417 59C165.417 58.724 165.355 58.472 165.231 58.244C165.111 58.012 164.949 57.828 164.745 57.692C164.541 57.556 164.317 57.488 164.073 57.488C163.821 57.488 163.593 57.558 163.389 57.698C163.185 57.838 163.023 58.022 162.903 58.25C162.787 58.478 162.729 58.728 162.729 59C162.729 59.284 162.789 59.54 162.909 59.768C163.033 59.992 163.197 60.17 163.401 60.302C163.605 60.434 163.829 60.5 164.073 60.5ZM167.989 62L167.983 56H169.639L169.645 56.444C169.845 56.252 170.079 56.102 170.347 55.994C170.619 55.886 170.905 55.832 171.205 55.832C171.425 55.832 171.645 55.864 171.865 55.928L171.211 57.602C171.067 57.542 170.921 57.512 170.773 57.512C170.565 57.512 170.375 57.562 170.203 57.662C170.031 57.762 169.895 57.898 169.795 58.07C169.695 58.238 169.645 58.428 169.645 58.64V62H167.989ZM178.098 62H176.19L174.918 59.81L174.186 60.68V62H172.53V53H174.186V58.106L175.95 56H178.11L176.052 58.466L178.098 62ZM180.581 62.108C180.273 62.084 179.977 62.02 179.693 61.916C179.409 61.808 179.155 61.664 178.931 61.484C178.711 61.3 178.539 61.08 178.415 60.824L179.807 60.224C179.851 60.288 179.917 60.358 180.005 60.434C180.093 60.506 180.199 60.57 180.323 60.626C180.451 60.682 180.599 60.71 180.767 60.71C180.891 60.71 181.011 60.696 181.127 60.668C181.243 60.636 181.337 60.586 181.409 60.518C181.481 60.446 181.517 60.352 181.517 60.236C181.517 60.108 181.471 60.01 181.379 59.942C181.287 59.874 181.175 59.824 181.043 59.792C180.915 59.756 180.791 59.726 180.671 59.702C180.303 59.638 179.955 59.524 179.627 59.36C179.303 59.192 179.039 58.976 178.835 58.712C178.631 58.448 178.529 58.132 178.529 57.764C178.529 57.36 178.635 57.012 178.847 56.72C179.059 56.424 179.335 56.196 179.675 56.036C180.015 55.876 180.383 55.796 180.779 55.796C181.247 55.796 181.681 55.894 182.081 56.09C182.481 56.286 182.803 56.562 183.047 56.918L181.739 57.692C181.687 57.616 181.619 57.544 181.535 57.476C181.455 57.404 181.361 57.344 181.253 57.296C181.149 57.244 181.037 57.214 180.917 57.206C180.761 57.194 180.619 57.204 180.491 57.236C180.363 57.264 180.261 57.318 180.185 57.398C180.113 57.478 180.077 57.586 180.077 57.722C180.077 57.854 180.135 57.952 180.251 58.016C180.367 58.076 180.501 58.122 180.653 58.154C180.805 58.182 180.939 58.216 181.055 58.256C181.403 58.368 181.729 58.512 182.033 58.688C182.341 58.86 182.589 59.072 182.777 59.324C182.965 59.576 183.053 59.872 183.041 60.212C183.041 60.608 182.923 60.956 182.687 61.256C182.451 61.552 182.145 61.778 181.769 61.934C181.397 62.086 181.001 62.144 180.581 62.108ZM189.636 58.184V62H187.98V58.64C187.98 58.428 187.928 58.238 187.824 58.07C187.724 57.898 187.588 57.762 187.416 57.662C187.248 57.562 187.06 57.512 186.852 57.512C186.644 57.512 186.454 57.562 186.282 57.662C186.11 57.762 185.974 57.898 185.874 58.07C185.774 58.238 185.724 58.428 185.724 58.64V62H184.068L184.062 53H185.718L185.724 56.444C185.924 56.252 186.158 56.102 186.426 55.994C186.698 55.886 186.984 55.832 187.284 55.832C187.72 55.832 188.114 55.938 188.466 56.15C188.822 56.362 189.106 56.646 189.318 57.002C189.53 57.354 189.636 57.748 189.636 58.184ZM193.358 62.156C192.806 62.156 192.302 62.014 191.846 61.73C191.394 61.446 191.032 61.066 190.76 60.59C190.492 60.11 190.358 59.58 190.358 59C190.358 58.56 190.436 58.15 190.592 57.77C190.748 57.386 190.962 57.05 191.234 56.762C191.51 56.47 191.83 56.242 192.194 56.078C192.558 55.914 192.946 55.832 193.358 55.832C193.91 55.832 194.412 55.974 194.864 56.258C195.32 56.542 195.682 56.924 195.95 57.404C196.222 57.884 196.358 58.416 196.358 59C196.358 59.436 196.28 59.844 196.124 60.224C195.968 60.604 195.752 60.94 195.476 61.232C195.204 61.52 194.886 61.746 194.522 61.91C194.162 62.074 193.774 62.156 193.358 62.156ZM193.358 60.5C193.614 60.5 193.844 60.432 194.048 60.296C194.252 60.156 194.412 59.972 194.528 59.744C194.644 59.516 194.702 59.268 194.702 59C194.702 58.724 194.64 58.472 194.516 58.244C194.396 58.012 194.234 57.828 194.03 57.692C193.826 57.556 193.602 57.488 193.358 57.488C193.106 57.488 192.878 57.558 192.674 57.698C192.47 57.838 192.308 58.022 192.188 58.25C192.072 58.478 192.014 58.728 192.014 59C192.014 59.284 192.074 59.54 192.194 59.768C192.318 59.992 192.482 60.17 192.686 60.302C192.89 60.434 193.114 60.5 193.358 60.5ZM198.925 65H197.269V56H198.925V56.648C199.117 56.412 199.345 56.22 199.609 56.072C199.873 55.92 200.181 55.844 200.533 55.844C200.969 55.844 201.377 55.926 201.757 56.09C202.141 56.254 202.477 56.482 202.765 56.774C203.053 57.062 203.279 57.396 203.443 57.776C203.607 58.156 203.689 58.564 203.689 59C203.689 59.436 203.607 59.846 203.443 60.23C203.279 60.614 203.053 60.952 202.765 61.244C202.477 61.532 202.141 61.758 201.757 61.922C201.377 62.086 200.969 62.168 200.533 62.168C200.181 62.168 199.873 62.092 199.609 61.94C199.345 61.788 199.117 61.596 198.925 61.364V65ZM200.509 57.434C200.237 57.434 199.991 57.506 199.771 57.65C199.555 57.79 199.383 57.978 199.255 58.214C199.131 58.45 199.069 58.712 199.069 59C199.069 59.288 199.131 59.552 199.255 59.792C199.383 60.028 199.555 60.216 199.771 60.356C199.991 60.496 200.237 60.566 200.509 60.566C200.781 60.566 201.029 60.496 201.253 60.356C201.481 60.216 201.661 60.028 201.793 59.792C201.929 59.556 201.997 59.292 201.997 59C201.997 58.716 201.931 58.456 201.799 58.22C201.667 57.98 201.487 57.79 201.259 57.65C201.035 57.506 200.785 57.434 200.509 57.434Z"
        fill="black" />
    <g filter="url(#filter4_d_940_145)">
        <rect x="244.244" y="46" width="119.92" height="25" rx="6" fill="#515839" fill-opacity="0.5"
            shape-rendering="crispEdges" />
        <rect x="244.244" y="46" width="119.92" height="25" rx="6" stroke="black"
            shape-rendering="crispEdges" />
    </g>
    <path
        d="M253.307 62.156C252.755 62.156 252.251 62.014 251.795 61.73C251.343 61.446 250.981 61.066 250.709 60.59C250.441 60.11 250.307 59.58 250.307 59C250.307 58.56 250.385 58.15 250.541 57.77C250.697 57.386 250.911 57.05 251.183 56.762C251.459 56.47 251.779 56.242 252.143 56.078C252.507 55.914 252.895 55.832 253.307 55.832C253.859 55.832 254.361 55.974 254.813 56.258C255.269 56.542 255.631 56.924 255.899 57.404C256.171 57.884 256.307 58.416 256.307 59C256.307 59.436 256.229 59.844 256.073 60.224C255.917 60.604 255.701 60.94 255.425 61.232C255.153 61.52 254.835 61.746 254.471 61.91C254.111 62.074 253.723 62.156 253.307 62.156ZM253.307 60.5C253.563 60.5 253.793 60.432 253.997 60.296C254.201 60.156 254.361 59.972 254.477 59.744C254.593 59.516 254.651 59.268 254.651 59C254.651 58.724 254.589 58.472 254.465 58.244C254.345 58.012 254.183 57.828 253.979 57.692C253.775 57.556 253.551 57.488 253.307 57.488C253.055 57.488 252.827 57.558 252.623 57.698C252.419 57.838 252.257 58.022 252.137 58.25C252.021 58.478 251.963 58.728 251.963 59C251.963 59.284 252.023 59.54 252.143 59.768C252.267 59.992 252.431 60.17 252.635 60.302C252.839 60.434 253.063 60.5 253.307 60.5ZM258.873 65H257.217V56H258.873V56.648C259.065 56.412 259.293 56.22 259.557 56.072C259.821 55.92 260.129 55.844 260.481 55.844C260.917 55.844 261.325 55.926 261.705 56.09C262.089 56.254 262.425 56.482 262.713 56.774C263.001 57.062 263.227 57.396 263.391 57.776C263.555 58.156 263.637 58.564 263.637 59C263.637 59.436 263.555 59.846 263.391 60.23C263.227 60.614 263.001 60.952 262.713 61.244C262.425 61.532 262.089 61.758 261.705 61.922C261.325 62.086 260.917 62.168 260.481 62.168C260.129 62.168 259.821 62.092 259.557 61.94C259.293 61.788 259.065 61.596 258.873 61.364V65ZM260.457 57.434C260.185 57.434 259.939 57.506 259.719 57.65C259.503 57.79 259.331 57.978 259.203 58.214C259.079 58.45 259.017 58.712 259.017 59C259.017 59.288 259.079 59.552 259.203 59.792C259.331 60.028 259.503 60.216 259.719 60.356C259.939 60.496 260.185 60.566 260.457 60.566C260.729 60.566 260.977 60.496 261.201 60.356C261.429 60.216 261.609 60.028 261.741 59.792C261.877 59.556 261.945 59.292 261.945 59C261.945 58.716 261.879 58.456 261.747 58.22C261.615 57.98 261.435 57.79 261.207 57.65C260.983 57.506 260.733 57.434 260.457 57.434ZM267.24 62.156C266.688 62.156 266.184 62.014 265.728 61.73C265.276 61.446 264.914 61.064 264.642 60.584C264.374 60.104 264.24 59.574 264.24 58.994C264.24 58.558 264.318 58.15 264.474 57.77C264.63 57.386 264.844 57.05 265.116 56.762C265.392 56.47 265.712 56.242 266.076 56.078C266.44 55.914 266.828 55.832 267.24 55.832C267.716 55.832 268.15 55.934 268.542 56.138C268.938 56.342 269.272 56.62 269.544 56.972C269.82 57.324 270.016 57.722 270.132 58.166C270.252 58.61 270.272 59.072 270.192 59.552H266.028C266.08 59.728 266.16 59.888 266.268 60.032C266.38 60.172 266.516 60.284 266.676 60.368C266.84 60.452 267.028 60.496 267.24 60.5C267.448 60.504 267.64 60.456 267.816 60.356C267.992 60.256 268.142 60.122 268.266 59.954L269.958 60.344C269.714 60.876 269.35 61.312 268.866 61.652C268.382 61.988 267.84 62.156 267.24 62.156ZM265.968 58.328H268.518C268.466 58.128 268.378 57.948 268.254 57.788C268.13 57.628 267.98 57.502 267.804 57.41C267.632 57.318 267.444 57.272 267.24 57.272C267.04 57.272 266.852 57.318 266.676 57.41C266.504 57.502 266.356 57.628 266.232 57.788C266.112 57.944 266.024 58.124 265.968 58.328ZM276.725 58.184V62H275.069V58.64C275.069 58.428 275.017 58.238 274.913 58.07C274.813 57.898 274.677 57.762 274.505 57.662C274.337 57.562 274.149 57.512 273.941 57.512C273.733 57.512 273.543 57.562 273.371 57.662C273.199 57.762 273.063 57.898 272.963 58.07C272.863 58.238 272.813 58.428 272.813 58.64V62H271.157L271.151 56H272.807L272.813 56.444C273.013 56.252 273.247 56.102 273.515 55.994C273.787 55.886 274.073 55.832 274.373 55.832C274.809 55.832 275.203 55.938 275.555 56.15C275.911 56.362 276.195 56.646 276.407 57.002C276.619 57.354 276.725 57.748 276.725 58.184ZM282.643 54.836V56H284.233V57.656H282.643V62H280.987V57.656H280.387V56H280.987V54.836C280.987 54.472 281.077 54.142 281.257 53.846C281.437 53.546 281.677 53.306 281.977 53.126C282.281 52.946 282.615 52.856 282.979 52.856C283.247 52.856 283.511 52.912 283.771 53.024C284.031 53.132 284.263 53.302 284.467 53.534L283.279 54.704C283.251 54.64 283.209 54.592 283.153 54.56C283.097 54.528 283.039 54.512 282.979 54.512C282.887 54.512 282.807 54.544 282.739 54.608C282.675 54.668 282.643 54.744 282.643 54.836ZM287.76 62.156C287.208 62.156 286.704 62.014 286.248 61.73C285.796 61.446 285.434 61.066 285.162 60.59C284.894 60.11 284.76 59.58 284.76 59C284.76 58.56 284.838 58.15 284.994 57.77C285.15 57.386 285.364 57.05 285.636 56.762C285.912 56.47 286.232 56.242 286.596 56.078C286.96 55.914 287.348 55.832 287.76 55.832C288.312 55.832 288.814 55.974 289.266 56.258C289.722 56.542 290.084 56.924 290.352 57.404C290.624 57.884 290.76 58.416 290.76 59C290.76 59.436 290.682 59.844 290.526 60.224C290.37 60.604 290.154 60.94 289.878 61.232C289.606 61.52 289.288 61.746 288.924 61.91C288.564 62.074 288.176 62.156 287.76 62.156ZM287.76 60.5C288.016 60.5 288.246 60.432 288.45 60.296C288.654 60.156 288.814 59.972 288.93 59.744C289.046 59.516 289.104 59.268 289.104 59C289.104 58.724 289.042 58.472 288.918 58.244C288.798 58.012 288.636 57.828 288.432 57.692C288.228 57.556 288.004 57.488 287.76 57.488C287.508 57.488 287.28 57.558 287.076 57.698C286.872 57.838 286.71 58.022 286.59 58.25C286.474 58.478 286.416 58.728 286.416 59C286.416 59.284 286.476 59.54 286.596 59.768C286.72 59.992 286.884 60.17 287.088 60.302C287.292 60.434 287.516 60.5 287.76 60.5ZM291.676 62L291.67 56H293.326L293.332 56.444C293.532 56.252 293.766 56.102 294.034 55.994C294.306 55.886 294.592 55.832 294.892 55.832C295.112 55.832 295.332 55.864 295.552 55.928L294.898 57.602C294.754 57.542 294.608 57.512 294.46 57.512C294.252 57.512 294.062 57.562 293.89 57.662C293.718 57.762 293.582 57.898 293.482 58.07C293.382 58.238 293.332 58.428 293.332 58.64V62H291.676ZM296.229 62V56H297.885V56.444C298.089 56.252 298.325 56.102 298.593 55.994C298.861 55.886 299.145 55.832 299.445 55.832C299.853 55.832 300.227 55.926 300.567 56.114C300.911 56.302 301.187 56.552 301.395 56.864C301.607 56.552 301.883 56.302 302.223 56.114C302.563 55.926 302.935 55.832 303.339 55.832C303.775 55.832 304.169 55.938 304.521 56.15C304.877 56.362 305.161 56.646 305.373 57.002C305.585 57.354 305.691 57.748 305.691 58.184V62H304.035V58.64C304.035 58.432 303.983 58.244 303.879 58.076C303.779 57.904 303.645 57.768 303.477 57.668C303.309 57.564 303.121 57.512 302.913 57.512C302.705 57.512 302.515 57.562 302.343 57.662C302.175 57.762 302.039 57.898 301.935 58.07C301.835 58.238 301.785 58.428 301.785 58.64V62H300.129V58.64C300.129 58.428 300.079 58.238 299.979 58.07C299.879 57.898 299.743 57.762 299.571 57.662C299.403 57.562 299.215 57.512 299.007 57.512C298.803 57.512 298.615 57.564 298.443 57.668C298.275 57.768 298.139 57.904 298.035 58.076C297.935 58.244 297.885 58.432 297.885 58.64V62H296.229ZM310.745 53.6L308.309 62.672H306.653L309.089 53.6H310.745ZM316.354 53H318.01V62H316.354V61.364C316.17 61.596 315.942 61.786 315.67 61.934C315.398 62.082 315.088 62.156 314.74 62.156C314.304 62.156 313.896 62.074 313.516 61.91C313.136 61.746 312.8 61.52 312.508 61.232C312.22 60.94 311.994 60.604 311.83 60.224C311.666 59.844 311.584 59.436 311.584 59C311.584 58.564 311.666 58.156 311.83 57.776C311.994 57.396 312.22 57.062 312.508 56.774C312.8 56.482 313.136 56.254 313.516 56.09C313.896 55.926 314.304 55.844 314.74 55.844C315.088 55.844 315.398 55.918 315.67 56.066C315.942 56.21 316.17 56.4 316.354 56.636V53ZM314.764 60.566C315.036 60.566 315.282 60.496 315.502 60.356C315.722 60.216 315.896 60.028 316.024 59.792C316.152 59.552 316.216 59.288 316.216 59C316.216 58.708 316.152 58.444 316.024 58.208C315.896 57.972 315.722 57.784 315.502 57.644C315.282 57.504 315.036 57.434 314.764 57.434C314.488 57.434 314.238 57.504 314.014 57.644C313.79 57.784 313.612 57.974 313.48 58.214C313.348 58.45 313.282 58.712 313.282 59C313.282 59.288 313.348 59.552 313.48 59.792C313.616 60.028 313.796 60.216 314.02 60.356C314.244 60.496 314.492 60.566 314.764 60.566ZM321.978 62.156C321.426 62.156 320.922 62.014 320.466 61.73C320.014 61.446 319.652 61.064 319.38 60.584C319.112 60.104 318.978 59.574 318.978 58.994C318.978 58.558 319.056 58.15 319.212 57.77C319.368 57.386 319.582 57.05 319.854 56.762C320.13 56.47 320.45 56.242 320.814 56.078C321.178 55.914 321.566 55.832 321.978 55.832C322.454 55.832 322.888 55.934 323.28 56.138C323.676 56.342 324.01 56.62 324.282 56.972C324.558 57.324 324.754 57.722 324.87 58.166C324.99 58.61 325.01 59.072 324.93 59.552H320.766C320.818 59.728 320.898 59.888 321.006 60.032C321.118 60.172 321.254 60.284 321.414 60.368C321.578 60.452 321.766 60.496 321.978 60.5C322.186 60.504 322.378 60.456 322.554 60.356C322.73 60.256 322.88 60.122 323.004 59.954L324.696 60.344C324.452 60.876 324.088 61.312 323.604 61.652C323.12 61.988 322.578 62.156 321.978 62.156ZM320.706 58.328H323.256C323.204 58.128 323.116 57.948 322.992 57.788C322.868 57.628 322.718 57.502 322.542 57.41C322.37 57.318 322.182 57.272 321.978 57.272C321.778 57.272 321.59 57.318 321.414 57.41C321.242 57.502 321.094 57.628 320.97 57.788C320.85 57.944 320.762 58.124 320.706 58.328ZM330.34 56H331.996V62H330.334L330.256 61.376C330.1 61.608 329.9 61.796 329.656 61.94C329.412 62.084 329.126 62.156 328.798 62.156C328.35 62.156 327.932 62.072 327.544 61.904C327.156 61.736 326.814 61.504 326.518 61.208C326.222 60.912 325.99 60.57 325.822 60.182C325.658 59.79 325.576 59.37 325.576 58.922C325.576 58.494 325.654 58.094 325.81 57.722C325.966 57.35 326.186 57.022 326.47 56.738C326.754 56.454 327.08 56.232 327.448 56.072C327.82 55.912 328.22 55.832 328.648 55.832C329.016 55.832 329.346 55.91 329.638 56.066C329.934 56.222 330.192 56.42 330.412 56.66L330.34 56ZM328.756 60.566C329.028 60.566 329.274 60.496 329.494 60.356C329.714 60.216 329.888 60.028 330.016 59.792C330.144 59.552 330.208 59.288 330.208 59C330.208 58.708 330.144 58.444 330.016 58.208C329.888 57.972 329.714 57.784 329.494 57.644C329.274 57.504 329.028 57.434 328.756 57.434C328.48 57.434 328.23 57.504 328.006 57.644C327.782 57.784 327.604 57.974 327.472 58.214C327.34 58.45 327.274 58.712 327.274 59C327.274 59.288 327.34 59.552 327.472 59.792C327.608 60.028 327.788 60.216 328.012 60.356C328.236 60.496 328.484 60.566 328.756 60.566ZM337.495 53H339.151V62H337.495V61.364C337.311 61.596 337.083 61.786 336.811 61.934C336.539 62.082 336.229 62.156 335.881 62.156C335.445 62.156 335.037 62.074 334.657 61.91C334.277 61.746 333.941 61.52 333.649 61.232C333.361 60.94 333.135 60.604 332.971 60.224C332.807 59.844 332.725 59.436 332.725 59C332.725 58.564 332.807 58.156 332.971 57.776C333.135 57.396 333.361 57.062 333.649 56.774C333.941 56.482 334.277 56.254 334.657 56.09C335.037 55.926 335.445 55.844 335.881 55.844C336.229 55.844 336.539 55.918 336.811 56.066C337.083 56.21 337.311 56.4 337.495 56.636V53ZM335.905 60.566C336.177 60.566 336.423 60.496 336.643 60.356C336.863 60.216 337.037 60.028 337.165 59.792C337.293 59.552 337.357 59.288 337.357 59C337.357 58.708 337.293 58.444 337.165 58.208C337.037 57.972 336.863 57.784 336.643 57.644C336.423 57.504 336.177 57.434 335.905 57.434C335.629 57.434 335.379 57.504 335.155 57.644C334.931 57.784 334.753 57.974 334.621 58.214C334.489 58.45 334.423 58.712 334.423 59C334.423 59.288 334.489 59.552 334.621 59.792C334.757 60.028 334.937 60.216 335.161 60.356C335.385 60.496 335.633 60.566 335.905 60.566ZM340.596 62V53H342.252V62H340.596ZM343.69 56H345.346V62H343.69V56ZM344.53 55.31C344.29 55.31 344.088 55.23 343.924 55.07C343.76 54.91 343.678 54.712 343.678 54.476C343.678 54.24 343.76 54.042 343.924 53.882C344.088 53.722 344.288 53.642 344.524 53.642C344.76 53.642 344.958 53.722 345.118 53.882C345.282 54.042 345.364 54.24 345.364 54.476C345.364 54.712 345.284 54.91 345.124 55.07C344.968 55.23 344.77 55.31 344.53 55.31ZM352.299 58.184V62H350.643V58.64C350.643 58.428 350.591 58.238 350.487 58.07C350.387 57.898 350.251 57.762 350.079 57.662C349.911 57.562 349.723 57.512 349.515 57.512C349.307 57.512 349.117 57.562 348.945 57.662C348.773 57.762 348.637 57.898 348.537 58.07C348.437 58.238 348.387 58.428 348.387 58.64V62H346.731L346.725 56H348.381L348.387 56.444C348.587 56.252 348.821 56.102 349.089 55.994C349.361 55.886 349.647 55.832 349.947 55.832C350.383 55.832 350.777 55.938 351.129 56.15C351.485 56.362 351.769 56.646 351.981 57.002C352.193 57.354 352.299 57.748 352.299 58.184ZM356.021 62.156C355.469 62.156 354.965 62.014 354.509 61.73C354.057 61.446 353.695 61.064 353.423 60.584C353.155 60.104 353.021 59.574 353.021 58.994C353.021 58.558 353.099 58.15 353.255 57.77C353.411 57.386 353.625 57.05 353.897 56.762C354.173 56.47 354.493 56.242 354.857 56.078C355.221 55.914 355.609 55.832 356.021 55.832C356.497 55.832 356.931 55.934 357.323 56.138C357.719 56.342 358.053 56.62 358.325 56.972C358.601 57.324 358.797 57.722 358.913 58.166C359.033 58.61 359.053 59.072 358.973 59.552H354.809C354.861 59.728 354.941 59.888 355.049 60.032C355.161 60.172 355.297 60.284 355.457 60.368C355.621 60.452 355.809 60.496 356.021 60.5C356.229 60.504 356.421 60.456 356.597 60.356C356.773 60.256 356.923 60.122 357.047 59.954L358.739 60.344C358.495 60.876 358.131 61.312 357.647 61.652C357.163 61.988 356.621 62.156 356.021 62.156ZM354.749 58.328H357.299C357.247 58.128 357.159 57.948 357.035 57.788C356.911 57.628 356.761 57.502 356.585 57.41C356.413 57.318 356.225 57.272 356.021 57.272C355.821 57.272 355.633 57.318 355.457 57.41C355.285 57.502 355.137 57.628 355.013 57.788C354.893 57.944 354.805 58.124 354.749 58.328Z"
        fill="black" />
    <path
        d="M29.5962 24.8525C29.1092 24.8525 28.7606 24.9189 28.5503 25.0518C28.3455 25.179 28.2432 25.4253 28.2432 25.7905V30.9204H29.9033C30.1302 30.9204 30.3211 30.8983 30.4761 30.854C30.631 30.8097 30.7528 30.7184 30.8413 30.5801C30.9299 30.4362 30.9907 30.237 31.0239 29.9824C31.0627 29.7279 31.082 29.3903 31.082 28.9697H33.9873V34H21.9844V30.9204C22.4714 30.9204 22.82 30.8568 23.0303 30.7295C23.2406 30.5967 23.3457 30.3504 23.3457 29.9907V25.7905C23.3457 25.4253 23.2406 25.179 23.0303 25.0518C22.82 24.9189 22.4714 24.8525 21.9844 24.8525V21.7729H29.5962V24.8525ZM39.4077 29.9409C39.4299 30.7655 39.5848 31.3354 39.8726 31.6509C40.1659 31.9608 40.5837 32.1157 41.126 32.1157C41.3086 32.1157 41.4857 32.0908 41.6572 32.041C41.8343 31.9857 41.9976 31.8999 42.147 31.7837C42.2964 31.6619 42.4237 31.5042 42.5288 31.3105C42.6395 31.1113 42.7114 30.8623 42.7446 30.5635H45.7661C45.6554 31.2773 45.4507 31.875 45.1519 32.3564C44.8586 32.8379 44.4795 33.228 44.0146 33.5269C43.5498 33.8201 43.0075 34.0304 42.3877 34.1577C41.7734 34.2905 41.0872 34.3569 40.3291 34.3569C39.5488 34.3569 38.8156 34.2573 38.1294 34.0581C37.4432 33.8589 36.84 33.5573 36.3198 33.1533C35.8052 32.7438 35.4012 32.2319 35.1079 31.6177C34.8146 30.9979 34.668 30.2619 34.668 29.4097C34.668 28.5962 34.8063 27.8823 35.083 27.2681C35.3597 26.6538 35.7471 26.1419 36.2451 25.7324C36.7487 25.3174 37.3408 25.0047 38.0215 24.7944C38.7077 24.5841 39.4603 24.479 40.2793 24.479C41.2865 24.479 42.1525 24.6118 42.8774 24.8774C43.6024 25.1431 44.1945 25.5138 44.6538 25.9897C45.1131 26.4657 45.4507 27.0384 45.6665 27.708C45.8823 28.3776 45.9847 29.1219 45.9736 29.9409H39.4077ZM40.6362 26.7202C40.2489 26.7202 39.9611 26.8586 39.7729 27.1353C39.5903 27.4064 39.4686 27.8574 39.4077 28.4883H41.8398C41.8066 27.946 41.6904 27.5171 41.4912 27.2017C41.292 26.8807 41.007 26.7202 40.6362 26.7202ZM58.8564 35.5107C58.8564 36.4515 58.3141 37.1709 57.2295 37.6689C56.1504 38.167 54.5871 38.416 52.5396 38.416C51.798 38.416 51.0758 38.4049 50.373 38.3828C49.6702 38.3607 49.0477 38.286 48.5054 38.1587C47.9631 38.0369 47.5259 37.8405 47.1938 37.5693C46.8674 37.2982 46.7041 36.9136 46.7041 36.4155C46.7041 36.0171 46.8314 35.6906 47.0859 35.436C47.3405 35.1815 47.6144 34.9795 47.9077 34.8301C47.548 34.6143 47.3018 34.3735 47.1689 34.1079C47.0417 33.8423 46.978 33.5518 46.978 33.2363C46.978 32.86 47.1136 32.5003 47.3848 32.1572C47.6559 31.8086 48.0461 31.471 48.5552 31.1445C48.0571 30.818 47.6753 30.4196 47.4097 29.9492C47.144 29.4788 47.0112 28.9199 47.0112 28.2725C47.0112 27.6471 47.1413 27.0993 47.4014 26.6289C47.6615 26.1585 48.035 25.7656 48.522 25.4502C49.009 25.1348 49.59 24.894 50.2651 24.728C50.9403 24.562 51.6984 24.479 52.5396 24.479C53.4416 24.479 54.255 24.5758 54.98 24.7695C55.7104 24.9632 56.3302 25.2565 56.8394 25.6494C56.939 25.5166 57.0745 25.3866 57.2461 25.2593C57.39 25.1597 57.5726 25.0684 57.7939 24.9854C58.0153 24.8968 58.2865 24.8525 58.6074 24.8525H59.3711V27.9321H58.8232C58.5853 27.9321 58.4027 27.9985 58.2754 28.1313C58.1536 28.2586 58.0817 28.3831 58.0596 28.5049C57.8659 29.6725 57.3014 30.5635 56.3662 31.1777C55.431 31.792 54.1554 32.0991 52.5396 32.0991C51.632 32.0991 50.8102 32.0023 50.0742 31.8086C49.958 31.8861 49.8999 31.9829 49.8999 32.0991C49.8999 32.3149 50.0272 32.4671 50.2817 32.5557C50.5363 32.6442 50.8739 32.7051 51.2944 32.7383C51.715 32.766 52.1937 32.777 52.7305 32.7715C53.2673 32.7604 53.8151 32.7687 54.374 32.7964C54.9385 32.8185 55.4891 32.8683 56.0259 32.9458C56.5682 33.0233 57.0469 33.1616 57.4619 33.3608C57.8825 33.5601 58.2201 33.8312 58.4746 34.1743C58.7292 34.5229 58.8564 34.9684 58.8564 35.5107ZM51.3774 28.2725C51.3774 28.848 51.4577 29.2935 51.6182 29.6089C51.7786 29.9188 52.0858 30.0737 52.5396 30.0737C52.9989 30.0737 53.3088 29.9188 53.4692 29.6089C53.6297 29.2935 53.71 28.848 53.71 28.2725C53.71 27.7025 53.6297 27.2681 53.4692 26.9692C53.3088 26.6704 52.9989 26.521 52.5396 26.521C52.0858 26.521 51.7786 26.6704 51.6182 26.9692C51.4577 27.2681 51.3774 27.7025 51.3774 28.2725ZM52.9131 35.6353C52.321 35.6353 51.7842 35.6187 51.3027 35.5854C50.8213 35.5578 50.3869 35.5163 49.9995 35.4609C49.9442 35.555 49.9165 35.6519 49.9165 35.7515C49.9165 36.1499 50.1323 36.41 50.564 36.5317C50.9956 36.659 51.5628 36.7227 52.2656 36.7227C53.2064 36.7227 53.8926 36.6646 54.3242 36.5483C54.7614 36.4377 54.98 36.2799 54.98 36.0752C54.98 35.9701 54.9163 35.8898 54.7891 35.8345C54.6673 35.7791 54.5041 35.7349 54.2993 35.7017C54.1001 35.6685 53.8787 35.6491 53.6353 35.6436C53.3918 35.638 53.151 35.6353 52.9131 35.6353ZM64.6255 29.9409C64.6476 30.7655 64.8026 31.3354 65.0903 31.6509C65.3836 31.9608 65.8014 32.1157 66.3438 32.1157C66.5264 32.1157 66.7035 32.0908 66.875 32.041C67.0521 31.9857 67.2153 31.8999 67.3647 31.7837C67.5142 31.6619 67.6414 31.5042 67.7466 31.3105C67.8573 31.1113 67.9292 30.8623 67.9624 30.5635H70.9839C70.8732 31.2773 70.6685 31.875 70.3696 32.3564C70.0763 32.8379 69.6973 33.228 69.2324 33.5269C68.7676 33.8201 68.2253 34.0304 67.6055 34.1577C66.9912 34.2905 66.305 34.3569 65.5469 34.3569C64.7666 34.3569 64.0334 34.2573 63.3472 34.0581C62.661 33.8589 62.0578 33.5573 61.5376 33.1533C61.0229 32.7438 60.619 32.2319 60.3257 31.6177C60.0324 30.9979 59.8857 30.2619 59.8857 29.4097C59.8857 28.5962 60.0241 27.8823 60.3008 27.2681C60.5775 26.6538 60.9648 26.1419 61.4629 25.7324C61.9665 25.3174 62.5586 25.0047 63.2393 24.7944C63.9255 24.5841 64.6781 24.479 65.4971 24.479C66.5042 24.479 67.3703 24.6118 68.0952 24.8774C68.8201 25.1431 69.4123 25.5138 69.8716 25.9897C70.3309 26.4657 70.6685 27.0384 70.8843 27.708C71.1001 28.3776 71.2025 29.1219 71.1914 29.9409H64.6255ZM65.854 26.7202C65.4666 26.7202 65.1789 26.8586 64.9907 27.1353C64.8081 27.4064 64.6864 27.8574 64.6255 28.4883H67.0576C67.0244 27.946 66.9082 27.5171 66.709 27.2017C66.5098 26.8807 66.2248 26.7202 65.854 26.7202ZM79.8823 28.6958C79.8823 28.48 79.8547 28.3084 79.7993 28.1812C79.7495 28.0483 79.6831 27.9487 79.6001 27.8823C79.5226 27.8104 79.4341 27.7633 79.3345 27.7412C79.2349 27.7191 79.138 27.708 79.0439 27.708C78.6842 27.708 78.4159 27.8132 78.2388 28.0234C78.0617 28.2337 77.9731 28.5326 77.9731 28.9199V30.1069C77.9731 30.4002 78.0229 30.6105 78.1226 30.7378C78.2277 30.8595 78.4269 30.9204 78.7202 30.9204H79.1685V34H72.229V30.9204H72.7188C72.9456 30.9204 73.1172 30.8485 73.2334 30.7046C73.3551 30.5552 73.416 30.3781 73.416 30.1733V28.5962C73.416 28.3361 73.3385 28.1618 73.1836 28.0732C73.0342 27.9792 72.8626 27.9321 72.6689 27.9321H72.229V24.8525H77.1597L76.9854 27.1353H77.1265C77.2482 26.283 77.6217 25.6273 78.2471 25.168C78.8724 24.7087 79.7218 24.479 80.7954 24.479C81.5535 24.479 82.1706 24.5869 82.6465 24.8027C83.1224 25.0186 83.4904 25.2925 83.7505 25.6245C84.0161 25.951 84.196 26.3079 84.29 26.6953C84.3841 27.0771 84.4312 27.4368 84.4312 27.7744V30.1069C84.4312 30.4002 84.481 30.6105 84.5806 30.7378C84.6857 30.8595 84.8849 30.9204 85.1782 30.9204H85.6265V34H79.8823V28.6958ZM97.7456 21.7729V30.2397C97.7456 30.4666 97.8065 30.6382 97.9282 30.7544C98.0555 30.8651 98.2326 30.9204 98.4595 30.9204H98.9326V34H93.3545V32.4893H93.2217C93.1331 32.7272 93.0031 32.9541 92.8315 33.1699C92.66 33.3857 92.4497 33.5767 92.2007 33.7427C91.9517 33.9032 91.6556 34.0304 91.3125 34.1245C90.9749 34.2241 90.5903 34.2739 90.1587 34.2739C88.8029 34.2739 87.7764 33.8644 87.0791 33.0454C86.3818 32.2209 86.0332 31.0145 86.0332 29.4263C86.0332 27.8381 86.4067 26.6593 87.1538 25.8901C87.9009 25.1209 88.9274 24.7363 90.2334 24.7363C90.582 24.7363 90.8947 24.764 91.1714 24.8193C91.4481 24.8747 91.6999 24.9466 91.9268 25.0352C92.1536 25.1182 92.3695 25.215 92.5742 25.3257C92.779 25.4308 92.9837 25.5332 93.1885 25.6328V25.334C93.1885 25.0352 93.1359 24.8249 93.0308 24.7031C92.9312 24.5758 92.7347 24.5122 92.4414 24.5122H92.0015V21.7729H97.7456ZM90.7563 29.5093C90.7563 29.8081 90.7729 30.0903 90.8062 30.356C90.8394 30.6216 90.9002 30.854 90.9888 31.0532C91.0828 31.2524 91.2046 31.4074 91.354 31.5181C91.509 31.6287 91.7109 31.6841 91.96 31.6841C92.209 31.6841 92.4137 31.6315 92.5742 31.5264C92.7347 31.4212 92.8592 31.2746 92.9478 31.0864C93.0418 30.8983 93.1055 30.6742 93.1387 30.4141C93.1719 30.154 93.1885 29.8773 93.1885 29.584V27.708C93.0501 27.5752 92.8647 27.4645 92.6323 27.376C92.3999 27.2819 92.1758 27.2349 91.96 27.2349C91.7109 27.2349 91.509 27.2985 91.354 27.4258C91.2046 27.5475 91.0828 27.7135 90.9888 27.9238C90.9002 28.1341 90.8394 28.3776 90.8062 28.6543C90.7729 28.931 90.7563 29.216 90.7563 29.5093Z"
        fill="black" />
    <ellipse cx="59" cy="27.7895" rx="48" ry="10.5263" stroke="black" />
    <path
        d="M26.6402 94.4824H23.8629L23.7398 94.8604C23.6461 95.1123 23.6519 95.3232 23.7574 95.4932C23.8629 95.6572 24.0855 95.7393 24.4254 95.7393H24.9264V99H19.4508V95.7393H19.8111C20.233 95.7393 20.5143 95.6572 20.6549 95.4932C20.8014 95.3232 20.942 95.0771 21.0768 94.7549L22.8785 90.3076C23.0074 89.9678 23.0279 89.7188 22.94 89.5605C22.858 89.3965 22.6031 89.3145 22.1754 89.3145H21.9908V86.0537H31.026V89.3145H30.8502C30.4166 89.3145 30.1559 89.3994 30.068 89.5693C29.9859 89.7393 30.0123 89.9854 30.1471 90.3076L31.9488 94.7549C32.0191 94.9189 32.0807 95.0625 32.1334 95.1855C32.192 95.3027 32.2623 95.4053 32.3443 95.4932C32.4264 95.5752 32.5348 95.6367 32.6695 95.6777C32.8102 95.7188 32.9889 95.7393 33.2057 95.7393H33.566V99H25.5768V95.7393H26.0602C26.3941 95.7393 26.6168 95.6572 26.7281 95.4932C26.8453 95.3232 26.857 95.1123 26.7633 94.8604L26.6402 94.4824ZM24.3111 93.1113H26.1832L25.3043 90.4131H25.234L24.3111 93.1113ZM40.1139 96.1348C40.2076 96.293 40.3893 96.4189 40.6588 96.5127C40.9283 96.6006 41.1773 96.6445 41.4059 96.6445C41.6695 96.6445 41.8834 96.5801 42.0475 96.4512C42.2115 96.3164 42.3404 96.1377 42.4342 95.915C42.5338 95.6924 42.6012 95.4346 42.6363 95.1416C42.6715 94.8486 42.6891 94.5439 42.6891 94.2275C42.6891 93.917 42.6715 93.6211 42.6363 93.3398C42.6012 93.0586 42.5338 92.8125 42.4342 92.6016C42.3404 92.3906 42.2086 92.2266 42.0387 92.1094C41.8687 91.9863 41.6519 91.9248 41.3883 91.9248C41.1246 91.9248 40.9107 91.9863 40.7467 92.1094C40.5885 92.2266 40.4596 92.3906 40.36 92.6016C40.2662 92.8125 40.2018 93.0586 40.1666 93.3398C40.1314 93.6211 40.1139 93.917 40.1139 94.2275V96.1348ZM43.4098 89.0068C44.7516 89.0068 45.8004 89.4434 46.5562 90.3164C47.3121 91.1836 47.69 92.458 47.69 94.1396C47.69 95.8213 47.2945 97.1016 46.5035 97.9805C45.7125 98.8535 44.6256 99.29 43.2428 99.29C42.7506 99.29 42.317 99.2432 41.942 99.1494C41.5728 99.0615 41.2418 98.9473 40.9488 98.8066C40.6559 98.6602 40.3893 98.4932 40.149 98.3057C39.9088 98.1182 39.6744 97.9307 39.4459 97.7432H39.3228L39.0152 99H35.2887V90.3076C35.2887 89.9678 35.1803 89.7188 34.9635 89.5605C34.7467 89.3965 34.5006 89.3145 34.2252 89.3145H34.0318V86.0537H40.1139V89.4023V91.0107H40.2545C40.3424 90.7588 40.4625 90.5127 40.6148 90.2725C40.773 90.0322 40.9781 89.8184 41.2301 89.6309C41.482 89.4434 41.7867 89.2939 42.1441 89.1826C42.5074 89.0654 42.9293 89.0068 43.4098 89.0068ZM54.4928 96.1348C54.5865 96.293 54.7682 96.4189 55.0377 96.5127C55.3072 96.6006 55.5562 96.6445 55.7848 96.6445C56.0484 96.6445 56.2623 96.5801 56.4264 96.4512C56.5904 96.3164 56.7193 96.1377 56.8131 95.915C56.9127 95.6924 56.9801 95.4346 57.0152 95.1416C57.0504 94.8486 57.068 94.5439 57.068 94.2275C57.068 93.917 57.0504 93.6211 57.0152 93.3398C56.9801 93.0586 56.9127 92.8125 56.8131 92.6016C56.7193 92.3906 56.5875 92.2266 56.4176 92.1094C56.2477 91.9863 56.0309 91.9248 55.7672 91.9248C55.5035 91.9248 55.2896 91.9863 55.1256 92.1094C54.9674 92.2266 54.8385 92.3906 54.7389 92.6016C54.6451 92.8125 54.5807 93.0586 54.5455 93.3398C54.5103 93.6211 54.4928 93.917 54.4928 94.2275V96.1348ZM57.7887 89.0068C59.1305 89.0068 60.1793 89.4434 60.9352 90.3164C61.691 91.1836 62.0689 92.458 62.0689 94.1396C62.0689 95.8213 61.6734 97.1016 60.8824 97.9805C60.0914 98.8535 59.0045 99.29 57.6217 99.29C57.1295 99.29 56.6959 99.2432 56.3209 99.1494C55.9518 99.0615 55.6207 98.9473 55.3277 98.8066C55.0348 98.6602 54.7682 98.4932 54.5279 98.3057C54.2877 98.1182 54.0533 97.9307 53.8248 97.7432H53.7018L53.3941 99H49.6676V90.3076C49.6676 89.9678 49.5592 89.7188 49.3424 89.5605C49.1256 89.3965 48.8795 89.3145 48.6041 89.3145H48.4107V86.0537H54.4928V89.4023V91.0107H54.6334C54.7213 90.7588 54.8414 90.5127 54.9937 90.2725C55.1519 90.0322 55.357 89.8184 55.609 89.6309C55.8609 89.4434 56.1656 89.2939 56.523 89.1826C56.8863 89.0654 57.3082 89.0068 57.7887 89.0068ZM68.4586 89.3145L68.3092 91.7314H68.4586C68.6637 90.8057 69.0035 90.1055 69.4781 89.6309C69.9586 89.1562 70.5797 88.9189 71.3414 88.9189C71.7926 88.9189 72.1793 88.9922 72.5016 89.1387C72.8297 89.2793 73.0934 89.4697 73.2926 89.71C73.4918 89.9502 73.6353 90.2285 73.7232 90.5449C73.8111 90.8555 73.8551 91.1777 73.8551 91.5117C73.8551 91.7871 73.8141 92.0596 73.732 92.3291C73.65 92.5986 73.5182 92.8418 73.3365 93.0586C73.1549 93.2754 72.9205 93.4512 72.6334 93.5859C72.3463 93.7148 71.9918 93.7793 71.5699 93.7793C70.984 93.7793 70.5211 93.6299 70.1812 93.3311C69.8473 93.0322 69.6803 92.6719 69.6803 92.25C69.6803 92.0449 69.7037 91.8721 69.7506 91.7314C69.7975 91.585 69.8443 91.4678 69.8912 91.3799C69.9439 91.2861 69.9791 91.2188 69.9967 91.1777C70.0143 91.1367 69.9937 91.1162 69.9352 91.1162C69.8121 91.1162 69.6773 91.2568 69.5309 91.5381C69.3902 91.8193 69.3199 92.2617 69.3199 92.8652V94.8779C69.3199 95.1885 69.3727 95.4111 69.4781 95.5459C69.5894 95.6748 69.8004 95.7393 70.1109 95.7393H70.6383V99H63.2379V95.7393H63.7564C63.9967 95.7393 64.1783 95.6631 64.3014 95.5107C64.4303 95.3525 64.4947 95.165 64.4947 94.9482V93.2783C64.4947 93.0029 64.4127 92.8184 64.2486 92.7246C64.0904 92.625 63.9088 92.5752 63.7037 92.5752H63.2379V89.3145H68.4586ZM79.3746 94.7021C79.398 95.5752 79.5621 96.1787 79.8668 96.5127C80.1773 96.8408 80.6197 97.0049 81.1939 97.0049C81.3873 97.0049 81.5748 96.9785 81.7564 96.9258C81.9439 96.8672 82.1168 96.7764 82.275 96.6533C82.4332 96.5244 82.568 96.3574 82.6793 96.1523C82.7965 95.9414 82.8727 95.6777 82.9078 95.3613H86.107C85.9898 96.1172 85.773 96.75 85.4566 97.2598C85.1461 97.7695 84.7447 98.1826 84.2525 98.499C83.7603 98.8096 83.1861 99.0322 82.5299 99.167C81.8795 99.3076 81.1529 99.3779 80.3502 99.3779C79.524 99.3779 78.7477 99.2725 78.0211 99.0615C77.2945 98.8506 76.6559 98.5312 76.1051 98.1035C75.5602 97.6699 75.1324 97.1279 74.8219 96.4775C74.5113 95.8213 74.356 95.042 74.356 94.1396C74.356 93.2783 74.5025 92.5225 74.7955 91.8721C75.0885 91.2217 75.4986 90.6797 76.026 90.2461C76.5592 89.8066 77.1861 89.4756 77.9068 89.2529C78.6334 89.0303 79.4303 88.9189 80.2975 88.9189C81.3639 88.9189 82.2809 89.0596 83.0484 89.3408C83.816 89.6221 84.443 90.0146 84.9293 90.5186C85.4156 91.0225 85.773 91.6289 86.0016 92.3379C86.2301 93.0469 86.3385 93.835 86.3268 94.7021H79.3746ZM80.6754 91.292C80.2652 91.292 79.9605 91.4385 79.7613 91.7314C79.568 92.0186 79.4391 92.4961 79.3746 93.1641H81.9498C81.9146 92.5898 81.7916 92.1357 81.5807 91.8018C81.3697 91.4619 81.068 91.292 80.6754 91.292ZM88.0406 93.3311C87.9176 93.0674 87.774 92.877 87.61 92.7598C87.4518 92.6367 87.15 92.5752 86.7047 92.5752V89.3145H93.7623V92.5752C93.3873 92.5752 93.1441 92.6309 93.0328 92.7422C92.9273 92.8477 92.9185 93.0146 93.0064 93.2432L93.9557 95.9414H94.0875L95.0894 93.2432C95.1773 93.0264 95.1656 92.8623 95.0543 92.751C94.9488 92.6338 94.7086 92.5752 94.3336 92.5752V89.3145H99.2291V92.5752C98.8014 92.5752 98.4996 92.6338 98.3238 92.751C98.148 92.8623 98.0016 93.0557 97.8844 93.3311L95.5289 99H90.3961L88.0406 93.3311ZM99.2555 97.1455C99.2555 96.8467 99.3141 96.5596 99.4312 96.2842C99.5543 96.0088 99.7125 95.7715 99.9059 95.5723C100.105 95.373 100.339 95.2148 100.609 95.0977C100.884 94.9746 101.177 94.9131 101.488 94.9131C101.787 94.9131 102.074 94.9746 102.349 95.0977C102.625 95.2148 102.862 95.373 103.061 95.5723C103.26 95.7715 103.419 96.0088 103.536 96.2842C103.659 96.5596 103.72 96.8467 103.72 97.1455C103.72 97.4561 103.659 97.7461 103.536 98.0156C103.419 98.2852 103.26 98.5195 103.061 98.7188C102.862 98.918 102.625 99.0762 102.349 99.1934C102.074 99.3164 101.787 99.3779 101.488 99.3779C101.177 99.3779 100.884 99.3164 100.609 99.1934C100.339 99.0762 100.105 98.918 99.9059 98.7188C99.7125 98.5195 99.5543 98.2852 99.4312 98.0156C99.3141 97.7461 99.2555 97.4561 99.2555 97.1455Z"
        fill="black" />
    <ellipse cx="62" cy="94" rx="51" ry="12" stroke="black" />
    <defs>
        <filter id="filter0_d_940_145" x="0" y="0" width="375" height="131"
            filterUnits="userSpaceOnUse" color-interpolation-filters="sRGB">
            <feFlood flood-opacity="0" result="BackgroundImageFix" />
            <feColorMatrix in="SourceAlpha" type="matrix"
                values="0 0 0 0 0 0 0 0 0 0 0 0 0 0 0 0 0 0 127 0" result="hardAlpha" />
            <feOffset dx="3" dy="3" />
            <feComposite in2="hardAlpha" operator="out" />
            <feColorMatrix type="matrix" values="0 0 0 0 0 0 0 0 0 0 0 0 0 0 0 0 0 0 1 0" />
            <feBlend mode="normal" in2="BackgroundImageFix" result="effect1_dropShadow_940_145" />
            <feBlend mode="normal" in="SourceGraphic" in2="effect1_dropShadow_940_145"
                result="shape" />
        </filter>
        <filter id="filter1_d_940_145" x="116.5" y="12.5" width="121.92" height="27"
            filterUnits="userSpaceOnUse" color-interpolation-filters="sRGB">
            <feFlood flood-opacity="0" result="BackgroundImageFix" />
            <feColorMatrix in="SourceAlpha" type="matrix"
                values="0 0 0 0 0 0 0 0 0 0 0 0 0 0 0 0 0 0 127 0" result="hardAlpha" />
            <feOffset dx="1" dy="1" />
            <feComposite in2="hardAlpha" operator="out" />
            <feColorMatrix type="matrix" values="0 0 0 0 0 0 0 0 0 0 0 0 0 0 0 0 0 0 1 0" />
            <feBlend mode="normal" in2="BackgroundImageFix" result="effect1_dropShadow_940_145" />
            <feBlend mode="normal" in="SourceGraphic" in2="effect1_dropShadow_940_145"
                result="shape" />
        </filter>
        <filter id="filter2_d_940_145" x="243.744" y="12.5" width="121.92" height="27"
            filterUnits="userSpaceOnUse" color-interpolation-filters="sRGB">
            <feFlood flood-opacity="0" result="BackgroundImageFix" />
            <feColorMatrix in="SourceAlpha" type="matrix"
                values="0 0 0 0 0 0 0 0 0 0 0 0 0 0 0 0 0 0 127 0" result="hardAlpha" />
            <feOffset dx="1" dy="1" />
            <feComposite in2="hardAlpha" operator="out" />
            <feColorMatrix type="matrix" values="0 0 0 0 0 0 0 0 0 0 0 0 0 0 0 0 0 0 1 0" />
            <feBlend mode="normal" in2="BackgroundImageFix" result="effect1_dropShadow_940_145" />
            <feBlend mode="normal" in="SourceGraphic" in2="effect1_dropShadow_940_145"
                result="shape" />
        </filter>
        <filter id="filter3_d_940_145" x="116.5" y="45.5" width="121.92" height="27"
            filterUnits="userSpaceOnUse" color-interpolation-filters="sRGB">
            <feFlood flood-opacity="0" result="BackgroundImageFix" />
            <feColorMatrix in="SourceAlpha" type="matrix"
                values="0 0 0 0 0 0 0 0 0 0 0 0 0 0 0 0 0 0 127 0" result="hardAlpha" />
            <feOffset dx="1" dy="1" />
            <feComposite in2="hardAlpha" operator="out" />
            <feColorMatrix type="matrix" values="0 0 0 0 0 0 0 0 0 0 0 0 0 0 0 0 0 0 1 0" />
            <feBlend mode="normal" in2="BackgroundImageFix" result="effect1_dropShadow_940_145" />
            <feBlend mode="normal" in="SourceGraphic" in2="effect1_dropShadow_940_145"
                result="shape" />
        </filter>
        <filter id="filter4_d_940_145" x="243.744" y="45.5" width="121.92" height="27"
            filterUnits="userSpaceOnUse" color-interpolation-filters="sRGB">
            <feFlood flood-opacity="0" result="BackgroundImageFix" />
            <feColorMatrix in="SourceAlpha" type="matrix"
                values="0 0 0 0 0 0 0 0 0 0 0 0 0 0 0 0 0 0 127 0" result="hardAlpha" />
            <feOffset dx="1" dy="1" />
            <feComposite in2="hardAlpha" operator="out" />
            <feColorMatrix type="matrix" values="0 0 0 0 0 0 0 0 0 0 0 0 0 0 0 0 0 0 1 0" />
            <feBlend mode="normal" in2="BackgroundImageFix" result="effect1_dropShadow_940_145" />
            <feBlend mode="normal" in="SourceGraphic" in2="effect1_dropShadow_940_145"
                result="shape" />
        </filter>
    </defs>
</svg>
    