<svg width="374" height="216" viewBox="0 0 374 216" fill="none" xmlns="http://www.w3.org/2000/svg">
    <g filter="url(#filter0_d_940_173)">
        <rect x="1" y="1" width="369" height="211" rx="15" fill="#F2E3C6" />
        <rect x="1" y="1" width="369" height="211" rx="15" stroke="black" stroke-width="2" />
    </g>
    <path
        d="M87.7173 36.0801C87.7173 33.8184 88.0864 31.8379 88.8247 30.1387C89.5747 28.4277 90.6294 26.998 91.9888 25.8496C93.3481 24.7012 94.9595 23.8398 96.8227 23.2656C98.6977 22.6914 100.766 22.4043 103.028 22.4043C105.278 22.4043 107.34 22.6914 109.215 23.2656C111.09 23.8398 112.702 24.7012 114.049 25.8496C115.409 26.998 116.458 28.4277 117.196 30.1387C117.946 31.8379 118.321 33.8184 118.321 36.0801C118.321 38.3301 117.946 40.3105 117.196 42.0215C116.458 43.7207 115.409 45.1504 114.049 46.3105C112.702 47.459 111.09 48.3203 109.215 48.8945C107.34 49.4688 105.278 49.7559 103.028 49.7559C100.766 49.7559 98.6977 49.4688 96.8227 48.8945C94.9595 48.3203 93.3481 47.459 91.9888 46.3105C90.6294 45.1504 89.5747 43.7207 88.8247 42.0215C88.0864 40.3105 87.7173 38.3301 87.7173 36.0801ZM99.5298 36.0801C99.5298 37.498 99.5825 38.6875 99.688 39.6484C99.7934 40.5977 99.9751 41.3711 100.233 41.9688C100.502 42.5547 100.86 42.9824 101.305 43.252C101.75 43.5098 102.325 43.6387 103.028 43.6387C103.696 43.6387 104.258 43.5098 104.715 43.252C105.172 42.9824 105.53 42.5547 105.788 41.9688C106.057 41.3711 106.245 40.5977 106.35 39.6484C106.456 38.6875 106.508 37.498 106.508 36.0801C106.508 34.6855 106.456 33.502 106.35 32.5293C106.245 31.5566 106.057 30.7773 105.788 30.1914C105.53 29.6055 105.172 29.1836 104.715 28.9258C104.258 28.6562 103.696 28.5215 103.028 28.5215C102.325 28.5215 101.75 28.6562 101.305 28.9258C100.86 29.1836 100.502 29.6055 100.233 30.1914C99.9751 30.7773 99.7934 31.5566 99.688 32.5293C99.5825 33.502 99.5298 34.6855 99.5298 36.0801ZM133.086 33.584C132.079 33.584 131.305 34.0117 130.766 34.8672C130.227 35.7227 129.958 37.1465 129.958 39.1387C129.958 41.1309 130.233 42.5488 130.784 43.3926C131.346 44.2246 132.202 44.6406 133.35 44.6406C133.678 44.6406 134.012 44.5879 134.352 44.4824C134.692 44.377 134.997 44.2246 135.266 44.0254C135.547 43.8145 135.776 43.5508 135.952 43.2344C136.139 42.9062 136.245 42.5254 136.268 42.0918H141.946C141.571 44.7051 140.516 46.6387 138.782 47.8926C137.059 49.1348 134.598 49.7559 131.399 49.7559C129.793 49.7559 128.293 49.5449 126.899 49.123C125.504 48.7012 124.291 48.0625 123.26 47.207C122.229 46.3398 121.42 45.2559 120.834 43.9551C120.249 42.6426 119.956 41.084 119.956 39.2793C119.956 37.5566 120.249 36.0449 120.834 34.7441C121.42 33.4434 122.241 32.3594 123.295 31.4922C124.362 30.6133 125.616 29.9512 127.057 29.5059C128.51 29.0605 130.104 28.8379 131.838 28.8379C133.678 28.8379 135.231 29.0664 136.497 29.5234C137.762 29.9805 138.782 30.5547 139.555 31.2461C140.34 31.9258 140.897 32.6641 141.225 33.4609C141.565 34.2461 141.735 34.9844 141.735 35.6758C141.735 36.2266 141.653 36.7656 141.489 37.293C141.336 37.8203 141.079 38.3008 140.715 38.7344C140.364 39.168 139.913 39.5195 139.362 39.7891C138.811 40.0469 138.137 40.1758 137.34 40.1758C136.579 40.1758 135.958 40.0703 135.477 39.8594C134.997 39.6367 134.622 39.3672 134.352 39.0508C134.094 38.7227 133.907 38.3828 133.79 38.0312C133.684 37.668 133.631 37.3281 133.631 37.0117C133.631 36.2969 133.801 35.7285 134.141 35.3066C134.481 34.8848 134.874 34.5918 135.319 34.4277C135.061 34.2285 134.797 34.041 134.528 33.8652C134.27 33.6777 133.79 33.584 133.086 33.584ZM155.815 23.1074V29.6289H161.071V36.1504H155.815V41.5469C155.815 42.3203 155.92 42.9531 156.131 43.4453C156.354 43.9375 156.805 44.1836 157.485 44.1836C157.86 44.1836 158.159 44.1133 158.381 43.9727C158.616 43.8203 158.797 43.627 158.926 43.3926C159.067 43.1465 159.155 42.8711 159.19 42.5664C159.225 42.25 159.243 41.9102 159.243 41.5469V38.9277H161.264V41.7578C161.264 42.8945 161.141 43.9551 160.895 44.9395C160.661 45.9238 160.25 46.7734 159.665 47.4883C159.09 48.2031 158.305 48.7715 157.309 49.1934C156.313 49.6152 155.059 49.8262 153.547 49.8262C151.872 49.8262 150.536 49.6211 149.54 49.2109C148.543 48.8008 147.788 48.2383 147.272 47.5234C146.756 46.8086 146.416 45.959 146.252 44.9746C146.1 43.9902 146.024 42.918 146.024 41.7578V36.1504H143.264V30.3496C144.143 30.3496 144.958 30.1621 145.708 29.7871C146.469 29.4004 147.12 28.873 147.659 28.2051C148.209 27.5254 148.631 26.752 148.924 25.8848C149.229 25.0176 149.381 24.0918 149.381 23.1074H155.815ZM163.075 45.291C163.075 44.6934 163.192 44.1191 163.426 43.5684C163.672 43.0176 163.989 42.543 164.375 42.1445C164.774 41.7461 165.243 41.4297 165.782 41.1953C166.333 40.9492 166.918 40.8262 167.54 40.8262C168.137 40.8262 168.711 40.9492 169.262 41.1953C169.813 41.4297 170.288 41.7461 170.686 42.1445C171.084 42.543 171.401 43.0176 171.635 43.5684C171.881 44.1191 172.004 44.6934 172.004 45.291C172.004 45.9121 171.881 46.4922 171.635 47.0312C171.401 47.5703 171.084 48.0391 170.686 48.4375C170.288 48.8359 169.813 49.1523 169.262 49.3867C168.711 49.6328 168.137 49.7559 167.54 49.7559C166.918 49.7559 166.333 49.6328 165.782 49.3867C165.243 49.1523 164.774 48.8359 164.375 48.4375C163.989 48.0391 163.672 47.5703 163.426 47.0312C163.192 46.4922 163.075 45.9121 163.075 45.291ZM190.655 44.3945C190.889 44.1016 191.2 43.7852 191.586 43.4453C191.973 43.0938 192.418 42.7715 192.922 42.4785C193.426 42.1738 193.995 41.9219 194.627 41.7227C195.26 41.5117 195.952 41.4062 196.702 41.4062C197.463 41.4062 198.108 41.4473 198.635 41.5293C199.163 41.6113 199.643 41.6992 200.077 41.793C200.51 41.875 200.92 41.957 201.307 42.0391C201.694 42.1211 202.122 42.1621 202.59 42.1621C203.481 42.1621 204.178 41.9688 204.682 41.582C205.186 41.1953 205.438 40.4746 205.438 39.4199H208.901C208.901 41.6582 208.69 43.4395 208.268 44.7637C207.846 46.0762 207.266 47.0781 206.528 47.7695C205.801 48.4492 204.934 48.8828 203.926 49.0703C202.918 49.2578 201.84 49.3516 200.692 49.3516C199.778 49.3516 198.893 49.2637 198.038 49.0879C197.194 48.9121 196.379 48.7246 195.594 48.5254C194.821 48.3145 194.077 48.1211 193.362 47.9453C192.659 47.7578 191.997 47.6641 191.375 47.6641C190.836 47.6641 190.409 47.7402 190.092 47.8926C189.788 48.0332 189.541 48.1855 189.354 48.3496C189.131 48.5488 188.961 48.7656 188.844 49H184.819C184.819 47.2422 185.012 45.7246 185.399 44.4473C185.797 43.1582 186.319 42.0391 186.963 41.0898C187.62 40.1289 188.364 39.3086 189.196 38.6289C190.04 37.9375 190.895 37.334 191.762 36.8184C192.629 36.3027 193.479 35.8398 194.311 35.4297C195.155 35.0195 195.899 34.5977 196.543 34.1641C197.2 33.7305 197.721 33.2617 198.108 32.7578C198.506 32.2539 198.706 31.6562 198.706 30.9648C198.706 29.9336 198.301 29.166 197.493 28.6621C196.696 28.1582 195.735 27.9062 194.61 27.9062C193.813 27.9062 193.098 27.9648 192.465 28.082C191.833 28.1992 191.229 28.4043 190.655 28.6973C191.37 28.9082 191.991 29.248 192.518 29.7168C193.045 30.1855 193.309 30.877 193.309 31.791C193.309 32.2012 193.215 32.5996 193.028 32.9863C192.852 33.3613 192.588 33.707 192.237 34.0234C191.897 34.3398 191.463 34.5859 190.936 34.7617C190.409 34.9375 189.811 35.0254 189.143 35.0254C188.639 35.0254 188.118 34.9434 187.579 34.7793C187.051 34.6152 186.571 34.3516 186.137 33.9883C185.715 33.625 185.364 33.1504 185.083 32.5645C184.813 31.9785 184.678 31.2637 184.678 30.4199C184.678 29.2949 184.977 28.2637 185.575 27.3262C186.172 26.3887 187.01 25.5801 188.088 24.9004C189.166 24.209 190.461 23.6816 191.973 23.3184C193.485 22.9434 195.143 22.7559 196.948 22.7559C198.87 22.7559 200.563 22.9609 202.028 23.3711C203.493 23.7812 204.723 24.3496 205.719 25.0762C206.715 25.791 207.465 26.6289 207.969 27.5898C208.473 28.5391 208.725 29.5586 208.725 30.6484C208.725 31.9609 208.514 33.0566 208.092 33.9355C207.67 34.8145 207.096 35.541 206.37 36.1152C205.655 36.6895 204.829 37.1641 203.891 37.5391C202.954 37.9023 201.969 38.2246 200.938 38.5059C199.907 38.7871 198.864 39.0684 197.809 39.3496C196.754 39.6191 195.752 39.9648 194.803 40.3867C193.854 40.7969 192.987 41.3125 192.202 41.9336C191.428 42.543 190.813 43.3281 190.356 44.2891L190.655 44.3945ZM210.588 36.2559C210.588 34.0996 210.911 32.1836 211.555 30.5078C212.211 28.8203 213.114 27.4082 214.262 26.2715C215.411 25.123 216.782 24.25 218.375 23.6523C219.981 23.0547 221.727 22.7559 223.614 22.7559C225.512 22.7559 227.258 23.0547 228.852 23.6523C230.458 24.25 231.834 25.123 232.983 26.2715C234.131 27.4082 235.028 28.8203 235.672 30.5078C236.329 32.1836 236.657 34.0996 236.657 36.2559C236.657 38.4121 236.329 40.334 235.672 42.0215C235.028 43.6973 234.131 45.1094 232.983 46.2578C231.834 47.3945 230.458 48.2617 228.852 48.8594C227.258 49.457 225.512 49.7559 223.614 49.7559C221.727 49.7559 219.981 49.457 218.375 48.8594C216.782 48.2617 215.411 47.3945 214.262 46.2578C213.114 45.1094 212.211 43.6973 211.555 42.0215C210.911 40.334 210.588 38.4121 210.588 36.2559ZM220.749 36.2559C220.749 39.0684 220.936 41.0898 221.311 42.3203C221.698 43.5391 222.465 44.1484 223.614 44.1484C224.774 44.1484 225.541 43.5391 225.916 42.3203C226.303 41.0898 226.497 39.0684 226.497 36.2559C226.497 33.4434 226.303 31.4277 225.916 30.209C225.541 28.9785 224.774 28.3633 223.614 28.3633C222.465 28.3633 221.698 28.9785 221.311 30.209C220.936 31.4277 220.749 33.4434 220.749 36.2559ZM243.881 44.3945C244.116 44.1016 244.426 43.7852 244.813 43.4453C245.2 43.0938 245.645 42.7715 246.149 42.4785C246.653 42.1738 247.221 41.9219 247.854 41.7227C248.487 41.5117 249.178 41.4062 249.928 41.4062C250.69 41.4062 251.334 41.4473 251.862 41.5293C252.389 41.6113 252.87 41.6992 253.303 41.793C253.737 41.875 254.147 41.957 254.534 42.0391C254.92 42.1211 255.348 42.1621 255.817 42.1621C256.708 42.1621 257.405 41.9688 257.909 41.582C258.413 41.1953 258.665 40.4746 258.665 39.4199H262.127C262.127 41.6582 261.916 43.4395 261.495 44.7637C261.073 46.0762 260.493 47.0781 259.754 47.7695C259.028 48.4492 258.161 48.8828 257.153 49.0703C256.145 49.2578 255.067 49.3516 253.918 49.3516C253.004 49.3516 252.12 49.2637 251.264 49.0879C250.42 48.9121 249.606 48.7246 248.821 48.5254C248.047 48.3145 247.303 48.1211 246.588 47.9453C245.885 47.7578 245.223 47.6641 244.602 47.6641C244.063 47.6641 243.635 47.7402 243.319 47.8926C243.014 48.0332 242.768 48.1855 242.581 48.3496C242.358 48.5488 242.188 48.7656 242.071 49H238.045C238.045 47.2422 238.239 45.7246 238.625 44.4473C239.024 43.1582 239.545 42.0391 240.19 41.0898C240.846 40.1289 241.59 39.3086 242.422 38.6289C243.266 37.9375 244.122 37.334 244.989 36.8184C245.856 36.3027 246.706 35.8398 247.538 35.4297C248.381 35.0195 249.125 34.5977 249.77 34.1641C250.426 33.7305 250.948 33.2617 251.334 32.7578C251.733 32.2539 251.932 31.6562 251.932 30.9648C251.932 29.9336 251.528 29.166 250.719 28.6621C249.922 28.1582 248.961 27.9062 247.836 27.9062C247.04 27.9062 246.325 27.9648 245.692 28.082C245.059 28.1992 244.456 28.4043 243.881 28.6973C244.596 28.9082 245.217 29.248 245.745 29.7168C246.272 30.1855 246.536 30.877 246.536 31.791C246.536 32.2012 246.442 32.5996 246.254 32.9863C246.079 33.3613 245.815 33.707 245.463 34.0234C245.124 34.3398 244.69 34.5859 244.163 34.7617C243.635 34.9375 243.038 35.0254 242.37 35.0254C241.866 35.0254 241.344 34.9434 240.805 34.7793C240.278 34.6152 239.797 34.3516 239.364 33.9883C238.942 33.625 238.59 33.1504 238.309 32.5645C238.04 31.9785 237.905 31.2637 237.905 30.4199C237.905 29.2949 238.204 28.2637 238.801 27.3262C239.399 26.3887 240.237 25.5801 241.315 24.9004C242.393 24.209 243.688 23.6816 245.2 23.3184C246.711 22.9434 248.37 22.7559 250.174 22.7559C252.096 22.7559 253.79 22.9609 255.254 23.3711C256.719 23.7812 257.95 24.3496 258.946 25.0762C259.942 25.791 260.692 26.6289 261.196 27.5898C261.7 28.5391 261.952 29.5586 261.952 30.6484C261.952 31.9609 261.741 33.0566 261.319 33.9355C260.897 34.8145 260.323 35.541 259.596 36.1152C258.881 36.6895 258.055 37.1641 257.118 37.5391C256.18 37.9023 255.196 38.2246 254.165 38.5059C253.133 38.7871 252.09 39.0684 251.036 39.3496C249.981 39.6191 248.979 39.9648 248.03 40.3867C247.081 40.7969 246.213 41.3125 245.428 41.9336C244.655 42.543 244.04 43.3281 243.583 44.2891L243.881 44.3945ZM263.745 34.9902L275.083 23.1074H284.838V36.502H288.793V40.3164H284.838V40.9316C284.838 41.3418 284.868 41.6523 284.926 41.8633C284.985 42.0625 285.084 42.209 285.225 42.3027C285.377 42.3965 285.559 42.4492 285.77 42.4609C285.993 42.4727 286.245 42.4785 286.526 42.4785H287.352V49H272.569V42.4785H273.606C274.227 42.4785 274.625 42.3438 274.801 42.0742C274.989 41.793 275.083 41.4238 275.083 40.9668V40.3164H263.745V34.9902ZM268.526 36.502H275.083V29.4883L268.526 36.502Z"
        fill="black" />
    <g filter="url(#filter1_d_940_173)">
        <rect x="26.02" y="83" width="60.0601" height="27" fill="#FBF2E6" />
        <rect x="26.02" y="83" width="60.0601" height="27" stroke="black" />
    </g>
    <path
        d="M32.5998 101L34.4828 97.745C34.0208 97.773 33.5798 97.71 33.1598 97.556C32.7445 97.402 32.3735 97.1733 32.0468 96.87C31.7202 96.5667 31.4612 96.2073 31.2698 95.792C31.0832 95.3767 30.9898 94.9263 30.9898 94.441C30.9898 93.9697 31.0785 93.5287 31.2558 93.118C31.4332 92.7027 31.6782 92.3387 31.9908 92.026C32.3082 91.7087 32.6722 91.4613 33.0828 91.284C33.4982 91.1067 33.9438 91.018 34.4198 91.018C35.0405 91.018 35.6075 91.172 36.1208 91.48C36.6388 91.788 37.0518 92.201 37.3598 92.719C37.6725 93.237 37.8288 93.811 37.8288 94.441C37.8288 94.7537 37.7892 95.05 37.7098 95.33C37.6352 95.6053 37.5162 95.8853 37.3528 96.17L34.5738 101H32.5998ZM34.4058 96.156C34.7418 96.156 35.0382 96.0743 35.2948 95.911C35.5562 95.7477 35.7592 95.5353 35.9038 95.274C36.0485 95.0127 36.1208 94.7327 36.1208 94.434C36.1208 94.1073 36.0415 93.8157 35.8828 93.559C35.7242 93.2977 35.5142 93.0947 35.2528 92.95C34.9915 92.8007 34.7138 92.726 34.4198 92.726C34.0838 92.726 33.7852 92.8077 33.5238 92.971C33.2672 93.1297 33.0642 93.3397 32.9148 93.601C32.7655 93.8623 32.6908 94.14 32.6908 94.434C32.6908 94.7467 32.7655 95.0337 32.9148 95.295C33.0688 95.5563 33.2742 95.7663 33.5308 95.925C33.7922 96.079 34.0838 96.156 34.4058 96.156Z"
        fill="black" />
    <path
        d="M58.1596 101H56.4656L54.1276 94H55.8006L57.3196 98.529L58.8316 94H60.5186L62.0306 98.529L63.5496 94H65.2226L62.8846 101H61.1906L59.6716 96.45L58.1596 101ZM69.071 101.182C68.427 101.182 67.839 101.016 67.307 100.685C66.7797 100.354 66.3573 99.908 66.04 99.348C65.7273 98.788 65.571 98.1697 65.571 97.493C65.571 96.9843 65.662 96.5083 65.844 96.065C66.026 95.617 66.2757 95.225 66.593 94.889C66.915 94.5483 67.2883 94.2823 67.713 94.091C68.1377 93.8997 68.5903 93.804 69.071 93.804C69.617 93.804 70.1163 93.9207 70.569 94.154C71.0263 94.3827 71.4137 94.6977 71.731 95.099C72.0483 95.5003 72.2793 95.9577 72.424 96.471C72.5687 96.9843 72.6013 97.521 72.522 98.081H67.405C67.4703 98.3423 67.5777 98.578 67.727 98.788C67.8763 98.9933 68.0653 99.159 68.294 99.285C68.5227 99.4063 68.7817 99.4693 69.071 99.474C69.3697 99.4787 69.6403 99.4087 69.883 99.264C70.1303 99.1147 70.3357 98.914 70.499 98.662L72.242 99.068C71.9573 99.6887 71.5327 100.197 70.968 100.594C70.4033 100.986 69.771 101.182 69.071 101.182ZM67.349 96.8H70.793C70.7417 96.52 70.632 96.268 70.464 96.044C70.3007 95.8153 70.0977 95.6333 69.855 95.498C69.6123 95.3627 69.351 95.295 69.071 95.295C68.791 95.295 68.532 95.3627 68.294 95.498C68.056 95.6287 67.853 95.8083 67.685 96.037C67.5217 96.261 67.4097 96.5153 67.349 96.8ZM78.9803 90.5H80.6883V101H78.9803V100.125C78.7563 100.438 78.4739 100.692 78.1333 100.888C77.7926 101.084 77.3983 101.182 76.9503 101.182C76.4416 101.182 75.9656 101.086 75.5223 100.895C75.0789 100.704 74.6869 100.44 74.3463 100.104C74.0103 99.7633 73.7466 99.3713 73.5553 98.928C73.3639 98.4847 73.2683 98.0087 73.2683 97.5C73.2683 96.9913 73.3639 96.5153 73.5553 96.072C73.7466 95.6287 74.0103 95.239 74.3463 94.903C74.6869 94.5623 75.0789 94.2963 75.5223 94.105C75.9656 93.9137 76.4416 93.818 76.9503 93.818C77.3983 93.818 77.7926 93.916 78.1333 94.112C78.4739 94.3033 78.7563 94.5577 78.9803 94.875V90.5ZM76.9713 99.537C77.3353 99.537 77.6573 99.446 77.9373 99.264C78.2173 99.082 78.4366 98.837 78.5953 98.529C78.7539 98.2163 78.8333 97.8733 78.8333 97.5C78.8333 97.122 78.7539 96.779 78.5953 96.471C78.4366 96.1583 78.2149 95.911 77.9303 95.729C77.6503 95.547 77.3306 95.456 76.9713 95.456C76.6119 95.456 76.2829 95.5493 75.9843 95.736C75.6903 95.918 75.4546 96.163 75.2773 96.471C75.1046 96.779 75.0183 97.122 75.0183 97.5C75.0183 97.878 75.1069 98.221 75.2843 98.529C75.4616 98.837 75.6973 99.082 75.9913 99.264C76.2899 99.446 76.6166 99.537 76.9713 99.537Z"
        fill="black" />
    <g filter="url(#filter2_d_940_173)">
        <rect x="133.4" y="83" width="216.58" height="49" rx="10" fill="#DF7F35" />
        <rect x="133.4" y="83" width="216.58" height="49" rx="10" stroke="black" />
    </g>
    <path
        d="M147.384 104.182C146.707 104.182 146.075 104.051 145.487 103.79C144.904 103.524 144.393 103.158 143.954 102.691C143.52 102.22 143.179 101.678 142.932 101.067C142.685 100.451 142.561 99.793 142.561 99.093C142.561 98.3697 142.689 97.7 142.946 97.084C143.207 96.468 143.562 95.9313 144.01 95.474C144.463 95.0167 144.978 94.662 145.557 94.41C146.14 94.1533 146.756 94.025 147.405 94.025C148.142 94.025 148.845 94.1977 149.512 94.543C150.179 94.8883 150.753 95.3877 151.234 96.041L150.184 96.608C149.825 96.1507 149.398 95.8007 148.903 95.558C148.413 95.3153 147.909 95.194 147.391 95.194C146.896 95.194 146.427 95.2943 145.984 95.495C145.545 95.6957 145.156 95.9757 144.815 96.335C144.479 96.6943 144.215 97.1097 144.024 97.581C143.833 98.0523 143.737 98.5633 143.737 99.114C143.737 99.6507 143.833 100.155 144.024 100.626C144.215 101.097 144.477 101.513 144.808 101.872C145.144 102.227 145.534 102.504 145.977 102.705C146.42 102.906 146.894 103.006 147.398 103.006C147.799 103.006 148.18 102.938 148.539 102.803C148.903 102.668 149.237 102.476 149.54 102.229C149.848 101.982 150.109 101.69 150.324 101.354C150.543 101.018 150.709 100.649 150.821 100.248H148.406V99.198H152.193C152.188 99.884 152.058 100.528 151.801 101.13C151.549 101.732 151.201 102.262 150.758 102.719C150.319 103.176 149.811 103.536 149.232 103.797C148.658 104.054 148.042 104.182 147.384 104.182ZM153.314 104L155.211 94.2H156.114L158.76 101.158L161.399 94.2H162.302L164.206 104H163.009L161.63 96.888L159.145 103.468H158.368L155.883 96.888L154.511 104H153.314ZM178.243 97.595H176.899L176.087 100.598H177.445L177.137 101.732H175.793L175.177 104H174.001L174.617 101.732H171.502L170.893 104H169.717L170.326 101.732H168.975L169.283 100.598H170.627L171.439 97.595H170.081L170.389 96.461H171.74L172.342 94.2H173.518L172.916 96.461H176.031L176.626 94.2H177.802L177.207 96.461H178.551L178.243 97.595ZM174.911 100.598L175.723 97.595H172.615L171.803 100.598H174.911ZM180.765 104V95.376H179.666L179.995 94.2H181.941V104H180.765ZM184.255 98.288C184.077 98.288 183.926 98.225 183.8 98.099C183.678 97.973 183.618 97.819 183.618 97.637C183.618 97.4643 183.678 97.315 183.8 97.189C183.926 97.063 184.077 97 184.255 97C184.437 97 184.591 97.063 184.717 97.189C184.843 97.315 184.906 97.4643 184.906 97.637C184.906 97.819 184.843 97.973 184.717 98.099C184.591 98.225 184.437 98.288 184.255 98.288ZM184.255 104.182C184.077 104.182 183.926 104.119 183.8 103.993C183.678 103.867 183.618 103.713 183.618 103.531C183.618 103.358 183.678 103.209 183.8 103.083C183.926 102.957 184.077 102.894 184.255 102.894C184.437 102.894 184.591 102.957 184.717 103.083C184.843 103.209 184.906 103.358 184.906 103.531C184.906 103.713 184.843 103.867 184.717 103.993C184.591 104.119 184.437 104.182 184.255 104.182ZM189.954 104L191.851 94.2H192.754L195.4 101.158L198.039 94.2H198.942L200.846 104H199.649L198.27 96.888L195.785 103.468H195.008L192.523 96.888L191.151 104H189.954ZM204.997 104.182C204.353 104.182 203.765 104.016 203.233 103.685C202.706 103.354 202.283 102.91 201.966 102.355C201.653 101.795 201.497 101.177 201.497 100.5C201.497 99.9867 201.588 99.5083 201.77 99.065C201.952 98.617 202.202 98.225 202.519 97.889C202.841 97.5483 203.214 97.2823 203.639 97.091C204.064 96.8997 204.516 96.804 204.997 96.804C205.641 96.804 206.227 96.9697 206.754 97.301C207.286 97.6323 207.708 98.078 208.021 98.638C208.338 99.198 208.497 99.8187 208.497 100.5C208.497 101.009 208.406 101.485 208.224 101.928C208.042 102.371 207.79 102.763 207.468 103.104C207.151 103.44 206.78 103.704 206.355 103.895C205.935 104.086 205.482 104.182 204.997 104.182ZM204.997 103.006C205.436 103.006 205.83 102.892 206.18 102.663C206.535 102.43 206.812 102.124 207.013 101.746C207.218 101.363 207.321 100.948 207.321 100.5C207.321 100.043 207.216 99.6227 207.006 99.24C206.801 98.8573 206.523 98.5517 206.173 98.323C205.823 98.0943 205.431 97.98 204.997 97.98C204.558 97.98 204.164 98.0967 203.814 98.33C203.464 98.5587 203.186 98.8643 202.981 99.247C202.776 99.6297 202.673 100.047 202.673 100.5C202.673 100.967 202.778 101.391 202.988 101.774C203.198 102.152 203.48 102.453 203.835 102.677C204.19 102.896 204.577 103.006 204.997 103.006ZM212.694 104.182C212.05 104.182 211.462 104.016 210.93 103.685C210.403 103.354 209.981 102.91 209.663 102.355C209.351 101.795 209.194 101.177 209.194 100.5C209.194 99.9867 209.285 99.5083 209.467 99.065C209.649 98.617 209.899 98.225 210.216 97.889C210.538 97.5483 210.912 97.2823 211.336 97.091C211.761 96.8997 212.214 96.804 212.694 96.804C213.338 96.804 213.924 96.9697 214.451 97.301C214.983 97.6323 215.406 98.078 215.718 98.638C216.036 99.198 216.194 99.8187 216.194 100.5C216.194 101.009 216.103 101.485 215.921 101.928C215.739 102.371 215.487 102.763 215.165 103.104C214.848 103.44 214.477 103.704 214.052 103.895C213.632 104.086 213.18 104.182 212.694 104.182ZM212.694 103.006C213.133 103.006 213.527 102.892 213.877 102.663C214.232 102.43 214.51 102.124 214.71 101.746C214.916 101.363 215.018 100.948 215.018 100.5C215.018 100.043 214.913 99.6227 214.703 99.24C214.498 98.8573 214.22 98.5517 213.87 98.323C213.52 98.0943 213.128 97.98 212.694 97.98C212.256 97.98 211.861 98.0967 211.511 98.33C211.161 98.5587 210.884 98.8643 210.678 99.247C210.473 99.6297 210.37 100.047 210.37 100.5C210.37 100.967 210.475 101.391 210.685 101.774C210.895 102.152 211.178 102.453 211.532 102.677C211.887 102.896 212.274 103.006 212.694 103.006ZM222.947 93.5H224.123V104H222.947V102.81C222.709 103.221 222.389 103.552 221.988 103.804C221.586 104.056 221.115 104.182 220.574 104.182C220.065 104.182 219.589 104.086 219.146 103.895C218.702 103.704 218.31 103.44 217.97 103.104C217.634 102.763 217.37 102.371 217.179 101.928C216.987 101.485 216.892 101.009 216.892 100.5C216.892 99.9913 216.987 99.5153 217.179 99.072C217.37 98.624 217.634 98.232 217.97 97.896C218.31 97.5553 218.702 97.2893 219.146 97.098C219.589 96.9067 220.065 96.811 220.574 96.811C221.115 96.811 221.586 96.937 221.988 97.189C222.389 97.441 222.709 97.7723 222.947 98.183V93.5ZM220.588 103.041C221.05 103.041 221.449 102.929 221.785 102.705C222.125 102.476 222.387 102.168 222.569 101.781C222.755 101.394 222.849 100.967 222.849 100.5C222.849 100.024 222.755 99.5947 222.569 99.212C222.382 98.8247 222.118 98.519 221.778 98.295C221.442 98.0663 221.045 97.952 220.588 97.952C220.126 97.952 219.706 98.0663 219.328 98.295C218.954 98.5237 218.656 98.8317 218.432 99.219C218.208 99.6017 218.096 100.029 218.096 100.5C218.096 100.971 218.21 101.401 218.439 101.788C218.667 102.171 218.971 102.476 219.349 102.705C219.727 102.929 220.14 103.041 220.588 103.041ZM229.165 104V94.2H232.546C233.032 94.2 233.473 94.3003 233.869 94.501C234.271 94.697 234.588 94.984 234.821 95.362C235.055 95.74 235.171 96.1927 235.171 96.72C235.171 97.0047 235.122 97.28 235.024 97.546C234.931 97.8073 234.8 98.0337 234.632 98.225C234.469 98.4117 234.282 98.5377 234.072 98.603C234.366 98.6777 234.616 98.8107 234.821 99.002C235.027 99.1887 235.192 99.408 235.318 99.66C235.449 99.912 235.542 100.176 235.598 100.451C235.654 100.726 235.682 100.992 235.682 101.249C235.682 101.79 235.559 102.269 235.311 102.684C235.069 103.095 234.742 103.417 234.331 103.65C233.921 103.883 233.468 104 232.973 104H229.165ZM230.341 102.964H232.868C233.19 102.964 233.482 102.882 233.743 102.719C234.009 102.551 234.222 102.322 234.38 102.033C234.539 101.744 234.618 101.417 234.618 101.053C234.618 100.731 234.539 100.428 234.38 100.143C234.222 99.8537 234.009 99.6203 233.743 99.443C233.482 99.2657 233.19 99.177 232.868 99.177H230.341V102.964ZM230.341 98.162H232.434C232.864 98.162 233.23 98.036 233.533 97.784C233.841 97.5273 233.995 97.1703 233.995 96.713C233.995 96.2183 233.841 95.8497 233.533 95.607C233.23 95.3597 232.864 95.236 232.434 95.236H230.341V98.162ZM239.86 104.182C239.216 104.182 238.628 104.016 238.096 103.685C237.569 103.354 237.147 102.91 236.829 102.355C236.517 101.795 236.36 101.177 236.36 100.5C236.36 99.9867 236.451 99.5083 236.633 99.065C236.815 98.617 237.065 98.225 237.382 97.889C237.704 97.5483 238.078 97.2823 238.502 97.091C238.927 96.8997 239.38 96.804 239.86 96.804C240.504 96.804 241.09 96.9697 241.617 97.301C242.149 97.6323 242.572 98.078 242.884 98.638C243.202 99.198 243.36 99.8187 243.36 100.5C243.36 101.009 243.269 101.485 243.087 101.928C242.905 102.371 242.653 102.763 242.331 103.104C242.014 103.44 241.643 103.704 241.218 103.895C240.798 104.086 240.346 104.182 239.86 104.182ZM239.86 103.006C240.299 103.006 240.693 102.892 241.043 102.663C241.398 102.43 241.676 102.124 241.876 101.746C242.082 101.363 242.184 100.948 242.184 100.5C242.184 100.043 242.079 99.6227 241.869 99.24C241.664 98.8573 241.386 98.5517 241.036 98.323C240.686 98.0943 240.294 97.98 239.86 97.98C239.422 97.98 239.027 98.0967 238.677 98.33C238.327 98.5587 238.05 98.8643 237.844 99.247C237.639 99.6297 237.536 100.047 237.536 100.5C237.536 100.967 237.641 101.391 237.851 101.774C238.061 102.152 238.344 102.453 238.698 102.677C239.053 102.896 239.44 103.006 239.86 103.006ZM250.106 97H251.282V104H250.106L250.057 102.817C249.837 103.223 249.534 103.552 249.147 103.804C248.764 104.056 248.307 104.182 247.775 104.182C247.261 104.182 246.781 104.086 246.333 103.895C245.885 103.699 245.488 103.431 245.143 103.09C244.802 102.745 244.536 102.348 244.345 101.9C244.153 101.452 244.058 100.969 244.058 100.451C244.058 99.9517 244.151 99.4803 244.338 99.037C244.524 98.5937 244.783 98.2063 245.115 97.875C245.451 97.539 245.838 97.2777 246.277 97.091C246.715 96.8997 247.187 96.804 247.691 96.804C248.241 96.804 248.724 96.9347 249.14 97.196C249.555 97.4527 249.891 97.7863 250.148 98.197L250.106 97ZM247.754 103.041C248.216 103.041 248.615 102.929 248.951 102.705C249.291 102.476 249.553 102.168 249.735 101.781C249.921 101.394 250.015 100.967 250.015 100.5C250.015 100.024 249.921 99.5947 249.735 99.212C249.548 98.8247 249.284 98.519 248.944 98.295C248.608 98.0663 248.211 97.952 247.754 97.952C247.292 97.952 246.872 98.0663 246.494 98.295C246.116 98.5237 245.815 98.8317 245.591 99.219C245.371 99.6017 245.262 100.029 245.262 100.5C245.262 100.971 245.376 101.401 245.605 101.788C245.833 102.171 246.137 102.476 246.515 102.705C246.893 102.929 247.306 103.041 247.754 103.041ZM252.681 104V97H253.857V97.875C254.104 97.5483 254.417 97.2893 254.795 97.098C255.173 96.902 255.583 96.804 256.027 96.804C256.297 96.804 256.559 96.839 256.811 96.909L256.335 98.085C256.143 98.0243 255.957 97.994 255.775 97.994C255.425 97.994 255.103 98.0803 254.809 98.253C254.519 98.421 254.288 98.6497 254.116 98.939C253.943 99.2283 253.857 99.5503 253.857 99.905V104H252.681ZM262.951 93.5H264.127V104H262.951V102.81C262.713 103.221 262.393 103.552 261.992 103.804C261.59 104.056 261.119 104.182 260.578 104.182C260.069 104.182 259.593 104.086 259.15 103.895C258.706 103.704 258.314 103.44 257.974 103.104C257.638 102.763 257.374 102.371 257.183 101.928C256.991 101.485 256.896 101.009 256.896 100.5C256.896 99.9913 256.991 99.5153 257.183 99.072C257.374 98.624 257.638 98.232 257.974 97.896C258.314 97.5553 258.706 97.2893 259.15 97.098C259.593 96.9067 260.069 96.811 260.578 96.811C261.119 96.811 261.59 96.937 261.992 97.189C262.393 97.441 262.713 97.7723 262.951 98.183V93.5ZM260.592 103.041C261.054 103.041 261.453 102.929 261.789 102.705C262.129 102.476 262.391 102.168 262.573 101.781C262.759 101.394 262.853 100.967 262.853 100.5C262.853 100.024 262.759 99.5947 262.573 99.212C262.386 98.8247 262.122 98.519 261.782 98.295C261.446 98.0663 261.049 97.952 260.592 97.952C260.13 97.952 259.71 98.0663 259.332 98.295C258.958 98.5237 258.66 98.8317 258.436 99.219C258.212 99.6017 258.1 100.029 258.1 100.5C258.1 100.971 258.214 101.401 258.443 101.788C258.671 102.171 258.975 102.476 259.353 102.705C259.731 102.929 260.144 103.041 260.592 103.041ZM269.169 104L271.066 94.2H271.969L274.615 101.158L277.254 94.2H278.157L280.061 104H278.864L277.485 96.888L275 103.468H274.223L271.738 96.888L270.366 104H269.169ZM286.76 97H287.936V104H286.76L286.711 102.817C286.492 103.223 286.188 103.552 285.801 103.804C285.418 104.056 284.961 104.182 284.429 104.182C283.916 104.182 283.435 104.086 282.987 103.895C282.539 103.699 282.142 103.431 281.797 103.09C281.456 102.745 281.19 102.348 280.999 101.9C280.808 101.452 280.712 100.969 280.712 100.451C280.712 99.9517 280.805 99.4803 280.992 99.037C281.179 98.5937 281.438 98.2063 281.769 97.875C282.105 97.539 282.492 97.2777 282.931 97.091C283.37 96.8997 283.841 96.804 284.345 96.804C284.896 96.804 285.379 96.9347 285.794 97.196C286.209 97.4527 286.545 97.7863 286.802 98.197L286.76 97ZM284.408 103.041C284.87 103.041 285.269 102.929 285.605 102.705C285.946 102.476 286.207 102.168 286.389 101.781C286.576 101.394 286.669 100.967 286.669 100.5C286.669 100.024 286.576 99.5947 286.389 99.212C286.202 98.8247 285.939 98.519 285.598 98.295C285.262 98.0663 284.865 97.952 284.408 97.952C283.946 97.952 283.526 98.0663 283.148 98.295C282.77 98.5237 282.469 98.8317 282.245 99.219C282.026 99.6017 281.916 100.029 281.916 100.5C281.916 100.971 282.03 101.401 282.259 101.788C282.488 102.171 282.791 102.476 283.169 102.705C283.547 102.929 283.96 103.041 284.408 103.041ZM295.094 104H293.743L291.881 100.787L290.593 102.327V104H289.417V93.5H290.593V100.5L293.526 97H295.059L292.679 99.835L295.094 104ZM296.335 97H297.511V104H296.335V97ZM296.937 95.859C296.75 95.859 296.594 95.7983 296.468 95.677C296.342 95.5557 296.279 95.404 296.279 95.222C296.279 95.04 296.342 94.8883 296.468 94.767C296.594 94.6457 296.748 94.585 296.93 94.585C297.112 94.585 297.266 94.6457 297.392 94.767C297.518 94.8883 297.581 95.04 297.581 95.222C297.581 95.404 297.518 95.5557 297.392 95.677C297.271 95.7983 297.119 95.859 296.937 95.859ZM305.34 99.646V104H304.164V99.905C304.164 99.5503 304.077 99.2283 303.905 98.939C303.732 98.6497 303.501 98.421 303.212 98.253C302.922 98.0803 302.6 97.994 302.246 97.994C301.896 97.994 301.574 98.0803 301.28 98.253C300.99 98.421 300.759 98.6497 300.587 98.939C300.414 99.2283 300.328 99.5503 300.328 99.905V104H299.152V97H300.328V97.875C300.575 97.5483 300.888 97.2893 301.266 97.098C301.644 96.902 302.054 96.804 302.498 96.804C303.02 96.804 303.496 96.9323 303.926 97.189C304.36 97.441 304.703 97.7817 304.955 98.211C305.211 98.6403 305.34 99.1187 305.34 99.646ZM312.07 97H313.246V104.224C313.246 104.686 313.145 105.115 312.945 105.512C312.749 105.913 312.483 106.261 312.147 106.555C311.811 106.854 311.428 107.085 310.999 107.248C310.569 107.416 310.121 107.5 309.655 107.5C309.169 107.5 308.7 107.39 308.248 107.171C307.795 106.956 307.398 106.667 307.058 106.303C306.722 105.944 306.479 105.54 306.33 105.092L307.408 104.602C307.496 104.924 307.655 105.213 307.884 105.47C308.117 105.731 308.388 105.937 308.696 106.086C309.008 106.24 309.328 106.317 309.655 106.317C309.963 106.317 310.259 106.263 310.544 106.156C310.833 106.049 311.092 105.899 311.321 105.708C311.554 105.521 311.736 105.3 311.867 105.043C312.002 104.791 312.07 104.518 312.07 104.224V102.831C311.832 103.232 311.517 103.559 311.125 103.811C310.737 104.058 310.285 104.182 309.767 104.182C309.272 104.182 308.808 104.086 308.374 103.895C307.94 103.704 307.559 103.44 307.233 103.104C306.906 102.763 306.649 102.371 306.463 101.928C306.276 101.485 306.183 101.009 306.183 100.5C306.183 99.9913 306.276 99.5153 306.463 99.072C306.649 98.624 306.906 98.232 307.233 97.896C307.559 97.5553 307.94 97.2893 308.374 97.098C308.808 96.9067 309.272 96.811 309.767 96.811C310.285 96.811 310.737 96.9347 311.125 97.182C311.517 97.4293 311.832 97.756 312.07 98.162V97ZM309.774 103.041C310.226 103.041 310.618 102.924 310.95 102.691C311.286 102.458 311.545 102.147 311.727 101.76C311.909 101.373 312 100.953 312 100.5C312 100.033 311.906 99.6087 311.72 99.226C311.538 98.8387 311.279 98.5307 310.943 98.302C310.611 98.0687 310.222 97.952 309.774 97.952C309.335 97.952 308.934 98.0663 308.57 98.295C308.206 98.5237 307.916 98.8317 307.702 99.219C307.492 99.6017 307.387 100.029 307.387 100.5C307.387 100.971 307.494 101.401 307.709 101.788C307.928 102.171 308.217 102.476 308.577 102.705C308.941 102.929 309.34 103.041 309.774 103.041ZM142.932 121L147.902 112.376H142.281V111.2H149.26V112.376L144.276 121H142.932ZM151.55 124.5H150.374V114H151.55V115.197C151.788 114.786 152.106 114.455 152.502 114.203C152.899 113.946 153.37 113.818 153.916 113.818C154.425 113.818 154.901 113.914 155.344 114.105C155.792 114.296 156.184 114.562 156.52 114.903C156.856 115.239 157.12 115.629 157.311 116.072C157.503 116.515 157.598 116.991 157.598 117.5C157.598 118.009 157.503 118.487 157.311 118.935C157.12 119.383 156.856 119.777 156.52 120.118C156.184 120.454 155.792 120.718 155.344 120.909C154.901 121.1 154.425 121.196 153.916 121.196C153.37 121.196 152.899 121.07 152.502 120.818C152.106 120.561 151.788 120.228 151.55 119.817V124.5ZM153.902 114.959C153.45 114.959 153.053 115.073 152.712 115.302C152.372 115.531 152.108 115.836 151.921 116.219C151.739 116.602 151.648 117.029 151.648 117.5C151.648 117.967 151.739 118.394 151.921 118.781C152.108 119.168 152.369 119.476 152.705 119.705C153.046 119.934 153.445 120.048 153.902 120.048C154.355 120.048 154.77 119.936 155.148 119.712C155.526 119.483 155.83 119.178 156.058 118.795C156.287 118.408 156.401 117.976 156.401 117.5C156.401 117.033 156.289 116.609 156.065 116.226C155.841 115.839 155.54 115.531 155.162 115.302C154.784 115.073 154.364 114.959 153.902 114.959ZM158.769 121V114H159.945V114.875C160.192 114.548 160.502 114.289 160.876 114.098C161.254 113.902 161.664 113.804 162.108 113.804C162.626 113.804 163.099 113.93 163.529 114.182C163.958 114.434 164.296 114.768 164.544 115.183C164.791 114.768 165.127 114.434 165.552 114.182C165.981 113.93 166.452 113.804 166.966 113.804C167.493 113.804 167.971 113.932 168.401 114.189C168.83 114.441 169.171 114.782 169.423 115.211C169.679 115.64 169.808 116.119 169.808 116.646V121H168.632V116.926C168.632 116.581 168.548 116.261 168.38 115.967C168.212 115.673 167.985 115.437 167.701 115.26C167.416 115.083 167.101 114.994 166.756 114.994C166.41 114.994 166.095 115.078 165.811 115.246C165.526 115.409 165.3 115.638 165.132 115.932C164.964 116.221 164.88 116.553 164.88 116.926V121H163.704V116.926C163.704 116.553 163.62 116.221 163.452 115.932C163.284 115.638 163.055 115.409 162.766 115.246C162.481 115.078 162.166 114.994 161.821 114.994C161.48 114.994 161.165 115.083 160.876 115.26C160.591 115.437 160.365 115.673 160.197 115.967C160.029 116.261 159.945 116.581 159.945 116.926V121H158.769ZM180.6 111.2H181.776V121H180.6V116.338H175.749V121H174.573V111.2H175.749V115.162H180.6V111.2ZM186.911 121.182C186.384 121.182 185.875 121.1 185.385 120.937C184.895 120.769 184.466 120.531 184.097 120.223C183.733 119.915 183.474 119.549 183.32 119.124L184.419 118.711C184.512 118.972 184.685 119.201 184.937 119.397C185.194 119.588 185.495 119.738 185.84 119.845C186.185 119.952 186.542 120.006 186.911 120.006C187.331 120.006 187.721 119.938 188.08 119.803C188.444 119.663 188.738 119.469 188.962 119.222C189.186 118.975 189.298 118.685 189.298 118.354C189.298 118.013 189.181 117.736 188.948 117.521C188.715 117.302 188.416 117.129 188.052 117.003C187.688 116.872 187.308 116.772 186.911 116.702C186.234 116.59 185.628 116.431 185.091 116.226C184.559 116.016 184.137 115.724 183.824 115.351C183.516 114.978 183.362 114.485 183.362 113.874C183.362 113.305 183.525 112.808 183.852 112.383C184.183 111.958 184.62 111.629 185.161 111.396C185.702 111.163 186.286 111.046 186.911 111.046C187.429 111.046 187.931 111.128 188.416 111.291C188.906 111.45 189.338 111.683 189.711 111.991C190.084 112.299 190.353 112.675 190.516 113.118L189.403 113.524C189.31 113.258 189.135 113.029 188.878 112.838C188.626 112.642 188.327 112.493 187.982 112.39C187.641 112.283 187.284 112.229 186.911 112.229C186.496 112.224 186.108 112.292 185.749 112.432C185.39 112.572 185.098 112.766 184.874 113.013C184.65 113.26 184.538 113.547 184.538 113.874C184.538 114.266 184.641 114.567 184.846 114.777C185.056 114.982 185.341 115.136 185.7 115.239C186.059 115.342 186.463 115.433 186.911 115.512C187.546 115.619 188.134 115.79 188.675 116.023C189.216 116.252 189.65 116.557 189.977 116.94C190.308 117.323 190.474 117.794 190.474 118.354C190.474 118.923 190.308 119.42 189.977 119.845C189.65 120.27 189.216 120.599 188.675 120.832C188.134 121.065 187.546 121.182 186.911 121.182ZM195.511 121.182C194.983 121.182 194.475 121.1 193.985 120.937C193.495 120.769 193.065 120.531 192.697 120.223C192.333 119.915 192.074 119.549 191.92 119.124L193.019 118.711C193.112 118.972 193.285 119.201 193.537 119.397C193.793 119.588 194.094 119.738 194.44 119.845C194.785 119.952 195.142 120.006 195.511 120.006C195.931 120.006 196.32 119.938 196.68 119.803C197.044 119.663 197.338 119.469 197.562 119.222C197.786 118.975 197.898 118.685 197.898 118.354C197.898 118.013 197.781 117.736 197.548 117.521C197.314 117.302 197.016 117.129 196.652 117.003C196.288 116.872 195.907 116.772 195.511 116.702C194.834 116.59 194.227 116.431 193.691 116.226C193.159 116.016 192.736 115.724 192.424 115.351C192.116 114.978 191.962 114.485 191.962 113.874C191.962 113.305 192.125 112.808 192.452 112.383C192.783 111.958 193.219 111.629 193.761 111.396C194.302 111.163 194.885 111.046 195.511 111.046C196.029 111.046 196.53 111.128 197.016 111.291C197.506 111.45 197.937 111.683 198.311 111.991C198.684 112.299 198.952 112.675 199.116 113.118L198.003 113.524C197.909 113.258 197.734 113.029 197.478 112.838C197.226 112.642 196.927 112.493 196.582 112.39C196.241 112.283 195.884 112.229 195.511 112.229C195.095 112.224 194.708 112.292 194.349 112.432C193.989 112.572 193.698 112.766 193.474 113.013C193.25 113.26 193.138 113.547 193.138 113.874C193.138 114.266 193.24 114.567 193.446 114.777C193.656 114.982 193.94 115.136 194.3 115.239C194.659 115.342 195.063 115.433 195.511 115.512C196.145 115.619 196.733 115.79 197.275 116.023C197.816 116.252 198.25 116.557 198.577 116.94C198.908 117.323 199.074 117.794 199.074 118.354C199.074 118.923 198.908 119.42 198.577 119.845C198.25 120.27 197.816 120.599 197.275 120.832C196.733 121.065 196.145 121.182 195.511 121.182ZM200.741 121V111.2H204.122C204.608 111.2 205.049 111.3 205.445 111.501C205.847 111.697 206.164 111.984 206.397 112.362C206.631 112.74 206.747 113.193 206.747 113.72C206.747 114.005 206.698 114.28 206.6 114.546C206.507 114.807 206.376 115.034 206.208 115.225C206.045 115.412 205.858 115.538 205.648 115.603C205.942 115.678 206.192 115.811 206.397 116.002C206.603 116.189 206.768 116.408 206.894 116.66C207.025 116.912 207.118 117.176 207.174 117.451C207.23 117.726 207.258 117.992 207.258 118.249C207.258 118.79 207.135 119.269 206.887 119.684C206.645 120.095 206.318 120.417 205.907 120.65C205.497 120.883 205.044 121 204.549 121H200.741ZM201.917 119.964H204.444C204.766 119.964 205.058 119.882 205.319 119.719C205.585 119.551 205.798 119.322 205.956 119.033C206.115 118.744 206.194 118.417 206.194 118.053C206.194 117.731 206.115 117.428 205.956 117.143C205.798 116.854 205.585 116.62 205.319 116.443C205.058 116.266 204.766 116.177 204.444 116.177H201.917V119.964ZM201.917 115.162H204.01C204.44 115.162 204.806 115.036 205.109 114.784C205.417 114.527 205.571 114.17 205.571 113.713C205.571 113.218 205.417 112.85 205.109 112.607C204.806 112.36 204.44 112.236 204.01 112.236H201.917V115.162ZM211.741 121V119.957C212.1 119.635 212.504 119.276 212.952 118.879C213.4 118.478 213.845 118.06 214.289 117.626C214.737 117.187 215.147 116.753 215.521 116.324C215.894 115.895 216.195 115.489 216.424 115.106C216.652 114.719 216.767 114.38 216.767 114.091C216.767 113.746 216.683 113.431 216.515 113.146C216.347 112.857 216.12 112.626 215.836 112.453C215.556 112.28 215.243 112.194 214.898 112.194C214.552 112.194 214.235 112.28 213.946 112.453C213.661 112.626 213.432 112.857 213.26 113.146C213.092 113.431 213.008 113.746 213.008 114.091H211.832C211.832 113.517 211.972 112.999 212.252 112.537C212.532 112.07 212.903 111.702 213.365 111.431C213.827 111.156 214.338 111.018 214.898 111.018C215.458 111.018 215.966 111.156 216.424 111.431C216.886 111.706 217.254 112.077 217.53 112.544C217.805 113.006 217.943 113.522 217.943 114.091C217.943 114.418 217.863 114.77 217.705 115.148C217.546 115.521 217.329 115.906 217.054 116.303C216.778 116.7 216.466 117.101 216.116 117.507C215.766 117.908 215.397 118.305 215.01 118.697C214.622 119.089 214.237 119.465 213.855 119.824H218.069V121H211.741ZM219.465 121V119.957C219.825 119.635 220.228 119.276 220.676 118.879C221.124 118.478 221.57 118.06 222.013 117.626C222.461 117.187 222.872 116.753 223.245 116.324C223.619 115.895 223.92 115.489 224.148 115.106C224.377 114.719 224.491 114.38 224.491 114.091C224.491 113.746 224.407 113.431 224.239 113.146C224.071 112.857 223.845 112.626 223.56 112.453C223.28 112.28 222.968 112.194 222.622 112.194C222.277 112.194 221.96 112.28 221.67 112.453C221.386 112.626 221.157 112.857 220.984 113.146C220.816 113.431 220.732 113.746 220.732 114.091H219.556C219.556 113.517 219.696 112.999 219.976 112.537C220.256 112.07 220.627 111.702 221.089 111.431C221.551 111.156 222.062 111.018 222.622 111.018C223.182 111.018 223.691 111.156 224.148 111.431C224.61 111.706 224.979 112.077 225.254 112.544C225.53 113.006 225.667 113.522 225.667 114.091C225.667 114.418 225.588 114.77 225.429 115.148C225.271 115.521 225.054 115.906 224.778 116.303C224.503 116.7 224.19 117.101 223.84 117.507C223.49 117.908 223.122 118.305 222.734 118.697C222.347 119.089 221.962 119.465 221.579 119.824H225.793V121H219.465ZM230.467 121.182C229.884 121.182 229.361 121.051 228.899 120.79C228.437 120.524 228.041 120.158 227.709 119.691C227.378 119.224 227.126 118.685 226.953 118.074C226.781 117.458 226.694 116.8 226.694 116.1C226.694 115.4 226.781 114.742 226.953 114.126C227.126 113.51 227.378 112.971 227.709 112.509C228.041 112.042 228.437 111.678 228.899 111.417C229.361 111.151 229.884 111.018 230.467 111.018C231.046 111.018 231.566 111.151 232.028 111.417C232.495 111.678 232.889 112.042 233.211 112.509C233.538 112.971 233.788 113.51 233.96 114.126C234.138 114.742 234.226 115.4 234.226 116.1C234.226 116.8 234.138 117.458 233.96 118.074C233.788 118.685 233.538 119.224 233.211 119.691C232.889 120.158 232.495 120.524 232.028 120.79C231.566 121.051 231.046 121.182 230.467 121.182ZM230.467 120.006C231.051 120.006 231.538 119.826 231.93 119.467C232.327 119.103 232.623 118.625 232.819 118.032C233.015 117.439 233.113 116.795 233.113 116.1C233.113 115.367 233.011 114.707 232.805 114.119C232.605 113.526 232.306 113.057 231.909 112.712C231.517 112.367 231.037 112.194 230.467 112.194C230.019 112.194 229.627 112.299 229.291 112.509C228.96 112.719 228.685 113.006 228.465 113.37C228.246 113.734 228.08 114.152 227.968 114.623C227.861 115.09 227.807 115.582 227.807 116.1C227.807 116.795 227.908 117.442 228.108 118.039C228.309 118.632 228.605 119.108 228.997 119.467C229.394 119.826 229.884 120.006 230.467 120.006ZM236.301 121V112.376H235.202L235.531 111.2H237.477V121H236.301Z"
        fill="black" />
    <path d="M97.9102 98H121.57" stroke="black" stroke-linecap="round" />
    <g filter="url(#filter3_d_940_173)">
        <rect x="133" y="147" width="216.58" height="49" rx="10" fill="#DF7F35" />
        <rect x="133" y="147" width="216.58" height="49" rx="10" stroke="black" />
    </g>
    <path
        d="M146.984 168.182C146.307 168.182 145.675 168.051 145.087 167.79C144.503 167.524 143.992 167.158 143.554 166.691C143.12 166.22 142.779 165.678 142.532 165.067C142.284 164.451 142.161 163.793 142.161 163.093C142.161 162.37 142.289 161.7 142.546 161.084C142.807 160.468 143.162 159.931 143.61 159.474C144.062 159.017 144.578 158.662 145.157 158.41C145.74 158.153 146.356 158.025 147.005 158.025C147.742 158.025 148.444 158.198 149.112 158.543C149.779 158.888 150.353 159.388 150.834 160.041L149.784 160.608C149.424 160.151 148.997 159.801 148.503 159.558C148.013 159.315 147.509 159.194 146.991 159.194C146.496 159.194 146.027 159.294 145.584 159.495C145.145 159.696 144.755 159.976 144.415 160.335C144.079 160.694 143.815 161.11 143.624 161.581C143.432 162.052 143.337 162.563 143.337 163.114C143.337 163.651 143.432 164.155 143.624 164.626C143.815 165.097 144.076 165.513 144.408 165.872C144.744 166.227 145.133 166.504 145.577 166.705C146.02 166.906 146.494 167.006 146.998 167.006C147.399 167.006 147.779 166.938 148.139 166.803C148.503 166.668 148.836 166.476 149.14 166.229C149.448 165.982 149.709 165.69 149.924 165.354C150.143 165.018 150.309 164.649 150.421 164.248H148.006V163.198H151.793C151.788 163.884 151.657 164.528 151.401 165.13C151.149 165.732 150.801 166.262 150.358 166.719C149.919 167.176 149.41 167.536 148.832 167.797C148.258 168.054 147.642 168.182 146.984 168.182ZM152.913 168L154.81 158.2H155.713L158.359 165.158L160.998 158.2H161.901L163.805 168H162.608L161.229 160.888L158.744 167.468H157.967L155.482 160.888L154.11 168H152.913ZM177.843 161.595H176.499L175.687 164.598H177.045L176.737 165.732H175.393L174.777 168H173.601L174.217 165.732H171.102L170.493 168H169.317L169.926 165.732H168.575L168.883 164.598H170.227L171.039 161.595H169.681L169.989 160.461H171.34L171.942 158.2H173.118L172.516 160.461H175.631L176.226 158.2H177.402L176.807 160.461H178.151L177.843 161.595ZM174.511 164.598L175.323 161.595H172.215L171.403 164.598H174.511ZM179.266 168V166.957C179.625 166.635 180.029 166.276 180.477 165.879C180.925 165.478 181.371 165.06 181.814 164.626C182.262 164.187 182.673 163.753 183.046 163.324C183.419 162.895 183.72 162.489 183.949 162.106C184.178 161.719 184.292 161.38 184.292 161.091C184.292 160.746 184.208 160.431 184.04 160.146C183.872 159.857 183.646 159.626 183.361 159.453C183.081 159.28 182.768 159.194 182.423 159.194C182.078 159.194 181.76 159.28 181.471 159.453C181.186 159.626 180.958 159.857 180.785 160.146C180.617 160.431 180.533 160.746 180.533 161.091H179.357C179.357 160.517 179.497 159.999 179.777 159.537C180.057 159.07 180.428 158.702 180.89 158.431C181.352 158.156 181.863 158.018 182.423 158.018C182.983 158.018 183.492 158.156 183.949 158.431C184.411 158.706 184.78 159.077 185.055 159.544C185.33 160.006 185.468 160.522 185.468 161.091C185.468 161.418 185.389 161.77 185.23 162.148C185.071 162.521 184.854 162.906 184.579 163.303C184.304 163.7 183.991 164.101 183.641 164.507C183.291 164.908 182.922 165.305 182.535 165.697C182.148 166.089 181.763 166.465 181.38 166.824H185.594V168H179.266ZM187.628 162.288C187.45 162.288 187.299 162.225 187.173 162.099C187.051 161.973 186.991 161.819 186.991 161.637C186.991 161.464 187.051 161.315 187.173 161.189C187.299 161.063 187.45 161 187.628 161C187.81 161 187.964 161.063 188.09 161.189C188.216 161.315 188.279 161.464 188.279 161.637C188.279 161.819 188.216 161.973 188.09 162.099C187.964 162.225 187.81 162.288 187.628 162.288ZM187.628 168.182C187.45 168.182 187.299 168.119 187.173 167.993C187.051 167.867 186.991 167.713 186.991 167.531C186.991 167.358 187.051 167.209 187.173 167.083C187.299 166.957 187.45 166.894 187.628 166.894C187.81 166.894 187.964 166.957 188.09 167.083C188.216 167.209 188.279 167.358 188.279 167.531C188.279 167.713 188.216 167.867 188.09 167.993C187.964 168.119 187.81 168.182 187.628 168.182ZM196.61 158.2H198.031L201.594 168H200.348L199.62 165.998H195.021L194.3 168H193.047L196.61 158.2ZM195.455 164.822H199.186L197.317 159.705L195.455 164.822ZM208.99 163.646V168H207.814V163.905C207.814 163.55 207.728 163.228 207.555 162.939C207.382 162.65 207.151 162.421 206.862 162.253C206.573 162.08 206.251 161.994 205.896 161.994C205.546 161.994 205.224 162.08 204.93 162.253C204.641 162.421 204.41 162.65 204.237 162.939C204.064 163.228 203.978 163.55 203.978 163.905V168H202.802V161H203.978V161.875C204.225 161.548 204.538 161.289 204.916 161.098C205.294 160.902 205.705 160.804 206.148 160.804C206.671 160.804 207.147 160.932 207.576 161.189C208.01 161.441 208.353 161.782 208.605 162.211C208.862 162.64 208.99 163.119 208.99 163.646ZM210.39 161H211.566V168H210.39V161ZM210.992 159.859C210.805 159.859 210.649 159.798 210.523 159.677C210.397 159.556 210.334 159.404 210.334 159.222C210.334 159.04 210.397 158.888 210.523 158.767C210.649 158.646 210.803 158.585 210.985 158.585C211.167 158.585 211.321 158.646 211.447 158.767C211.573 158.888 211.636 159.04 211.636 159.222C211.636 159.404 211.573 159.556 211.447 159.677C211.325 159.798 211.174 159.859 210.992 159.859ZM213.206 168V161H214.382V161.875C214.63 161.548 214.94 161.289 215.313 161.098C215.691 160.902 216.102 160.804 216.545 160.804C217.063 160.804 217.537 160.93 217.966 161.182C218.396 161.434 218.734 161.768 218.981 162.183C219.229 161.768 219.565 161.434 219.989 161.182C220.419 160.93 220.89 160.804 221.403 160.804C221.931 160.804 222.409 160.932 222.838 161.189C223.268 161.441 223.608 161.782 223.86 162.211C224.117 162.64 224.245 163.119 224.245 163.646V168H223.069V163.926C223.069 163.581 222.985 163.261 222.817 162.967C222.649 162.673 222.423 162.437 222.138 162.26C221.854 162.083 221.539 161.994 221.193 161.994C220.848 161.994 220.533 162.078 220.248 162.246C219.964 162.409 219.737 162.638 219.569 162.932C219.401 163.221 219.317 163.553 219.317 163.926V168H218.141V163.926C218.141 163.553 218.057 163.221 217.889 162.932C217.721 162.638 217.493 162.409 217.203 162.246C216.919 162.078 216.604 161.994 216.258 161.994C215.918 161.994 215.603 162.083 215.313 162.26C215.029 162.437 214.802 162.673 214.634 162.967C214.466 163.261 214.382 163.581 214.382 163.926V168H213.206ZM231.139 161H232.315V168H231.139L231.09 166.817C230.871 167.223 230.567 167.552 230.18 167.804C229.797 168.056 229.34 168.182 228.808 168.182C228.295 168.182 227.814 168.086 227.366 167.895C226.918 167.699 226.521 167.431 226.176 167.09C225.835 166.745 225.569 166.348 225.378 165.9C225.187 165.452 225.091 164.969 225.091 164.451C225.091 163.952 225.184 163.48 225.371 163.037C225.558 162.594 225.817 162.206 226.148 161.875C226.484 161.539 226.871 161.278 227.31 161.091C227.749 160.9 228.22 160.804 228.724 160.804C229.275 160.804 229.758 160.935 230.173 161.196C230.588 161.453 230.924 161.786 231.181 162.197L231.139 161ZM228.787 167.041C229.249 167.041 229.648 166.929 229.984 166.705C230.325 166.476 230.586 166.168 230.768 165.781C230.955 165.394 231.048 164.967 231.048 164.5C231.048 164.024 230.955 163.595 230.768 163.212C230.581 162.825 230.318 162.519 229.977 162.295C229.641 162.066 229.244 161.952 228.787 161.952C228.325 161.952 227.905 162.066 227.527 162.295C227.149 162.524 226.848 162.832 226.624 163.219C226.405 163.602 226.295 164.029 226.295 164.5C226.295 164.971 226.409 165.401 226.638 165.788C226.867 166.171 227.17 166.476 227.548 166.705C227.926 166.929 228.339 167.041 228.787 167.041ZM237.34 162.176H235.751L235.744 168H234.568L234.575 162.176H233.371V161H234.575L234.568 158.802H235.744L235.751 161H237.34V162.176ZM238.527 161H239.703V168H238.527V161ZM239.129 159.859C238.942 159.859 238.786 159.798 238.66 159.677C238.534 159.556 238.471 159.404 238.471 159.222C238.471 159.04 238.534 158.888 238.66 158.767C238.786 158.646 238.94 158.585 239.122 158.585C239.304 158.585 239.458 158.646 239.584 158.767C239.71 158.888 239.773 159.04 239.773 159.222C239.773 159.404 239.71 159.556 239.584 159.677C239.462 159.798 239.311 159.859 239.129 159.859ZM244.368 168.182C243.724 168.182 243.136 168.016 242.604 167.685C242.077 167.354 241.655 166.91 241.337 166.355C241.025 165.795 240.868 165.177 240.868 164.5C240.868 163.987 240.959 163.508 241.141 163.065C241.323 162.617 241.573 162.225 241.89 161.889C242.212 161.548 242.586 161.282 243.01 161.091C243.435 160.9 243.888 160.804 244.368 160.804C245.012 160.804 245.598 160.97 246.125 161.301C246.657 161.632 247.08 162.078 247.392 162.638C247.71 163.198 247.868 163.819 247.868 164.5C247.868 165.009 247.777 165.485 247.595 165.928C247.413 166.371 247.161 166.763 246.839 167.104C246.522 167.44 246.151 167.704 245.726 167.895C245.306 168.086 244.854 168.182 244.368 168.182ZM244.368 167.006C244.807 167.006 245.201 166.892 245.551 166.663C245.906 166.43 246.184 166.124 246.384 165.746C246.59 165.363 246.692 164.948 246.692 164.5C246.692 164.043 246.587 163.623 246.377 163.24C246.172 162.857 245.894 162.552 245.544 162.323C245.194 162.094 244.802 161.98 244.368 161.98C243.93 161.98 243.535 162.097 243.185 162.33C242.835 162.559 242.558 162.864 242.352 163.247C242.147 163.63 242.044 164.047 242.044 164.5C242.044 164.967 242.149 165.391 242.359 165.774C242.569 166.152 242.852 166.453 243.206 166.677C243.561 166.896 243.948 167.006 244.368 167.006ZM255.215 163.646V168H254.039V163.905C254.039 163.55 253.952 163.228 253.78 162.939C253.607 162.65 253.376 162.421 253.087 162.253C252.797 162.08 252.475 161.994 252.121 161.994C251.771 161.994 251.449 162.08 251.155 162.253C250.865 162.421 250.634 162.65 250.462 162.939C250.289 163.228 250.203 163.55 250.203 163.905V168H249.027V161H250.203V161.875C250.45 161.548 250.763 161.289 251.141 161.098C251.519 160.902 251.929 160.804 252.373 160.804C252.895 160.804 253.371 160.932 253.801 161.189C254.235 161.441 254.578 161.782 254.83 162.211C255.086 162.64 255.215 163.119 255.215 163.646ZM262.036 168L259.53 158.2H260.741L262.715 165.935L264.682 158.2H265.739L267.713 165.935L269.68 158.2H270.891L268.399 168H267.027L265.214 160.902L263.401 168H262.036ZM274.392 168.182C273.748 168.182 273.16 168.016 272.628 167.685C272.1 167.354 271.678 166.91 271.361 166.355C271.048 165.795 270.892 165.177 270.892 164.5C270.892 163.987 270.983 163.508 271.165 163.065C271.347 162.617 271.596 162.225 271.914 161.889C272.236 161.548 272.609 161.282 273.034 161.091C273.458 160.9 273.911 160.804 274.392 160.804C275.036 160.804 275.621 160.97 276.149 161.301C276.681 161.632 277.103 162.078 277.416 162.638C277.733 163.198 277.892 163.819 277.892 164.5C277.892 165.009 277.801 165.485 277.619 165.928C277.437 166.371 277.185 166.763 276.863 167.104C276.545 167.44 276.174 167.704 275.75 167.895C275.33 168.086 274.877 168.182 274.392 168.182ZM274.392 167.006C274.83 167.006 275.225 166.892 275.575 166.663C275.929 166.43 276.207 166.124 276.408 165.746C276.613 165.363 276.716 164.948 276.716 164.5C276.716 164.043 276.611 163.623 276.401 163.24C276.195 162.857 275.918 162.552 275.568 162.323C275.218 162.094 274.826 161.98 274.392 161.98C273.953 161.98 273.559 162.097 273.209 162.33C272.859 162.559 272.581 162.864 272.376 163.247C272.17 163.63 272.068 164.047 272.068 164.5C272.068 164.967 272.173 165.391 272.383 165.774C272.593 166.152 272.875 166.453 273.23 166.677C273.584 166.896 273.972 167.006 274.392 167.006ZM279.05 168V161H280.226V161.875C280.473 161.548 280.786 161.289 281.164 161.098C281.542 160.902 281.953 160.804 282.396 160.804C282.667 160.804 282.928 160.839 283.18 160.909L282.704 162.085C282.513 162.024 282.326 161.994 282.144 161.994C281.794 161.994 281.472 162.08 281.178 162.253C280.889 162.421 280.658 162.65 280.485 162.939C280.312 163.228 280.226 163.55 280.226 163.905V168H279.05ZM289.663 168H288.312L286.45 164.787L285.162 166.327V168H283.986V157.5H285.162V164.5L288.095 161H289.628L287.248 163.835L289.663 168ZM292.929 168.133C292.551 168.119 292.182 168.049 291.823 167.923C291.468 167.792 291.156 167.617 290.885 167.398C290.619 167.174 290.425 166.917 290.304 166.628L291.312 166.194C291.382 166.353 291.508 166.502 291.69 166.642C291.872 166.782 292.082 166.894 292.32 166.978C292.558 167.062 292.798 167.104 293.041 167.104C293.298 167.104 293.538 167.064 293.762 166.985C293.986 166.906 294.168 166.789 294.308 166.635C294.453 166.476 294.525 166.287 294.525 166.068C294.525 165.835 294.446 165.653 294.287 165.522C294.133 165.387 293.937 165.282 293.699 165.207C293.466 165.128 293.228 165.053 292.985 164.983C292.504 164.862 292.075 164.717 291.697 164.549C291.319 164.376 291.02 164.159 290.801 163.898C290.586 163.632 290.479 163.294 290.479 162.883C290.479 162.449 290.598 162.073 290.836 161.756C291.079 161.439 291.396 161.194 291.788 161.021C292.18 160.848 292.6 160.762 293.048 160.762C293.613 160.762 294.128 160.883 294.595 161.126C295.062 161.369 295.409 161.698 295.638 162.113L294.693 162.666C294.614 162.498 294.492 162.351 294.329 162.225C294.166 162.094 293.979 161.992 293.769 161.917C293.559 161.842 293.344 161.803 293.125 161.798C292.854 161.789 292.6 161.824 292.362 161.903C292.129 161.982 291.94 162.104 291.795 162.267C291.655 162.426 291.585 162.624 291.585 162.862C291.585 163.095 291.66 163.273 291.809 163.394C291.963 163.515 292.161 163.613 292.404 163.688C292.651 163.758 292.92 163.84 293.209 163.933C293.634 164.068 294.03 164.225 294.399 164.402C294.768 164.579 295.064 164.801 295.288 165.067C295.517 165.333 295.629 165.662 295.624 166.054C295.624 166.483 295.496 166.859 295.239 167.181C294.982 167.498 294.649 167.741 294.238 167.909C293.832 168.077 293.396 168.152 292.929 168.133ZM303.011 163.646V168H301.835V163.905C301.835 163.55 301.749 163.228 301.576 162.939C301.404 162.65 301.173 162.421 300.883 162.253C300.594 162.08 300.272 161.994 299.917 161.994C299.567 161.994 299.245 162.08 298.951 162.253C298.662 162.421 298.431 162.65 298.258 162.939C298.086 163.228 297.999 163.55 297.999 163.905V168H296.823V157.5H297.999V161.875C298.247 161.548 298.559 161.289 298.937 161.098C299.315 160.902 299.726 160.804 300.169 160.804C300.692 160.804 301.168 160.932 301.597 161.189C302.031 161.441 302.374 161.782 302.626 162.211C302.883 162.64 303.011 163.119 303.011 163.646ZM307.355 168.182C306.711 168.182 306.123 168.016 305.591 167.685C305.063 167.354 304.641 166.91 304.324 166.355C304.011 165.795 303.855 165.177 303.855 164.5C303.855 163.987 303.946 163.508 304.128 163.065C304.31 162.617 304.559 162.225 304.877 161.889C305.199 161.548 305.572 161.282 305.997 161.091C306.421 160.9 306.874 160.804 307.355 160.804C307.999 160.804 308.584 160.97 309.112 161.301C309.644 161.632 310.066 162.078 310.379 162.638C310.696 163.198 310.855 163.819 310.855 164.5C310.855 165.009 310.764 165.485 310.582 165.928C310.4 166.371 310.148 166.763 309.826 167.104C309.508 167.44 309.137 167.704 308.713 167.895C308.293 168.086 307.84 168.182 307.355 168.182ZM307.355 167.006C307.793 167.006 308.188 166.892 308.538 166.663C308.892 166.43 309.17 166.124 309.371 165.746C309.576 165.363 309.679 164.948 309.679 164.5C309.679 164.043 309.574 163.623 309.364 163.24C309.158 162.857 308.881 162.552 308.531 162.323C308.181 162.094 307.789 161.98 307.355 161.98C306.916 161.98 306.522 162.097 306.172 162.33C305.822 162.559 305.544 162.864 305.339 163.247C305.133 163.63 305.031 164.047 305.031 164.5C305.031 164.967 305.136 165.391 305.346 165.774C305.556 166.152 305.838 166.453 306.193 166.677C306.547 166.896 306.935 167.006 307.355 167.006ZM313.189 171.5H312.013V161H313.189V162.197C313.427 161.786 313.744 161.455 314.141 161.203C314.538 160.946 315.009 160.818 315.555 160.818C316.064 160.818 316.54 160.914 316.983 161.105C317.431 161.296 317.823 161.562 318.159 161.903C318.495 162.239 318.759 162.629 318.95 163.072C319.141 163.515 319.237 163.991 319.237 164.5C319.237 165.009 319.141 165.487 318.95 165.935C318.759 166.383 318.495 166.777 318.159 167.118C317.823 167.454 317.431 167.718 316.983 167.909C316.54 168.1 316.064 168.196 315.555 168.196C315.009 168.196 314.538 168.07 314.141 167.818C313.744 167.561 313.427 167.228 313.189 166.817V171.5ZM315.541 161.959C315.088 161.959 314.692 162.073 314.351 162.302C314.01 162.531 313.747 162.836 313.56 163.219C313.378 163.602 313.287 164.029 313.287 164.5C313.287 164.967 313.378 165.394 313.56 165.781C313.747 166.168 314.008 166.476 314.344 166.705C314.685 166.934 315.084 167.048 315.541 167.048C315.994 167.048 316.409 166.936 316.787 166.712C317.165 166.483 317.468 166.178 317.697 165.795C317.926 165.408 318.04 164.976 318.04 164.5C318.04 164.033 317.928 163.609 317.704 163.226C317.48 162.839 317.179 162.531 316.801 162.302C316.423 162.073 316.003 161.959 315.541 161.959ZM142.532 185L147.502 176.376H141.881V175.2H148.86V176.376L143.876 185H142.532ZM149.974 185V175.2H153.208C153.735 175.2 154.209 175.328 154.629 175.585C155.053 175.842 155.389 176.189 155.637 176.628C155.889 177.062 156.015 177.547 156.015 178.084C156.015 178.63 155.886 179.122 155.63 179.561C155.378 179.995 155.037 180.34 154.608 180.597C154.183 180.849 153.716 180.975 153.208 180.975H151.15V185H149.974ZM151.15 179.799H153.103C153.42 179.799 153.709 179.722 153.971 179.568C154.237 179.409 154.447 179.197 154.601 178.931C154.759 178.66 154.839 178.357 154.839 178.021C154.839 177.68 154.759 177.377 154.601 177.111C154.447 176.84 154.237 176.628 153.971 176.474C153.709 176.315 153.42 176.236 153.103 176.236H151.15V179.799ZM156.782 185L158.679 175.2H159.582L162.228 182.158L164.867 175.2H165.77L167.674 185H166.477L165.098 177.888L162.613 184.468H161.836L159.351 177.888L157.979 185H156.782ZM178.751 175.2H179.927V185H178.751V180.338H173.9V185H172.724V175.2H173.9V179.162H178.751V175.2ZM185.062 185.182C184.534 185.182 184.026 185.1 183.536 184.937C183.046 184.769 182.616 184.531 182.248 184.223C181.884 183.915 181.625 183.549 181.471 183.124L182.57 182.711C182.663 182.972 182.836 183.201 183.088 183.397C183.344 183.588 183.645 183.738 183.991 183.845C184.336 183.952 184.693 184.006 185.062 184.006C185.482 184.006 185.871 183.938 186.231 183.803C186.595 183.663 186.889 183.469 187.113 183.222C187.337 182.975 187.449 182.685 187.449 182.354C187.449 182.013 187.332 181.736 187.099 181.521C186.865 181.302 186.567 181.129 186.203 181.003C185.839 180.872 185.458 180.772 185.062 180.702C184.385 180.59 183.778 180.431 183.242 180.226C182.71 180.016 182.287 179.724 181.975 179.351C181.667 178.978 181.513 178.485 181.513 177.874C181.513 177.305 181.676 176.808 182.003 176.383C182.334 175.958 182.77 175.629 183.312 175.396C183.853 175.163 184.436 175.046 185.062 175.046C185.58 175.046 186.081 175.128 186.567 175.291C187.057 175.45 187.488 175.683 187.862 175.991C188.235 176.299 188.503 176.675 188.667 177.118L187.554 177.524C187.46 177.258 187.285 177.029 187.029 176.838C186.777 176.642 186.478 176.493 186.133 176.39C185.792 176.283 185.435 176.229 185.062 176.229C184.646 176.224 184.259 176.292 183.9 176.432C183.54 176.572 183.249 176.766 183.025 177.013C182.801 177.26 182.689 177.547 182.689 177.874C182.689 178.266 182.791 178.567 182.997 178.777C183.207 178.982 183.491 179.136 183.851 179.239C184.21 179.342 184.614 179.433 185.062 179.512C185.696 179.619 186.284 179.79 186.826 180.023C187.367 180.252 187.801 180.557 188.128 180.94C188.459 181.323 188.625 181.794 188.625 182.354C188.625 182.923 188.459 183.42 188.128 183.845C187.801 184.27 187.367 184.599 186.826 184.832C186.284 185.065 185.696 185.182 185.062 185.182ZM193.661 185.182C193.134 185.182 192.625 185.1 192.135 184.937C191.645 184.769 191.216 184.531 190.847 184.223C190.483 183.915 190.224 183.549 190.07 183.124L191.169 182.711C191.262 182.972 191.435 183.201 191.687 183.397C191.944 183.588 192.245 183.738 192.59 183.845C192.935 183.952 193.292 184.006 193.661 184.006C194.081 184.006 194.471 183.938 194.83 183.803C195.194 183.663 195.488 183.469 195.712 183.222C195.936 182.975 196.048 182.685 196.048 182.354C196.048 182.013 195.931 181.736 195.698 181.521C195.465 181.302 195.166 181.129 194.802 181.003C194.438 180.872 194.058 180.772 193.661 180.702C192.984 180.59 192.378 180.431 191.841 180.226C191.309 180.016 190.887 179.724 190.574 179.351C190.266 178.978 190.112 178.485 190.112 177.874C190.112 177.305 190.275 176.808 190.602 176.383C190.933 175.958 191.37 175.629 191.911 175.396C192.452 175.163 193.036 175.046 193.661 175.046C194.179 175.046 194.681 175.128 195.166 175.291C195.656 175.45 196.088 175.683 196.461 175.991C196.834 176.299 197.103 176.675 197.266 177.118L196.153 177.524C196.06 177.258 195.885 177.029 195.628 176.838C195.376 176.642 195.077 176.493 194.732 176.39C194.391 176.283 194.034 176.229 193.661 176.229C193.246 176.224 192.858 176.292 192.499 176.432C192.14 176.572 191.848 176.766 191.624 177.013C191.4 177.26 191.288 177.547 191.288 177.874C191.288 178.266 191.391 178.567 191.596 178.777C191.806 178.982 192.091 179.136 192.45 179.239C192.809 179.342 193.213 179.433 193.661 179.512C194.296 179.619 194.884 179.79 195.425 180.023C195.966 180.252 196.4 180.557 196.727 180.94C197.058 181.323 197.224 181.794 197.224 182.354C197.224 182.923 197.058 183.42 196.727 183.845C196.4 184.27 195.966 184.599 195.425 184.832C194.884 185.065 194.296 185.182 193.661 185.182ZM198.892 185V175.2H202.273C202.758 175.2 203.199 175.3 203.596 175.501C203.997 175.697 204.314 175.984 204.548 176.362C204.781 176.74 204.898 177.193 204.898 177.72C204.898 178.005 204.849 178.28 204.751 178.546C204.657 178.807 204.527 179.034 204.359 179.225C204.195 179.412 204.009 179.538 203.799 179.603C204.093 179.678 204.342 179.811 204.548 180.002C204.753 180.189 204.919 180.408 205.045 180.66C205.175 180.912 205.269 181.176 205.325 181.451C205.381 181.726 205.409 181.992 205.409 182.249C205.409 182.79 205.285 183.269 205.038 183.684C204.795 184.095 204.468 184.417 204.058 184.65C203.647 184.883 203.194 185 202.7 185H198.892ZM200.068 183.964H202.595C202.917 183.964 203.208 183.882 203.47 183.719C203.736 183.551 203.948 183.322 204.107 183.033C204.265 182.744 204.345 182.417 204.345 182.053C204.345 181.731 204.265 181.428 204.107 181.143C203.948 180.854 203.736 180.62 203.47 180.443C203.208 180.266 202.917 180.177 202.595 180.177H200.068V183.964ZM200.068 179.162H202.161C202.59 179.162 202.956 179.036 203.26 178.784C203.568 178.527 203.722 178.17 203.722 177.713C203.722 177.218 203.568 176.85 203.26 176.607C202.956 176.36 202.59 176.236 202.161 176.236H200.068V179.162ZM209.891 185V183.957C210.25 183.635 210.654 183.276 211.102 182.879C211.55 182.478 211.996 182.06 212.439 181.626C212.887 181.187 213.298 180.753 213.671 180.324C214.044 179.895 214.345 179.489 214.574 179.106C214.803 178.719 214.917 178.38 214.917 178.091C214.917 177.746 214.833 177.431 214.665 177.146C214.497 176.857 214.271 176.626 213.986 176.453C213.706 176.28 213.393 176.194 213.048 176.194C212.703 176.194 212.385 176.28 212.096 176.453C211.811 176.626 211.583 176.857 211.41 177.146C211.242 177.431 211.158 177.746 211.158 178.091H209.982C209.982 177.517 210.122 176.999 210.402 176.537C210.682 176.07 211.053 175.702 211.515 175.431C211.977 175.156 212.488 175.018 213.048 175.018C213.608 175.018 214.117 175.156 214.574 175.431C215.036 175.706 215.405 176.077 215.68 176.544C215.955 177.006 216.093 177.522 216.093 178.091C216.093 178.418 216.014 178.77 215.855 179.148C215.696 179.521 215.479 179.906 215.204 180.303C214.929 180.7 214.616 181.101 214.266 181.507C213.916 181.908 213.547 182.305 213.16 182.697C212.773 183.089 212.388 183.465 212.005 183.824H216.219V185H209.891ZM217.616 185V183.957C217.975 183.635 218.379 183.276 218.827 182.879C219.275 182.478 219.72 182.06 220.164 181.626C220.612 181.187 221.022 180.753 221.396 180.324C221.769 179.895 222.07 179.489 222.299 179.106C222.527 178.719 222.642 178.38 222.642 178.091C222.642 177.746 222.558 177.431 222.39 177.146C222.222 176.857 221.995 176.626 221.711 176.453C221.431 176.28 221.118 176.194 220.773 176.194C220.427 176.194 220.11 176.28 219.821 176.453C219.536 176.626 219.307 176.857 219.135 177.146C218.967 177.431 218.883 177.746 218.883 178.091H217.707C217.707 177.517 217.847 176.999 218.127 176.537C218.407 176.07 218.778 175.702 219.24 175.431C219.702 175.156 220.213 175.018 220.773 175.018C221.333 175.018 221.841 175.156 222.299 175.431C222.761 175.706 223.129 176.077 223.405 176.544C223.68 177.006 223.818 177.522 223.818 178.091C223.818 178.418 223.738 178.77 223.58 179.148C223.421 179.521 223.204 179.906 222.929 180.303C222.653 180.7 222.341 181.101 221.991 181.507C221.641 181.908 221.272 182.305 220.885 182.697C220.497 183.089 220.112 183.465 219.73 183.824H223.944V185H217.616ZM228.618 185.182C228.034 185.182 227.512 185.051 227.05 184.79C226.588 184.524 226.191 184.158 225.86 183.691C225.528 183.224 225.276 182.685 225.104 182.074C224.931 181.458 224.845 180.8 224.845 180.1C224.845 179.4 224.931 178.742 225.104 178.126C225.276 177.51 225.528 176.971 225.86 176.509C226.191 176.042 226.588 175.678 227.05 175.417C227.512 175.151 228.034 175.018 228.618 175.018C229.196 175.018 229.717 175.151 230.179 175.417C230.645 175.678 231.04 176.042 231.362 176.509C231.688 176.971 231.938 177.51 232.111 178.126C232.288 178.742 232.377 179.4 232.377 180.1C232.377 180.8 232.288 181.458 232.111 182.074C231.938 182.685 231.688 183.224 231.362 183.691C231.04 184.158 230.645 184.524 230.179 184.79C229.717 185.051 229.196 185.182 228.618 185.182ZM228.618 184.006C229.201 184.006 229.689 183.826 230.081 183.467C230.477 183.103 230.774 182.625 230.97 182.032C231.166 181.439 231.264 180.795 231.264 180.1C231.264 179.367 231.161 178.707 230.956 178.119C230.755 177.526 230.456 177.057 230.06 176.712C229.668 176.367 229.187 176.194 228.618 176.194C228.17 176.194 227.778 176.299 227.442 176.509C227.11 176.719 226.835 177.006 226.616 177.37C226.396 177.734 226.231 178.152 226.119 178.623C226.011 179.09 225.958 179.582 225.958 180.1C225.958 180.795 226.058 181.442 226.259 182.039C226.459 182.632 226.756 183.108 227.148 183.467C227.544 183.826 228.034 184.006 228.618 184.006ZM234.451 185V176.376H233.352L233.681 175.2H235.627V185H234.451Z"
        fill="black" />
    <g filter="url(#filter4_d_940_173)">
        <rect x="26.02" y="150" width="60.0601" height="27" fill="#FBF2E6" />
        <rect x="26.02" y="150" width="60.0601" height="27" stroke="black" />
    </g>
    <path
        d="M31.1298 168V166.474C31.4332 166.245 31.7925 165.963 32.2078 165.627C32.6232 165.286 33.0502 164.92 33.4888 164.528C33.9275 164.131 34.3335 163.735 34.7068 163.338C35.0802 162.941 35.3835 162.563 35.6168 162.204C35.8548 161.845 35.9738 161.537 35.9738 161.28C35.9738 160.995 35.9038 160.736 35.7638 160.503C35.6238 160.265 35.4372 160.076 35.2038 159.936C34.9752 159.796 34.7185 159.726 34.4338 159.726C34.1492 159.726 33.8902 159.796 33.6568 159.936C33.4235 160.076 33.2368 160.265 33.0968 160.503C32.9568 160.736 32.8868 160.995 32.8868 161.28H31.1788C31.1788 160.664 31.3282 160.111 31.6268 159.621C31.9255 159.126 32.3198 158.737 32.8098 158.452C33.3045 158.163 33.8458 158.018 34.4338 158.018C35.0312 158.018 35.5748 158.165 36.0648 158.459C36.5548 158.748 36.9468 159.14 37.2408 159.635C37.5348 160.13 37.6818 160.678 37.6818 161.28C37.6818 161.597 37.6235 161.917 37.5068 162.239C37.3902 162.561 37.2268 162.885 37.0168 163.212C36.8068 163.539 36.5595 163.87 36.2748 164.206C35.9902 164.537 35.6752 164.878 35.3298 165.228C34.9892 165.573 34.6298 165.928 34.2518 166.292H37.7308V168H31.1298ZM42.1449 168.182C41.5522 168.182 41.0179 168.042 40.5419 167.762C40.0659 167.482 39.6879 167.106 39.4079 166.635C39.1279 166.159 38.9879 165.632 38.9879 165.053H40.6959C40.6959 165.314 40.7565 165.552 40.8779 165.767C41.0039 165.982 41.1765 166.154 41.3959 166.285C41.6152 166.411 41.8649 166.474 42.1449 166.474C42.4015 166.474 42.6395 166.411 42.8589 166.285C43.0829 166.154 43.2625 165.982 43.3979 165.767C43.5332 165.552 43.6009 165.314 43.6009 165.053C43.6009 164.712 43.5099 164.43 43.3279 164.206C43.1459 163.977 42.8915 163.807 42.5649 163.695C42.2429 163.583 41.8672 163.527 41.4379 163.527V162.211C42.0165 162.211 42.4739 162.101 42.8099 161.882C43.1505 161.663 43.3209 161.341 43.3209 160.916C43.3209 160.697 43.2649 160.496 43.1529 160.314C43.0409 160.132 42.8915 159.987 42.7049 159.88C42.5229 159.768 42.3222 159.712 42.1029 159.712C41.8789 159.712 41.6619 159.768 41.4519 159.88C41.2419 159.987 41.0692 160.132 40.9339 160.314C40.8032 160.496 40.7379 160.697 40.7379 160.916H39.0299C39.0299 160.515 39.1115 160.139 39.2749 159.789C39.4382 159.434 39.6622 159.124 39.9469 158.858C40.2362 158.592 40.5629 158.384 40.9269 158.235C41.2955 158.081 41.6805 158.004 42.0819 158.004C42.6092 158.004 43.0969 158.135 43.5449 158.396C43.9929 158.657 44.3522 159.007 44.6229 159.446C44.8935 159.885 45.0289 160.375 45.0289 160.916C45.0289 161.294 44.9402 161.665 44.7629 162.029C44.5855 162.393 44.3335 162.65 44.0069 162.799C44.2915 162.902 44.5295 163.074 44.7209 163.317C44.9122 163.555 45.0569 163.828 45.1549 164.136C45.2575 164.439 45.3089 164.745 45.3089 165.053C45.3089 165.627 45.1642 166.152 44.8749 166.628C44.5855 167.099 44.2005 167.477 43.7199 167.762C43.2439 168.042 42.7189 168.182 42.1449 168.182Z"
        fill="black" />
    <path
        d="M58.1596 168H56.4656L54.1276 161H55.8006L57.3196 165.529L58.8316 161H60.5186L62.0306 165.529L63.5496 161H65.2226L62.8846 168H61.1906L59.6716 163.45L58.1596 168ZM69.071 168.182C68.427 168.182 67.839 168.016 67.307 167.685C66.7797 167.354 66.3573 166.908 66.04 166.348C65.7273 165.788 65.571 165.17 65.571 164.493C65.571 163.984 65.662 163.508 65.844 163.065C66.026 162.617 66.2757 162.225 66.593 161.889C66.915 161.548 67.2883 161.282 67.713 161.091C68.1377 160.9 68.5903 160.804 69.071 160.804C69.617 160.804 70.1163 160.921 70.569 161.154C71.0263 161.383 71.4137 161.698 71.731 162.099C72.0483 162.5 72.2793 162.958 72.424 163.471C72.5687 163.984 72.6013 164.521 72.522 165.081H67.405C67.4703 165.342 67.5777 165.578 67.727 165.788C67.8763 165.993 68.0653 166.159 68.294 166.285C68.5227 166.406 68.7817 166.469 69.071 166.474C69.3697 166.479 69.6403 166.409 69.883 166.264C70.1303 166.115 70.3357 165.914 70.499 165.662L72.242 166.068C71.9573 166.689 71.5327 167.197 70.968 167.594C70.4033 167.986 69.771 168.182 69.071 168.182ZM67.349 163.8H70.793C70.7417 163.52 70.632 163.268 70.464 163.044C70.3007 162.815 70.0977 162.633 69.855 162.498C69.6123 162.363 69.351 162.295 69.071 162.295C68.791 162.295 68.532 162.363 68.294 162.498C68.056 162.629 67.853 162.808 67.685 163.037C67.5217 163.261 67.4097 163.515 67.349 163.8ZM78.9803 157.5H80.6883V168H78.9803V167.125C78.7563 167.438 78.4739 167.692 78.1333 167.888C77.7926 168.084 77.3983 168.182 76.9503 168.182C76.4416 168.182 75.9656 168.086 75.5223 167.895C75.0789 167.704 74.6869 167.44 74.3463 167.104C74.0103 166.763 73.7466 166.371 73.5553 165.928C73.3639 165.485 73.2683 165.009 73.2683 164.5C73.2683 163.991 73.3639 163.515 73.5553 163.072C73.7466 162.629 74.0103 162.239 74.3463 161.903C74.6869 161.562 75.0789 161.296 75.5223 161.105C75.9656 160.914 76.4416 160.818 76.9503 160.818C77.3983 160.818 77.7926 160.916 78.1333 161.112C78.4739 161.303 78.7563 161.558 78.9803 161.875V157.5ZM76.9713 166.537C77.3353 166.537 77.6573 166.446 77.9373 166.264C78.2173 166.082 78.4366 165.837 78.5953 165.529C78.7539 165.216 78.8333 164.873 78.8333 164.5C78.8333 164.122 78.7539 163.779 78.5953 163.471C78.4366 163.158 78.2149 162.911 77.9303 162.729C77.6503 162.547 77.3306 162.456 76.9713 162.456C76.6119 162.456 76.2829 162.549 75.9843 162.736C75.6903 162.918 75.4546 163.163 75.2773 163.471C75.1046 163.779 75.0183 164.122 75.0183 164.5C75.0183 164.878 75.1069 165.221 75.2843 165.529C75.4616 165.837 75.6973 166.082 75.9913 166.264C76.2899 166.446 76.6166 166.537 76.9713 166.537Z"
        fill="black" />
    <path d="M97.9102 165H121.57" stroke="black" stroke-linecap="round" />
    <line x1="6" y1="62" x2="370.005" y2="62" stroke="black" stroke-width="2" />
    <defs>
        <filter id="filter0_d_940_173" x="0" y="0" width="374" height="216"
            filterUnits="userSpaceOnUse" color-interpolation-filters="sRGB">
            <feFlood flood-opacity="0" result="BackgroundImageFix" />
            <feColorMatrix in="SourceAlpha" type="matrix"
                values="0 0 0 0 0 0 0 0 0 0 0 0 0 0 0 0 0 0 127 0" result="hardAlpha" />
            <feOffset dx="3" dy="3" />
            <feComposite in2="hardAlpha" operator="out" />
            <feColorMatrix type="matrix" values="0 0 0 0 0 0 0 0 0 0 0 0 0 0 0 0 0 0 1 0" />
            <feBlend mode="normal" in2="BackgroundImageFix" result="effect1_dropShadow_940_173" />
            <feBlend mode="normal" in="SourceGraphic" in2="effect1_dropShadow_940_173"
                result="shape" />
        </filter>
        <filter id="filter1_d_940_173" x="25.52" y="82.5" width="63.0601" height="30"
            filterUnits="userSpaceOnUse" color-interpolation-filters="sRGB">
            <feFlood flood-opacity="0" result="BackgroundImageFix" />
            <feColorMatrix in="SourceAlpha" type="matrix"
                values="0 0 0 0 0 0 0 0 0 0 0 0 0 0 0 0 0 0 127 0" result="hardAlpha" />
            <feOffset dx="2" dy="2" />
            <feComposite in2="hardAlpha" operator="out" />
            <feColorMatrix type="matrix" values="0 0 0 0 0 0 0 0 0 0 0 0 0 0 0 0 0 0 1 0" />
            <feBlend mode="normal" in2="BackgroundImageFix" result="effect1_dropShadow_940_173" />
            <feBlend mode="normal" in="SourceGraphic" in2="effect1_dropShadow_940_173"
                result="shape" />
        </filter>
        <filter id="filter2_d_940_173" x="132.9" y="82.5" width="219.58" height="52"
            filterUnits="userSpaceOnUse" color-interpolation-filters="sRGB">
            <feFlood flood-opacity="0" result="BackgroundImageFix" />
            <feColorMatrix in="SourceAlpha" type="matrix"
                values="0 0 0 0 0 0 0 0 0 0 0 0 0 0 0 0 0 0 127 0" result="hardAlpha" />
            <feOffset dx="2" dy="2" />
            <feComposite in2="hardAlpha" operator="out" />
            <feColorMatrix type="matrix" values="0 0 0 0 0 0 0 0 0 0 0 0 0 0 0 0 0 0 1 0" />
            <feBlend mode="normal" in2="BackgroundImageFix" result="effect1_dropShadow_940_173" />
            <feBlend mode="normal" in="SourceGraphic" in2="effect1_dropShadow_940_173"
                result="shape" />
        </filter>
        <filter id="filter3_d_940_173" x="132.5" y="146.5" width="219.58" height="52"
            filterUnits="userSpaceOnUse" color-interpolation-filters="sRGB">
            <feFlood flood-opacity="0" result="BackgroundImageFix" />
            <feColorMatrix in="SourceAlpha" type="matrix"
                values="0 0 0 0 0 0 0 0 0 0 0 0 0 0 0 0 0 0 127 0" result="hardAlpha" />
            <feOffset dx="2" dy="2" />
            <feComposite in2="hardAlpha" operator="out" />
            <feColorMatrix type="matrix" values="0 0 0 0 0 0 0 0 0 0 0 0 0 0 0 0 0 0 1 0" />
            <feBlend mode="normal" in2="BackgroundImageFix" result="effect1_dropShadow_940_173" />
            <feBlend mode="normal" in="SourceGraphic" in2="effect1_dropShadow_940_173"
                result="shape" />
        </filter>
        <filter id="filter4_d_940_173" x="25.52" y="149.5" width="63.0601" height="30"
            filterUnits="userSpaceOnUse" color-interpolation-filters="sRGB">
            <feFlood flood-opacity="0" result="BackgroundImageFix" />
            <feColorMatrix in="SourceAlpha" type="matrix"
                values="0 0 0 0 0 0 0 0 0 0 0 0 0 0 0 0 0 0 127 0" result="hardAlpha" />
            <feOffset dx="2" dy="2" />
            <feComposite in2="hardAlpha" operator="out" />
            <feColorMatrix type="matrix" values="0 0 0 0 0 0 0 0 0 0 0 0 0 0 0 0 0 0 1 0" />
            <feBlend mode="normal" in2="BackgroundImageFix" result="effect1_dropShadow_940_173" />
            <feBlend mode="normal" in="SourceGraphic" in2="effect1_dropShadow_940_173"
                result="shape" />
        </filter>
    </defs>
</svg>
    