<svg width="365" height="441" viewBox="0 0 365 441" fill="none" xmlns="http://www.w3.org/2000/svg">
<path d="M358.767 112C358.767 154.526 286.737 189 197.884 189C109.03 189 37 154.526 37 112C37 69.4741 109.03 35 197.884 35C286.737 35 358.767 69.4741 358.767 112Z" fill="#35393C"/>
<path d="M358.767 189C358.767 231.526 286.737 266 197.884 266C109.03 266 37 231.526 37 189C37 146.474 109.03 112 197.884 112C286.737 112 358.767 146.474 358.767 189Z" fill="#35393C"/>
<path d="M358.767 266C358.767 308.526 286.737 343 197.884 343C109.03 343 37 308.526 37 266C37 223.474 109.03 189 197.884 189C286.737 189 358.767 223.474 358.767 266Z" fill="#35393C"/>
<path d="M358.767 343C358.767 385.526 286.737 420 197.884 420C109.03 420 37 385.526 37 343C37 300.474 109.03 266 197.884 266C286.737 266 358.767 300.474 358.767 343Z" fill="#35393C"/>
<path d="M58.5239 140.245C62.3389 144.229 66.9641 147.998 72.2936 151.517C66.9641 155.035 62.3389 158.805 58.5239 162.789C50.7032 170.957 46.2061 180.125 46.2061 189.909C46.2061 199.693 50.7032 208.861 58.5239 217.028C62.3389 221.013 66.9641 224.782 72.2936 228.3C66.9641 231.819 62.3389 235.588 58.5239 239.572C50.7032 247.74 46.2061 256.908 46.2061 266.692C46.2061 276.476 50.7032 285.644 58.5239 293.812C62.3389 297.796 66.9641 301.565 72.2936 305.084C66.9641 308.602 62.3389 312.371 58.5239 316.356C50.7032 324.524 46.2061 333.691 46.2061 343.476C46.2061 353.26 50.7032 362.427 58.5239 370.595C66.3349 378.753 77.5423 386.008 91.2375 392.058C118.633 404.16 156.34 411.595 197.884 411.595C239.428 411.595 277.134 404.16 304.53 392.058C318.225 386.008 329.433 378.753 337.244 370.595C345.064 362.427 349.562 353.26 349.562 343.476C349.562 333.691 345.064 324.524 337.244 316.356C333.429 312.371 328.804 308.602 323.474 305.084C328.804 301.565 333.429 297.796 337.244 293.812C345.064 285.644 349.562 276.476 349.562 266.692C349.562 256.908 345.064 247.74 337.244 239.572C333.429 235.588 328.803 231.819 323.474 228.3C328.803 224.782 333.429 221.013 337.244 217.028C345.064 208.861 349.562 199.693 349.562 189.909C349.562 180.125 345.064 170.957 337.244 162.789C333.429 158.805 328.803 155.035 323.474 151.517C328.803 147.998 333.429 144.229 337.244 140.245C345.064 132.077 349.562 122.909 349.562 113.125C349.562 103.341 345.064 94.1734 337.244 86.0056C329.433 77.8478 318.225 70.5923 304.53 64.5426C277.134 52.4407 239.428 45.0062 197.884 45.0062C156.34 45.0062 118.633 52.4407 91.2375 64.5426C77.5423 70.5923 66.3349 77.8478 58.5239 86.0056C50.7032 94.1734 46.2061 103.341 46.2061 113.125C46.2061 122.909 50.7032 132.077 58.5239 140.245Z" stroke="#FBF2E6" stroke-width="4" stroke-linejoin="round"/>
<path d="M109.179 82.735C109.216 82.075 109.674 81.6716 110.554 81.525C111.581 81.415 113.029 81.36 114.899 81.36C116.036 81.36 117.154 81.415 118.254 81.525C118.658 81.5983 118.969 81.7633 119.189 82.02C119.409 82.24 119.519 82.4783 119.519 82.735C119.519 82.8083 119.519 82.8816 119.519 82.955C117.906 92.5616 117.099 100.115 117.099 105.615C117.136 109.795 119.318 111.885 123.644 111.885C125.954 111.885 127.751 111.518 129.034 110.785C130.354 110.015 131.528 108.677 132.554 106.77C132.774 106.22 133.123 105.945 133.599 105.945C133.673 105.945 133.856 105.982 134.149 106.055C134.479 106.092 134.663 106.477 134.699 107.21C134.993 110.363 135.194 114.213 135.304 118.76C135.304 119.53 134.919 119.952 134.149 120.025C132.133 120.172 127.769 120.245 121.059 120.245C115.376 120.245 111.508 120.172 109.454 120.025C108.538 119.952 108.079 119.493 108.079 118.65C108.226 103.36 108.593 91.3883 109.179 82.735ZM138.452 82.735C138.525 82.0016 138.983 81.5983 139.827 81.525C141.073 81.415 144.63 81.36 150.497 81.36C155.74 81.36 159.242 81.415 161.002 81.525C161.808 81.5983 162.248 82.02 162.322 82.79C162.432 84.22 162.56 87.3366 162.707 92.14C162.707 92.1766 162.707 92.2316 162.707 92.305C162.707 92.855 162.56 93.185 162.267 93.295C162.01 93.3683 161.827 93.405 161.717 93.405C161.35 93.405 161.002 93.185 160.672 92.745C158.655 90.2883 155.685 89.06 151.762 89.06C150.112 89.06 148.792 89.39 147.802 90.05C146.848 90.71 146.372 91.6266 146.372 92.8V93.24C146.372 95.4033 147.967 96.485 151.157 96.485C153.063 96.485 155.245 96.3566 157.702 96.1C157.775 96.1 157.848 96.1 157.922 96.1C158.215 96.1 158.472 96.2283 158.692 96.485C158.948 96.705 159.077 96.9983 159.077 97.365V102.04C159.077 102.627 158.948 102.975 158.692 103.085C158.472 103.158 158.325 103.195 158.252 103.195C157.958 103.195 157.665 103.048 157.372 102.755C155.795 101.582 153.87 100.995 151.597 100.995C151.487 100.995 151.358 100.995 151.212 100.995C147.985 101.068 146.372 102.535 146.372 105.395V106.88C146.372 108.713 146.977 110.088 148.187 111.005C149.397 111.922 150.973 112.38 152.917 112.38C155.263 112.38 157.097 112.013 158.417 111.28C159.737 110.51 160.91 109.172 161.937 107.265C162.157 106.752 162.505 106.495 162.982 106.495C163.055 106.495 163.238 106.513 163.532 106.55C163.862 106.587 164.063 106.972 164.137 107.705C164.393 110.418 164.577 114.103 164.687 118.76C164.687 118.833 164.687 118.888 164.687 118.925C164.687 119.585 164.302 119.952 163.532 120.025C161.515 120.172 157.115 120.245 150.332 120.245C144.648 120.245 140.78 120.172 138.727 120.025C137.81 119.952 137.352 119.493 137.352 118.65C137.498 103.36 137.865 91.3883 138.452 82.735ZM170.536 86.97C173.542 83.12 177.502 81.1766 182.416 81.14C186.046 81.14 189.236 81.8733 191.986 83.34C192.572 83.78 192.866 84.3666 192.866 85.1C192.866 85.21 192.866 85.3016 192.866 85.375C192.829 85.9616 192.719 87.2266 192.536 89.17C192.352 91.0766 192.224 92.3966 192.151 93.13C192.114 93.7533 191.967 94.1016 191.711 94.175C191.454 94.2116 191.289 94.23 191.216 94.23C190.886 94.23 190.592 94.0283 190.336 93.625C188.282 91.1316 185.771 89.885 182.801 89.885C180.564 89.885 178.767 90.9483 177.411 93.075C176.054 95.165 175.376 98.2266 175.376 102.26C175.376 108.493 177.282 111.61 181.096 111.61C182.599 111.573 183.809 110.877 184.726 109.52C185.679 108.163 186.156 106.44 186.156 104.35C186.156 102.223 185.752 100.537 184.946 99.29C184.836 99.07 184.781 98.8683 184.781 98.685C184.781 98.5383 184.836 98.3366 184.946 98.08C185.056 97.8233 185.349 97.6766 185.826 97.64C189.272 97.4933 191.967 97.42 193.911 97.42C194.754 97.42 195.212 97.86 195.286 98.74C195.799 104.643 196.056 111.262 196.056 118.595C196.056 119.475 195.616 119.952 194.736 120.025C193.562 120.098 192.426 120.153 191.326 120.19C190.262 120.153 189.217 120.098 188.191 120.025C187.347 119.952 186.926 119.585 186.926 118.925C186.926 118.815 186.926 118.723 186.926 118.65C187.036 117.623 187.127 116.358 187.201 114.855C187.201 114.415 187.146 114.122 187.036 113.975C186.926 113.792 186.816 113.7 186.706 113.7C186.669 113.7 186.577 113.755 186.431 113.865C186.284 113.938 186.156 114.195 186.046 114.635C184.506 118.448 181.866 120.355 178.126 120.355C174.532 120.355 171.617 118.907 169.381 116.01C167.144 113.077 166.026 108.567 166.026 102.48C166.026 95.99 167.529 90.82 170.536 86.97ZM199.36 82.735C199.433 82.0016 199.892 81.5983 200.735 81.525C201.982 81.415 205.538 81.36 211.405 81.36C216.648 81.36 220.15 81.415 221.91 81.525C222.717 81.5983 223.157 82.02 223.23 82.79C223.34 84.22 223.468 87.3366 223.615 92.14C223.615 92.1766 223.615 92.2316 223.615 92.305C223.615 92.855 223.468 93.185 223.175 93.295C222.918 93.3683 222.735 93.405 222.625 93.405C222.258 93.405 221.91 93.185 221.58 92.745C219.563 90.2883 216.593 89.06 212.67 89.06C211.02 89.06 209.7 89.39 208.71 90.05C207.757 90.71 207.28 91.6266 207.28 92.8V93.24C207.28 95.4033 208.875 96.485 212.065 96.485C213.972 96.485 216.153 96.3566 218.61 96.1C218.683 96.1 218.757 96.1 218.83 96.1C219.123 96.1 219.38 96.2283 219.6 96.485C219.857 96.705 219.985 96.9983 219.985 97.365V102.04C219.985 102.627 219.857 102.975 219.6 103.085C219.38 103.158 219.233 103.195 219.16 103.195C218.867 103.195 218.573 103.048 218.28 102.755C216.703 101.582 214.778 100.995 212.505 100.995C212.395 100.995 212.267 100.995 212.12 100.995C208.893 101.068 207.28 102.535 207.28 105.395V106.88C207.28 108.713 207.885 110.088 209.095 111.005C210.305 111.922 211.882 112.38 213.825 112.38C216.172 112.38 218.005 112.013 219.325 111.28C220.645 110.51 221.818 109.172 222.845 107.265C223.065 106.752 223.413 106.495 223.89 106.495C223.963 106.495 224.147 106.513 224.44 106.55C224.77 106.587 224.972 106.972 225.045 107.705C225.302 110.418 225.485 114.103 225.595 118.76C225.595 118.833 225.595 118.888 225.595 118.925C225.595 119.585 225.21 119.952 224.44 120.025C222.423 120.172 218.023 120.245 211.24 120.245C205.557 120.245 201.688 120.172 199.635 120.025C198.718 119.952 198.26 119.493 198.26 118.65C198.407 103.36 198.773 91.3883 199.36 82.735ZM227.747 118.54C227.821 103.25 228.224 91.3516 228.957 82.845C228.994 82.2216 229.416 81.7816 230.222 81.525C230.919 81.3783 231.799 81.305 232.862 81.305C233.706 81.305 234.549 81.3783 235.392 81.525C236.419 81.6716 237.281 82.295 237.977 83.395C239.517 87.2816 241.149 90.9483 242.872 94.395C244.632 97.8416 245.952 99.565 246.832 99.565C247.346 99.565 247.657 99.1066 247.767 98.19C247.914 97.2733 247.987 96.3933 247.987 95.55C247.987 94.8166 247.932 93.7716 247.822 92.415C247.712 91.0583 247.547 89.555 247.327 87.905C247.107 86.2183 246.869 84.6783 246.612 83.285C246.612 83.175 246.612 83.065 246.612 82.955C246.612 82.2216 247.071 81.745 247.987 81.525C248.757 81.3783 249.784 81.305 251.067 81.305C252.131 81.305 253.102 81.3783 253.982 81.525C254.789 81.7083 255.247 82.1483 255.357 82.845C256.017 90.875 256.366 101.013 256.402 113.26C256.402 118.027 254.991 120.41 252.167 120.41C250.591 120.41 249.051 119.438 247.547 117.495C246.044 115.552 244.816 113.407 243.862 111.06C242.909 108.713 241.919 106.568 240.892 104.625C239.866 102.682 238.986 101.71 238.252 101.71C237.372 101.71 236.932 103.067 236.932 105.78C236.932 109.08 237.262 113.278 237.922 118.375C237.922 118.448 237.922 118.54 237.922 118.65C237.922 119.42 237.446 119.878 236.492 120.025C235.502 120.172 234.256 120.245 232.752 120.245C231.506 120.245 230.314 120.172 229.177 120.025C228.224 119.805 227.747 119.31 227.747 118.54ZM258.739 118.65C258.739 107.797 259.087 95.8433 259.784 82.79C259.857 82.02 260.297 81.5983 261.104 81.525C263.45 81.3783 266.695 81.305 270.839 81.305C276.045 81.305 280.207 83.2116 283.324 87.025C286.477 90.8016 288.054 96.1 288.054 102.92C288.054 109.08 286.715 113.535 284.039 116.285C281.399 119.035 277.53 120.41 272.434 120.41C267.557 120.41 263.414 120.282 260.004 120.025C259.674 119.988 259.38 119.842 259.124 119.585C258.867 119.328 258.739 119.017 258.739 118.65ZM268.034 108.035C268.107 109.978 268.84 110.968 270.234 111.005C270.674 111.042 271.389 111.06 272.379 111.06C274.322 111.023 275.899 110.327 277.109 108.97C278.319 107.577 278.924 105.432 278.924 102.535C278.924 98.6483 278.245 95.5866 276.889 93.35C275.569 91.1133 273.809 89.9766 271.609 89.94C270.839 89.94 270.234 89.9583 269.794 89.995C268.694 89.995 268.107 90.7466 268.034 92.25C267.96 94.3766 267.924 96.76 267.924 99.4C267.924 102.04 267.96 104.918 268.034 108.035Z" fill="#FBF2E6"/>
<path d="M118.954 141.571C120.986 139.395 124.436 139.395 126.468 141.571C127.676 142.865 129.465 143.446 131.203 143.11C134.126 142.543 136.917 144.571 137.282 147.526C137.499 149.283 138.604 150.805 140.208 151.554C142.906 152.814 143.972 156.095 142.53 158.7C141.673 160.249 141.673 162.13 142.53 163.679C143.972 166.284 142.906 169.566 140.208 170.826C138.604 171.575 137.499 173.096 137.282 174.853C136.917 177.808 134.126 179.836 131.203 179.27C129.465 178.933 127.676 179.515 126.468 180.809C124.436 182.985 120.986 182.985 118.954 180.809C117.746 179.515 115.957 178.933 114.219 179.27C111.296 179.836 108.504 177.808 108.14 174.853C107.923 173.096 106.817 171.575 105.213 170.826C102.516 169.566 101.449 166.284 102.891 163.679C103.749 162.13 103.749 160.249 102.891 158.7C101.449 156.095 102.516 152.814 105.213 151.554C106.817 150.805 107.923 149.283 108.14 147.526C108.504 144.571 111.296 142.543 114.219 143.11C115.957 143.446 117.746 142.865 118.954 141.571Z" fill="#FCA71F"/>
<path d="M162.496 150.385C162.816 150.305 163.256 150.265 163.816 150.265C164.269 150.265 164.669 150.305 165.016 150.385C165.602 150.518 165.896 150.798 165.896 151.225C165.896 151.225 165.896 151.238 165.896 151.265C165.896 151.665 165.896 152.078 165.896 152.505C165.896 155.732 166.082 158.772 166.456 161.625C166.669 163.465 166.922 164.385 167.216 164.385C167.482 164.385 167.749 163.398 168.016 161.425C168.042 161.185 168.202 159.998 168.496 157.865C168.816 155.705 169.069 154.212 169.256 153.385C169.469 152.318 169.709 151.585 169.976 151.185C170.269 150.758 170.642 150.545 171.096 150.545C171.976 150.545 172.602 151.492 172.976 153.385C173.109 154.025 173.242 154.838 173.376 155.825C173.536 156.785 173.696 157.892 173.856 159.145C174.016 160.372 174.122 161.132 174.176 161.425C174.496 163.398 174.776 164.385 175.016 164.385C175.309 164.385 175.562 163.465 175.776 161.625C176.149 158.185 176.336 155.172 176.336 152.585C176.336 152.132 176.336 151.692 176.336 151.265C176.336 151.238 176.336 151.225 176.336 151.225C176.336 150.798 176.629 150.518 177.216 150.385C177.562 150.305 177.949 150.265 178.376 150.265C178.936 150.265 179.389 150.305 179.736 150.385C180.269 150.572 180.536 150.852 180.536 151.225C180.536 151.225 180.536 151.238 180.536 151.265C180.322 158.225 179.576 164.932 178.296 171.385C178.162 171.785 177.829 172.038 177.296 172.145C176.896 172.225 176.282 172.265 175.456 172.265C174.842 172.265 174.322 172.225 173.896 172.145C173.309 172.012 172.962 171.745 172.856 171.345C172.802 170.918 172.656 169.598 172.416 167.385C172.202 165.172 171.976 163.278 171.736 161.705C171.522 160.132 171.309 159.345 171.096 159.345C170.882 159.345 170.656 160.158 170.416 161.785C170.202 163.385 169.989 165.292 169.776 167.505C169.562 169.692 169.429 170.972 169.376 171.345C169.242 171.798 168.896 172.065 168.336 172.145C167.776 172.225 167.256 172.265 166.776 172.265C166.002 172.265 165.389 172.225 164.936 172.145C164.402 172.065 164.069 171.812 163.936 171.385C162.656 165.465 161.909 158.758 161.696 151.265C161.696 151.238 161.696 151.212 161.696 151.185C161.696 150.785 161.962 150.518 162.496 150.385ZM181.345 161.425C181.345 157.772 181.972 154.985 183.225 153.065C184.478 151.118 186.118 150.145 188.145 150.145C190.172 150.145 191.812 151.118 193.065 153.065C194.318 154.985 194.945 157.772 194.945 161.425C194.945 165.052 194.332 167.785 193.105 169.625C191.852 171.465 190.198 172.385 188.145 172.385C186.092 172.385 184.438 171.465 183.185 169.625C181.958 167.785 181.345 165.052 181.345 161.425ZM185.185 161.345C185.185 163.585 185.452 165.305 185.985 166.505C186.492 167.705 187.212 168.305 188.145 168.305C189.078 168.305 189.798 167.705 190.305 166.505C190.838 165.305 191.105 163.585 191.105 161.345C191.105 159.105 190.838 157.358 190.305 156.105C189.798 154.852 189.078 154.225 188.145 154.225C187.212 154.225 186.478 154.852 185.945 156.105C185.438 157.358 185.185 159.105 185.185 161.345ZM196.164 151.185C196.191 150.732 196.404 150.465 196.804 150.385C197.257 150.305 197.711 150.265 198.164 150.265C198.724 150.265 199.164 150.305 199.484 150.385C199.964 150.492 200.204 150.692 200.204 150.985C200.204 151.065 200.191 151.132 200.164 151.185C199.977 152.092 199.884 152.878 199.884 153.545C199.884 153.785 199.911 153.945 199.964 154.025C200.044 154.105 200.111 154.145 200.164 154.145C200.191 154.145 200.244 154.118 200.324 154.065C200.404 154.012 200.471 153.865 200.524 153.625C200.817 152.452 201.311 151.585 202.004 151.025C202.724 150.438 203.511 150.145 204.364 150.145C205.137 150.145 205.737 150.265 206.164 150.505C206.484 150.665 206.644 150.932 206.644 151.305V155.945C206.644 156.425 206.564 156.692 206.404 156.745C206.244 156.798 206.137 156.825 206.084 156.825C205.897 156.825 205.711 156.678 205.524 156.385C204.964 155.718 204.164 155.385 203.124 155.385C202.137 155.385 201.337 155.878 200.724 156.865C200.111 157.852 199.804 159.398 199.804 161.505C199.804 162.918 199.871 164.838 200.004 167.265C200.164 169.692 200.244 171.012 200.244 171.225C200.244 171.252 200.244 171.278 200.244 171.305C200.244 171.812 200.017 172.092 199.564 172.145C199.217 172.225 198.657 172.265 197.884 172.265C197.351 172.265 196.857 172.225 196.404 172.145C195.977 172.038 195.764 171.732 195.764 171.225C195.791 162.772 195.924 156.092 196.164 151.185ZM208.51 144.145C208.59 143.692 208.87 143.425 209.35 143.345C209.75 143.265 210.217 143.225 210.75 143.225C211.364 143.225 211.87 143.265 212.27 143.345C212.75 143.425 212.99 143.732 212.99 144.265C212.99 144.318 212.884 145.358 212.67 147.385C212.484 149.385 212.337 151.145 212.23 152.665C212.124 154.158 212.07 155.412 212.07 156.425C212.07 157.012 212.164 157.518 212.35 157.945C212.537 158.372 212.79 158.585 213.11 158.585C213.99 158.585 214.764 157.838 215.43 156.345C216.097 154.852 216.43 153.332 216.43 151.785C216.43 151.652 216.43 151.532 216.43 151.425C216.43 151.398 216.43 151.372 216.43 151.345C216.43 150.892 216.71 150.572 217.27 150.385C217.67 150.305 218.15 150.265 218.71 150.265C219.27 150.265 219.697 150.305 219.99 150.385C220.524 150.572 220.79 150.878 220.79 151.305C220.79 151.332 220.79 151.358 220.79 151.385C220.737 154.025 220.35 156.025 219.63 157.385C218.91 158.745 217.657 159.665 215.87 160.145C215.657 160.198 215.55 160.318 215.55 160.505C215.55 160.665 215.657 160.772 215.87 160.825C217.977 161.278 219.39 162.252 220.11 163.745C220.83 165.212 221.27 167.718 221.43 171.265C221.43 171.772 221.137 172.078 220.55 172.185C220.177 172.238 219.777 172.265 219.35 172.265C218.55 172.265 218.004 172.238 217.71 172.185C217.15 172.052 216.87 171.772 216.87 171.345C216.87 171.345 216.87 171.332 216.87 171.305C216.87 171.225 216.87 171.145 216.87 171.065C216.87 168.718 216.484 166.732 215.71 165.105C214.937 163.452 214.07 162.625 213.11 162.625C212.844 162.625 212.604 162.838 212.39 163.265C212.204 163.665 212.11 164.145 212.11 164.705C212.11 164.865 212.11 165.025 212.11 165.185C212.11 166.705 212.217 168.718 212.43 171.225C212.43 171.252 212.43 171.278 212.43 171.305C212.43 171.732 212.19 172.012 211.71 172.145C211.31 172.225 210.844 172.265 210.31 172.265C209.697 172.265 209.19 172.225 208.79 172.145C208.31 172.012 208.07 171.705 208.07 171.225C208.07 158.665 208.217 149.638 208.51 144.145ZM222.361 170.145L222.561 166.505C222.587 165.998 222.681 165.732 222.841 165.705C223.027 165.678 223.147 165.665 223.201 165.665C223.467 165.665 223.654 165.825 223.761 166.145C224.134 166.812 224.667 167.332 225.361 167.705C226.081 168.052 226.814 168.225 227.561 168.225C228.334 168.225 228.934 168.025 229.361 167.625C229.787 167.198 230.001 166.625 230.001 165.905C230.001 165.132 229.614 164.385 228.841 163.665C228.094 162.918 227.267 162.278 226.361 161.745C225.481 161.185 224.654 160.398 223.881 159.385C223.134 158.345 222.761 157.158 222.761 155.825C222.761 154.038 223.294 152.652 224.361 151.665C225.427 150.652 226.841 150.145 228.601 150.145C229.934 150.145 231.027 150.318 231.881 150.665C232.521 150.958 232.841 151.398 232.841 151.985V155.145C232.841 155.705 232.761 155.998 232.601 156.025C232.441 156.052 232.334 156.065 232.281 156.065C232.041 156.065 231.854 155.918 231.721 155.625C231.081 154.665 230.147 154.185 228.921 154.185C228.227 154.185 227.654 154.398 227.201 154.825C226.747 155.225 226.521 155.732 226.521 156.345C226.521 156.905 226.761 157.452 227.241 157.985C227.747 158.518 228.347 159.038 229.041 159.545C229.761 160.025 230.467 160.558 231.161 161.145C231.881 161.705 232.481 162.438 232.961 163.345C233.467 164.252 233.721 165.252 233.721 166.345C233.721 168.212 233.187 169.692 232.121 170.785C231.081 171.852 229.681 172.385 227.921 172.385C226.267 172.385 224.694 172.092 223.201 171.505C222.641 171.212 222.361 170.785 222.361 170.225C222.361 170.198 222.361 170.172 222.361 170.145ZM235.659 144.185C235.686 143.705 235.899 143.425 236.299 143.345C236.699 143.265 237.152 143.225 237.659 143.225C238.352 143.225 238.872 143.265 239.219 143.345C239.672 143.478 239.899 143.732 239.899 144.105C239.899 144.132 239.899 144.158 239.899 144.185C239.472 149.065 239.259 152.052 239.259 153.145C239.259 153.438 239.286 153.638 239.339 153.745C239.392 153.825 239.446 153.865 239.499 153.865C239.552 153.865 239.619 153.838 239.699 153.785C239.779 153.732 239.872 153.572 239.979 153.305C240.859 151.172 242.126 150.105 243.779 150.105C245.192 150.105 246.352 151.065 247.259 152.985C248.166 154.878 248.646 157.598 248.699 161.145C248.806 166.052 248.859 169.398 248.859 171.185C248.859 171.692 248.619 172.012 248.139 172.145C247.792 172.225 247.299 172.265 246.659 172.265C246.019 172.265 245.499 172.225 245.099 172.145C244.619 171.985 244.379 171.692 244.379 171.265C244.379 171.238 244.379 171.212 244.379 171.185C244.646 168.412 244.779 165.225 244.779 161.625C244.726 157.012 243.792 154.705 241.979 154.705C241.126 154.705 240.446 155.305 239.939 156.505C239.459 157.678 239.219 159.292 239.219 161.345C239.219 161.452 239.219 161.558 239.219 161.665C239.299 166.252 239.419 169.438 239.579 171.225C239.579 171.252 239.579 171.278 239.579 171.305C239.579 171.758 239.352 172.038 238.899 172.145C238.526 172.225 238.006 172.265 237.339 172.265C236.752 172.265 236.259 172.225 235.859 172.145C235.406 172.038 235.179 171.718 235.179 171.185C235.232 158.145 235.392 149.145 235.659 144.185ZM250.134 161.425C250.134 157.772 250.761 154.985 252.014 153.065C253.268 151.118 254.908 150.145 256.934 150.145C258.961 150.145 260.601 151.118 261.854 153.065C263.108 154.985 263.734 157.772 263.734 161.425C263.734 165.052 263.121 167.785 261.894 169.625C260.641 171.465 258.988 172.385 256.934 172.385C254.881 172.385 253.228 171.465 251.974 169.625C250.748 167.785 250.134 165.052 250.134 161.425ZM253.974 161.345C253.974 163.585 254.241 165.305 254.774 166.505C255.281 167.705 256.001 168.305 256.934 168.305C257.868 168.305 258.588 167.705 259.094 166.505C259.628 165.305 259.894 163.585 259.894 161.345C259.894 159.105 259.628 157.358 259.094 156.105C258.588 154.852 257.868 154.225 256.934 154.225C256.001 154.225 255.268 154.852 254.734 156.105C254.228 157.358 253.974 159.105 253.974 161.345ZM265.153 151.305C265.18 150.852 265.42 150.545 265.873 150.385C266.273 150.305 266.726 150.265 267.233 150.265C267.9 150.265 268.42 150.305 268.793 150.385C269.22 150.518 269.433 150.785 269.433 151.185C269.433 151.212 269.433 151.252 269.433 151.305C269.3 151.918 269.22 152.372 269.193 152.665C269.193 152.905 269.22 153.065 269.273 153.145C269.326 153.225 269.38 153.265 269.433 153.265C269.486 153.265 269.553 153.252 269.633 153.225C269.713 153.172 269.793 153.025 269.873 152.785C270.78 151.025 271.966 150.145 273.433 150.145C274.9 150.145 276.046 151.065 276.873 152.905C277.7 154.718 278.113 157.452 278.113 161.105C278.113 164.678 277.606 167.452 276.593 169.425C275.58 171.398 274.326 172.385 272.833 172.385C271.1 172.385 269.846 171.305 269.073 169.145C269.02 168.905 268.953 168.772 268.873 168.745C268.82 168.692 268.766 168.665 268.713 168.665C268.66 168.665 268.593 168.718 268.513 168.825C268.433 168.905 268.393 169.065 268.393 169.305C268.366 170.025 268.353 170.772 268.353 171.545C268.353 174.372 268.513 177.358 268.833 180.505C268.833 180.532 268.833 180.558 268.833 180.585C268.833 180.985 268.593 181.238 268.113 181.345C267.633 181.425 267.1 181.465 266.513 181.465C266.06 181.465 265.606 181.425 265.153 181.345C264.753 181.265 264.553 180.998 264.553 180.545C264.553 169.878 264.753 160.132 265.153 151.305ZM269.433 166.265C269.94 167.518 270.633 168.145 271.513 168.145C272.366 168.145 273.046 167.532 273.553 166.305C274.06 165.052 274.313 163.345 274.313 161.185C274.313 158.972 274.06 157.252 273.553 156.025C273.073 154.798 272.393 154.185 271.513 154.185C270.66 154.185 269.966 154.812 269.433 156.065C268.9 157.292 268.633 158.998 268.633 161.185C268.633 163.345 268.9 165.038 269.433 166.265Z" fill="#FBF2E6"/>
<path d="M118.954 203.326C120.986 201.15 124.437 201.15 126.469 203.326C127.677 204.62 129.466 205.202 131.203 204.865C134.127 204.298 136.918 206.326 137.283 209.281C137.499 211.038 138.605 212.56 140.209 213.309C142.907 214.569 143.973 217.851 142.531 220.456C141.674 222.004 141.674 223.885 142.531 225.434C143.973 228.039 142.907 231.321 140.209 232.581C138.605 233.33 137.499 234.852 137.283 236.608C136.918 239.564 134.127 241.592 131.203 241.025C129.466 240.688 127.677 241.27 126.469 242.564C124.437 244.74 120.986 244.74 118.954 242.564C117.746 241.27 115.957 240.688 114.219 241.025C111.296 241.592 108.505 239.564 108.14 236.608C107.923 234.852 106.818 233.33 105.214 232.581C102.516 231.321 101.45 228.039 102.892 225.434C103.749 223.885 103.749 222.004 102.892 220.456C101.45 217.851 102.516 214.569 105.214 213.309C106.818 212.56 107.923 211.038 108.14 209.281C108.505 206.326 111.296 204.298 114.219 204.865C115.957 205.202 117.746 204.62 118.954 203.326Z" fill="#5481BF"/>
<path d="M163.176 196.499C164.082 194.579 165.269 193.619 166.736 193.619C168.416 193.619 169.709 194.699 170.616 196.859C170.696 197.099 170.762 197.246 170.816 197.299C170.896 197.353 170.949 197.379 170.976 197.379C171.029 197.379 171.082 197.339 171.136 197.259C171.189 197.153 171.216 196.966 171.216 196.699C171.162 195.899 171.096 195.219 171.016 194.659C171.016 194.606 171.016 194.553 171.016 194.499C171.016 194.206 171.229 193.993 171.656 193.859C171.976 193.779 172.429 193.739 173.016 193.739C173.576 193.739 173.989 193.779 174.256 193.859C174.709 194.019 174.949 194.286 174.976 194.659C175.269 198.019 175.416 204.646 175.416 214.539C175.416 221.553 172.936 225.059 167.976 225.059C165.922 225.059 164.242 224.806 162.936 224.299C162.456 224.059 162.216 223.673 162.216 223.139C162.216 223.113 162.216 223.086 162.216 223.059C162.269 222.686 162.336 222.033 162.416 221.099C162.496 220.193 162.549 219.553 162.576 219.179C162.629 218.726 162.736 218.486 162.896 218.459C163.056 218.459 163.136 218.459 163.136 218.459C163.402 218.459 163.629 218.646 163.816 219.019C164.616 219.979 165.816 220.459 167.416 220.459C168.642 220.459 169.589 219.939 170.256 218.899C170.949 217.859 171.296 216.353 171.296 214.379V213.339C171.296 212.886 171.242 212.659 171.136 212.659C171.029 212.633 170.976 212.619 170.976 212.619C170.789 212.619 170.629 212.819 170.496 213.219C169.776 215.086 168.522 216.019 166.736 216.019C165.242 216.019 164.042 215.073 163.136 213.179C162.229 211.286 161.776 208.513 161.776 204.859C161.776 201.233 162.242 198.446 163.176 196.499ZM165.616 204.819C165.616 207.006 165.869 208.726 166.376 209.979C166.882 211.233 167.576 211.859 168.456 211.859C169.309 211.859 169.989 211.233 170.496 209.979C171.029 208.699 171.296 206.979 171.296 204.819C171.296 202.633 171.042 200.926 170.536 199.699C170.029 198.473 169.336 197.846 168.456 197.819C167.549 197.819 166.842 198.433 166.336 199.659C165.856 200.886 165.616 202.606 165.616 204.819ZM178.615 196.419C179.815 194.553 181.348 193.619 183.215 193.619C184.975 193.619 186.361 194.246 187.375 195.499C188.388 196.753 188.895 198.633 188.895 201.139C188.895 202.979 188.441 204.566 187.535 205.899C186.655 207.206 185.588 207.859 184.335 207.859C182.948 207.859 181.868 207.499 181.095 206.779C180.935 206.619 180.788 206.539 180.655 206.539C180.601 206.539 180.535 206.566 180.455 206.619C180.401 206.646 180.375 206.726 180.375 206.859C180.375 206.966 180.401 207.086 180.455 207.219C180.695 208.553 181.201 209.633 181.975 210.459C182.775 211.286 183.628 211.699 184.535 211.699C185.068 211.699 185.628 211.526 186.215 211.179C186.801 210.806 187.255 210.353 187.575 209.819C187.735 209.499 187.935 209.339 188.175 209.339C188.201 209.339 188.281 209.353 188.415 209.379C188.575 209.406 188.668 209.659 188.695 210.139L188.815 213.419C188.815 213.713 188.721 213.979 188.535 214.219C187.601 215.313 186.095 215.859 184.015 215.859C181.828 215.859 180.068 214.873 178.735 212.899C177.428 210.899 176.775 208.059 176.775 204.379C176.775 200.966 177.388 198.313 178.615 196.419ZM181.295 204.459C181.855 204.939 182.468 205.179 183.135 205.179C183.801 205.179 184.348 204.833 184.775 204.139C185.201 203.419 185.415 202.499 185.415 201.379C185.415 198.846 184.668 197.579 183.175 197.579C182.428 197.579 181.775 198.033 181.215 198.939C180.681 199.819 180.415 201.019 180.415 202.539C180.415 203.339 180.708 203.979 181.295 204.459ZM190.413 214.659V207.099C190.413 206.539 190.413 205.633 190.413 204.379C190.44 203.099 190.453 202.193 190.453 201.659C190.48 201.126 190.507 200.406 190.533 199.499C190.56 198.566 190.6 197.739 190.653 197.019C190.707 196.299 190.773 195.526 190.853 194.699C190.933 194.219 191.147 193.939 191.493 193.859C191.893 193.779 192.333 193.739 192.813 193.739C193.267 193.739 193.76 193.779 194.293 193.859C194.747 193.939 194.973 194.153 194.973 194.499C194.973 194.579 194.96 194.659 194.933 194.739C194.693 195.433 194.573 196.073 194.573 196.659C194.573 196.953 194.6 197.139 194.653 197.219C194.707 197.299 194.76 197.339 194.813 197.339C194.84 197.339 194.893 197.313 194.973 197.259C195.053 197.206 195.133 197.046 195.213 196.779C196.173 194.646 197.427 193.579 198.973 193.579C200.413 193.579 201.587 194.539 202.493 196.459C203.4 198.353 203.88 201.073 203.933 204.619C204.013 208.299 204.053 211.646 204.053 214.659C204.053 215.166 203.813 215.486 203.333 215.619C202.96 215.699 202.507 215.739 201.973 215.739C201.333 215.739 200.813 215.699 200.413 215.619C199.933 215.459 199.693 215.179 199.693 214.779C199.693 214.753 199.693 214.726 199.693 214.699C199.933 211.739 200.053 208.539 200.053 205.099C200 200.486 199.067 198.179 197.253 198.179C196.373 198.179 195.68 198.779 195.173 199.979C194.693 201.153 194.453 202.766 194.453 204.819C194.453 204.926 194.453 205.033 194.453 205.139C194.533 209.726 194.653 212.913 194.813 214.699C194.813 214.726 194.813 214.753 194.813 214.779C194.813 215.233 194.573 215.513 194.093 215.619C193.747 215.699 193.227 215.739 192.533 215.739C191.947 215.739 191.453 215.699 191.053 215.619C190.627 215.513 190.413 215.219 190.413 214.739C190.413 214.713 190.413 214.686 190.413 214.659ZM207.169 196.419C208.369 194.553 209.903 193.619 211.769 193.619C213.529 193.619 214.916 194.246 215.929 195.499C216.943 196.753 217.449 198.633 217.449 201.139C217.449 202.979 216.996 204.566 216.089 205.899C215.209 207.206 214.143 207.859 212.889 207.859C211.503 207.859 210.423 207.499 209.649 206.779C209.489 206.619 209.343 206.539 209.209 206.539C209.156 206.539 209.089 206.566 209.009 206.619C208.956 206.646 208.929 206.726 208.929 206.859C208.929 206.966 208.956 207.086 209.009 207.219C209.249 208.553 209.756 209.633 210.529 210.459C211.329 211.286 212.183 211.699 213.089 211.699C213.623 211.699 214.183 211.526 214.769 211.179C215.356 210.806 215.809 210.353 216.129 209.819C216.289 209.499 216.489 209.339 216.729 209.339C216.756 209.339 216.836 209.353 216.969 209.379C217.129 209.406 217.223 209.659 217.249 210.139L217.369 213.419C217.369 213.713 217.276 213.979 217.089 214.219C216.156 215.313 214.649 215.859 212.569 215.859C210.383 215.859 208.623 214.873 207.289 212.899C205.983 210.899 205.329 208.059 205.329 204.379C205.329 200.966 205.943 198.313 207.169 196.419ZM209.849 204.459C210.409 204.939 211.023 205.179 211.689 205.179C212.356 205.179 212.903 204.833 213.329 204.139C213.756 203.419 213.969 202.499 213.969 201.379C213.969 198.846 213.223 197.579 211.729 197.579C210.983 197.579 210.329 198.033 209.769 198.939C209.236 199.819 208.969 201.019 208.969 202.539C208.969 203.339 209.263 203.979 209.849 204.459ZM219.328 194.659C219.355 194.206 219.568 193.939 219.968 193.859C220.421 193.779 220.875 193.739 221.328 193.739C221.888 193.739 222.328 193.779 222.648 193.859C223.128 193.966 223.368 194.166 223.368 194.459C223.368 194.539 223.355 194.606 223.328 194.659C223.141 195.566 223.048 196.353 223.048 197.019C223.048 197.259 223.075 197.419 223.128 197.499C223.208 197.579 223.275 197.619 223.328 197.619C223.355 197.619 223.408 197.593 223.488 197.539C223.568 197.486 223.635 197.339 223.688 197.099C223.981 195.926 224.475 195.059 225.168 194.499C225.888 193.913 226.675 193.619 227.528 193.619C228.301 193.619 228.901 193.739 229.328 193.979C229.648 194.139 229.808 194.406 229.808 194.779V199.419C229.808 199.899 229.728 200.166 229.568 200.219C229.408 200.273 229.301 200.299 229.248 200.299C229.061 200.299 228.875 200.153 228.688 199.859C228.128 199.193 227.328 198.859 226.288 198.859C225.301 198.859 224.501 199.353 223.888 200.339C223.275 201.326 222.968 202.873 222.968 204.979C222.968 206.393 223.035 208.313 223.168 210.739C223.328 213.166 223.408 214.486 223.408 214.699C223.408 214.726 223.408 214.753 223.408 214.779C223.408 215.286 223.181 215.566 222.728 215.619C222.381 215.699 221.821 215.739 221.048 215.739C220.515 215.739 220.021 215.699 219.568 215.619C219.141 215.513 218.928 215.206 218.928 214.699C218.955 206.246 219.088 199.566 219.328 194.659ZM229.665 209.659C229.665 205.979 231.252 203.579 234.425 202.459C235.785 202.006 236.772 201.579 237.385 201.179C237.999 200.779 238.305 200.246 238.305 199.579C238.305 199.073 238.105 198.646 237.705 198.299C237.332 197.953 236.745 197.779 235.945 197.779C234.452 197.779 233.252 198.406 232.345 199.659C232.159 200.086 231.932 200.299 231.665 200.299C231.612 200.299 231.479 200.273 231.265 200.219C231.079 200.139 230.985 199.819 230.985 199.259C230.985 199.233 230.985 199.193 230.985 199.139C231.065 197.699 231.172 196.473 231.305 195.459C231.359 194.926 231.572 194.566 231.945 194.379C233.065 193.873 234.372 193.619 235.865 193.619C237.812 193.619 239.279 194.219 240.265 195.419C241.279 196.593 241.879 198.459 242.065 201.019C242.119 201.793 242.305 206.326 242.625 214.619C242.625 215.099 242.332 215.433 241.745 215.619C241.345 215.699 240.905 215.739 240.425 215.739C239.839 215.739 239.345 215.699 238.945 215.619C238.359 215.459 238.065 215.139 238.065 214.659C238.065 214.606 238.065 214.553 238.065 214.499C238.225 213.326 238.319 212.473 238.345 211.939C238.345 211.913 238.345 211.873 238.345 211.819C238.345 211.579 238.265 211.459 238.105 211.459C237.945 211.459 237.825 211.606 237.745 211.899C237.372 213.206 236.812 214.193 236.065 214.859C235.345 215.526 234.559 215.859 233.705 215.859C231.012 215.859 229.665 213.793 229.665 209.659ZM234.105 210.579C234.399 211.033 234.865 211.259 235.505 211.259C236.119 211.259 236.732 210.846 237.345 210.019C237.959 209.166 238.265 207.953 238.265 206.379C238.265 204.646 237.772 203.779 236.785 203.779C236.012 203.779 235.292 204.206 234.625 205.059C233.985 205.913 233.665 207.006 233.665 208.339C233.665 209.406 233.812 210.153 234.105 210.579ZM244.643 187.619C244.723 187.166 245.003 186.899 245.483 186.819C245.883 186.739 246.35 186.699 246.883 186.699C247.497 186.699 248.003 186.739 248.403 186.819C248.857 186.899 249.083 187.153 249.083 187.579C249.083 187.633 249.083 187.686 249.083 187.739C248.63 193.499 248.403 199.313 248.403 205.179C248.403 208.353 248.47 211.526 248.603 214.699C248.603 215.179 248.377 215.486 247.923 215.619C247.523 215.699 247.017 215.739 246.403 215.739C245.79 215.739 245.283 215.699 244.883 215.619C244.43 215.486 244.203 215.179 244.203 214.699C244.203 213.153 244.203 211.646 244.203 210.179C244.203 200.686 244.35 193.166 244.643 187.619ZM162.336 230.659C162.362 230.233 162.576 229.966 162.976 229.859C163.376 229.779 163.816 229.739 164.296 229.739C164.856 229.739 165.309 229.779 165.656 229.859C166.082 229.993 166.296 230.219 166.296 230.539C166.296 230.593 166.296 230.633 166.296 230.659C166.082 231.779 165.976 232.459 165.976 232.699C165.976 232.993 166.002 233.193 166.056 233.299C166.109 233.379 166.162 233.419 166.216 233.419C166.242 233.419 166.296 233.393 166.376 233.339C166.456 233.286 166.536 233.126 166.616 232.859C166.936 231.819 167.402 231.019 168.016 230.459C168.656 229.899 169.336 229.619 170.056 229.619C170.722 229.619 171.336 229.873 171.896 230.379C172.482 230.859 172.909 231.526 173.176 232.379C173.282 232.806 173.389 233.073 173.496 233.179C173.602 233.286 173.682 233.339 173.736 233.339C173.789 233.339 173.869 233.286 173.976 233.179C174.082 233.073 174.189 232.819 174.296 232.419C174.589 231.566 175.056 230.886 175.696 230.379C176.336 229.873 177.042 229.619 177.816 229.619C179.149 229.619 180.269 230.513 181.176 232.299C182.082 234.059 182.549 236.659 182.576 240.099C182.682 244.899 182.736 248.419 182.736 250.659C182.736 251.219 182.509 251.539 182.056 251.619C181.602 251.699 181.162 251.739 180.736 251.739C180.042 251.739 179.522 251.699 179.176 251.619C178.722 251.513 178.496 251.233 178.496 250.779C178.496 250.753 178.496 250.726 178.496 250.699C178.656 247.659 178.736 244.393 178.736 240.899C178.736 236.526 178.002 234.339 176.536 234.339C175.869 234.339 175.322 234.913 174.896 236.059C174.496 237.206 174.296 238.846 174.296 240.979C174.296 245.299 174.376 248.526 174.536 250.659C174.536 250.686 174.536 250.713 174.536 250.739C174.536 251.219 174.296 251.513 173.816 251.619C173.336 251.699 172.882 251.739 172.456 251.739C171.709 251.739 171.176 251.699 170.856 251.619C170.402 251.513 170.176 251.233 170.176 250.779C170.176 250.753 170.176 250.726 170.176 250.699C170.336 248.113 170.416 244.846 170.416 240.899C170.362 236.526 169.616 234.339 168.176 234.339C167.482 234.339 166.936 234.913 166.536 236.059C166.136 237.206 165.936 238.859 165.936 241.019C165.909 242.113 165.896 243.153 165.896 244.139C165.896 246.619 165.949 248.806 166.056 250.699C166.056 250.726 166.056 250.753 166.056 250.779C166.056 251.233 165.829 251.513 165.376 251.619C164.949 251.699 164.482 251.739 163.976 251.739C163.336 251.739 162.869 251.699 162.576 251.619C162.122 251.513 161.896 251.193 161.896 250.659C161.922 242.899 162.069 236.233 162.336 230.659ZM185.88 232.419C187.08 230.553 188.614 229.619 190.48 229.619C192.24 229.619 193.627 230.246 194.64 231.499C195.654 232.753 196.16 234.633 196.16 237.139C196.16 238.979 195.707 240.566 194.8 241.899C193.92 243.206 192.854 243.859 191.6 243.859C190.214 243.859 189.134 243.499 188.36 242.779C188.2 242.619 188.054 242.539 187.92 242.539C187.867 242.539 187.8 242.566 187.72 242.619C187.667 242.646 187.64 242.726 187.64 242.859C187.64 242.966 187.667 243.086 187.72 243.219C187.96 244.553 188.467 245.633 189.24 246.459C190.04 247.286 190.894 247.699 191.8 247.699C192.334 247.699 192.894 247.526 193.48 247.179C194.067 246.806 194.52 246.353 194.84 245.819C195 245.499 195.2 245.339 195.44 245.339C195.467 245.339 195.547 245.353 195.68 245.379C195.84 245.406 195.934 245.659 195.96 246.139L196.08 249.419C196.08 249.713 195.987 249.979 195.8 250.219C194.867 251.313 193.36 251.859 191.28 251.859C189.094 251.859 187.334 250.873 186 248.899C184.694 246.899 184.04 244.059 184.04 240.379C184.04 236.966 184.654 234.313 185.88 232.419ZM188.56 240.459C189.12 240.939 189.734 241.179 190.4 241.179C191.067 241.179 191.614 240.833 192.04 240.139C192.467 239.419 192.68 238.499 192.68 237.379C192.68 234.846 191.934 233.579 190.44 233.579C189.694 233.579 189.04 234.033 188.48 234.939C187.947 235.819 187.68 237.019 187.68 238.539C187.68 239.339 187.974 239.979 188.56 240.459ZM199.279 232.419C200.479 230.553 202.012 229.619 203.879 229.619C205.639 229.619 207.026 230.246 208.039 231.499C209.052 232.753 209.559 234.633 209.559 237.139C209.559 238.979 209.106 240.566 208.199 241.899C207.319 243.206 206.252 243.859 204.999 243.859C203.612 243.859 202.532 243.499 201.759 242.779C201.599 242.619 201.452 242.539 201.319 242.539C201.266 242.539 201.199 242.566 201.119 242.619C201.066 242.646 201.039 242.726 201.039 242.859C201.039 242.966 201.066 243.086 201.119 243.219C201.359 244.553 201.866 245.633 202.639 246.459C203.439 247.286 204.292 247.699 205.199 247.699C205.732 247.699 206.292 247.526 206.879 247.179C207.466 246.806 207.919 246.353 208.239 245.819C208.399 245.499 208.599 245.339 208.839 245.339C208.866 245.339 208.946 245.353 209.079 245.379C209.239 245.406 209.332 245.659 209.359 246.139L209.479 249.419C209.479 249.713 209.386 249.979 209.199 250.219C208.266 251.313 206.759 251.859 204.679 251.859C202.492 251.859 200.732 250.873 199.399 248.899C198.092 246.899 197.439 244.059 197.439 240.379C197.439 236.966 198.052 234.313 199.279 232.419ZM201.959 240.459C202.519 240.939 203.132 241.179 203.799 241.179C204.466 241.179 205.012 240.833 205.439 240.139C205.866 239.419 206.079 238.499 206.079 237.379C206.079 234.846 205.332 233.579 203.839 233.579C203.092 233.579 202.439 234.033 201.879 234.939C201.346 235.819 201.079 237.019 201.079 238.539C201.079 239.339 201.372 239.979 201.959 240.459ZM210.169 230.739C210.169 230.153 210.462 229.859 211.049 229.859H212.409C212.782 229.859 212.969 229.659 212.969 229.259C212.969 227.606 212.995 226.459 213.049 225.819C213.129 225.259 213.369 224.939 213.769 224.859C214.249 224.779 214.675 224.739 215.049 224.739C215.475 224.739 215.889 224.779 216.289 224.859C216.769 224.966 217.009 225.259 217.009 225.739C217.009 225.766 217.009 225.793 217.009 225.819C216.849 227.819 216.769 228.939 216.769 229.179C216.769 229.633 216.942 229.859 217.289 229.859C218.115 229.859 219.142 229.833 220.369 229.779C220.395 229.779 220.422 229.779 220.449 229.779C220.662 229.779 220.849 229.859 221.009 230.019C221.169 230.179 221.249 230.393 221.249 230.659V232.139C221.249 232.379 221.169 232.593 221.009 232.779C220.849 232.939 220.662 233.019 220.449 233.019C220.422 233.019 220.395 233.019 220.369 233.019C219.675 232.913 219.009 232.859 218.369 232.859C218.129 232.859 217.889 232.873 217.649 232.899C217.302 232.926 217.062 233.019 216.929 233.179C216.795 233.339 216.702 233.633 216.649 234.059C216.542 236.033 216.489 238.259 216.489 240.739C216.489 242.153 216.502 243.646 216.529 245.219C216.609 246.739 217.155 247.499 218.169 247.499C218.489 247.499 218.862 247.406 219.289 247.219C219.742 247.033 220.062 246.819 220.249 246.579C220.462 246.233 220.702 246.059 220.969 246.059C221.022 246.059 221.142 246.099 221.329 246.179C221.542 246.233 221.649 246.513 221.649 247.019C221.649 247.046 221.649 247.086 221.649 247.139L221.529 249.939C221.502 250.499 221.302 250.899 220.929 251.139C220.129 251.619 218.995 251.859 217.529 251.859C216.009 251.859 214.809 251.286 213.929 250.139C213.075 248.993 212.649 247.326 212.649 245.139C212.649 240.019 212.755 236.113 212.969 233.419C212.969 233.393 212.969 233.366 212.969 233.339C212.969 233.206 212.915 233.099 212.809 233.019C212.702 232.913 212.582 232.859 212.449 232.859C211.782 232.859 211.302 232.873 211.009 232.899C210.982 232.899 210.955 232.899 210.929 232.899C210.715 232.899 210.529 232.819 210.369 232.659C210.235 232.499 210.169 232.299 210.169 232.059V230.739ZM222.914 250.659C222.914 241.753 223.034 235.086 223.274 230.659C223.301 230.233 223.501 229.966 223.874 229.859C224.221 229.779 224.621 229.739 225.074 229.739C225.448 229.739 225.808 229.779 226.154 229.859C226.528 229.966 226.728 230.233 226.754 230.659C226.994 235.113 227.114 241.793 227.114 250.699C227.114 251.206 226.901 251.513 226.474 251.619C226.021 251.699 225.541 251.739 225.034 251.739C224.341 251.739 223.848 251.699 223.554 251.619C223.128 251.513 222.914 251.193 222.914 250.659ZM223.474 223.019C223.874 222.513 224.381 222.259 224.994 222.259C225.634 222.259 226.168 222.513 226.594 223.019C227.021 223.526 227.234 224.153 227.234 224.899C227.234 225.619 227.021 226.233 226.594 226.739C226.168 227.246 225.634 227.499 224.994 227.499C224.381 227.499 223.861 227.246 223.434 226.739C223.034 226.233 222.834 225.619 222.834 224.899C222.834 224.153 223.048 223.526 223.474 223.019ZM228.89 250.659V243.099C228.89 242.539 228.89 241.633 228.89 240.379C228.916 239.099 228.93 238.193 228.93 237.659C228.956 237.126 228.983 236.406 229.01 235.499C229.036 234.566 229.076 233.739 229.13 233.019C229.183 232.299 229.25 231.526 229.33 230.699C229.41 230.219 229.623 229.939 229.97 229.859C230.37 229.779 230.81 229.739 231.29 229.739C231.743 229.739 232.236 229.779 232.77 229.859C233.223 229.939 233.45 230.153 233.45 230.499C233.45 230.579 233.436 230.659 233.41 230.739C233.17 231.433 233.05 232.073 233.05 232.659C233.05 232.953 233.076 233.139 233.13 233.219C233.183 233.299 233.236 233.339 233.29 233.339C233.316 233.339 233.37 233.313 233.45 233.259C233.53 233.206 233.61 233.046 233.69 232.779C234.65 230.646 235.903 229.579 237.45 229.579C238.89 229.579 240.063 230.539 240.97 232.459C241.876 234.353 242.356 237.073 242.41 240.619C242.49 244.299 242.53 247.646 242.53 250.659C242.53 251.166 242.29 251.486 241.81 251.619C241.436 251.699 240.983 251.739 240.45 251.739C239.81 251.739 239.29 251.699 238.89 251.619C238.41 251.459 238.17 251.179 238.17 250.779C238.17 250.753 238.17 250.726 238.17 250.699C238.41 247.739 238.53 244.539 238.53 241.099C238.476 236.486 237.543 234.179 235.73 234.179C234.85 234.179 234.156 234.779 233.65 235.979C233.17 237.153 232.93 238.766 232.93 240.819C232.93 240.926 232.93 241.033 232.93 241.139C233.01 245.726 233.13 248.913 233.29 250.699C233.29 250.726 233.29 250.753 233.29 250.779C233.29 251.233 233.05 251.513 232.57 251.619C232.223 251.699 231.703 251.739 231.01 251.739C230.423 251.739 229.93 251.699 229.53 251.619C229.103 251.513 228.89 251.219 228.89 250.739C228.89 250.713 228.89 250.686 228.89 250.659ZM245.246 232.499C246.153 230.579 247.339 229.619 248.806 229.619C250.486 229.619 251.779 230.699 252.686 232.859C252.766 233.099 252.833 233.246 252.886 233.299C252.966 233.353 253.019 233.379 253.046 233.379C253.099 233.379 253.153 233.339 253.206 233.259C253.259 233.153 253.286 232.966 253.286 232.699C253.233 231.899 253.166 231.219 253.086 230.659C253.086 230.606 253.086 230.553 253.086 230.499C253.086 230.206 253.299 229.993 253.726 229.859C254.046 229.779 254.499 229.739 255.086 229.739C255.646 229.739 256.059 229.779 256.326 229.859C256.779 230.019 257.019 230.286 257.046 230.659C257.339 234.019 257.486 240.646 257.486 250.539C257.486 257.553 255.006 261.059 250.046 261.059C247.993 261.059 246.313 260.806 245.006 260.299C244.526 260.059 244.286 259.673 244.286 259.139C244.286 259.113 244.286 259.086 244.286 259.059C244.339 258.686 244.406 258.033 244.486 257.099C244.566 256.193 244.619 255.553 244.646 255.179C244.699 254.726 244.806 254.486 244.966 254.459C245.126 254.459 245.206 254.459 245.206 254.459C245.473 254.459 245.699 254.646 245.886 255.019C246.686 255.979 247.886 256.459 249.486 256.459C250.713 256.459 251.659 255.939 252.326 254.899C253.019 253.859 253.366 252.353 253.366 250.379V249.339C253.366 248.886 253.313 248.659 253.206 248.659C253.099 248.633 253.046 248.619 253.046 248.619C252.859 248.619 252.699 248.819 252.566 249.219C251.846 251.086 250.593 252.019 248.806 252.019C247.313 252.019 246.113 251.073 245.206 249.179C244.299 247.286 243.846 244.513 243.846 240.859C243.846 237.233 244.313 234.446 245.246 232.499ZM247.686 240.819C247.686 243.006 247.939 244.726 248.446 245.979C248.953 247.233 249.646 247.859 250.526 247.859C251.379 247.859 252.059 247.233 252.566 245.979C253.099 244.699 253.366 242.979 253.366 240.819C253.366 238.633 253.113 236.926 252.606 235.699C252.099 234.473 251.406 233.846 250.526 233.819C249.619 233.819 248.913 234.433 248.406 235.659C247.926 236.886 247.686 238.606 247.686 240.819Z" fill="#FBF2E6"/>
<path d="M118.954 265.697C120.986 263.521 124.436 263.521 126.468 265.697C127.676 266.991 129.465 267.572 131.203 267.236C134.126 266.669 136.917 268.697 137.282 271.652C137.499 273.409 138.604 274.931 140.208 275.68C142.906 276.94 143.972 280.221 142.53 282.827C141.673 284.375 141.673 286.256 142.53 287.805C143.972 290.41 142.906 293.692 140.208 294.952C138.604 295.701 137.499 297.222 137.282 298.979C136.917 301.934 134.126 303.963 131.203 303.396C129.465 303.059 127.676 303.641 126.468 304.935C124.436 307.111 120.986 307.111 118.954 304.935C117.746 303.641 115.957 303.059 114.219 303.396C111.296 303.963 108.504 301.934 108.14 298.979C107.923 297.222 106.817 295.701 105.213 294.952C102.516 293.692 101.449 290.41 102.891 287.805C103.749 286.256 103.749 284.375 102.891 282.827C101.449 280.221 102.516 276.94 105.213 275.68C106.817 274.931 107.923 273.409 108.14 271.652C108.504 268.697 111.296 266.669 114.219 267.236C115.957 267.572 117.746 266.991 118.954 265.697Z" fill="#5BAD9A"/>
<path d="M161.736 293.381L161.936 289.741C161.962 289.234 162.056 288.968 162.216 288.941C162.402 288.914 162.522 288.901 162.576 288.901C162.842 288.901 163.029 289.061 163.136 289.381C163.509 290.048 164.042 290.568 164.736 290.941C165.456 291.288 166.189 291.461 166.936 291.461C167.709 291.461 168.309 291.261 168.736 290.861C169.162 290.434 169.376 289.861 169.376 289.141C169.376 288.368 168.989 287.621 168.216 286.901C167.469 286.154 166.642 285.514 165.736 284.981C164.856 284.421 164.029 283.634 163.256 282.621C162.509 281.581 162.136 280.394 162.136 279.061C162.136 277.274 162.669 275.888 163.736 274.901C164.802 273.888 166.216 273.381 167.976 273.381C169.309 273.381 170.402 273.554 171.256 273.901C171.896 274.194 172.216 274.634 172.216 275.221V278.381C172.216 278.941 172.136 279.234 171.976 279.261C171.816 279.288 171.709 279.301 171.656 279.301C171.416 279.301 171.229 279.154 171.096 278.861C170.456 277.901 169.522 277.421 168.296 277.421C167.602 277.421 167.029 277.634 166.576 278.061C166.122 278.461 165.896 278.968 165.896 279.581C165.896 280.141 166.136 280.688 166.616 281.221C167.122 281.754 167.722 282.274 168.416 282.781C169.136 283.261 169.842 283.794 170.536 284.381C171.256 284.941 171.856 285.674 172.336 286.581C172.842 287.488 173.096 288.488 173.096 289.581C173.096 291.448 172.562 292.928 171.496 294.021C170.456 295.088 169.056 295.621 167.296 295.621C165.642 295.621 164.069 295.328 162.576 294.741C162.016 294.448 161.736 294.021 161.736 293.461C161.736 293.434 161.736 293.408 161.736 293.381ZM175.114 274.541C175.141 274.088 175.381 273.781 175.834 273.621C176.234 273.541 176.687 273.501 177.194 273.501C177.861 273.501 178.381 273.541 178.754 273.621C179.181 273.754 179.394 274.021 179.394 274.421C179.394 274.448 179.394 274.488 179.394 274.541C179.261 275.154 179.181 275.608 179.154 275.901C179.154 276.141 179.181 276.301 179.234 276.381C179.287 276.461 179.341 276.501 179.394 276.501C179.447 276.501 179.514 276.488 179.594 276.461C179.674 276.408 179.754 276.261 179.834 276.021C180.741 274.261 181.927 273.381 183.394 273.381C184.861 273.381 186.007 274.301 186.834 276.141C187.661 277.954 188.074 280.688 188.074 284.341C188.074 287.914 187.567 290.688 186.554 292.661C185.541 294.634 184.287 295.621 182.794 295.621C181.061 295.621 179.807 294.541 179.034 292.381C178.981 292.141 178.914 292.008 178.834 291.981C178.781 291.928 178.727 291.901 178.674 291.901C178.621 291.901 178.554 291.954 178.474 292.061C178.394 292.141 178.354 292.301 178.354 292.541C178.327 293.261 178.314 294.008 178.314 294.781C178.314 297.608 178.474 300.594 178.794 303.741C178.794 303.768 178.794 303.794 178.794 303.821C178.794 304.221 178.554 304.474 178.074 304.581C177.594 304.661 177.061 304.701 176.474 304.701C176.021 304.701 175.567 304.661 175.114 304.581C174.714 304.501 174.514 304.234 174.514 303.781C174.514 293.114 174.714 283.368 175.114 274.541ZM179.394 289.501C179.901 290.754 180.594 291.381 181.474 291.381C182.327 291.381 183.007 290.768 183.514 289.541C184.021 288.288 184.274 286.581 184.274 284.421C184.274 282.208 184.021 280.488 183.514 279.261C183.034 278.034 182.354 277.421 181.474 277.421C180.621 277.421 179.927 278.048 179.394 279.301C178.861 280.528 178.594 282.234 178.594 284.421C178.594 286.581 178.861 288.274 179.394 289.501ZM191.115 276.181C192.315 274.314 193.848 273.381 195.715 273.381C197.475 273.381 198.861 274.008 199.875 275.261C200.888 276.514 201.395 278.394 201.395 280.901C201.395 282.741 200.941 284.328 200.035 285.661C199.155 286.968 198.088 287.621 196.835 287.621C195.448 287.621 194.368 287.261 193.595 286.541C193.435 286.381 193.288 286.301 193.155 286.301C193.101 286.301 193.035 286.328 192.955 286.381C192.901 286.408 192.875 286.488 192.875 286.621C192.875 286.728 192.901 286.848 192.955 286.981C193.195 288.314 193.701 289.394 194.475 290.221C195.275 291.048 196.128 291.461 197.035 291.461C197.568 291.461 198.128 291.288 198.715 290.941C199.301 290.568 199.755 290.114 200.075 289.581C200.235 289.261 200.435 289.101 200.675 289.101C200.701 289.101 200.781 289.114 200.915 289.141C201.075 289.168 201.168 289.421 201.195 289.901L201.315 293.181C201.315 293.474 201.221 293.741 201.035 293.981C200.101 295.074 198.595 295.621 196.515 295.621C194.328 295.621 192.568 294.634 191.235 292.661C189.928 290.661 189.275 287.821 189.275 284.141C189.275 280.728 189.888 278.074 191.115 276.181ZM193.795 284.221C194.355 284.701 194.968 284.941 195.635 284.941C196.301 284.941 196.848 284.594 197.275 283.901C197.701 283.181 197.915 282.261 197.915 281.141C197.915 278.608 197.168 277.341 195.675 277.341C194.928 277.341 194.275 277.794 193.715 278.701C193.181 279.581 192.915 280.781 192.915 282.301C192.915 283.101 193.208 283.741 193.795 284.221ZM204.513 276.381C205.74 274.381 207.367 273.381 209.393 273.381C210.807 273.381 211.887 273.581 212.633 273.981C213.113 274.328 213.353 274.688 213.353 275.061C213.353 275.061 213.353 275.074 213.353 275.101C213.353 275.874 213.327 277.088 213.273 278.741C213.273 279.034 213.207 279.248 213.073 279.381C212.94 279.488 212.82 279.541 212.713 279.541C212.633 279.541 212.527 279.514 212.393 279.461C212.287 279.408 212.167 279.234 212.033 278.941C211.793 278.594 211.447 278.301 210.993 278.061C210.567 277.821 210.153 277.701 209.753 277.701C208.793 277.701 208.02 278.314 207.433 279.541C206.847 280.741 206.553 282.434 206.553 284.621C206.553 286.674 206.873 288.301 207.513 289.501C208.18 290.701 209.007 291.301 209.993 291.301C210.9 291.301 211.673 290.794 212.313 289.781C212.42 289.514 212.54 289.354 212.673 289.301C212.807 289.221 212.913 289.181 212.993 289.181C213.127 289.181 213.26 289.248 213.393 289.381C213.527 289.488 213.593 289.701 213.593 290.021C213.673 291.034 213.74 292.221 213.793 293.581C213.793 293.661 213.807 293.741 213.833 293.821C213.807 294.194 213.633 294.528 213.313 294.821C212.353 295.354 211.087 295.621 209.513 295.621C207.38 295.621 205.7 294.674 204.473 292.781C203.273 290.861 202.673 288.141 202.673 284.621C202.673 281.154 203.287 278.408 204.513 276.381ZM215.336 294.421C215.336 285.514 215.456 278.848 215.696 274.421C215.723 273.994 215.923 273.728 216.296 273.621C216.643 273.541 217.043 273.501 217.496 273.501C217.869 273.501 218.229 273.541 218.576 273.621C218.949 273.728 219.149 273.994 219.176 274.421C219.416 278.874 219.536 285.554 219.536 294.461C219.536 294.968 219.323 295.274 218.896 295.381C218.443 295.461 217.963 295.501 217.456 295.501C216.763 295.501 216.269 295.461 215.976 295.381C215.549 295.274 215.336 294.954 215.336 294.421ZM215.896 266.781C216.296 266.274 216.803 266.021 217.416 266.021C218.056 266.021 218.589 266.274 219.016 266.781C219.443 267.288 219.656 267.914 219.656 268.661C219.656 269.381 219.443 269.994 219.016 270.501C218.589 271.008 218.056 271.261 217.416 271.261C216.803 271.261 216.283 271.008 215.856 270.501C215.456 269.994 215.256 269.381 215.256 268.661C215.256 267.914 215.469 267.288 215.896 266.781ZM221.072 289.421C221.072 285.741 222.658 283.341 225.832 282.221C227.192 281.768 228.178 281.341 228.792 280.941C229.405 280.541 229.712 280.008 229.712 279.341C229.712 278.834 229.512 278.408 229.112 278.061C228.738 277.714 228.152 277.541 227.352 277.541C225.858 277.541 224.658 278.168 223.752 279.421C223.565 279.848 223.338 280.061 223.072 280.061C223.018 280.061 222.885 280.034 222.672 279.981C222.485 279.901 222.392 279.581 222.392 279.021C222.392 278.994 222.392 278.954 222.392 278.901C222.472 277.461 222.578 276.234 222.712 275.221C222.765 274.688 222.978 274.328 223.352 274.141C224.472 273.634 225.778 273.381 227.272 273.381C229.218 273.381 230.685 273.981 231.672 275.181C232.685 276.354 233.285 278.221 233.472 280.781C233.525 281.554 233.712 286.088 234.032 294.381C234.032 294.861 233.738 295.194 233.152 295.381C232.752 295.461 232.312 295.501 231.832 295.501C231.245 295.501 230.752 295.461 230.352 295.381C229.765 295.221 229.472 294.901 229.472 294.421C229.472 294.368 229.472 294.314 229.472 294.261C229.632 293.088 229.725 292.234 229.752 291.701C229.752 291.674 229.752 291.634 229.752 291.581C229.752 291.341 229.672 291.221 229.512 291.221C229.352 291.221 229.232 291.368 229.152 291.661C228.778 292.968 228.218 293.954 227.472 294.621C226.752 295.288 225.965 295.621 225.112 295.621C222.418 295.621 221.072 293.554 221.072 289.421ZM225.512 290.341C225.805 290.794 226.272 291.021 226.912 291.021C227.525 291.021 228.138 290.608 228.752 289.781C229.365 288.928 229.672 287.714 229.672 286.141C229.672 284.408 229.178 283.541 228.192 283.541C227.418 283.541 226.698 283.968 226.032 284.821C225.392 285.674 225.072 286.768 225.072 288.101C225.072 289.168 225.218 289.914 225.512 290.341ZM236.049 267.381C236.129 266.928 236.409 266.661 236.889 266.581C237.289 266.501 237.756 266.461 238.289 266.461C238.903 266.461 239.409 266.501 239.809 266.581C240.263 266.661 240.489 266.914 240.489 267.341C240.489 267.394 240.489 267.448 240.489 267.501C240.036 273.261 239.809 279.074 239.809 284.941C239.809 288.114 239.876 291.288 240.009 294.461C240.009 294.941 239.783 295.248 239.329 295.381C238.929 295.461 238.423 295.501 237.809 295.501C237.196 295.501 236.689 295.461 236.289 295.381C235.836 295.248 235.609 294.941 235.609 294.461C235.609 292.914 235.609 291.408 235.609 289.941C235.609 280.448 235.756 272.928 236.049 267.381ZM251.584 276.181C252.784 274.314 254.317 273.381 256.184 273.381C257.944 273.381 259.33 274.008 260.344 275.261C261.357 276.514 261.864 278.394 261.864 280.901C261.864 282.741 261.41 284.328 260.504 285.661C259.624 286.968 258.557 287.621 257.304 287.621C255.917 287.621 254.837 287.261 254.064 286.541C253.904 286.381 253.757 286.301 253.624 286.301C253.57 286.301 253.504 286.328 253.424 286.381C253.37 286.408 253.344 286.488 253.344 286.621C253.344 286.728 253.37 286.848 253.424 286.981C253.664 288.314 254.17 289.394 254.944 290.221C255.744 291.048 256.597 291.461 257.504 291.461C258.037 291.461 258.597 291.288 259.184 290.941C259.77 290.568 260.224 290.114 260.544 289.581C260.704 289.261 260.904 289.101 261.144 289.101C261.17 289.101 261.25 289.114 261.384 289.141C261.544 289.168 261.637 289.421 261.664 289.901L261.784 293.181C261.784 293.474 261.69 293.741 261.504 293.981C260.57 295.074 259.064 295.621 256.984 295.621C254.797 295.621 253.037 294.634 251.704 292.661C250.397 290.661 249.744 287.821 249.744 284.141C249.744 280.728 250.357 278.074 251.584 276.181ZM254.264 284.221C254.824 284.701 255.437 284.941 256.104 284.941C256.77 284.941 257.317 284.594 257.744 283.901C258.17 283.181 258.384 282.261 258.384 281.141C258.384 278.608 257.637 277.341 256.144 277.341C255.397 277.341 254.744 277.794 254.184 278.701C253.65 279.581 253.384 280.781 253.384 282.301C253.384 283.101 253.677 283.741 254.264 284.221ZM263.822 273.621C264.115 273.541 264.555 273.501 265.142 273.501C265.809 273.501 266.315 273.541 266.662 273.621C267.169 273.754 267.422 274.021 267.422 274.421C267.422 279.088 268.062 283.928 269.342 288.941C269.422 289.261 269.515 289.474 269.622 289.581C269.729 289.661 269.809 289.701 269.862 289.701C269.942 289.701 270.022 289.661 270.102 289.581C270.209 289.474 270.302 289.261 270.382 288.941C271.609 284.194 272.222 279.461 272.222 274.741C272.222 274.634 272.222 274.528 272.222 274.421C272.275 274.021 272.542 273.754 273.022 273.621C273.395 273.541 273.902 273.501 274.542 273.501C275.129 273.501 275.569 273.541 275.862 273.621C276.369 273.754 276.622 274.034 276.622 274.461C276.622 274.488 276.622 274.528 276.622 274.581C275.929 282.474 274.582 289.194 272.582 294.741C272.449 295.061 272.169 295.274 271.742 295.381C271.342 295.461 270.715 295.501 269.862 295.501C268.929 295.501 268.275 295.461 267.902 295.381C267.502 295.301 267.235 295.088 267.102 294.741C266.169 292.181 265.329 289.074 264.582 285.421C263.835 281.741 263.329 278.128 263.062 274.581C263.062 274.528 263.062 274.474 263.062 274.421C263.062 273.994 263.315 273.728 263.822 273.621ZM278.966 276.181C280.166 274.314 281.7 273.381 283.566 273.381C285.326 273.381 286.713 274.008 287.726 275.261C288.74 276.514 289.246 278.394 289.246 280.901C289.246 282.741 288.793 284.328 287.886 285.661C287.006 286.968 285.94 287.621 284.686 287.621C283.3 287.621 282.22 287.261 281.446 286.541C281.286 286.381 281.14 286.301 281.006 286.301C280.953 286.301 280.886 286.328 280.806 286.381C280.753 286.408 280.726 286.488 280.726 286.621C280.726 286.728 280.753 286.848 280.806 286.981C281.046 288.314 281.553 289.394 282.326 290.221C283.126 291.048 283.98 291.461 284.886 291.461C285.42 291.461 285.98 291.288 286.566 290.941C287.153 290.568 287.606 290.114 287.926 289.581C288.086 289.261 288.286 289.101 288.526 289.101C288.553 289.101 288.633 289.114 288.766 289.141C288.926 289.168 289.02 289.421 289.046 289.901L289.166 293.181C289.166 293.474 289.073 293.741 288.886 293.981C287.953 295.074 286.446 295.621 284.366 295.621C282.18 295.621 280.42 294.634 279.086 292.661C277.78 290.661 277.126 287.821 277.126 284.141C277.126 280.728 277.74 278.074 278.966 276.181ZM281.646 284.221C282.206 284.701 282.82 284.941 283.486 284.941C284.153 284.941 284.7 284.594 285.126 283.901C285.553 283.181 285.766 282.261 285.766 281.141C285.766 278.608 285.02 277.341 283.526 277.341C282.78 277.341 282.126 277.794 281.566 278.701C281.033 279.581 280.766 280.781 280.766 282.301C280.766 283.101 281.06 283.741 281.646 284.221ZM290.765 294.421V286.861C290.765 286.301 290.765 285.394 290.765 284.141C290.791 282.861 290.805 281.954 290.805 281.421C290.831 280.888 290.858 280.168 290.885 279.261C290.911 278.328 290.951 277.501 291.005 276.781C291.058 276.061 291.125 275.288 291.205 274.461C291.285 273.981 291.498 273.701 291.845 273.621C292.245 273.541 292.685 273.501 293.165 273.501C293.618 273.501 294.111 273.541 294.645 273.621C295.098 273.701 295.325 273.914 295.325 274.261C295.325 274.341 295.311 274.421 295.285 274.501C295.045 275.194 294.925 275.834 294.925 276.421C294.925 276.714 294.951 276.901 295.005 276.981C295.058 277.061 295.111 277.101 295.165 277.101C295.191 277.101 295.245 277.074 295.325 277.021C295.405 276.968 295.485 276.808 295.565 276.541C296.525 274.408 297.778 273.341 299.325 273.341C300.765 273.341 301.938 274.301 302.845 276.221C303.751 278.114 304.231 280.834 304.285 284.381C304.365 288.061 304.405 291.408 304.405 294.421C304.405 294.928 304.165 295.248 303.685 295.381C303.311 295.461 302.858 295.501 302.325 295.501C301.685 295.501 301.165 295.461 300.765 295.381C300.285 295.221 300.045 294.941 300.045 294.541C300.045 294.514 300.045 294.488 300.045 294.461C300.285 291.501 300.405 288.301 300.405 284.861C300.351 280.248 299.418 277.941 297.605 277.941C296.725 277.941 296.031 278.541 295.525 279.741C295.045 280.914 294.805 282.528 294.805 284.581C294.805 284.688 294.805 284.794 294.805 284.901C294.885 289.488 295.005 292.674 295.165 294.461C295.165 294.488 295.165 294.514 295.165 294.541C295.165 294.994 294.925 295.274 294.445 295.381C294.098 295.461 293.578 295.501 292.885 295.501C292.298 295.501 291.805 295.461 291.405 295.381C290.978 295.274 290.765 294.981 290.765 294.501C290.765 294.474 290.765 294.448 290.765 294.421ZM304.622 274.501C304.622 273.914 304.915 273.621 305.502 273.621H306.862C307.235 273.621 307.422 273.421 307.422 273.021C307.422 271.368 307.448 270.221 307.502 269.581C307.582 269.021 307.822 268.701 308.222 268.621C308.702 268.541 309.128 268.501 309.502 268.501C309.928 268.501 310.342 268.541 310.742 268.621C311.222 268.728 311.462 269.021 311.462 269.501C311.462 269.528 311.462 269.554 311.462 269.581C311.302 271.581 311.222 272.701 311.222 272.941C311.222 273.394 311.395 273.621 311.742 273.621C312.568 273.621 313.595 273.594 314.822 273.541C314.848 273.541 314.875 273.541 314.902 273.541C315.115 273.541 315.302 273.621 315.462 273.781C315.622 273.941 315.702 274.154 315.702 274.421V275.901C315.702 276.141 315.622 276.354 315.462 276.541C315.302 276.701 315.115 276.781 314.902 276.781C314.875 276.781 314.848 276.781 314.822 276.781C314.128 276.674 313.462 276.621 312.822 276.621C312.582 276.621 312.342 276.634 312.102 276.661C311.755 276.688 311.515 276.781 311.382 276.941C311.248 277.101 311.155 277.394 311.102 277.821C310.995 279.794 310.942 282.021 310.942 284.501C310.942 285.914 310.955 287.408 310.982 288.981C311.062 290.501 311.608 291.261 312.622 291.261C312.942 291.261 313.315 291.168 313.742 290.981C314.195 290.794 314.515 290.581 314.702 290.341C314.915 289.994 315.155 289.821 315.422 289.821C315.475 289.821 315.595 289.861 315.782 289.941C315.995 289.994 316.102 290.274 316.102 290.781C316.102 290.808 316.102 290.848 316.102 290.901L315.982 293.701C315.955 294.261 315.755 294.661 315.382 294.901C314.582 295.381 313.448 295.621 311.982 295.621C310.462 295.621 309.262 295.048 308.382 293.901C307.528 292.754 307.102 291.088 307.102 288.901C307.102 283.781 307.208 279.874 307.422 277.181C307.422 277.154 307.422 277.128 307.422 277.101C307.422 276.968 307.368 276.861 307.262 276.781C307.155 276.674 307.035 276.621 306.902 276.621C306.235 276.621 305.755 276.634 305.462 276.661C305.435 276.661 305.408 276.661 305.382 276.661C305.168 276.661 304.982 276.581 304.822 276.421C304.688 276.261 304.622 276.061 304.622 275.821V274.501Z" fill="#FBF2E6"/>
<path d="M118.954 329.977C120.986 327.8 124.437 327.8 126.469 329.977C127.677 331.271 129.466 331.852 131.203 331.515C134.127 330.949 136.918 332.977 137.283 335.932C137.499 337.689 138.605 339.21 140.209 339.96C142.907 341.22 143.973 344.501 142.531 347.106C141.674 348.655 141.674 350.536 142.531 352.085C143.973 354.69 142.907 357.971 140.209 359.231C138.605 359.98 137.499 361.502 137.283 363.259C136.918 366.214 134.127 368.242 131.203 367.676C129.466 367.339 127.677 367.92 126.469 369.214C124.437 371.39 120.986 371.39 118.954 369.214C117.746 367.92 115.957 367.339 114.219 367.676C111.296 368.242 108.505 366.214 108.14 363.259C107.923 361.502 106.818 359.98 105.214 359.231C102.516 357.971 101.45 354.69 102.892 352.085C103.749 350.536 103.749 348.655 102.892 347.106C101.45 344.501 102.516 341.22 105.214 339.96C106.818 339.21 107.923 337.689 108.14 335.932C108.505 332.977 111.296 330.949 114.219 331.515C115.957 331.852 117.746 331.271 118.954 329.977Z" fill="#FF706E"/>
<path d="M161.736 331.035C161.736 327.381 162.362 324.595 163.616 322.675C164.869 320.728 166.509 319.755 168.536 319.755C170.562 319.755 172.202 320.728 173.456 322.675C174.709 324.595 175.336 327.381 175.336 331.035C175.336 334.661 174.722 337.395 173.496 339.235C172.242 341.075 170.589 341.995 168.536 341.995C166.482 341.995 164.829 341.075 163.576 339.235C162.349 337.395 161.736 334.661 161.736 331.035ZM165.576 330.955C165.576 333.195 165.842 334.915 166.376 336.115C166.882 337.315 167.602 337.915 168.536 337.915C169.469 337.915 170.189 337.315 170.696 336.115C171.229 334.915 171.496 333.195 171.496 330.955C171.496 328.715 171.229 326.968 170.696 325.715C170.189 324.461 169.469 323.835 168.536 323.835C167.602 323.835 166.869 324.461 166.336 325.715C165.829 326.968 165.576 328.715 165.576 330.955ZM176.754 320.915C176.781 320.461 177.021 320.155 177.474 319.995C177.874 319.915 178.328 319.875 178.834 319.875C179.501 319.875 180.021 319.915 180.394 319.995C180.821 320.128 181.034 320.395 181.034 320.795C181.034 320.821 181.034 320.861 181.034 320.915C180.901 321.528 180.821 321.981 180.794 322.275C180.794 322.515 180.821 322.675 180.874 322.755C180.928 322.835 180.981 322.875 181.034 322.875C181.088 322.875 181.154 322.861 181.234 322.835C181.314 322.781 181.394 322.635 181.474 322.395C182.381 320.635 183.568 319.755 185.034 319.755C186.501 319.755 187.648 320.675 188.474 322.515C189.301 324.328 189.714 327.061 189.714 330.715C189.714 334.288 189.208 337.061 188.194 339.035C187.181 341.008 185.928 341.995 184.434 341.995C182.701 341.995 181.448 340.915 180.674 338.755C180.621 338.515 180.554 338.381 180.474 338.355C180.421 338.301 180.368 338.275 180.314 338.275C180.261 338.275 180.194 338.328 180.114 338.435C180.034 338.515 179.994 338.675 179.994 338.915C179.968 339.635 179.954 340.381 179.954 341.155C179.954 343.981 180.114 346.968 180.434 350.115C180.434 350.141 180.434 350.168 180.434 350.195C180.434 350.595 180.194 350.848 179.714 350.955C179.234 351.035 178.701 351.075 178.114 351.075C177.661 351.075 177.208 351.035 176.754 350.955C176.354 350.875 176.154 350.608 176.154 350.155C176.154 339.488 176.354 329.741 176.754 320.915ZM181.034 335.875C181.541 337.128 182.234 337.755 183.114 337.755C183.968 337.755 184.648 337.141 185.154 335.915C185.661 334.661 185.914 332.955 185.914 330.795C185.914 328.581 185.661 326.861 185.154 325.635C184.674 324.408 183.994 323.795 183.114 323.795C182.261 323.795 181.568 324.421 181.034 325.675C180.501 326.901 180.234 328.608 180.234 330.795C180.234 332.955 180.501 334.648 181.034 335.875ZM192.755 322.555C193.955 320.688 195.489 319.755 197.355 319.755C199.115 319.755 200.502 320.381 201.515 321.635C202.529 322.888 203.035 324.768 203.035 327.275C203.035 329.115 202.582 330.701 201.675 332.035C200.795 333.341 199.729 333.995 198.475 333.995C197.089 333.995 196.009 333.635 195.235 332.915C195.075 332.755 194.929 332.675 194.795 332.675C194.742 332.675 194.675 332.701 194.595 332.755C194.542 332.781 194.515 332.861 194.515 332.995C194.515 333.101 194.542 333.221 194.595 333.355C194.835 334.688 195.342 335.768 196.115 336.595C196.915 337.421 197.769 337.835 198.675 337.835C199.209 337.835 199.769 337.661 200.355 337.315C200.942 336.941 201.395 336.488 201.715 335.955C201.875 335.635 202.075 335.475 202.315 335.475C202.342 335.475 202.422 335.488 202.555 335.515C202.715 335.541 202.809 335.795 202.835 336.275L202.955 339.555C202.955 339.848 202.862 340.115 202.675 340.355C201.742 341.448 200.235 341.995 198.155 341.995C195.969 341.995 194.209 341.008 192.875 339.035C191.569 337.035 190.915 334.195 190.915 330.515C190.915 327.101 191.529 324.448 192.755 322.555ZM195.435 330.595C195.995 331.075 196.609 331.315 197.275 331.315C197.942 331.315 198.489 330.968 198.915 330.275C199.342 329.555 199.555 328.635 199.555 327.515C199.555 324.981 198.809 323.715 197.315 323.715C196.569 323.715 195.915 324.168 195.355 325.075C194.822 325.955 194.555 327.155 194.555 328.675C194.555 329.475 194.849 330.115 195.435 330.595ZM204.554 340.795V333.235C204.554 332.675 204.554 331.768 204.554 330.515C204.581 329.235 204.594 328.328 204.594 327.795C204.621 327.261 204.647 326.541 204.674 325.635C204.701 324.701 204.741 323.875 204.794 323.155C204.847 322.435 204.914 321.661 204.994 320.835C205.074 320.355 205.287 320.075 205.634 319.995C206.034 319.915 206.474 319.875 206.954 319.875C207.407 319.875 207.901 319.915 208.434 319.995C208.887 320.075 209.114 320.288 209.114 320.635C209.114 320.715 209.101 320.795 209.074 320.875C208.834 321.568 208.714 322.208 208.714 322.795C208.714 323.088 208.741 323.275 208.794 323.355C208.847 323.435 208.901 323.475 208.954 323.475C208.981 323.475 209.034 323.448 209.114 323.395C209.194 323.341 209.274 323.181 209.354 322.915C210.314 320.781 211.567 319.715 213.114 319.715C214.554 319.715 215.727 320.675 216.634 322.595C217.541 324.488 218.021 327.208 218.074 330.755C218.154 334.435 218.194 337.781 218.194 340.795C218.194 341.301 217.954 341.621 217.474 341.755C217.101 341.835 216.647 341.875 216.114 341.875C215.474 341.875 214.954 341.835 214.554 341.755C214.074 341.595 213.834 341.315 213.834 340.915C213.834 340.888 213.834 340.861 213.834 340.835C214.074 337.875 214.194 334.675 214.194 331.235C214.141 326.621 213.207 324.315 211.394 324.315C210.514 324.315 209.821 324.915 209.314 326.115C208.834 327.288 208.594 328.901 208.594 330.955C208.594 331.061 208.594 331.168 208.594 331.275C208.674 335.861 208.794 339.048 208.954 340.835C208.954 340.861 208.954 340.888 208.954 340.915C208.954 341.368 208.714 341.648 208.234 341.755C207.887 341.835 207.367 341.875 206.674 341.875C206.087 341.875 205.594 341.835 205.194 341.755C204.767 341.648 204.554 341.355 204.554 340.875C204.554 340.848 204.554 340.821 204.554 340.795ZM227.202 320.875C227.202 320.635 227.282 320.435 227.442 320.275C227.628 320.088 227.828 319.995 228.042 319.995H229.242C229.615 319.995 229.802 319.861 229.802 319.595C229.802 319.541 229.802 319.488 229.802 319.435C229.642 318.715 229.562 318.061 229.562 317.475C229.562 316.221 229.975 315.101 230.802 314.115C231.628 313.128 232.882 312.635 234.562 312.635C235.575 312.635 236.522 312.901 237.402 313.435C237.695 313.595 237.842 313.901 237.842 314.355C237.868 314.728 237.895 315.315 237.922 316.115C237.948 316.915 237.962 317.381 237.962 317.515C237.962 318.048 237.855 318.355 237.642 318.435C237.455 318.488 237.322 318.515 237.242 318.515C237.002 318.515 236.775 318.355 236.562 318.035C236.135 317.288 235.575 316.915 234.882 316.915C234.455 316.915 234.135 317.115 233.922 317.515C233.735 317.888 233.642 318.288 233.642 318.715C233.642 318.795 233.642 318.888 233.642 318.995C233.668 319.315 233.815 319.581 234.082 319.795C234.348 320.008 234.655 320.115 235.002 320.115C235.642 320.115 236.402 320.048 237.282 319.915C237.362 319.915 237.428 319.915 237.482 319.915C237.935 319.915 238.188 320.181 238.242 320.715C238.268 320.981 238.282 321.248 238.282 321.515C238.282 321.755 238.268 322.008 238.242 322.275C238.188 322.835 237.895 323.115 237.362 323.115C237.202 323.115 236.735 323.088 235.962 323.035C235.188 322.981 234.628 322.955 234.282 322.955C233.855 322.955 233.642 323.235 233.642 323.795C233.642 324.275 233.642 324.755 233.642 325.235C233.642 329.661 233.855 334.861 234.282 340.835C234.282 340.861 234.282 340.888 234.282 340.915C234.282 341.368 234.055 341.648 233.602 341.755C233.068 341.835 232.508 341.875 231.922 341.875C231.175 341.875 230.588 341.835 230.162 341.755C229.708 341.648 229.482 341.328 229.482 340.795C229.482 338.101 229.548 332.421 229.682 323.755C229.682 323.248 229.482 322.995 229.082 322.995H228.042C227.828 322.995 227.628 322.915 227.442 322.755C227.282 322.568 227.202 322.355 227.202 322.115V320.875ZM237.986 331.035C237.986 327.381 238.612 324.595 239.866 322.675C241.119 320.728 242.759 319.755 244.786 319.755C246.812 319.755 248.452 320.728 249.706 322.675C250.959 324.595 251.586 327.381 251.586 331.035C251.586 334.661 250.972 337.395 249.746 339.235C248.492 341.075 246.839 341.995 244.786 341.995C242.732 341.995 241.079 341.075 239.826 339.235C238.599 337.395 237.986 334.661 237.986 331.035ZM241.826 330.955C241.826 333.195 242.092 334.915 242.626 336.115C243.132 337.315 243.852 337.915 244.786 337.915C245.719 337.915 246.439 337.315 246.946 336.115C247.479 334.915 247.746 333.195 247.746 330.955C247.746 328.715 247.479 326.968 246.946 325.715C246.439 324.461 245.719 323.835 244.786 323.835C243.852 323.835 243.119 324.461 242.586 325.715C242.079 326.968 241.826 328.715 241.826 330.955ZM252.804 320.795C252.831 320.341 253.044 320.075 253.444 319.995C253.898 319.915 254.351 319.875 254.804 319.875C255.364 319.875 255.804 319.915 256.124 319.995C256.604 320.101 256.844 320.301 256.844 320.595C256.844 320.675 256.831 320.741 256.804 320.795C256.618 321.701 256.524 322.488 256.524 323.155C256.524 323.395 256.551 323.555 256.604 323.635C256.684 323.715 256.751 323.755 256.804 323.755C256.831 323.755 256.884 323.728 256.964 323.675C257.044 323.621 257.111 323.475 257.164 323.235C257.458 322.061 257.951 321.195 258.644 320.635C259.364 320.048 260.151 319.755 261.004 319.755C261.778 319.755 262.378 319.875 262.804 320.115C263.124 320.275 263.284 320.541 263.284 320.915V325.555C263.284 326.035 263.204 326.301 263.044 326.355C262.884 326.408 262.778 326.435 262.724 326.435C262.538 326.435 262.351 326.288 262.164 325.995C261.604 325.328 260.804 324.995 259.764 324.995C258.778 324.995 257.978 325.488 257.364 326.475C256.751 327.461 256.444 329.008 256.444 331.115C256.444 332.528 256.511 334.448 256.644 336.875C256.804 339.301 256.884 340.621 256.884 340.835C256.884 340.861 256.884 340.888 256.884 340.915C256.884 341.421 256.658 341.701 256.204 341.755C255.858 341.835 255.298 341.875 254.524 341.875C253.991 341.875 253.498 341.835 253.044 341.755C252.618 341.648 252.404 341.341 252.404 340.835C252.431 332.381 252.564 325.701 252.804 320.795ZM265.031 320.795C265.058 320.368 265.271 320.101 265.671 319.995C266.071 319.915 266.511 319.875 266.991 319.875C267.551 319.875 268.004 319.915 268.351 319.995C268.778 320.128 268.991 320.355 268.991 320.675C268.991 320.728 268.991 320.768 268.991 320.795C268.778 321.915 268.671 322.595 268.671 322.835C268.671 323.128 268.698 323.328 268.751 323.435C268.804 323.515 268.858 323.555 268.911 323.555C268.938 323.555 268.991 323.528 269.071 323.475C269.151 323.421 269.231 323.261 269.311 322.995C269.631 321.955 270.098 321.155 270.711 320.595C271.351 320.035 272.031 319.755 272.751 319.755C273.418 319.755 274.031 320.008 274.591 320.515C275.178 320.995 275.604 321.661 275.871 322.515C275.978 322.941 276.084 323.208 276.191 323.315C276.298 323.421 276.378 323.475 276.431 323.475C276.484 323.475 276.564 323.421 276.671 323.315C276.778 323.208 276.884 322.955 276.991 322.555C277.284 321.701 277.751 321.021 278.391 320.515C279.031 320.008 279.738 319.755 280.511 319.755C281.844 319.755 282.964 320.648 283.871 322.435C284.778 324.195 285.244 326.795 285.271 330.235C285.378 335.035 285.431 338.555 285.431 340.795C285.431 341.355 285.204 341.675 284.751 341.755C284.298 341.835 283.858 341.875 283.431 341.875C282.738 341.875 282.218 341.835 281.871 341.755C281.418 341.648 281.191 341.368 281.191 340.915C281.191 340.888 281.191 340.861 281.191 340.835C281.351 337.795 281.431 334.528 281.431 331.035C281.431 326.661 280.698 324.475 279.231 324.475C278.564 324.475 278.018 325.048 277.591 326.195C277.191 327.341 276.991 328.981 276.991 331.115C276.991 335.435 277.071 338.661 277.231 340.795C277.231 340.821 277.231 340.848 277.231 340.875C277.231 341.355 276.991 341.648 276.511 341.755C276.031 341.835 275.578 341.875 275.151 341.875C274.404 341.875 273.871 341.835 273.551 341.755C273.098 341.648 272.871 341.368 272.871 340.915C272.871 340.888 272.871 340.861 272.871 340.835C273.031 338.248 273.111 334.981 273.111 331.035C273.058 326.661 272.311 324.475 270.871 324.475C270.178 324.475 269.631 325.048 269.231 326.195C268.831 327.341 268.631 328.995 268.631 331.155C268.604 332.248 268.591 333.288 268.591 334.275C268.591 336.755 268.644 338.941 268.751 340.835C268.751 340.861 268.751 340.888 268.751 340.915C268.751 341.368 268.524 341.648 268.071 341.755C267.644 341.835 267.178 341.875 266.671 341.875C266.031 341.875 265.564 341.835 265.271 341.755C264.818 341.648 264.591 341.328 264.591 340.795C264.618 333.035 264.764 326.368 265.031 320.795ZM286.735 340.835C289.588 329.421 291.868 320.635 293.575 314.475C293.681 314.128 294.015 313.888 294.575 313.755C294.975 313.675 295.415 313.635 295.895 313.635C296.295 313.635 296.748 313.675 297.255 313.755C297.628 313.835 297.815 313.995 297.815 314.235C297.815 314.315 297.801 314.381 297.775 314.435L290.935 340.835C290.801 341.341 290.468 341.648 289.935 341.755C289.535 341.835 289.028 341.875 288.415 341.875C287.988 341.875 287.575 341.835 287.175 341.755C286.855 341.675 286.695 341.461 286.695 341.115C286.695 341.035 286.708 340.941 286.735 340.835ZM163.096 358.635C164.002 356.715 165.202 355.755 166.696 355.755C168.429 355.755 169.696 356.768 170.496 358.795C170.576 359.008 170.656 359.141 170.736 359.195C170.816 359.221 170.869 359.235 170.896 359.235C170.949 359.235 171.002 359.195 171.056 359.115C171.136 359.035 171.176 358.875 171.176 358.635C171.149 356.741 170.896 353.795 170.416 349.795C170.416 349.741 170.416 349.688 170.416 349.635C170.416 349.315 170.629 349.088 171.056 348.955C171.402 348.875 171.922 348.835 172.616 348.835C173.309 348.835 173.816 348.875 174.136 348.955C174.536 349.061 174.749 349.328 174.776 349.755C175.122 353.008 175.296 362.035 175.296 376.835C175.296 377.315 175.069 377.621 174.616 377.755C174.269 377.835 173.776 377.875 173.136 377.875C172.496 377.875 172.002 377.835 171.656 377.755C171.202 377.621 170.976 377.341 170.976 376.915C170.976 376.888 170.976 376.861 170.976 376.835C171.056 376.355 171.109 375.835 171.136 375.275C171.136 375.008 171.109 374.835 171.056 374.755C171.002 374.648 170.949 374.595 170.896 374.595C170.842 374.595 170.776 374.635 170.696 374.715C170.616 374.768 170.536 374.915 170.456 375.155C169.656 377.048 168.402 377.995 166.696 377.995C165.202 377.995 164.002 377.061 163.096 375.195C162.189 373.301 161.736 370.555 161.736 366.955C161.736 363.328 162.189 360.555 163.096 358.635ZM165.536 366.875C165.536 369.035 165.789 370.728 166.296 371.955C166.802 373.155 167.496 373.755 168.376 373.755C169.229 373.755 169.909 373.128 170.416 371.875C170.949 370.621 171.216 368.915 171.216 366.755C171.216 364.621 170.949 362.955 170.416 361.755C169.909 360.555 169.229 359.955 168.376 359.955C167.496 359.955 166.802 360.568 166.296 361.795C165.789 363.021 165.536 364.715 165.536 366.875ZM178.615 358.555C179.815 356.688 181.348 355.755 183.215 355.755C184.975 355.755 186.361 356.381 187.375 357.635C188.388 358.888 188.895 360.768 188.895 363.275C188.895 365.115 188.441 366.701 187.535 368.035C186.655 369.341 185.588 369.995 184.335 369.995C182.948 369.995 181.868 369.635 181.095 368.915C180.935 368.755 180.788 368.675 180.655 368.675C180.601 368.675 180.535 368.701 180.455 368.755C180.401 368.781 180.375 368.861 180.375 368.995C180.375 369.101 180.401 369.221 180.455 369.355C180.695 370.688 181.201 371.768 181.975 372.595C182.775 373.421 183.628 373.835 184.535 373.835C185.068 373.835 185.628 373.661 186.215 373.315C186.801 372.941 187.255 372.488 187.575 371.955C187.735 371.635 187.935 371.475 188.175 371.475C188.201 371.475 188.281 371.488 188.415 371.515C188.575 371.541 188.668 371.795 188.695 372.275L188.815 375.555C188.815 375.848 188.721 376.115 188.535 376.355C187.601 377.448 186.095 377.995 184.015 377.995C181.828 377.995 180.068 377.008 178.735 375.035C177.428 373.035 176.775 370.195 176.775 366.515C176.775 363.101 177.388 360.448 178.615 358.555ZM181.295 366.595C181.855 367.075 182.468 367.315 183.135 367.315C183.801 367.315 184.348 366.968 184.775 366.275C185.201 365.555 185.415 364.635 185.415 363.515C185.415 360.981 184.668 359.715 183.175 359.715C182.428 359.715 181.775 360.168 181.215 361.075C180.681 361.955 180.415 363.155 180.415 364.675C180.415 365.475 180.708 366.115 181.295 366.595ZM190.173 371.795C190.173 368.115 191.76 365.715 194.933 364.595C196.293 364.141 197.28 363.715 197.893 363.315C198.507 362.915 198.813 362.381 198.813 361.715C198.813 361.208 198.613 360.781 198.213 360.435C197.84 360.088 197.253 359.915 196.453 359.915C194.96 359.915 193.76 360.541 192.853 361.795C192.667 362.221 192.44 362.435 192.173 362.435C192.12 362.435 191.987 362.408 191.773 362.355C191.587 362.275 191.493 361.955 191.493 361.395C191.493 361.368 191.493 361.328 191.493 361.275C191.573 359.835 191.68 358.608 191.813 357.595C191.867 357.061 192.08 356.701 192.453 356.515C193.573 356.008 194.88 355.755 196.373 355.755C198.32 355.755 199.787 356.355 200.773 357.555C201.787 358.728 202.387 360.595 202.573 363.155C202.627 363.928 202.813 368.461 203.133 376.755C203.133 377.235 202.84 377.568 202.253 377.755C201.853 377.835 201.413 377.875 200.933 377.875C200.347 377.875 199.853 377.835 199.453 377.755C198.867 377.595 198.573 377.275 198.573 376.795C198.573 376.741 198.573 376.688 198.573 376.635C198.733 375.461 198.827 374.608 198.853 374.075C198.853 374.048 198.853 374.008 198.853 373.955C198.853 373.715 198.773 373.595 198.613 373.595C198.453 373.595 198.333 373.741 198.253 374.035C197.88 375.341 197.32 376.328 196.573 376.995C195.853 377.661 195.067 377.995 194.213 377.995C191.52 377.995 190.173 375.928 190.173 371.795ZM194.613 372.715C194.907 373.168 195.373 373.395 196.013 373.395C196.627 373.395 197.24 372.981 197.853 372.155C198.467 371.301 198.773 370.088 198.773 368.515C198.773 366.781 198.28 365.915 197.293 365.915C196.52 365.915 195.8 366.341 195.133 367.195C194.493 368.048 194.173 369.141 194.173 370.475C194.173 371.541 194.32 372.288 194.613 372.715ZM205.752 358.635C206.659 356.715 207.859 355.755 209.352 355.755C211.085 355.755 212.352 356.768 213.152 358.795C213.232 359.008 213.312 359.141 213.392 359.195C213.472 359.221 213.525 359.235 213.552 359.235C213.605 359.235 213.659 359.195 213.712 359.115C213.792 359.035 213.832 358.875 213.832 358.635C213.805 356.741 213.552 353.795 213.072 349.795C213.072 349.741 213.072 349.688 213.072 349.635C213.072 349.315 213.285 349.088 213.712 348.955C214.059 348.875 214.579 348.835 215.272 348.835C215.965 348.835 216.472 348.875 216.792 348.955C217.192 349.061 217.405 349.328 217.432 349.755C217.779 353.008 217.952 362.035 217.952 376.835C217.952 377.315 217.725 377.621 217.272 377.755C216.925 377.835 216.432 377.875 215.792 377.875C215.152 377.875 214.659 377.835 214.312 377.755C213.859 377.621 213.632 377.341 213.632 376.915C213.632 376.888 213.632 376.861 213.632 376.835C213.712 376.355 213.765 375.835 213.792 375.275C213.792 375.008 213.765 374.835 213.712 374.755C213.659 374.648 213.605 374.595 213.552 374.595C213.499 374.595 213.432 374.635 213.352 374.715C213.272 374.768 213.192 374.915 213.112 375.155C212.312 377.048 211.059 377.995 209.352 377.995C207.859 377.995 206.659 377.061 205.752 375.195C204.845 373.301 204.392 370.555 204.392 366.955C204.392 363.328 204.845 360.555 205.752 358.635ZM208.192 366.875C208.192 369.035 208.445 370.728 208.952 371.955C209.459 373.155 210.152 373.755 211.032 373.755C211.885 373.755 212.565 373.128 213.072 371.875C213.605 370.621 213.872 368.915 213.872 366.755C213.872 364.621 213.605 362.955 213.072 361.755C212.565 360.555 211.885 359.955 211.032 359.955C210.152 359.955 209.459 360.568 208.952 361.795C208.445 363.021 208.192 364.715 208.192 366.875ZM220.151 349.755C220.231 349.301 220.511 349.035 220.991 348.955C221.391 348.875 221.858 348.835 222.391 348.835C223.004 348.835 223.511 348.875 223.911 348.955C224.364 349.035 224.591 349.288 224.591 349.715C224.591 349.768 224.591 349.821 224.591 349.875C224.138 355.635 223.911 361.448 223.911 367.315C223.911 370.488 223.978 373.661 224.111 376.835C224.111 377.315 223.884 377.621 223.431 377.755C223.031 377.835 222.524 377.875 221.911 377.875C221.298 377.875 220.791 377.835 220.391 377.755C219.938 377.621 219.711 377.315 219.711 376.835C219.711 375.288 219.711 373.781 219.711 372.315C219.711 362.821 219.858 355.301 220.151 349.755ZM226.313 376.795C226.313 367.888 226.433 361.221 226.673 356.795C226.699 356.368 226.899 356.101 227.273 355.995C227.619 355.915 228.019 355.875 228.473 355.875C228.846 355.875 229.206 355.915 229.553 355.995C229.926 356.101 230.126 356.368 230.153 356.795C230.393 361.248 230.513 367.928 230.513 376.835C230.513 377.341 230.299 377.648 229.873 377.755C229.419 377.835 228.939 377.875 228.433 377.875C227.739 377.875 227.246 377.835 226.953 377.755C226.526 377.648 226.313 377.328 226.313 376.795ZM226.873 349.155C227.273 348.648 227.779 348.395 228.393 348.395C229.033 348.395 229.566 348.648 229.993 349.155C230.419 349.661 230.633 350.288 230.633 351.035C230.633 351.755 230.419 352.368 229.993 352.875C229.566 353.381 229.033 353.635 228.393 353.635C227.779 353.635 227.259 353.381 226.833 352.875C226.433 352.368 226.233 351.755 226.233 351.035C226.233 350.288 226.446 349.661 226.873 349.155ZM232.288 376.795V369.235C232.288 368.675 232.288 367.768 232.288 366.515C232.315 365.235 232.328 364.328 232.328 363.795C232.355 363.261 232.382 362.541 232.408 361.635C232.435 360.701 232.475 359.875 232.528 359.155C232.582 358.435 232.648 357.661 232.728 356.835C232.808 356.355 233.022 356.075 233.368 355.995C233.768 355.915 234.208 355.875 234.688 355.875C235.142 355.875 235.635 355.915 236.168 355.995C236.622 356.075 236.848 356.288 236.848 356.635C236.848 356.715 236.835 356.795 236.808 356.875C236.568 357.568 236.448 358.208 236.448 358.795C236.448 359.088 236.475 359.275 236.528 359.355C236.582 359.435 236.635 359.475 236.688 359.475C236.715 359.475 236.768 359.448 236.848 359.395C236.928 359.341 237.008 359.181 237.088 358.915C238.048 356.781 239.302 355.715 240.848 355.715C242.288 355.715 243.462 356.675 244.368 358.595C245.275 360.488 245.755 363.208 245.808 366.755C245.888 370.435 245.928 373.781 245.928 376.795C245.928 377.301 245.688 377.621 245.208 377.755C244.835 377.835 244.382 377.875 243.848 377.875C243.208 377.875 242.688 377.835 242.288 377.755C241.808 377.595 241.568 377.315 241.568 376.915C241.568 376.888 241.568 376.861 241.568 376.835C241.808 373.875 241.928 370.675 241.928 367.235C241.875 362.621 240.942 360.315 239.128 360.315C238.248 360.315 237.555 360.915 237.048 362.115C236.568 363.288 236.328 364.901 236.328 366.955C236.328 367.061 236.328 367.168 236.328 367.275C236.408 371.861 236.528 375.048 236.688 376.835C236.688 376.861 236.688 376.888 236.688 376.915C236.688 377.368 236.448 377.648 235.968 377.755C235.622 377.835 235.102 377.875 234.408 377.875C233.822 377.875 233.328 377.835 232.928 377.755C232.502 377.648 232.288 377.355 232.288 376.875C232.288 376.848 232.288 376.821 232.288 376.795ZM249.044 358.555C250.244 356.688 251.778 355.755 253.644 355.755C255.404 355.755 256.791 356.381 257.804 357.635C258.818 358.888 259.324 360.768 259.324 363.275C259.324 365.115 258.871 366.701 257.964 368.035C257.084 369.341 256.018 369.995 254.764 369.995C253.378 369.995 252.298 369.635 251.524 368.915C251.364 368.755 251.218 368.675 251.084 368.675C251.031 368.675 250.964 368.701 250.884 368.755C250.831 368.781 250.804 368.861 250.804 368.995C250.804 369.101 250.831 369.221 250.884 369.355C251.124 370.688 251.631 371.768 252.404 372.595C253.204 373.421 254.058 373.835 254.964 373.835C255.498 373.835 256.058 373.661 256.644 373.315C257.231 372.941 257.684 372.488 258.004 371.955C258.164 371.635 258.364 371.475 258.604 371.475C258.631 371.475 258.711 371.488 258.844 371.515C259.004 371.541 259.098 371.795 259.124 372.275L259.244 375.555C259.244 375.848 259.151 376.115 258.964 376.355C258.031 377.448 256.524 377.995 254.444 377.995C252.258 377.995 250.498 377.008 249.164 375.035C247.858 373.035 247.204 370.195 247.204 366.515C247.204 363.101 247.818 360.448 249.044 358.555ZM251.724 366.595C252.284 367.075 252.898 367.315 253.564 367.315C254.231 367.315 254.778 366.968 255.204 366.275C255.631 365.555 255.844 364.635 255.844 363.515C255.844 360.981 255.098 359.715 253.604 359.715C252.858 359.715 252.204 360.168 251.644 361.075C251.111 361.955 250.844 363.155 250.844 364.675C250.844 365.475 251.138 366.115 251.724 366.595Z" fill="#FBF2E6"/>
<path d="M313.989 10.6668C315.927 7.40817 320.645 7.40817 322.584 10.6668L325.664 15.8455C326.947 18.0023 329.63 18.8741 331.935 17.8832L337.471 15.5041C340.955 14.0071 344.772 16.7803 344.424 20.5559L343.873 26.5561C343.643 29.0551 345.301 31.3373 347.749 31.8909L353.626 33.2201C357.324 34.0565 358.782 38.5437 356.281 41.3941L352.308 45.9239C350.653 47.8105 350.653 50.6315 352.308 52.5181L356.281 57.0479C358.782 59.8983 357.324 64.3855 353.626 65.2219L347.749 66.5511C345.301 67.1047 343.643 69.3869 343.873 71.8859L344.424 77.8861C344.772 81.6617 340.955 84.4349 337.471 82.9379L331.935 80.5588C329.63 79.5679 326.947 80.4397 325.664 82.5965L322.584 87.7752C320.645 91.0338 315.927 91.0338 313.989 87.7752L310.909 82.5965C309.626 80.4397 306.943 79.5679 304.637 80.5588L299.101 82.9379C295.618 84.4349 291.801 81.6617 292.148 77.8861L292.7 71.8859C292.93 69.3869 291.272 67.1047 288.824 66.5511L282.947 65.2219C279.249 64.3855 277.791 59.8983 280.291 57.0479L284.265 52.5181C285.919 50.6315 285.919 47.8105 284.265 45.9239L280.291 41.3941C277.791 38.5437 279.249 34.0565 282.947 33.2201L288.824 31.8909C291.272 31.3373 292.93 29.0551 292.7 26.5561L292.148 20.5559C291.801 16.7803 295.618 14.0071 299.101 15.5041L304.637 17.8832C306.943 18.8741 309.626 18.0023 310.909 15.8455L313.989 10.6668Z" fill="#201E29"/>
<path d="M308.482 7.22478C310.42 3.96615 315.138 3.96615 317.076 7.22478L320.157 12.4035C321.439 14.5603 324.122 15.4321 326.428 14.4412L331.964 12.0621C335.447 10.5651 339.264 13.3383 338.917 17.1139L338.365 23.1141C338.135 25.613 339.793 27.8953 342.241 28.4489L348.118 29.7781C351.816 30.6145 353.274 35.1017 350.774 37.952L346.801 42.4819C345.146 44.3685 345.146 47.1895 346.801 49.0761L350.774 53.6059C353.274 56.4563 351.816 60.9435 348.118 61.7799L342.241 63.1091C339.793 63.6627 338.135 65.9449 338.365 68.4439L338.917 74.4441C339.264 78.2197 335.447 80.9929 331.964 79.4959L326.428 77.1168C324.122 76.1259 321.439 76.9977 320.157 79.1545L317.076 84.3332C315.138 87.5918 310.42 87.5918 308.482 84.3332L305.401 79.1545C304.119 76.9977 301.436 76.1259 299.13 77.1168L293.594 79.4959C290.111 80.9929 286.293 78.2197 286.641 74.4441L287.193 68.4439C287.423 65.9449 285.764 63.6627 283.317 63.1091L277.44 61.7799C273.742 60.9435 272.284 56.4563 274.784 53.6059L278.757 49.0761C280.412 47.1895 280.412 44.3685 278.757 42.4819L274.784 37.952C272.284 35.1017 273.742 30.6145 277.44 29.7781L283.317 28.4489C285.764 27.8953 287.423 25.613 287.193 23.1141L286.641 17.1139C286.293 13.3383 290.111 10.5651 293.594 12.0621L299.13 14.4412C301.436 15.4321 304.119 14.5603 305.401 12.4035L308.482 7.22478Z" fill="#FCA71F"/>
<rect x="9.89551" y="315" width="211.476" height="19.2799" transform="rotate(30.8815 9.89551 315)" fill="#5481BF" fill-opacity="0.85"/>
</svg>
