<svg width="428" height="134" viewBox="0 0 428 134" fill="none" xmlns="http://www.w3.org/2000/svg">
<rect x="31" y="38" width="137" height="28" rx="14" fill="#35393C"/>
<path d="M66.5447 45.44C66.558 45.2 66.7247 45.0533 67.0447 45C67.418 44.96 67.9447 44.94 68.6247 44.94C69.038 44.94 69.4447 44.96 69.8447 45C69.9914 45.0267 70.1047 45.0867 70.1847 45.18C70.2647 45.26 70.3047 45.3467 70.3047 45.44C70.3047 45.4667 70.3047 45.4933 70.3047 45.52C69.718 49.0133 69.4247 51.76 69.4247 53.76C69.438 55.28 70.2314 56.04 71.8047 56.04C72.6447 56.04 73.298 55.9067 73.7647 55.64C74.2447 55.36 74.6714 54.8733 75.0447 54.18C75.1247 53.98 75.2514 53.88 75.4247 53.88C75.4514 53.88 75.518 53.8933 75.6247 53.92C75.7447 53.9333 75.8114 54.0733 75.8247 54.34C75.9314 55.4867 76.0047 56.8867 76.0447 58.54C76.0447 58.82 75.9047 58.9733 75.6247 59C74.8914 59.0533 73.3047 59.08 70.8647 59.08C68.798 59.08 67.3914 59.0533 66.6447 59C66.3114 58.9733 66.1447 58.8067 66.1447 58.5C66.198 52.94 66.3314 48.5867 66.5447 45.44ZM77.1892 45.44C77.2159 45.1733 77.3826 45.0267 77.6892 45C78.1426 44.96 79.4359 44.94 81.5692 44.94C83.4759 44.94 84.7492 44.96 85.3892 45C85.6826 45.0267 85.8426 45.18 85.8692 45.46C85.9092 45.98 85.9559 47.1133 86.0092 48.86C86.0092 48.8733 86.0092 48.8933 86.0092 48.92C86.0092 49.12 85.9559 49.24 85.8492 49.28C85.7559 49.3067 85.6892 49.32 85.6492 49.32C85.5159 49.32 85.3892 49.24 85.2692 49.08C84.5359 48.1867 83.4559 47.74 82.0292 47.74C81.4292 47.74 80.9492 47.86 80.5892 48.1C80.2426 48.34 80.0692 48.6733 80.0692 49.1V49.26C80.0692 50.0467 80.6492 50.44 81.8092 50.44C82.5026 50.44 83.2959 50.3933 84.1892 50.3C84.2159 50.3 84.2426 50.3 84.2692 50.3C84.3759 50.3 84.4692 50.3467 84.5492 50.44C84.6426 50.52 84.6892 50.6267 84.6892 50.76V52.46C84.6892 52.6733 84.6426 52.8 84.5492 52.84C84.4692 52.8667 84.4159 52.88 84.3892 52.88C84.2826 52.88 84.1759 52.8267 84.0692 52.72C83.4959 52.2933 82.7959 52.08 81.9692 52.08C81.9292 52.08 81.8826 52.08 81.8292 52.08C80.6559 52.1067 80.0692 52.64 80.0692 53.68V54.22C80.0692 54.8867 80.2892 55.3867 80.7292 55.72C81.1692 56.0533 81.7426 56.22 82.4492 56.22C83.3026 56.22 83.9692 56.0867 84.4492 55.82C84.9292 55.54 85.3559 55.0533 85.7292 54.36C85.8092 54.1733 85.9359 54.08 86.1092 54.08C86.1359 54.08 86.2026 54.0867 86.3092 54.1C86.4292 54.1133 86.5026 54.2533 86.5292 54.52C86.6226 55.5067 86.6892 56.8467 86.7292 58.54C86.7292 58.5667 86.7292 58.5867 86.7292 58.6C86.7292 58.84 86.5892 58.9733 86.3092 59C85.5759 59.0533 83.9759 59.08 81.5092 59.08C79.4426 59.08 78.0359 59.0533 77.2892 59C76.9559 58.9733 76.7892 58.8067 76.7892 58.5C76.8426 52.94 76.9759 48.5867 77.1892 45.44ZM88.8561 46.98C89.9494 45.58 91.3894 44.8733 93.1761 44.86C94.4961 44.86 95.6561 45.1267 96.6561 45.66C96.8694 45.82 96.9761 46.0333 96.9761 46.3C96.9761 46.34 96.9761 46.3733 96.9761 46.4C96.9628 46.6133 96.9228 47.0733 96.8561 47.78C96.7894 48.4733 96.7428 48.9533 96.7161 49.22C96.7028 49.4467 96.6494 49.5733 96.5561 49.6C96.4628 49.6133 96.4028 49.62 96.3761 49.62C96.2561 49.62 96.1494 49.5467 96.0561 49.4C95.3094 48.4933 94.3961 48.04 93.3161 48.04C92.5028 48.04 91.8494 48.4267 91.3561 49.2C90.8628 49.96 90.6161 51.0733 90.6161 52.54C90.6161 54.8067 91.3094 55.94 92.6961 55.94C93.2428 55.9267 93.6828 55.6733 94.0161 55.18C94.3628 54.6867 94.5361 54.06 94.5361 53.3C94.5361 52.5267 94.3894 51.9133 94.0961 51.46C94.0561 51.38 94.0361 51.3067 94.0361 51.24C94.0361 51.1867 94.0561 51.1133 94.0961 51.02C94.1361 50.9267 94.2428 50.8733 94.4161 50.86C95.6694 50.8067 96.6494 50.78 97.3561 50.78C97.6628 50.78 97.8294 50.94 97.8561 51.26C98.0428 53.4067 98.1361 55.8133 98.1361 58.48C98.1361 58.8 97.9761 58.9733 97.6561 59C97.2294 59.0267 96.8161 59.0467 96.4161 59.06C96.0294 59.0467 95.6494 59.0267 95.2761 59C94.9694 58.9733 94.8161 58.84 94.8161 58.6C94.8161 58.56 94.8161 58.5267 94.8161 58.5C94.8561 58.1267 94.8894 57.6667 94.9161 57.12C94.9161 56.96 94.8961 56.8533 94.8561 56.8C94.8161 56.7333 94.7761 56.7 94.7361 56.7C94.7228 56.7 94.6894 56.72 94.6361 56.76C94.5828 56.7867 94.5361 56.88 94.4961 57.04C93.9361 58.4267 92.9761 59.12 91.6161 59.12C90.3094 59.12 89.2494 58.5933 88.4361 57.54C87.6228 56.4733 87.2161 54.8333 87.2161 52.62C87.2161 50.26 87.7628 48.38 88.8561 46.98ZM99.3377 45.44C99.3643 45.1733 99.531 45.0267 99.8377 45C100.291 44.96 101.584 44.94 103.718 44.94C105.624 44.94 106.898 44.96 107.538 45C107.831 45.0267 107.991 45.18 108.018 45.46C108.058 45.98 108.104 47.1133 108.158 48.86C108.158 48.8733 108.158 48.8933 108.158 48.92C108.158 49.12 108.104 49.24 107.998 49.28C107.904 49.3067 107.838 49.32 107.798 49.32C107.664 49.32 107.538 49.24 107.418 49.08C106.684 48.1867 105.604 47.74 104.178 47.74C103.578 47.74 103.098 47.86 102.738 48.1C102.391 48.34 102.218 48.6733 102.218 49.1V49.26C102.218 50.0467 102.798 50.44 103.958 50.44C104.651 50.44 105.444 50.3933 106.338 50.3C106.364 50.3 106.391 50.3 106.418 50.3C106.524 50.3 106.618 50.3467 106.698 50.44C106.791 50.52 106.838 50.6267 106.838 50.76V52.46C106.838 52.6733 106.791 52.8 106.698 52.84C106.618 52.8667 106.564 52.88 106.538 52.88C106.431 52.88 106.324 52.8267 106.218 52.72C105.644 52.2933 104.944 52.08 104.118 52.08C104.078 52.08 104.031 52.08 103.978 52.08C102.804 52.1067 102.218 52.64 102.218 53.68V54.22C102.218 54.8867 102.438 55.3867 102.878 55.72C103.318 56.0533 103.891 56.22 104.598 56.22C105.451 56.22 106.118 56.0867 106.598 55.82C107.078 55.54 107.504 55.0533 107.878 54.36C107.958 54.1733 108.084 54.08 108.258 54.08C108.284 54.08 108.351 54.0867 108.458 54.1C108.578 54.1133 108.651 54.2533 108.678 54.52C108.771 55.5067 108.838 56.8467 108.878 58.54C108.878 58.5667 108.878 58.5867 108.878 58.6C108.878 58.84 108.738 58.9733 108.458 59C107.724 59.0533 106.124 59.08 103.658 59.08C101.591 59.08 100.184 59.0533 99.4377 59C99.1043 58.9733 98.9377 58.8067 98.9377 58.5C98.991 52.94 99.1243 48.5867 99.3377 45.44ZM109.66 58.46C109.687 52.9 109.834 48.5733 110.1 45.48C110.114 45.2533 110.267 45.0933 110.56 45C110.814 44.9467 111.134 44.92 111.52 44.92C111.827 44.92 112.134 44.9467 112.44 45C112.814 45.0533 113.127 45.28 113.38 45.68C113.94 47.0933 114.534 48.4267 115.16 49.68C115.8 50.9333 116.28 51.56 116.6 51.56C116.787 51.56 116.9 51.3933 116.94 51.06C116.994 50.7267 117.02 50.4067 117.02 50.1C117.02 49.8333 117 49.4533 116.96 48.96C116.92 48.4667 116.86 47.92 116.78 47.32C116.7 46.7067 116.614 46.1467 116.52 45.64C116.52 45.6 116.52 45.56 116.52 45.52C116.52 45.2533 116.687 45.08 117.02 45C117.3 44.9467 117.674 44.92 118.14 44.92C118.527 44.92 118.88 44.9467 119.2 45C119.494 45.0667 119.66 45.2267 119.7 45.48C119.94 48.4 120.067 52.0867 120.08 56.54C120.08 58.2733 119.567 59.14 118.54 59.14C117.967 59.14 117.407 58.7867 116.86 58.08C116.314 57.3733 115.867 56.5933 115.52 55.74C115.174 54.8867 114.814 54.1067 114.44 53.4C114.067 52.6933 113.747 52.34 113.48 52.34C113.16 52.34 113 52.8333 113 53.82C113 55.02 113.12 56.5467 113.36 58.4C113.36 58.4267 113.36 58.46 113.36 58.5C113.36 58.78 113.187 58.9467 112.84 59C112.48 59.0533 112.027 59.08 111.48 59.08C111.027 59.08 110.594 59.0533 110.18 59C109.834 58.92 109.66 58.74 109.66 58.46ZM120.93 58.5C120.93 54.5533 121.057 50.2067 121.31 45.46C121.337 45.18 121.497 45.0267 121.79 45C122.643 44.9467 123.823 44.92 125.33 44.92C127.223 44.92 128.737 45.6133 129.87 47C131.017 48.3733 131.59 50.3 131.59 52.78C131.59 55.02 131.103 56.64 130.13 57.64C129.17 58.64 127.763 59.14 125.91 59.14C124.137 59.14 122.63 59.0933 121.39 59C121.27 58.9867 121.163 58.9333 121.07 58.84C120.977 58.7467 120.93 58.6333 120.93 58.5ZM124.31 54.64C124.337 55.3467 124.603 55.7067 125.11 55.72C125.27 55.7333 125.53 55.74 125.89 55.74C126.597 55.7267 127.17 55.4733 127.61 54.98C128.05 54.4733 128.27 53.6933 128.27 52.64C128.27 51.2267 128.023 50.1133 127.53 49.3C127.05 48.4867 126.41 48.0733 125.61 48.06C125.33 48.06 125.11 48.0667 124.95 48.08C124.55 48.08 124.337 48.3533 124.31 48.9C124.283 49.6733 124.27 50.54 124.27 51.5C124.27 52.46 124.283 53.5067 124.31 54.64Z" fill="#FBF2E6"/>
<rect x="185" y="38" width="217" height="78" rx="14" stroke="#35393C" stroke-width="2"/>
<path d="M223.252 54.52C223.252 52.8307 223.588 51.5053 224.26 50.544C224.932 49.5827 225.837 49.102 226.976 49.102C228.124 49.102 229.034 49.5827 229.706 50.544C230.378 51.5053 230.714 52.8307 230.714 54.52C230.714 57.572 229.468 59.098 226.976 59.098C224.493 59.098 223.252 57.572 223.252 54.52ZM225.058 54.422C225.058 56.3727 225.702 57.348 226.99 57.348C228.269 57.348 228.908 56.3727 228.908 54.422C228.908 53.3393 228.731 52.476 228.376 51.832C228.021 51.1787 227.559 50.852 226.99 50.852C226.421 50.852 225.954 51.1787 225.59 51.832C225.235 52.476 225.058 53.3393 225.058 54.422ZM231.545 49.508C231.545 49.3213 231.638 49.2187 231.825 49.2C232.739 49.1347 233.565 49.102 234.303 49.102C235.432 49.102 236.309 49.3027 236.935 49.704C237.56 50.1053 237.873 50.6887 237.873 51.454C237.873 52.4713 237.457 53.316 236.627 53.988C235.805 54.6507 234.723 55.0147 233.379 55.08C233.173 55.108 233.071 55.2853 233.071 55.612C233.071 56.088 233.136 56.6807 233.267 57.39C233.407 58.09 233.481 58.5053 233.491 58.636C233.491 58.6453 233.491 58.6593 233.491 58.678C233.491 58.7527 233.463 58.8227 233.407 58.888C233.351 58.944 233.276 58.9813 233.183 59C232.987 59.0373 232.73 59.056 232.413 59.056C232.049 59.056 231.783 59.0373 231.615 59C231.419 58.9533 231.321 58.8507 231.321 58.692C231.321 54.7533 231.395 51.692 231.545 49.508ZM233.141 53.442C233.169 53.666 233.29 53.778 233.505 53.778C233.542 53.778 233.579 53.7733 233.617 53.764C234.419 53.7173 235.045 53.5073 235.493 53.134C235.941 52.7513 236.165 52.2987 236.165 51.776C236.165 51.0107 235.549 50.628 234.317 50.628C234.13 50.628 233.878 50.6373 233.561 50.656C233.318 50.6653 233.178 50.796 233.141 51.048C233.103 51.3747 233.085 51.7387 233.085 52.14C233.085 52.5413 233.103 52.9753 233.141 53.442ZM238.613 49.48C238.632 49.312 238.739 49.2187 238.935 49.2C239.206 49.172 240.083 49.158 241.567 49.158C242.818 49.158 243.677 49.172 244.143 49.2C244.33 49.2187 244.437 49.3167 244.465 49.494C244.484 49.634 244.517 50.3527 244.563 51.65C244.563 51.6593 244.563 51.6733 244.563 51.692C244.563 51.8413 244.531 51.9253 244.465 51.944C244.4 51.9533 244.358 51.958 244.339 51.958C244.246 51.958 244.157 51.8927 244.073 51.762C243.663 51.0527 242.879 50.698 241.721 50.698C241.236 50.698 240.839 50.796 240.531 50.992C240.233 51.1787 240.083 51.454 240.083 51.818V51.958C240.083 52.266 240.195 52.5087 240.419 52.686C240.653 52.854 240.975 52.938 241.385 52.938C242.048 52.938 242.655 52.9007 243.205 52.826C243.215 52.826 243.229 52.826 243.247 52.826C243.322 52.826 243.387 52.854 243.443 52.91C243.509 52.9567 243.541 53.022 243.541 53.106V54.366C243.541 54.5247 243.513 54.6133 243.457 54.632C243.401 54.6413 243.369 54.646 243.359 54.646C243.275 54.646 243.191 54.5993 243.107 54.506C242.762 54.2073 242.207 54.058 241.441 54.058C241.031 54.0673 240.699 54.1747 240.447 54.38C240.195 54.5853 240.069 54.9073 240.069 55.346V55.822C240.069 56.382 240.247 56.7973 240.601 57.068C240.965 57.3293 241.423 57.46 241.973 57.46C242.636 57.46 243.14 57.362 243.485 57.166C243.831 56.9607 244.125 56.606 244.367 56.102C244.414 55.9993 244.465 55.9387 244.521 55.92C244.577 55.892 244.619 55.878 244.647 55.878C244.694 55.878 244.741 55.9013 244.787 55.948C244.843 55.9853 244.876 56.06 244.885 56.172C244.923 56.6013 244.965 57.4553 245.011 58.734C245.011 58.7433 245.011 58.7573 245.011 58.776C245.011 58.9067 244.923 58.9813 244.745 59C244.232 59.0373 243.173 59.056 241.567 59.056C240.111 59.056 239.155 59.0373 238.697 59C238.483 58.9813 238.375 58.8787 238.375 58.692C238.394 54.9027 238.473 51.832 238.613 49.48ZM245.901 49.536C245.91 49.368 246.013 49.256 246.209 49.2C246.368 49.1627 246.55 49.144 246.755 49.144C246.914 49.144 247.11 49.1627 247.343 49.2C247.604 49.2373 247.805 49.382 247.945 49.634C248.365 50.7073 248.841 51.762 249.373 52.798C249.914 53.834 250.297 54.352 250.521 54.352C250.67 54.352 250.759 54.2213 250.787 53.96C250.824 53.6987 250.843 53.4607 250.843 53.246C250.843 53.0127 250.824 52.686 250.787 52.266C250.75 51.8367 250.698 51.398 250.633 50.95C250.577 50.4927 250.512 50.054 250.437 49.634C250.428 49.606 250.423 49.578 250.423 49.55C250.423 49.3727 250.53 49.256 250.745 49.2C250.932 49.1627 251.142 49.144 251.375 49.144C251.534 49.144 251.706 49.1627 251.893 49.2C252.08 49.2467 252.187 49.3587 252.215 49.536C252.364 51.3653 252.439 53.904 252.439 57.152C252.43 58.4493 252.075 59.098 251.375 59.098C251.011 59.098 250.638 58.832 250.255 58.3C249.882 57.7587 249.564 57.166 249.303 56.522C249.042 55.8687 248.771 55.276 248.491 54.744C248.22 54.2027 247.992 53.932 247.805 53.932C247.581 53.932 247.46 54.3053 247.441 55.052C247.441 56.1813 247.525 57.3667 247.693 58.608C247.693 58.6267 247.693 58.6453 247.693 58.664C247.693 58.8507 247.576 58.9673 247.343 59.014C247.147 59.042 246.914 59.056 246.643 59.056C246.428 59.056 246.204 59.0373 245.971 59C245.747 58.944 245.635 58.8227 245.635 58.636C245.635 54.5853 245.724 51.552 245.901 49.536ZM256.619 49.48C256.638 49.312 256.745 49.2187 256.941 49.2C257.212 49.172 258.089 49.158 259.573 49.158C260.824 49.158 261.683 49.172 262.149 49.2C262.336 49.2187 262.443 49.3167 262.471 49.494C262.509 49.8673 262.541 50.586 262.569 51.65C262.569 51.6593 262.569 51.6733 262.569 51.692C262.569 51.8413 262.532 51.93 262.457 51.958C262.392 51.9767 262.35 51.986 262.331 51.986C262.238 51.986 262.154 51.9253 262.079 51.804C261.65 51.0667 260.866 50.698 259.727 50.698C259.242 50.698 258.845 50.796 258.537 50.992C258.239 51.1787 258.089 51.454 258.089 51.818V51.986C258.089 52.294 258.201 52.5507 258.425 52.756C258.659 52.9613 258.981 53.064 259.391 53.064C260.157 53.064 260.763 53.022 261.211 52.938C261.221 52.938 261.235 52.938 261.253 52.938C261.328 52.938 261.393 52.966 261.449 53.022C261.515 53.0687 261.547 53.1387 261.547 53.232V54.73C261.547 54.8887 261.519 54.9773 261.463 54.996C261.407 55.0053 261.375 55.01 261.365 55.01C261.281 55.01 261.197 54.9633 261.113 54.87C260.74 54.534 260.157 54.366 259.363 54.366C258.505 54.366 258.075 54.898 258.075 55.962C258.075 56.3167 258.103 56.6713 258.159 57.026C258.215 57.3713 258.281 57.7027 258.355 58.02C258.43 58.3373 258.477 58.552 258.495 58.664C258.495 58.692 258.495 58.7153 258.495 58.734C258.495 58.8833 258.407 58.972 258.229 59C258.033 59.0373 257.805 59.056 257.543 59.056C257.329 59.056 257.049 59.0373 256.703 59C256.489 58.9813 256.381 58.8787 256.381 58.692C256.4 54.9027 256.479 51.832 256.619 49.48ZM262.791 54.52C262.791 52.8307 263.127 51.5053 263.799 50.544C264.471 49.5827 265.376 49.102 266.515 49.102C267.663 49.102 268.573 49.5827 269.245 50.544C269.917 51.5053 270.253 52.8307 270.253 54.52C270.253 57.572 269.007 59.098 266.515 59.098C264.032 59.098 262.791 57.572 262.791 54.52ZM264.597 54.422C264.597 56.3727 265.241 57.348 266.529 57.348C267.808 57.348 268.447 56.3727 268.447 54.422C268.447 53.3393 268.27 52.476 267.915 51.832C267.56 51.1787 267.098 50.852 266.529 50.852C265.96 50.852 265.493 51.1787 265.129 51.832C264.774 52.476 264.597 53.3393 264.597 54.422ZM271.084 49.466C271.084 49.3913 271.112 49.326 271.168 49.27C271.233 49.214 271.303 49.1813 271.378 49.172C271.714 49.1347 272.577 49.116 273.968 49.116C276.301 49.116 277.468 49.8487 277.468 51.314C277.468 51.8927 277.276 52.4293 276.894 52.924C276.52 53.4187 275.993 53.778 275.312 54.002C275.209 54.0393 275.153 54.0767 275.144 54.114C275.144 54.1513 275.144 54.17 275.144 54.17C275.144 54.2353 275.195 54.2867 275.298 54.324C276.1 54.5947 276.67 55.066 277.006 55.738C277.342 56.4007 277.51 57.3713 277.51 58.65C277.51 58.8367 277.402 58.9533 277.188 59C276.964 59.0373 276.735 59.056 276.502 59.056C276.306 59.056 276.049 59.0373 275.732 59C275.498 58.944 275.382 58.8273 275.382 58.65C275.382 58.6033 275.382 58.5613 275.382 58.524C275.382 57.5627 275.172 56.6947 274.752 55.92C274.341 55.1453 273.837 54.758 273.24 54.758C273.09 54.758 272.969 54.8187 272.876 54.94C272.792 55.052 272.75 55.206 272.75 55.402C272.75 55.7567 272.764 56.1347 272.792 56.536C272.829 56.928 272.871 57.3387 272.918 57.768C272.964 58.188 272.997 58.4867 273.016 58.664C273.016 58.6827 273.016 58.7013 273.016 58.72C273.016 58.8693 272.913 58.9627 272.708 59C272.493 59.0373 272.232 59.056 271.924 59.056C271.588 59.056 271.336 59.0373 271.168 59C270.962 58.9533 270.86 58.8507 270.86 58.692C270.86 58.3653 270.934 55.29 271.084 49.466ZM272.708 53.008C272.736 53.2507 272.848 53.372 273.044 53.372C273.118 53.372 273.202 53.358 273.296 53.33C274.052 53.1993 274.64 52.994 275.06 52.714C275.48 52.434 275.69 52.1213 275.69 51.776C275.69 51.104 275.092 50.768 273.898 50.768C273.543 50.768 273.286 50.7773 273.128 50.796C272.876 50.8053 272.736 50.9407 272.708 51.202C272.68 51.5473 272.666 51.874 272.666 52.182C272.666 52.4807 272.68 52.756 272.708 53.008ZM278.691 49.536C278.701 49.3587 278.803 49.2467 278.999 49.2C279.223 49.1627 279.461 49.144 279.713 49.144C279.984 49.144 280.241 49.1627 280.483 49.2C280.661 49.228 280.787 49.27 280.861 49.326C280.945 49.3727 281.015 49.466 281.071 49.606C281.127 49.7647 281.193 49.998 281.267 50.306C281.342 50.6047 281.426 50.9593 281.519 51.37C281.622 51.7807 281.697 52.0793 281.743 52.266C282.089 53.5073 282.359 54.128 282.555 54.128C282.742 54.128 283.008 53.5027 283.353 52.252C283.4 52.0653 283.47 51.7713 283.563 51.37C283.666 50.9687 283.755 50.614 283.829 50.306C283.904 49.998 283.969 49.7647 284.025 49.606C284.053 49.5033 284.095 49.4287 284.151 49.382C284.217 49.326 284.277 49.2887 284.333 49.27C284.399 49.242 284.492 49.2187 284.613 49.2C284.856 49.1627 285.099 49.144 285.341 49.144C285.603 49.144 285.855 49.1627 286.097 49.2C286.293 49.2467 286.396 49.3587 286.405 49.536C286.695 52.4387 286.867 55.472 286.923 58.636C286.923 58.832 286.83 58.9533 286.643 59C286.447 59.0373 286.205 59.056 285.915 59.056C285.654 59.056 285.402 59.0373 285.159 59C284.945 58.9533 284.837 58.8507 284.837 58.692C284.837 58.6733 284.837 58.6547 284.837 58.636C284.931 57.8893 284.977 57.068 284.977 56.172C284.977 55.892 284.973 55.6073 284.963 55.318C284.935 54.5247 284.903 53.9693 284.865 53.652C284.828 53.3253 284.763 53.162 284.669 53.162C284.623 53.162 284.576 53.1947 284.529 53.26C284.492 53.3253 284.45 53.428 284.403 53.568C284.366 53.708 284.329 53.8433 284.291 53.974C284.263 54.0953 284.221 54.268 284.165 54.492C284.119 54.716 284.081 54.8933 284.053 55.024C283.904 55.5187 283.685 56.144 283.395 56.9C283.19 57.3667 282.91 57.6 282.555 57.6C282.21 57.6 281.93 57.3667 281.715 56.9C281.398 56.06 281.179 55.4393 281.057 55.038C281.039 54.9633 281.015 54.8653 280.987 54.744C280.959 54.6133 280.936 54.5107 280.917 54.436C280.899 54.352 280.875 54.2587 280.847 54.156C280.829 54.044 280.81 53.9507 280.791 53.876C280.773 53.8013 280.749 53.722 280.721 53.638C280.693 53.554 280.665 53.4887 280.637 53.442C280.619 53.386 280.595 53.3347 280.567 53.288C280.549 53.2413 280.525 53.2087 280.497 53.19C280.479 53.162 280.455 53.148 280.427 53.148C280.334 53.148 280.269 53.3113 280.231 53.638C280.194 53.9647 280.161 54.5247 280.133 55.318C280.124 55.6073 280.119 55.892 280.119 56.172C280.119 57.068 280.166 57.8893 280.259 58.636C280.259 58.6547 280.259 58.6733 280.259 58.692C280.259 58.8507 280.152 58.9533 279.937 59C279.695 59.0373 279.452 59.056 279.209 59.056C278.901 59.056 278.649 59.0373 278.453 59C278.267 58.9533 278.173 58.832 278.173 58.636C278.229 55.444 278.402 52.4107 278.691 49.536ZM287.454 58.636C288.677 54.5293 289.629 51.482 290.31 49.494C290.357 49.3447 290.492 49.2467 290.716 49.2C290.959 49.1627 291.16 49.144 291.318 49.144C291.393 49.144 291.617 49.1627 291.99 49.2C292.121 49.228 292.186 49.2887 292.186 49.382C292.186 49.41 292.182 49.4427 292.172 49.48C290.959 53.512 290.012 56.564 289.33 58.636C289.256 58.8507 289.116 58.972 288.91 59C288.64 59.0373 288.397 59.056 288.182 59.056C288.042 59.056 287.86 59.0373 287.636 59C287.506 58.9813 287.44 58.9067 287.44 58.776C287.44 58.7387 287.445 58.692 287.454 58.636ZM223.574 61.508C223.574 61.4333 223.602 61.368 223.658 61.312C223.714 61.2467 223.784 61.2093 223.868 61.2C224.381 61.1627 225.184 61.144 226.276 61.144C227.536 61.144 228.544 61.6293 229.3 62.6C230.065 63.5707 230.448 64.924 230.448 66.66C230.448 69.6187 229.207 71.098 226.724 71.098C225.408 71.098 224.381 71.0653 223.644 71C223.448 70.9813 223.35 70.874 223.35 70.678C223.35 68.326 223.425 65.2693 223.574 61.508ZM225.17 68.214C225.179 68.858 225.408 69.1847 225.856 69.194C226.024 69.2033 226.29 69.208 226.654 69.208C227.251 69.208 227.732 68.998 228.096 68.578C228.469 68.1487 228.656 67.4813 228.656 66.576C228.656 65.456 228.441 64.5693 228.012 63.916C227.592 63.2533 227.041 62.9173 226.36 62.908C226.304 62.908 226.243 62.908 226.178 62.908C226.047 62.908 225.893 62.9127 225.716 62.922C225.371 62.9313 225.189 63.1787 225.17 63.664C225.151 64.3173 225.142 65.022 225.142 65.778C225.142 66.534 225.151 67.346 225.17 68.214ZM231.285 61.48C231.304 61.312 231.411 61.2187 231.607 61.2C231.878 61.172 232.755 61.158 234.239 61.158C235.49 61.158 236.349 61.172 236.815 61.2C237.002 61.2187 237.109 61.3167 237.137 61.494C237.156 61.634 237.189 62.3527 237.235 63.65C237.235 63.6593 237.235 63.6733 237.235 63.692C237.235 63.8413 237.203 63.9253 237.137 63.944C237.072 63.9533 237.03 63.958 237.011 63.958C236.918 63.958 236.829 63.8927 236.745 63.762C236.335 63.0527 235.551 62.698 234.393 62.698C233.908 62.698 233.511 62.796 233.203 62.992C232.905 63.1787 232.755 63.454 232.755 63.818V63.958C232.755 64.266 232.867 64.5087 233.091 64.686C233.325 64.854 233.647 64.938 234.057 64.938C234.72 64.938 235.327 64.9007 235.877 64.826C235.887 64.826 235.901 64.826 235.919 64.826C235.994 64.826 236.059 64.854 236.115 64.91C236.181 64.9567 236.213 65.022 236.213 65.106V66.366C236.213 66.5247 236.185 66.6133 236.129 66.632C236.073 66.6413 236.041 66.646 236.031 66.646C235.947 66.646 235.863 66.5993 235.779 66.506C235.434 66.2073 234.879 66.058 234.113 66.058C233.703 66.0673 233.371 66.1747 233.119 66.38C232.867 66.5853 232.741 66.9073 232.741 67.346V67.822C232.741 68.382 232.919 68.7973 233.273 69.068C233.637 69.3293 234.095 69.46 234.645 69.46C235.308 69.46 235.812 69.362 236.157 69.166C236.503 68.9607 236.797 68.606 237.039 68.102C237.086 67.9993 237.137 67.9387 237.193 67.92C237.249 67.892 237.291 67.878 237.319 67.878C237.366 67.878 237.413 67.9013 237.459 67.948C237.515 67.9853 237.548 68.06 237.557 68.172C237.595 68.6013 237.637 69.4553 237.683 70.734C237.683 70.7433 237.683 70.7573 237.683 70.776C237.683 70.9067 237.595 70.9813 237.417 71C236.904 71.0373 235.845 71.056 234.239 71.056C232.783 71.056 231.827 71.0373 231.369 71C231.155 70.9813 231.047 70.8787 231.047 70.692C231.066 66.9027 231.145 63.832 231.285 61.48ZM238.195 70.65C238.494 69.0073 238.881 67.346 239.357 65.666C239.842 63.9767 240.328 62.5673 240.813 61.438C240.869 61.3073 240.972 61.228 241.121 61.2C241.336 61.1627 241.583 61.144 241.863 61.144C242.143 61.144 242.395 61.1627 242.619 61.2C242.768 61.228 242.871 61.3073 242.927 61.438C243.403 62.558 243.879 63.9627 244.355 65.652C244.84 67.332 245.237 69.0027 245.545 70.664C245.554 70.7013 245.559 70.7387 245.559 70.776C245.559 70.916 245.47 70.9953 245.293 71.014C245.125 71.042 244.882 71.056 244.565 71.056C244.322 71.056 244.061 71.0373 243.781 71C243.622 70.9627 243.543 70.8787 243.543 70.748C243.552 70.6173 243.557 70.4867 243.557 70.356C243.557 69.908 243.506 69.4553 243.403 68.998C243.254 68.6527 242.904 68.4707 242.353 68.452H241.373C240.86 68.4613 240.514 68.6433 240.337 68.998C240.225 69.446 240.169 69.922 240.169 70.426C240.169 70.5287 240.174 70.636 240.183 70.748C240.183 70.7573 240.183 70.762 240.183 70.762C240.183 70.8833 240.099 70.9627 239.931 71C239.67 71.0373 239.394 71.056 239.105 71.056C238.89 71.056 238.671 71.0373 238.447 71C238.26 70.9627 238.167 70.8833 238.167 70.762C238.167 70.7247 238.176 70.6873 238.195 70.65ZM241.079 67.248C241.191 67.3693 241.382 67.4393 241.653 67.458H242.073C242.334 67.4487 242.512 67.3927 242.605 67.29C242.708 67.178 242.759 67.066 242.759 66.954C242.759 66.898 242.75 66.8373 242.731 66.772C242.647 66.1093 242.451 65.1947 242.143 64.028C242.087 63.8507 242.031 63.7387 241.975 63.692C241.928 63.6453 241.891 63.622 241.863 63.622C241.826 63.622 241.779 63.6453 241.723 63.692C241.676 63.7387 241.625 63.8507 241.569 64.028C241.298 65.0733 241.112 65.988 241.009 66.772C240.981 66.8467 240.967 66.9167 240.967 66.982C240.967 67.0847 241.004 67.1733 241.079 67.248ZM246.351 61.508C246.351 61.4333 246.379 61.368 246.435 61.312C246.491 61.2467 246.561 61.2093 246.645 61.2C247.159 61.1627 247.961 61.144 249.053 61.144C250.313 61.144 251.321 61.6293 252.077 62.6C252.843 63.5707 253.225 64.924 253.225 66.66C253.225 69.6187 251.984 71.098 249.501 71.098C248.185 71.098 247.159 71.0653 246.421 71C246.225 70.9813 246.127 70.874 246.127 70.678C246.127 68.326 246.202 65.2693 246.351 61.508ZM247.947 68.214C247.957 68.858 248.185 69.1847 248.633 69.194C248.801 69.2033 249.067 69.208 249.431 69.208C250.029 69.208 250.509 68.998 250.873 68.578C251.247 68.1487 251.433 67.4813 251.433 66.576C251.433 65.456 251.219 64.5693 250.789 63.916C250.369 63.2533 249.819 62.9173 249.137 62.908C249.081 62.908 249.021 62.908 248.955 62.908C248.825 62.908 248.671 62.9127 248.493 62.922C248.148 62.9313 247.966 63.1787 247.947 63.664C247.929 64.3173 247.919 65.022 247.919 65.778C247.919 66.534 247.929 67.346 247.947 68.214ZM254.063 61.48C254.072 61.3307 254.179 61.2373 254.385 61.2C254.618 61.172 254.879 61.158 255.169 61.158C255.411 61.158 255.631 61.172 255.827 61.2C255.92 61.2187 255.99 61.256 256.037 61.312C256.093 61.3587 256.121 61.4147 256.121 61.48C256.121 61.4987 256.121 61.5173 256.121 61.536C255.719 63.888 255.519 65.8853 255.519 67.528C255.519 67.5653 255.519 67.6027 255.519 67.64C255.528 68.8533 256.163 69.46 257.423 69.46C258.067 69.46 258.557 69.3573 258.893 69.152C259.238 68.9467 259.532 68.5967 259.775 68.102C259.803 68.0273 259.84 67.9713 259.887 67.934C259.943 67.8967 259.999 67.878 260.055 67.878C260.055 67.878 260.069 67.8827 260.097 67.892C260.134 67.892 260.171 67.92 260.209 67.976C260.255 68.0227 260.283 68.088 260.293 68.172C260.33 68.6013 260.372 69.4553 260.419 70.734C260.419 70.902 260.33 70.9907 260.153 71C259.63 71.0373 258.585 71.056 257.017 71.056C255.561 71.056 254.604 71.0373 254.147 71C253.932 70.9813 253.825 70.8787 253.825 70.692C253.843 66.9027 253.923 63.832 254.063 61.48ZM261.156 61.508C261.165 61.3587 261.268 61.256 261.464 61.2C261.613 61.1627 261.791 61.144 261.996 61.144C262.145 61.144 262.313 61.1627 262.5 61.2C262.687 61.2467 262.78 61.3493 262.78 61.508C262.892 64.868 262.948 67.9107 262.948 70.636C262.948 70.8413 262.845 70.9627 262.64 71C262.453 71.0373 262.234 71.056 261.982 71.056C261.814 71.056 261.59 71.0373 261.31 71C261.095 70.9627 260.988 70.8413 260.988 70.636C260.988 67.9107 261.044 64.868 261.156 61.508ZM263.893 61.536C263.903 61.368 264.005 61.256 264.201 61.2C264.36 61.1627 264.542 61.144 264.747 61.144C264.906 61.144 265.102 61.1627 265.335 61.2C265.597 61.2373 265.797 61.382 265.937 61.634C266.357 62.7073 266.833 63.762 267.365 64.798C267.907 65.834 268.289 66.352 268.513 66.352C268.663 66.352 268.751 66.2213 268.779 65.96C268.817 65.6987 268.835 65.4607 268.835 65.246C268.835 65.0127 268.817 64.686 268.779 64.266C268.742 63.8367 268.691 63.398 268.625 62.95C268.569 62.4927 268.504 62.054 268.429 61.634C268.42 61.606 268.415 61.578 268.415 61.55C268.415 61.3727 268.523 61.256 268.737 61.2C268.924 61.1627 269.134 61.144 269.367 61.144C269.526 61.144 269.699 61.1627 269.885 61.2C270.072 61.2467 270.179 61.3587 270.207 61.536C270.357 63.3653 270.431 65.904 270.431 69.152C270.422 70.4493 270.067 71.098 269.367 71.098C269.003 71.098 268.63 70.832 268.247 70.3C267.874 69.7587 267.557 69.166 267.295 68.522C267.034 67.8687 266.763 67.276 266.483 66.744C266.213 66.2027 265.984 65.932 265.797 65.932C265.573 65.932 265.452 66.3053 265.433 67.052C265.433 68.1813 265.517 69.3667 265.685 70.608C265.685 70.6267 265.685 70.6453 265.685 70.664C265.685 70.8507 265.569 70.9673 265.335 71.014C265.139 71.042 264.906 71.056 264.635 71.056C264.421 71.056 264.197 71.0373 263.963 71C263.739 70.944 263.627 70.8227 263.627 70.636C263.627 66.5853 263.716 63.552 263.893 61.536ZM271.358 61.48C271.376 61.312 271.484 61.2187 271.68 61.2C271.95 61.172 272.828 61.158 274.312 61.158C275.562 61.158 276.421 61.172 276.888 61.2C277.074 61.2187 277.182 61.3167 277.21 61.494C277.228 61.634 277.261 62.3527 277.308 63.65C277.308 63.6593 277.308 63.6733 277.308 63.692C277.308 63.8413 277.275 63.9253 277.21 63.944C277.144 63.9533 277.102 63.958 277.084 63.958C276.99 63.958 276.902 63.8927 276.818 63.762C276.407 63.0527 275.623 62.698 274.466 62.698C273.98 62.698 273.584 62.796 273.276 62.992C272.977 63.1787 272.828 63.454 272.828 63.818V63.958C272.828 64.266 272.94 64.5087 273.164 64.686C273.397 64.854 273.719 64.938 274.13 64.938C274.792 64.938 275.399 64.9007 275.95 64.826C275.959 64.826 275.973 64.826 275.992 64.826C276.066 64.826 276.132 64.854 276.188 64.91C276.253 64.9567 276.286 65.022 276.286 65.106V66.366C276.286 66.5247 276.258 66.6133 276.202 66.632C276.146 66.6413 276.113 66.646 276.104 66.646C276.02 66.646 275.936 66.5993 275.852 66.506C275.506 66.2073 274.951 66.058 274.186 66.058C273.775 66.0673 273.444 66.1747 273.192 66.38C272.94 66.5853 272.814 66.9073 272.814 67.346V67.822C272.814 68.382 272.991 68.7973 273.346 69.068C273.71 69.3293 274.167 69.46 274.718 69.46C275.38 69.46 275.884 69.362 276.23 69.166C276.575 68.9607 276.869 68.606 277.112 68.102C277.158 67.9993 277.21 67.9387 277.266 67.92C277.322 67.892 277.364 67.878 277.392 67.878C277.438 67.878 277.485 67.9013 277.532 67.948C277.588 67.9853 277.62 68.06 277.63 68.172C277.667 68.6013 277.709 69.4553 277.756 70.734C277.756 70.7433 277.756 70.7573 277.756 70.776C277.756 70.9067 277.667 70.9813 277.49 71C276.976 71.0373 275.917 71.056 274.312 71.056C272.856 71.056 271.899 71.0373 271.442 71C271.227 70.9813 271.12 70.8787 271.12 70.692C271.138 66.9027 271.218 63.832 271.358 61.48Z" fill="#35393C"/>
<path d="M206.411 52.7021C207.27 51.7816 208.73 51.7816 209.589 52.7021V52.7021C210.1 53.2494 210.857 53.4953 211.592 53.3528V53.3528C212.828 53.1132 214.009 53.971 214.163 55.2209V55.2209C214.255 55.964 214.722 56.6077 215.401 56.9245V56.9245C216.542 57.4574 216.993 58.8453 216.383 59.9471V59.9471C216.02 60.6022 216.02 61.3978 216.383 62.0529V62.0529C216.993 63.1547 216.542 64.5426 215.401 65.0755V65.0755C214.722 65.3923 214.255 66.036 214.163 66.7791V66.7791C214.009 68.029 212.828 68.8868 211.592 68.6472V68.6472C210.857 68.5047 210.1 68.7506 209.589 69.2979V69.2979C208.73 70.2184 207.27 70.2184 206.411 69.2979V69.2979C205.9 68.7506 205.143 68.5047 204.408 68.6472V68.6472C203.172 68.8868 201.991 68.029 201.837 66.7791V66.7791C201.745 66.036 201.278 65.3923 200.599 65.0755V65.0755C199.458 64.5426 199.007 63.1547 199.617 62.0529V62.0529C199.98 61.3978 199.98 60.6022 199.617 59.9471V59.9471C199.007 58.8453 199.458 57.4574 200.599 56.9245V56.9245C201.278 56.6077 201.745 55.964 201.837 55.2209V55.2209C201.991 53.971 203.172 53.1132 204.408 53.3528V53.3528C205.143 53.4953 205.9 53.2494 206.411 52.7021V52.7021Z" fill="#FF706E"/>
<path d="M223.448 87.2C223.644 87.1627 223.891 87.144 224.19 87.144C224.433 87.144 224.666 87.1627 224.89 87.2C225.067 87.228 225.156 87.3447 225.156 87.55C225.175 88.2873 225.273 89.37 225.45 90.798C225.543 92.2447 225.688 92.968 225.884 92.968C225.931 92.968 225.973 92.9307 226.01 92.856C226.047 92.7813 226.085 92.6693 226.122 92.52C226.159 92.3613 226.192 92.212 226.22 92.072C226.248 91.9227 226.281 91.736 226.318 91.512C226.355 91.2787 226.388 91.1013 226.416 90.98C226.519 90.532 226.691 89.8413 226.934 88.908C227.027 88.4973 227.135 88.2033 227.256 88.026C227.387 87.8393 227.569 87.746 227.802 87.746C228.035 87.746 228.213 87.8347 228.334 88.012C228.465 88.1893 228.577 88.488 228.67 88.908C228.717 89.132 228.801 89.482 228.922 89.958C229.043 90.4247 229.127 90.7607 229.174 90.966C229.361 92.1047 229.51 92.7487 229.622 92.898C229.65 92.9447 229.683 92.968 229.72 92.968C229.888 92.968 230.033 92.2633 230.154 90.854C230.341 89.118 230.434 88.0167 230.434 87.55C230.434 87.354 230.537 87.2373 230.742 87.2C230.966 87.1627 231.209 87.144 231.47 87.144C231.731 87.144 231.974 87.1627 232.198 87.2C232.347 87.2373 232.422 87.3353 232.422 87.494C232.422 87.5127 232.422 87.536 232.422 87.564C232.189 90.8027 231.755 93.8407 231.12 96.678C231.064 96.8647 230.947 96.972 230.77 97C230.583 97.0373 230.364 97.056 230.112 97.056C229.869 97.056 229.617 97.0373 229.356 97C229.235 96.9813 229.141 96.9627 229.076 96.944C229.02 96.9253 228.964 96.888 228.908 96.832C228.852 96.7667 228.815 96.6827 228.796 96.58C228.768 96.4213 228.731 96.188 228.684 95.88C228.637 95.5627 228.581 95.208 228.516 94.816C228.46 94.424 228.418 94.13 228.39 93.934C228.157 92.5993 227.961 91.932 227.802 91.932C227.643 91.932 227.457 92.5433 227.242 93.766C227.233 93.8407 227.223 93.8967 227.214 93.934C227.074 94.9887 226.929 95.8707 226.78 96.58C226.752 96.72 226.701 96.818 226.626 96.874C226.551 96.93 226.425 96.972 226.248 97C225.987 97.0373 225.744 97.056 225.52 97.056C225.361 97.056 225.142 97.0373 224.862 97C224.694 96.9533 224.582 96.846 224.526 96.678C224.265 95.5487 224.008 94.1393 223.756 92.45C223.513 90.7607 223.336 89.132 223.224 87.564C223.224 87.536 223.224 87.5127 223.224 87.494C223.224 87.3353 223.299 87.2373 223.448 87.2ZM232.535 92.52C232.535 90.8307 232.871 89.5053 233.543 88.544C234.215 87.5827 235.121 87.102 236.259 87.102C237.407 87.102 238.317 87.5827 238.989 88.544C239.661 89.5053 239.997 90.8307 239.997 92.52C239.997 95.572 238.751 97.098 236.259 97.098C233.777 97.098 232.535 95.572 232.535 92.52ZM234.341 92.422C234.341 94.3727 234.985 95.348 236.273 95.348C237.552 95.348 238.191 94.3727 238.191 92.422C238.191 91.3393 238.014 90.476 237.659 89.832C237.305 89.1787 236.843 88.852 236.273 88.852C235.704 88.852 235.237 89.1787 234.873 89.832C234.519 90.476 234.341 91.3393 234.341 92.422ZM240.828 87.466C240.828 87.3913 240.856 87.326 240.912 87.27C240.977 87.214 241.047 87.1813 241.122 87.172C241.458 87.1347 242.321 87.116 243.712 87.116C246.045 87.116 247.212 87.8487 247.212 89.314C247.212 89.8927 247.021 90.4293 246.638 90.924C246.265 91.4187 245.737 91.778 245.056 92.002C244.953 92.0393 244.897 92.0767 244.888 92.114C244.888 92.1513 244.888 92.17 244.888 92.17C244.888 92.2353 244.939 92.2867 245.042 92.324C245.845 92.5947 246.414 93.066 246.75 93.738C247.086 94.4007 247.254 95.3713 247.254 96.65C247.254 96.8367 247.147 96.9533 246.932 97C246.708 97.0373 246.479 97.056 246.246 97.056C246.05 97.056 245.793 97.0373 245.476 97C245.243 96.944 245.126 96.8273 245.126 96.65C245.126 96.6033 245.126 96.5613 245.126 96.524C245.126 95.5627 244.916 94.6947 244.496 93.92C244.085 93.1453 243.581 92.758 242.984 92.758C242.835 92.758 242.713 92.8187 242.62 92.94C242.536 93.052 242.494 93.206 242.494 93.402C242.494 93.7567 242.508 94.1347 242.536 94.536C242.573 94.928 242.615 95.3387 242.662 95.768C242.709 96.188 242.741 96.4867 242.76 96.664C242.76 96.6827 242.76 96.7013 242.76 96.72C242.76 96.8693 242.657 96.9627 242.452 97C242.237 97.0373 241.976 97.056 241.668 97.056C241.332 97.056 241.08 97.0373 240.912 97C240.707 96.9533 240.604 96.8507 240.604 96.692C240.604 96.3653 240.679 93.29 240.828 87.466ZM242.452 91.008C242.48 91.2507 242.592 91.372 242.788 91.372C242.863 91.372 242.947 91.358 243.04 91.33C243.796 91.1993 244.384 90.994 244.804 90.714C245.224 90.434 245.434 90.1213 245.434 89.776C245.434 89.104 244.837 88.768 243.642 88.768C243.287 88.768 243.031 88.7773 242.872 88.796C242.62 88.8053 242.48 88.9407 242.452 89.202C242.424 89.5473 242.41 89.874 242.41 90.182C242.41 90.4807 242.424 90.756 242.452 91.008ZM248.155 87.508C248.155 87.34 248.239 87.2373 248.407 87.2C248.585 87.1627 248.799 87.144 249.051 87.144C249.387 87.144 249.644 87.1627 249.821 87.2C250.008 87.2373 250.101 87.3353 250.101 87.494C250.101 87.522 250.101 87.5453 250.101 87.564C249.924 88.488 249.835 89.2533 249.835 89.86C249.835 90.0933 249.901 90.2847 250.031 90.434C250.162 90.5833 250.316 90.658 250.493 90.658C251.091 90.658 251.59 90.3407 251.991 89.706C252.402 89.0713 252.64 88.3527 252.705 87.55C252.715 87.3353 252.822 87.214 253.027 87.186C253.251 87.158 253.475 87.144 253.699 87.144C253.914 87.144 254.133 87.158 254.357 87.186C254.581 87.2327 254.693 87.3587 254.693 87.564C254.684 88.6093 254.479 89.44 254.077 90.056C253.676 90.672 253.023 91.1247 252.117 91.414C252.005 91.47 251.949 91.5353 251.949 91.61C251.949 91.6753 252.01 91.736 252.131 91.792C253.13 92.0533 253.863 92.5433 254.329 93.262C254.805 93.9807 255.053 95.1007 255.071 96.622C255.071 96.6313 255.071 96.636 255.071 96.636C255.071 96.8133 254.955 96.9347 254.721 97C254.581 97.028 254.329 97.042 253.965 97.042C253.555 97.042 253.275 97.028 253.125 97C252.892 96.9533 252.775 96.8367 252.775 96.65C252.729 95.6233 252.463 94.704 251.977 93.892C251.501 93.08 250.96 92.674 250.353 92.674C250.213 92.674 250.092 92.7673 249.989 92.954C249.887 93.1313 249.835 93.332 249.835 93.556C249.835 93.8827 249.849 94.2047 249.877 94.522C249.905 94.83 249.952 95.2267 250.017 95.712C250.083 96.188 250.125 96.5007 250.143 96.65C250.143 96.6687 250.143 96.6873 250.143 96.706C250.143 96.8647 250.045 96.9627 249.849 97C249.672 97.0373 249.42 97.056 249.093 97.056C248.748 97.056 248.468 97.0373 248.253 97C248.057 96.9627 247.959 96.8413 247.959 96.636C247.959 93.332 248.025 90.2893 248.155 87.508ZM255.477 96.076C255.477 95.348 255.482 94.802 255.491 94.438C255.491 94.2513 255.524 94.1487 255.589 94.13C255.664 94.102 255.715 94.088 255.743 94.088C255.827 94.088 255.902 94.1393 255.967 94.242C256.648 95.054 257.591 95.46 258.795 95.46C259.299 95.46 259.696 95.3667 259.985 95.18C260.274 94.9933 260.419 94.7227 260.419 94.368C260.419 94.0133 260.256 93.7007 259.929 93.43C259.602 93.15 259.206 92.9073 258.739 92.702C258.282 92.4873 257.82 92.2587 257.353 92.016C256.896 91.7733 256.504 91.4513 256.177 91.05C255.85 90.6393 255.687 90.1633 255.687 89.622C255.687 88.8193 256 88.1987 256.625 87.76C257.25 87.3213 258.053 87.102 259.033 87.102C259.994 87.102 260.82 87.2793 261.511 87.634C261.651 87.7273 261.721 87.858 261.721 88.026V89.468C261.721 89.6453 261.684 89.748 261.609 89.776C261.544 89.804 261.497 89.818 261.469 89.818C261.394 89.818 261.32 89.7667 261.245 89.664C260.638 89.048 259.929 88.74 259.117 88.74C258.678 88.74 258.296 88.824 257.969 88.992C257.652 89.16 257.493 89.3933 257.493 89.692C257.493 90 257.656 90.2893 257.983 90.56C258.31 90.8307 258.706 91.0827 259.173 91.316C259.649 91.5493 260.12 91.7967 260.587 92.058C261.054 92.3193 261.45 92.66 261.777 93.08C262.104 93.4907 262.267 93.9527 262.267 94.466C262.267 95.278 261.959 95.922 261.343 96.398C260.736 96.8647 259.915 97.098 258.879 97.098C258.384 97.098 257.834 97.042 257.227 96.93C256.62 96.8087 256.102 96.6547 255.673 96.468C255.542 96.412 255.477 96.2813 255.477 96.076ZM263.099 87.508C263.127 87.3307 263.234 87.228 263.421 87.2C263.608 87.1627 263.79 87.144 263.967 87.144C264.144 87.144 264.354 87.1627 264.597 87.2C264.784 87.2467 264.877 87.3493 264.877 87.508C264.877 87.5173 264.877 87.5267 264.877 87.536C264.793 88.3573 264.751 89.3093 264.751 90.392C264.751 90.9147 265.101 91.1853 265.801 91.204C265.96 91.2133 266.123 91.218 266.291 91.218C266.44 91.218 266.594 91.2133 266.753 91.204C267.481 91.1853 267.845 90.9147 267.845 90.392C267.845 89.496 267.803 88.5347 267.719 87.508C267.719 87.4893 267.719 87.4753 267.719 87.466C267.719 87.298 267.817 87.2 268.013 87.172C268.162 87.1533 268.377 87.144 268.657 87.144C268.89 87.144 269.063 87.1533 269.175 87.172C269.39 87.2 269.497 87.3073 269.497 87.494C269.646 89.5193 269.721 92.5667 269.721 96.636C269.721 96.8413 269.614 96.9627 269.399 97C269.203 97.0373 268.965 97.056 268.685 97.056C268.34 97.056 268.078 97.0373 267.901 97C267.714 96.972 267.621 96.874 267.621 96.706C267.621 96.678 267.626 96.65 267.635 96.622C267.766 95.4647 267.831 94.4893 267.831 93.696C267.831 93.192 267.472 92.9307 266.753 92.912C266.594 92.9027 266.436 92.898 266.277 92.898C266.109 92.898 265.946 92.9027 265.787 92.912C265.115 92.9307 264.779 93.192 264.779 93.696C264.779 94.5547 264.84 95.53 264.961 96.622C264.961 96.65 264.961 96.6733 264.961 96.692C264.961 96.86 264.872 96.9627 264.695 97C264.518 97.0373 264.247 97.056 263.883 97.056C263.631 97.056 263.407 97.0373 263.211 97C262.996 96.9627 262.889 96.8413 262.889 96.636C262.889 92.3053 262.959 89.2627 263.099 87.508ZM270.324 92.52C270.324 90.8307 270.66 89.5053 271.332 88.544C272.004 87.5827 272.91 87.102 274.048 87.102C275.196 87.102 276.106 87.5827 276.778 88.544C277.45 89.5053 277.786 90.8307 277.786 92.52C277.786 95.572 276.54 97.098 274.048 97.098C271.566 97.098 270.324 95.572 270.324 92.52ZM272.13 92.422C272.13 94.3727 272.774 95.348 274.062 95.348C275.341 95.348 275.98 94.3727 275.98 92.422C275.98 91.3393 275.803 90.476 275.448 89.832C275.094 89.1787 274.632 88.852 274.062 88.852C273.493 88.852 273.026 89.1787 272.662 89.832C272.308 90.476 272.13 91.3393 272.13 92.422ZM278.617 87.508C278.617 87.3213 278.71 87.2187 278.897 87.2C279.812 87.1347 280.638 87.102 281.375 87.102C282.504 87.102 283.382 87.3027 284.007 87.704C284.632 88.1053 284.945 88.6887 284.945 89.454C284.945 90.4713 284.53 91.316 283.699 91.988C282.878 92.6507 281.795 93.0147 280.451 93.08C280.246 93.108 280.143 93.2853 280.143 93.612C280.143 94.088 280.208 94.6807 280.339 95.39C280.479 96.09 280.554 96.5053 280.563 96.636C280.563 96.6453 280.563 96.6593 280.563 96.678C280.563 96.7527 280.535 96.8227 280.479 96.888C280.423 96.944 280.348 96.9813 280.255 97C280.059 97.0373 279.802 97.056 279.485 97.056C279.121 97.056 278.855 97.0373 278.687 97C278.491 96.9533 278.393 96.8507 278.393 96.692C278.393 92.7533 278.468 89.692 278.617 87.508ZM280.213 91.442C280.241 91.666 280.362 91.778 280.577 91.778C280.614 91.778 280.652 91.7733 280.689 91.764C281.492 91.7173 282.117 91.5073 282.565 91.134C283.013 90.7513 283.237 90.2987 283.237 89.776C283.237 89.0107 282.621 88.628 281.389 88.628C281.202 88.628 280.95 88.6373 280.633 88.656C280.39 88.6653 280.25 88.796 280.213 89.048C280.176 89.3747 280.157 89.7387 280.157 90.14C280.157 90.5413 280.176 90.9753 280.213 91.442Z" fill="#35393C"/>
<path d="M206.411 84.7021C207.27 83.7816 208.73 83.7816 209.589 84.7021V84.7021C210.1 85.2494 210.857 85.4953 211.592 85.3528V85.3528C212.828 85.1132 214.009 85.971 214.163 87.2209V87.2209C214.255 87.964 214.722 88.6077 215.401 88.9245V88.9245C216.542 89.4574 216.993 90.8453 216.383 91.9471V91.9471C216.02 92.6022 216.02 93.3978 216.383 94.0529V94.0529C216.993 95.1547 216.542 96.5426 215.401 97.0755V97.0755C214.722 97.3923 214.255 98.036 214.163 98.7791V98.7791C214.009 100.029 212.828 100.887 211.592 100.647V100.647C210.857 100.505 210.1 100.751 209.589 101.298V101.298C208.73 102.218 207.27 102.218 206.411 101.298V101.298C205.9 100.751 205.143 100.505 204.408 100.647V100.647C203.172 100.887 201.991 100.029 201.837 98.7791V98.7791C201.745 98.036 201.278 97.3923 200.599 97.0755V97.0755C199.458 96.5426 199.007 95.1547 199.617 94.0529V94.0529C199.98 93.3978 199.98 92.6022 199.617 91.9471V91.9471C199.007 90.8453 199.458 89.4574 200.599 88.9245V88.9245C201.278 88.6077 201.745 87.964 201.837 87.2209V87.2209C201.991 85.971 203.172 85.1132 204.408 85.3528V85.3528C205.143 85.4953 205.9 85.2494 206.411 84.7021V84.7021Z" fill="#FCA71F"/>
<path d="M337.33 82.558C338.039 81.5967 338.977 81.1113 340.144 81.102C341.059 81.102 341.857 81.3027 342.538 81.704C342.687 81.816 342.762 81.9793 342.762 82.194C342.762 82.2127 342.762 82.236 342.762 82.264C342.753 82.4413 342.725 82.7633 342.678 83.23C342.631 83.6873 342.608 83.9253 342.608 83.944C342.599 84.112 342.561 84.2007 342.496 84.21C342.44 84.2193 342.403 84.224 342.384 84.224C342.291 84.224 342.211 84.1587 342.146 84.028C341.894 83.636 341.614 83.342 341.306 83.146C340.998 82.9407 340.606 82.838 340.13 82.838C339.533 82.838 339.038 83.1507 338.646 83.776C338.263 84.4013 338.072 85.2927 338.072 86.45C338.072 88.3727 338.674 89.334 339.878 89.334C340.373 89.334 340.765 89.124 341.054 88.704C341.353 88.284 341.502 87.766 341.502 87.15C341.502 86.562 341.376 86.0627 341.124 85.652C341.087 85.6053 341.068 85.554 341.068 85.498C341.068 85.4607 341.082 85.414 341.11 85.358C341.147 85.2927 341.227 85.2553 341.348 85.246C341.628 85.246 341.908 85.2413 342.188 85.232C342.468 85.2413 342.748 85.246 343.028 85.246C343.205 85.2553 343.308 85.358 343.336 85.554C343.476 87.1873 343.546 88.788 343.546 90.356C343.546 90.4587 343.546 90.5567 343.546 90.65C343.546 90.8647 343.443 90.9813 343.238 91C343.042 91.0187 342.832 91.028 342.608 91.028C342.375 91.028 342.127 91.0187 341.866 91C341.679 90.9813 341.586 90.874 341.586 90.678C341.586 90.6687 341.586 90.6593 341.586 90.65C341.595 90.594 341.605 90.524 341.614 90.44C341.623 90.356 341.633 90.258 341.642 90.146C341.651 90.0247 341.661 89.936 341.67 89.88C341.67 89.7773 341.656 89.7073 341.628 89.67C341.6 89.6327 341.577 89.614 341.558 89.614C341.539 89.614 341.511 89.6233 341.474 89.642C341.446 89.6607 341.418 89.7167 341.39 89.81C341.166 90.2673 340.886 90.594 340.55 90.79C340.214 90.986 339.794 91.084 339.29 91.084C338.422 91.084 337.699 90.7107 337.12 89.964C336.541 89.208 336.252 88.06 336.252 86.52C336.252 84.8493 336.611 83.5287 337.33 82.558ZM344.436 81.48C344.454 81.312 344.562 81.2187 344.758 81.2C345.028 81.172 345.906 81.158 347.39 81.158C348.64 81.158 349.499 81.172 349.966 81.2C350.152 81.2187 350.26 81.3167 350.288 81.494C350.306 81.634 350.339 82.3527 350.386 83.65C350.386 83.6593 350.386 83.6733 350.386 83.692C350.386 83.8413 350.353 83.9253 350.288 83.944C350.222 83.9533 350.18 83.958 350.162 83.958C350.068 83.958 349.98 83.8927 349.896 83.762C349.485 83.0527 348.701 82.698 347.544 82.698C347.058 82.698 346.662 82.796 346.354 82.992C346.055 83.1787 345.906 83.454 345.906 83.818V83.958C345.906 84.266 346.018 84.5087 346.242 84.686C346.475 84.854 346.797 84.938 347.208 84.938C347.87 84.938 348.477 84.9007 349.028 84.826C349.037 84.826 349.051 84.826 349.07 84.826C349.144 84.826 349.21 84.854 349.266 84.91C349.331 84.9567 349.364 85.022 349.364 85.106V86.366C349.364 86.5247 349.336 86.6133 349.28 86.632C349.224 86.6413 349.191 86.646 349.182 86.646C349.098 86.646 349.014 86.5993 348.93 86.506C348.584 86.2073 348.029 86.058 347.264 86.058C346.853 86.0673 346.522 86.1747 346.27 86.38C346.018 86.5853 345.892 86.9073 345.892 87.346V87.822C345.892 88.382 346.069 88.7973 346.424 89.068C346.788 89.3293 347.245 89.46 347.796 89.46C348.458 89.46 348.962 89.362 349.308 89.166C349.653 88.9607 349.947 88.606 350.19 88.102C350.236 87.9993 350.288 87.9387 350.344 87.92C350.4 87.892 350.442 87.878 350.47 87.878C350.516 87.878 350.563 87.9013 350.61 87.948C350.666 87.9853 350.698 88.06 350.708 88.172C350.745 88.6013 350.787 89.4553 350.834 90.734C350.834 90.7433 350.834 90.7573 350.834 90.776C350.834 90.9067 350.745 90.9813 350.568 91C350.054 91.0373 348.995 91.056 347.39 91.056C345.934 91.056 344.977 91.0373 344.52 91C344.305 90.9813 344.198 90.8787 344.198 90.692C344.216 86.9027 344.296 83.832 344.436 81.48ZM351.723 81.536C351.733 81.368 351.835 81.256 352.031 81.2C352.19 81.1627 352.372 81.144 352.577 81.144C352.736 81.144 352.932 81.1627 353.165 81.2C353.427 81.2373 353.627 81.382 353.767 81.634C354.187 82.7073 354.663 83.762 355.195 84.798C355.737 85.834 356.119 86.352 356.343 86.352C356.493 86.352 356.581 86.2213 356.609 85.96C356.647 85.6987 356.665 85.4607 356.665 85.246C356.665 85.0127 356.647 84.686 356.609 84.266C356.572 83.8367 356.521 83.398 356.455 82.95C356.399 82.4927 356.334 82.054 356.259 81.634C356.25 81.606 356.245 81.578 356.245 81.55C356.245 81.3727 356.353 81.256 356.567 81.2C356.754 81.1627 356.964 81.144 357.197 81.144C357.356 81.144 357.529 81.1627 357.715 81.2C357.902 81.2467 358.009 81.3587 358.037 81.536C358.187 83.3653 358.261 85.904 358.261 89.152C358.252 90.4493 357.897 91.098 357.197 91.098C356.833 91.098 356.46 90.832 356.077 90.3C355.704 89.7587 355.387 89.166 355.125 88.522C354.864 87.8687 354.593 87.276 354.313 86.744C354.043 86.2027 353.814 85.932 353.627 85.932C353.403 85.932 353.282 86.3053 353.263 87.052C353.263 88.1813 353.347 89.3667 353.515 90.608C353.515 90.6267 353.515 90.6453 353.515 90.664C353.515 90.8507 353.399 90.9673 353.165 91.014C352.969 91.042 352.736 91.056 352.465 91.056C352.251 91.056 352.027 91.0373 351.793 91C351.569 90.944 351.457 90.8227 351.457 90.636C351.457 86.5853 351.546 83.552 351.723 81.536ZM359.188 81.48C359.206 81.312 359.314 81.2187 359.51 81.2C359.78 81.172 360.658 81.158 362.142 81.158C363.392 81.158 364.251 81.172 364.718 81.2C364.904 81.2187 365.012 81.3167 365.04 81.494C365.058 81.634 365.091 82.3527 365.138 83.65C365.138 83.6593 365.138 83.6733 365.138 83.692C365.138 83.8413 365.105 83.9253 365.04 83.944C364.974 83.9533 364.932 83.958 364.914 83.958C364.82 83.958 364.732 83.8927 364.648 83.762C364.237 83.0527 363.453 82.698 362.296 82.698C361.81 82.698 361.414 82.796 361.106 82.992C360.807 83.1787 360.658 83.454 360.658 83.818V83.958C360.658 84.266 360.77 84.5087 360.994 84.686C361.227 84.854 361.549 84.938 361.96 84.938C362.622 84.938 363.229 84.9007 363.78 84.826C363.789 84.826 363.803 84.826 363.822 84.826C363.896 84.826 363.962 84.854 364.018 84.91C364.083 84.9567 364.116 85.022 364.116 85.106V86.366C364.116 86.5247 364.088 86.6133 364.032 86.632C363.976 86.6413 363.943 86.646 363.934 86.646C363.85 86.646 363.766 86.5993 363.682 86.506C363.336 86.2073 362.781 86.058 362.016 86.058C361.605 86.0673 361.274 86.1747 361.022 86.38C360.77 86.5853 360.644 86.9073 360.644 87.346V87.822C360.644 88.382 360.821 88.7973 361.176 89.068C361.54 89.3293 361.997 89.46 362.548 89.46C363.21 89.46 363.714 89.362 364.06 89.166C364.405 88.9607 364.699 88.606 364.942 88.102C364.988 87.9993 365.04 87.9387 365.096 87.92C365.152 87.892 365.194 87.878 365.222 87.878C365.268 87.878 365.315 87.9013 365.362 87.948C365.418 87.9853 365.45 88.06 365.46 88.172C365.497 88.6013 365.539 89.4553 365.586 90.734C365.586 90.7433 365.586 90.7573 365.586 90.776C365.586 90.9067 365.497 90.9813 365.32 91C364.806 91.0373 363.747 91.056 362.142 91.056C360.686 91.056 359.729 91.0373 359.272 91C359.057 90.9813 358.95 90.8787 358.95 90.692C358.968 86.9027 359.048 83.832 359.188 81.48ZM366.433 81.466C366.433 81.3913 366.461 81.326 366.517 81.27C366.583 81.214 366.653 81.1813 366.727 81.172C367.063 81.1347 367.927 81.116 369.317 81.116C371.651 81.116 372.817 81.8487 372.817 83.314C372.817 83.8927 372.626 84.4293 372.243 84.924C371.87 85.4187 371.343 85.778 370.661 86.002C370.559 86.0393 370.503 86.0767 370.493 86.114C370.493 86.1513 370.493 86.17 370.493 86.17C370.493 86.2353 370.545 86.2867 370.647 86.324C371.45 86.5947 372.019 87.066 372.355 87.738C372.691 88.4007 372.859 89.3713 372.859 90.65C372.859 90.8367 372.752 90.9533 372.537 91C372.313 91.0373 372.085 91.056 371.851 91.056C371.655 91.056 371.399 91.0373 371.081 91C370.848 90.944 370.731 90.8273 370.731 90.65C370.731 90.6033 370.731 90.5613 370.731 90.524C370.731 89.5627 370.521 88.6947 370.101 87.92C369.691 87.1453 369.187 86.758 368.589 86.758C368.44 86.758 368.319 86.8187 368.225 86.94C368.141 87.052 368.099 87.206 368.099 87.402C368.099 87.7567 368.113 88.1347 368.141 88.536C368.179 88.928 368.221 89.3387 368.267 89.768C368.314 90.188 368.347 90.4867 368.365 90.664C368.365 90.6827 368.365 90.7013 368.365 90.72C368.365 90.8693 368.263 90.9627 368.057 91C367.843 91.0373 367.581 91.056 367.273 91.056C366.937 91.056 366.685 91.0373 366.517 91C366.312 90.9533 366.209 90.8507 366.209 90.692C366.209 90.3653 366.284 87.29 366.433 81.466ZM368.057 85.008C368.085 85.2507 368.197 85.372 368.393 85.372C368.468 85.372 368.552 85.358 368.645 85.33C369.401 85.1993 369.989 84.994 370.409 84.714C370.829 84.434 371.039 84.1213 371.039 83.776C371.039 83.104 370.442 82.768 369.247 82.768C368.893 82.768 368.636 82.7773 368.477 82.796C368.225 82.8053 368.085 82.9407 368.057 83.202C368.029 83.5473 368.015 83.874 368.015 84.182C368.015 84.4807 368.029 84.756 368.057 85.008ZM373.453 90.65C373.752 89.0073 374.139 87.346 374.615 85.666C375.1 83.9767 375.586 82.5673 376.071 81.438C376.127 81.3073 376.23 81.228 376.379 81.2C376.594 81.1627 376.841 81.144 377.121 81.144C377.401 81.144 377.653 81.1627 377.877 81.2C378.026 81.228 378.129 81.3073 378.185 81.438C378.661 82.558 379.137 83.9627 379.613 85.652C380.098 87.332 380.495 89.0027 380.803 90.664C380.812 90.7013 380.817 90.7387 380.817 90.776C380.817 90.916 380.728 90.9953 380.551 91.014C380.383 91.042 380.14 91.056 379.823 91.056C379.58 91.056 379.319 91.0373 379.039 91C378.88 90.9627 378.801 90.8787 378.801 90.748C378.81 90.6173 378.815 90.4867 378.815 90.356C378.815 89.908 378.764 89.4553 378.661 88.998C378.512 88.6527 378.162 88.4707 377.611 88.452H376.631C376.118 88.4613 375.772 88.6433 375.595 88.998C375.483 89.446 375.427 89.922 375.427 90.426C375.427 90.5287 375.432 90.636 375.441 90.748C375.441 90.7573 375.441 90.762 375.441 90.762C375.441 90.8833 375.357 90.9627 375.189 91C374.928 91.0373 374.652 91.056 374.363 91.056C374.148 91.056 373.929 91.0373 373.705 91C373.518 90.9627 373.425 90.8833 373.425 90.762C373.425 90.7247 373.434 90.6873 373.453 90.65ZM376.337 87.248C376.449 87.3693 376.64 87.4393 376.911 87.458H377.331C377.592 87.4487 377.77 87.3927 377.863 87.29C377.966 87.178 378.017 87.066 378.017 86.954C378.017 86.898 378.008 86.8373 377.989 86.772C377.905 86.1093 377.709 85.1947 377.401 84.028C377.345 83.8507 377.289 83.7387 377.233 83.692C377.186 83.6453 377.149 83.622 377.121 83.622C377.084 83.622 377.037 83.6453 376.981 83.692C376.934 83.7387 376.883 83.8507 376.827 84.028C376.556 85.0733 376.37 85.988 376.267 86.772C376.239 86.8467 376.225 86.9167 376.225 86.982C376.225 87.0847 376.262 87.1733 376.337 87.248ZM381.623 81.48C381.632 81.3307 381.74 81.2373 381.945 81.2C382.178 81.172 382.44 81.158 382.729 81.158C382.972 81.158 383.191 81.172 383.387 81.2C383.48 81.2187 383.55 81.256 383.597 81.312C383.653 81.3587 383.681 81.4147 383.681 81.48C383.681 81.4987 383.681 81.5173 383.681 81.536C383.28 83.888 383.079 85.8853 383.079 87.528C383.079 87.5653 383.079 87.6027 383.079 87.64C383.088 88.8533 383.723 89.46 384.983 89.46C385.627 89.46 386.117 89.3573 386.453 89.152C386.798 88.9467 387.092 88.5967 387.335 88.102C387.363 88.0273 387.4 87.9713 387.447 87.934C387.503 87.8967 387.559 87.878 387.615 87.878C387.615 87.878 387.629 87.8827 387.657 87.892C387.694 87.892 387.732 87.92 387.769 87.976C387.816 88.0227 387.844 88.088 387.853 88.172C387.89 88.6013 387.932 89.4553 387.979 90.734C387.979 90.902 387.89 90.9907 387.713 91C387.19 91.0373 386.145 91.056 384.577 91.056C383.121 91.056 382.164 91.0373 381.707 91C381.492 90.9813 381.385 90.8787 381.385 90.692C381.404 86.9027 381.483 83.832 381.623 81.48ZM336.826 93.536C336.835 93.3587 336.938 93.2467 337.134 93.2C337.358 93.1627 337.596 93.144 337.848 93.144C338.119 93.144 338.375 93.1627 338.618 93.2C338.795 93.228 338.921 93.27 338.996 93.326C339.08 93.3727 339.15 93.466 339.206 93.606C339.262 93.7647 339.327 93.998 339.402 94.306C339.477 94.6047 339.561 94.9593 339.654 95.37C339.757 95.7807 339.831 96.0793 339.878 96.266C340.223 97.5073 340.494 98.128 340.69 98.128C340.877 98.128 341.143 97.5027 341.488 96.252C341.535 96.0653 341.605 95.7713 341.698 95.37C341.801 94.9687 341.889 94.614 341.964 94.306C342.039 93.998 342.104 93.7647 342.16 93.606C342.188 93.5033 342.23 93.4287 342.286 93.382C342.351 93.326 342.412 93.2887 342.468 93.27C342.533 93.242 342.627 93.2187 342.748 93.2C342.991 93.1627 343.233 93.144 343.476 93.144C343.737 93.144 343.989 93.1627 344.232 93.2C344.428 93.2467 344.531 93.3587 344.54 93.536C344.829 96.4387 345.002 99.472 345.058 102.636C345.058 102.832 344.965 102.953 344.778 103C344.582 103.037 344.339 103.056 344.05 103.056C343.789 103.056 343.537 103.037 343.294 103C343.079 102.953 342.972 102.851 342.972 102.692C342.972 102.673 342.972 102.655 342.972 102.636C343.065 101.889 343.112 101.068 343.112 100.172C343.112 99.892 343.107 99.6073 343.098 99.318C343.07 98.5247 343.037 97.9693 343 97.652C342.963 97.3253 342.897 97.162 342.804 97.162C342.757 97.162 342.711 97.1947 342.664 97.26C342.627 97.3253 342.585 97.428 342.538 97.568C342.501 97.708 342.463 97.8433 342.426 97.974C342.398 98.0953 342.356 98.268 342.3 98.492C342.253 98.716 342.216 98.8933 342.188 99.024C342.039 99.5187 341.819 100.144 341.53 100.9C341.325 101.367 341.045 101.6 340.69 101.6C340.345 101.6 340.065 101.367 339.85 100.9C339.533 100.06 339.313 99.4393 339.192 99.038C339.173 98.9633 339.15 98.8653 339.122 98.744C339.094 98.6133 339.071 98.5107 339.052 98.436C339.033 98.352 339.01 98.2587 338.982 98.156C338.963 98.044 338.945 97.9507 338.926 97.876C338.907 97.8013 338.884 97.722 338.856 97.638C338.828 97.554 338.8 97.4887 338.772 97.442C338.753 97.386 338.73 97.3347 338.702 97.288C338.683 97.2413 338.66 97.2087 338.632 97.19C338.613 97.162 338.59 97.148 338.562 97.148C338.469 97.148 338.403 97.3113 338.366 97.638C338.329 97.9647 338.296 98.5247 338.268 99.318C338.259 99.6073 338.254 99.892 338.254 100.172C338.254 101.068 338.301 101.889 338.394 102.636C338.394 102.655 338.394 102.673 338.394 102.692C338.394 102.851 338.287 102.953 338.072 103C337.829 103.037 337.587 103.056 337.344 103.056C337.036 103.056 336.784 103.037 336.588 103C336.401 102.953 336.308 102.832 336.308 102.636C336.364 99.444 336.537 96.4107 336.826 93.536ZM345.953 93.48C345.972 93.312 346.079 93.2187 346.275 93.2C346.546 93.172 347.423 93.158 348.907 93.158C350.158 93.158 351.017 93.172 351.483 93.2C351.67 93.2187 351.777 93.3167 351.805 93.494C351.824 93.634 351.857 94.3527 351.903 95.65C351.903 95.6593 351.903 95.6733 351.903 95.692C351.903 95.8413 351.871 95.9253 351.805 95.944C351.74 95.9533 351.698 95.958 351.679 95.958C351.586 95.958 351.497 95.8927 351.413 95.762C351.003 95.0527 350.219 94.698 349.061 94.698C348.576 94.698 348.179 94.796 347.871 94.992C347.573 95.1787 347.423 95.454 347.423 95.818V95.958C347.423 96.266 347.535 96.5087 347.759 96.686C347.993 96.854 348.315 96.938 348.725 96.938C349.388 96.938 349.995 96.9007 350.545 96.826C350.555 96.826 350.569 96.826 350.587 96.826C350.662 96.826 350.727 96.854 350.783 96.91C350.849 96.9567 350.881 97.022 350.881 97.106V98.366C350.881 98.5247 350.853 98.6133 350.797 98.632C350.741 98.6413 350.709 98.646 350.699 98.646C350.615 98.646 350.531 98.5993 350.447 98.506C350.102 98.2073 349.547 98.058 348.781 98.058C348.371 98.0673 348.039 98.1747 347.787 98.38C347.535 98.5853 347.409 98.9073 347.409 99.346V99.822C347.409 100.382 347.587 100.797 347.941 101.068C348.305 101.329 348.763 101.46 349.313 101.46C349.976 101.46 350.48 101.362 350.825 101.166C351.171 100.961 351.465 100.606 351.707 100.102C351.754 99.9993 351.805 99.9387 351.861 99.92C351.917 99.892 351.959 99.878 351.987 99.878C352.034 99.878 352.081 99.9013 352.127 99.948C352.183 99.9853 352.216 100.06 352.225 100.172C352.263 100.601 352.305 101.455 352.351 102.734C352.351 102.743 352.351 102.757 352.351 102.776C352.351 102.907 352.263 102.981 352.085 103C351.572 103.037 350.513 103.056 348.907 103.056C347.451 103.056 346.495 103.037 346.037 103C345.823 102.981 345.715 102.879 345.715 102.692C345.734 98.9027 345.813 95.832 345.953 93.48ZM353.213 93.48C353.232 93.312 353.339 93.2187 353.535 93.2C353.806 93.172 354.683 93.158 356.167 93.158C357.418 93.158 358.276 93.172 358.743 93.2C358.93 93.2187 359.037 93.3167 359.065 93.494C359.084 93.634 359.116 94.3527 359.163 95.65C359.163 95.6593 359.163 95.6733 359.163 95.692C359.163 95.8413 359.13 95.9253 359.065 95.944C359 95.9533 358.958 95.958 358.939 95.958C358.846 95.958 358.757 95.8927 358.673 95.762C358.262 95.0527 357.478 94.698 356.321 94.698C355.836 94.698 355.439 94.796 355.131 94.992C354.832 95.1787 354.683 95.454 354.683 95.818V95.958C354.683 96.266 354.795 96.5087 355.019 96.686C355.252 96.854 355.574 96.938 355.985 96.938C356.648 96.938 357.254 96.9007 357.805 96.826C357.814 96.826 357.828 96.826 357.847 96.826C357.922 96.826 357.987 96.854 358.043 96.91C358.108 96.9567 358.141 97.022 358.141 97.106V98.366C358.141 98.5247 358.113 98.6133 358.057 98.632C358.001 98.6413 357.968 98.646 357.959 98.646C357.875 98.646 357.791 98.5993 357.707 98.506C357.362 98.2073 356.806 98.058 356.041 98.058C355.63 98.0673 355.299 98.1747 355.047 98.38C354.795 98.5853 354.669 98.9073 354.669 99.346V99.822C354.669 100.382 354.846 100.797 355.201 101.068C355.565 101.329 356.022 101.46 356.573 101.46C357.236 101.46 357.74 101.362 358.085 101.166C358.43 100.961 358.724 100.606 358.967 100.102C359.014 99.9993 359.065 99.9387 359.121 99.92C359.177 99.892 359.219 99.878 359.247 99.878C359.294 99.878 359.34 99.9013 359.387 99.948C359.443 99.9853 359.476 100.06 359.485 100.172C359.522 100.601 359.564 101.455 359.611 102.734C359.611 102.743 359.611 102.757 359.611 102.776C359.611 102.907 359.522 102.981 359.345 103C358.832 103.037 357.772 103.056 356.167 103.056C354.711 103.056 353.754 103.037 353.297 103C353.082 102.981 352.975 102.879 352.975 102.692C352.994 98.9027 353.073 95.832 353.213 93.48ZM359.767 93.508C359.776 93.3213 359.879 93.2187 360.075 93.2C360.523 93.1627 361.522 93.144 363.071 93.144C364.602 93.144 365.596 93.1627 366.053 93.2C366.24 93.2187 366.342 93.3213 366.361 93.508C366.398 93.8347 366.417 94.558 366.417 95.678C366.417 95.6873 366.417 95.7013 366.417 95.72C366.417 95.8787 366.384 95.9627 366.319 95.972C366.254 95.9813 366.216 95.986 366.207 95.986C366.086 95.986 365.992 95.916 365.927 95.776C365.61 95.104 365.092 94.768 364.373 94.768C364.028 94.768 363.855 95.0667 363.855 95.664C363.855 95.6733 363.855 95.6873 363.855 95.706C363.864 96.2287 363.911 97.4747 363.995 99.444C364.088 101.413 364.14 102.491 364.149 102.678C364.149 102.855 364.037 102.963 363.813 103C363.57 103.037 363.332 103.056 363.099 103.056C362.838 103.056 362.586 103.037 362.343 103C362.138 102.963 362.035 102.865 362.035 102.706C362.035 102.697 362.035 102.687 362.035 102.678L362.161 99.612C362.245 97.568 362.292 96.266 362.301 95.706C362.301 95.6873 362.301 95.6733 362.301 95.664C362.301 95.0667 362.128 94.768 361.783 94.768C361.466 94.768 361.158 94.8613 360.859 95.048C360.57 95.2253 360.346 95.468 360.187 95.776C360.122 95.916 360.033 95.986 359.921 95.986C359.912 95.986 359.87 95.9813 359.795 95.972C359.73 95.9627 359.697 95.8647 359.697 95.678C359.744 94.2593 359.767 93.536 359.767 93.508ZM367.074 93.508C367.083 93.3587 367.186 93.256 367.382 93.2C367.531 93.1627 367.709 93.144 367.914 93.144C368.063 93.144 368.231 93.1627 368.418 93.2C368.605 93.2467 368.698 93.3493 368.698 93.508C368.81 96.868 368.866 99.9107 368.866 102.636C368.866 102.841 368.763 102.963 368.558 103C368.371 103.037 368.152 103.056 367.9 103.056C367.732 103.056 367.508 103.037 367.228 103C367.013 102.963 366.906 102.841 366.906 102.636C366.906 99.9107 366.962 96.868 367.074 93.508ZM369.811 93.536C369.821 93.368 369.923 93.256 370.119 93.2C370.278 93.1627 370.46 93.144 370.665 93.144C370.824 93.144 371.02 93.1627 371.253 93.2C371.515 93.2373 371.715 93.382 371.855 93.634C372.275 94.7073 372.751 95.762 373.283 96.798C373.825 97.834 374.207 98.352 374.431 98.352C374.581 98.352 374.669 98.2213 374.697 97.96C374.735 97.6987 374.753 97.4607 374.753 97.246C374.753 97.0127 374.735 96.686 374.697 96.266C374.66 95.8367 374.609 95.398 374.543 94.95C374.487 94.4927 374.422 94.054 374.347 93.634C374.338 93.606 374.333 93.578 374.333 93.55C374.333 93.3727 374.441 93.256 374.655 93.2C374.842 93.1627 375.052 93.144 375.285 93.144C375.444 93.144 375.617 93.1627 375.803 93.2C375.99 93.2467 376.097 93.3587 376.125 93.536C376.275 95.3653 376.349 97.904 376.349 101.152C376.34 102.449 375.985 103.098 375.285 103.098C374.921 103.098 374.548 102.832 374.165 102.3C373.792 101.759 373.475 101.166 373.213 100.522C372.952 99.8687 372.681 99.276 372.401 98.744C372.131 98.2027 371.902 97.932 371.715 97.932C371.491 97.932 371.37 98.3053 371.351 99.052C371.351 100.181 371.435 101.367 371.603 102.608C371.603 102.627 371.603 102.645 371.603 102.664C371.603 102.851 371.487 102.967 371.253 103.014C371.057 103.042 370.824 103.056 370.553 103.056C370.339 103.056 370.115 103.037 369.881 103C369.657 102.944 369.545 102.823 369.545 102.636C369.545 98.5853 369.634 95.552 369.811 93.536ZM378.018 94.558C378.727 93.5967 379.665 93.1113 380.832 93.102C381.746 93.102 382.544 93.3027 383.226 93.704C383.375 93.816 383.45 93.9793 383.45 94.194C383.45 94.2127 383.45 94.236 383.45 94.264C383.44 94.4413 383.412 94.7633 383.366 95.23C383.319 95.6873 383.296 95.9253 383.296 95.944C383.286 96.112 383.249 96.2007 383.184 96.21C383.128 96.2193 383.09 96.224 383.072 96.224C382.978 96.224 382.899 96.1587 382.834 96.028C382.582 95.636 382.302 95.342 381.994 95.146C381.686 94.9407 381.294 94.838 380.818 94.838C380.22 94.838 379.726 95.1507 379.334 95.776C378.951 96.4013 378.76 97.2927 378.76 98.45C378.76 100.373 379.362 101.334 380.566 101.334C381.06 101.334 381.452 101.124 381.742 100.704C382.04 100.284 382.19 99.766 382.19 99.15C382.19 98.562 382.064 98.0627 381.812 97.652C381.774 97.6053 381.756 97.554 381.756 97.498C381.756 97.4607 381.77 97.414 381.798 97.358C381.835 97.2927 381.914 97.2553 382.036 97.246C382.316 97.246 382.596 97.2413 382.876 97.232C383.156 97.2413 383.436 97.246 383.716 97.246C383.893 97.2553 383.996 97.358 384.024 97.554C384.164 99.1873 384.234 100.788 384.234 102.356C384.234 102.459 384.234 102.557 384.234 102.65C384.234 102.865 384.131 102.981 383.926 103C383.73 103.019 383.52 103.028 383.296 103.028C383.062 103.028 382.815 103.019 382.554 103C382.367 102.981 382.274 102.874 382.274 102.678C382.274 102.669 382.274 102.659 382.274 102.65C382.283 102.594 382.292 102.524 382.302 102.44C382.311 102.356 382.32 102.258 382.33 102.146C382.339 102.025 382.348 101.936 382.358 101.88C382.358 101.777 382.344 101.707 382.316 101.67C382.288 101.633 382.264 101.614 382.246 101.614C382.227 101.614 382.199 101.623 382.162 101.642C382.134 101.661 382.106 101.717 382.078 101.81C381.854 102.267 381.574 102.594 381.238 102.79C380.902 102.986 380.482 103.084 379.978 103.084C379.11 103.084 378.386 102.711 377.808 101.964C377.229 101.208 376.94 100.06 376.94 98.52C376.94 96.8493 377.299 95.5287 378.018 94.558Z" fill="#35393C"/>
<path d="M319.411 84.7021C320.27 83.7816 321.73 83.7816 322.589 84.7021V84.7021C323.1 85.2494 323.857 85.4953 324.592 85.3528V85.3528C325.828 85.1132 327.009 85.971 327.163 87.2209V87.2209C327.255 87.964 327.722 88.6077 328.401 88.9245V88.9245C329.542 89.4574 329.993 90.8453 329.383 91.9471V91.9471C329.02 92.6022 329.02 93.3978 329.383 94.0529V94.0529C329.993 95.1547 329.542 96.5426 328.401 97.0755V97.0755C327.722 97.3923 327.255 98.036 327.163 98.7791V98.7791C327.009 100.029 325.828 100.887 324.592 100.647V100.647C323.857 100.505 323.1 100.751 322.589 101.298V101.298C321.73 102.218 320.27 102.218 319.411 101.298V101.298C318.9 100.751 318.143 100.505 317.408 100.647V100.647C316.172 100.887 314.991 100.029 314.837 98.7791V98.7791C314.745 98.036 314.278 97.3923 313.599 97.0755V97.0755C312.458 96.5426 312.007 95.1547 312.617 94.0529V94.0529C312.98 93.3978 312.98 92.6022 312.617 91.9471V91.9471C312.007 90.8453 312.458 89.4574 313.599 88.9245V88.9245C314.278 88.6077 314.745 87.964 314.837 87.2209V87.2209C314.991 85.971 316.172 85.1132 317.408 85.3528V85.3528C318.143 85.4953 318.9 85.2494 319.411 84.7021V84.7021Z" fill="#5481BF"/>
<path d="M336.266 58.076C336.266 57.348 336.271 56.802 336.28 56.438C336.28 56.2513 336.313 56.1487 336.378 56.13C336.453 56.102 336.504 56.088 336.532 56.088C336.616 56.088 336.691 56.1393 336.756 56.242C337.437 57.054 338.38 57.46 339.584 57.46C340.088 57.46 340.485 57.3667 340.774 57.18C341.063 56.9933 341.208 56.7227 341.208 56.368C341.208 56.0133 341.045 55.7007 340.718 55.43C340.391 55.15 339.995 54.9073 339.528 54.702C339.071 54.4873 338.609 54.2587 338.142 54.016C337.685 53.7733 337.293 53.4513 336.966 53.05C336.639 52.6393 336.476 52.1633 336.476 51.622C336.476 50.8193 336.789 50.1987 337.414 49.76C338.039 49.3213 338.842 49.102 339.822 49.102C340.783 49.102 341.609 49.2793 342.3 49.634C342.44 49.7273 342.51 49.858 342.51 50.026V51.468C342.51 51.6453 342.473 51.748 342.398 51.776C342.333 51.804 342.286 51.818 342.258 51.818C342.183 51.818 342.109 51.7667 342.034 51.664C341.427 51.048 340.718 50.74 339.906 50.74C339.467 50.74 339.085 50.824 338.758 50.992C338.441 51.16 338.282 51.3933 338.282 51.692C338.282 52 338.445 52.2893 338.772 52.56C339.099 52.8307 339.495 53.0827 339.962 53.316C340.438 53.5493 340.909 53.7967 341.376 54.058C341.843 54.3193 342.239 54.66 342.566 55.08C342.893 55.4907 343.056 55.9527 343.056 56.466C343.056 57.278 342.748 57.922 342.132 58.398C341.525 58.8647 340.704 59.098 339.668 59.098C339.173 59.098 338.623 59.042 338.016 58.93C337.409 58.8087 336.891 58.6547 336.462 58.468C336.331 58.412 336.266 58.2813 336.266 58.076ZM343.902 49.508C343.902 49.3213 343.995 49.2187 344.182 49.2C345.097 49.1347 345.923 49.102 346.66 49.102C347.789 49.102 348.667 49.3027 349.292 49.704C349.917 50.1053 350.23 50.6887 350.23 51.454C350.23 52.4713 349.815 53.316 348.984 53.988C348.163 54.6507 347.08 55.0147 345.736 55.08C345.531 55.108 345.428 55.2853 345.428 55.612C345.428 56.088 345.493 56.6807 345.624 57.39C345.764 58.09 345.839 58.5053 345.848 58.636C345.848 58.6453 345.848 58.6593 345.848 58.678C345.848 58.7527 345.82 58.8227 345.764 58.888C345.708 58.944 345.633 58.9813 345.54 59C345.344 59.0373 345.087 59.056 344.77 59.056C344.406 59.056 344.14 59.0373 343.972 59C343.776 58.9533 343.678 58.8507 343.678 58.692C343.678 54.7533 343.753 51.692 343.902 49.508ZM345.498 53.442C345.526 53.666 345.647 53.778 345.862 53.778C345.899 53.778 345.937 53.7733 345.974 53.764C346.777 53.7173 347.402 53.5073 347.85 53.134C348.298 52.7513 348.522 52.2987 348.522 51.776C348.522 51.0107 347.906 50.628 346.674 50.628C346.487 50.628 346.235 50.6373 345.918 50.656C345.675 50.6653 345.535 50.796 345.498 51.048C345.461 51.3747 345.442 51.7387 345.442 52.14C345.442 52.5413 345.461 52.9753 345.498 53.442ZM350.971 49.48C350.989 49.312 351.097 49.2187 351.293 49.2C351.563 49.172 352.441 49.158 353.925 49.158C355.175 49.158 356.034 49.172 356.501 49.2C356.687 49.2187 356.795 49.3167 356.823 49.494C356.841 49.634 356.874 50.3527 356.921 51.65C356.921 51.6593 356.921 51.6733 356.921 51.692C356.921 51.8413 356.888 51.9253 356.823 51.944C356.757 51.9533 356.715 51.958 356.697 51.958C356.603 51.958 356.515 51.8927 356.431 51.762C356.02 51.0527 355.236 50.698 354.079 50.698C353.593 50.698 353.197 50.796 352.889 50.992C352.59 51.1787 352.441 51.454 352.441 51.818V51.958C352.441 52.266 352.553 52.5087 352.777 52.686C353.01 52.854 353.332 52.938 353.743 52.938C354.405 52.938 355.012 52.9007 355.563 52.826C355.572 52.826 355.586 52.826 355.605 52.826C355.679 52.826 355.745 52.854 355.801 52.91C355.866 52.9567 355.899 53.022 355.899 53.106V54.366C355.899 54.5247 355.871 54.6133 355.815 54.632C355.759 54.6413 355.726 54.646 355.717 54.646C355.633 54.646 355.549 54.5993 355.465 54.506C355.119 54.2073 354.564 54.058 353.799 54.058C353.388 54.0673 353.057 54.1747 352.805 54.38C352.553 54.5853 352.427 54.9073 352.427 55.346V55.822C352.427 56.382 352.604 56.7973 352.959 57.068C353.323 57.3293 353.78 57.46 354.331 57.46C354.993 57.46 355.497 57.362 355.843 57.166C356.188 56.9607 356.482 56.606 356.725 56.102C356.771 55.9993 356.823 55.9387 356.879 55.92C356.935 55.892 356.977 55.878 357.005 55.878C357.051 55.878 357.098 55.9013 357.145 55.948C357.201 55.9853 357.233 56.06 357.243 56.172C357.28 56.6013 357.322 57.4553 357.369 58.734C357.369 58.7433 357.369 58.7573 357.369 58.776C357.369 58.9067 357.28 58.9813 357.103 59C356.589 59.0373 355.53 59.056 353.925 59.056C352.469 59.056 351.512 59.0373 351.055 59C350.84 58.9813 350.733 58.8787 350.733 58.692C350.751 54.9027 350.831 51.832 350.971 49.48ZM358.85 50.544C359.559 49.5827 360.493 49.102 361.65 49.102C362.481 49.102 363.269 49.3073 364.016 49.718C364.128 49.802 364.184 49.942 364.184 50.138C364.184 50.166 364.175 50.3387 364.156 50.656C364.137 50.964 364.119 51.258 364.1 51.538C364.091 51.818 364.081 51.9953 364.072 52.07C364.063 52.21 364.025 52.2847 363.96 52.294C363.895 52.3033 363.857 52.308 363.848 52.308C363.736 52.308 363.652 52.2473 363.596 52.126C363.381 51.6873 363.12 51.356 362.812 51.132C362.513 50.8987 362.121 50.782 361.636 50.782C361.029 50.782 360.53 51.0993 360.138 51.734C359.755 52.3687 359.564 53.2693 359.564 54.436C359.564 55.472 359.76 56.2233 360.152 56.69C360.544 57.1567 361.057 57.39 361.692 57.39C362.196 57.39 362.639 57.2687 363.022 57.026C363.405 56.7833 363.694 56.438 363.89 55.99C363.927 55.8873 363.969 55.8267 364.016 55.808C364.072 55.7893 364.114 55.78 364.142 55.78C364.198 55.78 364.254 55.8033 364.31 55.85C364.366 55.8873 364.394 55.962 364.394 56.074L364.478 58.146C364.478 58.342 364.399 58.4913 364.24 58.594C363.96 58.7433 363.559 58.8647 363.036 58.958C362.523 59.042 362.061 59.084 361.65 59.084C360.437 59.084 359.485 58.72 358.794 57.992C358.113 57.2547 357.772 56.0927 357.772 54.506C357.772 52.8353 358.131 51.5147 358.85 50.544ZM365.242 49.508C365.251 49.3587 365.354 49.256 365.55 49.2C365.699 49.1627 365.877 49.144 366.082 49.144C366.231 49.144 366.399 49.1627 366.586 49.2C366.773 49.2467 366.866 49.3493 366.866 49.508C366.978 52.868 367.034 55.9107 367.034 58.636C367.034 58.8413 366.931 58.9627 366.726 59C366.539 59.0373 366.32 59.056 366.068 59.056C365.9 59.056 365.676 59.0373 365.396 59C365.181 58.9627 365.074 58.8413 365.074 58.636C365.074 55.9107 365.13 52.868 365.242 49.508ZM367.601 58.65C367.9 57.0073 368.287 55.346 368.763 53.666C369.249 51.9767 369.734 50.5673 370.219 49.438C370.275 49.3073 370.378 49.228 370.527 49.2C370.742 49.1627 370.989 49.144 371.269 49.144C371.549 49.144 371.801 49.1627 372.025 49.2C372.175 49.228 372.277 49.3073 372.333 49.438C372.809 50.558 373.285 51.9627 373.761 53.652C374.247 55.332 374.643 57.0027 374.951 58.664C374.961 58.7013 374.965 58.7387 374.965 58.776C374.965 58.916 374.877 58.9953 374.699 59.014C374.531 59.042 374.289 59.056 373.971 59.056C373.729 59.056 373.467 59.0373 373.187 59C373.029 58.9627 372.949 58.8787 372.949 58.748C372.959 58.6173 372.963 58.4867 372.963 58.356C372.963 57.908 372.912 57.4553 372.809 56.998C372.66 56.6527 372.31 56.4707 371.759 56.452H370.779C370.266 56.4613 369.921 56.6433 369.743 56.998C369.631 57.446 369.575 57.922 369.575 58.426C369.575 58.5287 369.58 58.636 369.589 58.748C369.589 58.7573 369.589 58.762 369.589 58.762C369.589 58.8833 369.505 58.9627 369.337 59C369.076 59.0373 368.801 59.056 368.511 59.056C368.297 59.056 368.077 59.0373 367.853 59C367.667 58.9627 367.573 58.8833 367.573 58.762C367.573 58.7247 367.583 58.6873 367.601 58.65ZM370.485 55.248C370.597 55.3693 370.789 55.4393 371.059 55.458H371.479C371.741 55.4487 371.918 55.3927 372.011 55.29C372.114 55.178 372.165 55.066 372.165 54.954C372.165 54.898 372.156 54.8373 372.137 54.772C372.053 54.1093 371.857 53.1947 371.549 52.028C371.493 51.8507 371.437 51.7387 371.381 51.692C371.335 51.6453 371.297 51.622 371.269 51.622C371.232 51.622 371.185 51.6453 371.129 51.692C371.083 51.7387 371.031 51.8507 370.975 52.028C370.705 53.0733 370.518 53.988 370.415 54.772C370.387 54.8467 370.373 54.9167 370.373 54.982C370.373 55.0847 370.411 55.1733 370.485 55.248ZM375.772 49.48C375.781 49.3307 375.888 49.2373 376.094 49.2C376.327 49.172 376.588 49.158 376.878 49.158C377.12 49.158 377.34 49.172 377.536 49.2C377.629 49.2187 377.699 49.256 377.746 49.312C377.802 49.3587 377.83 49.4147 377.83 49.48C377.83 49.4987 377.83 49.5173 377.83 49.536C377.428 51.888 377.228 53.8853 377.228 55.528C377.228 55.5653 377.228 55.6027 377.228 55.64C377.237 56.8533 377.872 57.46 379.132 57.46C379.776 57.46 380.266 57.3573 380.602 57.152C380.947 56.9467 381.241 56.5967 381.484 56.102C381.512 56.0273 381.549 55.9713 381.596 55.934C381.652 55.8967 381.708 55.878 381.764 55.878C381.764 55.878 381.778 55.8827 381.806 55.892C381.843 55.892 381.88 55.92 381.918 55.976C381.964 56.0227 381.992 56.088 382.002 56.172C382.039 56.6013 382.081 57.4553 382.128 58.734C382.128 58.902 382.039 58.9907 381.862 59C381.339 59.0373 380.294 59.056 378.726 59.056C377.27 59.056 376.313 59.0373 375.856 59C375.641 58.9813 375.534 58.8787 375.534 58.692C375.552 54.9027 375.632 51.832 375.772 49.48ZM336.588 61.48C336.607 61.312 336.714 61.2187 336.91 61.2C337.181 61.172 338.058 61.158 339.542 61.158C340.793 61.158 341.651 61.172 342.118 61.2C342.305 61.2187 342.412 61.3167 342.44 61.494C342.459 61.634 342.491 62.3527 342.538 63.65C342.538 63.6593 342.538 63.6733 342.538 63.692C342.538 63.8413 342.505 63.9253 342.44 63.944C342.375 63.9533 342.333 63.958 342.314 63.958C342.221 63.958 342.132 63.8927 342.048 63.762C341.637 63.0527 340.853 62.698 339.696 62.698C339.211 62.698 338.814 62.796 338.506 62.992C338.207 63.1787 338.058 63.454 338.058 63.818V63.958C338.058 64.266 338.17 64.5087 338.394 64.686C338.627 64.854 338.949 64.938 339.36 64.938C340.023 64.938 340.629 64.9007 341.18 64.826C341.189 64.826 341.203 64.826 341.222 64.826C341.297 64.826 341.362 64.854 341.418 64.91C341.483 64.9567 341.516 65.022 341.516 65.106V66.366C341.516 66.5247 341.488 66.6133 341.432 66.632C341.376 66.6413 341.343 66.646 341.334 66.646C341.25 66.646 341.166 66.5993 341.082 66.506C340.737 66.2073 340.181 66.058 339.416 66.058C339.005 66.0673 338.674 66.1747 338.422 66.38C338.17 66.5853 338.044 66.9073 338.044 67.346V67.822C338.044 68.382 338.221 68.7973 338.576 69.068C338.94 69.3293 339.397 69.46 339.948 69.46C340.611 69.46 341.115 69.362 341.46 69.166C341.805 68.9607 342.099 68.606 342.342 68.102C342.389 67.9993 342.44 67.9387 342.496 67.92C342.552 67.892 342.594 67.878 342.622 67.878C342.669 67.878 342.715 67.9013 342.762 67.948C342.818 67.9853 342.851 68.06 342.86 68.172C342.897 68.6013 342.939 69.4553 342.986 70.734C342.986 70.7433 342.986 70.7573 342.986 70.776C342.986 70.9067 342.897 70.9813 342.72 71C342.207 71.0373 341.147 71.056 339.542 71.056C338.086 71.056 337.129 71.0373 336.672 71C336.457 70.9813 336.35 70.8787 336.35 70.692C336.369 66.9027 336.448 63.832 336.588 61.48ZM343.354 61.2C343.559 61.1627 343.778 61.144 344.012 61.144C344.254 61.144 344.506 61.1627 344.768 61.2C344.926 61.2187 345.01 61.2933 345.02 61.424C345.132 62.8333 345.314 64.1353 345.566 65.33C345.818 66.5247 346.084 67.458 346.364 68.13C346.466 68.3727 346.569 68.494 346.672 68.494C346.765 68.494 346.858 68.3727 346.952 68.13C347.25 67.43 347.526 66.492 347.778 65.316C348.039 64.1307 348.221 62.8333 348.324 61.424C348.333 61.2933 348.412 61.2187 348.562 61.2C348.702 61.1813 348.94 61.172 349.276 61.172C349.658 61.172 349.901 61.1767 350.004 61.186C350.181 61.2047 350.27 61.2887 350.27 61.438C350.27 61.466 350.265 61.4987 350.256 61.536C350.013 63.244 349.658 64.9427 349.192 66.632C348.725 68.3213 348.235 69.698 347.722 70.762C347.666 70.8927 347.563 70.972 347.414 71C347.19 71.0373 346.938 71.056 346.658 71.056C346.378 71.056 346.13 71.0373 345.916 71C345.785 70.972 345.682 70.8927 345.608 70.762C345.094 69.7073 344.609 68.34 344.152 66.66C343.694 64.98 343.34 63.2767 343.088 61.55C343.078 61.5127 343.074 61.48 343.074 61.452C343.074 61.3027 343.167 61.2187 343.354 61.2ZM351.08 61.48C351.099 61.312 351.206 61.2187 351.402 61.2C351.673 61.172 352.55 61.158 354.034 61.158C355.285 61.158 356.144 61.172 356.61 61.2C356.797 61.2187 356.904 61.3167 356.932 61.494C356.951 61.634 356.984 62.3527 357.03 63.65C357.03 63.6593 357.03 63.6733 357.03 63.692C357.03 63.8413 356.998 63.9253 356.932 63.944C356.867 63.9533 356.825 63.958 356.806 63.958C356.713 63.958 356.624 63.8927 356.54 63.762C356.13 63.0527 355.346 62.698 354.188 62.698C353.703 62.698 353.306 62.796 352.998 62.992C352.7 63.1787 352.55 63.454 352.55 63.818V63.958C352.55 64.266 352.662 64.5087 352.886 64.686C353.12 64.854 353.442 64.938 353.852 64.938C354.515 64.938 355.122 64.9007 355.672 64.826C355.682 64.826 355.696 64.826 355.714 64.826C355.789 64.826 355.854 64.854 355.91 64.91C355.976 64.9567 356.008 65.022 356.008 65.106V66.366C356.008 66.5247 355.98 66.6133 355.924 66.632C355.868 66.6413 355.836 66.646 355.826 66.646C355.742 66.646 355.658 66.5993 355.574 66.506C355.229 66.2073 354.674 66.058 353.908 66.058C353.498 66.0673 353.166 66.1747 352.914 66.38C352.662 66.5853 352.536 66.9073 352.536 67.346V67.822C352.536 68.382 352.714 68.7973 353.068 69.068C353.432 69.3293 353.89 69.46 354.44 69.46C355.103 69.46 355.607 69.362 355.952 69.166C356.298 68.9607 356.592 68.606 356.834 68.102C356.881 67.9993 356.932 67.9387 356.988 67.92C357.044 67.892 357.086 67.878 357.114 67.878C357.161 67.878 357.208 67.9013 357.254 67.948C357.31 67.9853 357.343 68.06 357.352 68.172C357.39 68.6013 357.432 69.4553 357.478 70.734C357.478 70.7433 357.478 70.7573 357.478 70.776C357.478 70.9067 357.39 70.9813 357.212 71C356.699 71.0373 355.64 71.056 354.034 71.056C352.578 71.056 351.622 71.0373 351.164 71C350.95 70.9813 350.842 70.8787 350.842 70.692C350.861 66.9027 350.94 63.832 351.08 61.48ZM358.368 61.536C358.377 61.368 358.48 61.256 358.676 61.2C358.835 61.1627 359.017 61.144 359.222 61.144C359.381 61.144 359.577 61.1627 359.81 61.2C360.071 61.2373 360.272 61.382 360.412 61.634C360.832 62.7073 361.308 63.762 361.84 64.798C362.381 65.834 362.764 66.352 362.988 66.352C363.137 66.352 363.226 66.2213 363.254 65.96C363.291 65.6987 363.31 65.4607 363.31 65.246C363.31 65.0127 363.291 64.686 363.254 64.266C363.217 63.8367 363.165 63.398 363.1 62.95C363.044 62.4927 362.979 62.054 362.904 61.634C362.895 61.606 362.89 61.578 362.89 61.55C362.89 61.3727 362.997 61.256 363.212 61.2C363.399 61.1627 363.609 61.144 363.842 61.144C364.001 61.144 364.173 61.1627 364.36 61.2C364.547 61.2467 364.654 61.3587 364.682 61.536C364.831 63.3653 364.906 65.904 364.906 69.152C364.897 70.4493 364.542 71.098 363.842 71.098C363.478 71.098 363.105 70.832 362.722 70.3C362.349 69.7587 362.031 69.166 361.77 68.522C361.509 67.8687 361.238 67.276 360.958 66.744C360.687 66.2027 360.459 65.932 360.272 65.932C360.048 65.932 359.927 66.3053 359.908 67.052C359.908 68.1813 359.992 69.3667 360.16 70.608C360.16 70.6267 360.16 70.6453 360.16 70.664C360.16 70.8507 360.043 70.9673 359.81 71.014C359.614 71.042 359.381 71.056 359.11 71.056C358.895 71.056 358.671 71.0373 358.438 71C358.214 70.944 358.102 70.8227 358.102 70.636C358.102 66.5853 358.191 63.552 358.368 61.536ZM365.468 61.508C365.477 61.3213 365.58 61.2187 365.776 61.2C366.224 61.1627 367.223 61.144 368.772 61.144C370.303 61.144 371.297 61.1627 371.754 61.2C371.941 61.2187 372.043 61.3213 372.062 61.508C372.099 61.8347 372.118 62.558 372.118 63.678C372.118 63.6873 372.118 63.7013 372.118 63.72C372.118 63.8787 372.085 63.9627 372.02 63.972C371.955 63.9813 371.917 63.986 371.908 63.986C371.787 63.986 371.693 63.916 371.628 63.776C371.311 63.104 370.793 62.768 370.074 62.768C369.729 62.768 369.556 63.0667 369.556 63.664C369.556 63.6733 369.556 63.6873 369.556 63.706C369.565 64.2287 369.612 65.4747 369.696 67.444C369.789 69.4133 369.841 70.4913 369.85 70.678C369.85 70.8553 369.738 70.9627 369.514 71C369.271 71.0373 369.033 71.056 368.8 71.056C368.539 71.056 368.287 71.0373 368.044 71C367.839 70.9627 367.736 70.8647 367.736 70.706C367.736 70.6967 367.736 70.6873 367.736 70.678L367.862 67.612C367.946 65.568 367.993 64.266 368.002 63.706C368.002 63.6873 368.002 63.6733 368.002 63.664C368.002 63.0667 367.829 62.768 367.484 62.768C367.167 62.768 366.859 62.8613 366.56 63.048C366.271 63.2253 366.047 63.468 365.888 63.776C365.823 63.916 365.734 63.986 365.622 63.986C365.613 63.986 365.571 63.9813 365.496 63.972C365.431 63.9627 365.398 63.8647 365.398 63.678C365.445 62.2593 365.468 61.536 365.468 61.508Z" fill="#35393C"/>
<path d="M319.411 52.7021C320.27 51.7816 321.73 51.7816 322.589 52.7021V52.7021C323.1 53.2494 323.857 53.4953 324.592 53.3528V53.3528C325.828 53.1132 327.009 53.971 327.163 55.2209V55.2209C327.255 55.964 327.722 56.6077 328.401 56.9245V56.9245C329.542 57.4574 329.993 58.8453 329.383 59.9471V59.9471C329.02 60.6022 329.02 61.3978 329.383 62.0529V62.0529C329.993 63.1547 329.542 64.5426 328.401 65.0755V65.0755C327.722 65.3923 327.255 66.036 327.163 66.7791V66.7791C327.009 68.029 325.828 68.8868 324.592 68.6472V68.6472C323.857 68.5047 323.1 68.7506 322.589 69.2979V69.2979C321.73 70.2184 320.27 70.2184 319.411 69.2979V69.2979C318.9 68.7506 318.143 68.5047 317.408 68.6472V68.6472C316.172 68.8868 314.991 68.029 314.837 66.7791V66.7791C314.745 66.036 314.278 65.3923 313.599 65.0755V65.0755C312.458 64.5426 312.007 63.1547 312.617 62.0529V62.0529C312.98 61.3978 312.98 60.6022 312.617 59.9471V59.9471C312.007 58.8453 312.458 57.4574 313.599 56.9245V56.9245C314.278 56.6077 314.745 55.964 314.837 55.2209V55.2209C314.991 53.971 316.172 53.1132 317.408 53.3528V53.3528C318.143 53.4953 318.9 53.2494 319.411 52.7021V52.7021Z" fill="#5BAD9A"/>
</svg>
