<svg width="258" height="258" viewBox="0 0 258 258" fill="none" xmlns="http://www.w3.org/2000/svg">
<g filter="url(#filter0_d_7235_3487)">
<circle cx="128.928" cy="108.928" r="108.928" fill="white"/>
</g>
<circle cx="128.928" cy="108.927" r="100.581" fill="url(#paint0_radial_7235_3487)"/>
<path d="M50.4036 147.972L82.6851 155.036C82.6851 155.036 106.62 110.033 103.716 108.033C101.57 106.556 65.7049 96.2368 61.0606 98.7719C56.4162 101.307 46.1815 132.94 44.0573 139.235C41.9541 145.468 47.1233 147.54 50.4036 147.972Z" fill="white" fill-opacity="0.19"/>
<path d="M113.865 83.3701L145.804 74.8909C145.804 74.8909 146.51 23.9228 143.013 23.4728C140.429 23.1403 103.814 30.3643 100.843 34.7425C97.8723 39.1207 103.236 71.933 104.225 78.5025C105.205 85.0071 110.75 84.4858 113.865 83.3701Z" fill="white" fill-opacity="0.19"/>
<path d="M123.046 201.062L154.986 192.583C154.986 192.583 155.692 141.614 152.195 141.164C149.611 140.832 112.996 148.056 110.025 152.434C107.054 156.812 112.418 189.625 113.407 196.194C114.387 202.699 119.932 202.177 123.046 201.062Z" fill="white" fill-opacity="0.19"/>
<path d="M168.954 145.137L200.893 136.658C200.893 136.658 201.6 85.6901 198.103 85.2401C195.519 84.9076 158.904 92.1316 155.933 96.5098C152.962 100.888 158.326 133.7 159.315 140.27C160.295 146.774 165.84 146.253 168.954 145.137Z" fill="white" fill-opacity="0.19"/>
<path d="M87.168 113.977L92.8514 146.53C92.8514 146.53 143.567 151.645 144.318 148.199C144.873 145.654 140.845 108.552 136.74 105.213C132.635 101.874 99.482 104.378 92.8514 104.795C86.2865 105.209 86.326 110.777 87.168 113.977Z" fill="#774329"/>
<path d="M138.874 123.535C138.874 123.535 138.558 108.51 135.716 106.841C132.875 105.172 128.454 104.754 110.141 106.841C91.828 108.928 120.646 108.903 126.876 112.266C131.832 114.943 138.874 123.535 138.874 123.535Z" fill="white" fill-opacity="0.78"/>
<path d="M94.1192 129.187C94.1192 129.187 94.4404 141.374 96.4233 142.711C98.4062 144.049 101.476 144.362 114.167 142.563C126.858 140.763 106.864 140.951 102.52 138.259C99.0634 136.117 94.1192 129.187 94.1192 129.187Z" fill="white" fill-opacity="0.78"/>
<path d="M138.287 94.739L168.173 108.84C168.173 108.84 201.561 70.3233 199.177 67.7253C197.415 65.806 164.763 47.7323 159.67 49.1653C154.576 50.5983 137.531 79.1441 134.054 84.8051C130.611 90.4101 135.186 93.5847 138.287 94.739Z" fill="#774329"/>
<path d="M175.877 57.9724C175.877 57.9724 163.412 49.5781 160.411 50.94C157.41 52.3018 154.523 55.6752 145.683 71.8485C136.843 88.0218 153.418 64.4474 159.755 61.2919C164.797 58.7814 175.877 57.9724 175.877 57.9724Z" fill="white" fill-opacity="0.78"/>
<path d="M155.324 97.6203C155.324 97.6203 164.733 105.371 167.044 104.752C169.354 104.132 171.604 102.021 178.57 91.2607C185.536 80.5009 172.564 95.7159 167.682 97.2293C163.798 98.4334 155.324 97.6203 155.324 97.6203Z" fill="white" fill-opacity="0.78"/>
<path d="M156.698 158.013L178.991 167.586C178.991 167.586 207.796 133.17 206.124 131.181C204.888 129.713 180.724 117.036 176.649 118.593C172.574 120.15 157.23 145.104 154.111 150.06C151.023 154.966 154.363 157.277 156.698 158.013Z" fill="#774329"/>
<path d="M164.402 158.106C164.402 158.106 177.097 165.184 178.592 164.784C180.087 164.383 181.513 160.193 187.356 153.933C193.199 147.673 184.435 153.933 178.175 156.437C175.732 157.414 164.402 158.106 164.402 158.106Z" fill="white" fill-opacity="0.78"/>
<path d="M188.608 124.369C188.608 124.369 179.844 119.835 177.34 121.031C174.836 122.226 170.068 126.301 166.906 133.968C163.744 141.636 175.42 128.792 178.347 127.253C180.676 126.029 188.608 124.369 188.608 124.369Z" fill="white" fill-opacity="0.78"/>
<path d="M115.519 74.3996L110.901 90.775C110.901 90.775 76.697 88.766 76.277 86.9085C75.9667 85.5363 79.5842 66.647 82.4243 65.2913C85.2644 63.9357 107.48 68.2844 111.926 69.1107C116.327 69.9289 116.163 72.8161 115.519 74.3996Z" fill="#774329"/>
<path d="M111.983 78.4664C111.983 78.4664 110.335 88.5974 109.396 89.1791C108.457 89.7609 105.263 88.4305 98.7599 88.3799C92.2572 88.3292 100.122 86.8553 104.553 84.8279C106.282 84.0368 111.983 78.4664 111.983 78.4664Z" fill="white" fill-opacity="0.78"/>
<path d="M80.3337 74.3932C80.3337 74.3932 81.6843 67.574 83.5733 66.8588C85.4622 66.1437 90.1451 65.6735 96.2471 67.8202C102.349 69.9668 89.1532 69.7004 86.8593 70.4661C85.0344 71.0753 80.3337 74.3932 80.3337 74.3932Z" fill="white" fill-opacity="0.78"/>
<defs>
<filter id="filter0_d_7235_3487" x="0" y="0" width="257.855" height="257.855" filterUnits="userSpaceOnUse" color-interpolation-filters="sRGB">
<feFlood flood-opacity="0" result="BackgroundImageFix"/>
<feColorMatrix in="SourceAlpha" type="matrix" values="0 0 0 0 0 0 0 0 0 0 0 0 0 0 0 0 0 0 127 0" result="hardAlpha"/>
<feOffset dy="20"/>
<feGaussianBlur stdDeviation="10"/>
<feComposite in2="hardAlpha" operator="out"/>
<feColorMatrix type="matrix" values="0 0 0 0 0 0 0 0 0 0 0 0 0 0 0 0 0 0 0.25 0"/>
<feBlend mode="normal" in2="BackgroundImageFix" result="effect1_dropShadow_7235_3487"/>
<feBlend mode="normal" in="SourceGraphic" in2="effect1_dropShadow_7235_3487" result="shape"/>
</filter>
<radialGradient id="paint0_radial_7235_3487" cx="0" cy="0" r="1" gradientUnits="userSpaceOnUse" gradientTransform="translate(128.928 108.927) rotate(90) scale(139.811)">
<stop offset="0.504" stop-color="#451801"/>
<stop offset="0.873269" stop-color="#B24119"/>
</radialGradient>
</defs>
</svg>
