<svg width="1728" height="1271" viewBox="0 0 1728 1271" fill="none" xmlns="http://www.w3.org/2000/svg">
<path d="M84.1293 546.745L89.7843 547.037C98.2433 605.87 68.0625 790.075 10.2393 1097.79L-20.41 1088.59C26.4292 878.426 82.2958 662.532 84.1293 546.745Z" fill="#8F2215"/>
<path d="M78.9745 550.009L85.9899 549.246C88.6898 590.727 51.9557 800.267 -25.1199 1113L-55.7692 1103.79C7.15839 888.724 67.5066 636.995 78.9745 550.009Z" fill="#BA2F2C"/>
<path d="M75.3588 549.882L78.8427 550.45C71.9592 632.593 32.5728 798.752 -55.5174 1108.18L-66.4004 1104.43C-5.04104 889.367 63.8908 636.868 75.3588 549.882Z" fill="#8F2215"/>
<path d="M60.2494 546.3L77.4056 550.018C68.5226 630.125 24.6482 797.328 -63.4421 1106.75L-107.366 1112.22C-46.0066 897.156 41.6821 632.588 60.2494 546.3Z" fill="#BA2F2C"/>
<path d="M56.1556 546.025L64.3196 545.607C27.6371 694.396 -54.7856 956.718 -102.685 1115.06L-112.562 1117.35C-50.5775 912.049 36.2474 631.911 56.1556 546.025Z" fill="#8F2215"/>
<path d="M28.7888 550.246L40.7359 545.223C4.05344 694.012 -85.6474 965.631 -133.547 1123.97L-143.423 1126.27C-81.4394 920.962 3.38531 634.96 28.7888 550.246Z" fill="#8F2215"/>
<path d="M37.9482 545.82L58.7293 544.407C24.7143 683.95 -62.3034 960.203 -112.463 1117.86L-137.425 1132.37C-74.9417 927.22 14.8422 635.051 37.9482 545.82Z" fill="#BA2F2C"/>
<path d="M-2.61399 547.032L30.931 546.583L-144.213 1128.9L-191 1173.51C-128.517 968.351 -2.61399 547.032 -2.61399 547.032Z" fill="#BA2F2C"/>
<path d="M93.1366 548.044L100.32 550.202C114.856 620.105 106.048 807.894 56.0887 1112.02L16.3404 1100.08C60.6329 889.707 96.8287 664.554 93.1366 548.044Z" fill="#8F2215"/>
<path d="M87.8304 548.333L94.5738 548.476C101.289 590.493 77.9354 794.097 21.2331 1102.92L-10.7067 1093.32C37.8382 883.904 83.5264 674.099 87.8304 548.333Z" fill="#BA2F2C"/>
<path d="M99.9734 549.619L106.21 546.229C122.563 620.52 142.369 812.116 91.7503 1118.44L63.9744 1110.1C98.4709 908.02 120.718 689.344 99.9734 549.619Z" fill="#8F2215"/>
<path d="M1645 549.837L1639.5 550.9C1614.5 508.37 1590.5 362.349 1557.5 116.736H1589.5C1605 286.148 1613.5 461.941 1645 549.837Z" fill="#8F2215"/>
<path d="M1649 546.291L1642.5 548.418C1628 518.292 1603 354.904 1587 106.102H1619C1620.5 279.413 1635 479.306 1649 546.291Z" fill="#BA2F2C"/>
<path d="M1652.5 545.583L1649 545.938C1632 483.56 1622 351.716 1617.5 102.913L1629 103.268C1632 276.225 1638.5 478.598 1652.5 545.583Z" fill="#8F2215"/>
<path d="M1668 544.874L1650.5 545.938C1636 484.623 1630 351.007 1625.5 102.204L1666 88.3818C1669 261.339 1661 476.826 1668 544.874Z" fill="#BA2F2C"/>
<path d="M1672 544.165L1664.3 546.292C1656.7 427.916 1660.3 215.264 1660.7 87.3183L1669.5 83.4197C1669.1 249.288 1666.4 476.117 1672 544.165Z" fill="#8F2215"/>
<path d="M1697 534.95L1687 541.33C1679.4 422.954 1687.3 201.796 1687.7 73.8505L1696.5 69.9519C1696.1 235.82 1697 466.547 1697 534.95Z" fill="#8F2215"/>
<path d="M1689.5 540.267L1670 545.938C1662.5 435.004 1666.5 211.011 1669.26 83.0658L1689 66.7625C1688.08 232.631 1686 469.029 1689.5 540.267Z" fill="#BA2F2C"/>
<path d="M1728.49 544.845L1696 552.868L1696.51 68.9696L1729 24.2622C1728.06 194.921 1728.49 544.845 1728.49 544.845Z" fill="#BA2F2C"/>
<path d="M1636 550.899H1628.5C1594.5 501.989 1549 359.867 1509.5 121.697H1551C1569 288.629 1599 464.775 1636 550.899Z" fill="#8F2215"/>
<path d="M1641 549.482L1634.5 550.9C1616 520.774 1579.89 362.148 1545.5 116.736H1578.85C1592.5 285.44 1609 453.789 1641 549.482Z" fill="#BA2F2C"/>
<path d="M1629 551.254L1624 555.153C1587 503.762 1513 366.247 1473.5 128.077H1502.5C1527.5 285.439 1569 452.371 1629 551.254Z" fill="#8F2215"/>
<path d="M1631.5 550.9L1626 552.672C1592 503.762 1539.5 362.703 1500 124.533H1538C1563 281.895 1593 467.257 1631.5 550.9Z" fill="#BA2F2C"/>
<path d="M1608.5 553.026H1603.5C1500.97 441.558 1460.96 343.585 1403 127.368H1433C1467.4 296.471 1527.48 448.118 1608.5 553.026Z" fill="#8F2215"/>
<path d="M1617.5 555.862V559.051C1574.5 512.977 1477.5 361.64 1432 130.204H1465.5C1490.5 287.566 1551.51 455.561 1617.5 555.862Z" fill="#8F2215"/>
<path d="M1606.5 555.153L1600.99 553.539C1493.33 441.825 1437.52 344.393 1377.09 127.91L1418.5 127.014C1454.25 296.309 1508.12 437.915 1606.5 555.153Z" fill="#BA2F2C"/>
<path d="M1624.5 555.153H1618C1572 503.408 1504.5 367.665 1465 129.495H1494.5C1519.5 286.857 1558.51 454.852 1624.5 555.153Z" fill="#BA2F2C"/>
<path d="M1612.5 553.735L1607.5 554.089C1535 458.042 1478 359.867 1426.5 128.077H1456.5C1490.9 297.18 1531.48 448.827 1612.5 553.735Z" fill="#BA2F2C"/>
<path d="M1728.5 34.6506C1728.5 98.1869 1599.45 151.874 1441.5 151.874C1422.22 151.874 1401.61 150.192 1383.35 148.701L1382.97 148.67C1366.76 94.6106 1355.94 7.25444 1356 7.27113C1356.06 7.28781 1727.5 7.271 1727.5 7.271L1728.5 34.6506Z" fill="black" fill-opacity="0.5"/>
<path d="M97.447 549.339L103.373 548.727C117.776 619.073 115.681 808.849 65.0739 1115.13L28.6779 1104.2C63.1664 902.15 103.263 663.989 97.447 549.339Z" fill="#BA2F2C"/>
<path d="M120.265 553.323L125.054 554.761C181.941 722.044 183.949 854.656 159.315 1138.59L130.581 1129.96C160.313 911.037 158.976 706.306 120.265 553.323Z" fill="#8F2215"/>
<path d="M112.693 547.241L113.883 543.272C137.874 612.98 174.305 829.216 131.519 1130.31L99.4332 1120.67C134.212 917.655 138.467 691.044 112.693 547.241Z" fill="#8F2215"/>
<path d="M122.972 551.265L127.645 554.847C189.274 724.175 206.548 860.899 184.025 1146.39L144.034 1135.58C172.664 915.634 173.659 724.764 122.972 551.265Z" fill="#BA2F2C"/>
<path d="M105.731 546.084L111.956 547.954C136.676 625.676 150.598 814.265 99.4228 1122.45L71.168 1113.96C106.032 910.655 131.45 690.069 105.731 546.084Z" fill="#BA2F2C"/>
<path d="M116.698 551.295L121.618 552.294C155.333 692.288 173.411 830.459 136.522 1132.78L107.788 1124.15C137.737 904.502 155.273 704.729 116.698 551.295Z" fill="#BA2F2C"/>
<path d="M82.5 549.074L88 550.137C113 507.607 137 361.586 170 115.973H138C122.5 285.386 114 461.178 82.5 549.074Z" fill="#8F2215"/>
<path d="M78.5 545.529L85 547.655C99.5 517.529 124.5 354.142 140.5 105.339H108.5C107 278.651 92.5 478.543 78.5 545.529Z" fill="#BA2F2C"/>
<path d="M75 544.821L78.5 545.175C95.5 482.798 105.5 350.953 110 102.151L98.5 102.505C95.5 275.462 89 477.836 75 544.821Z" fill="#8F2215"/>
<path d="M59.5 544.112L77 545.175C91.5 483.861 97.5013 350.244 102.001 101.442L61.5013 87.6194C58.5013 260.576 66.5 476.063 59.5 544.112Z" fill="#BA2F2C"/>
<path d="M55.5 543.403L63.1993 545.529C70.8001 427.153 67.2001 214.501 66.8001 86.5558L58 82.6572C58.4008 248.526 61.1001 475.354 55.5 543.403Z" fill="#8F2215"/>
<path d="M31 540.531L40.7828 547C48.2186 426.961 40.4894 202.696 40.0981 72.9534L31.4891 69C31.8812 237.198 31 471.167 31 540.531Z" fill="#8F2215"/>
<path d="M38.002 539.505L57.5 545.175C65 434.242 61.0001 210.249 58.2403 82.3033L38.5 66C39.4218 231.868 41.5001 468.266 38.002 539.505Z" fill="#BA2F2C"/>
<path d="M-0.507692 540.047L31 548L30.5077 68.3178L-1 24C-0.0923755 193.172 -0.507692 540.047 -0.507692 540.047Z" fill="#BA2F2C"/>
<path d="M91.5 550.137H99C133 501.227 178.5 359.105 218 120.935H176.5C158.5 287.866 128.5 464.013 91.5 550.137Z" fill="#8F2215"/>
<path d="M86.5 548.72L93 550.137C111.5 520.012 147.611 361.386 182 115.973H148.653C135 284.677 118.5 453.026 86.5 548.72Z" fill="#BA2F2C"/>
<path d="M98.5 550.492L103.5 554.39C140.5 502.999 214.5 365.484 254 127.314H225C200 284.677 158.5 451.608 98.5 550.492Z" fill="#8F2215"/>
<path d="M96 550.137L101.5 551.909C135.5 502.999 188 361.94 227.5 123.77H189.5C164.5 281.133 134.5 466.494 96 550.137Z" fill="#BA2F2C"/>
<path d="M119 552.264H124C226.532 440.795 266.544 342.823 324.5 126.606H294.5C260.099 295.709 200.016 447.356 119 552.264Z" fill="#8F2215"/>
<path d="M110 555.099V558.289C153 512.214 250 360.877 295.5 129.441H262C237 286.803 175.989 454.798 110 555.099Z" fill="#8F2215"/>
<path d="M121.001 554.39L126.505 552.777C234.167 441.063 289.981 343.631 350.406 127.147L309 126.252C273.248 295.547 219.381 437.152 121.001 554.39Z" fill="#BA2F2C"/>
<path d="M103 554.39H109.5C155.5 502.645 223 366.902 262.5 128.732H233C208 286.095 168.989 454.09 103 554.39Z" fill="#BA2F2C"/>
<path d="M115 552.972L120 553.327C192.5 457.279 249.5 359.105 301 127.314H271C236.599 296.418 196.016 448.064 115 552.972Z" fill="#BA2F2C"/>
<path d="M-1 33.8884C-1 97.4247 128.047 151.112 286 151.112C305.284 151.112 325.887 149.43 344.154 147.939L344.526 147.908C360.74 93.8484 371.562 6.49224 371.5 6.50892C371.438 6.52561 0 6.50879 0 6.50879L-1 33.8884Z" fill="black" fill-opacity="0.5"/>
<path d="M571 24.5606C571 88.0969 442.954 139.603 285 139.603C127.047 139.603 -1 88.0969 -1 24.5606V-5L571 -4.9998C571 -4.9998 571 7.61578 571 24.5606Z" fill="#BA2F2C"/>
<path d="M572 9.78028C572 41.5484 443.73 67.3016 285.5 67.3016C127.271 67.3016 -1 41.5484 -1 9.78028V-5L572 -4.9999C572 -4.9999 572 1.30789 572 9.78028Z" fill="#8F2215"/>
<path d="M572 20.6481C572 75.7752 443.73 120.465 285.5 120.465C127.271 120.465 -1 75.7752 -1 20.6481V-5L572 -4.99982C572 -4.99982 572 5.94604 572 20.6481Z" fill="#8F2215"/>
<path d="M572 8.76595C572 38.3539 443.73 62.3397 285.5 62.3397C127.271 62.3397 -1 38.3539 -1 8.76595V-5L572 -4.9999C572 -4.9999 572 0.874994 572 8.76595Z" fill="#BA2F2C"/>
<path d="M572 19.4889C572 72.1243 443.73 114.794 285.5 114.794C127.271 114.794 -1 72.1243 -1 19.4889V-5L572 -4.99983C572 -4.99983 572 5.4513 572 19.4889Z" fill="#BA2F2C"/>
<path d="M572 14.8519C572 57.5209 443.73 92.111 285.5 92.111C127.271 92.111 -1 57.5209 -1 14.8519V-5L572 -4.99986C572 -4.99986 572 3.47236 572 14.8519Z" fill="#8F2215"/>
<path d="M572 13.5478C572 53.4137 443.73 85.7314 285.5 85.7314C127.271 85.7314 -1 53.4137 -1 13.5478V-5L572 -4.99987C572 -4.99987 572 2.91578 572 13.5478Z" fill="#BA2F2C"/>
<path d="M572 8.76595C572 38.3539 443.73 62.3397 285.5 62.3397C127.271 62.3397 -1 38.3539 -1 8.76595V-5L572 -4.9999C572 -4.9999 572 0.874995 572 8.76595Z" fill="#8F2215"/>
<path d="M572 7.60671C572 34.7031 443.73 56.669 285.5 56.669C127.271 56.669 -1 34.7031 -1 7.60671V-5L572 -4.99991C572 -4.99991 572 0.380257 572 7.60671Z" fill="#BA2F2C"/>
<path d="M1149 24.5606C1149 88.0968 1020.95 139.603 863 139.603C705.047 139.603 577 88.0968 577 24.5606V-5L1149 -4.9998C1149 -4.9998 1149 7.61578 1149 24.5606Z" fill="#BA2F2C"/>
<path d="M1150 9.78028C1150 41.5484 1021.73 67.3016 863.5 67.3016C705.271 67.3016 577 41.5484 577 9.78028V-5L1150 -4.9999C1150 -4.9999 1150 1.30789 1150 9.78028Z" fill="#8F2215"/>
<path d="M1150 20.6481C1150 75.7752 1021.73 120.465 863.5 120.465C705.271 120.465 577 75.7752 577 20.6481V-5L1150 -4.99982C1150 -4.99982 1150 5.94604 1150 20.6481Z" fill="#8F2215"/>
<path d="M1150 8.76595C1150 38.3539 1021.73 62.3397 863.5 62.3397C705.271 62.3397 577 38.3539 577 8.76595V-5L1150 -4.9999C1150 -4.9999 1150 0.874994 1150 8.76595Z" fill="#BA2F2C"/>
<path d="M1150 19.4889C1150 72.1243 1021.73 114.794 863.5 114.794C705.271 114.794 577 72.1243 577 19.4889V-5L1150 -4.99983C1150 -4.99983 1150 5.4513 1150 19.4889Z" fill="#BA2F2C"/>
<path d="M1150 14.8519C1150 57.5209 1021.73 92.111 863.5 92.111C705.271 92.111 577 57.5209 577 14.8519V-5L1150 -4.99986C1150 -4.99986 1150 3.47236 1150 14.8519Z" fill="#8F2215"/>
<path d="M1150 13.5478C1150 53.4137 1021.73 85.7314 863.5 85.7314C705.271 85.7314 577 53.4137 577 13.5478V-5L1150 -4.99987C1150 -4.99987 1150 2.91578 1150 13.5478Z" fill="#BA2F2C"/>
<path d="M1150 8.76595C1150 38.3539 1021.73 62.3397 863.5 62.3397C705.271 62.3397 577 38.3539 577 8.76595V-5L1150 -4.9999C1150 -4.9999 1150 0.874995 1150 8.76595Z" fill="#8F2215"/>
<path d="M1150 7.60671C1150 34.7031 1021.73 56.669 863.5 56.669C705.271 56.669 577 34.7031 577 7.60671V-5L1150 -4.99991C1150 -4.99991 1150 0.380257 1150 7.60671Z" fill="#BA2F2C"/>
<path d="M1727 24.5606C1727 88.0968 1598.95 139.603 1441 139.603C1283.05 139.603 1155 88.0968 1155 24.5606V-5L1727 -4.9998C1727 -4.9998 1727 7.61578 1727 24.5606Z" fill="#BA2F2C"/>
<path d="M1728 9.78028C1728 41.5484 1599.73 67.3016 1441.5 67.3016C1283.27 67.3016 1155 41.5484 1155 9.78028V-5L1728 -4.9999C1728 -4.9999 1728 1.30789 1728 9.78028Z" fill="#8F2215"/>
<path d="M1728 20.6481C1728 75.7752 1599.73 120.465 1441.5 120.465C1283.27 120.465 1155 75.7752 1155 20.6481V-5L1728 -4.99982C1728 -4.99982 1728 5.94604 1728 20.6481Z" fill="#8F2215"/>
<path d="M1728 8.76595C1728 38.3539 1599.73 62.3397 1441.5 62.3397C1283.27 62.3397 1155 38.3539 1155 8.76595V-5L1728 -4.9999C1728 -4.9999 1728 0.874994 1728 8.76595Z" fill="#BA2F2C"/>
<path d="M1728 19.4889C1728 72.1243 1599.73 114.794 1441.5 114.794C1283.27 114.794 1155 72.1243 1155 19.4889V-5L1728 -4.99983C1728 -4.99983 1728 5.4513 1728 19.4889Z" fill="#BA2F2C"/>
<path d="M1728 14.8519C1728 57.5209 1599.73 92.111 1441.5 92.111C1283.27 92.111 1155 57.5209 1155 14.8519V-5L1728 -4.99986C1728 -4.99986 1728 3.47236 1728 14.8519Z" fill="#8F2215"/>
<path d="M1728 13.5478C1728 53.4137 1599.73 85.7314 1441.5 85.7314C1283.27 85.7314 1155 53.4137 1155 13.5478V-5L1728 -4.99987C1728 -4.99987 1728 2.91578 1728 13.5478Z" fill="#BA2F2C"/>
<path d="M1728 8.76595C1728 38.3539 1599.73 62.3397 1441.5 62.3397C1283.27 62.3397 1155 38.3539 1155 8.76595V-5L1728 -4.9999C1728 -4.9999 1728 0.874995 1728 8.76595Z" fill="#8F2215"/>
<path d="M1728 7.60671C1728 34.7031 1599.73 56.669 1441.5 56.669C1283.27 56.669 1155 34.7031 1155 7.60671V-5L1728 -4.99991C1728 -4.99991 1728 0.380257 1728 7.60671Z" fill="#BA2F2C"/>
<path d="M563 -5H582V48.8337C582 51.5951 579.761 53.8337 577 53.8337H568C565.239 53.8337 563 51.5951 563 48.8337V-5Z" fill="#EEBA25"/>
<path d="M1141 -5H1160V48.8337C1160 51.5951 1157.76 53.8337 1155 53.8337H1146C1143.24 53.8337 1141 51.5951 1141 48.8337V-5Z" fill="#EEBA25"/>
<path d="M1643.37 542.788L1637.72 543.08C1629.26 601.913 1659.44 786.118 1717.26 1093.84L1747.91 1084.63C1701.07 874.469 1645.2 658.575 1643.37 542.788Z" fill="#8F2215"/>
<path d="M1648.53 546.052L1641.51 545.289C1638.81 586.77 1675.54 796.309 1752.62 1109.04L1783.27 1099.83C1720.34 884.766 1659.99 633.038 1648.53 546.052Z" fill="#BA2F2C"/>
<path d="M1652.14 545.925L1648.66 546.493C1655.54 628.636 1694.93 794.795 1783.02 1104.22L1793.9 1100.47C1732.54 885.41 1663.61 632.911 1652.14 545.925Z" fill="#8F2215"/>
<path d="M1667.25 542.342L1650.09 546.061C1658.98 626.168 1702.85 793.371 1790.94 1102.79L1834.87 1108.26C1773.51 893.199 1685.82 628.631 1667.25 542.342Z" fill="#BA2F2C"/>
<path d="M1671.34 542.068L1663.18 541.65C1699.86 690.439 1782.29 952.761 1830.19 1111.1L1840.06 1113.4C1778.08 908.092 1691.25 627.954 1671.34 542.068Z" fill="#8F2215"/>
<path d="M1698.71 546.289L1686.76 541.265C1723.45 690.055 1813.15 961.674 1861.05 1120.01L1870.92 1122.31C1808.94 917.005 1724.11 631.002 1698.71 546.289Z" fill="#8F2215"/>
<path d="M1689.55 541.863L1668.77 540.45C1702.79 679.993 1789.8 956.246 1839.96 1113.91L1864.92 1128.42C1802.44 923.262 1712.66 631.094 1689.55 541.863Z" fill="#BA2F2C"/>
<path d="M1730.11 543.075L1696.57 542.625L1871.71 1124.94L1918.5 1169.55C1856.02 964.394 1730.11 543.075 1730.11 543.075Z" fill="#BA2F2C"/>
<path d="M1634.36 544.087L1627.18 546.245C1612.64 616.148 1621.45 803.937 1671.41 1108.06L1711.16 1096.12C1666.87 885.75 1630.67 660.597 1634.36 544.087Z" fill="#8F2215"/>
<path d="M1639.67 544.376L1632.93 544.519C1626.21 586.536 1649.56 790.14 1706.27 1098.96L1738.21 1089.36C1689.66 879.947 1643.97 670.142 1639.67 544.376Z" fill="#BA2F2C"/>
<path d="M1627.53 545.662L1621.29 542.272C1604.94 616.563 1585.13 808.159 1635.75 1114.48L1663.53 1106.14C1629.03 904.063 1606.78 685.387 1627.53 545.662Z" fill="#8F2215"/>
<path d="M1630.05 545.381L1624.13 544.769C1609.72 615.116 1611.82 804.892 1662.43 1111.18L1698.82 1100.24C1664.33 898.193 1624.24 660.032 1630.05 545.381Z" fill="#BA2F2C"/>
<path d="M1607.23 549.366L1602.45 550.804C1545.56 718.086 1543.55 850.698 1568.18 1134.63L1596.92 1126C1567.19 907.08 1568.52 702.348 1607.23 549.366Z" fill="#8F2215"/>
<path d="M1614.81 543.284L1613.62 539.315C1589.63 609.023 1553.19 825.259 1595.98 1126.35L1628.07 1116.72C1593.29 913.698 1589.03 687.087 1614.81 543.284Z" fill="#8F2215"/>
<path d="M1604.53 547.308L1599.86 550.891C1538.23 720.218 1520.95 856.942 1543.48 1142.43L1583.47 1131.63C1554.84 911.677 1553.84 720.807 1604.53 547.308Z" fill="#BA2F2C"/>
<path d="M1621.77 542.127L1615.54 543.997C1590.82 621.719 1576.9 810.308 1628.08 1118.49L1656.33 1110C1621.47 906.698 1596.05 686.112 1621.77 542.127Z" fill="#BA2F2C"/>
<path d="M1610.8 547.338L1605.88 548.337C1572.17 688.33 1554.09 826.502 1590.98 1128.82L1619.71 1120.19C1589.76 900.545 1572.23 700.772 1610.8 547.338Z" fill="#BA2F2C"/>
<path d="M0 565L-1.22392e-06 536.976L142 536.976C144.761 536.976 147 539.214 147 541.976L147 560C147 562.762 144.761 565 142 565L0 565Z" fill="#EEBA25"/>
<path d="M1729 537L1729 565.025L1587 565.025C1584.24 565.025 1582 562.786 1582 560.025L1582 542C1582 539.239 1584.24 537 1587 537L1729 537Z" fill="#EEBA25"/>
<path d="M371.499 1095.01L162.499 119.507L220.499 60.5068L1543.5 338.5L1093 1095.01L371.499 1095.01Z" fill="url(#paint0_linear_7268_13)"/>
<path d="M1354.99 1095.01L1565.99 120.48L1507.99 59.9805L184.992 334.98L647.493 1095.01L1354.99 1095.01Z" fill="url(#paint1_linear_7268_13)"/>
<path d="M110.368 55.5219C107.403 52.5575 107.403 47.7511 110.368 44.7867L145.794 9.36027C148.758 6.3958 153.565 6.39581 156.529 9.36027L216.647 69.4778L170.485 115.639L110.368 55.5219Z" fill="black"/>
<path d="M176.604 113.815L214.186 76.2325L241.338 92.0219L191.956 141.404L176.604 113.815Z" fill="black"/>
<line x1="178" y1="95.2419" x2="197.324" y2="114.565" stroke="black" stroke-width="3.03639"/>
<line x1="220.224" y1="60.4871" x2="251.356" y2="68.0018" stroke="black" stroke-width="3.03639"/>
<path d="M134.575 54.1646L127.061 61.6792" stroke="#BA2F2C" stroke-width="1.5182" stroke-linecap="round"/>
<path d="M137.796 57.3848L130.281 64.8995" stroke="#BA2F2C" stroke-width="1.5182" stroke-linecap="round"/>
<path d="M141.017 60.605L133.502 68.1197" stroke="#BA2F2C" stroke-width="1.5182" stroke-linecap="round"/>
<path d="M144.237 63.8267L136.722 71.3413" stroke="#BA2F2C" stroke-width="1.5182" stroke-linecap="round"/>
<path d="M147.458 67.0469L139.943 74.5616" stroke="#BA2F2C" stroke-width="1.5182" stroke-linecap="round"/>
<line y1="-1.5182" x2="32.0264" y2="-1.5182" transform="matrix(0.234641 0.972082 0.972082 -0.234641 162.971 118.86)" stroke="black" stroke-width="3.03639"/>
<line x1="197.324" y1="75.9177" x2="216.648" y2="95.2412" stroke="black" stroke-width="3.03639"/>
<rect x="155.457" y="117.786" width="89.5736" height="9.10918" rx="1.5182" transform="rotate(-45 155.457 117.786)" fill="black"/>
<rect x="162.763" y="-2.00879" width="12.1456" height="40.9913" rx="1.5182" fill="black"/>
<path d="M1617.63 55.5219C1620.6 52.5575 1620.6 47.7511 1617.63 44.7867L1582.21 9.36027C1579.24 6.3958 1574.44 6.39581 1571.47 9.36027L1511.35 69.4778L1557.51 115.639L1617.63 55.5219Z" fill="black"/>
<path d="M1551.4 113.815L1513.81 76.2325L1486.66 92.0219L1536.04 141.404L1551.4 113.815Z" fill="black"/>
<line y1="-1.5182" x2="27.3275" y2="-1.5182" transform="matrix(-0.707107 0.707107 0.707107 0.707107 1551.07 96.3154)" stroke="black" stroke-width="3.03639"/>
<line y1="-1.5182" x2="32.0264" y2="-1.5182" transform="matrix(-0.972082 0.234641 0.234641 0.972082 1508.13 61.9629)" stroke="black" stroke-width="3.03639"/>
<path d="M1593.42 54.1646L1600.94 61.6792" stroke="#BA2F2C" stroke-width="1.5182" stroke-linecap="round"/>
<path d="M1590.2 57.3848L1597.72 64.8995" stroke="#BA2F2C" stroke-width="1.5182" stroke-linecap="round"/>
<path d="M1586.98 60.605L1594.5 68.1197" stroke="#BA2F2C" stroke-width="1.5182" stroke-linecap="round"/>
<path d="M1583.76 63.8267L1591.28 71.3413" stroke="#BA2F2C" stroke-width="1.5182" stroke-linecap="round"/>
<path d="M1580.54 67.0469L1588.06 74.5616" stroke="#BA2F2C" stroke-width="1.5182" stroke-linecap="round"/>
<line x1="1566.51" y1="119.217" x2="1558.99" y2="150.349" stroke="black" stroke-width="3.03639"/>
<line y1="-1.5182" x2="27.3275" y2="-1.5182" transform="matrix(-0.707107 0.707107 0.707107 0.707107 1531.75 76.9912)" stroke="black" stroke-width="3.03639"/>
<rect width="89.5736" height="9.10918" rx="1.5182" transform="matrix(-0.707107 -0.707107 -0.707107 0.707107 1572.54 117.786)" fill="black"/>
<rect width="12.1456" height="40.9913" rx="1.5182" transform="matrix(-1 0 0 1 1565.24 -2.00879)" fill="black"/>
<defs>
<linearGradient id="paint0_linear_7268_13" x1="135.999" y1="34.5069" x2="1050" y2="629.007" gradientUnits="userSpaceOnUse">
<stop stop-color="#D9D9D9" stop-opacity="0.45"/>
<stop offset="1" stop-color="#D9D9D9" stop-opacity="0"/>
</linearGradient>
<linearGradient id="paint1_linear_7268_13" x1="1592.49" y1="35.4805" x2="678.492" y2="629.98" gradientUnits="userSpaceOnUse">
<stop stop-color="#D9D9D9" stop-opacity="0.45"/>
<stop offset="1" stop-color="#D9D9D9" stop-opacity="0"/>
</linearGradient>
</defs>
</svg>
