<svg width="423" height="246" viewBox="0 0 423 246" fill="none" xmlns="http://www.w3.org/2000/svg">
<g filter="url(#filter0_d_7241_4231)">
<rect x="52.3143" y="3.79346" width="369.001" height="147.428" rx="73.7139" transform="rotate(15 52.3143 3.79346)" fill="url(#paint0_linear_7241_4231)"/>
<path d="M43.3912 35.7458C40.2268 36.5995 37.7623 47.134 36.9498 49.4331L26.9715 84.3435C25.5445 89.669 21.5871 93.4409 20.5784 99.1447C19.6569 104.356 25.72 107.305 29.12 109.064L29.1883 109.099C33.2586 111.205 38.0763 113.697 41.7653 109.491C43.193 107.863 44.8129 105.55 46.7739 104.645C48.5865 103.809 49.1966 107.094 49.653 108.264C52.0381 114.381 55.2232 119.873 57.0676 126.271C57.8211 128.885 58.9454 130.738 61.6971 129.828C66.0925 128.374 71.9572 130.771 76.1432 131.686C85.4939 133.731 93.2461 134.934 102.912 132.975C112.247 131.083 121.479 127.459 130.847 126.034C133.844 125.577 136.673 125.031 138.259 128.133C143.763 138.899 146.916 151.563 155.568 160.067C162.728 167.104 171.062 162.18 175.122 153.994C176.891 150.426 177.209 146.42 178.654 142.754C180.388 138.354 186.125 135.784 190.159 135.662C193.712 135.555 195.675 137.211 198.257 139.389L198.388 139.5C201.78 142.36 197.558 153.352 197.075 156.953C196.167 163.715 198.071 166.914 204.358 166.003C209.695 165.231 210.149 160.343 212.844 156.205C216.614 150.413 229.587 155.737 234.146 157.319C241.077 159.724 244.958 163.65 249.389 169.793C252.416 173.99 254.246 178.441 259.674 177.864C263.807 177.425 266.622 178.257 269.028 181.775C270.79 184.352 273.653 191.071 277.276 190.591C281.589 190.019 285.226 187.655 289.562 189.251C298.446 192.522 305.45 195.312 315.056 192.324C319.325 190.996 324.832 189.669 328.4 186.522C331.87 183.462 334.272 178.041 337.123 174.282C338.706 172.195 340.366 170.123 342.881 169.485C348.76 167.994 356.085 179.863 358.912 183.157C362.457 187.287 367.556 196.196 373.657 196.713C375.903 196.903 378.204 197.36 380.478 197.136C386.593 196.534 390.038 184.543 392.37 179.67C395.467 173.201 397.345 164.856 399.212 157.89C399.918 155.254 400.964 152.469 401.117 149.745C401.313 146.248 402.571 145.113 403.464 142.022C404.786 137.446 402.906 135.007 399.059 133.097C391.776 129.481 381.64 130.163 373.592 129.538C370.129 129.269 366.328 130.112 362.982 129.276C359.659 128.447 359.812 123.394 357.6 121.153C354.978 118.494 351.414 119.611 348.158 119.382C343.277 119.038 341.66 112.719 337.297 112.296C332.743 111.854 331.733 119.338 328.317 119.153C318.909 118.642 312.875 109.638 305.298 105.164C301.38 102.851 297.257 103.133 293.267 101.409C289.878 99.945 287.008 97.133 284.255 94.6664C280.241 91.0699 279.935 89.6383 275.506 93.1573C269.545 97.8936 264.111 102.65 256.474 102.332C250.823 102.096 250.585 99.9809 247.721 95.6588C245.596 92.4511 244.266 91.6322 240.638 92.8497C238.876 93.4408 236.953 94.7253 235.079 94.7011C233.462 94.6803 233.202 91.6461 232.672 90.4874C231.461 87.8449 228.627 87.8567 226.282 89.2308C222.595 91.3904 221.551 93.3854 219.127 88.7565C216.489 83.717 213.649 79.5548 209.853 75.4897C207.251 72.7032 204.95 69.0421 201.929 66.7607C197.914 63.7292 187.257 59.9967 183.19 65.0046C180.531 68.2787 176.712 77.7404 171.694 75.8188C168.007 74.4071 165.132 72.4017 160.957 72.4104C157.044 72.4185 151.955 74.398 148.403 72.1596C140.252 67.0233 128.544 69.5594 120.858 63.4124C119.222 62.1036 118.542 60.0782 117.168 58.5512C115.892 57.134 113.389 56.8855 111.691 56.4762C108.622 55.7366 105.74 55.6709 102.584 55.7824C97.1884 55.9732 92.7006 53.8884 87.9461 51.4046C80.7045 47.6216 73.4603 41.1131 65.5933 38.8096C64.5676 38.5092 62.8203 39.9812 61.9717 40.4207C58.2061 42.3707 54.6839 41.6919 51.1147 39.7894C49.0804 38.7049 46.0876 35.0183 43.3912 35.7458Z" fill="#56AB07"/>
<rect x="25.4381" y="47.4681" width="398.314" height="49.1426" rx="24.5713" transform="rotate(15 25.4381 47.4681)" fill="url(#paint1_linear_7241_4231)"/>
<path d="M22.598 91.3785C30.7332 73.5997 37.8449 55.567 61.3579 67.3079C69.3429 71.2951 72.3247 84.3329 79.0006 90.4556C86.132 96.9962 97.9129 88.2588 104.864 84.4796C111.052 81.1156 118.786 78.3242 125.906 79.924C132.578 81.4231 139.619 82.7947 143.969 88.4897C146.705 92.0713 148.148 95.5399 150.124 99.5577C152.871 105.144 155.478 113.765 161.771 116.27C170.708 119.829 188.906 110.19 198.27 109.537C206.624 108.955 217.968 111.16 224.871 116.159C239.168 126.51 250.772 149.335 269.018 153.092C279.41 155.231 293.859 148.276 302.965 144.744C311.93 141.266 326.515 142.738 331.796 151.277C335.234 156.836 338.483 159.539 345.055 161.864C349.12 163.302 353.704 164.694 358.005 163.367C364.853 161.253 370.899 159.913 378.283 160.216C386.406 160.549 391.235 167.15 394.313 173.811" stroke="#FED308" stroke-width="10" stroke-linecap="round"/>
<path d="M23.0446 56.4004C24.4843 65.9298 26.2689 77.2657 34.2468 83.7837C39.6755 88.219 48.5505 91.753 55.4419 89.2245C64.1385 86.0336 69.4193 74.1293 79.4973 78.6506C96.9618 86.4857 92.5644 107.143 114.434 111.768C130.912 115.252 137.489 102.093 151.294 98.8124C159.654 96.8253 168.377 101.716 172.635 108.823C176.612 115.459 179.624 125.052 185.729 130.036C191.941 135.108 198.961 136.535 206.739 136.501C225.899 136.415 254.564 108.374 273.348 122.515C277.127 125.36 279.732 130.393 282.44 134.192C289.722 144.403 294.378 166.673 309.919 163.313C356.89 129.586 347.441 156.561 367.664 172.691C373.548 177.383 379.041 171.873 378.744 172.982" stroke="#DC0802" stroke-width="10" stroke-linecap="round"/>
</g>
<defs>
<filter id="filter0_d_7241_4231" x="13.5968" y="20.342" width="395.067" height="212.812" filterUnits="userSpaceOnUse" color-interpolation-filters="sRGB">
<feFlood flood-opacity="0" result="BackgroundImageFix"/>
<feColorMatrix in="SourceAlpha" type="matrix" values="0 0 0 0 0 0 0 0 0 0 0 0 0 0 0 0 0 0 127 0" result="hardAlpha"/>
<feOffset dy="4"/>
<feGaussianBlur stdDeviation="2"/>
<feComposite in2="hardAlpha" operator="out"/>
<feColorMatrix type="matrix" values="0 0 0 0 0 0 0 0 0 0 0 0 0 0 0 0 0 0 0.25 0"/>
<feBlend mode="normal" in2="BackgroundImageFix" result="effect1_dropShadow_7241_4231"/>
<feBlend mode="normal" in="SourceGraphic" in2="effect1_dropShadow_7241_4231" result="shape"/>
</filter>
<linearGradient id="paint0_linear_7241_4231" x1="236.815" y1="3.79346" x2="236.815" y2="151.221" gradientUnits="userSpaceOnUse">
<stop stop-color="#F98200"/>
<stop offset="0.478016" stop-color="#FEDF9C"/>
<stop offset="1" stop-color="#F98200"/>
</linearGradient>
<linearGradient id="paint1_linear_7241_4231" x1="224.595" y1="47.4681" x2="224.595" y2="96.6107" gradientUnits="userSpaceOnUse">
<stop stop-color="#FE5701"/>
<stop offset="0.478016" stop-color="#FF9B58"/>
<stop offset="1" stop-color="#FE5701"/>
</linearGradient>
</defs>
</svg>
