<svg width="594" height="692" viewBox="0 0 594 692" fill="none" xmlns="http://www.w3.org/2000/svg">
<path d="M483.104 294.118L481.021 294.713C471.556 270.912 462.47 189.197 449.977 51.7495H462.092C467.96 146.555 471.178 244.93 483.104 294.118Z" fill="#8F2215"/>
<path d="M484.617 292.133L482.156 293.323C476.667 276.465 467.202 185.031 461.145 45.7986H473.259C473.827 142.785 479.317 254.648 484.617 292.133Z" fill="#BA2F2C"/>
<path d="M485.94 291.737L484.615 291.935C478.179 257.028 474.393 183.247 472.69 44.0139L477.044 44.2123C478.179 141.001 480.64 254.251 485.94 291.737Z" fill="#8F2215"/>
<path d="M491.81 291.341L485.184 291.936C479.695 257.623 477.423 182.85 475.719 43.6175L491.052 35.8823C492.188 132.671 489.159 253.26 491.81 291.341Z" fill="#BA2F2C"/>
<path d="M493.323 290.944L490.408 292.134C487.531 225.889 488.894 106.887 489.045 35.2869L492.377 33.1052C492.225 125.927 491.203 252.863 493.323 290.944Z" fill="#8F2215"/>
<path d="M502.789 285.786L499.003 289.357C496.126 223.112 499.117 99.3495 499.268 27.7498L502.6 25.5681C502.448 118.39 502.789 247.507 502.789 285.786Z" fill="#8F2215"/>
<path d="M499.949 288.762L492.567 291.935C489.728 229.856 491.242 104.506 492.287 32.9067L499.761 23.7832C499.412 116.605 498.625 248.896 499.949 288.762Z" fill="#BA2F2C"/>
<path d="M514.712 291.324L502.411 295.813L502.603 25.0185L514.904 -0.000244141C514.55 95.5024 514.712 291.324 514.712 291.324Z" fill="#BA2F2C"/>
<path d="M479.693 294.711H476.854C463.982 267.341 446.756 187.808 431.802 54.5251H447.513C454.328 147.942 465.685 246.516 479.693 294.711Z" fill="#8F2215"/>
<path d="M481.588 293.919L479.127 294.713C472.123 277.854 458.452 189.085 445.432 51.7495H458.057C463.226 146.158 469.473 240.368 481.588 293.919Z" fill="#BA2F2C"/>
<path d="M477.046 294.911L475.153 297.092C461.145 268.333 433.129 191.379 418.175 58.0959H429.154C438.619 146.158 454.33 239.575 477.046 294.911Z" fill="#8F2215"/>
<path d="M477.991 294.712L475.909 295.704C463.037 268.333 443.161 189.395 428.206 56.1123H442.593C452.058 144.174 463.415 247.904 477.991 294.712Z" fill="#BA2F2C"/>
<path d="M469.284 295.902H467.391C428.574 233.523 413.425 178.697 391.484 57.6992H402.841C415.865 152.331 438.612 237.194 469.284 295.902Z" fill="#8F2215"/>
<path d="M472.691 297.489V299.274C456.412 273.49 419.689 188.8 402.463 59.2856H415.145C424.61 147.347 447.708 241.359 472.691 297.489Z" fill="#8F2215"/>
<path d="M468.527 297.092L466.443 296.189C425.683 233.673 404.552 179.148 381.676 58.0019L397.352 57.5008C410.887 152.24 431.281 231.484 468.527 297.092Z" fill="#BA2F2C"/>
<path d="M475.342 297.092H472.881C455.466 268.135 429.911 192.172 414.956 58.8892H426.125C435.59 146.951 450.359 240.963 475.342 297.092Z" fill="#BA2F2C"/>
<path d="M470.798 296.299L468.905 296.497C441.457 242.748 419.877 187.808 400.38 58.0959H411.738C424.762 152.728 440.126 237.591 470.798 296.299Z" fill="#BA2F2C"/>
<path d="M514.715 12.1971C514.715 40.5013 465.859 64.418 406.059 64.418C398.758 64.418 390.958 63.6686 384.042 63.0042L383.902 62.9907C377.763 38.9081 373.666 -0.00737395 373.689 5.90246e-05C373.713 0.007492 514.336 0 514.336 0L514.715 12.1971Z" fill="black" fill-opacity="0.5"/>
<path d="M112.082 294.118L114.164 294.713C123.629 270.912 132.715 189.197 145.209 51.7495H133.094C127.226 146.555 124.008 244.93 112.082 294.118Z" fill="#8F2215"/>
<path d="M110.568 292.133L113.029 293.323C118.519 276.465 127.984 185.031 134.041 45.7986H121.926C121.358 142.785 115.869 254.648 110.568 292.133Z" fill="#BA2F2C"/>
<path d="M109.245 291.737L110.57 291.935C117.006 257.028 120.792 183.247 122.496 44.0139L118.142 44.2123C117.006 141.001 114.545 254.251 109.245 291.737Z" fill="#8F2215"/>
<path d="M103.376 291.341L110.001 291.936C115.491 257.623 117.763 182.85 119.467 43.6175L104.134 35.8823C102.998 132.671 106.026 253.26 103.376 291.341Z" fill="#BA2F2C"/>
<path d="M101.862 290.944L104.777 292.134C107.655 225.889 106.292 106.887 106.14 35.2869L102.809 33.1052C102.961 125.927 103.982 252.863 101.862 290.944Z" fill="#8F2215"/>
<path d="M92.3965 285.786L96.1824 289.357C99.06 223.112 96.0689 99.3495 95.9174 27.7498L92.5858 25.5681C92.7375 118.39 92.3965 247.507 92.3965 285.786Z" fill="#8F2215"/>
<path d="M95.2363 288.762L102.618 291.935C105.458 229.856 103.943 104.506 102.898 32.9067L95.4249 23.7832C95.7739 116.605 96.5607 248.896 95.2363 288.762Z" fill="#BA2F2C"/>
<path d="M80.4735 291.324L92.7748 295.813L92.5826 25.0185L80.2812 -0.000244141C80.6356 95.5024 80.4735 291.324 80.4735 291.324Z" fill="#BA2F2C"/>
<path d="M115.492 294.711H118.332C131.204 267.341 148.43 187.808 163.384 54.5251H147.672C140.858 147.942 129.5 246.516 115.492 294.711Z" fill="#8F2215"/>
<path d="M113.598 293.919L116.059 294.713C123.062 277.854 136.734 189.085 149.753 51.7495H137.128C131.959 146.158 125.713 240.368 113.598 293.919Z" fill="#BA2F2C"/>
<path d="M118.14 294.911L120.033 297.092C134.041 268.333 162.056 191.379 177.011 58.0959H166.032C156.567 146.158 140.855 239.575 118.14 294.911Z" fill="#8F2215"/>
<path d="M117.194 294.712L119.277 295.704C132.149 268.333 152.025 189.395 166.979 56.1123H152.593C143.128 144.174 131.77 247.904 117.194 294.712Z" fill="#BA2F2C"/>
<path d="M125.901 295.902H127.794C166.612 233.523 181.76 178.697 203.702 57.6992H192.344C179.32 152.331 156.573 237.194 125.901 295.902Z" fill="#8F2215"/>
<path d="M122.494 297.489V299.274C138.774 273.49 175.497 188.8 192.723 59.2856H180.04C170.575 147.347 147.477 241.359 122.494 297.489Z" fill="#8F2215"/>
<path d="M126.659 297.092L128.743 296.189C169.502 233.673 190.633 179.148 213.51 58.0019L197.834 57.5008C184.298 152.24 163.904 231.484 126.659 297.092Z" fill="#BA2F2C"/>
<path d="M119.844 297.092H122.305C139.72 268.135 165.275 192.172 180.229 58.8892H169.061C159.596 146.951 144.827 240.963 119.844 297.092Z" fill="#BA2F2C"/>
<path d="M124.388 296.299L126.281 296.497C153.729 242.748 175.308 187.808 194.806 58.0959H183.448C170.424 152.728 155.06 237.591 124.388 296.299Z" fill="#BA2F2C"/>
<path d="M80.4707 12.1971C80.4707 40.5013 129.327 64.418 189.127 64.418C196.427 64.418 204.227 63.6686 211.143 63.0042L211.284 62.9907C217.423 38.9081 221.52 -0.00737395 221.496 5.90246e-05C221.473 0.007492 80.8493 0 80.8493 0L80.4707 12.1971Z" fill="black" fill-opacity="0.5"/>
<path d="M514.147 12.1195C514.147 38.1686 465.67 59.2856 405.87 59.2856C346.07 59.2856 297.593 38.1686 297.593 12.1195V0L514.147 8.38348e-05C514.147 8.38348e-05 514.147 5.17232 514.147 12.1195Z" fill="#BA2F2C"/>
<path d="M514.526 6.05974C514.526 19.0843 465.964 29.6428 406.059 29.6428C346.155 29.6428 297.593 19.0843 297.593 6.05974V0L514.526 4.19174e-05C514.526 4.19174e-05 514.526 2.58616 514.526 6.05974Z" fill="#8F2215"/>
<path d="M514.526 10.5154C514.526 33.1169 465.964 51.439 406.059 51.439C346.155 51.439 297.593 33.1169 297.593 10.5154V0L514.526 7.2739e-05C514.526 7.2739e-05 514.526 4.48775 514.526 10.5154Z" fill="#8F2215"/>
<path d="M514.526 5.64388C514.526 17.7746 465.964 27.6085 406.059 27.6085C346.155 27.6085 297.593 17.7746 297.593 5.64388V0L514.526 3.90407e-05C514.526 3.90407e-05 514.526 2.40868 514.526 5.64388Z" fill="#BA2F2C"/>
<path d="M514.526 10.0402C514.526 31.6201 465.964 49.1141 406.059 49.1141C346.155 49.1141 297.593 31.6201 297.593 10.0402V0L514.526 6.94514e-05C514.526 6.94514e-05 514.526 4.28491 514.526 10.0402Z" fill="#BA2F2C"/>
<path d="M514.526 8.13907C514.526 25.6329 465.964 39.8144 406.059 39.8144C346.155 39.8144 297.593 25.6329 297.593 8.13907V0L514.526 5.63008e-05C514.526 5.63008e-05 514.526 3.47357 514.526 8.13907Z" fill="#8F2215"/>
<path d="M514.526 7.60438C514.526 23.9489 465.964 37.1988 406.059 37.1988C346.155 37.1988 297.593 23.9489 297.593 7.60438V0L514.526 5.26022e-05C514.526 5.26022e-05 514.526 3.24538 514.526 7.60438Z" fill="#BA2F2C"/>
<path d="M514.526 5.64388C514.526 17.7746 465.964 27.6085 406.059 27.6085C346.155 27.6085 297.593 17.7746 297.593 5.64388V0L514.526 3.90407e-05C514.526 3.90407e-05 514.526 2.40868 514.526 5.64388Z" fill="#8F2215"/>
<path d="M514.526 5.1686C514.526 16.2778 465.964 25.2836 406.059 25.2836C346.155 25.2836 297.593 16.2778 297.593 5.1686V0L514.526 3.57531e-05C514.526 3.57531e-05 514.526 2.20584 514.526 5.1686Z" fill="#BA2F2C"/>
<path d="M81.0383 12.1195C81.0383 38.1686 129.516 59.2856 189.315 59.2856C249.115 59.2856 297.593 38.1686 297.593 12.1195V0L81.0383 8.38348e-05C81.0383 8.38348e-05 81.0383 5.17232 81.0383 12.1195Z" fill="#BA2F2C"/>
<path d="M80.6597 6.05974C80.6597 19.0843 129.222 29.6428 189.126 29.6428C249.031 29.6428 297.593 19.0843 297.593 6.05974V0L80.6597 4.19174e-05C80.6597 4.19174e-05 80.6597 2.58616 80.6597 6.05974Z" fill="#8F2215"/>
<path d="M80.6597 10.5154C80.6597 33.1169 129.222 51.439 189.126 51.439C249.031 51.439 297.593 33.1169 297.593 10.5154V0L80.6597 7.2739e-05C80.6597 7.2739e-05 80.6597 4.48775 80.6597 10.5154Z" fill="#8F2215"/>
<path d="M80.6597 5.64388C80.6597 17.7746 129.222 27.6085 189.126 27.6085C249.031 27.6085 297.593 17.7746 297.593 5.64388V0L80.6597 3.90407e-05C80.6597 3.90407e-05 80.6597 2.40868 80.6597 5.64388Z" fill="#BA2F2C"/>
<path d="M80.6597 10.0402C80.6597 31.6201 129.222 49.1141 189.126 49.1141C249.031 49.1141 297.593 31.6201 297.593 10.0402V0L80.6597 6.94514e-05C80.6597 6.94514e-05 80.6597 4.28491 80.6597 10.0402Z" fill="#BA2F2C"/>
<path d="M80.6597 8.13907C80.6597 25.6329 129.222 39.8144 189.126 39.8144C249.031 39.8144 297.593 25.6329 297.593 8.13907V0L80.6597 5.63008e-05C80.6597 5.63008e-05 80.6597 3.47357 80.6597 8.13907Z" fill="#8F2215"/>
<path d="M80.6597 7.60438C80.6597 23.9489 129.222 37.1988 189.126 37.1988C249.031 37.1988 297.593 23.9489 297.593 7.60438V0L80.6597 5.26022e-05C80.6597 5.26022e-05 80.6597 3.24538 80.6597 7.60438Z" fill="#BA2F2C"/>
<path d="M80.6597 5.64388C80.6597 17.7746 129.222 27.6085 189.126 27.6085C249.031 27.6085 297.593 17.7746 297.593 5.64388V0L80.6597 3.90407e-05C80.6597 3.90407e-05 80.6597 2.40868 80.6597 5.64388Z" fill="#8F2215"/>
<path d="M80.6597 5.1686C80.6597 16.2778 129.222 25.2836 189.126 25.2836C249.031 25.2836 297.593 16.2778 297.593 5.1686V0L80.6597 3.57531e-05C80.6597 3.57531e-05 80.6597 2.20584 80.6597 5.1686Z" fill="#BA2F2C"/>
<path d="M480.065 286.603L477.862 286.19C474.974 320.608 488.029 434.252 512.724 624.868L524.612 622.528C504.88 491.581 481.588 356.257 480.065 286.603Z" fill="#8F2215"/>
<path d="M482.099 289.095L479.357 287.909C478.594 312.514 494.381 442.038 526.619 637.661L538.507 635.321C512.467 499.759 487.177 342.472 482.099 289.095Z" fill="#BA2F2C"/>
<path d="M483.509 289.395L482.154 289.374C485.412 339.369 501.93 443.144 538.44 637.926L542.658 636.808C517.23 501.413 488.588 342.772 483.509 289.395Z" fill="#8F2215"/>
<path d="M489.374 288.815L482.71 289.264C486.733 338.245 505.008 443.112 541.519 637.894L558.685 645.735C533.257 510.341 497.216 342.511 489.374 288.815Z" fill="#BA2F2C"/>
<path d="M490.968 289.076L487.782 287.977C503.125 381.05 537.096 546.986 556.88 646.953L560.747 649.356C535.143 519.75 499.331 342.669 490.968 289.076Z" fill="#8F2215"/>
<path d="M501.669 294.451L496.975 290.196C512.318 383.269 549.193 555.538 568.976 655.505L572.844 657.909C547.24 528.303 512.166 347.911 501.669 294.451Z" fill="#8F2215"/>
<path d="M498.067 290.844L489.953 287.838C504.191 375.087 540.052 549.857 560.712 649.652L570.547 660.95C544.75 531.382 507.7 346.776 498.067 290.844Z" fill="#BA2F2C"/>
<path d="M513.893 295.784L500.809 292.03L573.171 659.571L591.727 691.191C565.929 561.623 513.893 295.784 513.893 295.784Z" fill="#BA2F2C"/>
<path d="M476.562 286.446L473.776 286.994C468.595 327.421 473.34 440.997 494.944 628.64L510.361 625.605C491.621 494.796 475.935 355.96 476.562 286.446Z" fill="#8F2215"/>
<path d="M478.632 287.17L476.004 286.556C473.678 311.066 484.206 435.639 508.472 626.798L520.86 624.359C500.469 493.682 481.188 363.068 478.632 287.17Z" fill="#BA2F2C"/>
<path d="M473.907 286.681L471.452 283.999C465.593 326.87 459.206 439.757 481.083 628.788L491.856 626.668C476.994 501.852 466.793 368.351 473.907 286.681Z" fill="#8F2215"/>
<path d="M474.889 286.774L472.574 285.791C467.448 326.498 469.589 440.568 491.461 629.574L505.577 626.795C490.718 501.996 473.421 354.952 474.889 286.774Z" fill="#BA2F2C"/>
<path d="M466.019 286.795L464.161 287.161C443.145 381.609 443.287 460.959 454.875 633.857L466.019 631.663C452.898 497.239 451.991 374.553 466.019 286.795Z" fill="#8F2215"/>
<path d="M468.929 283.933L468.437 281.428C459.568 320.756 446.871 446.699 465.656 631.779L478.101 629.329C463.122 503.92 459.882 367.528 468.929 283.933Z" fill="#8F2215"/>
<path d="M464.949 285.279L463.152 286.943C440.301 382.127 434.519 462.357 445.294 635.97L460.813 633.641C448.114 498.714 446.394 384.102 464.949 285.279Z" fill="#BA2F2C"/>
<path d="M471.636 283.962L469.222 284.437C460.124 328.497 456.011 440.191 478.118 630.394L489.076 628.236C474.062 502.647 462.611 367.671 471.636 283.962Z" fill="#BA2F2C"/>
<path d="M467.397 285.949L465.485 286.037C453.314 366.522 447.229 447.537 463.723 632.74L474.868 630.546C461.656 495.663 453.424 373.992 467.397 285.949Z" fill="#BA2F2C"/>
<path d="M115.12 286.603L117.323 286.19C120.211 320.608 107.157 434.252 82.4614 624.868L70.5737 622.528C90.3054 491.581 113.597 356.257 115.12 286.603Z" fill="#8F2215"/>
<path d="M113.087 289.095L115.828 287.909C116.591 312.514 100.805 442.038 68.5665 637.661L56.6789 635.321C82.7185 499.759 108.008 342.472 113.087 289.095Z" fill="#BA2F2C"/>
<path d="M111.677 289.395L113.031 289.374C109.774 339.369 93.2556 443.144 56.7453 637.926L52.5276 636.808C77.9556 501.413 106.598 342.772 111.677 289.395Z" fill="#8F2215"/>
<path d="M105.812 288.815L112.476 289.264C108.453 338.245 90.1772 443.112 53.6668 637.894L36.5003 645.735C61.9283 510.341 97.9691 342.511 105.812 288.815Z" fill="#BA2F2C"/>
<path d="M104.217 289.076L107.404 287.977C92.061 381.05 58.0894 546.986 38.3059 646.953L34.4385 649.356C60.0421 519.75 95.8547 342.669 104.217 289.076Z" fill="#8F2215"/>
<path d="M93.5164 294.451L98.2104 290.196C82.8676 383.269 45.993 555.538 26.2094 655.505L22.342 657.909C47.9456 528.303 83.0191 347.911 93.5164 294.451Z" fill="#8F2215"/>
<path d="M97.1187 290.844L105.232 287.838C90.9942 375.087 55.1336 549.857 34.4734 649.652L24.6381 660.95C50.4353 531.382 87.4857 346.776 97.1187 290.844Z" fill="#BA2F2C"/>
<path d="M81.2925 295.784L94.3768 292.03L22.015 659.571L3.45898 691.191C29.2561 561.623 81.2925 295.784 81.2925 295.784Z" fill="#BA2F2C"/>
<path d="M118.624 286.446L121.41 286.994C126.591 327.421 121.845 440.997 100.241 628.64L84.8247 625.605C103.565 494.796 119.25 355.96 118.624 286.446Z" fill="#8F2215"/>
<path d="M116.553 287.17L119.182 286.556C121.507 311.066 110.98 435.639 86.7136 626.798L74.3254 624.359C94.717 493.682 113.997 363.068 116.553 287.17Z" fill="#BA2F2C"/>
<path d="M121.278 286.681L123.734 283.999C129.592 326.87 135.979 439.757 114.103 628.788L103.329 626.668C118.191 501.852 128.393 368.351 121.278 286.681Z" fill="#8F2215"/>
<path d="M120.297 286.774L122.612 285.791C127.738 326.498 125.596 440.568 103.725 629.574L89.6083 626.795C104.467 501.996 121.765 354.952 120.297 286.774Z" fill="#BA2F2C"/>
<path d="M129.167 286.795L131.024 287.161C152.04 381.609 151.898 460.959 140.311 633.857L129.166 631.663C142.288 497.239 143.195 374.553 129.167 286.795Z" fill="#8F2215"/>
<path d="M126.256 283.933L126.748 281.428C135.617 320.756 148.315 446.699 129.529 631.779L117.085 629.329C132.063 503.92 135.304 367.528 126.256 283.933Z" fill="#8F2215"/>
<path d="M130.236 285.279L132.034 286.943C154.885 382.127 160.667 462.357 149.892 635.97L134.373 633.641C147.072 498.714 148.792 384.102 130.236 285.279Z" fill="#BA2F2C"/>
<path d="M123.549 283.962L125.964 284.437C135.061 328.497 139.174 440.191 117.068 630.394L106.109 628.236C121.123 502.647 132.574 367.671 123.549 283.962Z" fill="#BA2F2C"/>
<path d="M127.789 285.949L129.701 286.037C141.871 366.522 147.957 447.537 131.462 632.74L120.318 630.546C133.529 495.663 141.761 373.992 127.789 285.949Z" fill="#BA2F2C"/>
<path d="M514.905 285.198L514.905 295.807L461.145 295.807C460.1 295.807 459.252 294.96 459.252 293.914L459.252 287.09C459.252 286.045 460.1 285.198 461.145 285.198L514.905 285.198Z" fill="#EEBA25"/>
<path d="M80.2803 285.198L80.2803 295.807L134.04 295.807C135.086 295.807 135.933 294.96 135.933 293.914L135.933 287.09C135.933 286.045 135.086 285.198 134.04 285.198L80.2803 285.198Z" fill="#EEBA25"/>
<path d="M293.996 0H301.189V20.381C301.189 21.4264 300.342 22.2739 299.296 22.2739H295.889C294.844 22.2739 293.996 21.4264 293.996 20.381V0Z" fill="#EEBA25"/>
<path d="M203.321 451.019L101.461 43.2673L122.113 22.2595L593.186 121.243L203.321 451.019Z" fill="url(#paint0_linear_7296_3499)"/>
<path d="M390.26 453.155L492.12 45.404L471.468 24.3962L0.394868 123.38L390.26 453.155Z" fill="url(#paint1_linear_7296_3499)"/>
<path d="M82.8995 20.4845C81.844 19.4289 81.844 17.7176 82.8995 16.662L95.5136 4.04795C96.5691 2.99241 98.2805 2.99241 99.336 4.04795L120.742 25.4536L104.305 41.8902L82.8995 20.4845Z" fill="black"/>
<path d="M106.484 41.2407L119.866 27.8588L129.534 33.4808L111.951 51.0641L106.484 41.2407Z" fill="black"/>
<line x1="106.981" y1="34.6273" x2="113.861" y2="41.5077" stroke="black" stroke-width="1.08115"/>
<line x1="122.016" y1="22.2523" x2="133.101" y2="24.9281" stroke="black" stroke-width="1.08115"/>
<path d="M91.5195 20.001L88.8438 22.6767" stroke="#BA2F2C" stroke-width="0.540576" stroke-linecap="round"/>
<path d="M92.666 21.1475L89.9903 23.8232" stroke="#BA2F2C" stroke-width="0.540576" stroke-linecap="round"/>
<path d="M93.8125 22.2942L91.1368 24.9699" stroke="#BA2F2C" stroke-width="0.540576" stroke-linecap="round"/>
<path d="M94.96 23.4414L92.2842 26.1171" stroke="#BA2F2C" stroke-width="0.540576" stroke-linecap="round"/>
<path d="M96.1064 24.5879L93.4307 27.2636" stroke="#BA2F2C" stroke-width="0.540576" stroke-linecap="round"/>
<line y1="-0.540576" x2="11.4035" y2="-0.540576" transform="matrix(0.234641 0.972082 0.972082 -0.234641 101.63 43.0371)" stroke="black" stroke-width="1.08115"/>
<line x1="113.862" y1="27.7467" x2="120.742" y2="34.6271" stroke="black" stroke-width="1.08115"/>
<rect x="98.9541" y="42.6545" width="31.894" height="3.24345" rx="0.540576" transform="rotate(-45 98.9541 42.6545)" fill="black"/>
<rect x="101.556" y="-0.000244141" width="4.3246" height="14.5955" rx="0.540576" fill="black"/>
<path d="M510.682 22.6212C511.737 21.5656 511.737 19.8543 510.682 18.7987L498.067 6.18467C497.012 5.12913 495.301 5.12913 494.245 6.18467L472.839 27.5904L489.276 44.0269L510.682 22.6212Z" fill="black"/>
<path d="M487.097 43.3775L473.715 29.9955L464.047 35.6175L481.63 53.2008L487.097 43.3775Z" fill="black"/>
<line y1="-0.540576" x2="9.73036" y2="-0.540576" transform="matrix(-0.707107 0.707107 0.707107 0.707107 486.982 37.1462)" stroke="black" stroke-width="1.08115"/>
<line y1="-0.540576" x2="11.4035" y2="-0.540576" transform="matrix(-0.972082 0.234641 0.234641 0.972082 471.692 24.9146)" stroke="black" stroke-width="1.08115"/>
<path d="M502.062 22.1377L504.737 24.8134" stroke="#BA2F2C" stroke-width="0.540576" stroke-linecap="round"/>
<path d="M500.915 23.2842L503.591 25.9599" stroke="#BA2F2C" stroke-width="0.540576" stroke-linecap="round"/>
<path d="M499.769 24.4309L502.444 27.1066" stroke="#BA2F2C" stroke-width="0.540576" stroke-linecap="round"/>
<path d="M498.621 25.5781L501.297 28.2538" stroke="#BA2F2C" stroke-width="0.540576" stroke-linecap="round"/>
<path d="M497.475 26.7246L500.15 29.4003" stroke="#BA2F2C" stroke-width="0.540576" stroke-linecap="round"/>
<line x1="492.477" y1="45.3007" x2="489.801" y2="56.3858" stroke="black" stroke-width="1.08115"/>
<line y1="-0.540576" x2="9.73036" y2="-0.540576" transform="matrix(-0.707107 0.707107 0.707107 0.707107 480.102 30.2656)" stroke="black" stroke-width="1.08115"/>
<rect width="31.894" height="3.24345" rx="0.540576" transform="matrix(-0.707107 -0.707107 -0.707107 0.707107 494.627 44.7913)" fill="black"/>
<rect width="4.3246" height="14.5955" rx="0.540576" transform="matrix(-1 0 0 1 492.025 2.13647)" fill="black"/>
<defs>
<linearGradient id="paint0_linear_7296_3499" x1="92.0252" y1="13.0019" x2="417.468" y2="224.682" gradientUnits="userSpaceOnUse">
<stop stop-color="#D9D9D9" stop-opacity="0.45"/>
<stop offset="1" stop-color="#D9D9D9" stop-opacity="0"/>
</linearGradient>
<linearGradient id="paint1_linear_7296_3499" x1="501.556" y1="15.1386" x2="176.113" y2="226.819" gradientUnits="userSpaceOnUse">
<stop stop-color="#D9D9D9" stop-opacity="0.45"/>
<stop offset="1" stop-color="#D9D9D9" stop-opacity="0"/>
</linearGradient>
</defs>
</svg>
