<svg width="1528" height="214" viewBox="0 0 1528 214" fill="none" xmlns="http://www.w3.org/2000/svg">
<g clip-path="url(#clip0_7244_1270)">
<rect y="0.932007" width="1528" height="213" rx="20" fill="#BA2F2C"/>
<circle cx="8.32623" cy="217.571" r="4" transform="rotate(-90 8.32623 217.571)" fill="#FAC640"/>
<circle cx="19.3262" cy="206.571" r="4" transform="rotate(-90 19.3262 206.571)" fill="#FAC640"/>
<circle cx="8.32623" cy="195.571" r="4" transform="rotate(-90 8.32623 195.571)" fill="#FAC640"/>
<circle cx="19.3262" cy="195.571" r="4" transform="rotate(-90 19.3262 195.571)" fill="#FAC640"/>
<circle cx="8.32623" cy="184.571" r="4" transform="rotate(-90 8.32623 184.571)" fill="#FAC640"/>
<circle cx="19.3262" cy="184.571" r="4" transform="rotate(-90 19.3262 184.571)" fill="#FAC640"/>
<circle cx="8.32623" cy="173.571" r="4" transform="rotate(-90 8.32623 173.571)" fill="#FAC640"/>
<circle cx="19.3262" cy="173.571" r="4" transform="rotate(-90 19.3262 173.571)" fill="#FAC640"/>
<circle cx="8.32623" cy="162.571" r="4" transform="rotate(-90 8.32623 162.571)" fill="#FAC640"/>
<circle cx="19.3262" cy="162.571" r="4" transform="rotate(-90 19.3262 162.571)" fill="#FAC640"/>
<circle cx="8.32623" cy="151.571" r="4" transform="rotate(-90 8.32623 151.571)" fill="#FAC640"/>
<circle cx="19.3262" cy="151.571" r="4" transform="rotate(-90 19.3262 151.571)" fill="#FAC640"/>
<circle cx="8.32623" cy="140.571" r="4" transform="rotate(-90 8.32623 140.571)" fill="#FAC640"/>
<circle cx="19.3262" cy="140.571" r="4" transform="rotate(-90 19.3262 140.571)" fill="#FAC640"/>
<circle cx="8.32623" cy="129.571" r="4" transform="rotate(-90 8.32623 129.571)" fill="#FAC640"/>
<circle cx="19.3262" cy="129.571" r="4" transform="rotate(-90 19.3262 129.571)" fill="#FAC640"/>
<circle cx="8.32623" cy="118.571" r="4" transform="rotate(-90 8.32623 118.571)" fill="#FAC640"/>
<circle cx="19.3262" cy="118.571" r="4" transform="rotate(-90 19.3262 118.571)" fill="#FAC640"/>
<circle cx="8.32623" cy="107.571" r="4" transform="rotate(-90 8.32623 107.571)" fill="#FAC640"/>
<circle cx="19.3262" cy="107.571" r="4" transform="rotate(-90 19.3262 107.571)" fill="#FAC640"/>
<circle cx="8.32623" cy="96.5713" r="4" transform="rotate(-90 8.32623 96.5713)" fill="#FAC640"/>
<circle cx="19.3262" cy="96.5713" r="4" transform="rotate(-90 19.3262 96.5713)" fill="#FAC640"/>
<circle cx="8.32623" cy="85.5713" r="4" transform="rotate(-90 8.32623 85.5713)" fill="#FAC640"/>
<circle cx="19.3262" cy="85.5713" r="4" transform="rotate(-90 19.3262 85.5713)" fill="#FAC640"/>
<circle cx="8.32623" cy="74.5713" r="4" transform="rotate(-90 8.32623 74.5713)" fill="#FAC640"/>
<circle cx="19.3262" cy="74.5713" r="4" transform="rotate(-90 19.3262 74.5713)" fill="#FAC640"/>
<circle cx="8.32623" cy="63.5713" r="4" transform="rotate(-90 8.32623 63.5713)" fill="#FAC640"/>
<circle cx="19.3262" cy="63.5713" r="4" transform="rotate(-90 19.3262 63.5713)" fill="#FAC640"/>
<circle cx="8.32623" cy="52.5713" r="4" transform="rotate(-90 8.32623 52.5713)" fill="#FAC640"/>
<circle cx="19.3262" cy="52.5713" r="4" transform="rotate(-90 19.3262 52.5713)" fill="#FAC640"/>
<circle cx="8.32623" cy="41.5713" r="4" transform="rotate(-90 8.32623 41.5713)" fill="#FAC640"/>
<circle cx="19.3262" cy="41.5713" r="4" transform="rotate(-90 19.3262 41.5713)" fill="#FAC640"/>
<circle cx="8.32623" cy="30.5713" r="4" transform="rotate(-90 8.32623 30.5713)" fill="#FAC640"/>
<circle cx="19.3262" cy="30.5713" r="4" transform="rotate(-90 19.3262 30.5713)" fill="#FAC640"/>
<circle cx="8.32623" cy="19.5713" r="4" transform="rotate(-90 8.32623 19.5713)" fill="#FAC640"/>
<circle cx="19.3262" cy="19.5713" r="4" transform="rotate(-90 19.3262 19.5713)" fill="#FAC640"/>
<circle cx="19.3262" cy="8.57129" r="4" transform="rotate(-90 19.3262 8.57129)" fill="#FAC640"/>
<circle cx="1509" cy="184.236" r="4" transform="rotate(-90 1509 184.236)" fill="#FAC640"/>
<circle cx="1520" cy="184.236" r="4" transform="rotate(-90 1520 184.236)" fill="#FAC640"/>
<circle cx="1509" cy="173.236" r="4" transform="rotate(-90 1509 173.236)" fill="#FAC640"/>
<circle cx="1520" cy="173.236" r="4" transform="rotate(-90 1520 173.236)" fill="#FAC640"/>
<circle cx="1509" cy="162.236" r="4" transform="rotate(-90 1509 162.236)" fill="#FAC640"/>
<circle cx="1520" cy="162.236" r="4" transform="rotate(-90 1520 162.236)" fill="#FAC640"/>
<circle cx="1509" cy="151.236" r="4" transform="rotate(-90 1509 151.236)" fill="#FAC640"/>
<circle cx="1520" cy="151.236" r="4" transform="rotate(-90 1520 151.236)" fill="#FAC640"/>
<circle cx="1509" cy="140.236" r="4" transform="rotate(-90 1509 140.236)" fill="#FAC640"/>
<circle cx="1520" cy="140.236" r="4" transform="rotate(-90 1520 140.236)" fill="#FAC640"/>
<circle cx="1509" cy="129.236" r="4" transform="rotate(-90 1509 129.236)" fill="#FAC640"/>
<circle cx="1520" cy="129.236" r="4" transform="rotate(-90 1520 129.236)" fill="#FAC640"/>
<circle cx="1509" cy="118.236" r="4" transform="rotate(-90 1509 118.236)" fill="#FAC640"/>
<circle cx="1520" cy="118.236" r="4" transform="rotate(-90 1520 118.236)" fill="#FAC640"/>
<circle cx="1509" cy="107.236" r="4" transform="rotate(-90 1509 107.236)" fill="#FAC640"/>
<circle cx="1520" cy="107.236" r="4" transform="rotate(-90 1520 107.236)" fill="#FAC640"/>
<circle cx="1509" cy="96.2365" r="4" transform="rotate(-90 1509 96.2365)" fill="#FAC640"/>
<circle cx="1520" cy="96.2365" r="4" transform="rotate(-90 1520 96.2365)" fill="#FAC640"/>
<circle cx="1509" cy="85.2365" r="4" transform="rotate(-90 1509 85.2365)" fill="#FAC640"/>
<circle cx="1520" cy="85.2365" r="4" transform="rotate(-90 1520 85.2365)" fill="#FAC640"/>
<circle cx="1509" cy="74.2365" r="4" transform="rotate(-90 1509 74.2365)" fill="#FAC640"/>
<circle cx="1520" cy="74.2365" r="4" transform="rotate(-90 1520 74.2365)" fill="#FAC640"/>
<circle cx="1509" cy="63.2365" r="4" transform="rotate(-90 1509 63.2365)" fill="#FAC640"/>
<circle cx="1520" cy="63.2365" r="4" transform="rotate(-90 1520 63.2365)" fill="#FAC640"/>
<circle cx="1509" cy="52.2365" r="4" transform="rotate(-90 1509 52.2365)" fill="#FAC640"/>
<circle cx="1520" cy="52.2365" r="4" transform="rotate(-90 1520 52.2365)" fill="#FAC640"/>
<circle cx="1509" cy="41.2365" r="4" transform="rotate(-90 1509 41.2365)" fill="#FAC640"/>
<circle cx="1520" cy="41.2365" r="4" transform="rotate(-90 1520 41.2365)" fill="#FAC640"/>
<circle cx="1509" cy="30.2365" r="4" transform="rotate(-90 1509 30.2365)" fill="#FAC640"/>
<circle cx="1520" cy="30.2365" r="4" transform="rotate(-90 1520 30.2365)" fill="#FAC640"/>
</g>
<g clip-path="url(#clip1_7244_1270)">
<rect x="28" y="27.932" width="1474" height="159" rx="10" fill="white"/>
<path d="M557.207 62.832H581.655V152.432H556.951L557.207 62.832ZM591.895 62.832C597.015 62.832 601.581 63.856 605.591 65.904C609.687 67.952 612.887 71.024 615.191 75.12C617.581 79.1307 618.775 84.2507 618.775 90.48C618.775 96.9653 617.453 102.341 614.807 106.608C612.162 110.875 608.749 114.075 604.567 116.208C600.471 118.256 596.119 119.28 591.511 119.28H569.751V62.832H591.895ZM582.039 98.672H588.439C589.719 98.672 590.701 98.3307 591.383 97.648C592.151 96.9653 592.663 96.0693 592.919 94.96C593.261 93.7653 593.431 92.528 593.431 91.248C593.431 90.1387 593.261 89.1147 592.919 88.176C592.663 87.2373 592.151 86.4693 591.383 85.872C590.701 85.2747 589.719 84.976 588.439 84.976H582.039V98.672ZM581.143 106.352L604.695 106.992L619.287 148.72V152.432H593.815L581.143 106.352ZM698.795 119.664C698.795 125.893 697.857 131.227 695.979 135.664C694.187 140.016 691.713 143.515 688.555 146.16C685.483 148.805 682.07 150.768 678.315 152.048C674.561 153.243 670.763 153.84 666.923 153.84C663.169 153.84 659.414 153.243 655.659 152.048C651.905 150.768 648.491 148.805 645.419 146.16C642.347 143.515 639.873 140.016 637.995 135.664C636.203 131.227 635.307 125.893 635.307 119.664V62.832H660.011V115.952C660.011 118.256 660.139 120.432 660.395 122.48C660.737 124.443 661.377 126.021 662.315 127.216C663.339 128.411 664.875 129.008 666.923 129.008C669.057 129.008 670.593 128.411 671.531 127.216C672.555 126.021 673.238 124.443 673.579 122.48C673.921 120.432 674.091 118.256 674.091 115.952V62.832H698.795V119.664ZM718.431 152.432V62.832H755.167C761.909 62.832 767.285 64.752 771.295 68.592C775.306 72.3467 777.311 77.2533 777.311 83.312C777.311 86.9813 776.629 90.096 775.263 92.656C773.983 95.216 772.362 97.264 770.399 98.8C768.522 100.336 766.602 101.445 764.639 102.128V103.152C766.858 103.749 769.205 105.072 771.679 107.12C774.239 109.168 776.373 111.856 778.079 115.184C779.871 118.512 780.767 122.437 780.767 126.96C780.767 132.336 779.658 136.944 777.439 140.784C775.306 144.539 772.234 147.44 768.223 149.488C764.298 151.451 759.647 152.432 754.271 152.432H718.431ZM742.751 130.416H748.383C750.09 130.416 751.626 129.776 752.991 128.496C754.442 127.216 755.167 125.552 755.167 123.504C755.167 121.2 754.527 119.493 753.247 118.384C752.053 117.189 750.474 116.592 748.511 116.592H742.751V130.416ZM742.751 97.776H747.615C749.322 97.776 750.773 97.0933 751.967 95.728C753.162 94.3627 753.759 92.6133 753.759 90.48C753.759 88.3467 753.162 86.6827 751.967 85.488C750.773 84.2933 749.322 83.696 747.615 83.696H742.751V97.776ZM795.677 62.832H820.125V152.432H795.421L795.677 62.832ZM830.365 62.832C835.485 62.832 840.051 63.856 844.061 65.904C848.157 67.952 851.357 71.024 853.661 75.12C856.051 79.1307 857.245 84.2507 857.245 90.48C857.245 96.9653 855.923 102.341 853.277 106.608C850.632 110.875 847.219 114.075 843.037 116.208C838.941 118.256 834.589 119.28 829.981 119.28H808.221V62.832H830.365ZM820.509 98.672H826.909C828.189 98.672 829.171 98.3307 829.853 97.648C830.621 96.9653 831.133 96.0693 831.389 94.96C831.731 93.7653 831.901 92.528 831.901 91.248C831.901 90.1387 831.731 89.1147 831.389 88.176C831.133 87.2373 830.621 86.4693 829.853 85.872C829.171 85.2747 828.189 84.976 826.909 84.976H820.509V98.672ZM819.613 106.352L843.165 106.992L857.757 148.72V152.432H832.285L819.613 106.352ZM874.036 62.832H898.356V152.432H874.036V62.832ZM915.205 107.632C915.205 99.696 916.271 92.8267 918.405 87.024C920.538 81.136 923.397 76.3147 926.981 72.56C930.65 68.8053 934.789 66.032 939.397 64.24C944.005 62.3627 948.783 61.424 953.733 61.424C958.511 61.424 962.437 61.8933 965.509 62.832C968.666 63.6853 970.927 64.6667 972.293 65.776V88.944H969.477C968.623 87.92 967.258 86.8107 965.381 85.616C963.503 84.4213 961.285 83.824 958.725 83.824C955.055 83.824 951.855 84.72 949.125 86.512C946.394 88.304 944.261 90.992 942.725 94.576C941.189 98.0747 940.421 102.427 940.421 107.632C940.421 112.837 941.189 117.232 942.725 120.816C944.261 124.315 946.394 126.96 949.125 128.752C951.855 130.544 955.055 131.44 958.725 131.44C961.37 131.44 963.589 130.843 965.381 129.648C967.258 128.453 968.623 127.344 969.477 126.32H972.293V149.488C970.927 150.597 968.709 151.579 965.637 152.432C962.565 153.371 958.639 153.84 953.861 153.84C948.997 153.84 944.261 152.944 939.653 151.152C935.045 149.275 930.906 146.459 927.237 142.704C923.567 138.949 920.623 134.171 918.405 128.368C916.271 122.48 915.205 115.568 915.205 107.632Z" fill="#090909"/>
<line x1="27.9995" y1="44.2933" x2="1502" y2="44.2933" stroke="#090909" stroke-width="2"/>
<line x1="27.9995" y1="86.7933" x2="1502" y2="86.7933" stroke="#090909" stroke-width="2"/>
<line x1="27.9995" y1="129.293" x2="1502" y2="129.293" stroke="#090909" stroke-width="2"/>
<line x1="27.9995" y1="171.793" x2="1502" y2="171.793" stroke="#090909" stroke-width="2"/>
<line x1="400.4" y1="186.934" x2="400.4" y2="27.93" stroke="#090909" stroke-width="2"/>
<line x1="1120.4" y1="186.934" x2="1120.4" y2="27.93" stroke="#090909" stroke-width="2"/>
<line x1="763" y1="187.436" x2="763" y2="28.432" stroke="#090909" stroke-width="2"/>
<path d="M73.0236 50.6933H82.6716L85.5516 66.0533H86.8956L89.7756 50.6933H99.3756V52.0373L93.7596 74.8373H90.7836V84.2933H81.6636V74.8853H78.6876L73.0236 52.0373V50.6933ZM100.085 67.4933C100.085 63.4293 100.741 60.1173 102.053 57.5573C103.365 54.9973 105.093 53.1253 107.237 51.9413C109.381 50.7253 111.685 50.1173 114.149 50.1173C116.645 50.1173 118.949 50.7253 121.061 51.9413C123.205 53.1253 124.933 54.9973 126.245 57.5573C127.557 60.1173 128.213 63.4293 128.213 67.4933C128.213 71.5573 127.557 74.8693 126.245 77.4293C124.933 79.9893 123.205 81.8773 121.061 83.0933C118.949 84.2773 116.645 84.8693 114.149 84.8693C111.685 84.8693 109.381 84.2773 107.237 83.0933C105.093 81.8773 103.365 79.9893 102.053 77.4293C100.741 74.8693 100.085 71.5573 100.085 67.4933ZM109.541 67.4933C109.541 69.3813 109.749 70.9813 110.165 72.2933C110.581 73.5733 111.141 74.5493 111.845 75.2213C112.549 75.8933 113.317 76.2293 114.149 76.2293C115.013 76.2293 115.797 75.8933 116.501 75.2213C117.205 74.5493 117.765 73.5733 118.181 72.2933C118.629 70.9813 118.853 69.3813 118.853 67.4933C118.853 65.5413 118.629 63.9253 118.181 62.6453C117.765 61.3653 117.205 60.4053 116.501 59.7653C115.797 59.0933 115.013 58.7573 114.149 58.7573C113.317 58.7573 112.549 59.0933 111.845 59.7653C111.141 60.4053 110.581 61.3813 110.165 62.6933C109.749 63.9733 109.541 65.5733 109.541 67.4933ZM154.385 72.0053C154.385 74.3413 154.033 76.3413 153.329 78.0053C152.657 79.6373 151.729 80.9493 150.545 81.9413C149.393 82.9333 148.113 83.6693 146.705 84.1493C145.297 84.5973 143.873 84.8213 142.433 84.8213C141.025 84.8213 139.617 84.5973 138.209 84.1493C136.801 83.6693 135.521 82.9333 134.369 81.9413C133.217 80.9493 132.289 79.6373 131.585 78.0053C130.913 76.3413 130.577 74.3413 130.577 72.0053V50.6933H139.841V70.6133C139.841 71.4773 139.889 72.2933 139.985 73.0613C140.113 73.7973 140.353 74.3893 140.705 74.8373C141.089 75.2853 141.665 75.5093 142.433 75.5093C143.233 75.5093 143.809 75.2853 144.161 74.8373C144.545 74.3893 144.801 73.7973 144.929 73.0613C145.057 72.2933 145.121 71.4773 145.121 70.6133V50.6933H154.385V72.0053ZM158.005 50.6933H167.173V84.2933H157.909L158.005 50.6933ZM171.013 50.6933C172.933 50.6933 174.645 51.0773 176.149 51.8453C177.685 52.6133 178.885 53.7653 179.749 55.3013C180.645 56.8053 181.093 58.7253 181.093 61.0613C181.093 63.4933 180.597 65.5093 179.605 67.1093C178.613 68.7093 177.333 69.9093 175.765 70.7093C174.229 71.4773 172.597 71.8613 170.869 71.8613H162.709V50.6933H171.013ZM167.317 64.1333H169.717C170.197 64.1333 170.565 64.0053 170.821 63.7493C171.109 63.4933 171.301 63.1573 171.397 62.7413C171.525 62.2933 171.589 61.8293 171.589 61.3493C171.589 60.9333 171.525 60.5493 171.397 60.1973C171.301 59.8453 171.109 59.5573 170.821 59.3333C170.565 59.1093 170.197 58.9973 169.717 58.9973H167.317V64.1333ZM166.981 67.0133L175.813 67.2533L181.285 82.9013V84.2933H171.733L166.981 67.0133ZM209.687 74.9813C209.687 77.5093 209.223 79.4933 208.295 80.9333C207.399 82.3733 206.231 83.3973 204.791 84.0053C203.351 84.5813 201.831 84.8693 200.231 84.8693C198.375 84.8693 196.903 84.6613 195.815 84.2453C194.759 83.8293 193.895 83.3013 193.223 82.6613V73.7333H194.327C194.711 74.5333 195.255 75.1893 195.959 75.7013C196.695 76.1813 197.367 76.4213 197.975 76.4213C198.807 76.4213 199.447 76.1493 199.895 75.6053C200.343 75.0613 200.567 74.1973 200.567 73.0133V50.6933H209.687V74.9813ZM193.511 50.6933H205.655V58.9013H193.511V50.6933ZM236.839 72.0053C236.839 74.3413 236.487 76.3413 235.783 78.0053C235.111 79.6373 234.183 80.9493 232.999 81.9413C231.847 82.9333 230.567 83.6693 229.159 84.1493C227.751 84.5973 226.327 84.8213 224.887 84.8213C223.479 84.8213 222.071 84.5973 220.663 84.1493C219.255 83.6693 217.975 82.9333 216.823 81.9413C215.671 80.9493 214.743 79.6373 214.039 78.0053C213.367 76.3413 213.031 74.3413 213.031 72.0053V50.6933H222.295V70.6133C222.295 71.4773 222.343 72.2933 222.439 73.0613C222.567 73.7973 222.807 74.3893 223.159 74.8373C223.543 75.2853 224.119 75.5093 224.887 75.5093C225.687 75.5093 226.263 75.2853 226.615 74.8373C226.999 74.3893 227.255 73.7973 227.383 73.0613C227.511 72.2933 227.575 71.4773 227.575 70.6133V50.6933H236.839V72.0053ZM250.25 50.6933C252.874 50.6933 255.242 51.3013 257.354 52.5173C259.466 53.7013 261.146 55.5253 262.394 57.9893C263.642 60.4533 264.266 63.6213 264.266 67.4933C264.266 71.3333 263.642 74.5013 262.394 76.9973C261.146 79.4613 259.466 81.3013 257.354 82.5173C255.242 83.7013 252.874 84.2933 250.25 84.2933H240.362V50.6933H250.25ZM250.154 75.6053C251.498 75.6053 252.618 74.9013 253.514 73.4933C254.442 72.0533 254.906 70.0533 254.906 67.4933C254.906 64.8693 254.442 62.8693 253.514 61.4933C252.586 60.0853 251.466 59.3813 250.154 59.3813H249.482V75.6053H250.154ZM265.554 67.4933C265.554 63.4933 266.258 60.2133 267.666 57.6533C269.106 55.0933 271.01 53.2053 273.378 51.9893C275.778 50.7733 278.418 50.1653 281.298 50.1653C282.866 50.1653 284.274 50.3093 285.522 50.5973C286.77 50.8853 287.826 51.2373 288.69 51.6533C289.586 52.0693 290.226 52.4853 290.61 52.9013V62.1653H289.554C289.298 61.5893 288.818 61.0293 288.114 60.4853C287.442 59.9413 286.642 59.4933 285.714 59.1413C284.786 58.7573 283.794 58.5653 282.738 58.5653C281.074 58.5653 279.666 58.8853 278.514 59.5253C277.362 60.1653 276.482 61.1413 275.874 62.4533C275.298 63.7653 275.01 65.4613 275.01 67.5413C275.01 69.4933 275.266 71.1573 275.778 72.5333C276.29 73.9093 277.058 74.9493 278.082 75.6533C279.138 76.3573 280.418 76.7093 281.922 76.7093C281.922 76.7093 281.954 76.7413 282.018 76.8053C282.114 76.8373 282.226 76.8053 282.354 76.7093V71.4773H277.65V63.5573H290.61V80.8853C289.234 82.2613 287.65 83.2693 285.858 83.9093C284.098 84.5173 282.178 84.8213 280.098 84.8213C278.242 84.8213 276.45 84.4853 274.722 83.8133C272.994 83.1093 271.442 82.0533 270.066 80.6453C268.69 79.2373 267.586 77.4453 266.754 75.2693C265.954 73.0933 265.554 70.5013 265.554 67.4933ZM312.167 50.6933V58.9973H303.623V64.0373C304.487 63.7493 305.351 63.5093 306.215 63.3173C307.111 63.1253 307.975 62.9973 308.807 62.9333C309.671 62.8693 310.471 62.8853 311.207 62.9813V71.0453L310.679 71.3333C310.071 71.1413 309.383 71.0133 308.615 70.9493C307.879 70.8853 307.095 70.9013 306.263 70.9973C305.431 71.0933 304.551 71.2853 303.623 71.5733V75.9893H312.167V84.2933H294.503V50.6933H312.167ZM334.859 74.5013C334.859 76.7093 334.411 78.5973 333.515 80.1653C332.619 81.7013 331.387 82.8693 329.819 83.6693C328.283 84.4693 326.539 84.8693 324.587 84.8693C323.051 84.8693 321.611 84.6773 320.267 84.2933C318.923 83.9413 317.755 83.5093 316.763 82.9973C315.771 82.4853 315.051 82.0533 314.603 81.7013V72.7733H315.707C316.763 73.7653 317.995 74.6293 319.403 75.3653C320.843 76.0693 322.123 76.4213 323.243 76.4213C323.723 76.4213 324.123 76.3413 324.443 76.1813C324.763 76.0213 325.003 75.8133 325.163 75.5573C325.355 75.3013 325.451 75.0293 325.451 74.7413C325.451 74.1013 325.211 73.6053 324.731 73.2533C324.283 72.8693 323.531 72.3893 322.475 71.8133L320.219 70.7093C319.195 70.1333 318.187 69.4453 317.195 68.6453C316.235 67.8133 315.435 66.7573 314.795 65.4773C314.187 64.1973 313.883 62.6133 313.883 60.7253C313.883 58.4213 314.331 56.4853 315.227 54.9173C316.155 53.3493 317.387 52.1653 318.923 51.3653C320.491 50.5653 322.203 50.1653 324.059 50.1653C325.339 50.1653 326.555 50.2933 327.707 50.5493C328.859 50.7733 329.915 51.1253 330.875 51.6053C331.867 52.0853 332.715 52.6773 333.419 53.3813V62.3093H332.315C331.195 61.1573 329.979 60.2613 328.667 59.6213C327.355 58.9493 326.171 58.6133 325.115 58.6133C324.603 58.6133 324.171 58.7413 323.819 58.9973C323.467 59.2213 323.291 59.5893 323.291 60.1013C323.291 60.7093 323.627 61.2533 324.299 61.7333C325.003 62.2133 325.995 62.8373 327.275 63.6053L329.867 65.1413C330.955 65.7813 331.867 66.5493 332.603 67.4453C333.339 68.3093 333.899 69.3173 334.283 70.4693C334.667 71.6213 334.859 72.9653 334.859 74.5013Z" fill="#090909"/>
<path d="M1225.38 86.432V52.832H1237.05C1239.09 52.832 1240.89 53.216 1242.42 53.984C1243.96 54.752 1245.16 55.952 1246.02 57.584C1246.92 59.184 1247.37 61.28 1247.37 63.872C1247.37 66.432 1246.89 68.576 1245.93 70.304C1245 72 1243.75 73.28 1242.18 74.144C1240.65 74.976 1238.93 75.392 1237.05 75.392H1232.1V86.432H1225.38ZM1232.1 69.584H1236.13C1237 69.584 1237.77 69.36 1238.44 68.912C1239.11 68.464 1239.62 67.84 1239.97 67.04C1240.33 66.24 1240.5 65.296 1240.5 64.208C1240.5 63.12 1240.33 62.192 1239.97 61.424C1239.62 60.624 1239.11 60.016 1238.44 59.6C1237.77 59.184 1237 58.976 1236.13 58.976H1232.1V69.584ZM1248.84 69.632C1248.84 65.568 1249.49 62.256 1250.81 59.696C1252.12 57.136 1253.83 55.264 1255.94 54.08C1258.09 52.864 1260.41 52.256 1262.9 52.256C1265.4 52.256 1267.7 52.864 1269.81 54.08C1271.96 55.264 1273.69 57.136 1275 59.696C1276.31 62.256 1276.97 65.568 1276.97 69.632C1276.97 73.696 1276.31 77.008 1275 79.568C1273.69 82.128 1271.96 84.016 1269.81 85.232C1267.7 86.416 1265.4 87.008 1262.9 87.008C1260.41 87.008 1258.09 86.416 1255.94 85.232C1253.83 84.016 1252.12 82.128 1250.81 79.568C1249.49 77.008 1248.84 73.696 1248.84 69.632ZM1255.85 69.632C1255.85 72.064 1256.15 74.096 1256.76 75.728C1257.4 77.36 1258.25 78.592 1259.3 79.424C1260.39 80.224 1261.59 80.624 1262.9 80.624C1264.21 80.624 1265.41 80.224 1266.5 79.424C1267.62 78.592 1268.5 77.36 1269.14 75.728C1269.78 74.096 1270.1 72.064 1270.1 69.632C1270.1 67.168 1269.77 65.12 1269.09 63.488C1268.45 61.856 1267.59 60.64 1266.5 59.84C1265.41 59.04 1264.23 58.64 1262.95 58.64C1261.61 58.64 1260.39 59.056 1259.3 59.888C1258.25 60.72 1257.4 61.952 1256.76 63.584C1256.15 65.184 1255.85 67.2 1255.85 69.632ZM1280.46 86.432V52.832H1292.12C1294.17 52.832 1295.96 53.216 1297.5 53.984C1299.04 54.752 1300.24 55.952 1301.1 57.584C1302 59.184 1302.44 61.28 1302.44 63.872C1302.44 66.432 1301.96 68.576 1301 70.304C1300.08 72 1298.83 73.28 1297.26 74.144C1295.72 74.976 1294.01 75.392 1292.12 75.392H1287.18V86.432H1280.46ZM1287.18 69.584H1291.21C1292.08 69.584 1292.84 69.36 1293.52 68.912C1294.19 68.464 1294.7 67.84 1295.05 67.04C1295.4 66.24 1295.58 65.296 1295.58 64.208C1295.58 63.12 1295.4 62.192 1295.05 61.424C1294.7 60.624 1294.19 60.016 1293.52 59.6C1292.84 59.184 1292.08 58.976 1291.21 58.976H1287.18V69.584ZM1303.92 69.632C1303.92 66.656 1304.32 64.08 1305.12 61.904C1305.92 59.728 1306.99 57.936 1308.33 56.528C1309.71 55.088 1311.26 54.032 1312.99 53.36C1314.72 52.656 1316.51 52.304 1318.36 52.304C1320.16 52.304 1321.63 52.496 1322.78 52.88C1323.96 53.232 1324.81 53.632 1325.32 54.08V60.512H1324.41C1323.96 60.032 1323.32 59.584 1322.49 59.168C1321.66 58.752 1320.64 58.544 1319.42 58.544C1317.76 58.544 1316.28 58.976 1315 59.84C1313.72 60.672 1312.72 61.92 1311.98 63.584C1311.28 65.216 1310.92 67.232 1310.92 69.632C1310.92 72.032 1311.28 74.064 1311.98 75.728C1312.72 77.36 1313.72 78.608 1315 79.472C1316.28 80.304 1317.76 80.72 1319.42 80.72C1320.64 80.72 1321.66 80.512 1322.49 80.096C1323.32 79.68 1323.96 79.232 1324.41 78.752H1325.32V85.184C1324.81 85.6 1323.96 86 1322.78 86.384C1321.63 86.768 1320.16 86.96 1318.36 86.96C1316.51 86.96 1314.72 86.624 1312.99 85.952C1311.26 85.248 1309.71 84.192 1308.33 82.784C1306.99 81.344 1305.92 79.536 1305.12 77.36C1304.32 75.184 1303.92 72.608 1303.92 69.632ZM1327.92 69.632C1327.92 65.568 1328.57 62.256 1329.88 59.696C1331.2 57.136 1332.91 55.264 1335.02 54.08C1337.16 52.864 1339.48 52.256 1341.98 52.256C1344.48 52.256 1346.78 52.864 1348.89 54.08C1351.04 55.264 1352.76 57.136 1354.08 59.696C1355.39 62.256 1356.04 65.568 1356.04 69.632C1356.04 73.696 1355.39 77.008 1354.08 79.568C1352.76 82.128 1351.04 84.016 1348.89 85.232C1346.78 86.416 1344.48 87.008 1341.98 87.008C1339.48 87.008 1337.16 86.416 1335.02 85.232C1332.91 84.016 1331.2 82.128 1329.88 79.568C1328.57 77.008 1327.92 73.696 1327.92 69.632ZM1334.92 69.632C1334.92 72.064 1335.23 74.096 1335.84 75.728C1336.48 77.36 1337.32 78.592 1338.38 79.424C1339.47 80.224 1340.67 80.624 1341.98 80.624C1343.29 80.624 1344.49 80.224 1345.58 79.424C1346.7 78.592 1347.58 77.36 1348.22 75.728C1348.86 74.096 1349.18 72.064 1349.18 69.632C1349.18 67.168 1348.84 65.12 1348.17 63.488C1347.53 61.856 1346.67 60.64 1345.58 59.84C1344.49 59.04 1343.31 58.64 1342.03 58.64C1340.68 58.64 1339.47 59.056 1338.38 59.888C1337.32 60.72 1336.48 61.952 1335.84 63.584C1335.23 65.184 1334.92 67.2 1334.92 69.632ZM1359.64 52.832H1366.36V86.432H1359.54L1359.64 52.832ZM1371.83 52.832C1373.75 52.832 1375.44 53.216 1376.92 53.984C1378.42 54.72 1379.6 55.856 1380.47 57.392C1381.33 58.896 1381.76 60.784 1381.76 63.056C1381.76 65.392 1381.28 67.344 1380.32 68.912C1379.4 70.448 1378.18 71.616 1376.68 72.416C1375.2 73.184 1373.62 73.568 1371.92 73.568H1362.8V52.832H1371.83ZM1366.26 67.76H1371.01C1371.78 67.76 1372.45 67.584 1373.03 67.232C1373.6 66.88 1374.04 66.368 1374.32 65.696C1374.64 64.992 1374.8 64.208 1374.8 63.344C1374.8 62.416 1374.64 61.632 1374.32 60.992C1374.04 60.32 1373.6 59.824 1373.03 59.504C1372.45 59.152 1371.78 58.976 1371.01 58.976H1366.26V67.76ZM1368.95 69.92L1375.38 69.776L1381.76 85.328V86.432H1374.76L1368.95 69.92ZM1401.16 52.832H1407.74V86.432H1400.39L1392.09 65.6H1391.56L1391.85 86.432H1385.27V52.832H1392.62L1400.92 73.952H1401.45L1401.16 52.832Z" fill="#090909"/>
<path d="M53.0962 106.193H58.4162V120.949H62.4762V125.793H53.0962V106.193ZM63.6783 106.193H68.9983V125.793H63.6783V106.193ZM82.7078 120.081C82.7078 121.369 82.4464 122.471 81.9238 123.385C81.4011 124.281 80.6824 124.963 79.7678 125.429C78.8718 125.896 77.8544 126.129 76.7158 126.129C75.8198 126.129 74.9798 126.017 74.1958 125.793C73.4118 125.588 72.7304 125.336 72.1518 125.037C71.5731 124.739 71.1531 124.487 70.8918 124.281V119.073H71.5358C72.1518 119.652 72.8704 120.156 73.6918 120.585C74.5318 120.996 75.2784 121.201 75.9318 121.201C76.2118 121.201 76.4451 121.155 76.6318 121.061C76.8184 120.968 76.9584 120.847 77.0518 120.697C77.1638 120.548 77.2198 120.389 77.2198 120.221C77.2198 119.848 77.0798 119.559 76.7998 119.353C76.5384 119.129 76.0998 118.849 75.4838 118.513L74.1678 117.869C73.5704 117.533 72.9824 117.132 72.4038 116.665C71.8438 116.18 71.3771 115.564 71.0038 114.817C70.6491 114.071 70.4718 113.147 70.4718 112.045C70.4718 110.701 70.7331 109.572 71.2558 108.657C71.7971 107.743 72.5158 107.052 73.4118 106.585C74.3264 106.119 75.3251 105.885 76.4078 105.885C77.1544 105.885 77.8638 105.96 78.5358 106.109C79.2078 106.24 79.8238 106.445 80.3838 106.725C80.9624 107.005 81.4571 107.351 81.8678 107.761V112.969H81.2238C80.5704 112.297 79.8611 111.775 79.0958 111.401C78.3304 111.009 77.6398 110.813 77.0238 110.813C76.7251 110.813 76.4731 110.888 76.2678 111.037C76.0624 111.168 75.9598 111.383 75.9598 111.681C75.9598 112.036 76.1558 112.353 76.5478 112.633C76.9584 112.913 77.5371 113.277 78.2838 113.725L79.7958 114.621C80.4304 114.995 80.9624 115.443 81.3918 115.965C81.8211 116.469 82.1478 117.057 82.3718 117.729C82.5958 118.401 82.7078 119.185 82.7078 120.081ZM83.1781 125.793V125.009L86.6781 106.193L94.9941 106.221L98.4941 125.009V125.793H92.9221L92.5021 122.181H89.1981L88.7781 125.793H83.1781ZM89.7021 117.561H91.9981L91.2701 111.261H90.4301L89.7021 117.561ZM114.882 120.361C114.882 121.836 114.612 122.993 114.07 123.833C113.548 124.673 112.866 125.271 112.026 125.625C111.186 125.961 110.3 126.129 109.366 126.129C108.284 126.129 107.425 126.008 106.79 125.765C106.174 125.523 105.67 125.215 105.278 124.841V119.633H105.922C106.146 120.1 106.464 120.483 106.874 120.781C107.304 121.061 107.696 121.201 108.05 121.201C108.536 121.201 108.909 121.043 109.17 120.725C109.432 120.408 109.562 119.904 109.562 119.213V106.193H114.882V120.361ZM105.446 106.193H112.53V110.981H105.446V106.193ZM127.221 106.193V111.037H122.237V113.977C122.741 113.809 123.245 113.669 123.749 113.557C124.271 113.445 124.775 113.371 125.261 113.333C125.765 113.296 126.231 113.305 126.661 113.361V118.065L126.353 118.233C125.998 118.121 125.597 118.047 125.149 118.009C124.719 117.972 124.262 117.981 123.777 118.037C123.291 118.093 122.778 118.205 122.237 118.373V120.949H127.221V125.793H116.917V106.193H127.221ZM127.802 106.193H133.402L135.054 120.501H135.922L137.602 106.193H143.174V106.977L139.674 125.765L131.33 125.793L127.802 106.977V106.193ZM144.233 125.793V106.193H152.269C153.744 106.193 154.92 106.613 155.797 107.453C156.674 108.275 157.113 109.348 157.113 110.673C157.113 111.476 156.964 112.157 156.665 112.717C156.385 113.277 156.03 113.725 155.601 114.061C155.19 114.397 154.77 114.64 154.341 114.789V115.013C154.826 115.144 155.34 115.433 155.881 115.881C156.441 116.329 156.908 116.917 157.281 117.645C157.673 118.373 157.869 119.232 157.869 120.221C157.869 121.397 157.626 122.405 157.141 123.245C156.674 124.067 156.002 124.701 155.125 125.149C154.266 125.579 153.249 125.793 152.073 125.793H144.233ZM149.553 120.977H150.785C151.158 120.977 151.494 120.837 151.793 120.557C152.11 120.277 152.269 119.913 152.269 119.465C152.269 118.961 152.129 118.588 151.849 118.345C151.588 118.084 151.242 117.953 150.813 117.953H149.553V120.977ZM149.553 113.837H150.617C150.99 113.837 151.308 113.688 151.569 113.389C151.83 113.091 151.961 112.708 151.961 112.241C151.961 111.775 151.83 111.411 151.569 111.149C151.308 110.888 150.99 110.757 150.617 110.757H149.553V113.837ZM158.891 106.193H164.239V125.793H158.835L158.891 106.193ZM166.479 106.193C167.599 106.193 168.597 106.417 169.475 106.865C170.371 107.313 171.071 107.985 171.575 108.881C172.097 109.759 172.359 110.879 172.359 112.241C172.359 113.66 172.069 114.836 171.491 115.769C170.912 116.703 170.165 117.403 169.251 117.869C168.355 118.317 167.403 118.541 166.395 118.541H161.635V106.193H166.479ZM164.323 114.033H165.723C166.003 114.033 166.217 113.959 166.367 113.809C166.535 113.66 166.647 113.464 166.703 113.221C166.777 112.96 166.815 112.689 166.815 112.409C166.815 112.167 166.777 111.943 166.703 111.737C166.647 111.532 166.535 111.364 166.367 111.233C166.217 111.103 166.003 111.037 165.723 111.037H164.323V114.033ZM164.127 115.713L169.279 115.853L172.471 124.981V125.793H166.899L164.127 115.713ZM172.784 125.793V125.009L176.284 106.193L184.6 106.221L188.1 125.009V125.793H182.528L182.108 122.181H178.804L178.384 125.793H172.784ZM179.308 117.561H181.604L180.876 111.261H180.036L179.308 117.561ZM200.161 106.193V111.121H196.997V125.793H191.677V111.121H188.373V106.193H200.161ZM212.329 106.193V111.121H209.165V125.793H203.845V111.121H200.541V106.193H212.329Z" fill="#090909"/>
<path d="M250.363 125.434V124.65L253.863 105.834L262.179 105.862L265.679 124.65V125.434H260.107L259.687 121.822H256.383L255.963 125.434H250.363ZM256.887 117.202H259.183L258.455 110.902H257.615L256.887 117.202ZM266.767 105.834H272.087V120.59H276.147V125.434H266.767V105.834ZM287.625 105.834V110.678H282.641V113.618C283.145 113.45 283.649 113.31 284.153 113.198C284.676 113.086 285.18 113.011 285.665 112.974C286.169 112.937 286.636 112.946 287.065 113.002V117.706L286.757 117.874C286.403 117.762 286.001 117.687 285.553 117.65C285.124 117.613 284.667 117.622 284.181 117.678C283.696 117.734 283.183 117.846 282.641 118.014V120.59H287.625V125.434H277.321V105.834H287.625ZM288.207 125.434V124.622L291.567 115.354L288.487 106.646V105.834H294.003L295.963 112.61H296.299L298.287 105.834H303.775V106.646L300.863 115.354L304.055 124.622V125.434H298.567L296.299 118.882H295.963L293.723 125.434H288.207ZM311.528 105.834H316.848V120.59H320.908V125.434H311.528V105.834ZM335.914 118.266C335.914 119.629 335.709 120.795 335.298 121.766C334.906 122.718 334.365 123.483 333.674 124.062C333.002 124.641 332.256 125.07 331.434 125.35C330.613 125.611 329.782 125.742 328.942 125.742C328.121 125.742 327.3 125.611 326.478 125.35C325.657 125.07 324.91 124.641 324.238 124.062C323.566 123.483 323.025 122.718 322.614 121.766C322.222 120.795 322.026 119.629 322.026 118.266V105.834H327.43V117.454C327.43 117.958 327.458 118.434 327.514 118.882C327.589 119.311 327.729 119.657 327.934 119.918C328.158 120.179 328.494 120.31 328.942 120.31C329.409 120.31 329.745 120.179 329.95 119.918C330.174 119.657 330.324 119.311 330.398 118.882C330.473 118.434 330.51 117.958 330.51 117.454V105.834H335.914V118.266ZM337.942 125.434V105.834H343.346V112.89H343.514L346.23 105.834H351.886V106.646L347.686 115.494L351.886 124.622V125.434H346.23L343.514 118.154H343.346V125.434H337.942ZM351.973 125.434V124.65L355.473 105.834L363.789 105.862L367.289 124.65V125.434H361.717L361.297 121.822H357.993L357.573 125.434H351.973ZM358.497 117.202H360.793L360.065 110.902H359.225L358.497 117.202ZM380.023 119.722C380.023 121.01 379.761 122.111 379.239 123.026C378.716 123.922 377.997 124.603 377.083 125.07C376.187 125.537 375.169 125.77 374.031 125.77C373.135 125.77 372.295 125.658 371.511 125.434C370.727 125.229 370.045 124.977 369.467 124.678C368.888 124.379 368.468 124.127 368.207 123.922V118.714H368.851C369.467 119.293 370.185 119.797 371.007 120.226C371.847 120.637 372.593 120.842 373.247 120.842C373.527 120.842 373.76 120.795 373.947 120.702C374.133 120.609 374.273 120.487 374.367 120.338C374.479 120.189 374.535 120.03 374.535 119.862C374.535 119.489 374.395 119.199 374.115 118.994C373.853 118.77 373.415 118.49 372.799 118.154L371.483 117.51C370.885 117.174 370.297 116.773 369.719 116.306C369.159 115.821 368.692 115.205 368.319 114.458C367.964 113.711 367.787 112.787 367.787 111.686C367.787 110.342 368.048 109.213 368.571 108.298C369.112 107.383 369.831 106.693 370.727 106.226C371.641 105.759 372.64 105.526 373.723 105.526C374.469 105.526 375.179 105.601 375.851 105.75C376.523 105.881 377.139 106.086 377.699 106.366C378.277 106.646 378.772 106.991 379.183 107.402V112.61H378.539C377.885 111.938 377.176 111.415 376.411 111.042C375.645 110.65 374.955 110.454 374.339 110.454C374.04 110.454 373.788 110.529 373.583 110.678C373.377 110.809 373.275 111.023 373.275 111.322C373.275 111.677 373.471 111.994 373.863 112.274C374.273 112.554 374.852 112.918 375.599 113.366L377.111 114.262C377.745 114.635 378.277 115.083 378.707 115.606C379.136 116.11 379.463 116.698 379.687 117.37C379.911 118.042 380.023 118.826 380.023 119.722Z" fill="#090909"/>
<path d="M136.391 145.834H141.711V165.434H136.391V145.834ZM143.856 165.434V145.834H151.724L152.536 154.85H152.62L153.376 145.834H161.244V165.434H156.092L156.232 153.366H156.008L154.188 165.434H150.94L149.12 153.366H148.896L149.036 165.434H143.856ZM162.371 165.434V164.65L165.871 145.834L174.187 145.862L177.687 164.65V165.434H172.115L171.695 161.822H168.391L167.971 165.434H162.371ZM168.895 157.202H171.191L170.463 150.902H169.623L168.895 157.202ZM186.949 145.834H192.129V165.434H187.005L184.009 156.782H183.757L184.009 165.434H178.829V145.834H183.981L186.977 154.794H187.201L186.949 145.834ZM206.39 145.834C207.92 145.834 209.302 146.189 210.534 146.898C211.766 147.589 212.746 148.653 213.474 150.09C214.202 151.528 214.566 153.376 214.566 155.634C214.566 157.874 214.202 159.722 213.474 161.178C212.746 162.616 211.766 163.689 210.534 164.398C209.302 165.089 207.92 165.434 206.39 165.434H200.622V145.834H206.39ZM206.334 160.366C207.118 160.366 207.771 159.956 208.294 159.134C208.835 158.294 209.106 157.128 209.106 155.634C209.106 154.104 208.835 152.937 208.294 152.134C207.752 151.313 207.099 150.902 206.334 150.902H205.942V160.366H206.334ZM224.892 160.002C224.892 161.477 224.621 162.634 224.08 163.474C223.557 164.314 222.876 164.912 222.036 165.266C221.196 165.602 220.309 165.77 219.376 165.77C218.293 165.77 217.435 165.649 216.8 165.406C216.184 165.164 215.68 164.856 215.288 164.482V159.274H215.932C216.156 159.741 216.473 160.124 216.884 160.422C217.313 160.702 217.705 160.842 218.06 160.842C218.545 160.842 218.919 160.684 219.18 160.366C219.441 160.049 219.572 159.545 219.572 158.854V145.834H224.892V160.002ZM215.456 145.834H222.54V150.622H215.456V145.834ZM226.254 155.634C226.254 153.264 226.637 151.332 227.402 149.838C228.168 148.345 229.176 147.253 230.426 146.562C231.677 145.853 233.021 145.498 234.458 145.498C235.914 145.498 237.258 145.853 238.49 146.562C239.741 147.253 240.749 148.345 241.514 149.838C242.28 151.332 242.662 153.264 242.662 155.634C242.662 158.005 242.28 159.937 241.514 161.43C240.749 162.924 239.741 164.025 238.49 164.734C237.258 165.425 235.914 165.77 234.458 165.77C233.021 165.77 231.677 165.425 230.426 164.734C229.176 164.025 228.168 162.924 227.402 161.43C226.637 159.937 226.254 158.005 226.254 155.634ZM231.77 155.634C231.77 156.736 231.892 157.669 232.134 158.434C232.377 159.181 232.704 159.75 233.114 160.142C233.525 160.534 233.973 160.73 234.458 160.73C234.962 160.73 235.42 160.534 235.83 160.142C236.241 159.75 236.568 159.181 236.81 158.434C237.072 157.669 237.202 156.736 237.202 155.634C237.202 154.496 237.072 153.553 236.81 152.806C236.568 152.06 236.241 151.5 235.83 151.126C235.42 150.734 234.962 150.538 234.458 150.538C233.973 150.538 233.525 150.734 233.114 151.126C232.704 151.5 232.377 152.069 232.134 152.834C231.892 153.581 231.77 154.514 231.77 155.634ZM257.93 158.266C257.93 159.629 257.724 160.796 257.314 161.766C256.922 162.718 256.38 163.484 255.69 164.062C255.018 164.641 254.271 165.07 253.45 165.35C252.628 165.612 251.798 165.742 250.958 165.742C250.136 165.742 249.315 165.612 248.494 165.35C247.672 165.07 246.926 164.641 246.254 164.062C245.582 163.484 245.04 162.718 244.63 161.766C244.238 160.796 244.042 159.629 244.042 158.266V145.834H249.446V157.454C249.446 157.958 249.474 158.434 249.53 158.882C249.604 159.312 249.744 159.657 249.95 159.918C250.174 160.18 250.51 160.31 250.958 160.31C251.424 160.31 251.76 160.18 251.966 159.918C252.19 159.657 252.339 159.312 252.414 158.882C252.488 158.434 252.526 157.958 252.526 157.454V145.834H257.93V158.266ZM259.985 145.834H265.305V165.434H259.985V145.834ZM275.542 145.834H280.722V165.434H275.598L272.602 156.782H272.35L272.602 165.434H267.422V145.834H272.574L275.57 154.794H275.794L275.542 145.834ZM282.844 145.834H288.164V165.434H282.844V145.834Z" fill="#090909"/>
<path d="M1174.11 132.832C1176.76 132.832 1179.15 133.44 1181.26 134.656C1183.37 135.84 1185.05 137.664 1186.3 140.128C1187.55 142.592 1188.17 145.76 1188.17 149.632C1188.17 153.472 1187.55 156.64 1186.3 159.136C1185.05 161.6 1183.37 163.44 1181.26 164.656C1179.15 165.84 1176.76 166.432 1174.11 166.432H1164.84V132.832H1174.11ZM1174.01 160.048C1176.19 160.048 1177.95 159.136 1179.29 157.312C1180.64 155.488 1181.31 152.928 1181.31 149.632C1181.31 146.272 1180.62 143.696 1179.24 141.904C1177.9 140.112 1176.16 139.216 1174.01 139.216H1171.56V160.048H1174.01ZM1191.71 132.832H1198.43V166.432H1191.61L1191.71 132.832ZM1203.9 132.832C1205.82 132.832 1207.51 133.216 1208.99 133.984C1210.49 134.72 1211.67 135.856 1212.54 137.392C1213.4 138.896 1213.83 140.784 1213.83 143.056C1213.83 145.392 1213.35 147.344 1212.39 148.912C1211.47 150.448 1210.25 151.616 1208.75 152.416C1207.27 153.184 1205.69 153.568 1203.99 153.568H1194.87V132.832H1203.9ZM1198.33 147.76H1203.08C1203.85 147.76 1204.52 147.584 1205.1 147.232C1205.67 146.88 1206.11 146.368 1206.39 145.696C1206.71 144.992 1206.87 144.208 1206.87 143.344C1206.87 142.416 1206.71 141.632 1206.39 140.992C1206.11 140.32 1205.67 139.824 1205.1 139.504C1204.52 139.152 1203.85 138.976 1203.08 138.976H1198.33V147.76ZM1201.02 149.92L1207.45 149.776L1213.83 165.328V166.432H1206.83L1201.02 149.92ZM1217.34 132.832H1224.06V166.432H1217.34V132.832ZM1244.76 132.832H1251.34V166.432H1243.99L1235.69 145.6H1235.16L1235.45 166.432H1228.87V132.832H1236.22L1244.52 153.952H1245.05L1244.76 132.832ZM1256.11 166.432V132.832H1262.93V146.128H1263.89L1271.23 132.832H1278.29V133.936L1269.21 149.392L1278.29 165.328V166.432H1271.23L1263.89 152.752H1262.93V166.432H1256.11ZM1299.78 157.552C1299.78 159.536 1299.35 161.232 1298.48 162.64C1297.65 164.048 1296.48 165.136 1294.98 165.904C1293.47 166.64 1291.75 167.008 1289.79 167.008C1288.26 167.008 1286.83 166.816 1285.52 166.432C1284.21 166.08 1283.07 165.648 1282.11 165.136C1281.19 164.624 1280.5 164.192 1280.05 163.84V157.264H1280.91C1281.94 158.192 1283.19 159.024 1284.66 159.76C1286.16 160.464 1287.6 160.816 1288.98 160.816C1289.71 160.816 1290.37 160.704 1290.95 160.48C1291.55 160.224 1292.03 159.872 1292.39 159.424C1292.74 158.976 1292.91 158.432 1292.91 157.792C1292.91 156.832 1292.63 156.064 1292.05 155.488C1291.51 154.88 1290.66 154.24 1289.51 153.568L1285.52 151.216C1284.53 150.64 1283.55 149.968 1282.59 149.2C1281.67 148.4 1280.88 147.408 1280.24 146.224C1279.63 145.008 1279.33 143.536 1279.33 141.808C1279.33 139.76 1279.76 138.032 1280.63 136.624C1281.52 135.184 1282.69 134.112 1284.13 133.408C1285.6 132.672 1287.25 132.304 1289.07 132.304C1290.48 132.304 1291.76 132.448 1292.91 132.736C1294.1 133.024 1295.14 133.408 1296.03 133.888C1296.96 134.336 1297.73 134.864 1298.34 135.472V142.048H1297.43C1296.47 140.992 1295.28 140.144 1293.87 139.504C1292.5 138.832 1291.09 138.496 1289.65 138.496C1288.69 138.496 1287.87 138.736 1287.2 139.216C1286.53 139.696 1286.19 140.4 1286.19 141.328C1286.19 142.256 1286.58 143.056 1287.35 143.728C1288.11 144.4 1289.12 145.12 1290.37 145.888L1294.35 148.336C1295.44 149.008 1296.39 149.776 1297.19 150.64C1297.99 151.472 1298.61 152.448 1299.06 153.568C1299.54 154.688 1299.78 156.016 1299.78 157.552ZM1334.28 157.552C1334.28 159.536 1333.85 161.232 1332.98 162.64C1332.15 164.048 1330.98 165.136 1329.48 165.904C1327.97 166.64 1326.25 167.008 1324.29 167.008C1322.76 167.008 1321.33 166.816 1320.02 166.432C1318.71 166.08 1317.57 165.648 1316.61 165.136C1315.69 164.624 1315 164.192 1314.55 163.84V157.264H1315.41C1316.44 158.192 1317.69 159.024 1319.16 159.76C1320.66 160.464 1322.1 160.816 1323.48 160.816C1324.21 160.816 1324.87 160.704 1325.45 160.48C1326.05 160.224 1326.53 159.872 1326.89 159.424C1327.24 158.976 1327.41 158.432 1327.41 157.792C1327.41 156.832 1327.13 156.064 1326.55 155.488C1326.01 154.88 1325.16 154.24 1324.01 153.568L1320.02 151.216C1319.03 150.64 1318.05 149.968 1317.09 149.2C1316.17 148.4 1315.38 147.408 1314.74 146.224C1314.13 145.008 1313.83 143.536 1313.83 141.808C1313.83 139.76 1314.26 138.032 1315.13 136.624C1316.02 135.184 1317.19 134.112 1318.63 133.408C1320.1 132.672 1321.75 132.304 1323.57 132.304C1324.98 132.304 1326.26 132.448 1327.41 132.736C1328.6 133.024 1329.64 133.408 1330.53 133.888C1331.46 134.336 1332.23 134.864 1332.84 135.472V142.048H1331.93C1330.97 140.992 1329.78 140.144 1328.37 139.504C1327 138.832 1325.59 138.496 1324.15 138.496C1323.19 138.496 1322.37 138.736 1321.7 139.216C1321.03 139.696 1320.69 140.4 1320.69 141.328C1320.69 142.256 1321.08 143.056 1321.85 143.728C1322.61 144.4 1323.62 145.12 1324.87 145.888L1328.85 148.336C1329.94 149.008 1330.89 149.776 1331.69 150.64C1332.49 151.472 1333.11 152.448 1333.56 153.568C1334.04 154.688 1334.28 156.016 1334.28 157.552ZM1353.04 132.832H1359.62V166.432H1352.28L1343.97 145.6H1343.44L1343.73 166.432H1337.16V132.832H1344.5L1352.8 153.952H1353.33L1353.04 132.832ZM1362.42 166.432V165.328L1369.43 132.832L1381.38 132.88L1388.44 165.328V166.432H1381.43L1379.89 157.984H1370.97L1369.38 166.432H1362.42ZM1371.88 152.08H1378.93L1376.58 139.216H1374.23L1371.88 152.08ZM1388.69 149.632C1388.69 146.656 1389.09 144.08 1389.89 141.904C1390.69 139.728 1391.76 137.936 1393.11 136.528C1394.48 135.088 1396.03 134.032 1397.76 133.36C1399.49 132.656 1401.28 132.304 1403.14 132.304C1404.93 132.304 1406.4 132.496 1407.55 132.88C1408.74 133.232 1409.59 133.632 1410.1 134.08V140.512H1409.19C1408.74 140.032 1408.1 139.584 1407.27 139.168C1406.43 138.752 1405.41 138.544 1404.19 138.544C1402.53 138.544 1401.06 138.976 1399.78 139.84C1398.5 140.672 1397.49 141.92 1396.75 143.584C1396.05 145.216 1395.7 147.232 1395.7 149.632C1395.7 152.032 1396.05 154.064 1396.75 155.728C1397.49 157.36 1398.5 158.608 1399.78 159.472C1401.06 160.304 1402.53 160.72 1404.19 160.72C1405.41 160.72 1406.43 160.512 1407.27 160.096C1408.1 159.68 1408.74 159.232 1409.19 158.752H1410.1V165.184C1409.59 165.6 1408.74 166 1407.55 166.384C1406.4 166.768 1404.93 166.96 1403.14 166.96C1401.28 166.96 1399.49 166.624 1397.76 165.952C1396.03 165.248 1394.48 164.192 1393.11 162.784C1391.76 161.344 1390.69 159.536 1389.89 157.36C1389.09 155.184 1388.69 152.608 1388.69 149.632ZM1413.94 166.432V132.832H1420.75V146.128H1421.71L1429.06 132.832H1436.11V133.936L1427.04 149.392L1436.11 165.328V166.432H1429.06L1421.71 152.752H1420.75V166.432H1413.94ZM1457.61 157.552C1457.61 159.536 1457.17 161.232 1456.31 162.64C1455.48 164.048 1454.31 165.136 1452.81 165.904C1451.3 166.64 1449.57 167.008 1447.62 167.008C1446.09 167.008 1444.66 166.816 1443.35 166.432C1442.04 166.08 1440.9 165.648 1439.94 165.136C1439.01 164.624 1438.33 164.192 1437.88 163.84V157.264H1438.74C1439.77 158.192 1441.01 159.024 1442.49 159.76C1443.99 160.464 1445.43 160.816 1446.81 160.816C1447.54 160.816 1448.2 160.704 1448.77 160.48C1449.38 160.224 1449.86 159.872 1450.21 159.424C1450.57 158.976 1450.74 158.432 1450.74 157.792C1450.74 156.832 1450.45 156.064 1449.88 155.488C1449.33 154.88 1448.49 154.24 1447.33 153.568L1443.35 151.216C1442.36 150.64 1441.38 149.968 1440.42 149.2C1439.49 148.4 1438.71 147.408 1438.07 146.224C1437.46 145.008 1437.16 143.536 1437.16 141.808C1437.16 139.76 1437.59 138.032 1438.45 136.624C1439.35 135.184 1440.52 134.112 1441.96 133.408C1443.43 132.672 1445.08 132.304 1446.9 132.304C1448.31 132.304 1449.59 132.448 1450.74 132.736C1451.93 133.024 1452.97 133.408 1453.86 133.888C1454.79 134.336 1455.56 134.864 1456.17 135.472V142.048H1455.25C1454.29 140.992 1453.11 140.144 1451.7 139.504C1450.33 138.832 1448.92 138.496 1447.48 138.496C1446.52 138.496 1445.7 138.736 1445.03 139.216C1444.36 139.696 1444.02 140.4 1444.02 141.328C1444.02 142.256 1444.41 143.056 1445.17 143.728C1445.94 144.4 1446.95 145.12 1448.2 145.888L1452.18 148.336C1453.27 149.008 1454.21 149.776 1455.01 150.64C1455.81 151.472 1456.44 152.448 1456.89 153.568C1457.37 154.688 1457.61 156.016 1457.61 157.552Z" fill="#090909"/>
</g>
<circle cx="29.9771" cy="8.41931" r="4" fill="#FAC640"/>
<circle cx="29.9771" cy="19.4193" r="4" fill="#FAC640"/>
<circle cx="40.9771" cy="8.41931" r="4" fill="#FAC640"/>
<circle cx="40.9771" cy="19.4193" r="4" fill="#FAC640"/>
<circle cx="51.9771" cy="8.41931" r="4" fill="#FAC640"/>
<circle cx="51.9771" cy="19.4193" r="4" fill="#FAC640"/>
<circle cx="62.9771" cy="8.41931" r="4" fill="#FAC640"/>
<circle cx="62.9771" cy="19.4193" r="4" fill="#FAC640"/>
<circle cx="73.9771" cy="8.41931" r="4" fill="#FAC640"/>
<circle cx="73.9771" cy="19.4193" r="4" fill="#FAC640"/>
<circle cx="84.9771" cy="8.41931" r="4" fill="#FAC640"/>
<circle cx="84.9771" cy="19.4193" r="4" fill="#FAC640"/>
<circle cx="95.9771" cy="8.41931" r="4" fill="#FAC640"/>
<circle cx="95.9771" cy="19.4193" r="4" fill="#FAC640"/>
<circle cx="106.977" cy="8.41931" r="4" fill="#FAC640"/>
<circle cx="106.977" cy="19.4193" r="4" fill="#FAC640"/>
<circle cx="117.977" cy="8.41931" r="4" fill="#FAC640"/>
<circle cx="117.977" cy="19.4193" r="4" fill="#FAC640"/>
<circle cx="128.977" cy="8.41931" r="4" fill="#FAC640"/>
<circle cx="128.977" cy="19.4193" r="4" fill="#FAC640"/>
<circle cx="139.977" cy="8.41931" r="4" fill="#FAC640"/>
<circle cx="139.977" cy="19.4193" r="4" fill="#FAC640"/>
<circle cx="150.977" cy="8.41931" r="4" fill="#FAC640"/>
<circle cx="150.977" cy="19.4193" r="4" fill="#FAC640"/>
<circle cx="161.977" cy="8.41931" r="4" fill="#FAC640"/>
<circle cx="161.977" cy="19.4193" r="4" fill="#FAC640"/>
<circle cx="172.977" cy="8.41931" r="4" fill="#FAC640"/>
<circle cx="172.977" cy="19.4193" r="4" fill="#FAC640"/>
<circle cx="183.977" cy="8.41931" r="4" fill="#FAC640"/>
<circle cx="183.977" cy="19.4193" r="4" fill="#FAC640"/>
<circle cx="194.977" cy="8.41931" r="4" fill="#FAC640"/>
<circle cx="194.977" cy="19.4193" r="4" fill="#FAC640"/>
<circle cx="205.977" cy="8.41931" r="4" fill="#FAC640"/>
<circle cx="205.977" cy="19.4193" r="4" fill="#FAC640"/>
<circle cx="216.977" cy="8.41931" r="4" fill="#FAC640"/>
<circle cx="216.977" cy="19.4193" r="4" fill="#FAC640"/>
<circle cx="227.977" cy="8.41931" r="4" fill="#FAC640"/>
<circle cx="227.977" cy="19.4193" r="4" fill="#FAC640"/>
<circle cx="238.977" cy="8.41931" r="4" fill="#FAC640"/>
<circle cx="238.977" cy="19.4193" r="4" fill="#FAC640"/>
<circle cx="249.977" cy="8.41931" r="4" fill="#FAC640"/>
<circle cx="249.977" cy="19.4193" r="4" fill="#FAC640"/>
<circle cx="260.977" cy="8.41931" r="4" fill="#FAC640"/>
<circle cx="260.977" cy="19.4193" r="4" fill="#FAC640"/>
<circle cx="271.977" cy="8.41931" r="4" fill="#FAC640"/>
<circle cx="271.977" cy="19.4193" r="4" fill="#FAC640"/>
<circle cx="282.977" cy="8.41931" r="4" fill="#FAC640"/>
<circle cx="282.977" cy="19.4193" r="4" fill="#FAC640"/>
<circle cx="293.977" cy="8.41931" r="4" fill="#FAC640"/>
<circle cx="293.977" cy="19.4193" r="4" fill="#FAC640"/>
<circle cx="304.977" cy="8.41931" r="4" fill="#FAC640"/>
<circle cx="304.977" cy="19.4193" r="4" fill="#FAC640"/>
<circle cx="315.977" cy="8.41931" r="4" fill="#FAC640"/>
<circle cx="315.977" cy="19.4193" r="4" fill="#FAC640"/>
<circle cx="326.977" cy="8.41931" r="4" fill="#FAC640"/>
<circle cx="326.977" cy="19.4193" r="4" fill="#FAC640"/>
<circle cx="337.977" cy="8.41931" r="4" fill="#FAC640"/>
<circle cx="337.977" cy="19.4193" r="4" fill="#FAC640"/>
<circle cx="348.977" cy="8.41931" r="4" fill="#FAC640"/>
<circle cx="348.977" cy="19.4193" r="4" fill="#FAC640"/>
<circle cx="361.051" cy="8.41931" r="4" fill="#FAC640"/>
<circle cx="361.051" cy="19.4193" r="4" fill="#FAC640"/>
<circle cx="372.051" cy="8.41931" r="4" fill="#FAC640"/>
<circle cx="372.051" cy="19.4193" r="4" fill="#FAC640"/>
<circle cx="383.051" cy="8.41931" r="4" fill="#FAC640"/>
<circle cx="383.051" cy="19.4193" r="4" fill="#FAC640"/>
<circle cx="394.051" cy="8.41931" r="4" fill="#FAC640"/>
<circle cx="394.051" cy="19.4193" r="4" fill="#FAC640"/>
<circle cx="405.051" cy="8.41931" r="4" fill="#FAC640"/>
<circle cx="405.051" cy="19.4193" r="4" fill="#FAC640"/>
<circle cx="416.051" cy="8.41931" r="4" fill="#FAC640"/>
<circle cx="416.051" cy="19.4193" r="4" fill="#FAC640"/>
<circle cx="427.051" cy="8.41931" r="4" fill="#FAC640"/>
<circle cx="427.051" cy="19.4193" r="4" fill="#FAC640"/>
<circle cx="438.051" cy="8.41931" r="4" fill="#FAC640"/>
<circle cx="438.051" cy="19.4193" r="4" fill="#FAC640"/>
<circle cx="449.051" cy="8.41931" r="4" fill="#FAC640"/>
<circle cx="449.051" cy="19.4193" r="4" fill="#FAC640"/>
<circle cx="460.051" cy="8.41931" r="4" fill="#FAC640"/>
<circle cx="460.051" cy="19.4193" r="4" fill="#FAC640"/>
<circle cx="471.051" cy="8.41931" r="4" fill="#FAC640"/>
<circle cx="471.051" cy="19.4193" r="4" fill="#FAC640"/>
<circle cx="482.051" cy="8.41931" r="4" fill="#FAC640"/>
<circle cx="482.051" cy="19.4193" r="4" fill="#FAC640"/>
<circle cx="493.051" cy="8.41931" r="4" fill="#FAC640"/>
<circle cx="493.051" cy="19.4193" r="4" fill="#FAC640"/>
<circle cx="504.051" cy="8.41931" r="4" fill="#FAC640"/>
<circle cx="504.051" cy="19.4193" r="4" fill="#FAC640"/>
<circle cx="515.051" cy="8.41931" r="4" fill="#FAC640"/>
<circle cx="515.051" cy="19.4193" r="4" fill="#FAC640"/>
<circle cx="526.051" cy="8.41931" r="4" fill="#FAC640"/>
<circle cx="526.051" cy="19.4193" r="4" fill="#FAC640"/>
<circle cx="537.051" cy="8.41931" r="4" fill="#FAC640"/>
<circle cx="537.051" cy="19.4193" r="4" fill="#FAC640"/>
<circle cx="548.051" cy="8.41931" r="4" fill="#FAC640"/>
<circle cx="548.051" cy="19.4193" r="4" fill="#FAC640"/>
<circle cx="559.051" cy="8.41931" r="4" fill="#FAC640"/>
<circle cx="559.051" cy="19.4193" r="4" fill="#FAC640"/>
<circle cx="570.051" cy="8.41931" r="4" fill="#FAC640"/>
<circle cx="570.051" cy="19.4193" r="4" fill="#FAC640"/>
<circle cx="581.051" cy="8.41931" r="4" fill="#FAC640"/>
<circle cx="581.051" cy="19.4193" r="4" fill="#FAC640"/>
<circle cx="592.051" cy="8.41931" r="4" fill="#FAC640"/>
<circle cx="592.051" cy="19.4193" r="4" fill="#FAC640"/>
<circle cx="603.051" cy="8.41931" r="4" fill="#FAC640"/>
<circle cx="603.051" cy="19.4193" r="4" fill="#FAC640"/>
<circle cx="614.051" cy="8.41931" r="4" fill="#FAC640"/>
<circle cx="614.051" cy="19.4193" r="4" fill="#FAC640"/>
<circle cx="625.051" cy="8.41931" r="4" fill="#FAC640"/>
<circle cx="625.051" cy="19.4193" r="4" fill="#FAC640"/>
<circle cx="636.051" cy="8.41931" r="4" fill="#FAC640"/>
<circle cx="636.051" cy="19.4193" r="4" fill="#FAC640"/>
<circle cx="647.051" cy="8.41931" r="4" fill="#FAC640"/>
<circle cx="647.051" cy="19.4193" r="4" fill="#FAC640"/>
<circle cx="658.051" cy="8.41931" r="4" fill="#FAC640"/>
<circle cx="658.051" cy="19.4193" r="4" fill="#FAC640"/>
<circle cx="669.051" cy="8.41931" r="4" fill="#FAC640"/>
<circle cx="669.051" cy="19.4193" r="4" fill="#FAC640"/>
<circle cx="680.051" cy="8.41931" r="4" fill="#FAC640"/>
<circle cx="680.051" cy="19.4193" r="4" fill="#FAC640"/>
<circle cx="692.125" cy="8.41931" r="4" fill="#FAC640"/>
<circle cx="692.125" cy="19.4193" r="4" fill="#FAC640"/>
<circle cx="703.125" cy="8.41931" r="4" fill="#FAC640"/>
<circle cx="703.125" cy="19.4193" r="4" fill="#FAC640"/>
<circle cx="714.125" cy="8.41931" r="4" fill="#FAC640"/>
<circle cx="714.125" cy="19.4193" r="4" fill="#FAC640"/>
<circle cx="725.125" cy="8.41931" r="4" fill="#FAC640"/>
<circle cx="725.125" cy="19.4193" r="4" fill="#FAC640"/>
<circle cx="736.125" cy="8.41931" r="4" fill="#FAC640"/>
<circle cx="736.125" cy="19.4193" r="4" fill="#FAC640"/>
<circle cx="747.125" cy="8.41931" r="4" fill="#FAC640"/>
<circle cx="747.125" cy="19.4193" r="4" fill="#FAC640"/>
<circle cx="758.125" cy="8.41931" r="4" fill="#FAC640"/>
<circle cx="758.125" cy="19.4193" r="4" fill="#FAC640"/>
<circle cx="769.125" cy="8.41931" r="4" fill="#FAC640"/>
<circle cx="769.125" cy="19.4193" r="4" fill="#FAC640"/>
<circle cx="780.125" cy="8.41931" r="4" fill="#FAC640"/>
<circle cx="780.125" cy="19.4193" r="4" fill="#FAC640"/>
<circle cx="791.125" cy="8.41931" r="4" fill="#FAC640"/>
<circle cx="791.125" cy="19.4193" r="4" fill="#FAC640"/>
<circle cx="802.125" cy="8.41931" r="4" fill="#FAC640"/>
<circle cx="802.125" cy="19.4193" r="4" fill="#FAC640"/>
<circle cx="813.125" cy="8.41931" r="4" fill="#FAC640"/>
<circle cx="813.125" cy="19.4193" r="4" fill="#FAC640"/>
<circle cx="824.125" cy="8.41931" r="4" fill="#FAC640"/>
<circle cx="824.125" cy="19.4193" r="4" fill="#FAC640"/>
<circle cx="835.125" cy="8.41931" r="4" fill="#FAC640"/>
<circle cx="835.125" cy="19.4193" r="4" fill="#FAC640"/>
<circle cx="846.125" cy="8.41931" r="4" fill="#FAC640"/>
<circle cx="846.125" cy="19.4193" r="4" fill="#FAC640"/>
<circle cx="857.125" cy="8.41931" r="4" fill="#FAC640"/>
<circle cx="857.125" cy="19.4193" r="4" fill="#FAC640"/>
<circle cx="868.125" cy="8.41931" r="4" fill="#FAC640"/>
<circle cx="868.125" cy="19.4193" r="4" fill="#FAC640"/>
<circle cx="879.125" cy="8.41931" r="4" fill="#FAC640"/>
<circle cx="879.125" cy="19.4193" r="4" fill="#FAC640"/>
<circle cx="890.125" cy="8.41931" r="4" fill="#FAC640"/>
<circle cx="890.125" cy="19.4193" r="4" fill="#FAC640"/>
<circle cx="901.125" cy="8.41931" r="4" fill="#FAC640"/>
<circle cx="901.125" cy="19.4193" r="4" fill="#FAC640"/>
<circle cx="912.125" cy="8.41931" r="4" fill="#FAC640"/>
<circle cx="912.125" cy="19.4193" r="4" fill="#FAC640"/>
<circle cx="923.125" cy="8.41931" r="4" fill="#FAC640"/>
<circle cx="923.125" cy="19.4193" r="4" fill="#FAC640"/>
<circle cx="934.125" cy="8.41931" r="4" fill="#FAC640"/>
<circle cx="934.125" cy="19.4193" r="4" fill="#FAC640"/>
<circle cx="945.125" cy="8.41931" r="4" fill="#FAC640"/>
<circle cx="945.125" cy="19.4193" r="4" fill="#FAC640"/>
<circle cx="956.125" cy="8.41931" r="4" fill="#FAC640"/>
<circle cx="956.125" cy="19.4193" r="4" fill="#FAC640"/>
<circle cx="967.125" cy="8.41931" r="4" fill="#FAC640"/>
<circle cx="967.125" cy="19.4193" r="4" fill="#FAC640"/>
<circle cx="978.125" cy="8.41931" r="4" fill="#FAC640"/>
<circle cx="978.125" cy="19.4193" r="4" fill="#FAC640"/>
<circle cx="989.125" cy="8.41931" r="4" fill="#FAC640"/>
<circle cx="989.125" cy="19.4193" r="4" fill="#FAC640"/>
<circle cx="1000.12" cy="8.41931" r="4" fill="#FAC640"/>
<circle cx="1000.12" cy="19.4193" r="4" fill="#FAC640"/>
<circle cx="1011.12" cy="8.41931" r="4" fill="#FAC640"/>
<circle cx="1011.12" cy="19.4193" r="4" fill="#FAC640"/>
<circle cx="1023.2" cy="8.41931" r="4" fill="#FAC640"/>
<circle cx="1023.2" cy="19.4193" r="4" fill="#FAC640"/>
<circle cx="1034.2" cy="8.41931" r="4" fill="#FAC640"/>
<circle cx="1034.2" cy="19.4193" r="4" fill="#FAC640"/>
<circle cx="1045.2" cy="8.41931" r="4" fill="#FAC640"/>
<circle cx="1045.2" cy="19.4193" r="4" fill="#FAC640"/>
<circle cx="1056.2" cy="8.41931" r="4" fill="#FAC640"/>
<circle cx="1056.2" cy="19.4193" r="4" fill="#FAC640"/>
<circle cx="1067.2" cy="8.41931" r="4" fill="#FAC640"/>
<circle cx="1067.2" cy="19.4193" r="4" fill="#FAC640"/>
<circle cx="1078.2" cy="8.41931" r="4" fill="#FAC640"/>
<circle cx="1078.2" cy="19.4193" r="4" fill="#FAC640"/>
<circle cx="1089.2" cy="8.41931" r="4" fill="#FAC640"/>
<circle cx="1089.2" cy="19.4193" r="4" fill="#FAC640"/>
<circle cx="1100.2" cy="8.41931" r="4" fill="#FAC640"/>
<circle cx="1100.2" cy="19.4193" r="4" fill="#FAC640"/>
<circle cx="1111.2" cy="8.41931" r="4" fill="#FAC640"/>
<circle cx="1111.2" cy="19.4193" r="4" fill="#FAC640"/>
<circle cx="1122.2" cy="8.41931" r="4" fill="#FAC640"/>
<circle cx="1122.2" cy="19.4193" r="4" fill="#FAC640"/>
<circle cx="1133.2" cy="8.41931" r="4" fill="#FAC640"/>
<circle cx="1133.2" cy="19.4193" r="4" fill="#FAC640"/>
<circle cx="1144.2" cy="8.41931" r="4" fill="#FAC640"/>
<circle cx="1144.2" cy="19.4193" r="4" fill="#FAC640"/>
<circle cx="1155.2" cy="8.41931" r="4" fill="#FAC640"/>
<circle cx="1155.2" cy="19.4193" r="4" fill="#FAC640"/>
<circle cx="1166.2" cy="8.41931" r="4" fill="#FAC640"/>
<circle cx="1166.2" cy="19.4193" r="4" fill="#FAC640"/>
<circle cx="1177.2" cy="8.41931" r="4" fill="#FAC640"/>
<circle cx="1177.2" cy="19.4193" r="4" fill="#FAC640"/>
<circle cx="1188.2" cy="8.41931" r="4" fill="#FAC640"/>
<circle cx="1188.2" cy="19.4193" r="4" fill="#FAC640"/>
<circle cx="1199.2" cy="8.41931" r="4" fill="#FAC640"/>
<circle cx="1199.2" cy="19.4193" r="4" fill="#FAC640"/>
<circle cx="1210.2" cy="8.41931" r="4" fill="#FAC640"/>
<circle cx="1210.2" cy="19.4193" r="4" fill="#FAC640"/>
<circle cx="1221.2" cy="8.41931" r="4" fill="#FAC640"/>
<circle cx="1221.2" cy="19.4193" r="4" fill="#FAC640"/>
<circle cx="1232.2" cy="8.41931" r="4" fill="#FAC640"/>
<circle cx="1232.2" cy="19.4193" r="4" fill="#FAC640"/>
<circle cx="1243.2" cy="8.41931" r="4" fill="#FAC640"/>
<circle cx="1243.2" cy="19.4193" r="4" fill="#FAC640"/>
<circle cx="1254.2" cy="8.41931" r="4" fill="#FAC640"/>
<circle cx="1254.2" cy="19.4193" r="4" fill="#FAC640"/>
<circle cx="1265.2" cy="8.41931" r="4" fill="#FAC640"/>
<circle cx="1265.2" cy="19.4193" r="4" fill="#FAC640"/>
<circle cx="1276.2" cy="8.41931" r="4" fill="#FAC640"/>
<circle cx="1276.2" cy="19.4193" r="4" fill="#FAC640"/>
<circle cx="1287.2" cy="8.41931" r="4" fill="#FAC640"/>
<circle cx="1287.2" cy="19.4193" r="4" fill="#FAC640"/>
<circle cx="1298.2" cy="8.41931" r="4" fill="#FAC640"/>
<circle cx="1298.2" cy="19.4193" r="4" fill="#FAC640"/>
<circle cx="1309.2" cy="8.41931" r="4" fill="#FAC640"/>
<circle cx="1309.2" cy="19.4193" r="4" fill="#FAC640"/>
<circle cx="1320.2" cy="8.41931" r="4" fill="#FAC640"/>
<circle cx="1320.2" cy="19.4193" r="4" fill="#FAC640"/>
<circle cx="1331.2" cy="8.41931" r="4" fill="#FAC640"/>
<circle cx="1331.2" cy="19.4193" r="4" fill="#FAC640"/>
<circle cx="1342.2" cy="8.41931" r="4" fill="#FAC640"/>
<circle cx="1342.2" cy="19.4193" r="4" fill="#FAC640"/>
<circle cx="1354.27" cy="8.41931" r="4" fill="#FAC640"/>
<circle cx="1354.27" cy="19.4193" r="4" fill="#FAC640"/>
<circle cx="1365.27" cy="8.41931" r="4" fill="#FAC640"/>
<circle cx="1365.27" cy="19.4193" r="4" fill="#FAC640"/>
<circle cx="1376.27" cy="8.41931" r="4" fill="#FAC640"/>
<circle cx="1376.27" cy="19.4193" r="4" fill="#FAC640"/>
<circle cx="1387.27" cy="8.41931" r="4" fill="#FAC640"/>
<circle cx="1387.27" cy="19.4193" r="4" fill="#FAC640"/>
<circle cx="1398.27" cy="8.41931" r="4" fill="#FAC640"/>
<circle cx="1398.27" cy="19.4193" r="4" fill="#FAC640"/>
<circle cx="1409.27" cy="8.41931" r="4" fill="#FAC640"/>
<circle cx="1409.27" cy="19.4193" r="4" fill="#FAC640"/>
<circle cx="1420.27" cy="8.41931" r="4" fill="#FAC640"/>
<circle cx="1420.27" cy="19.4193" r="4" fill="#FAC640"/>
<circle cx="1431.27" cy="8.41931" r="4" fill="#FAC640"/>
<circle cx="1431.27" cy="19.4193" r="4" fill="#FAC640"/>
<circle cx="1442.27" cy="8.41931" r="4" fill="#FAC640"/>
<circle cx="1442.27" cy="19.4193" r="4" fill="#FAC640"/>
<circle cx="1453.27" cy="8.41931" r="4" fill="#FAC640"/>
<circle cx="1453.27" cy="19.4193" r="4" fill="#FAC640"/>
<circle cx="1464.27" cy="8.41931" r="4" fill="#FAC640"/>
<circle cx="1464.27" cy="19.4193" r="4" fill="#FAC640"/>
<circle cx="1475.27" cy="8.41931" r="4" fill="#FAC640"/>
<circle cx="1475.27" cy="19.4193" r="4" fill="#FAC640"/>
<circle cx="1486.27" cy="8.41931" r="4" fill="#FAC640"/>
<circle cx="1486.27" cy="19.4193" r="4" fill="#FAC640"/>
<circle cx="1497.27" cy="8.41931" r="4" fill="#FAC640"/>
<circle cx="1497.27" cy="19.4193" r="4" fill="#FAC640"/>
<circle cx="1508.27" cy="8.41931" r="4" fill="#FAC640"/>
<circle cx="1508.27" cy="19.4193" r="4" fill="#FAC640"/>
<circle cx="1519.77" cy="19.4193" r="4" fill="#FAC640"/>
<circle cx="31" cy="194.932" r="4" fill="#FAC640"/>
<circle cx="31" cy="205.932" r="4" fill="#FAC640"/>
<circle cx="42" cy="194.932" r="4" fill="#FAC640"/>
<circle cx="42" cy="205.932" r="4" fill="#FAC640"/>
<circle cx="53" cy="194.932" r="4" fill="#FAC640"/>
<circle cx="53" cy="205.932" r="4" fill="#FAC640"/>
<circle cx="64" cy="194.932" r="4" fill="#FAC640"/>
<circle cx="64" cy="205.932" r="4" fill="#FAC640"/>
<circle cx="75" cy="194.932" r="4" fill="#FAC640"/>
<circle cx="75" cy="205.932" r="4" fill="#FAC640"/>
<circle cx="86" cy="194.932" r="4" fill="#FAC640"/>
<circle cx="86" cy="205.932" r="4" fill="#FAC640"/>
<circle cx="97" cy="194.932" r="4" fill="#FAC640"/>
<circle cx="97" cy="205.932" r="4" fill="#FAC640"/>
<circle cx="108" cy="194.932" r="4" fill="#FAC640"/>
<circle cx="108" cy="205.932" r="4" fill="#FAC640"/>
<circle cx="119" cy="194.932" r="4" fill="#FAC640"/>
<circle cx="119" cy="205.932" r="4" fill="#FAC640"/>
<circle cx="130" cy="194.932" r="4" fill="#FAC640"/>
<circle cx="130" cy="205.932" r="4" fill="#FAC640"/>
<circle cx="141" cy="194.932" r="4" fill="#FAC640"/>
<circle cx="141" cy="205.932" r="4" fill="#FAC640"/>
<circle cx="152" cy="194.932" r="4" fill="#FAC640"/>
<circle cx="152" cy="205.932" r="4" fill="#FAC640"/>
<circle cx="163" cy="194.932" r="4" fill="#FAC640"/>
<circle cx="163" cy="205.932" r="4" fill="#FAC640"/>
<circle cx="174" cy="194.932" r="4" fill="#FAC640"/>
<circle cx="174" cy="205.932" r="4" fill="#FAC640"/>
<circle cx="185" cy="194.932" r="4" fill="#FAC640"/>
<circle cx="185" cy="205.932" r="4" fill="#FAC640"/>
<circle cx="196" cy="194.932" r="4" fill="#FAC640"/>
<circle cx="196" cy="205.932" r="4" fill="#FAC640"/>
<circle cx="207" cy="194.932" r="4" fill="#FAC640"/>
<circle cx="207" cy="205.932" r="4" fill="#FAC640"/>
<circle cx="218" cy="194.932" r="4" fill="#FAC640"/>
<circle cx="218" cy="205.932" r="4" fill="#FAC640"/>
<circle cx="229" cy="194.932" r="4" fill="#FAC640"/>
<circle cx="229" cy="205.932" r="4" fill="#FAC640"/>
<circle cx="240" cy="194.932" r="4" fill="#FAC640"/>
<circle cx="240" cy="205.932" r="4" fill="#FAC640"/>
<circle cx="251" cy="194.932" r="4" fill="#FAC640"/>
<circle cx="251" cy="205.932" r="4" fill="#FAC640"/>
<circle cx="262" cy="194.932" r="4" fill="#FAC640"/>
<circle cx="262" cy="205.932" r="4" fill="#FAC640"/>
<circle cx="273" cy="194.932" r="4" fill="#FAC640"/>
<circle cx="273" cy="205.932" r="4" fill="#FAC640"/>
<circle cx="284" cy="194.932" r="4" fill="#FAC640"/>
<circle cx="284" cy="205.932" r="4" fill="#FAC640"/>
<circle cx="295" cy="194.932" r="4" fill="#FAC640"/>
<circle cx="295" cy="205.932" r="4" fill="#FAC640"/>
<circle cx="306" cy="194.932" r="4" fill="#FAC640"/>
<circle cx="306" cy="205.932" r="4" fill="#FAC640"/>
<circle cx="317" cy="194.932" r="4" fill="#FAC640"/>
<circle cx="317" cy="205.932" r="4" fill="#FAC640"/>
<circle cx="328" cy="194.932" r="4" fill="#FAC640"/>
<circle cx="328" cy="205.932" r="4" fill="#FAC640"/>
<circle cx="339" cy="194.932" r="4" fill="#FAC640"/>
<circle cx="339" cy="205.932" r="4" fill="#FAC640"/>
<circle cx="350" cy="194.932" r="4" fill="#FAC640"/>
<circle cx="350" cy="205.932" r="4" fill="#FAC640"/>
<circle cx="362.074" cy="194.932" r="4" fill="#FAC640"/>
<circle cx="362.074" cy="205.932" r="4" fill="#FAC640"/>
<circle cx="373.074" cy="194.932" r="4" fill="#FAC640"/>
<circle cx="373.074" cy="205.932" r="4" fill="#FAC640"/>
<circle cx="384.074" cy="194.932" r="4" fill="#FAC640"/>
<circle cx="384.074" cy="205.932" r="4" fill="#FAC640"/>
<circle cx="395.074" cy="194.932" r="4" fill="#FAC640"/>
<circle cx="395.074" cy="205.932" r="4" fill="#FAC640"/>
<circle cx="406.074" cy="194.932" r="4" fill="#FAC640"/>
<circle cx="406.074" cy="205.932" r="4" fill="#FAC640"/>
<circle cx="417.074" cy="194.932" r="4" fill="#FAC640"/>
<circle cx="417.074" cy="205.932" r="4" fill="#FAC640"/>
<circle cx="428.074" cy="194.932" r="4" fill="#FAC640"/>
<circle cx="428.074" cy="205.932" r="4" fill="#FAC640"/>
<circle cx="439.074" cy="194.932" r="4" fill="#FAC640"/>
<circle cx="439.074" cy="205.932" r="4" fill="#FAC640"/>
<circle cx="450.074" cy="194.932" r="4" fill="#FAC640"/>
<circle cx="450.074" cy="205.932" r="4" fill="#FAC640"/>
<circle cx="461.074" cy="194.932" r="4" fill="#FAC640"/>
<circle cx="461.074" cy="205.932" r="4" fill="#FAC640"/>
<circle cx="472.074" cy="194.932" r="4" fill="#FAC640"/>
<circle cx="472.074" cy="205.932" r="4" fill="#FAC640"/>
<circle cx="483.074" cy="194.932" r="4" fill="#FAC640"/>
<circle cx="483.074" cy="205.932" r="4" fill="#FAC640"/>
<circle cx="494.074" cy="194.932" r="4" fill="#FAC640"/>
<circle cx="494.074" cy="205.932" r="4" fill="#FAC640"/>
<circle cx="505.074" cy="194.932" r="4" fill="#FAC640"/>
<circle cx="505.074" cy="205.932" r="4" fill="#FAC640"/>
<circle cx="516.074" cy="194.932" r="4" fill="#FAC640"/>
<circle cx="516.074" cy="205.932" r="4" fill="#FAC640"/>
<circle cx="527.074" cy="194.932" r="4" fill="#FAC640"/>
<circle cx="527.074" cy="205.932" r="4" fill="#FAC640"/>
<circle cx="538.074" cy="194.932" r="4" fill="#FAC640"/>
<circle cx="538.074" cy="205.932" r="4" fill="#FAC640"/>
<circle cx="549.074" cy="194.932" r="4" fill="#FAC640"/>
<circle cx="549.074" cy="205.932" r="4" fill="#FAC640"/>
<circle cx="560.074" cy="194.932" r="4" fill="#FAC640"/>
<circle cx="560.074" cy="205.932" r="4" fill="#FAC640"/>
<circle cx="571.074" cy="194.932" r="4" fill="#FAC640"/>
<circle cx="571.074" cy="205.932" r="4" fill="#FAC640"/>
<circle cx="582.074" cy="194.932" r="4" fill="#FAC640"/>
<circle cx="582.074" cy="205.932" r="4" fill="#FAC640"/>
<circle cx="593.074" cy="194.932" r="4" fill="#FAC640"/>
<circle cx="593.074" cy="205.932" r="4" fill="#FAC640"/>
<circle cx="604.074" cy="194.932" r="4" fill="#FAC640"/>
<circle cx="604.074" cy="205.932" r="4" fill="#FAC640"/>
<circle cx="615.074" cy="194.932" r="4" fill="#FAC640"/>
<circle cx="615.074" cy="205.932" r="4" fill="#FAC640"/>
<circle cx="626.074" cy="194.932" r="4" fill="#FAC640"/>
<circle cx="626.074" cy="205.932" r="4" fill="#FAC640"/>
<circle cx="637.074" cy="194.932" r="4" fill="#FAC640"/>
<circle cx="637.074" cy="205.932" r="4" fill="#FAC640"/>
<circle cx="648.074" cy="194.932" r="4" fill="#FAC640"/>
<circle cx="648.074" cy="205.932" r="4" fill="#FAC640"/>
<circle cx="659.074" cy="194.932" r="4" fill="#FAC640"/>
<circle cx="659.074" cy="205.932" r="4" fill="#FAC640"/>
<circle cx="670.074" cy="194.932" r="4" fill="#FAC640"/>
<circle cx="670.074" cy="205.932" r="4" fill="#FAC640"/>
<circle cx="681.074" cy="194.932" r="4" fill="#FAC640"/>
<circle cx="681.074" cy="205.932" r="4" fill="#FAC640"/>
<circle cx="693.147" cy="194.932" r="4" fill="#FAC640"/>
<circle cx="693.147" cy="205.932" r="4" fill="#FAC640"/>
<circle cx="704.147" cy="194.932" r="4" fill="#FAC640"/>
<circle cx="704.147" cy="205.932" r="4" fill="#FAC640"/>
<circle cx="715.147" cy="194.932" r="4" fill="#FAC640"/>
<circle cx="715.147" cy="205.932" r="4" fill="#FAC640"/>
<circle cx="726.147" cy="194.932" r="4" fill="#FAC640"/>
<circle cx="726.147" cy="205.932" r="4" fill="#FAC640"/>
<circle cx="737.147" cy="194.932" r="4" fill="#FAC640"/>
<circle cx="737.147" cy="205.932" r="4" fill="#FAC640"/>
<circle cx="748.147" cy="194.932" r="4" fill="#FAC640"/>
<circle cx="748.147" cy="205.932" r="4" fill="#FAC640"/>
<circle cx="759.147" cy="194.932" r="4" fill="#FAC640"/>
<circle cx="759.147" cy="205.932" r="4" fill="#FAC640"/>
<circle cx="770.147" cy="194.932" r="4" fill="#FAC640"/>
<circle cx="770.147" cy="205.932" r="4" fill="#FAC640"/>
<circle cx="781.147" cy="194.932" r="4" fill="#FAC640"/>
<circle cx="781.147" cy="205.932" r="4" fill="#FAC640"/>
<circle cx="792.147" cy="194.932" r="4" fill="#FAC640"/>
<circle cx="792.147" cy="205.932" r="4" fill="#FAC640"/>
<circle cx="803.147" cy="194.932" r="4" fill="#FAC640"/>
<circle cx="803.147" cy="205.932" r="4" fill="#FAC640"/>
<circle cx="814.147" cy="194.932" r="4" fill="#FAC640"/>
<circle cx="814.147" cy="205.932" r="4" fill="#FAC640"/>
<circle cx="825.147" cy="194.932" r="4" fill="#FAC640"/>
<circle cx="825.147" cy="205.932" r="4" fill="#FAC640"/>
<circle cx="836.147" cy="194.932" r="4" fill="#FAC640"/>
<circle cx="836.147" cy="205.932" r="4" fill="#FAC640"/>
<circle cx="847.147" cy="194.932" r="4" fill="#FAC640"/>
<circle cx="847.147" cy="205.932" r="4" fill="#FAC640"/>
<circle cx="858.147" cy="194.932" r="4" fill="#FAC640"/>
<circle cx="858.147" cy="205.932" r="4" fill="#FAC640"/>
<circle cx="869.147" cy="194.932" r="4" fill="#FAC640"/>
<circle cx="869.147" cy="205.932" r="4" fill="#FAC640"/>
<circle cx="880.147" cy="194.932" r="4" fill="#FAC640"/>
<circle cx="880.147" cy="205.932" r="4" fill="#FAC640"/>
<circle cx="891.147" cy="194.932" r="4" fill="#FAC640"/>
<circle cx="891.147" cy="205.932" r="4" fill="#FAC640"/>
<circle cx="902.147" cy="194.932" r="4" fill="#FAC640"/>
<circle cx="902.147" cy="205.932" r="4" fill="#FAC640"/>
<circle cx="913.147" cy="194.932" r="4" fill="#FAC640"/>
<circle cx="913.147" cy="205.932" r="4" fill="#FAC640"/>
<circle cx="924.147" cy="194.932" r="4" fill="#FAC640"/>
<circle cx="924.147" cy="205.932" r="4" fill="#FAC640"/>
<circle cx="935.147" cy="194.932" r="4" fill="#FAC640"/>
<circle cx="935.147" cy="205.932" r="4" fill="#FAC640"/>
<circle cx="946.147" cy="194.932" r="4" fill="#FAC640"/>
<circle cx="946.147" cy="205.932" r="4" fill="#FAC640"/>
<circle cx="957.147" cy="194.932" r="4" fill="#FAC640"/>
<circle cx="957.147" cy="205.932" r="4" fill="#FAC640"/>
<circle cx="968.147" cy="194.932" r="4" fill="#FAC640"/>
<circle cx="968.147" cy="205.932" r="4" fill="#FAC640"/>
<circle cx="979.147" cy="194.932" r="4" fill="#FAC640"/>
<circle cx="979.147" cy="205.932" r="4" fill="#FAC640"/>
<circle cx="990.147" cy="194.932" r="4" fill="#FAC640"/>
<circle cx="990.147" cy="205.932" r="4" fill="#FAC640"/>
<circle cx="1001.15" cy="194.932" r="4" fill="#FAC640"/>
<circle cx="1001.15" cy="205.932" r="4" fill="#FAC640"/>
<circle cx="1012.15" cy="194.932" r="4" fill="#FAC640"/>
<circle cx="1012.15" cy="205.932" r="4" fill="#FAC640"/>
<circle cx="1024.22" cy="194.932" r="4" fill="#FAC640"/>
<circle cx="1024.22" cy="205.932" r="4" fill="#FAC640"/>
<circle cx="1035.22" cy="194.932" r="4" fill="#FAC640"/>
<circle cx="1035.22" cy="205.932" r="4" fill="#FAC640"/>
<circle cx="1046.22" cy="194.932" r="4" fill="#FAC640"/>
<circle cx="1046.22" cy="205.932" r="4" fill="#FAC640"/>
<circle cx="1057.22" cy="194.932" r="4" fill="#FAC640"/>
<circle cx="1057.22" cy="205.932" r="4" fill="#FAC640"/>
<circle cx="1068.22" cy="194.932" r="4" fill="#FAC640"/>
<circle cx="1068.22" cy="205.932" r="4" fill="#FAC640"/>
<circle cx="1079.22" cy="194.932" r="4" fill="#FAC640"/>
<circle cx="1079.22" cy="205.932" r="4" fill="#FAC640"/>
<circle cx="1090.22" cy="194.932" r="4" fill="#FAC640"/>
<circle cx="1090.22" cy="205.932" r="4" fill="#FAC640"/>
<circle cx="1101.22" cy="194.932" r="4" fill="#FAC640"/>
<circle cx="1101.22" cy="205.932" r="4" fill="#FAC640"/>
<circle cx="1112.22" cy="194.932" r="4" fill="#FAC640"/>
<circle cx="1112.22" cy="205.932" r="4" fill="#FAC640"/>
<circle cx="1123.22" cy="194.932" r="4" fill="#FAC640"/>
<circle cx="1123.22" cy="205.932" r="4" fill="#FAC640"/>
<circle cx="1134.22" cy="194.932" r="4" fill="#FAC640"/>
<circle cx="1134.22" cy="205.932" r="4" fill="#FAC640"/>
<circle cx="1145.22" cy="194.932" r="4" fill="#FAC640"/>
<circle cx="1145.22" cy="205.932" r="4" fill="#FAC640"/>
<circle cx="1156.22" cy="194.932" r="4" fill="#FAC640"/>
<circle cx="1156.22" cy="205.932" r="4" fill="#FAC640"/>
<circle cx="1167.22" cy="194.932" r="4" fill="#FAC640"/>
<circle cx="1167.22" cy="205.932" r="4" fill="#FAC640"/>
<circle cx="1178.22" cy="194.932" r="4" fill="#FAC640"/>
<circle cx="1178.22" cy="205.932" r="4" fill="#FAC640"/>
<circle cx="1189.22" cy="194.932" r="4" fill="#FAC640"/>
<circle cx="1189.22" cy="205.932" r="4" fill="#FAC640"/>
<circle cx="1200.22" cy="194.932" r="4" fill="#FAC640"/>
<circle cx="1200.22" cy="205.932" r="4" fill="#FAC640"/>
<circle cx="1211.22" cy="194.932" r="4" fill="#FAC640"/>
<circle cx="1211.22" cy="205.932" r="4" fill="#FAC640"/>
<circle cx="1222.22" cy="194.932" r="4" fill="#FAC640"/>
<circle cx="1222.22" cy="205.932" r="4" fill="#FAC640"/>
<circle cx="1233.22" cy="194.932" r="4" fill="#FAC640"/>
<circle cx="1233.22" cy="205.932" r="4" fill="#FAC640"/>
<circle cx="1244.22" cy="194.932" r="4" fill="#FAC640"/>
<circle cx="1244.22" cy="205.932" r="4" fill="#FAC640"/>
<circle cx="1255.22" cy="194.932" r="4" fill="#FAC640"/>
<circle cx="1255.22" cy="205.932" r="4" fill="#FAC640"/>
<circle cx="1266.22" cy="194.932" r="4" fill="#FAC640"/>
<circle cx="1266.22" cy="205.932" r="4" fill="#FAC640"/>
<circle cx="1277.22" cy="194.932" r="4" fill="#FAC640"/>
<circle cx="1277.22" cy="205.932" r="4" fill="#FAC640"/>
<circle cx="1288.22" cy="194.932" r="4" fill="#FAC640"/>
<circle cx="1288.22" cy="205.932" r="4" fill="#FAC640"/>
<circle cx="1299.22" cy="194.932" r="4" fill="#FAC640"/>
<circle cx="1299.22" cy="205.932" r="4" fill="#FAC640"/>
<circle cx="1310.22" cy="194.932" r="4" fill="#FAC640"/>
<circle cx="1310.22" cy="205.932" r="4" fill="#FAC640"/>
<circle cx="1321.22" cy="194.932" r="4" fill="#FAC640"/>
<circle cx="1321.22" cy="205.932" r="4" fill="#FAC640"/>
<circle cx="1332.22" cy="194.932" r="4" fill="#FAC640"/>
<circle cx="1332.22" cy="205.932" r="4" fill="#FAC640"/>
<circle cx="1343.22" cy="194.932" r="4" fill="#FAC640"/>
<circle cx="1343.22" cy="205.932" r="4" fill="#FAC640"/>
<circle cx="1355.29" cy="194.932" r="4" fill="#FAC640"/>
<circle cx="1355.29" cy="205.932" r="4" fill="#FAC640"/>
<circle cx="1366.29" cy="194.932" r="4" fill="#FAC640"/>
<circle cx="1366.29" cy="205.932" r="4" fill="#FAC640"/>
<circle cx="1377.29" cy="194.932" r="4" fill="#FAC640"/>
<circle cx="1377.29" cy="205.932" r="4" fill="#FAC640"/>
<circle cx="1388.29" cy="194.932" r="4" fill="#FAC640"/>
<circle cx="1388.29" cy="205.932" r="4" fill="#FAC640"/>
<circle cx="1399.29" cy="194.932" r="4" fill="#FAC640"/>
<circle cx="1399.29" cy="205.932" r="4" fill="#FAC640"/>
<circle cx="1410.29" cy="194.932" r="4" fill="#FAC640"/>
<circle cx="1410.29" cy="205.932" r="4" fill="#FAC640"/>
<circle cx="1421.29" cy="194.932" r="4" fill="#FAC640"/>
<circle cx="1421.29" cy="205.932" r="4" fill="#FAC640"/>
<circle cx="1432.29" cy="194.932" r="4" fill="#FAC640"/>
<circle cx="1432.29" cy="205.932" r="4" fill="#FAC640"/>
<circle cx="1443.29" cy="194.932" r="4" fill="#FAC640"/>
<circle cx="1443.29" cy="205.932" r="4" fill="#FAC640"/>
<circle cx="1454.29" cy="194.932" r="4" fill="#FAC640"/>
<circle cx="1454.29" cy="205.932" r="4" fill="#FAC640"/>
<circle cx="1465.29" cy="194.932" r="4" fill="#FAC640"/>
<circle cx="1465.29" cy="205.932" r="4" fill="#FAC640"/>
<circle cx="1476.29" cy="194.932" r="4" fill="#FAC640"/>
<circle cx="1476.29" cy="205.932" r="4" fill="#FAC640"/>
<circle cx="1487.29" cy="194.932" r="4" fill="#FAC640"/>
<circle cx="1487.29" cy="205.932" r="4" fill="#FAC640"/>
<circle cx="1498.29" cy="194.932" r="4" fill="#FAC640"/>
<circle cx="1498.29" cy="205.932" r="4" fill="#FAC640"/>
<circle cx="1509.29" cy="194.932" r="4" fill="#FAC640"/>
<circle cx="1520.29" cy="194.932" r="4" fill="#FAC640"/>
<circle cx="1509.29" cy="205.932" r="4" fill="#FAC640"/>
<defs>
<clipPath id="clip0_7244_1270">
<rect y="0.932007" width="1528" height="213" rx="20" fill="white"/>
</clipPath>
<clipPath id="clip1_7244_1270">
<rect x="28" y="27.932" width="1474" height="159" rx="10" fill="white"/>
</clipPath>
</defs>
</svg>
