<svg width="83" height="88" viewBox="0 0 83 88" fill="none" xmlns="http://www.w3.org/2000/svg">
<path d="M82.8006 63.1591C75.7363 77.4584 61.0073 87.2949 43.9785 87.2949C20.0767 87.2949 0.699463 67.9177 0.699463 44.0159C0.699463 20.114 20.0767 0.736816 43.9785 0.736816V7.48625L43.98 7.48772C23.7376 7.55246 7.34736 23.9795 7.34736 44.2366C7.34736 55.0398 12.0088 64.7527 19.4278 71.4785L54.3138 36.5925L61.849 44.1292L36.8288 69.1493L48.4163 80.7368C61.0603 79.255 71.7399 71.3564 77.1165 60.3855V60.3884L82.8006 63.1591Z" fill="white"/>
<path d="M47.3437 31.316C46.5417 32.3548 45.681 33.3348 44.8084 34.303C43.9314 35.2667 43.0309 36.207 42.1128 37.1296L39.3435 39.8826C38.4224 40.8022 37.4925 41.7131 36.5625 42.6239C35.6326 43.5347 34.7056 44.4484 33.7668 45.3504C32.831 46.2553 31.8981 47.1632 30.9535 48.0593C29.073 49.8603 27.1763 51.6466 25.2546 53.405C25.003 53.6345 24.6131 53.6184 24.3821 53.3667C24.1643 53.1298 24.1702 52.7664 24.3821 52.5339C26.1404 50.6108 27.9267 48.7156 29.7278 46.8351C30.6239 45.8904 31.5317 44.9575 32.4367 44.0217C33.3386 43.083 34.2524 42.156 35.1632 41.226C36.074 40.2961 36.9848 39.3661 37.9045 38.445L40.6575 35.6758C41.5801 34.7576 42.5218 33.8586 43.4841 32.9801C44.4523 32.1076 45.4323 31.2468 46.4711 30.4449C46.7433 30.2345 47.1333 30.286 47.3437 30.5567C47.5202 30.7848 47.5114 31.0982 47.3437 31.316Z" fill="white"/>
<path d="M51.0384 34.9195C50.7588 35.2859 50.4704 35.6435 50.1761 35.9951L49.7332 36.5204L49.2815 37.0369C48.6797 37.727 48.0602 38.3994 47.4334 39.063C46.1797 40.3917 44.8672 41.6645 43.5768 42.9564L39.6922 46.8219L35.793 50.6711C34.4952 51.9571 33.1841 53.2299 31.8804 54.5086L27.9547 58.3314C25.3311 60.8755 22.7002 63.4093 20.0399 65.9166C19.7927 66.1505 19.4013 66.1387 19.1673 65.8901C18.9422 65.6517 18.9466 65.2794 19.1673 65.044C21.6746 62.3851 24.2084 59.7528 26.7525 57.1292L30.5753 53.2034C31.8539 51.8998 33.1267 50.5887 34.4128 49.2909L38.262 45.3916L42.1274 41.5071C43.4194 40.2166 44.6921 38.9056 46.0208 37.6505C46.6844 37.0236 47.3569 36.4027 48.047 35.8024L48.5635 35.3506L49.0888 34.9077C49.4404 34.6135 49.798 34.3251 50.1629 34.0455C50.4366 33.8365 50.8265 33.8895 51.0355 34.1632C51.212 34.3927 51.2047 34.7032 51.0384 34.9195Z" fill="white"/>
<path d="M60.8175 28.7881L64.0179 25.5451L78.6453 10.719" stroke="white" stroke-width="1.61857" stroke-miterlimit="10" stroke-linecap="round" stroke-linejoin="round"/>
<path d="M61.2045 22.3079L78.6453 10.719" stroke="white" stroke-width="1.61857" stroke-miterlimit="10" stroke-linecap="round" stroke-linejoin="round"/>
<path d="M54.4418 16.8122L78.6452 10.719" stroke="white" stroke-width="1.61857" stroke-miterlimit="10" stroke-linecap="round" stroke-linejoin="round"/>
<path d="M61.2044 22.308L54.4418 16.8123" stroke="white" stroke-width="1.61857" stroke-miterlimit="10" stroke-linecap="round" stroke-linejoin="round"/>
<path d="M73.3379 32.8668L64.0179 25.545L60.8175 28.788L61.2045 22.3079" stroke="white" stroke-width="1.61857" stroke-miterlimit="10" stroke-linecap="round" stroke-linejoin="round"/>
<path d="M73.3378 32.8669L78.6452 10.719" stroke="white" stroke-width="1.61857" stroke-miterlimit="10" stroke-linecap="round" stroke-linejoin="round"/>
</svg>
