<svg width="1510" height="278" viewBox="0 0 1510 278" fill="none" xmlns="http://www.w3.org/2000/svg">
<g filter="url(#filter0_f_5110_64)">
<path d="M277.008 174.28C292.88 174.28 307.088 166.088 307.088 152.904C307.088 127.176 269.584 122.312 269.584 99.528C269.584 95.048 270.864 86.344 282 86.344C292.496 86.344 289.808 102.856 299.152 102.856C304.144 102.856 306.96 99.144 306.96 95.944C306.96 87.368 298 82.12 281.872 82.12C266 82.12 252.176 91.08 252.176 104.264C252.176 129.992 289.296 134.216 289.296 157C289.296 161.48 288.016 170.056 276.88 170.056C267.664 170.056 269.072 153.544 259.728 153.544C254.736 153.544 251.92 157.256 251.92 160.456C251.92 169.032 262.16 174.28 277.008 174.28ZM314.504 128.584V185.672C314.504 196.168 310.92 199.112 310.92 202.056C310.92 202.056 310.92 205 314.504 205H331.528C333.96 205 335.112 203.976 335.112 202.056C335.112 199.112 331.528 196.168 331.528 185.672V168.264C335.624 171.976 340.488 174.28 345.864 174.28C359.944 174.28 371.208 158.664 371.208 141.128C371.208 123.464 359.944 107.72 345.864 107.72C340.488 107.72 335.624 110.024 331.528 113.864C331.528 110.152 329.992 109 328.072 109C326.408 109 324.36 110.024 323.08 111.048L314.504 118.088C309.64 122.056 310.536 124.488 314.504 128.584ZM340.744 114.888C349.832 114.888 352.392 129.736 352.392 141.128C352.392 152.392 349.832 167.112 340.744 167.112C337.288 167.112 334.088 164.936 331.528 161.736V120.392C334.088 117.064 337.288 114.888 340.744 114.888ZM378.629 128.456V153.672C378.629 164.168 375.045 167.112 375.045 170.056C375.045 171.976 376.197 173 378.629 173H395.653C395.653 173 399.237 173 399.237 170.056C399.237 167.112 395.653 164.168 395.653 153.672V122.312C400.005 117.704 404.997 114.632 408.581 114.632C414.213 114.632 413.317 128.2 422.661 128.2C427.653 128.2 430.469 124.488 430.469 121.288C430.469 112.712 419.589 107.72 411.653 107.72C405.253 107.72 400.005 110.792 395.653 115.144V114.504C395.653 110.28 393.989 109 391.941 109C390.277 109 388.357 109.896 387.205 110.92L378.629 117.96C373.765 121.928 378.629 122.696 378.629 128.456ZM437.879 128.968V153.672C437.879 164.168 434.295 167.112 434.295 170.056C434.295 170.056 434.295 173 437.879 173H454.903C454.903 173 458.487 173 458.487 170.056C458.487 167.112 454.903 164.168 454.903 153.672V115.016C454.903 110.408 453.367 109 451.575 109C449.783 109 447.735 110.28 446.455 111.432L437.879 118.472C433.015 122.44 433.911 124.872 437.879 128.968ZM434.807 88.776C434.807 95.304 439.927 100.424 446.455 100.424C452.855 100.424 457.975 95.304 457.975 88.776C457.975 82.376 452.855 77 446.455 77C439.927 77 434.807 82.376 434.807 88.776ZM465.879 128.456V153.672C465.879 164.168 462.295 167.112 462.295 170.056C462.295 171.976 463.447 173 465.879 173H482.903C482.903 173 486.487 173 486.487 170.056C486.487 167.112 482.903 164.168 482.903 153.672V124.744C486.999 118.728 492.247 114.632 496.343 114.632C503.511 114.632 503.127 122.696 502.743 134.472C502.231 148.808 500.055 158.664 499.799 166.344C499.671 171.08 501.719 173 503.895 173H520.023C522.071 173 523.735 171.976 523.735 170.056C523.735 166.6 520.535 165.704 519.767 161.864C518.743 156.616 517.975 129.096 516.823 122.696C515.159 113.224 507.863 107.72 499.671 107.72C492.631 107.72 487.255 111.816 482.903 117.192V114.504C482.903 110.28 481.239 109 479.191 109C477.527 109 475.607 109.896 474.455 110.92L465.879 117.96C461.015 121.928 465.879 122.696 465.879 128.456ZM522.199 192.968C522.199 201.544 532.311 205 550.615 205C558.807 205 588.119 202.184 588.119 181.448C588.119 173 582.871 161.224 555.735 161.224C551.639 161.224 548.183 161.352 545.367 161.352C541.015 161.352 538.583 161.096 538.967 159.816C539.479 158.152 540.247 156.104 540.887 154.568C545.751 156.488 550.999 157.128 555.607 157.128C567.639 157.128 584.663 152.648 584.663 132.68C584.663 113.352 568.791 108.104 556.887 107.72C557.271 105.8 559.831 96.584 567.767 96.584C574.807 96.584 571.223 110.28 580.567 110.28C585.559 110.28 588.375 106.568 588.375 103.368C588.375 94.792 577.367 91.08 570.711 91.08C556.375 91.08 553.047 105.672 552.535 107.848C540.887 108.616 526.551 114.376 526.551 132.68C526.551 142.792 530.903 148.936 536.791 152.52C536.407 153.288 535.255 155.464 533.591 159.176C531.159 164.68 534.231 169.672 542.807 170.568C558.295 172.232 568.919 174.92 568.919 184.904C568.919 192.2 564.439 200.776 550.615 200.776C536.791 200.776 539.351 186.056 530.007 186.056C525.015 186.056 522.199 189.768 522.199 192.968ZM555.607 111.944C559.703 111.944 565.847 115.272 565.847 132.68C565.847 150.088 559.703 152.904 555.607 152.904C551.511 152.904 545.367 150.088 545.367 132.68C545.367 115.272 551.511 111.944 555.607 111.944ZM624.17 86.344C624.17 89.288 627.754 92.232 627.754 102.728V153.672C627.754 164.168 624.17 167.112 624.17 170.056C624.17 170.056 624.17 173 627.754 173H649.258C671.274 173 688.042 159.176 688.042 128.84C688.042 97.096 671.274 83.4 649.258 83.4H627.754C625.322 83.4 624.17 84.424 624.17 86.344ZM644.778 153.672V102.728C644.778 93.768 644.394 87.624 646.826 87.624H649.258C654.634 87.624 669.226 97.096 669.226 128.84C669.226 159.176 655.018 168.776 649.258 168.776H646.826C644.394 168.776 644.778 162.632 644.778 153.672ZM722.256 174.28C734.544 174.28 742.608 165.576 744.272 160.2C745.424 156.488 742.48 153.8 739.408 153.8C737.36 153.8 735.184 154.952 734.16 157.768C731.984 163.656 727.76 170.056 722.256 170.056C717.776 170.056 710.736 162.376 710.736 142.408H724.176C735.056 142.408 745.296 140.104 745.296 127.56C745.296 113.096 733.008 107.72 721.36 107.72C702.544 107.72 691.92 119.88 691.92 139.848C691.92 158.536 702.544 174.28 722.256 174.28ZM721.36 111.944C725.072 111.944 726.48 119.88 726.48 127.048C726.48 132.168 725.072 138.184 719.056 138.184H710.864C711.632 120.904 717.648 111.944 721.36 111.944ZM773.618 174.28C783.09 174.28 799.218 169.928 799.218 156.744C799.218 139.976 766.834 134.984 766.834 121.16C766.834 116.68 770.034 111.944 774.77 111.944C783.986 111.944 781.938 129.736 791.282 129.736C796.274 129.736 799.09 126.024 799.09 122.824C799.09 114.248 789.49 107.72 774.642 107.72C765.17 107.72 749.426 112.712 749.426 125.896C749.426 142.664 781.426 147.016 781.426 160.84C781.426 165.32 778.226 170.056 773.49 170.056C764.274 170.056 766.322 152.264 756.978 152.264C751.986 152.264 749.17 155.976 749.17 159.176C749.17 167.752 758.77 174.28 773.618 174.28ZM806.629 128.968V153.672C806.629 164.168 803.045 167.112 803.045 170.056C803.045 170.056 803.045 173 806.629 173H823.653C823.653 173 827.237 173 827.237 170.056C827.237 167.112 823.653 164.168 823.653 153.672V115.016C823.653 110.408 822.117 109 820.325 109C818.533 109 816.485 110.28 815.205 111.432L806.629 118.472C801.765 122.44 802.661 124.872 806.629 128.968ZM803.557 88.776C803.557 95.304 808.677 100.424 815.205 100.424C821.605 100.424 826.725 95.304 826.725 88.776C826.725 82.376 821.605 77 815.205 77C808.677 77 803.557 82.376 803.557 88.776ZM826.949 192.968C826.949 201.544 837.061 205 855.365 205C863.557 205 892.869 202.184 892.869 181.448C892.869 173 887.621 161.224 860.485 161.224C856.389 161.224 852.933 161.352 850.117 161.352C845.765 161.352 843.333 161.096 843.717 159.816C844.229 158.152 844.997 156.104 845.637 154.568C850.501 156.488 855.749 157.128 860.357 157.128C872.389 157.128 889.413 152.648 889.413 132.68C889.413 113.352 873.541 108.104 861.637 107.72C862.021 105.8 864.581 96.584 872.517 96.584C879.557 96.584 875.973 110.28 885.317 110.28C890.309 110.28 893.125 106.568 893.125 103.368C893.125 94.792 882.117 91.08 875.461 91.08C861.125 91.08 857.797 105.672 857.285 107.848C845.637 108.616 831.301 114.376 831.301 132.68C831.301 142.792 835.653 148.936 841.541 152.52C841.157 153.288 840.005 155.464 838.341 159.176C835.909 164.68 838.981 169.672 847.557 170.568C863.045 172.232 873.669 174.92 873.669 184.904C873.669 192.2 869.189 200.776 855.365 200.776C841.541 200.776 844.101 186.056 834.757 186.056C829.765 186.056 826.949 189.768 826.949 192.968ZM860.357 111.944C864.453 111.944 870.597 115.272 870.597 132.68C870.597 150.088 864.453 152.904 860.357 152.904C856.261 152.904 850.117 150.088 850.117 132.68C850.117 115.272 856.261 111.944 860.357 111.944ZM900.504 128.456V153.672C900.504 164.168 896.92 167.112 896.92 170.056C896.92 171.976 898.072 173 900.504 173H917.528C917.528 173 921.112 173 921.112 170.056C921.112 167.112 917.528 164.168 917.528 153.672V124.744C921.624 118.728 926.872 114.632 930.968 114.632C938.136 114.632 937.752 122.696 937.368 134.472C936.856 148.808 934.68 158.664 934.424 166.344C934.296 171.08 936.344 173 938.52 173H954.648C956.696 173 958.36 171.976 958.36 170.056C958.36 166.6 955.16 165.704 954.392 161.864C953.368 156.616 952.6 129.096 951.448 122.696C949.784 113.224 942.488 107.72 934.296 107.72C927.256 107.72 921.88 111.816 917.528 117.192V114.504C917.528 110.28 915.864 109 913.816 109C912.152 109 910.232 109.896 909.08 110.92L900.504 117.96C895.64 121.928 900.504 122.696 900.504 128.456ZM962.17 155.976C962.17 165.064 969.082 174.408 980.09 174.408C984.826 174.408 990.33 172.36 994.042 169.544C994.682 171.976 996.218 173 997.754 173H1013.88C1015.93 173 1017.59 171.976 1017.59 170.056C1017.59 166.6 1014.39 165.704 1013.63 161.864C1012.6 156.616 1011.83 129.096 1010.68 122.696C1009.02 113.224 1003.39 107.72 988.922 107.72C973.562 107.72 962.81 112.712 962.81 121.288C962.81 124.488 964.73 128.2 969.722 128.2C979.066 128.2 983.29 111.944 988.922 111.944C993.274 111.944 995.706 118.216 996.346 126.408C994.298 127.816 991.61 129.48 989.05 130.632C977.018 136.008 962.17 139.464 962.17 155.976ZM990.714 136.392C993.146 134.728 995.194 133.32 996.602 132.296V134.472C996.09 147.272 994.426 156.488 993.786 163.784C991.866 164.936 989.946 165.832 987.642 165.832C981.882 165.832 980.986 158.536 980.986 154.824C980.986 144.584 986.362 139.464 990.714 136.392ZM1018.47 113.224H1027.43V145.608C1027.43 154.44 1025.64 173 1044.97 173C1057.64 173 1062.76 164.168 1063.27 158.792C1063.66 154.824 1060.84 152.648 1057.9 152.648C1055.34 152.648 1052.78 154.312 1052.52 157.768C1052.14 163.784 1051.75 168.52 1048.3 168.52C1044.46 168.52 1044.46 150.984 1044.46 145.608V113.224H1053.42C1056.36 113.224 1056.36 109 1053.42 109H1044.46V88.904C1044.46 84.68 1042.79 83.4 1040.74 83.4C1039.08 83.4 1037.16 84.296 1036.01 85.32L1027.43 92.36C1022.57 96.328 1023.46 98.76 1027.43 102.856V109H1018.47C1015.53 109 1015.53 113.224 1018.47 113.224ZM1070.88 96.456V153.672C1070.88 164.168 1067.3 167.112 1067.3 170.056C1067.3 171.976 1068.45 173 1070.88 173H1087.9C1087.9 173 1091.49 173 1091.49 170.056C1091.49 167.112 1087.9 164.168 1087.9 153.672V124.744C1092 118.728 1097.25 114.632 1101.34 114.632C1108.51 114.632 1108.13 122.696 1107.74 134.472C1107.23 148.808 1105.06 158.664 1104.8 166.344C1104.67 171.08 1106.72 173 1108.9 173H1125.02C1127.07 173 1128.74 171.976 1128.74 170.056C1128.74 166.6 1125.54 165.704 1124.77 161.864C1123.74 156.616 1122.98 129.096 1121.82 122.696C1120.16 113.224 1112.86 107.72 1104.67 107.72C1097.63 107.72 1092.26 111.816 1087.9 117.192V82.504C1087.9 78.28 1086.24 77 1084.19 77C1082.53 77 1080.61 77.896 1079.46 78.92L1070.88 85.96C1066.02 89.928 1070.88 90.696 1070.88 96.456ZM1162.88 174.28C1182.59 174.28 1193.22 160.968 1193.22 141C1193.22 121.032 1182.59 107.72 1162.88 107.72C1143.17 107.72 1132.55 121.032 1132.55 141C1132.55 160.968 1143.17 174.28 1162.88 174.28ZM1151.36 141C1151.36 121.032 1157.51 111.944 1162.88 111.944C1168.26 111.944 1174.4 121.032 1174.4 141C1174.4 160.968 1168.26 170.056 1162.88 170.056C1157.51 170.056 1151.36 160.968 1151.36 141ZM1200.63 128.456V153.672C1200.63 164.168 1197.05 167.112 1197.05 170.056C1197.05 171.976 1198.2 173 1200.63 173H1217.65C1217.65 173 1221.24 173 1221.24 170.056C1221.24 167.112 1217.65 164.168 1217.65 153.672V124.744C1221.75 118.728 1227 114.632 1231.09 114.632C1238.26 114.632 1237.88 122.696 1237.49 134.472C1236.98 148.808 1234.81 158.664 1234.55 166.344C1234.42 171.08 1236.47 173 1238.65 173H1254.77C1256.82 173 1258.49 171.976 1258.49 170.056C1258.49 166.6 1255.29 165.704 1254.52 161.864C1253.49 156.616 1252.73 129.096 1251.57 122.696C1249.91 113.224 1242.61 107.72 1234.42 107.72C1227.38 107.72 1222.01 111.816 1217.65 117.192V114.504C1217.65 110.28 1215.99 109 1213.94 109C1212.28 109 1210.36 109.896 1209.21 110.92L1200.63 117.96C1195.77 121.928 1200.63 122.696 1200.63 128.456Z" fill="#E1DBD2"/>
</g>
<g filter="">
<path d="M277.008 176.28C292.88 176.28 307.088 168.088 307.088 154.904C307.088 129.176 269.584 124.312 269.584 101.528C269.584 97.048 270.864 88.344 282 88.344C292.496 88.344 289.808 104.856 299.152 104.856C304.144 104.856 306.96 101.144 306.96 97.944C306.96 89.368 298 84.12 281.872 84.12C266 84.12 252.176 93.08 252.176 106.264C252.176 131.992 289.296 136.216 289.296 159C289.296 163.48 288.016 172.056 276.88 172.056C267.664 172.056 269.072 155.544 259.728 155.544C254.736 155.544 251.92 159.256 251.92 162.456C251.92 171.032 262.16 176.28 277.008 176.28ZM314.504 130.584V187.672C314.504 198.168 310.92 201.112 310.92 204.056C310.92 204.056 310.92 207 314.504 207H331.528C333.96 207 335.112 205.976 335.112 204.056C335.112 201.112 331.528 198.168 331.528 187.672V170.264C335.624 173.976 340.488 176.28 345.864 176.28C359.944 176.28 371.208 160.664 371.208 143.128C371.208 125.464 359.944 109.72 345.864 109.72C340.488 109.72 335.624 112.024 331.528 115.864C331.528 112.152 329.992 111 328.072 111C326.408 111 324.36 112.024 323.08 113.048L314.504 120.088C309.64 124.056 310.536 126.488 314.504 130.584ZM340.744 116.888C349.832 116.888 352.392 131.736 352.392 143.128C352.392 154.392 349.832 169.112 340.744 169.112C337.288 169.112 334.088 166.936 331.528 163.736V122.392C334.088 119.064 337.288 116.888 340.744 116.888ZM378.629 130.456V155.672C378.629 166.168 375.045 169.112 375.045 172.056C375.045 173.976 376.197 175 378.629 175H395.653C395.653 175 399.237 175 399.237 172.056C399.237 169.112 395.653 166.168 395.653 155.672V124.312C400.005 119.704 404.997 116.632 408.581 116.632C414.213 116.632 413.317 130.2 422.661 130.2C427.653 130.2 430.469 126.488 430.469 123.288C430.469 114.712 419.589 109.72 411.653 109.72C405.253 109.72 400.005 112.792 395.653 117.144V116.504C395.653 112.28 393.989 111 391.941 111C390.277 111 388.357 111.896 387.205 112.92L378.629 119.96C373.765 123.928 378.629 124.696 378.629 130.456ZM437.879 130.968V155.672C437.879 166.168 434.295 169.112 434.295 172.056C434.295 172.056 434.295 175 437.879 175H454.903C454.903 175 458.487 175 458.487 172.056C458.487 169.112 454.903 166.168 454.903 155.672V117.016C454.903 112.408 453.367 111 451.575 111C449.783 111 447.735 112.28 446.455 113.432L437.879 120.472C433.015 124.44 433.911 126.872 437.879 130.968ZM434.807 90.776C434.807 97.304 439.927 102.424 446.455 102.424C452.855 102.424 457.975 97.304 457.975 90.776C457.975 84.376 452.855 79 446.455 79C439.927 79 434.807 84.376 434.807 90.776ZM465.879 130.456V155.672C465.879 166.168 462.295 169.112 462.295 172.056C462.295 173.976 463.447 175 465.879 175H482.903C482.903 175 486.487 175 486.487 172.056C486.487 169.112 482.903 166.168 482.903 155.672V126.744C486.999 120.728 492.247 116.632 496.343 116.632C503.511 116.632 503.127 124.696 502.743 136.472C502.231 150.808 500.055 160.664 499.799 168.344C499.671 173.08 501.719 175 503.895 175H520.023C522.071 175 523.735 173.976 523.735 172.056C523.735 168.6 520.535 167.704 519.767 163.864C518.743 158.616 517.975 131.096 516.823 124.696C515.159 115.224 507.863 109.72 499.671 109.72C492.631 109.72 487.255 113.816 482.903 119.192V116.504C482.903 112.28 481.239 111 479.191 111C477.527 111 475.607 111.896 474.455 112.92L465.879 119.96C461.015 123.928 465.879 124.696 465.879 130.456ZM522.199 194.968C522.199 203.544 532.311 207 550.615 207C558.807 207 588.119 204.184 588.119 183.448C588.119 175 582.871 163.224 555.735 163.224C551.639 163.224 548.183 163.352 545.367 163.352C541.015 163.352 538.583 163.096 538.967 161.816C539.479 160.152 540.247 158.104 540.887 156.568C545.751 158.488 550.999 159.128 555.607 159.128C567.639 159.128 584.663 154.648 584.663 134.68C584.663 115.352 568.791 110.104 556.887 109.72C557.271 107.8 559.831 98.584 567.767 98.584C574.807 98.584 571.223 112.28 580.567 112.28C585.559 112.28 588.375 108.568 588.375 105.368C588.375 96.792 577.367 93.08 570.711 93.08C556.375 93.08 553.047 107.672 552.535 109.848C540.887 110.616 526.551 116.376 526.551 134.68C526.551 144.792 530.903 150.936 536.791 154.52C536.407 155.288 535.255 157.464 533.591 161.176C531.159 166.68 534.231 171.672 542.807 172.568C558.295 174.232 568.919 176.92 568.919 186.904C568.919 194.2 564.439 202.776 550.615 202.776C536.791 202.776 539.351 188.056 530.007 188.056C525.015 188.056 522.199 191.768 522.199 194.968ZM555.607 113.944C559.703 113.944 565.847 117.272 565.847 134.68C565.847 152.088 559.703 154.904 555.607 154.904C551.511 154.904 545.367 152.088 545.367 134.68C545.367 117.272 551.511 113.944 555.607 113.944ZM624.17 88.344C624.17 91.288 627.754 94.232 627.754 104.728V155.672C627.754 166.168 624.17 169.112 624.17 172.056C624.17 172.056 624.17 175 627.754 175H649.258C671.274 175 688.042 161.176 688.042 130.84C688.042 99.096 671.274 85.4 649.258 85.4H627.754C625.322 85.4 624.17 86.424 624.17 88.344ZM644.778 155.672V104.728C644.778 95.768 644.394 89.624 646.826 89.624H649.258C654.634 89.624 669.226 99.096 669.226 130.84C669.226 161.176 655.018 170.776 649.258 170.776H646.826C644.394 170.776 644.778 164.632 644.778 155.672ZM722.256 176.28C734.544 176.28 742.608 167.576 744.272 162.2C745.424 158.488 742.48 155.8 739.408 155.8C737.36 155.8 735.184 156.952 734.16 159.768C731.984 165.656 727.76 172.056 722.256 172.056C717.776 172.056 710.736 164.376 710.736 144.408H724.176C735.056 144.408 745.296 142.104 745.296 129.56C745.296 115.096 733.008 109.72 721.36 109.72C702.544 109.72 691.92 121.88 691.92 141.848C691.92 160.536 702.544 176.28 722.256 176.28ZM721.36 113.944C725.072 113.944 726.48 121.88 726.48 129.048C726.48 134.168 725.072 140.184 719.056 140.184H710.864C711.632 122.904 717.648 113.944 721.36 113.944ZM773.618 176.28C783.09 176.28 799.218 171.928 799.218 158.744C799.218 141.976 766.834 136.984 766.834 123.16C766.834 118.68 770.034 113.944 774.77 113.944C783.986 113.944 781.938 131.736 791.282 131.736C796.274 131.736 799.09 128.024 799.09 124.824C799.09 116.248 789.49 109.72 774.642 109.72C765.17 109.72 749.426 114.712 749.426 127.896C749.426 144.664 781.426 149.016 781.426 162.84C781.426 167.32 778.226 172.056 773.49 172.056C764.274 172.056 766.322 154.264 756.978 154.264C751.986 154.264 749.17 157.976 749.17 161.176C749.17 169.752 758.77 176.28 773.618 176.28ZM806.629 130.968V155.672C806.629 166.168 803.045 169.112 803.045 172.056C803.045 172.056 803.045 175 806.629 175H823.653C823.653 175 827.237 175 827.237 172.056C827.237 169.112 823.653 166.168 823.653 155.672V117.016C823.653 112.408 822.117 111 820.325 111C818.533 111 816.485 112.28 815.205 113.432L806.629 120.472C801.765 124.44 802.661 126.872 806.629 130.968ZM803.557 90.776C803.557 97.304 808.677 102.424 815.205 102.424C821.605 102.424 826.725 97.304 826.725 90.776C826.725 84.376 821.605 79 815.205 79C808.677 79 803.557 84.376 803.557 90.776ZM826.949 194.968C826.949 203.544 837.061 207 855.365 207C863.557 207 892.869 204.184 892.869 183.448C892.869 175 887.621 163.224 860.485 163.224C856.389 163.224 852.933 163.352 850.117 163.352C845.765 163.352 843.333 163.096 843.717 161.816C844.229 160.152 844.997 158.104 845.637 156.568C850.501 158.488 855.749 159.128 860.357 159.128C872.389 159.128 889.413 154.648 889.413 134.68C889.413 115.352 873.541 110.104 861.637 109.72C862.021 107.8 864.581 98.584 872.517 98.584C879.557 98.584 875.973 112.28 885.317 112.28C890.309 112.28 893.125 108.568 893.125 105.368C893.125 96.792 882.117 93.08 875.461 93.08C861.125 93.08 857.797 107.672 857.285 109.848C845.637 110.616 831.301 116.376 831.301 134.68C831.301 144.792 835.653 150.936 841.541 154.52C841.157 155.288 840.005 157.464 838.341 161.176C835.909 166.68 838.981 171.672 847.557 172.568C863.045 174.232 873.669 176.92 873.669 186.904C873.669 194.2 869.189 202.776 855.365 202.776C841.541 202.776 844.101 188.056 834.757 188.056C829.765 188.056 826.949 191.768 826.949 194.968ZM860.357 113.944C864.453 113.944 870.597 117.272 870.597 134.68C870.597 152.088 864.453 154.904 860.357 154.904C856.261 154.904 850.117 152.088 850.117 134.68C850.117 117.272 856.261 113.944 860.357 113.944ZM900.504 130.456V155.672C900.504 166.168 896.92 169.112 896.92 172.056C896.92 173.976 898.072 175 900.504 175H917.528C917.528 175 921.112 175 921.112 172.056C921.112 169.112 917.528 166.168 917.528 155.672V126.744C921.624 120.728 926.872 116.632 930.968 116.632C938.136 116.632 937.752 124.696 937.368 136.472C936.856 150.808 934.68 160.664 934.424 168.344C934.296 173.08 936.344 175 938.52 175H954.648C956.696 175 958.36 173.976 958.36 172.056C958.36 168.6 955.16 167.704 954.392 163.864C953.368 158.616 952.6 131.096 951.448 124.696C949.784 115.224 942.488 109.72 934.296 109.72C927.256 109.72 921.88 113.816 917.528 119.192V116.504C917.528 112.28 915.864 111 913.816 111C912.152 111 910.232 111.896 909.08 112.92L900.504 119.96C895.64 123.928 900.504 124.696 900.504 130.456ZM962.17 157.976C962.17 167.064 969.082 176.408 980.09 176.408C984.826 176.408 990.33 174.36 994.042 171.544C994.682 173.976 996.218 175 997.754 175H1013.88C1015.93 175 1017.59 173.976 1017.59 172.056C1017.59 168.6 1014.39 167.704 1013.63 163.864C1012.6 158.616 1011.83 131.096 1010.68 124.696C1009.02 115.224 1003.39 109.72 988.922 109.72C973.562 109.72 962.81 114.712 962.81 123.288C962.81 126.488 964.73 130.2 969.722 130.2C979.066 130.2 983.29 113.944 988.922 113.944C993.274 113.944 995.706 120.216 996.346 128.408C994.298 129.816 991.61 131.48 989.05 132.632C977.018 138.008 962.17 141.464 962.17 157.976ZM990.714 138.392C993.146 136.728 995.194 135.32 996.602 134.296V136.472C996.09 149.272 994.426 158.488 993.786 165.784C991.866 166.936 989.946 167.832 987.642 167.832C981.882 167.832 980.986 160.536 980.986 156.824C980.986 146.584 986.362 141.464 990.714 138.392ZM1018.47 115.224H1027.43V147.608C1027.43 156.44 1025.64 175 1044.97 175C1057.64 175 1062.76 166.168 1063.27 160.792C1063.66 156.824 1060.84 154.648 1057.9 154.648C1055.34 154.648 1052.78 156.312 1052.52 159.768C1052.14 165.784 1051.75 170.52 1048.3 170.52C1044.46 170.52 1044.46 152.984 1044.46 147.608V115.224H1053.42C1056.36 115.224 1056.36 111 1053.42 111H1044.46V90.904C1044.46 86.68 1042.79 85.4 1040.74 85.4C1039.08 85.4 1037.16 86.296 1036.01 87.32L1027.43 94.36C1022.57 98.328 1023.46 100.76 1027.43 104.856V111H1018.47C1015.53 111 1015.53 115.224 1018.47 115.224ZM1070.88 98.456V155.672C1070.88 166.168 1067.3 169.112 1067.3 172.056C1067.3 173.976 1068.45 175 1070.88 175H1087.9C1087.9 175 1091.49 175 1091.49 172.056C1091.49 169.112 1087.9 166.168 1087.9 155.672V126.744C1092 120.728 1097.25 116.632 1101.34 116.632C1108.51 116.632 1108.13 124.696 1107.74 136.472C1107.23 150.808 1105.06 160.664 1104.8 168.344C1104.67 173.08 1106.72 175 1108.9 175H1125.02C1127.07 175 1128.74 173.976 1128.74 172.056C1128.74 168.6 1125.54 167.704 1124.77 163.864C1123.74 158.616 1122.98 131.096 1121.82 124.696C1120.16 115.224 1112.86 109.72 1104.67 109.72C1097.63 109.72 1092.26 113.816 1087.9 119.192V84.504C1087.9 80.28 1086.24 79 1084.19 79C1082.53 79 1080.61 79.896 1079.46 80.92L1070.88 87.96C1066.02 91.928 1070.88 92.696 1070.88 98.456ZM1162.88 176.28C1182.59 176.28 1193.22 162.968 1193.22 143C1193.22 123.032 1182.59 109.72 1162.88 109.72C1143.17 109.72 1132.55 123.032 1132.55 143C1132.55 162.968 1143.17 176.28 1162.88 176.28ZM1151.36 143C1151.36 123.032 1157.51 113.944 1162.88 113.944C1168.26 113.944 1174.4 123.032 1174.4 143C1174.4 162.968 1168.26 172.056 1162.88 172.056C1157.51 172.056 1151.36 162.968 1151.36 143ZM1200.63 130.456V155.672C1200.63 166.168 1197.05 169.112 1197.05 172.056C1197.05 173.976 1198.2 175 1200.63 175H1217.65C1217.65 175 1221.24 175 1221.24 172.056C1221.24 169.112 1217.65 166.168 1217.65 155.672V126.744C1221.75 120.728 1227 116.632 1231.09 116.632C1238.26 116.632 1237.88 124.696 1237.49 136.472C1236.98 150.808 1234.81 160.664 1234.55 168.344C1234.42 173.08 1236.47 175 1238.65 175H1254.77C1256.82 175 1258.49 173.976 1258.49 172.056C1258.49 168.6 1255.29 167.704 1254.52 163.864C1253.49 158.616 1252.73 131.096 1251.57 124.696C1249.91 115.224 1242.61 109.72 1234.42 109.72C1227.38 109.72 1222.01 113.816 1217.65 119.192V116.504C1217.65 112.28 1215.99 111 1213.94 111C1212.28 111 1210.36 111.896 1209.21 112.92L1200.63 119.96C1195.77 123.928 1200.63 124.696 1200.63 130.456Z" fill="#E1DBD2"/>
</g>
<g filter="">
<path d="M263.504 51.64C271.44 51.64 278.544 47.544 278.544 40.952C278.544 28.088 259.792 25.656 259.792 14.264C259.792 12.024 260.432 7.672 266 7.672C271.248 7.672 269.904 15.928 274.576 15.928C277.072 15.928 278.48 14.072 278.48 12.472C278.48 8.184 274 5.56 265.936 5.56C258 5.56 251.088 10.04 251.088 16.632C251.088 29.496 269.648 31.608 269.648 43C269.648 45.24 269.008 49.528 263.44 49.528C258.832 49.528 259.536 41.272 254.864 41.272C252.368 41.272 250.96 43.128 250.96 44.728C250.96 49.016 256.08 51.64 263.504 51.64ZM280.46 7.672C280.46 9.144 282.252 10.616 282.252 15.864V41.336C282.252 46.584 280.46 48.056 280.46 49.528C280.46 49.528 280.46 51 282.252 51H297.932C304.972 51 310.604 45.176 310.604 38.264C310.604 33.848 307.98 30.264 304.268 28.344C307.404 25.976 309.324 22.136 309.324 17.848C309.324 11 303.692 6.2 296.652 6.2H282.252C281.036 6.2 280.46 6.712 280.46 7.672ZM290.764 41.336V31.8C290.764 30.264 292.62 30.2 294.092 30.2C294.348 30.2 294.54 30.2 294.732 30.2C299.276 30.2 301.196 34.552 301.196 38.264C301.196 42.04 299.916 47.416 295.372 47.416H291.852C290.636 47.416 290.764 44.408 290.764 41.336ZM291.852 9.784H294.092C298.636 9.784 299.916 14.136 299.916 17.848C299.916 21.624 299.276 27 294.732 27C294.54 27 294.284 27 293.964 27C292.684 27 290.764 26.872 290.764 25.464V15.864C290.764 12.792 290.636 9.784 291.852 9.784ZM312.523 28.92C312.523 44.024 321.419 51.64 332.555 51.64C339.339 51.64 343.051 46.904 343.499 44.6C343.819 42.808 342.411 41.592 340.875 41.592C339.787 41.592 338.699 42.168 338.315 43.704C337.611 46.52 335.691 49.528 332.555 49.528C329.035 49.528 321.931 44.088 321.931 28.92C321.931 13.048 329.227 7.672 331.915 7.672C335.371 7.672 334.923 15.672 339.595 15.672C342.091 15.672 343.499 13.816 343.499 12.216C343.499 7.928 337.355 5.56 331.915 5.56C321.419 5.56 312.523 13.048 312.523 28.92ZM347.252 15.864V41.336C347.252 46.584 345.46 48.056 345.46 49.528C345.46 49.528 345.46 51 347.252 51H369.78C370.74 51 372.468 50.808 373.044 49.784C373.108 49.72 376.5 43.896 375.028 43.064C374.836 42.936 374.644 42.872 374.452 42.872C372.34 42.872 370.676 48.888 364.212 48.888H357.428C356.212 48.888 355.764 45.816 355.764 41.336V15.864C355.764 10.616 357.556 9.144 357.556 7.672C357.556 7.672 357.556 6.2 355.764 6.2H347.252C347.252 6.2 345.46 6.2 345.46 7.672C345.46 9.144 347.252 10.616 347.252 15.864ZM396.791 51H415.735C416.695 51 418.423 50.808 418.999 49.784C419.063 49.72 422.455 37.496 420.983 36.664C420.791 36.536 420.599 36.472 420.407 36.472C418.295 36.472 416.631 42.488 410.167 42.488H403.063C409.591 31.224 422.071 29.624 422.071 16.632C422.071 9.272 416.439 5.56 408.247 5.56C399.287 5.56 394.103 9.464 394.103 13.752C394.103 15.352 395.127 17.464 398.071 17.464C402.743 17.464 403.895 7.672 408.247 7.672C410.935 7.672 412.663 11.768 412.663 16.504C412.663 28.408 401.719 32.632 394.743 42.488C392.247 46.008 393.271 51 396.791 51ZM439.768 51.64C450.904 51.64 455.576 41.272 455.576 28.088C455.576 14.904 450.904 5.56 439.768 5.56C428.632 5.56 423.96 14.904 423.96 28.088C423.96 41.272 428.632 51.64 439.768 51.64ZM433.368 28.088C433.368 14.904 435.8 7.672 439.768 7.672C443.736 7.672 446.168 14.904 446.168 28.088C446.168 41.272 443.736 49.528 439.768 49.528C435.8 49.528 433.368 41.272 433.368 28.088ZM460.979 51H479.923C480.883 51 482.611 50.808 483.187 49.784C483.251 49.72 486.643 37.496 485.171 36.664C484.979 36.536 484.787 36.472 484.595 36.472C482.483 36.472 480.819 42.488 474.355 42.488H467.251C473.779 31.224 486.259 29.624 486.259 16.632C486.259 9.272 480.627 5.56 472.435 5.56C463.475 5.56 458.291 9.464 458.291 13.752C458.291 15.352 459.315 17.464 462.259 17.464C466.931 17.464 468.083 7.672 472.435 7.672C475.123 7.672 476.851 11.768 476.851 16.504C476.851 28.408 465.907 32.632 458.931 42.488C456.434 46.008 457.459 51 460.979 51ZM512.084 28.6C515.348 26.744 518.676 22.904 518.676 17.656C518.676 9.912 512.404 5.56 504.212 5.56C495.252 5.56 490.068 9.464 490.068 13.752C490.068 15.352 491.092 17.464 494.036 17.464C498.708 17.464 499.86 7.672 504.212 7.672C506.9 7.672 509.268 11.768 509.268 16.888C509.268 26.232 504.532 25.912 504.532 25.912C501.78 26.168 501.78 31.032 504.532 31.288C508.756 31.288 509.268 36.344 509.268 39.544C509.268 46.712 504.98 49.528 502.548 49.528C497.94 49.528 496.788 39.736 492.116 39.736C489.172 39.736 488.148 41.848 488.148 43.448C488.148 47.736 493.332 51.64 502.548 51.64C510.484 51.64 518.676 47.288 518.676 38.776C518.676 33.656 515.348 30.328 512.084 28.6Z" fill="#E1DBD2"/>
</g>
<g filter="">
<path d="M947.211 43.576C947.275 47.096 950.859 51.64 958.667 51.64C973.131 51.64 972.619 39.544 972.619 32.376V15.864C972.619 10.616 974.411 9.144 974.411 7.672C974.411 7.672 974.411 6.2 972.619 6.2H964.107C964.107 6.2 962.315 6.2 962.315 7.672C962.315 9.144 964.107 10.616 964.107 15.864V32.376C964.107 37.88 963.787 49.528 958.667 49.528C953.995 49.528 955.723 40.568 951.115 40.12C950.987 40.12 950.859 40.12 950.731 40.12C948.491 40.12 947.211 42.04 947.211 43.576ZM978.128 15.864V39.416C978.128 47.544 985.104 51.64 992.08 51.64C998.992 51.64 1005.97 47.544 1005.97 39.416V15.224C1006.22 8.824 1010.19 9.08 1010.19 7.224C1010.19 7.224 1010.19 6.2 1008.91 6.2H1000.91C1000.91 6.2 999.632 6.2 999.632 7.224C999.632 9.08 1003.6 8.824 1003.86 15.224V39.416C1003.86 45.56 999.568 48.696 995.28 48.696C990.928 48.696 986.64 45.56 986.64 39.416V15.864C986.64 10.616 988.432 9.144 988.432 7.672C988.432 7.672 988.432 6.2 986.64 6.2H978.128C978.128 6.2 976.336 6.2 976.336 7.672C976.336 9.144 978.128 10.616 978.128 15.864ZM1016.25 15.224V41.976C1015.99 48.376 1012.02 48.12 1012.02 49.976C1012.02 50.68 1012.47 51 1013.3 51H1021.3C1021.3 51 1022.58 51 1022.58 49.976C1022.58 48.12 1018.61 48.376 1018.36 41.976V15.608C1023.41 15.608 1026.23 42.296 1027.25 47.672C1027.7 49.976 1028.21 51 1029.3 51H1036.47C1037.37 51 1038.13 50.552 1038.33 49.656L1044.41 12.28C1044.6 13.24 1044.73 14.392 1044.73 15.864V41.336C1044.73 46.584 1042.93 48.056 1042.93 49.528C1042.93 50.488 1043.51 51 1044.73 51H1053.24C1053.24 51 1055.03 51 1055.03 49.528C1055.03 48.056 1053.24 46.584 1053.24 41.336V15.864C1053.24 10.616 1055.03 9.144 1055.03 7.672C1055.03 6.712 1054.45 6.2 1053.24 6.2H1044.73C1044.73 6.2 1042.93 6.2 1042.93 7.672L1036.66 46.648C1035.51 43.832 1032.69 6.2 1018.36 6.2H1013.3C1013.3 6.2 1012.02 6.2 1012.02 7.224C1012.02 9.08 1015.99 8.824 1016.25 15.224ZM1056.96 7.672C1056.96 9.144 1058.75 10.616 1058.75 15.864V41.336C1058.75 46.584 1056.96 48.056 1056.96 49.528C1056.96 49.528 1056.96 51 1058.75 51H1067.26C1068.48 51 1069.06 50.488 1069.06 49.528C1069.06 48.056 1067.26 46.584 1067.26 41.336V34.808C1069.31 36.6 1071.74 37.624 1074.43 37.624C1081.47 37.624 1087.1 30.392 1087.1 21.624C1087.1 12.792 1081.47 5.56 1074.43 5.56C1072.45 5.56 1070.59 6.136 1068.99 7.16C1070.02 6.52 1069.63 6.584 1069.25 6.584C1068.61 6.584 1068.16 6.2 1067.26 6.2H1058.75C1057.54 6.2 1056.96 6.712 1056.96 7.672ZM1067.26 15.864C1067.26 12.536 1067.65 9.144 1071.87 9.144C1076.42 9.144 1077.7 15.928 1077.7 21.624C1077.7 27.256 1076.42 34.04 1071.87 34.04C1070.14 34.04 1068.54 33.08 1067.26 31.544V15.864ZM1101.57 51.64C1109.5 51.64 1116.61 47.544 1116.61 40.952C1116.61 28.088 1097.86 25.656 1097.86 14.264C1097.86 12.024 1098.5 7.672 1104.06 7.672C1109.31 7.672 1107.97 15.928 1112.64 15.928C1115.14 15.928 1116.54 14.072 1116.54 12.472C1116.54 8.184 1112.06 5.56 1104 5.56C1096.06 5.56 1089.15 10.04 1089.15 16.632C1089.15 29.496 1107.71 31.608 1107.71 43C1107.71 45.24 1107.07 49.528 1101.5 49.528C1096.9 49.528 1097.6 41.272 1092.93 41.272C1090.43 41.272 1089.02 43.128 1089.02 44.728C1089.02 49.016 1094.14 51.64 1101.57 51.64ZM1118.78 7.8L1121.21 15.928C1121.66 16.632 1122.11 16.952 1122.62 16.952C1122.88 16.952 1123.13 16.888 1123.39 16.696C1124.6 15.8 1124.28 8.312 1130.36 8.312H1132.67C1134.59 8.312 1134.33 11.384 1134.33 15.864V41.336C1134.33 46.584 1132.54 48.056 1132.54 49.528C1132.54 49.528 1132.54 51 1134.33 51H1142.84C1144.06 51 1144.64 50.488 1144.64 49.528C1144.64 48.056 1142.84 46.584 1142.84 41.336V15.864C1142.84 11.384 1142.59 8.312 1144.51 8.312H1146.75C1152.83 8.312 1152.44 15.928 1153.72 16.696C1154.24 17.016 1153.92 16.824 1154.56 16.824C1155.07 16.824 1155.52 16.568 1155.9 15.928L1158.33 7.8C1158.52 7.16 1159.1 6.2 1157.56 6.2H1119.55C1118.01 6.2 1118.59 7.16 1118.78 7.8ZM1151.59 49.528C1151.59 50.488 1152.16 51 1153.38 51H1159.78C1159.78 51 1161.57 51 1161.57 49.528C1161.57 48.056 1157.99 46.136 1159.52 41.336L1161.57 35.512C1161.83 34.744 1162.27 33.976 1163.11 33.976H1173.41C1174.69 33.976 1175.07 34.68 1175.33 35.576L1177.12 41.336C1178.72 46.392 1177.25 48.056 1177.25 49.528C1177.25 50.488 1177.83 51 1179.04 51H1187.55C1187.55 51 1189.35 51 1189.35 49.528C1189.35 48.056 1187.23 46.328 1185.63 41.336L1175.2 9.464C1174.56 7.48 1174.24 6.2 1173.15 6.2H1167.33C1166.31 6.2 1165.47 6.712 1165.47 7.672C1165.47 9.4 1166.88 9.912 1167.46 11.768L1167.71 12.6L1157.22 41.336C1155.43 46.328 1151.59 48.056 1151.59 49.528ZM1163.23 30.904L1168.8 15.864L1173.6 30.584C1173.73 30.968 1173.86 31.864 1172.96 31.864H1163.68C1163.17 31.864 1163.04 31.416 1163.23 30.904ZM1191.27 49.528C1191.27 49.528 1191.27 51 1193.07 51H1201.58C1202.79 51 1203.37 50.488 1203.37 49.528C1203.37 48.056 1201.58 46.584 1201.58 41.336V31.992C1202.86 32.952 1204.27 33.656 1205.74 34.04C1208.55 37.112 1209.83 43.64 1210.6 47.672C1211.05 49.976 1211.56 51 1212.65 51H1220.71C1221.74 51 1222.63 50.68 1222.63 49.528C1222.63 47.8 1220.91 47.544 1220.14 45.624C1219.37 43.704 1217.58 37.624 1212.52 33.848C1217.71 32.12 1221.42 26.872 1221.42 19.704C1221.42 10.872 1215.79 5.56 1208.75 5.56C1206.7 5.56 1204.84 6.008 1203.11 6.84C1204.14 6.328 1203.69 6.456 1203.24 6.456C1202.6 6.456 1202.22 6.2 1201.58 6.2H1193.07C1191.85 6.2 1191.27 6.712 1191.27 7.672C1191.27 9.144 1193.07 10.616 1193.07 15.864V41.336C1193.07 46.584 1191.27 48.056 1191.27 49.528ZM1201.58 15.864C1201.58 12.152 1201.71 9.144 1206.19 9.144C1210.73 9.144 1212.01 14.008 1212.01 19.704C1212.01 25.336 1210.73 30.84 1206.19 30.84C1204.46 30.84 1202.86 30.008 1201.58 28.728V15.864ZM1223.53 7.8L1225.96 15.928C1226.41 16.632 1226.86 16.952 1227.37 16.952C1227.63 16.952 1227.88 16.888 1228.14 16.696C1229.35 15.8 1229.03 8.312 1235.11 8.312H1237.42C1239.34 8.312 1239.08 11.384 1239.08 15.864V41.336C1239.08 46.584 1237.29 48.056 1237.29 49.528C1237.29 49.528 1237.29 51 1239.08 51H1247.59C1248.81 51 1249.39 50.488 1249.39 49.528C1249.39 48.056 1247.59 46.584 1247.59 41.336V15.864C1247.59 11.384 1247.34 8.312 1249.26 8.312H1251.5C1257.58 8.312 1257.19 15.928 1258.47 16.696C1258.99 17.016 1258.67 16.824 1259.31 16.824C1259.82 16.824 1260.27 16.568 1260.65 15.928L1263.08 7.8C1263.27 7.16 1263.85 6.2 1262.31 6.2H1224.3C1222.76 6.2 1223.34 7.16 1223.53 7.8Z" fill="#E1DBD2"/>
</g>
<path d="M1269.89 104.546C1270.91 102.091 1271.18 99.4818 1271.43 96.846C1271.73 93.7896 1272.14 90.4263 1270.89 87.5027C1268.82 82.6918 1264.3 78.7444 1259.53 76.7902C1245.63 71.0902 1232.87 85.7319 1233.62 99.0042C1234.15 108.472 1240.56 118.83 1251.17 118.049C1256.4 117.665 1261.84 114.22 1265.35 110.519C1267.68 108.057 1269.46 105.047 1270.57 101.847C1271.91 98.0181 1271.55 94.0803 1271.65 90.1108" stroke="#8151FB" stroke-width="3" stroke-linecap="round"/>
<path d="M1256.4 85.2988C1256.76 85.651 1256.87 85.9282 1256.96 86.4659C1257.29 88.3655 1257.14 90.309 1257.22 92.2232" stroke="#8151FB" stroke-width="3" stroke-linecap="round"/>
<path d="M1248.77 87.1768C1249 89.4431 1247.98 91.6242 1247.36 93.749" stroke="#8151FB" stroke-width="3" stroke-linecap="round"/>
<path d="M1243.52 98.2606C1243.45 100.135 1243.72 102.019 1243.97 103.874C1244.21 105.673 1244.54 107.544 1245.11 109.273C1246.08 112.186 1250.28 111.659 1252.61 111.112C1254.31 110.713 1255.96 110.022 1257.49 109.172C1258.12 108.818 1258.89 108.402 1259.42 107.9C1260.93 106.471 1261.76 104.273 1262.55 102.425C1263.2 100.882 1264.19 98.8479 1264.31 97.0962C1264.33 96.8266 1264.15 96.4533 1264.02 96.2229C1263.75 95.7093 1263.4 95.5227 1262.88 95.3374" stroke="#8151FB" stroke-width="3" stroke-linecap="round"/>
<path d="M572.023 76.6777C572.118 76.4543 572.216 76.3019 572.362 76.0863C573.182 74.8736 574.055 73.6984 574.9 72.503C576.281 70.5502 577.527 68.5231 578.732 66.4572C579.335 65.4225 580.524 63.4125 581.052 62.1536C581.334 61.4795 581.33 61.5209 581.13 61.0305C580.747 60.0935 579.734 59.5006 578.861 59.0536C577.914 58.5692 576.984 58.6169 576 58.9938C574.876 59.4244 573.632 60.1177 572.939 61.1295C572.068 62.4024 571.65 63.695 571.545 65.226C571.424 66.9724 571.434 68.7861 571.724 70.5146C571.891 71.5094 572.008 72.52 572.138 73.5202C572.236 74.2722 572.292 74.9967 572.065 75.725" stroke="#8151FB" stroke-width="3" stroke-linecap="round"/>
<path d="M586.975 74.2475C587.344 73.6478 587.736 73.3156 588.359 72.9249C589.429 72.2541 590.669 71.4733 591.907 71.1487C592.862 70.8986 593.977 71.1191 594.954 71.0991C596.356 71.0703 597.738 70.7356 599.139 70.6555C601.074 70.5448 602.899 70.3424 604.8 69.9508C607.858 69.3204 610.666 67.8102 612.589 65.3157C613.475 64.1655 614.22 62.8778 614.271 61.3906C614.317 60.0521 613.63 58.5082 612.864 57.4248C611.593 55.6272 608.905 54.0886 606.752 53.8102C603.965 53.4498 601.027 55.3041 598.981 57.0086C595.69 59.7498 592.925 62.6574 590.838 66.4247C589.968 67.9948 589.153 69.5415 588.572 71.2457C588.243 72.2119 588.111 73.2266 587.587 74.105" stroke="#8151FB" stroke-width="3" stroke-linecap="round"/>
<path d="M241.471 169.23C239.885 173.275 240.232 177.986 240.622 182.208C240.821 184.37 241.064 185.838 241.433 187.849C241.605 188.784 241.519 188.592 241.609 188.291" stroke="#8151FB" stroke-width="3" stroke-linecap="round"/>
<path d="M251.805 169.23C250.279 171.281 249.965 174.229 249.708 176.694C249.562 178.091 249.441 179.504 249.473 180.911C249.514 182.704 249.799 184.465 250.149 186.219C250.262 186.78 250.345 187.347 250.484 187.903C250.592 188.337 250.475 187.71 250.471 187.522C250.418 185.095 250.424 182.673 250.496 180.245C250.577 177.569 250.59 174.802 251.514 172.256C251.677 171.81 251.873 171.364 251.986 170.902C252.039 170.687 252.045 170.357 252.198 170.177C252.272 170.09 252.624 170.087 252.586 170.011" stroke="#8151FB" stroke-width="3" stroke-linecap="round"/>
<path d="M251.438 170.333C252.441 170.256 253.476 170.454 254.469 170.562C255.974 170.726 257.481 170.876 258.985 171.042C261.355 171.303 263.698 171.251 266.081 171.208C267.638 171.18 269.248 171.279 270.789 171.011C271.425 170.901 272.291 170.693 272.693 170.128C273.155 169.478 273.194 168.529 273.228 167.768C273.291 166.358 273.143 165.033 272.912 163.647C272.644 162.042 272.063 160.519 271.445 159.019C270.673 157.146 269.737 155.318 268.592 153.645C266.569 150.688 263.908 148.321 260.909 146.383C259.187 145.271 257.423 144.21 255.599 143.27C253.584 142.232 251.532 141.59 249.315 141.132C246.247 140.498 243.084 140.196 240.002 140.923C238.772 141.213 237.571 141.535 236.363 141.908C235.349 142.221 234.36 142.47 233.414 142.969C229.69 144.935 226.9 147.864 224.677 151.41C223.998 152.493 223.348 153.521 222.799 154.679C222.151 156.045 221.81 157.379 221.559 158.863C221.358 160.052 221.244 161.219 221.265 162.425C221.278 163.137 221.25 163.927 221.516 164.602C221.611 164.844 221.814 164.877 222.018 164.979C222.332 165.136 222.592 165.433 222.886 165.627C223.262 165.877 223.621 166.118 224.057 166.247C224.987 166.523 225.846 166.954 226.759 167.273C228.076 167.734 229.474 167.87 230.836 168.138C232.577 168.48 234.27 169.019 236.052 169.118C236.999 169.171 238.001 169.168 238.94 169.011C239.395 168.934 239.896 169 240.323 168.817" stroke="#8151FB" stroke-width="3" stroke-linecap="round"/>
<path d="M261.496 147.322C260.58 148.379 259.265 149.428 258.95 150.843C258.655 152.167 258.402 153.651 258.7 154.992C258.991 156.305 259.684 157.397 260.894 158.029C261.761 158.482 262.921 158.606 263.882 158.544C265.341 158.45 266.517 157.383 267.707 156.646C268.05 156.433 268.34 156.05 268.704 155.89C268.907 155.802 268.858 155.897 268.753 156.003" stroke="#8151FB" stroke-width="3" stroke-linecap="round"/>
<path d="M239.405 143.281C239.543 143.562 239.602 143.816 239.65 144.133C239.811 145.2 239.961 146.351 239.747 147.422C239.579 148.262 238.968 149.182 238.389 149.797C237.084 151.186 235.205 151.512 233.378 151.252C232.325 151.102 231.463 150.832 230.671 150.109C230.326 149.795 230.033 149.432 229.704 149.103C229.575 148.975 229.479 148.877 229.418 148.703C229.297 148.359 229.051 148.241 228.749 148.011" stroke="#8151FB" stroke-width="3" stroke-linecap="round"/>
<path d="M242.803 162.157C242.863 161.814 242.788 161.522 242.686 161.183C242.386 160.186 241.997 159.113 241.221 158.381C240.714 157.902 239.828 157.641 239.139 157.666C237.059 157.742 235.11 159.172 234.975 161.331C234.885 162.776 235.344 164.387 236.858 164.824C237.721 165.073 238.657 165.163 239.54 164.954C240.585 164.706 241.414 163.878 242.16 163.168" stroke="#8151FB" stroke-width="3" stroke-linecap="round"/>
<path d="M225.434 186.922C225.716 187.859 226.056 188.803 226.242 189.765C226.276 189.938 226.406 190.389 226.255 190.296C225.98 190.126 225.905 189.751 225.756 189.464C225.507 188.985 225.289 188.491 225.062 188.002C224.897 187.648 224.743 187.289 224.579 186.935C224.122 185.943 224.549 186.623 224.389 186.577C224.373 186.573 224.363 186.546 224.387 186.546C224.594 186.546 224.89 187.087 224.964 187.227C225.247 187.764 225.397 188.353 225.565 188.933C226.006 190.456 226.505 191.962 226.941 193.487C227.34 194.884 227.614 196.32 227.817 197.758C227.942 198.645 228.068 199.546 228.003 200.445C227.981 200.754 227.952 201.061 227.931 201.37C227.931 201.375 227.93 201.66 227.978 201.618C228.162 201.454 228.077 200.8 228.081 200.636C228.112 199.502 228.117 198.345 227.952 197.22C227.727 195.677 227.236 194.168 226.75 192.691C226.056 190.58 225.268 188.518 223.987 186.694" stroke="#8151FB" stroke-width="3" stroke-linecap="round"/>
<path d="M218.235 189.284C218.584 189.466 218.684 189.752 218.853 190.122C219.599 191.757 220.246 193.466 220.571 195.239C220.969 197.416 220.979 199.631 220.821 201.831C220.776 202.447 220.714 203.062 220.658 203.677C220.646 203.804 220.634 203.962 220.615 204.094C220.607 204.154 220.613 204.312 220.567 204.271C220.465 204.181 220.596 203.61 220.613 203.488C220.751 202.491 220.904 201.499 220.888 200.487C220.854 198.289 220.429 196.223 219.724 194.154C219.344 193.038 218.953 191.943 218.408 190.897C218.354 190.793 217.946 190.198 218.197 190.198" stroke="#8151FB" stroke-width="3" stroke-linecap="round"/>
<path d="M224.329 186.161C225.612 185.594 226.888 185.012 228.17 184.444C228.909 184.117 229.664 183.817 230.375 183.431C230.793 183.204 231.199 182.959 231.647 182.798C231.856 182.723 232.055 182.673 232.227 182.525C232.659 182.153 232.314 181.551 232.102 181.156C231.323 179.699 230.297 178.385 229.129 177.217C226.738 174.826 223.517 173.956 220.292 173.345C218.694 173.042 217.017 172.981 215.416 173.311C214.701 173.458 214.004 173.667 213.314 173.903C212.672 174.123 211.99 174.3 211.395 174.636C208.968 176.004 206.765 177.711 205.698 180.362C205.161 181.698 204.591 183.015 204.06 184.353C203.449 185.893 202.948 187.459 202.452 189.039C202.159 189.972 201.919 190.903 202.122 191.883C202.244 192.474 202.623 193.192 203.307 193.208C204.058 193.224 204.834 193.138 205.58 193.064C207.156 192.907 208.685 192.785 210.163 192.183C212.764 191.125 215.116 189.509 217.739 188.503C218.085 188.371 218.227 188.328 217.883 188.603C217.625 188.809 217.323 188.962 217.039 189.13C216.542 189.424 216.106 189.807 215.623 190.122C214.904 190.592 214.157 191.056 213.391 191.443C212.407 191.939 211.229 192.503 210.125 192.636C208.682 192.811 207.191 192.795 205.74 192.767C205.349 192.76 204.502 192.825 204.113 192.524C203.709 192.212 203.262 191.792 203.027 191.333C202.34 189.986 202.406 188.224 202.583 186.776C202.815 184.883 203.446 183.029 204.375 181.367C206.221 178.068 209.041 175.087 212.673 173.806C213.983 173.344 215.394 172.96 216.783 172.854C218.347 172.734 219.983 172.82 221.54 172.989C223.063 173.155 224.568 173.56 225.938 174.259C227.587 175.1 228.702 176.5 229.722 178.013C230.053 178.505 230.407 178.998 230.661 179.537C230.835 179.905 230.962 180.292 231.139 180.658C231.28 180.949 231.461 181.224 231.415 181.551" stroke="#8151FB" stroke-width="3" stroke-linecap="round"/>
<path d="M218.116 174.506C217.866 174.707 217.783 174.969 217.642 175.26C217.007 176.565 216.283 177.877 215.062 178.724C214.081 179.405 212.83 179.545 211.704 179.2C210.917 178.96 210.251 178.44 209.556 178.019C209.117 177.754 208.844 177.482 208.555 177.059" stroke="#8151FB" stroke-width="3" stroke-linecap="round"/>
<path d="M212.711 188.865C212.158 187.76 211.368 186.729 210.434 185.919C209.613 185.208 208.583 184.507 207.484 184.887C206.376 185.27 205.542 186.292 204.955 187.265C204.482 188.05 204.263 188.861 204.352 189.775C204.364 189.896 204.356 190.644 204.407 190.237" stroke="#8151FB" stroke-width="3" stroke-linecap="round"/>
<path d="M226.744 176.397C226.433 176.425 226.22 176.681 226.037 176.918C225.504 177.606 225.007 178.482 225.081 179.385C225.129 179.971 225.749 180.659 226.213 180.977C226.613 181.251 227.172 181.189 227.629 181.258C228.326 181.363 228.854 181.459 229.525 181.235" stroke="#8151FB" stroke-width="3" stroke-linecap="round"/>
<path d="M836.988 199.941C837.225 201.749 837.067 203.658 837.073 205.47C837.076 206.268 837.008 207.07 837.087 207.865C837.128 208.281 837.083 208.836 837.429 209.072C837.712 209.264 838.131 208.963 838.411 208.765C838.959 208.377 842.778 204.675 842.904 204.56" stroke="#8151FB" stroke-width="3" stroke-linecap="round"/>
<path d="M843.39 203.264C844.348 203.308 844.785 205.208 845.047 205.848C845.459 206.855 845.76 207.635 846.046 208.667C846.244 209.379 846.297 210.128 846.542 210.828C846.994 212.121 848.678 214.218 850.081 212.737C851.321 211.426 851.212 209.314 851.692 207.694C851.913 206.95 852.871 205.458 853.646 206.568C854.677 208.044 854.626 210.539 854.736 212.25C854.935 215.357 855.189 218.561 856.276 221.507C856.446 221.968 857.332 224.567 858.221 224.262C858.755 224.079 858.89 223.073 858.986 222.633C859.248 221.431 859.367 220.205 859.517 218.986C859.843 216.338 859.997 213.57 860.814 211.017C861.166 209.917 861.785 208.932 862.804 208.342C864.322 207.464 864.811 211.046 866.127 209.927C867.193 209.02 867.768 208.328 869.224 208.189C871.024 208.018 872.173 207.101 873.276 205.722C874.042 204.765 874.794 203.709 875.811 202.998C876.535 202.492 877.496 202.33 878.301 201.994C879.7 201.411 881.221 200.704 881.885 199.293" stroke="#8151FB" stroke-width="3" stroke-linecap="round"/>
<path d="M946 65.5C955.755 59.5 964.427 59.5 974.182 65.5C983.937 71.5 992.608 71.5 1002.36 65.5C1012.12 59.5 1020.79 59.5 1030.55 65.5C1040.3 71.5 1048.97 71.5 1058.73 65.5C1068.48 59.5 1077.15 59.5 1086.91 65.5C1096.66 71.5 1105.34 71.5 1115.09 65.5C1124.85 59.5 1133.52 59.5 1143.27 65.5C1153.03 71.5 1161.7 71.5 1171.45 65.5C1181.21 59.5 1189.88 59.5 1199.64 65.5C1209.39 71.5 1218.06 71.5 1227.82 65.5C1237.57 59.5 1246.24 59.5 1256 65.5" stroke="#7F4FF9" stroke-width="3" stroke-linecap="round" stroke-linejoin="round"/>
<g filter="">
<path d="M543 28.5C542.172 28.5 541.5 29.1716 541.5 30C541.5 30.8284 542.172 31.5 543 31.5V28.5ZM924.061 31.0607C924.646 30.4749 924.646 29.5251 924.061 28.9393L914.515 19.3934C913.929 18.8076 912.979 18.8076 912.393 19.3934C911.808 19.9792 911.808 20.9289 912.393 21.5147L920.879 30L912.393 38.4853C911.808 39.0711 911.808 40.0208 912.393 40.6066C912.979 41.1924 913.929 41.1924 914.515 40.6066L924.061 31.0607ZM543 31.5H923V28.5H543V31.5Z" fill="#E1DBD2"/>
</g>
<g filter="">
<rect x="254.5" y="232.5" width="317" height="44" rx="8.5" stroke="#E1DBD2" stroke-width="3"/>
</g>
<g filter="">
<path d="M276.739 262L277.555 259.384H283.723L284.539 262H289.747L284.371 244.816H276.931L271.531 262H276.739ZM280.531 249.112H280.771L282.739 255.784H278.563L280.531 249.112ZM300.074 249.304C298.466 249.304 297.314 249.928 296.498 251.056H296.258V249.616H291.77V267.52H296.258V260.56H296.498C297.314 261.688 298.514 262.312 300.098 262.312C303.338 262.312 305.57 259.744 305.57 255.808C305.57 251.824 303.362 249.304 300.074 249.304ZM298.562 253.072C300.026 253.072 301.058 254.248 301.058 255.808C301.058 257.368 300.026 258.544 298.562 258.544C297.122 258.544 296.066 257.368 296.066 255.808C296.066 254.248 297.122 253.072 298.562 253.072ZM312.377 262V255.856C312.377 254.248 313.337 253.168 314.705 253.168C315.281 253.168 316.145 253.36 316.865 253.672V249.688C316.481 249.496 315.977 249.376 315.497 249.376C314.249 249.376 313.145 250.144 312.617 251.368H312.353V249.616H307.889V262H312.377ZM321.342 248.272C322.854 248.272 323.91 247.24 323.91 245.8C323.91 244.36 322.854 243.352 321.342 243.352C319.878 243.352 318.798 244.36 318.798 245.8C318.798 247.24 319.878 248.272 321.342 248.272ZM323.598 262V249.616H319.11V262H323.598ZM330.996 262V244.096H326.508V262H330.996ZM348.818 262V244.816H344.57L339.818 248.368V253.12L343.682 250.288H343.922V262H348.818ZM364.277 262V258.544H366.197V254.92H364.277V244.816H357.221L351.149 255.928V258.544H359.189V262H364.277ZM358.949 248.728H359.189V254.92H355.685L358.949 248.728ZM373.833 262.312C374.601 262.312 375.753 262.168 376.545 261.88V258.76C376.161 258.856 375.681 258.928 375.345 258.928C374.457 258.928 373.881 258.28 373.881 257.32V252.808H376.473V249.616H373.881V245.752H370.353L369.537 249.616H367.785V252.808H369.369V257.536C369.369 260.392 371.121 262.312 373.833 262.312ZM383.37 262V255.184C383.37 253.936 384.162 253.072 385.218 253.072C386.274 253.072 386.946 253.912 386.946 255.088V262H391.458V254.272C391.458 251.392 389.658 249.304 387.09 249.304C385.626 249.304 384.57 249.976 383.61 251.392H383.37V244.096H378.882V262H383.37ZM410.048 257.944C411.248 257.944 412.832 257.128 413.888 255.928L412.64 253.024C412.088 253.696 411.176 254.2 410.288 254.2C408.608 254.2 406.4 251.704 404.096 251.704C402.872 251.704 401.264 252.496 400.208 253.72L401.408 256.6C402.008 255.928 402.872 255.448 403.64 255.448C405.416 255.448 407.744 257.944 410.048 257.944ZM431.201 262V244.816H426.953L422.201 248.368V253.12L426.065 250.288H426.305V262H431.201ZM441.021 262.336C445.437 262.336 448.461 259.864 448.461 256C448.461 252.736 446.277 250.552 443.133 250.552C442.677 250.552 442.173 250.6 441.645 250.744L445.917 244.816H440.421L435.501 251.92C434.541 253.24 433.821 254.8 433.821 256.216C433.821 259.912 436.749 262.336 441.021 262.336ZM441.165 258.376C439.821 258.376 438.885 257.488 438.885 256C438.885 254.56 439.821 253.648 441.165 253.648C442.485 253.648 443.397 254.56 443.397 256C443.397 257.488 442.485 258.352 441.165 258.376ZM456.076 262.312C456.844 262.312 457.996 262.168 458.788 261.88V258.76C458.404 258.856 457.924 258.928 457.588 258.928C456.7 258.928 456.124 258.28 456.124 257.32V252.808H458.716V249.616H456.124V245.752H452.596L451.78 249.616H450.028V252.808H451.612V257.536C451.612 260.392 453.364 262.312 456.076 262.312ZM465.613 262V255.184C465.613 253.936 466.405 253.072 467.461 253.072C468.517 253.072 469.189 253.912 469.189 255.088V262H473.701V254.272C473.701 251.392 471.901 249.304 469.333 249.304C467.869 249.304 466.813 249.976 465.853 251.392H465.613V244.096H461.125V262H465.613ZM480.287 261.832C480.719 261.112 480.911 260.464 480.911 259.84C480.911 258.424 479.879 257.416 478.415 257.416C476.951 257.416 475.895 258.424 475.895 259.84C475.895 261.04 476.687 261.976 477.839 262.216L476.375 265.624L477.863 266.2L480.287 261.832ZM502.777 262V258.352H496.297V258.112L499.969 255.184C501.865 253.672 503.233 252.112 503.233 250C503.209 246.784 500.425 244.48 496.609 244.48C492.385 244.48 489.409 247.384 489.577 251.392H493.993C494.041 249.544 495.097 248.44 496.513 248.44C497.761 248.44 498.649 249.28 498.649 250.456C498.649 251.488 497.833 252.184 496.657 253.192L489.505 259.12V262H502.777ZM513.453 262.36C518.181 262.36 521.517 258.736 521.517 253.408C521.517 248.08 518.181 244.48 513.453 244.48C508.725 244.48 505.365 248.08 505.365 253.408C505.365 258.736 508.725 262.36 513.453 262.36ZM513.453 258.04C511.653 258.04 510.453 256.24 510.453 253.408C510.453 250.576 511.653 248.776 513.453 248.776C515.229 248.776 516.453 250.576 516.453 253.408C516.453 256.24 515.229 258.04 513.453 258.04ZM537.076 262V258.352H530.596V258.112L534.268 255.184C536.164 253.672 537.532 252.112 537.532 250C537.508 246.784 534.724 244.48 530.908 244.48C526.684 244.48 523.708 247.384 523.876 251.392H528.292C528.34 249.544 529.396 248.44 530.812 248.44C532.06 248.44 532.948 249.28 532.948 250.456C532.948 251.488 532.132 252.184 530.956 253.192L523.804 259.12V262H537.076ZM546.176 262.36C550.28 262.36 553.232 259.96 553.232 256.624C553.232 253.984 551.36 251.776 548.816 251.248L552.536 247.648V244.816H540.176V248.464H546.728V248.704L543.776 251.536L544.784 254.176C545.096 254.008 545.648 253.888 546.128 253.888C547.496 253.888 548.504 254.872 548.504 256.216C548.504 257.536 547.52 258.544 546.128 258.544C544.688 258.544 543.584 257.344 543.584 255.736H539.024C539.168 259.552 542.168 262.36 546.176 262.36Z" fill="#E1DBD2"/>
</g>
<defs>
<filter id="filter0_f_5110_64" x="236.92" y="62" width="1036.57" height="158" filterUnits="userSpaceOnUse" color-interpolation-filters="sRGB">
<feFlood flood-opacity="0" result="BackgroundImageFix"/>
<feBlend mode="normal" in="SourceGraphic" in2="BackgroundImageFix" result="shape"/>
<feGaussianBlur stdDeviation="7.5" result="effect1_foregroundBlur_5110_64"/>
</filter>
<filter id="filter1_f_5110_64" x="250.92" y="78" width="1008.57" height="130" filterUnits="userSpaceOnUse" color-interpolation-filters="sRGB">
<feFlood flood-opacity="0" result="BackgroundImageFix"/>
<feBlend mode="normal" in="SourceGraphic" in2="BackgroundImageFix" result="shape"/>
<feGaussianBlur stdDeviation="0.5" result="effect1_foregroundBlur_5110_64"/>
</filter>
<filter id="filter2_f_5110_64" x="249.96" y="4.56006" width="269.716" height="48.0798" filterUnits="userSpaceOnUse" color-interpolation-filters="sRGB">
<feFlood flood-opacity="0" result="BackgroundImageFix"/>
<feBlend mode="normal" in="SourceGraphic" in2="BackgroundImageFix" result="shape"/>
<feGaussianBlur stdDeviation="0.5" result="effect1_foregroundBlur_5110_64"/>
</filter>
<filter id="filter3_f_5110_64" x="946.211" y="4.56006" width="318.638" height="48.0798" filterUnits="userSpaceOnUse" color-interpolation-filters="sRGB">
<feFlood flood-opacity="0" result="BackgroundImageFix"/>
<feBlend mode="normal" in="SourceGraphic" in2="BackgroundImageFix" result="shape"/>
<feGaussianBlur stdDeviation="0.5" result="effect1_foregroundBlur_5110_64"/>
</filter>
<filter id="filter4_f_5110_64" x="540.5" y="17.9541" width="385" height="24.0918" filterUnits="userSpaceOnUse" color-interpolation-filters="sRGB">
<feFlood flood-opacity="0" result="BackgroundImageFix"/>
<feBlend mode="normal" in="SourceGraphic" in2="BackgroundImageFix" result="shape"/>
<feGaussianBlur stdDeviation="0.5" result="effect1_foregroundBlur_5110_64"/>
</filter>
<filter id="filter5_f_5110_64" x="252" y="230" width="322" height="49" filterUnits="userSpaceOnUse" color-interpolation-filters="sRGB">
<feFlood flood-opacity="0" result="BackgroundImageFix"/>
<feBlend mode="normal" in="SourceGraphic" in2="BackgroundImageFix" result="shape"/>
<feGaussianBlur stdDeviation="0.5" result="effect1_foregroundBlur_5110_64"/>
</filter>
<filter id="filter6_f_5110_64" x="270.531" y="242.352" width="283.701" height="26.168" filterUnits="userSpaceOnUse" color-interpolation-filters="sRGB">
<feFlood flood-opacity="0" result="BackgroundImageFix"/>
<feBlend mode="normal" in="SourceGraphic" in2="BackgroundImageFix" result="shape"/>
<feGaussianBlur stdDeviation="0.5" result="effect1_foregroundBlur_5110_64"/>
</filter>
</defs>
</svg>
