<svg width="329" height="69" viewBox="0 0 329 69" fill="none" xmlns="http://www.w3.org/2000/svg">
<g filter="url(#filter0_f_7482_559)">
<path d="M139.173 37.5024C139.173 34.5504 138.165 33.7224 138.165 32.8944C138.165 32.0664 139.173 32.0664 139.173 32.0664H154.041C154.905 32.0664 154.689 32.6064 154.473 32.9664L153.105 35.1984C152.889 35.5584 152.637 35.7024 152.349 35.7024C151.989 35.7024 152.169 35.8104 151.881 35.6304C151.161 35.1984 151.377 33.2544 147.957 33.2544H144.897C144.213 33.2544 143.961 34.9824 143.961 37.5024V44.4144C147.561 44.2704 147.417 42.0384 148.461 42.0384C149.037 42.0384 149.037 42.7584 149.037 42.7584V47.2584C149.037 47.9784 148.461 47.9784 148.461 47.9784C147.417 47.9784 147.561 45.7464 143.961 45.6024V51.8304C143.961 54.7824 144.969 55.6104 144.969 56.4384C144.969 57.2664 143.961 57.2664 143.961 57.2664H139.173C138.165 57.2664 138.165 56.4384 138.165 56.4384C138.165 55.6104 139.173 54.7824 139.173 51.8304V37.5024ZM149.977 56.4384C149.977 55.6104 152.137 54.6384 153.145 51.8304L159.049 35.6664L158.905 35.1984C158.581 34.1544 157.789 33.8664 157.789 32.8944C157.789 32.3544 158.257 32.0664 158.833 32.0664H162.109C162.721 32.0664 162.901 32.7864 163.261 33.9024L169.129 51.8304C170.029 54.6384 171.217 55.6104 171.217 56.4384C171.217 57.2664 170.209 57.2664 170.209 57.2664H165.421C164.737 57.2664 164.413 56.9784 164.413 56.4384C164.413 55.6104 165.241 54.6744 164.341 51.8304L163.333 48.5904C163.189 48.0864 162.973 47.6904 162.253 47.6904H156.457C155.989 47.6904 155.737 48.1224 155.593 48.5544L154.441 51.8304C153.577 54.5304 155.593 55.6104 155.593 56.4384C155.593 57.2664 154.585 57.2664 154.585 57.2664H150.985C150.301 57.2664 149.977 56.9784 149.977 56.4384ZM156.529 45.9624C156.421 46.2504 156.493 46.5024 156.781 46.5024H162.001C162.505 46.5024 162.433 45.9984 162.361 45.7824L159.661 37.5024L156.529 45.9624ZM181.183 57.6264C174.919 57.6264 171.211 52.0104 171.211 44.5944C171.211 37.1784 174.919 31.7064 181.183 31.7064C187.447 31.7064 191.155 37.1784 191.155 44.5944C191.155 51.1824 188.239 56.3304 183.235 57.4104C183.811 58.2024 184.783 59.2824 185.971 60.1104C187.879 61.4424 190.399 61.0824 191.047 63.0984C191.551 64.6464 190.399 66.2664 188.851 66.2664C188.743 66.2664 188.599 66.2664 188.491 66.2664C186.295 66.2664 184.675 64.7184 183.091 61.0824L181.759 57.6264H181.183ZM181.183 32.8944C178.951 32.8944 176.503 37.1784 176.503 44.5944C176.503 52.0104 178.951 56.4384 181.183 56.4384C183.415 56.4384 185.863 52.0104 185.863 44.5944C185.863 37.1784 183.415 32.8944 181.183 32.8944Z" fill="#E1DBD2"/>
</g>
<path d="M139.173 37.5024C139.173 34.5504 138.165 33.7224 138.165 32.8944C138.165 32.0664 139.173 32.0664 139.173 32.0664H154.041C154.905 32.0664 154.689 32.6064 154.473 32.9664L153.105 35.1984C152.889 35.5584 152.637 35.7024 152.349 35.7024C151.989 35.7024 152.169 35.8104 151.881 35.6304C151.161 35.1984 151.377 33.2544 147.957 33.2544H144.897C144.213 33.2544 143.961 34.9824 143.961 37.5024V44.4144C147.561 44.2704 147.417 42.0384 148.461 42.0384C149.037 42.0384 149.037 42.7584 149.037 42.7584V47.2584C149.037 47.9784 148.461 47.9784 148.461 47.9784C147.417 47.9784 147.561 45.7464 143.961 45.6024V51.8304C143.961 54.7824 144.969 55.6104 144.969 56.4384C144.969 57.2664 143.961 57.2664 143.961 57.2664H139.173C138.165 57.2664 138.165 56.4384 138.165 56.4384C138.165 55.6104 139.173 54.7824 139.173 51.8304V37.5024ZM149.977 56.4384C149.977 55.6104 152.137 54.6384 153.145 51.8304L159.049 35.6664L158.905 35.1984C158.581 34.1544 157.789 33.8664 157.789 32.8944C157.789 32.3544 158.257 32.0664 158.833 32.0664H162.109C162.721 32.0664 162.901 32.7864 163.261 33.9024L169.129 51.8304C170.029 54.6384 171.217 55.6104 171.217 56.4384C171.217 57.2664 170.209 57.2664 170.209 57.2664H165.421C164.737 57.2664 164.413 56.9784 164.413 56.4384C164.413 55.6104 165.241 54.6744 164.341 51.8304L163.333 48.5904C163.189 48.0864 162.973 47.6904 162.253 47.6904H156.457C155.989 47.6904 155.737 48.1224 155.593 48.5544L154.441 51.8304C153.577 54.5304 155.593 55.6104 155.593 56.4384C155.593 57.2664 154.585 57.2664 154.585 57.2664H150.985C150.301 57.2664 149.977 56.9784 149.977 56.4384ZM156.529 45.9624C156.421 46.2504 156.493 46.5024 156.781 46.5024H162.001C162.505 46.5024 162.433 45.9984 162.361 45.7824L159.661 37.5024L156.529 45.9624ZM181.183 57.6264C174.919 57.6264 171.211 52.0104 171.211 44.5944C171.211 37.1784 174.919 31.7064 181.183 31.7064C187.447 31.7064 191.155 37.1784 191.155 44.5944C191.155 51.1824 188.239 56.3304 183.235 57.4104C183.811 58.2024 184.783 59.2824 185.971 60.1104C187.879 61.4424 190.399 61.0824 191.047 63.0984C191.551 64.6464 190.399 66.2664 188.851 66.2664C188.743 66.2664 188.599 66.2664 188.491 66.2664C186.295 66.2664 184.675 64.7184 183.091 61.0824L181.759 57.6264H181.183ZM181.183 32.8944C178.951 32.8944 176.503 37.1784 176.503 44.5944C176.503 52.0104 178.951 56.4384 181.183 56.4384C183.415 56.4384 185.863 52.0104 185.863 44.5944C185.863 37.1784 183.415 32.8944 181.183 32.8944Z" fill="#E1DBD2"/>
<line x1="1.56592" y1="47.1101" x2="116.316" y2="47.1101" stroke="#E1DBD2" stroke-width="1.6875" stroke-linecap="round"/>
<line x1="213.003" y1="47.1101" x2="327.753" y2="47.1101" stroke="#E1DBD2" stroke-width="1.6875" stroke-linecap="round"/>
<path d="M205.391 7.43807C205.489 6.9172 206.386 7.0022 206.768 7.02559C208.34 7.1217 208.813 7.44673 209.916 8.58411C211.655 10.3792 211.554 13.3054 209.523 14.7693C207.772 16.0321 204.415 15.0258 202.447 14.9574C200.092 14.8754 201.255 18.2739 200.18 19.5377" stroke="#E1DBD2" stroke-width="1.86047" stroke-linecap="round"/>
<path d="M198.438 23.6531C198.815 23.6292 198.561 23.2496 198.814 23.3725C199.362 23.638 199.574 23.4516 199.721 22.9864" stroke="#E1DBD2" stroke-width="1.86047" stroke-linecap="round"/>
<path d="M187.394 9.31783C187.497 8.99014 188.761 8.41968 189.085 8.28982C190.43 7.75065 192.701 8.67916 193.886 9.20439C195.322 9.84124 194.916 12.2318 194.22 13.4333C193.523 14.6381 191.394 14.4982 190.531 15.7741C189.61 17.136 189.813 18.4869 189.727 19.892" stroke="#E1DBD2" stroke-width="1.86047" stroke-linecap="round"/>
<path d="M190.551 22.6741C190.529 23.0226 190.57 23.0693 190.288 22.9064" stroke="#E1DBD2" stroke-width="1.86047" stroke-linecap="round"/>
<path d="M216.092 19.2692C217.509 19.3558 218.724 19.9182 218.681 21.6076C218.638 23.2829 218.388 24.6645 216.712 25.3783C214.814 26.1862 212.144 24.1454 210.399 25.2681C209.818 25.642 209.222 26.2901 209.162 26.9862C209.124 27.4363 209.265 28.0806 208.836 28.2633" stroke="#E1DBD2" stroke-width="1.86047" stroke-linecap="round"/>
<path d="M206.923 31.1268C206.88 31.3531 206.832 31.2858 206.66 31.3591" stroke="#E1DBD2" stroke-width="1.86047" stroke-linecap="round"/>
<defs>
<filter id="filter0_f_7482_559" x="135.915" y="29.4564" width="57.8867" height="39.06" filterUnits="userSpaceOnUse" color-interpolation-filters="sRGB">
<feFlood flood-opacity="0" result="BackgroundImageFix"/>
<feBlend mode="normal" in="SourceGraphic" in2="BackgroundImageFix" result="shape"/>
<feGaussianBlur stdDeviation="1.125" result="effect1_foregroundBlur_7482_559"/>
</filter>
</defs>
</svg>
