<svg width="331" height="55" viewBox="0 0 331 55" fill="none" xmlns="http://www.w3.org/2000/svg">
<path d="M11.1574 40.5036C5.31525 40.5036 1.28621 38.4387 1.28621 35.0644C1.28621 33.8053 2.39419 32.3448 4.35835 32.3448C8.03486 32.3448 7.48086 38.8416 11.107 38.8416C15.4886 38.8416 15.9922 35.4673 15.9922 33.7046C15.9922 24.74 1.38693 23.078 1.38693 12.955C1.38693 7.76765 6.82614 4.24223 13.0712 4.24223C19.4169 4.24223 22.9423 6.30712 22.9423 9.68144C22.9423 10.9405 21.8343 12.401 19.8702 12.401C16.1937 12.401 17.2513 5.90421 13.1215 5.90421C8.73994 5.90421 8.23631 9.3289 8.23631 11.0916C8.23631 20.0562 22.9927 21.97 22.9927 32.093C22.9927 37.2804 17.4024 40.5036 11.1574 40.5036ZM24.5004 5.90421C24.5004 5.14877 24.9537 4.74586 25.9106 4.74586H37.2423C42.7822 4.74586 47.2142 8.52309 47.2142 13.9119C47.2142 17.2863 45.7033 20.308 43.2355 22.1715C46.1565 23.6824 48.2214 26.5027 48.2214 29.9778C48.2214 35.417 43.7895 40 38.2495 40H25.9106C24.5004 40 24.5004 38.8416 24.5004 38.8416C24.5004 37.6833 25.9106 36.5249 25.9106 32.3952V12.3507C25.9106 8.22091 24.5004 7.06256 24.5004 5.90421ZM32.6089 32.3952C32.6089 34.8126 32.5082 37.1797 33.465 37.1797H36.235C39.8108 37.1797 40.8181 32.9492 40.8181 29.9778C40.8181 27.0567 39.3072 23.632 35.7314 23.632C35.5803 23.632 35.4292 23.632 35.2278 23.632C34.0694 23.632 32.6089 23.6824 32.6089 24.8911V32.3952ZM33.465 7.56619C32.5082 7.56619 32.6089 9.93326 32.6089 12.3507V19.9051C32.6089 21.0131 34.1198 21.1139 35.127 21.1139C35.3788 21.1139 35.5803 21.1139 35.7314 21.1139C39.3072 21.1139 39.8108 16.8834 39.8108 13.9119C39.8108 10.9909 38.8035 7.56619 35.2278 7.56619H33.465ZM49.7311 22.6247C49.7311 10.1347 56.7316 4.24223 64.9911 4.24223C69.272 4.24223 74.1068 6.10567 74.1068 9.47999C74.1068 10.7391 72.9989 12.1996 71.0347 12.1996C67.3582 12.1996 67.7107 5.90421 64.9911 5.90421C62.8759 5.90421 57.1345 10.1347 57.1345 22.6247C57.1345 34.5608 62.7248 38.8416 65.4948 38.8416C67.9626 38.8416 69.4734 36.4746 70.0274 34.2586C70.3296 33.0499 71.1858 32.5966 72.042 32.5966C73.2507 32.5966 74.3587 33.5535 74.1068 34.9637C73.7543 36.7768 70.8332 40.5036 65.4948 40.5036C56.7316 40.5036 49.7311 34.5104 49.7311 22.6247ZM77.0606 12.3507C77.0606 8.22091 75.6504 7.06256 75.6504 5.90421C75.6504 4.74586 77.0606 4.74586 77.0606 4.74586H83.7588C85.169 4.74586 85.169 5.90421 85.169 5.90421C85.169 7.06256 83.7588 8.22091 83.7588 12.3507V32.3952C83.7588 35.9206 84.1114 38.338 85.0683 38.338H90.4068C95.4934 38.338 96.8029 33.6039 98.4649 33.6039C98.6159 33.6039 98.767 33.6543 98.9181 33.755C100.076 34.4097 97.4072 38.9927 97.3569 39.0431C96.9036 39.8489 95.5438 40 94.7884 40H77.0606C75.6504 40 75.6504 38.8416 75.6504 38.8416C75.6504 37.6833 77.0606 36.5249 77.0606 32.3952V12.3507ZM116.044 40C113.274 40 112.468 36.0717 114.432 33.3017C119.922 25.5458 128.534 22.2218 128.534 12.8543C128.534 9.12745 127.174 5.90421 125.059 5.90421C121.634 5.90421 120.728 13.6098 117.051 13.6098C114.734 13.6098 113.929 11.9478 113.929 10.6887C113.929 7.31438 118.008 4.24223 125.059 4.24223C131.505 4.24223 135.937 7.16329 135.937 12.955C135.937 23.1787 126.117 24.4378 120.98 33.3017H126.57C131.656 33.3017 132.966 28.5676 134.628 28.5676C134.779 28.5676 134.93 28.618 135.081 28.7187C136.24 29.3734 133.57 38.9927 133.52 39.0431C133.067 39.8489 131.707 40 130.951 40H116.044ZM149.864 40.5036C141.1 40.5036 137.424 32.3448 137.424 21.97C137.424 11.5952 141.1 4.24223 149.864 4.24223C158.627 4.24223 162.303 11.5952 162.303 21.97C162.303 32.3448 158.627 40.5036 149.864 40.5036ZM144.827 21.97C144.827 32.3448 146.741 38.8416 149.864 38.8416C152.986 38.8416 154.9 32.3448 154.9 21.97C154.9 11.5952 152.986 5.90421 149.864 5.90421C146.741 5.90421 144.827 11.5952 144.827 21.97ZM166.555 40C163.785 40 162.979 36.0717 164.943 33.3017C170.432 25.5458 179.045 22.2218 179.045 12.8543C179.045 9.12745 177.685 5.90421 175.57 5.90421C172.145 5.90421 171.238 13.6098 167.562 13.6098C165.245 13.6098 164.439 11.9478 164.439 10.6887C164.439 7.31438 168.519 4.24223 175.57 4.24223C182.016 4.24223 186.448 7.16329 186.448 12.955C186.448 23.1787 176.627 24.4378 171.49 33.3017H177.08C182.167 33.3017 183.477 28.5676 185.138 28.5676C185.29 28.5676 185.441 28.618 185.592 28.7187C186.75 29.3734 184.081 38.9927 184.03 39.0431C183.577 39.8489 182.217 40 181.462 40H166.555ZM188.891 28.8698C187.632 28.8698 187.834 27.8121 188.237 27.2078L201.482 8.372L204.856 5.60204C205.36 5.19913 206.065 4.84659 206.72 4.84659C207.526 4.84659 208.18 5.35022 208.18 7.0122V27.2078H209.49C210.447 27.2078 210.447 28.8698 209.49 28.8698H208.18V32.3952C208.18 36.5249 209.591 37.6833 209.591 38.8416C209.591 40 208.18 40 208.18 40H201.482C200.525 40 200.072 39.5971 200.072 38.8416C200.072 37.6833 201.482 36.5249 201.482 32.3952V28.8698H188.891ZM190.251 27.2078H201.482V11.2931L190.251 27.2078Z" fill="#E1DBD2"/>
<path d="M236 20.6943C235.172 20.6943 234.5 21.3659 234.5 22.1943C234.5 23.0228 235.172 23.6943 236 23.6943V20.6943ZM330.061 23.255C330.646 22.6692 330.646 21.7195 330.061 21.1337L320.515 11.5877C319.929 11.0019 318.979 11.0019 318.393 11.5877C317.808 12.1735 317.808 13.1233 318.393 13.7091L326.879 22.1943L318.393 30.6796C317.808 31.2654 317.808 32.2152 318.393 32.8009C318.979 33.3867 319.929 33.3867 320.515 32.8009L330.061 23.255ZM236 23.6943H329V20.6943H236V23.6943Z" fill="#E1DBD2"/>
</svg>
