<svg width="338" height="56" viewBox="0 0 338 56" fill="none" xmlns="http://www.w3.org/2000/svg">
<path d="M24.5459 38.998C29.5314 38.998 33.9943 36.4248 33.9943 32.2836C33.9943 24.2023 22.214 22.6744 22.214 15.5178C22.214 14.1106 22.616 11.3766 26.1139 11.3766C29.4108 11.3766 28.5665 16.5632 31.5015 16.5632C33.0696 16.5632 33.9541 15.3972 33.9541 14.3921C33.9541 11.6983 31.1397 10.0498 26.0737 10.0498C21.0882 10.0498 16.746 12.8642 16.746 17.0054C16.746 25.0868 28.4057 26.4136 28.4057 33.5702C28.4057 34.9774 28.0036 37.6712 24.5057 37.6712C21.6109 37.6712 22.0532 32.4847 19.1181 32.4847C17.5501 32.4847 16.6656 33.6506 16.6656 34.6558C16.6656 37.3496 19.8821 38.998 24.5459 38.998ZM36.3237 24.6445V42.5763C36.3237 45.8732 35.1979 46.7979 35.1979 47.7227C35.1979 47.7227 35.1979 48.6474 36.3237 48.6474H41.6711C42.435 48.6474 42.7968 48.3258 42.7968 47.7227C42.7968 46.7979 41.6711 45.8732 41.6711 42.5763V37.1083C42.9577 38.2743 44.4855 38.998 46.1741 38.998C50.5968 38.998 54.1349 34.0929 54.1349 28.5847C54.1349 23.0363 50.5968 18.091 46.1741 18.091C44.4855 18.091 42.9577 18.8147 41.6711 20.0209C41.6711 18.8549 41.1886 18.493 40.5855 18.493C40.0628 18.493 39.4196 18.8147 39.0175 19.1363L36.3237 21.3477C34.7959 22.594 35.0773 23.3579 36.3237 24.6445ZM44.5659 20.3425C47.4205 20.3425 48.2246 25.0064 48.2246 28.5847C48.2246 32.1228 47.4205 36.7465 44.5659 36.7465C43.4803 36.7465 42.4752 36.063 41.6711 35.0578V22.0714C42.4752 21.026 43.4803 20.3425 44.5659 20.3425ZM56.4659 24.6043V32.5249C56.4659 35.8217 55.3401 36.7465 55.3401 37.6712C55.3401 38.2743 55.702 38.5959 56.4659 38.5959H61.8132C61.8132 38.5959 62.939 38.5959 62.939 37.6712C62.939 36.7465 61.8132 35.8217 61.8132 32.5249V22.6744C63.1802 21.227 64.7483 20.2621 65.874 20.2621C67.6431 20.2621 67.3616 24.5239 70.2967 24.5239C71.8647 24.5239 72.7492 23.3579 72.7492 22.3528C72.7492 19.659 69.3317 18.091 66.839 18.091C64.8287 18.091 63.1802 19.0559 61.8132 20.4229V20.2219C61.8132 18.8951 61.2906 18.493 60.6473 18.493C60.1246 18.493 59.5215 18.7745 59.1597 19.0961L56.4659 21.3075C54.9381 22.5538 56.4659 22.7951 56.4659 24.6043ZM75.0768 24.7652V32.5249C75.0768 35.8217 73.951 36.7465 73.951 37.6712C73.951 37.6712 73.951 38.5959 75.0768 38.5959H80.4241C80.4241 38.5959 81.5499 38.5959 81.5499 37.6712C81.5499 36.7465 80.4241 35.8217 80.4241 32.5249V20.3827C80.4241 18.9353 79.9417 18.493 79.3788 18.493C78.8159 18.493 78.1726 18.8951 77.7705 19.257L75.0768 21.4683C73.5489 22.7147 73.8304 23.4786 75.0768 24.7652ZM74.1118 12.1405C74.1118 14.191 75.7201 15.7993 77.7705 15.7993C79.7808 15.7993 81.3891 14.191 81.3891 12.1405C81.3891 10.1302 79.7808 8.4416 77.7705 8.4416C75.7201 8.4416 74.1118 10.1302 74.1118 12.1405ZM83.8718 24.6043V32.5249C83.8718 35.8217 82.746 36.7465 82.746 37.6712C82.746 38.2743 83.1079 38.5959 83.8718 38.5959H89.2192C89.2192 38.5959 90.3449 38.5959 90.3449 37.6712C90.3449 36.7465 89.2192 35.8217 89.2192 32.5249V23.4384C90.5057 21.5487 92.1542 20.2621 93.4408 20.2621C95.6923 20.2621 95.5717 22.7951 95.451 26.494C95.2902 30.9971 94.6067 34.0929 94.5263 36.5052C94.4861 37.9929 95.1294 38.5959 95.8129 38.5959H100.879C101.522 38.5959 102.045 38.2743 102.045 37.6712C102.045 36.5857 101.04 36.3042 100.798 35.098C100.477 33.4496 100.236 24.8054 99.8737 22.7951C99.351 19.8198 97.0593 18.091 94.4861 18.091C92.2748 18.091 90.5861 19.3776 89.2192 21.0662V20.2219C89.2192 18.8951 88.6965 18.493 88.0532 18.493C87.5305 18.493 86.9274 18.7745 86.5656 19.0961L83.8718 21.3075C82.344 22.5538 83.8718 22.7951 83.8718 24.6043ZM101.562 44.8681C101.562 47.5618 104.739 48.6474 110.488 48.6474C113.061 48.6474 122.268 47.7629 122.268 41.2495C122.268 38.5959 120.62 34.897 112.096 34.897C110.81 34.897 109.724 34.9372 108.84 34.9372C107.473 34.9372 106.709 34.8568 106.829 34.4547C106.99 33.9321 107.231 33.2888 107.432 32.8063C108.96 33.4094 110.609 33.6104 112.056 33.6104C115.835 33.6104 121.183 32.2032 121.183 25.9311C121.183 19.86 116.197 18.2116 112.458 18.091C112.579 17.4879 113.383 14.5931 115.876 14.5931C118.087 14.5931 116.961 18.8951 119.896 18.8951C121.464 18.8951 122.349 17.7291 122.349 16.724C122.349 14.0302 118.891 12.8642 116.8 12.8642C112.297 12.8642 111.252 17.4477 111.091 18.1312C107.432 18.3724 102.929 20.1817 102.929 25.9311C102.929 29.1074 104.296 31.0373 106.146 32.163C106.025 32.4043 105.663 33.0878 105.141 34.2537C104.377 35.9826 105.342 37.5506 108.035 37.832C112.9 38.3547 116.237 39.199 116.237 42.3351C116.237 44.6268 114.83 47.3206 110.488 47.3206C106.146 47.3206 106.95 42.6969 104.015 42.6969C102.447 42.6969 101.562 43.8629 101.562 44.8681ZM112.056 19.4178C113.343 19.4178 115.273 20.4631 115.273 25.9311C115.273 31.3991 113.343 32.2836 112.056 32.2836C110.769 32.2836 108.84 31.3991 108.84 25.9311C108.84 20.4631 110.769 19.4178 112.056 19.4178ZM133.592 11.3766C133.592 12.3014 134.718 13.2261 134.718 16.523V32.5249C134.718 35.8217 133.592 36.7465 133.592 37.6712C133.592 37.6712 133.592 38.5959 134.718 38.5959H141.473C148.388 38.5959 153.655 34.2537 153.655 24.7249C153.655 14.7539 148.388 10.4519 141.473 10.4519H134.718C133.954 10.4519 133.592 10.7735 133.592 11.3766ZM140.065 32.5249V16.523C140.065 13.7086 139.945 11.7787 140.709 11.7787H141.473C143.161 11.7787 147.745 14.7539 147.745 24.7249C147.745 34.2537 143.282 37.2692 141.473 37.2692H140.709C139.945 37.2692 140.065 35.3393 140.065 32.5249ZM164.402 38.998C168.262 38.998 170.795 36.264 171.317 34.5754C171.679 33.4094 170.754 32.5651 169.789 32.5651C169.146 32.5651 168.463 32.9269 168.141 33.8115C167.457 35.6609 166.131 37.6712 164.402 37.6712C162.995 37.6712 160.783 35.2589 160.783 28.9868H165.005C168.422 28.9868 171.639 28.2631 171.639 24.3229C171.639 19.7796 167.779 18.091 164.12 18.091C158.21 18.091 154.873 21.9105 154.873 28.1826C154.873 34.0527 158.21 38.998 164.402 38.998ZM164.12 19.4178C165.286 19.4178 165.729 21.9105 165.729 24.1621C165.729 25.7703 165.286 27.66 163.397 27.66H160.823C161.065 22.2322 162.954 19.4178 164.12 19.4178ZM180.535 38.998C183.51 38.998 188.576 37.631 188.576 33.4898C188.576 28.2229 178.404 26.6548 178.404 22.3126C178.404 20.9054 179.409 19.4178 180.897 19.4178C183.792 19.4178 183.148 25.0064 186.083 25.0064C187.651 25.0064 188.536 23.8404 188.536 22.8353C188.536 20.1415 185.521 18.091 180.857 18.091C177.881 18.091 172.936 19.659 172.936 23.8002C172.936 29.0672 182.988 30.4342 182.988 34.7764C182.988 36.1836 181.982 37.6712 180.495 37.6712C177.6 37.6712 178.243 32.0826 175.308 32.0826C173.74 32.0826 172.856 33.2486 172.856 34.2537C172.856 36.9475 175.871 38.998 180.535 38.998ZM190.904 24.7652V32.5249C190.904 35.8217 189.778 36.7465 189.778 37.6712C189.778 37.6712 189.778 38.5959 190.904 38.5959H196.251C196.251 38.5959 197.377 38.5959 197.377 37.6712C197.377 36.7465 196.251 35.8217 196.251 32.5249V20.3827C196.251 18.9353 195.769 18.493 195.206 18.493C194.643 18.493 194 18.8951 193.598 19.257L190.904 21.4683C189.376 22.7147 189.658 23.4786 190.904 24.7652ZM189.939 12.1405C189.939 14.191 191.547 15.7993 193.598 15.7993C195.608 15.7993 197.216 14.191 197.216 12.1405C197.216 10.1302 195.608 8.4416 193.598 8.4416C191.547 8.4416 189.939 10.1302 189.939 12.1405ZM197.287 44.8681C197.287 47.5618 200.463 48.6474 206.212 48.6474C208.786 48.6474 217.993 47.7629 217.993 41.2495C217.993 38.5959 216.344 34.897 207.821 34.897C206.534 34.897 205.448 34.9372 204.564 34.9372C203.197 34.9372 202.433 34.8568 202.554 34.4547C202.714 33.9321 202.956 33.2888 203.157 32.8063C204.685 33.4094 206.333 33.6104 207.78 33.6104C211.56 33.6104 216.907 32.2032 216.907 25.9311C216.907 19.86 211.922 18.2116 208.182 18.091C208.303 17.4879 209.107 14.5931 211.6 14.5931C213.811 14.5931 212.686 18.8951 215.621 18.8951C217.189 18.8951 218.073 17.7291 218.073 16.724C218.073 14.0302 214.615 12.8642 212.525 12.8642C208.022 12.8642 206.976 17.4477 206.815 18.1312C203.157 18.3724 198.654 20.1817 198.654 25.9311C198.654 29.1074 200.021 31.0373 201.87 32.163C201.75 32.4043 201.388 33.0878 200.865 34.2537C200.101 35.9826 201.066 37.5506 203.76 37.832C208.625 38.3547 211.962 39.199 211.962 42.3351C211.962 44.6268 210.555 47.3206 206.212 47.3206C201.87 47.3206 202.674 42.6969 199.739 42.6969C198.171 42.6969 197.287 43.8629 197.287 44.8681ZM207.78 19.4178C209.067 19.4178 210.997 20.4631 210.997 25.9311C210.997 31.3991 209.067 32.2836 207.78 32.2836C206.494 32.2836 204.564 31.3991 204.564 25.9311C204.564 20.4631 206.494 19.4178 207.78 19.4178ZM220.391 24.6043V32.5249C220.391 35.8217 219.265 36.7465 219.265 37.6712C219.265 38.2743 219.627 38.5959 220.391 38.5959H225.738C225.738 38.5959 226.864 38.5959 226.864 37.6712C226.864 36.7465 225.738 35.8217 225.738 32.5249V23.4384C227.025 21.5487 228.673 20.2621 229.96 20.2621C232.211 20.2621 232.091 22.7951 231.97 26.494C231.809 30.9971 231.126 34.0929 231.045 36.5052C231.005 37.9929 231.649 38.5959 232.332 38.5959H237.398C238.041 38.5959 238.564 38.2743 238.564 37.6712C238.564 36.5857 237.559 36.3042 237.318 35.098C236.996 33.4496 236.755 24.8054 236.393 22.7951C235.87 19.8198 233.578 18.091 231.005 18.091C228.794 18.091 227.105 19.3776 225.738 21.0662V20.2219C225.738 18.8951 225.216 18.493 224.572 18.493C224.05 18.493 223.447 18.7745 223.085 19.0961L220.391 21.3075C218.863 22.5538 220.391 22.7951 220.391 24.6043ZM239.761 33.2486C239.761 36.1032 241.932 39.0382 245.389 39.0382C246.877 39.0382 248.606 38.3949 249.772 37.5104C249.973 38.2743 250.455 38.5959 250.938 38.5959H256.004C256.647 38.5959 257.17 38.2743 257.17 37.6712C257.17 36.5857 256.165 36.3042 255.923 35.098C255.602 33.4496 255.361 24.8054 254.999 22.7951C254.476 19.8198 252.707 18.091 248.164 18.091C243.339 18.091 239.962 19.659 239.962 22.3528C239.962 23.3579 240.565 24.5239 242.133 24.5239C245.068 24.5239 246.395 19.4178 248.164 19.4178C249.531 19.4178 250.295 21.3879 250.496 23.961C249.852 24.4033 249.008 24.926 248.204 25.2878C244.425 26.9765 239.761 28.062 239.761 33.2486ZM248.727 27.0971C249.49 26.5744 250.134 26.1321 250.576 25.8105V26.494C250.415 30.5146 249.893 33.4094 249.691 35.7011C249.088 36.063 248.485 36.3444 247.762 36.3444C245.952 36.3444 245.671 34.0527 245.671 32.8867C245.671 29.6703 247.36 28.062 248.727 27.0971ZM257.445 19.8198H260.26V29.9919C260.26 32.7661 259.697 38.5959 265.768 38.5959C269.748 38.5959 271.356 35.8217 271.517 34.1331C271.638 32.8867 270.753 32.2032 269.829 32.2032C269.025 32.2032 268.22 32.7259 268.14 33.8115C268.019 35.7011 267.899 37.1887 266.813 37.1887C265.607 37.1887 265.607 31.6805 265.607 29.9919V19.8198H268.421C269.346 19.8198 269.346 18.493 268.421 18.493H265.607V12.1807C265.607 10.8539 265.084 10.4519 264.441 10.4519C263.918 10.4519 263.315 10.7333 262.953 11.055L260.26 13.2663C258.732 14.5127 259.013 15.2766 260.26 16.5632V18.493H257.445C256.521 18.493 256.521 19.8198 257.445 19.8198ZM273.907 14.5529V32.5249C273.907 35.8217 272.781 36.7465 272.781 37.6712C272.781 38.2743 273.143 38.5959 273.907 38.5959H279.254C279.254 38.5959 280.38 38.5959 280.38 37.6712C280.38 36.7465 279.254 35.8217 279.254 32.5249V23.4384C280.541 21.5487 282.189 20.2621 283.476 20.2621C285.728 20.2621 285.607 22.7951 285.486 26.494C285.325 30.9971 284.642 34.0929 284.562 36.5052C284.521 37.9929 285.165 38.5959 285.848 38.5959H290.914C291.557 38.5959 292.08 38.2743 292.08 37.6712C292.08 36.5857 291.075 36.3042 290.834 35.098C290.512 33.4496 290.271 24.8054 289.909 22.7951C289.386 19.8198 287.095 18.091 284.521 18.091C282.31 18.091 280.621 19.3776 279.254 21.0662V10.1704C279.254 8.84366 278.732 8.4416 278.088 8.4416C277.566 8.4416 276.963 8.72304 276.601 9.04468L273.907 11.256C272.379 12.5024 273.907 12.7436 273.907 14.5529ZM302.806 38.998C308.997 38.998 312.334 34.8166 312.334 28.5445C312.334 22.2724 308.997 18.091 302.806 18.091C296.614 18.091 293.277 22.2724 293.277 28.5445C293.277 34.8166 296.614 38.998 302.806 38.998ZM299.187 28.5445C299.187 22.2724 301.117 19.4178 302.806 19.4178C304.494 19.4178 306.424 22.2724 306.424 28.5445C306.424 34.8166 304.494 37.6712 302.806 37.6712C301.117 37.6712 299.187 34.8166 299.187 28.5445ZM314.663 24.6043V32.5249C314.663 35.8217 313.537 36.7465 313.537 37.6712C313.537 38.2743 313.899 38.5959 314.663 38.5959H320.01C320.01 38.5959 321.136 38.5959 321.136 37.6712C321.136 36.7465 320.01 35.8217 320.01 32.5249V23.4384C321.296 21.5487 322.945 20.2621 324.231 20.2621C326.483 20.2621 326.362 22.7951 326.242 26.494C326.081 30.9971 325.397 34.0929 325.317 36.5052C325.277 37.9929 325.92 38.5959 326.604 38.5959H331.67C332.313 38.5959 332.836 38.2743 332.836 37.6712C332.836 36.5857 331.83 36.3042 331.589 35.098C331.268 33.4496 331.026 24.8054 330.664 22.7951C330.142 19.8198 327.85 18.091 325.277 18.091C323.066 18.091 321.377 19.3776 320.01 21.0662V20.2219C320.01 18.8951 319.487 18.493 318.844 18.493C318.321 18.493 317.718 18.7745 317.356 19.0961L314.663 21.3075C313.135 22.5538 314.663 22.7951 314.663 24.6043Z" fill="#E1DBD2"/>
<path d="M19.1181 33.1131C19.8418 33.1131 20.3913 33.3811 20.7666 33.9172C21.1686 34.4533 21.5171 35.0564 21.8119 35.7265C22.1336 36.3698 22.482 36.9594 22.8573 37.4955C23.2325 38.0316 23.782 38.2996 24.5057 38.2996C25.3902 38.2996 26.0871 38.1522 26.5964 37.8574C27.1057 37.5625 27.4943 37.2007 27.7624 36.7718C28.0304 36.3429 28.2047 35.9007 28.2851 35.445C28.3655 34.9626 28.4057 34.5471 28.4057 34.1986C28.4057 32.9925 28.1108 31.9471 27.5212 31.0626C26.9583 30.1513 26.248 29.3069 25.3902 28.5296C24.5325 27.7523 23.5944 27.0018 22.5758 26.2781C21.5573 25.5544 20.6192 24.7771 19.7614 23.9462C18.9037 23.1152 18.18 22.1905 17.5903 21.172C17.0274 20.1534 16.746 18.974 16.746 17.6339C16.746 16.5885 17.0006 15.6504 17.5099 14.8194C18.0192 13.9617 18.6893 13.2246 19.5202 12.6081C20.3779 11.9916 21.3697 11.5226 22.4954 11.2009C23.648 10.8525 24.8408 10.6782 26.0737 10.6782C28.6201 10.6782 30.5634 11.0669 31.9036 11.8442C33.2706 12.5947 33.9541 13.6535 33.9541 15.0205C33.9541 15.5297 33.7397 16.0256 33.3108 16.5081C32.8819 16.9638 32.2788 17.1916 31.5015 17.1916C31.0191 17.1916 30.617 17.071 30.2954 16.8297C30.0005 16.5617 29.7459 16.24 29.5314 15.8648C29.317 15.4627 29.116 15.0473 28.9284 14.6184C28.7675 14.1627 28.5665 13.7473 28.3253 13.372C28.084 12.97 27.7892 12.6483 27.4407 12.4071C27.1191 12.1391 26.6768 12.005 26.1139 12.005C25.2294 12.005 24.5325 12.1525 24.0232 12.4473C23.514 12.7421 23.1253 13.104 22.8573 13.5329C22.5892 13.9617 22.415 14.4174 22.3346 14.8999C22.2542 15.3823 22.214 15.7978 22.214 16.1462C22.214 17.3256 22.4954 18.3844 23.0583 19.3225C23.648 20.2338 24.3851 21.0915 25.2696 21.8957C26.1542 22.673 27.0923 23.4369 28.084 24.1874C29.1026 24.9379 30.0541 25.742 30.9386 26.5997C31.8232 27.4307 32.5469 28.3554 33.1098 29.3739C33.6994 30.3925 33.9943 31.5719 33.9943 32.9121C33.9943 33.9574 33.7262 34.8955 33.1902 35.7265C32.6809 36.5306 31.9974 37.2275 31.1397 37.8172C30.282 38.4068 29.2768 38.8625 28.1242 39.1842C26.9985 39.479 25.8057 39.6264 24.5459 39.6264C23.3934 39.6264 22.3212 39.5192 21.3295 39.3048C20.3645 39.1171 19.5336 38.8357 18.8367 38.4605C18.1666 38.0852 17.6305 37.6295 17.2285 37.0935C16.8532 36.5574 16.6656 35.9543 16.6656 35.2842C16.6656 34.7749 16.88 34.2925 17.3089 33.8368C17.7377 33.3543 18.3408 33.1131 19.1181 33.1131ZM36.3237 21.9761L39.0175 19.7648C39.2319 19.6039 39.4732 19.4565 39.7412 19.3225C40.036 19.1885 40.3175 19.1215 40.5855 19.1215C40.8804 19.1215 41.135 19.2287 41.3494 19.4431C41.5639 19.6575 41.6711 20.0596 41.6711 20.6493C42.3144 20.0328 43.0113 19.5637 43.7618 19.2421C44.5123 18.8936 45.3164 18.7194 46.1741 18.7194C47.2731 18.7194 48.305 19.0142 49.27 19.6039C50.2349 20.1668 51.0792 20.9307 51.8029 21.8957C52.5266 22.8606 53.0895 23.973 53.4916 25.2327C53.9204 26.4925 54.1349 27.8193 54.1349 29.2131C54.1349 30.5801 53.9204 31.8935 53.4916 33.1533C53.0895 34.4131 52.5266 35.5254 51.8029 36.4904C51.0792 37.4553 50.2349 38.2192 49.27 38.7821C48.305 39.345 47.2731 39.6264 46.1741 39.6264C45.3164 39.6264 44.5123 39.4656 43.7618 39.144C43.0113 38.7955 42.3144 38.3264 41.6711 37.7368V43.2047C41.6711 44.0357 41.7247 44.7192 41.8319 45.2552C41.9659 45.8181 42.0999 46.2872 42.234 46.6624C42.368 47.0377 42.4886 47.3459 42.5958 47.5872C42.7298 47.8552 42.7968 48.1098 42.7968 48.3511C42.7968 48.9676 42.4216 49.2758 41.6711 49.2758H36.3237C36.1093 49.2758 35.9217 49.2356 35.7608 49.1552C35.6268 49.1016 35.4928 49.0078 35.3588 48.8738C35.2516 48.7665 35.1979 48.5923 35.1979 48.3511C35.1979 48.1098 35.2516 47.8552 35.3588 47.5872C35.4928 47.3459 35.6268 47.0377 35.7608 46.6624C35.8948 46.2872 36.0155 45.8181 36.1227 45.2552C36.2567 44.7192 36.3237 44.0357 36.3237 43.2047V25.273C35.7072 24.6297 35.3588 24.0802 35.2784 23.6245C35.1979 23.142 35.5464 22.5926 36.3237 21.9761ZM44.5659 37.3749C45.2896 37.3749 45.8793 37.1203 46.335 36.611C46.8174 36.0749 47.1927 35.4182 47.4607 34.6409C47.7556 33.8368 47.9566 32.9523 48.0638 31.9873C48.171 31.0224 48.2246 30.0976 48.2246 29.2131C48.2246 28.3286 48.171 27.4039 48.0638 26.4389C47.9566 25.4472 47.7556 24.5492 47.4607 23.7451C47.1927 22.941 46.8174 22.2843 46.335 21.775C45.8793 21.239 45.2896 20.9709 44.5659 20.9709C44.0298 20.9709 43.5071 21.1318 42.9979 21.4534C42.5154 21.7482 42.0731 22.1637 41.6711 22.6998V35.6863C42.0731 36.1955 42.5154 36.611 42.9979 36.9326C43.5071 37.2275 44.0298 37.3749 44.5659 37.3749ZM56.4659 21.9359L59.1597 19.7246C59.3473 19.5637 59.5751 19.4297 59.8432 19.3225C60.1112 19.1885 60.3792 19.1215 60.6473 19.1215C60.9689 19.1215 61.237 19.2421 61.4514 19.4833C61.6926 19.7246 61.8132 20.1802 61.8132 20.8503V21.0513C62.5101 20.3544 63.2607 19.7916 64.0648 19.3627C64.8957 18.9338 65.8204 18.7194 66.839 18.7194C67.4555 18.7194 68.1122 18.8132 68.8091 19.0008C69.506 19.1885 70.1492 19.4699 70.7389 19.8452C71.3286 20.1936 71.8111 20.6359 72.1863 21.172C72.5616 21.708 72.7492 22.3111 72.7492 22.9812C72.7492 23.4905 72.5348 23.9864 72.1059 24.4688C71.6771 24.9245 71.074 25.1523 70.2967 25.1523C69.573 25.1523 69.0101 24.9379 68.608 24.509C68.2328 24.0534 67.9111 23.5575 67.6431 23.0214C67.375 22.4854 67.1204 22.0029 66.8792 21.574C66.6647 21.1184 66.3297 20.8905 65.874 20.8905C65.3111 20.8905 64.6679 21.1184 63.9442 21.574C63.2204 22.0029 62.5101 22.5792 61.8132 23.3029V33.1533C61.8132 33.9842 61.8669 34.6811 61.9741 35.244C62.1081 35.7801 62.2421 36.2357 62.3761 36.611C62.5101 36.9862 62.6308 37.3079 62.738 37.5759C62.872 37.8172 62.939 38.0584 62.939 38.2996C62.939 38.4605 62.8988 38.6079 62.8184 38.7419C62.738 38.8759 62.6174 38.9965 62.4565 39.1037C62.3225 39.1842 62.1081 39.2244 61.8132 39.2244H56.4659C55.7154 39.2244 55.3401 38.9161 55.3401 38.2996C55.3401 38.0584 55.3937 37.8172 55.5009 37.5759C55.635 37.3079 55.769 36.9862 55.903 36.611C56.037 36.2357 56.1576 35.7801 56.2648 35.244C56.3989 34.6811 56.4659 33.9842 56.4659 33.1533V25.2327C56.4659 24.7771 56.3855 24.4152 56.2246 24.1472C56.0906 23.8523 55.97 23.5977 55.8628 23.3833C55.7824 23.142 55.769 22.9276 55.8226 22.74C55.8762 22.5256 56.0906 22.2575 56.4659 21.9359ZM75.0768 22.0967L77.7705 19.8854C77.985 19.6977 78.2262 19.5235 78.4943 19.3627C78.7891 19.2019 79.0839 19.1215 79.3788 19.1215C79.6736 19.1215 79.9149 19.2555 80.1025 19.5235C80.3169 19.7916 80.4241 20.2874 80.4241 21.0111V33.1533C80.4241 33.9842 80.4777 34.6811 80.585 35.244C80.719 35.7801 80.853 36.2357 80.987 36.611C81.121 36.9862 81.2416 37.3079 81.3489 37.5759C81.4829 37.8172 81.5499 38.0584 81.5499 38.2996C81.5499 38.4605 81.5097 38.6079 81.4293 38.7419C81.3489 38.8759 81.2282 38.9965 81.0674 39.1037C80.9334 39.1842 80.719 39.2244 80.4241 39.2244H75.0768C74.8623 39.2244 74.6747 39.1842 74.5139 39.1037C74.3799 39.0501 74.2458 38.9563 74.1118 38.8223C74.0046 38.6883 73.951 38.5141 73.951 38.2996C73.951 38.0584 74.0046 37.8172 74.1118 37.5759C74.2458 37.3079 74.3799 36.9862 74.5139 36.611C74.6479 36.2357 74.7685 35.7801 74.8757 35.244C75.0097 34.6811 75.0768 33.9842 75.0768 33.1533V25.3936C74.4603 24.7503 74.1118 24.2008 74.0314 23.7451C73.951 23.2627 74.2994 22.7132 75.0768 22.0967ZM77.7705 9.07001C78.7891 9.07001 79.6468 9.43187 80.3437 10.1556C81.0406 10.8793 81.3891 11.7504 81.3891 12.7689C81.3891 13.2782 81.2953 13.7607 81.1076 14.2164C80.92 14.6452 80.6654 15.0339 80.3437 15.3823C80.0221 15.704 79.6334 15.9586 79.1777 16.1462C78.7489 16.3339 78.2798 16.4277 77.7705 16.4277C76.752 16.4277 75.8809 16.0792 75.1572 15.3823C74.4603 14.6586 74.1118 13.7875 74.1118 12.7689C74.1118 12.2597 74.2056 11.7906 74.3933 11.3617C74.5809 10.9061 74.8355 10.5174 75.1572 10.1958C75.5056 9.84733 75.8943 9.57929 76.3231 9.39166C76.7788 9.17723 77.2613 9.07001 77.7705 9.07001ZM83.8718 21.9359L86.5656 19.7246C86.7532 19.5637 86.981 19.4297 87.2491 19.3225C87.5171 19.1885 87.7851 19.1215 88.0532 19.1215C88.3748 19.1215 88.6429 19.2421 88.8573 19.4833C89.0985 19.7246 89.2192 20.1802 89.2192 20.8503V21.6946C89.9161 20.8369 90.68 20.1266 91.5109 19.5637C92.3686 19.0008 93.3603 18.7194 94.4861 18.7194C95.7727 18.7194 96.9253 19.1349 97.9438 19.9658C98.9624 20.7699 99.6056 21.9225 99.8737 23.4235C99.9273 23.7451 99.9809 24.241 100.035 24.9111C100.088 25.5812 100.142 26.3317 100.195 27.1626C100.249 27.9667 100.303 28.8245 100.356 29.7358C100.41 30.6203 100.45 31.4646 100.477 32.2688C100.53 33.0461 100.584 33.7564 100.638 34.3997C100.691 35.0162 100.745 35.4584 100.798 35.7265C100.852 36.0213 100.946 36.2759 101.08 36.4904C101.241 36.678 101.388 36.8656 101.522 37.0533C101.656 37.2409 101.777 37.4285 101.884 37.6161C101.991 37.8038 102.045 38.0316 102.045 38.2996C102.045 38.5945 101.924 38.8223 101.683 38.9831C101.469 39.144 101.2 39.2244 100.879 39.2244H95.8129C95.4645 39.2244 95.1562 39.0635 94.8882 38.7419C94.6201 38.4202 94.4995 37.8842 94.5263 37.1337C94.5799 35.9275 94.7273 34.5203 94.9686 32.9121C95.2098 31.3038 95.3706 29.3739 95.451 27.1224C95.4779 26.1843 95.4913 25.34 95.4913 24.5895C95.5181 23.8121 95.4645 23.1554 95.3304 22.6194C95.2232 22.0833 95.0222 21.6678 94.7273 21.373C94.4325 21.0513 94.0036 20.8905 93.4408 20.8905C92.7975 20.8905 92.0872 21.1854 91.3099 21.775C90.5593 22.3647 89.8624 23.1286 89.2192 24.0668V33.1533C89.2192 33.9842 89.2728 34.6811 89.38 35.244C89.514 35.7801 89.648 36.2357 89.782 36.611C89.9161 36.9862 90.0367 37.3079 90.1439 37.5759C90.2779 37.8172 90.3449 38.0584 90.3449 38.2996C90.3449 38.4605 90.3047 38.6079 90.2243 38.7419C90.1439 38.8759 90.0233 38.9965 89.8624 39.1037C89.7284 39.1842 89.514 39.2244 89.2192 39.2244H83.8718C83.1213 39.2244 82.746 38.9161 82.746 38.2996C82.746 38.0584 82.7996 37.8172 82.9068 37.5759C83.0409 37.3079 83.1749 36.9862 83.3089 36.611C83.4429 36.2357 83.5635 35.7801 83.6707 35.244C83.8048 34.6811 83.8718 33.9842 83.8718 33.1533V25.2327C83.8718 24.7771 83.7914 24.4152 83.6305 24.1472C83.4965 23.8523 83.3759 23.5977 83.2687 23.3833C83.1883 23.142 83.1749 22.9276 83.2285 22.74C83.2821 22.5256 83.4965 22.2575 83.8718 21.9359ZM104.015 43.3254C104.497 43.3254 104.886 43.4326 105.181 43.647C105.502 43.8882 105.784 44.1831 106.025 44.5315C106.266 44.88 106.494 45.2418 106.709 45.6171C106.95 46.0191 107.218 46.3944 107.513 46.7428C107.834 47.0913 108.223 47.3727 108.679 47.5872C109.161 47.8284 109.764 47.949 110.488 47.949C111.587 47.949 112.498 47.7882 113.222 47.4666C113.946 47.1717 114.535 46.7831 114.991 46.3006C115.447 45.8181 115.768 45.282 115.956 44.6924C116.144 44.1027 116.237 43.5264 116.237 42.9635C116.237 42.1862 116.036 41.5295 115.634 40.9934C115.232 40.4841 114.669 40.0553 113.946 39.7068C113.222 39.3852 112.351 39.1306 111.332 38.9429C110.341 38.7553 109.242 38.5945 108.035 38.4605C106.668 38.3264 105.744 37.911 105.261 37.2141C104.806 36.5172 104.765 35.7399 105.141 34.8821C105.409 34.2925 105.623 33.8368 105.784 33.5151C105.972 33.1667 106.092 32.9255 106.146 32.7914C105.208 32.2286 104.43 31.4512 103.814 30.4595C103.224 29.4678 102.929 28.1678 102.929 26.5595C102.929 25.1121 103.184 23.906 103.693 22.941C104.203 21.9761 104.846 21.1988 105.623 20.6091C106.427 19.9926 107.312 19.5503 108.277 19.2823C109.242 18.9874 110.18 18.8132 111.091 18.7596C111.145 18.5988 111.252 18.2369 111.413 17.6741C111.6 17.0844 111.895 16.4813 112.297 15.8648C112.726 15.2483 113.302 14.6988 114.026 14.2164C114.75 13.7339 115.675 13.4927 116.8 13.4927C117.336 13.4927 117.926 13.5731 118.569 13.7339C119.213 13.8679 119.816 14.0957 120.379 14.4174C120.942 14.739 121.411 15.1411 121.786 15.6236C122.161 16.106 122.349 16.6823 122.349 17.3524C122.349 17.8617 122.134 18.3576 121.705 18.84C121.277 19.2957 120.673 19.5235 119.896 19.5235C119.414 19.5235 119.025 19.4163 118.73 19.2019C118.435 18.9874 118.194 18.7194 118.007 18.3978C117.846 18.0761 117.712 17.7411 117.604 17.3926C117.497 17.0174 117.377 16.6689 117.243 16.3473C117.109 16.0256 116.934 15.7576 116.72 15.5431C116.532 15.3287 116.251 15.2215 115.876 15.2215C115.259 15.2215 114.736 15.3823 114.308 15.704C113.879 15.9988 113.53 16.3473 113.262 16.7493C113.021 17.1514 112.833 17.54 112.699 17.9153C112.565 18.2905 112.485 18.5586 112.458 18.7194C113.396 18.7462 114.375 18.8936 115.393 19.1617C116.412 19.4029 117.35 19.8184 118.208 20.4081C119.065 20.9977 119.776 21.7884 120.338 22.7802C120.901 23.7719 121.183 25.0317 121.183 26.5595C121.183 28.1142 120.888 29.4007 120.298 30.4193C119.709 31.411 118.958 32.1883 118.047 32.7512C117.135 33.3141 116.144 33.7028 115.071 33.9172C113.999 34.1316 112.994 34.2388 112.056 34.2388C111.332 34.2388 110.568 34.1852 109.764 34.078C108.987 33.944 108.21 33.7296 107.432 33.4347C107.325 33.676 107.218 33.944 107.111 34.2388C107.004 34.5337 106.91 34.8151 106.829 35.0832C106.776 35.2976 106.923 35.4316 107.272 35.4852C107.62 35.5388 108.143 35.5656 108.84 35.5656C109.295 35.5656 109.791 35.5656 110.327 35.5656C110.863 35.5388 111.453 35.5254 112.096 35.5254C114.241 35.5254 115.969 35.7399 117.283 36.1687C118.596 36.5708 119.628 37.0935 120.379 37.7368C121.129 38.3532 121.625 39.0233 121.866 39.747C122.134 40.4975 122.268 41.2079 122.268 41.8779C122.268 42.9769 122.027 43.915 121.545 44.6924C121.089 45.4697 120.499 46.1264 119.776 46.6624C119.052 47.2253 118.234 47.6676 117.323 47.9892C116.438 48.3377 115.554 48.6057 114.669 48.7933C113.812 48.981 113.008 49.1016 112.257 49.1552C111.507 49.2356 110.917 49.2758 110.488 49.2758C107.593 49.2758 105.382 48.981 103.854 48.3913C102.326 47.8284 101.562 46.8635 101.562 45.4965C101.562 44.9872 101.777 44.4913 102.206 44.0089C102.634 43.5532 103.238 43.3254 104.015 43.3254ZM108.84 26.5595C108.84 27.9265 108.947 29.0255 109.161 29.8564C109.376 30.6873 109.644 31.3306 109.965 31.7863C110.287 32.242 110.635 32.5502 111.011 32.711C111.386 32.845 111.734 32.9121 112.056 32.9121C112.378 32.9121 112.726 32.845 113.101 32.711C113.477 32.5502 113.825 32.242 114.147 31.7863C114.468 31.3306 114.736 30.6873 114.951 29.8564C115.165 29.0255 115.273 27.9265 115.273 26.5595C115.273 25.1925 115.165 24.0936 114.951 23.2627C114.736 22.4049 114.468 21.7348 114.147 21.2524C113.825 20.7699 113.477 20.4483 113.101 20.2874C112.726 20.1266 112.378 20.0462 112.056 20.0462C111.734 20.0462 111.386 20.1266 111.011 20.2874C110.635 20.4483 110.287 20.7699 109.965 21.2524C109.644 21.7348 109.376 22.4049 109.161 23.2627C108.947 24.0936 108.84 25.1925 108.84 26.5595ZM134.718 33.1533V17.1514C134.718 16.3205 134.651 15.637 134.517 15.1009C134.41 14.538 134.289 14.0689 134.155 13.6937C134.021 13.3184 133.887 13.0102 133.753 12.7689C133.646 12.5009 133.592 12.2463 133.592 12.005C133.592 11.3885 133.967 11.0803 134.718 11.0803H141.473C143.215 11.0803 144.823 11.3617 146.297 11.9246C147.771 12.4607 149.058 13.3184 150.157 14.4978C151.256 15.6504 152.114 17.1246 152.73 18.9204C153.347 20.7163 153.655 22.8606 153.655 25.3534C153.655 27.7389 153.347 29.8028 152.73 31.5451C152.114 33.2873 151.256 34.7347 150.157 35.8873C149.058 37.013 147.771 37.8574 146.297 38.4202C144.823 38.9563 143.215 39.2244 141.473 39.2244H134.718C134.504 39.2244 134.316 39.1842 134.155 39.1037C134.021 39.0501 133.887 38.9563 133.753 38.8223C133.646 38.6883 133.592 38.5141 133.592 38.2996C133.592 38.0584 133.646 37.8172 133.753 37.5759C133.887 37.3079 134.021 36.9862 134.155 36.611C134.289 36.2357 134.41 35.7801 134.517 35.244C134.651 34.6811 134.718 33.9842 134.718 33.1533ZM140.709 37.8976H141.473C141.928 37.8976 142.505 37.6965 143.201 37.2945C143.925 36.8656 144.622 36.1687 145.292 35.2038C145.962 34.2388 146.538 32.9523 147.021 31.344C147.503 29.7358 147.745 27.7389 147.745 25.3534C147.745 22.8606 147.49 20.7833 146.981 19.1215C146.498 17.4596 145.909 16.1328 145.212 15.1411C144.542 14.1493 143.858 13.4524 143.161 13.0504C142.464 12.6215 141.901 12.4071 141.473 12.4071H140.709C140.333 12.4071 140.132 12.8494 140.106 13.7339C140.079 14.5916 140.065 15.7308 140.065 17.1514V33.1533C140.065 34.5739 140.079 35.7265 140.106 36.611C140.132 37.4687 140.333 37.8976 140.709 37.8976ZM154.873 28.8111C154.873 25.6482 155.664 23.1823 157.245 21.4132C158.853 19.6173 161.145 18.7194 164.12 18.7194C165.032 18.7194 165.93 18.84 166.814 19.0813C167.725 19.2957 168.53 19.6575 169.226 20.1668C169.95 20.6493 170.526 21.2926 170.955 22.0967C171.411 22.874 171.639 23.8255 171.639 24.9513C171.639 25.943 171.451 26.7472 171.076 27.3637C170.701 27.9533 170.205 28.4224 169.588 28.7709C168.972 29.0925 168.262 29.3203 167.457 29.4544C166.68 29.5616 165.863 29.6152 165.005 29.6152H160.783C160.783 31.1698 160.904 32.51 161.145 33.6358C161.386 34.7347 161.681 35.6326 162.03 36.3295C162.405 36.9996 162.807 37.4955 163.236 37.8172C163.665 38.1388 164.053 38.2996 164.402 38.2996C164.831 38.2996 165.233 38.1924 165.608 37.978C165.983 37.7368 166.332 37.4419 166.653 37.0935C166.975 36.7182 167.256 36.3027 167.498 35.8471C167.766 35.3646 167.98 34.8955 168.141 34.4399C168.302 33.9842 168.53 33.6626 168.824 33.4749C169.146 33.2873 169.468 33.1935 169.789 33.1935C170.272 33.1935 170.687 33.3811 171.036 33.7564C171.411 34.1316 171.505 34.6141 171.317 35.2038C171.183 35.6326 170.929 36.1017 170.553 36.611C170.178 37.1203 169.696 37.6027 169.106 38.0584C168.516 38.4873 167.819 38.8625 167.015 39.1842C166.238 39.479 165.367 39.6264 164.402 39.6264C162.847 39.6264 161.48 39.345 160.301 38.7821C159.121 38.1924 158.13 37.4017 157.326 36.41C156.521 35.4182 155.905 34.2791 155.476 32.9925C155.074 31.6791 154.873 30.2853 154.873 28.8111ZM160.823 28.2884H163.397C163.879 28.2884 164.268 28.1812 164.563 27.9667C164.857 27.7523 165.085 27.4843 165.246 27.1626C165.434 26.8142 165.554 26.4389 165.608 26.0369C165.688 25.608 165.729 25.1925 165.729 24.7905C165.729 24.2276 165.702 23.6647 165.648 23.1018C165.595 22.539 165.501 22.0297 165.367 21.574C165.233 21.1184 165.058 20.7565 164.844 20.4885C164.656 20.1936 164.415 20.0462 164.12 20.0462C163.826 20.0462 163.49 20.2204 163.115 20.5689C162.767 20.9173 162.432 21.44 162.11 22.1369C161.788 22.8338 161.507 23.6915 161.266 24.7101C161.025 25.7286 160.877 26.9214 160.823 28.2884ZM175.308 32.711C175.791 32.711 176.193 32.8584 176.514 33.1533C176.836 33.4213 177.104 33.7564 177.319 34.1584C177.533 34.5605 177.734 35.0162 177.922 35.5254C178.109 36.0079 178.31 36.4502 178.525 36.8522C178.739 37.2543 178.994 37.6027 179.289 37.8976C179.61 38.1656 180.012 38.2996 180.495 38.2996C180.87 38.2996 181.205 38.2192 181.5 38.0584C181.822 37.8708 182.09 37.6429 182.304 37.3749C182.518 37.1069 182.679 36.7986 182.787 36.4502C182.921 36.1017 182.988 35.7533 182.988 35.4048C182.988 34.6811 182.733 34.0378 182.224 33.4749C181.741 32.8853 181.125 32.3358 180.374 31.8265C179.624 31.2904 178.82 30.7677 177.962 30.2585C177.104 29.7492 176.3 29.2131 175.549 28.6502C174.799 28.0874 174.169 27.4709 173.66 26.8008C173.177 26.1039 172.936 25.3132 172.936 24.4286C172.936 23.3833 173.204 22.4988 173.74 21.775C174.303 21.0513 174.987 20.4617 175.791 20.006C176.595 19.5503 177.453 19.2287 178.364 19.0411C179.275 18.8266 180.106 18.7194 180.857 18.7194C182.036 18.7194 183.095 18.84 184.033 19.0813C184.971 19.3225 185.775 19.6575 186.445 20.0864C187.115 20.5153 187.625 21.0245 187.973 21.6142C188.348 22.1771 188.536 22.7936 188.536 23.4637C188.536 23.973 188.322 24.4688 187.893 24.9513C187.464 25.407 186.861 25.6348 186.083 25.6348C185.601 25.6348 185.199 25.5008 184.877 25.2327C184.556 24.9379 184.288 24.5895 184.073 24.1874C183.859 23.7853 183.658 23.3431 183.47 22.8606C183.282 22.3513 183.081 21.8957 182.867 21.4936C182.653 21.0915 182.384 20.7565 182.063 20.4885C181.768 20.1936 181.379 20.0462 180.897 20.0462C180.522 20.0462 180.173 20.14 179.852 20.3276C179.557 20.4885 179.302 20.7029 179.088 20.9709C178.873 21.239 178.699 21.5472 178.565 21.8957C178.458 22.2441 178.404 22.5926 178.404 22.941C178.404 23.6647 178.645 24.3214 179.128 24.9111C179.637 25.5008 180.267 26.0637 181.017 26.5997C181.795 27.1358 182.612 27.6719 183.47 28.208C184.355 28.7172 185.172 29.2667 185.923 29.8564C186.7 30.4461 187.33 31.0894 187.812 31.7863C188.322 32.4564 188.576 33.2337 188.576 34.1182C188.576 35.1636 188.295 36.0347 187.732 36.7316C187.169 37.4285 186.472 37.9914 185.641 38.4202C184.837 38.8491 183.966 39.1574 183.028 39.345C182.116 39.5326 181.286 39.6264 180.535 39.6264C179.382 39.6264 178.324 39.5058 177.359 39.2646C176.421 39.0233 175.616 38.6883 174.946 38.2594C174.276 37.8306 173.754 37.3347 173.378 36.7718C173.03 36.1821 172.856 35.5522 172.856 34.8821C172.856 34.3729 173.07 33.8904 173.499 33.4347C173.928 32.9523 174.531 32.711 175.308 32.711ZM190.904 22.0967L193.598 19.8854C193.812 19.6977 194.053 19.5235 194.322 19.3627C194.616 19.2019 194.911 19.1215 195.206 19.1215C195.501 19.1215 195.742 19.2555 195.93 19.5235C196.144 19.7916 196.251 20.2874 196.251 21.0111V33.1533C196.251 33.9842 196.305 34.6811 196.412 35.244C196.546 35.7801 196.68 36.2357 196.814 36.611C196.948 36.9862 197.069 37.3079 197.176 37.5759C197.31 37.8172 197.377 38.0584 197.377 38.2996C197.377 38.4605 197.337 38.6079 197.257 38.7419C197.176 38.8759 197.056 38.9965 196.895 39.1037C196.761 39.1842 196.546 39.2244 196.251 39.2244H190.904C190.69 39.2244 190.502 39.1842 190.341 39.1037C190.207 39.0501 190.073 38.9563 189.939 38.8223C189.832 38.6883 189.778 38.5141 189.778 38.2996C189.778 38.0584 189.832 37.8172 189.939 37.5759C190.073 37.3079 190.207 36.9862 190.341 36.611C190.475 36.2357 190.596 35.7801 190.703 35.244C190.837 34.6811 190.904 33.9842 190.904 33.1533V25.3936C190.288 24.7503 189.939 24.2008 189.859 23.7451C189.778 23.2627 190.127 22.7132 190.904 22.0967ZM193.598 9.07001C194.616 9.07001 195.474 9.43187 196.171 10.1556C196.868 10.8793 197.216 11.7504 197.216 12.7689C197.216 13.2782 197.123 13.7607 196.935 14.2164C196.747 14.6452 196.493 15.0339 196.171 15.3823C195.849 15.704 195.461 15.9586 195.005 16.1462C194.576 16.3339 194.107 16.4277 193.598 16.4277C192.579 16.4277 191.708 16.0792 190.984 15.3823C190.288 14.6586 189.939 13.7875 189.939 12.7689C189.939 12.2597 190.033 11.7906 190.221 11.3617C190.408 10.9061 190.663 10.5174 190.984 10.1958C191.333 9.84733 191.722 9.57929 192.15 9.39166C192.606 9.17723 193.089 9.07001 193.598 9.07001ZM199.739 43.3254C200.222 43.3254 200.61 43.4326 200.905 43.647C201.227 43.8882 201.508 44.1831 201.75 44.5315C201.991 44.88 202.219 45.2418 202.433 45.6171C202.674 46.0191 202.942 46.3944 203.237 46.7428C203.559 47.0913 203.947 47.3727 204.403 47.5872C204.886 47.8284 205.489 47.949 206.212 47.949C207.311 47.949 208.223 47.7882 208.946 47.4666C209.67 47.1717 210.26 46.7831 210.715 46.3006C211.171 45.8181 211.493 45.282 211.68 44.6924C211.868 44.1027 211.962 43.5264 211.962 42.9635C211.962 42.1862 211.761 41.5295 211.359 40.9934C210.957 40.4841 210.394 40.0553 209.67 39.7068C208.946 39.3852 208.075 39.1306 207.057 38.9429C206.065 38.7553 204.966 38.5945 203.76 38.4605C202.393 38.3264 201.468 37.911 200.986 37.2141C200.53 36.5172 200.49 35.7399 200.865 34.8821C201.133 34.2925 201.347 33.8368 201.508 33.5151C201.696 33.1667 201.817 32.9255 201.87 32.7914C200.932 32.2286 200.155 31.4512 199.538 30.4595C198.949 29.4678 198.654 28.1678 198.654 26.5595C198.654 25.1121 198.908 23.906 199.418 22.941C199.927 21.9761 200.57 21.1988 201.347 20.6091C202.152 19.9926 203.036 19.5503 204.001 19.2823C204.966 18.9874 205.904 18.8132 206.815 18.7596C206.869 18.5988 206.976 18.2369 207.137 17.6741C207.325 17.0844 207.62 16.4813 208.022 15.8648C208.45 15.2483 209.027 14.6988 209.75 14.2164C210.474 13.7339 211.399 13.4927 212.525 13.4927C213.061 13.4927 213.65 13.5731 214.294 13.7339C214.937 13.8679 215.54 14.0957 216.103 14.4174C216.666 14.739 217.135 15.1411 217.51 15.6236C217.885 16.106 218.073 16.6823 218.073 17.3524C218.073 17.8617 217.859 18.3576 217.43 18.84C217.001 19.2957 216.398 19.5235 215.621 19.5235C215.138 19.5235 214.749 19.4163 214.455 19.2019C214.16 18.9874 213.918 18.7194 213.731 18.3978C213.57 18.0761 213.436 17.7411 213.329 17.3926C213.222 17.0174 213.101 16.6689 212.967 16.3473C212.833 16.0256 212.659 15.7576 212.444 15.5431C212.257 15.3287 211.975 15.2215 211.6 15.2215C210.983 15.2215 210.461 15.3823 210.032 15.704C209.603 15.9988 209.255 16.3473 208.987 16.7493C208.745 17.1514 208.558 17.54 208.424 17.9153C208.29 18.2905 208.209 18.5586 208.182 18.7194C209.121 18.7462 210.099 18.8936 211.117 19.1617C212.136 19.4029 213.074 19.8184 213.932 20.4081C214.79 20.9977 215.5 21.7884 216.063 22.7802C216.626 23.7719 216.907 25.0317 216.907 26.5595C216.907 28.1142 216.612 29.4007 216.023 30.4193C215.433 31.411 214.682 32.1883 213.771 32.7512C212.86 33.3141 211.868 33.7028 210.796 33.9172C209.724 34.1316 208.719 34.2388 207.78 34.2388C207.057 34.2388 206.293 34.1852 205.489 34.078C204.711 33.944 203.934 33.7296 203.157 33.4347C203.05 33.676 202.942 33.944 202.835 34.2388C202.728 34.5337 202.634 34.8151 202.554 35.0832C202.5 35.2976 202.647 35.4316 202.996 35.4852C203.344 35.5388 203.867 35.5656 204.564 35.5656C205.02 35.5656 205.515 35.5656 206.052 35.5656C206.588 35.5388 207.177 35.5254 207.821 35.5254C209.965 35.5254 211.694 35.7399 213.007 36.1687C214.321 36.5708 215.352 37.0935 216.103 37.7368C216.854 38.3532 217.349 39.0233 217.591 39.747C217.859 40.4975 217.993 41.2079 217.993 41.8779C217.993 42.9769 217.751 43.915 217.269 44.6924C216.813 45.4697 216.224 46.1264 215.5 46.6624C214.776 47.2253 213.959 47.6676 213.047 47.9892C212.163 48.3377 211.278 48.6057 210.394 48.7933C209.536 48.981 208.732 49.1016 207.981 49.1552C207.231 49.2356 206.641 49.2758 206.212 49.2758C203.318 49.2758 201.106 48.981 199.578 48.3913C198.051 47.8284 197.287 46.8635 197.287 45.4965C197.287 44.9872 197.501 44.4913 197.93 44.0089C198.359 43.5532 198.962 43.3254 199.739 43.3254ZM204.564 26.5595C204.564 27.9265 204.671 29.0255 204.886 29.8564C205.1 30.6873 205.368 31.3306 205.69 31.7863C206.011 32.242 206.36 32.5502 206.735 32.711C207.11 32.845 207.459 32.9121 207.78 32.9121C208.102 32.9121 208.45 32.845 208.826 32.711C209.201 32.5502 209.549 32.242 209.871 31.7863C210.193 31.3306 210.461 30.6873 210.675 29.8564C210.89 29.0255 210.997 27.9265 210.997 26.5595C210.997 25.1925 210.89 24.0936 210.675 23.2627C210.461 22.4049 210.193 21.7348 209.871 21.2524C209.549 20.7699 209.201 20.4483 208.826 20.2874C208.45 20.1266 208.102 20.0462 207.78 20.0462C207.459 20.0462 207.11 20.1266 206.735 20.2874C206.36 20.4483 206.011 20.7699 205.69 21.2524C205.368 21.7348 205.1 22.4049 204.886 23.2627C204.671 24.0936 204.564 25.1925 204.564 26.5595ZM220.391 21.9359L223.085 19.7246C223.272 19.5637 223.5 19.4297 223.768 19.3225C224.036 19.1885 224.304 19.1215 224.572 19.1215C224.894 19.1215 225.162 19.2421 225.376 19.4833C225.618 19.7246 225.738 20.1802 225.738 20.8503V21.6946C226.435 20.8369 227.199 20.1266 228.03 19.5637C228.888 19.0008 229.879 18.7194 231.005 18.7194C232.292 18.7194 233.444 19.1349 234.463 19.9658C235.481 20.7699 236.125 21.9225 236.393 23.4235C236.446 23.7451 236.5 24.241 236.554 24.9111C236.607 25.5812 236.661 26.3317 236.714 27.1626C236.768 27.9667 236.822 28.8245 236.875 29.7358C236.929 30.6203 236.969 31.4646 236.996 32.2688C237.049 33.0461 237.103 33.7564 237.157 34.3997C237.21 35.0162 237.264 35.4584 237.318 35.7265C237.371 36.0213 237.465 36.2759 237.599 36.4904C237.76 36.678 237.907 36.8656 238.041 37.0533C238.175 37.2409 238.296 37.4285 238.403 37.6161C238.51 37.8038 238.564 38.0316 238.564 38.2996C238.564 38.5945 238.443 38.8223 238.202 38.9831C237.988 39.144 237.72 39.2244 237.398 39.2244H232.332C231.984 39.2244 231.675 39.0635 231.407 38.7419C231.139 38.4202 231.019 37.8842 231.045 37.1337C231.099 35.9275 231.246 34.5203 231.488 32.9121C231.729 31.3038 231.89 29.3739 231.97 27.1224C231.997 26.1843 232.01 25.34 232.01 24.5895C232.037 23.8121 231.984 23.1554 231.85 22.6194C231.742 22.0833 231.541 21.6678 231.246 21.373C230.952 21.0513 230.523 20.8905 229.96 20.8905C229.317 20.8905 228.606 21.1854 227.829 21.775C227.078 22.3647 226.382 23.1286 225.738 24.0668V33.1533C225.738 33.9842 225.792 34.6811 225.899 35.244C226.033 35.7801 226.167 36.2357 226.301 36.611C226.435 36.9862 226.556 37.3079 226.663 37.5759C226.797 37.8172 226.864 38.0584 226.864 38.2996C226.864 38.4605 226.824 38.6079 226.743 38.7419C226.663 38.8759 226.542 38.9965 226.382 39.1037C226.248 39.1842 226.033 39.2244 225.738 39.2244H220.391C219.64 39.2244 219.265 38.9161 219.265 38.2996C219.265 38.0584 219.319 37.8172 219.426 37.5759C219.56 37.3079 219.694 36.9862 219.828 36.611C219.962 36.2357 220.083 35.7801 220.19 35.244C220.324 34.6811 220.391 33.9842 220.391 33.1533V25.2327C220.391 24.7771 220.31 24.4152 220.15 24.1472C220.016 23.8523 219.895 23.5977 219.788 23.3833C219.707 23.142 219.694 22.9276 219.748 22.74C219.801 22.5256 220.016 22.2575 220.391 21.9359ZM248.204 25.9162C248.606 25.7286 249.008 25.5142 249.41 25.273C249.812 25.0317 250.174 24.8039 250.496 24.5895C250.388 23.3029 250.147 22.2307 249.772 21.373C249.397 20.4885 248.861 20.0462 248.164 20.0462C247.735 20.0462 247.306 20.3142 246.877 20.8503C246.475 21.3864 246.046 21.9761 245.59 22.6194C245.135 23.2359 244.626 23.8121 244.063 24.3482C243.5 24.8843 242.856 25.1523 242.133 25.1523C241.355 25.1523 240.793 24.9245 240.444 24.4688C240.123 23.9864 239.962 23.4905 239.962 22.9812C239.962 22.3111 240.163 21.708 240.565 21.172C240.967 20.6359 241.53 20.1936 242.253 19.8452C242.977 19.4699 243.835 19.1885 244.827 19.0008C245.845 18.8132 246.957 18.7194 248.164 18.7194C250.442 18.7194 252.077 19.1349 253.069 19.9658C254.087 20.7699 254.731 21.9225 254.999 23.4235C255.052 23.7451 255.106 24.241 255.159 24.9111C255.213 25.5812 255.267 26.3317 255.32 27.1626C255.374 27.9667 255.428 28.8245 255.481 29.7358C255.535 30.6203 255.575 31.4646 255.602 32.2688C255.655 33.0461 255.709 33.7564 255.763 34.3997C255.816 35.0162 255.87 35.4584 255.923 35.7265C255.977 36.0213 256.071 36.2759 256.205 36.4904C256.366 36.678 256.513 36.8656 256.647 37.0533C256.781 37.2409 256.902 37.4285 257.009 37.6161C257.116 37.8038 257.17 38.0316 257.17 38.2996C257.17 38.5945 257.049 38.8223 256.808 38.9831C256.593 39.144 256.325 39.2244 256.004 39.2244H250.938C250.697 39.2244 250.469 39.144 250.254 38.9831C250.04 38.7955 249.879 38.5141 249.772 38.1388C249.182 38.5945 248.485 38.9563 247.681 39.2244C246.904 39.5192 246.14 39.6666 245.389 39.6666C244.532 39.6666 243.754 39.5058 243.058 39.1842C242.361 38.8357 241.771 38.3934 241.288 37.8574C240.806 37.2945 240.431 36.678 240.163 36.0079C239.895 35.311 239.761 34.6007 239.761 33.877C239.761 32.5904 240.015 31.5317 240.525 30.7007C241.061 29.843 241.731 29.1327 242.535 28.5698C243.366 28.0069 244.277 27.5245 245.269 27.1224C246.287 26.7204 247.266 26.3183 248.204 25.9162ZM249.691 36.3295C249.799 35.177 249.946 33.8636 250.134 32.3894C250.348 30.8884 250.496 29.1327 250.576 27.1224V26.4389C250.362 26.5997 250.094 26.7874 249.772 27.0018C249.45 27.2162 249.102 27.4575 248.727 27.7255C248.378 27.9667 248.016 28.2616 247.641 28.61C247.293 28.9317 246.971 29.3203 246.676 29.776C246.381 30.2317 246.14 30.7677 245.952 31.3842C245.765 32.0007 245.671 32.711 245.671 33.5151C245.671 33.81 245.698 34.1584 245.751 34.5605C245.805 34.9357 245.899 35.311 246.033 35.6863C246.194 36.0347 246.408 36.3429 246.676 36.611C246.944 36.8522 247.306 36.9728 247.762 36.9728C248.137 36.9728 248.472 36.9192 248.767 36.812C249.088 36.678 249.397 36.5172 249.691 36.3295ZM257.445 19.1215H260.26V17.1916C259.643 16.5483 259.295 15.9988 259.214 15.5431C259.134 15.0607 259.482 14.5112 260.26 13.8947L262.953 11.6834C263.141 11.5226 263.369 11.3885 263.637 11.2813C263.905 11.1473 264.173 11.0803 264.441 11.0803C264.763 11.0803 265.031 11.2009 265.245 11.4422C265.486 11.6834 265.607 12.1391 265.607 12.8092V19.1215H268.421C268.663 19.1215 268.837 19.1885 268.944 19.3225C269.051 19.4565 269.105 19.6173 269.105 19.805C269.105 19.9658 269.051 20.1132 268.944 20.2472C268.837 20.3812 268.663 20.4483 268.421 20.4483H265.607V30.6203C265.607 31.0492 265.607 31.6657 265.607 32.4698C265.634 33.2739 265.687 34.078 265.768 34.8821C265.848 35.6595 265.969 36.3429 266.13 36.9326C266.291 37.5223 266.518 37.8172 266.813 37.8172C267.349 37.8172 267.684 37.4955 267.818 36.8522C267.952 36.1821 268.06 35.378 268.14 34.4399C268.194 33.9038 268.381 33.5017 268.703 33.2337C269.051 32.9657 269.427 32.8316 269.829 32.8316C270.284 32.8316 270.686 33.0059 271.035 33.3543C271.41 33.676 271.571 34.145 271.517 34.7615C271.49 35.1904 271.356 35.6595 271.115 36.1687C270.874 36.678 270.526 37.1605 270.07 37.6161C269.614 38.0718 269.025 38.4605 268.301 38.7821C267.604 39.0769 266.76 39.2244 265.768 39.2244C264.749 39.2244 263.905 39.0769 263.235 38.7821C262.592 38.4873 262.056 38.0986 261.627 37.6161C261.225 37.1337 260.93 36.5842 260.742 35.9677C260.554 35.3512 260.42 34.7213 260.34 34.078C260.26 33.4347 260.219 32.8182 260.219 32.2286C260.246 31.6121 260.26 31.076 260.26 30.6203V20.4483H257.445C257.204 20.4483 257.03 20.3812 256.923 20.2472C256.815 20.1132 256.762 19.9658 256.762 19.805C256.762 19.6173 256.815 19.4565 256.923 19.3225C257.03 19.1885 257.204 19.1215 257.445 19.1215ZM273.907 11.8844L276.601 9.6731C276.788 9.51228 277.016 9.37826 277.284 9.27104C277.552 9.13702 277.82 9.07001 278.088 9.07001C278.41 9.07001 278.678 9.19063 278.893 9.43187C279.134 9.6731 279.254 10.1288 279.254 10.7989V21.6946C279.951 20.8369 280.715 20.1266 281.546 19.5637C282.404 19.0008 283.396 18.7194 284.521 18.7194C285.808 18.7194 286.96 19.1349 287.979 19.9658C288.998 20.7699 289.641 21.9225 289.909 23.4235C289.963 23.7451 290.016 24.241 290.07 24.9111C290.123 25.5812 290.177 26.3317 290.231 27.1626C290.284 27.9667 290.338 28.8245 290.391 29.7358C290.445 30.6203 290.485 31.4646 290.512 32.2688C290.566 33.0461 290.619 33.7564 290.673 34.3997C290.726 35.0162 290.78 35.4584 290.834 35.7265C290.887 36.0213 290.981 36.2759 291.115 36.4904C291.276 36.678 291.423 36.8656 291.557 37.0533C291.691 37.2409 291.812 37.4285 291.919 37.6161C292.026 37.8038 292.08 38.0316 292.08 38.2996C292.08 38.5945 291.959 38.8223 291.718 38.9831C291.504 39.144 291.236 39.2244 290.914 39.2244H285.848C285.5 39.2244 285.191 39.0635 284.923 38.7419C284.655 38.4202 284.535 37.8842 284.562 37.1337C284.615 35.9275 284.763 34.5203 285.004 32.9121C285.245 31.3038 285.406 29.3739 285.486 27.1224C285.513 26.1843 285.526 25.34 285.526 24.5895C285.553 23.8121 285.5 23.1554 285.366 22.6194C285.258 22.0833 285.057 21.6678 284.763 21.373C284.468 21.0513 284.039 20.8905 283.476 20.8905C282.833 20.8905 282.122 21.1854 281.345 21.775C280.595 22.3647 279.898 23.1286 279.254 24.0668V33.1533C279.254 33.9842 279.308 34.6811 279.415 35.244C279.549 35.7801 279.683 36.2357 279.817 36.611C279.951 36.9862 280.072 37.3079 280.179 37.5759C280.313 37.8172 280.38 38.0584 280.38 38.2996C280.38 38.4605 280.34 38.6079 280.26 38.7419C280.179 38.8759 280.058 38.9965 279.898 39.1037C279.764 39.1842 279.549 39.2244 279.254 39.2244H273.907C273.157 39.2244 272.781 38.9161 272.781 38.2996C272.781 38.0584 272.835 37.8172 272.942 37.5759C273.076 37.3079 273.21 36.9862 273.344 36.611C273.478 36.2357 273.599 35.7801 273.706 35.244C273.84 34.6811 273.907 33.9842 273.907 33.1533V15.1813C273.907 14.7256 273.827 14.3638 273.666 14.0957C273.532 13.8009 273.411 13.5463 273.304 13.3318C273.224 13.0906 273.21 12.8762 273.264 12.6885C273.317 12.4741 273.532 12.2061 273.907 11.8844ZM302.806 18.7194C304.36 18.7194 305.727 18.974 306.907 19.4833C308.086 19.9658 309.078 20.6761 309.882 21.6142C310.686 22.5256 311.289 23.6245 311.691 24.9111C312.12 26.1709 312.334 27.5915 312.334 29.1729C312.334 30.7275 312.12 32.1481 311.691 33.4347C311.289 34.7213 310.686 35.8337 309.882 36.7718C309.078 37.6831 308.086 38.3934 306.907 38.9027C305.727 39.3852 304.36 39.6264 302.806 39.6264C301.251 39.6264 299.884 39.3852 298.705 38.9027C297.525 38.3934 296.533 37.6831 295.729 36.7718C294.925 35.8337 294.309 34.7213 293.88 33.4347C293.478 32.1481 293.277 30.7275 293.277 29.1729C293.277 27.5915 293.478 26.1709 293.88 24.9111C294.309 23.6245 294.925 22.5256 295.729 21.6142C296.533 20.6761 297.525 19.9658 298.705 19.4833C299.884 18.974 301.251 18.7194 302.806 18.7194ZM299.187 29.1729C299.187 30.7275 299.294 32.0811 299.509 33.2337C299.723 34.3863 300.005 35.3378 300.353 36.0883C300.701 36.8388 301.09 37.4017 301.519 37.777C301.948 38.1254 302.377 38.2996 302.806 38.2996C303.234 38.2996 303.663 38.1254 304.092 37.777C304.521 37.4017 304.91 36.8388 305.258 36.0883C305.607 35.3378 305.888 34.3863 306.102 33.2337C306.317 32.0811 306.424 30.7275 306.424 29.1729C306.424 27.5915 306.317 26.2379 306.102 25.1121C305.888 23.9596 305.607 23.008 305.258 22.2575C304.91 21.507 304.521 20.9575 304.092 20.6091C303.663 20.2338 303.234 20.0462 302.806 20.0462C302.377 20.0462 301.948 20.2338 301.519 20.6091C301.09 20.9575 300.701 21.507 300.353 22.2575C300.005 23.008 299.723 23.9596 299.509 25.1121C299.294 26.2379 299.187 27.5915 299.187 29.1729ZM314.663 21.9359L317.356 19.7246C317.544 19.5637 317.772 19.4297 318.04 19.3225C318.308 19.1885 318.576 19.1215 318.844 19.1215C319.166 19.1215 319.434 19.2421 319.648 19.4833C319.889 19.7246 320.01 20.1802 320.01 20.8503V21.6946C320.707 20.8369 321.471 20.1266 322.302 19.5637C323.159 19.0008 324.151 18.7194 325.277 18.7194C326.563 18.7194 327.716 19.1349 328.735 19.9658C329.753 20.7699 330.396 21.9225 330.664 23.4235C330.718 23.7451 330.772 24.241 330.825 24.9111C330.879 25.5812 330.932 26.3317 330.986 27.1626C331.04 27.9667 331.093 28.8245 331.147 29.7358C331.2 30.6203 331.241 31.4646 331.268 32.2688C331.321 33.0461 331.375 33.7564 331.428 34.3997C331.482 35.0162 331.536 35.4584 331.589 35.7265C331.643 36.0213 331.737 36.2759 331.871 36.4904C332.031 36.678 332.179 36.8656 332.313 37.0533C332.447 37.2409 332.567 37.4285 332.675 37.6161C332.782 37.8038 332.836 38.0316 332.836 38.2996C332.836 38.5945 332.715 38.8223 332.474 38.9831C332.259 39.144 331.991 39.2244 331.67 39.2244H326.604C326.255 39.2244 325.947 39.0635 325.679 38.7419C325.411 38.4202 325.29 37.8842 325.317 37.1337C325.371 35.9275 325.518 34.5203 325.759 32.9121C326.001 31.3038 326.161 29.3739 326.242 27.1224C326.269 26.1843 326.282 25.34 326.282 24.5895C326.309 23.8121 326.255 23.1554 326.121 22.6194C326.014 22.0833 325.813 21.6678 325.518 21.373C325.223 21.0513 324.794 20.8905 324.231 20.8905C323.588 20.8905 322.878 21.1854 322.101 21.775C321.35 22.3647 320.653 23.1286 320.01 24.0668V33.1533C320.01 33.9842 320.063 34.6811 320.171 35.244C320.305 35.7801 320.439 36.2357 320.573 36.611C320.707 36.9862 320.827 37.3079 320.935 37.5759C321.069 37.8172 321.136 38.0584 321.136 38.2996C321.136 38.4605 321.095 38.6079 321.015 38.7419C320.935 38.8759 320.814 38.9965 320.653 39.1037C320.519 39.1842 320.305 39.2244 320.01 39.2244H314.663C313.912 39.2244 313.537 38.9161 313.537 38.2996C313.537 38.0584 313.59 37.8172 313.698 37.5759C313.832 37.3079 313.966 36.9862 314.1 36.611C314.234 36.2357 314.354 35.7801 314.461 35.244C314.595 34.6811 314.663 33.9842 314.663 33.1533V25.2327C314.663 24.7771 314.582 24.4152 314.421 24.1472C314.287 23.8523 314.167 23.5977 314.059 23.3833C313.979 23.142 313.966 22.9276 314.019 22.74C314.073 22.5256 314.287 22.2575 314.663 21.9359Z" fill="#E1DBD2"/>
<path d="M336.419 17.4475C336.738 16.6761 336.822 15.8567 336.902 15.0287C336.996 14.0687 337.126 13.0123 336.73 12.0939C336.08 10.5828 334.662 9.34288 333.165 8.72906C328.797 6.93864 324.789 11.5377 325.024 15.7066C325.192 18.6805 327.205 21.9341 330.537 21.6889C332.18 21.568 333.89 20.4861 334.992 19.3234C335.724 18.5503 336.282 17.6048 336.632 16.5996C337.051 15.3969 336.94 14.16 336.972 12.9132" stroke="#8151FB" stroke-linecap="round"/>
<path d="M332.18 11.4016C332.295 11.5122 332.329 11.5993 332.358 11.7682C332.461 12.3649 332.415 12.9753 332.438 13.5766" stroke="#8151FB" stroke-linecap="round"/>
<path d="M329.784 11.9915C329.856 12.7033 329.534 13.3884 329.341 14.0559" stroke="#8151FB" stroke-linecap="round"/>
<path d="M328.134 15.4729C328.114 16.0616 328.196 16.6535 328.275 17.2361C328.351 17.8013 328.455 18.3889 328.635 18.932C328.939 19.847 330.257 19.6813 330.989 19.5095C331.523 19.3843 332.043 19.1671 332.521 18.9002C332.721 18.7889 332.964 18.6582 333.13 18.5008C333.602 18.052 333.865 17.3614 334.111 16.7809C334.317 16.2964 334.627 15.6574 334.666 15.1071C334.672 15.0224 334.614 14.9052 334.575 14.8328C334.489 14.6715 334.38 14.6129 334.215 14.5547" stroke="#8151FB" stroke-linecap="round"/>
<path d="M117.213 8.69361C117.242 8.62344 117.273 8.57557 117.319 8.50783C117.577 8.12691 117.851 7.75777 118.116 7.38229C118.55 6.76891 118.941 6.13218 119.32 5.48326C119.509 5.15824 119.883 4.5269 120.048 4.13146C120.137 3.91971 120.136 3.93272 120.073 3.77869C119.953 3.48437 119.634 3.29813 119.36 3.15773C119.063 3.00557 118.771 3.02056 118.462 3.13893C118.108 3.27422 117.718 3.49197 117.5 3.80978C117.226 4.20961 117.095 4.61561 117.062 5.09652C117.024 5.64507 117.028 6.21478 117.119 6.75771C117.171 7.0702 117.208 7.38763 117.249 7.70181C117.279 7.93801 117.297 8.16558 117.226 8.39433" stroke="#8151FB" stroke-linecap="round"/>
<path d="M121.909 7.9301C122.025 7.74174 122.148 7.63739 122.344 7.51466C122.68 7.30395 123.069 7.05869 123.458 6.95674C123.758 6.87818 124.109 6.94745 124.415 6.94116C124.856 6.93212 125.29 6.82699 125.73 6.80181C126.338 6.76704 126.911 6.70349 127.508 6.58047C128.469 6.38247 129.351 5.9081 129.955 5.12454C130.233 4.76326 130.467 4.3588 130.483 3.89166C130.498 3.47122 130.281 2.98625 130.041 2.64595C129.642 2.08132 128.797 1.59804 128.121 1.51058C127.246 1.39737 126.323 1.97985 125.68 2.51523C124.647 3.37626 123.778 4.28957 123.123 5.47289C122.849 5.96608 122.593 6.4519 122.411 6.98721C122.307 7.29069 122.266 7.60942 122.101 7.88534" stroke="#8151FB" stroke-linecap="round"/>
<path d="M13.3838 37.7651C12.8855 39.0356 12.9946 40.5153 13.1169 41.8414C13.1795 42.5206 13.2557 42.9818 13.3718 43.6135C13.4257 43.907 13.3987 43.8467 13.4271 43.7521" stroke="#8151FB" stroke-linecap="round"/>
<path d="M16.6295 37.7651C16.1501 38.4091 16.0515 39.3352 15.9707 40.1094C15.9248 40.5485 15.8867 40.9924 15.8969 41.4343C15.9099 41.9973 15.9991 42.5504 16.1093 43.1013C16.1446 43.2776 16.1707 43.4558 16.2143 43.6303C16.2484 43.7669 16.2116 43.5699 16.2103 43.5109C16.1937 42.7485 16.1954 41.9877 16.2183 41.2251C16.2435 40.3844 16.2477 39.5153 16.5381 38.7157C16.589 38.5754 16.6506 38.4354 16.6864 38.2901C16.703 38.2228 16.7049 38.1192 16.7529 38.0625C16.776 38.0352 16.8866 38.0342 16.8747 38.0104" stroke="#8151FB" stroke-linecap="round"/>
<path d="M16.5143 38.1114C16.8294 38.0873 17.1546 38.1496 17.4665 38.1835C17.9392 38.2348 18.4124 38.282 18.8851 38.3342C19.6294 38.4163 20.3653 38.3997 21.1139 38.3863C21.603 38.3775 22.1087 38.4088 22.5927 38.3245C22.7924 38.2898 23.0645 38.2244 23.1906 38.0472C23.3359 37.8429 23.3482 37.5448 23.3589 37.3059C23.3786 36.863 23.332 36.4468 23.2595 36.0115C23.1754 35.5072 22.9928 35.0287 22.7986 34.5576C22.5562 33.9694 22.2622 33.3953 21.9026 32.8697C21.267 31.9408 20.4312 31.1973 19.4894 30.5887C18.9484 30.2392 18.3942 29.9061 17.8215 29.6109C17.1883 29.2846 16.544 29.0832 15.8475 28.9393C14.8838 28.7402 13.8902 28.6454 12.9221 28.8736C12.5358 28.9647 12.1585 29.0659 11.7792 29.183C11.4607 29.2813 11.1499 29.3595 10.8527 29.5164C9.68298 30.1337 8.80669 31.0538 8.10848 32.1676C7.89533 32.5077 7.69115 32.8307 7.51859 33.1943C7.31494 33.6235 7.20785 34.0424 7.12908 34.5087C7.06598 34.8823 7.03032 35.2487 7.03691 35.6276C7.0408 35.8511 7.03193 36.0992 7.11545 36.3112C7.14547 36.3874 7.20917 36.3978 7.27334 36.4299C7.37185 36.4791 7.45347 36.5722 7.54584 36.6334C7.66399 36.7117 7.77677 36.7876 7.91372 36.8282C8.20587 36.9148 8.47561 37.0501 8.76248 37.1504C9.17628 37.295 9.61537 37.338 10.0432 37.4221C10.5901 37.5296 11.1217 37.6988 11.6814 37.7299C11.9789 37.7464 12.2938 37.7457 12.5887 37.6962C12.7316 37.6722 12.8889 37.6928 13.0231 37.6353" stroke="#8151FB" stroke-linecap="round"/>
<path d="M19.6738 30.8835C19.3859 31.2154 18.9729 31.5449 18.8739 31.9896C18.7813 32.4054 18.7017 32.8715 18.7953 33.2928C18.887 33.7051 19.1046 34.048 19.4846 34.2465C19.757 34.3888 20.1212 34.4278 20.4231 34.4084C20.8816 34.379 21.2508 34.0437 21.6245 33.8121C21.7324 33.7453 21.8235 33.6249 21.9379 33.5749C22.0016 33.547 21.9863 33.577 21.9531 33.6101" stroke="#8151FB" stroke-linecap="round"/>
<path d="M12.7344 29.6143C12.7777 29.7026 12.7963 29.7823 12.8113 29.8819C12.862 30.2172 12.9091 30.5787 12.8418 30.915C12.789 31.179 12.5972 31.4679 12.4154 31.6612C12.0054 32.0972 11.4154 32.1997 10.8413 32.1181C10.5107 32.071 10.2397 31.9861 9.99096 31.759C9.88284 31.6603 9.79054 31.5466 9.6872 31.4432C9.64697 31.403 9.61657 31.372 9.59744 31.3174C9.55962 31.2093 9.48238 31.1723 9.38745 31.1002" stroke="#8151FB" stroke-linecap="round"/>
<path d="M13.8022 35.5434C13.8209 35.4357 13.7974 35.3439 13.7653 35.2373C13.6712 34.9243 13.5489 34.5872 13.3053 34.3573C13.146 34.2069 12.8677 34.125 12.6513 34.1328C11.9979 34.1565 11.3856 34.6058 11.3433 35.2838C11.3149 35.7376 11.459 36.2437 11.9347 36.381C12.2059 36.4592 12.4999 36.4874 12.7771 36.4218C13.1055 36.3441 13.3659 36.0839 13.6002 35.8608" stroke="#8151FB" stroke-linecap="round"/>
<path d="M8.34603 43.3223C8.43468 43.6165 8.54153 43.913 8.59995 44.215C8.61052 44.2696 8.65128 44.4111 8.60394 44.3818C8.51751 44.3285 8.49395 44.2107 8.44707 44.1206C8.36884 43.9703 8.30053 43.8149 8.22904 43.6613C8.17733 43.5501 8.12882 43.4376 8.07748 43.3263C7.93376 43.0147 8.06789 43.2283 8.01765 43.2139C8.01263 43.2125 8.00947 43.2039 8.01699 43.2039C8.08211 43.2039 8.17527 43.374 8.19846 43.418C8.28729 43.5867 8.33453 43.7717 8.38724 43.9538C8.52575 44.4322 8.68248 44.9053 8.81931 45.3842C8.94466 45.8229 9.03082 46.2742 9.09451 46.7257C9.13385 47.0046 9.17338 47.2875 9.153 47.5699C9.14601 47.6667 9.13686 47.7634 9.1304 47.8603C9.1303 47.8619 9.13016 47.9513 9.14503 47.9381C9.20299 47.8866 9.17618 47.6814 9.1776 47.6297C9.18733 47.2735 9.18873 46.9102 9.13705 46.5568C9.06617 46.0722 8.9121 45.5981 8.75949 45.1343C8.54126 44.4711 8.29389 43.8233 7.89136 43.2505" stroke="#8151FB" stroke-linecap="round"/>
<path d="M6.08488 44.0642C6.19467 44.1212 6.22587 44.2111 6.27898 44.3274C6.51347 44.8411 6.7168 45.3779 6.81873 45.9347C6.94391 46.6185 6.94693 47.3142 6.89717 48.0054C6.88324 48.1989 6.86367 48.3918 6.84599 48.585C6.84231 48.6251 6.83858 48.6747 6.83269 48.7159C6.82996 48.7351 6.83183 48.7846 6.8174 48.7718C6.78536 48.7433 6.82672 48.5642 6.83203 48.5258C6.87542 48.2125 6.92335 47.9011 6.91844 47.5833C6.90777 46.8926 6.77428 46.2439 6.55284 45.5937C6.43345 45.2432 6.31061 44.8994 6.13939 44.5707C6.12235 44.538 5.99431 44.3514 6.07291 44.3514" stroke="#8151FB" stroke-linecap="round"/>
<path d="M7.99923 43.083C8.40215 42.9051 8.80294 42.7223 9.2057 42.5439C9.43785 42.4411 9.67493 42.3468 9.89835 42.2255C10.0294 42.1544 10.157 42.0775 10.2978 42.0268C10.3635 42.0031 10.426 41.9876 10.48 41.941C10.6157 41.824 10.5072 41.6351 10.4408 41.5109C10.1959 41.0535 9.87364 40.6407 9.50682 40.2739C8.75579 39.5229 7.74403 39.2496 6.73094 39.0575C6.2291 38.9623 5.70235 38.9431 5.19941 39.0468C4.97481 39.0931 4.75607 39.1588 4.53934 39.2329C4.3375 39.302 4.12333 39.3576 3.93644 39.4629C3.17403 39.8927 2.48198 40.4288 2.147 41.2617C1.97828 41.6811 1.79932 42.095 1.6325 42.5153C1.44064 42.9988 1.28316 43.491 1.12731 43.987C1.03523 44.2801 0.95998 44.5726 1.02362 44.8804C1.06202 45.0662 1.18104 45.2918 1.39586 45.2966C1.63173 45.3018 1.87543 45.2746 2.10977 45.2513C2.60493 45.2022 3.08523 45.1639 3.54957 44.9748C4.36636 44.6422 5.10528 44.1347 5.92928 43.8189C6.03774 43.7773 6.08236 43.7638 5.97448 43.8501C5.89334 43.915 5.79842 43.9629 5.70926 44.0156C5.55303 44.108 5.41634 44.2282 5.26455 44.3274C5.03857 44.475 4.80415 44.6208 4.56327 44.7422C4.25429 44.8979 3.88414 45.0751 3.5376 45.1171C3.08417 45.172 2.61599 45.1671 2.16029 45.1583C2.03736 45.1559 1.77139 45.1763 1.64912 45.0818C1.52206 44.9837 1.38183 44.852 1.30812 44.7076C1.09222 44.2846 1.11293 43.7312 1.16853 43.2765C1.24124 42.6817 1.43959 42.0994 1.73155 41.5774C2.31128 40.5409 3.19706 39.6049 4.33793 39.2024C4.74947 39.0572 5.19255 38.9366 5.62882 38.9032C6.12004 38.8657 6.63386 38.8926 7.12312 38.9458C7.60159 38.9977 8.0742 39.1252 8.50442 39.3446C9.02256 39.6089 9.37264 40.0485 9.69295 40.5238C9.79706 40.6783 9.90838 40.8332 9.98808 41.0024C10.0425 41.1181 10.0825 41.2396 10.1383 41.3547C10.1825 41.4459 10.2394 41.5324 10.2247 41.6353" stroke="#8151FB" stroke-linecap="round"/>
<path d="M6.04766 39.4226C5.96925 39.4858 5.94318 39.5679 5.89876 39.6592C5.69937 40.0693 5.47203 40.4812 5.08846 40.7474C4.78024 40.9613 4.38725 41.0052 4.03354 40.897C3.78654 40.8214 3.57711 40.6582 3.35885 40.526C3.22103 40.4426 3.13514 40.3573 3.04443 40.2243" stroke="#8151FB" stroke-linecap="round"/>
<path d="M4.34978 43.9327C4.17611 43.5854 3.92789 43.2616 3.63453 43.0074C3.37654 42.7838 3.05321 42.5636 2.70791 42.683C2.35993 42.8033 2.09796 43.1244 1.91356 43.4302C1.76491 43.6767 1.6962 43.9314 1.72412 44.2185C1.72781 44.2566 1.72541 44.4914 1.7414 44.3634" stroke="#8151FB" stroke-linecap="round"/>
<path d="M8.75769 40.0164C8.66008 40.025 8.59321 40.1056 8.53567 40.1799C8.36807 40.3962 8.21198 40.6711 8.23522 40.9549C8.25029 41.139 8.44523 41.355 8.59084 41.4548C8.71655 41.541 8.89215 41.5216 9.03554 41.5432C9.25449 41.5762 9.42045 41.6061 9.63114 41.5359" stroke="#8151FB" stroke-linecap="round"/>
<path d="M200.44 47.4116C200.514 47.9794 200.465 48.5793 200.467 49.1483C200.468 49.3991 200.446 49.651 200.471 49.9006C200.484 50.0313 200.47 50.2058 200.579 50.2796C200.668 50.3402 200.799 50.2457 200.887 50.1835C201.059 50.0615 202.259 48.8986 202.298 48.8626" stroke="#8151FB" stroke-linecap="round"/>
<path d="M202.451 48.4553C202.752 48.4693 202.889 49.066 202.971 49.2671C203.101 49.5835 203.195 49.8284 203.285 50.1524C203.347 50.3762 203.364 50.6113 203.441 50.8312C203.583 51.2374 204.112 51.8961 204.552 51.4308C204.942 51.0193 204.908 50.3558 205.059 49.8469C205.128 49.6134 205.429 49.1446 205.672 49.4934C205.996 49.9568 205.98 50.7405 206.015 51.2781C206.077 52.2539 206.157 53.2604 206.498 54.1857C206.552 54.3306 206.83 55.1469 207.109 55.0512C207.277 54.9937 207.32 54.6776 207.35 54.5392C207.432 54.1617 207.47 53.7766 207.517 53.3937C207.619 52.5622 207.667 51.6926 207.924 50.8906C208.034 50.5453 208.229 50.2356 208.549 50.0506C209.026 49.7748 209.179 50.8997 209.593 50.5484C209.928 50.2636 210.108 50.046 210.566 50.0025C211.131 49.9487 211.492 49.6606 211.838 49.2275C212.079 48.9268 212.315 48.5952 212.635 48.3719C212.862 48.2131 213.164 48.1619 213.417 48.0565C213.856 47.8733 214.334 47.6514 214.542 47.208" stroke="#8151FB" stroke-linecap="round"/>
</svg>
