<svg width="392" height="1385" viewBox="0 0 392 1385" fill="none" xmlns="http://www.w3.org/2000/svg">
<g filter="">
<rect x="291" y="126" width="25" height="25" fill="#57CFBA"/>
<rect x="291" y="177" width="25" height="25" fill="#57CFBA"/>
<rect x="366" y="1.00049" width="25" height="25" fill="#57CFBA"/>
<rect x="366" y="51" width="25" height="25" fill="#57CFBA"/>
<rect x="341" y="76" width="25" height="25" fill="#57CFBA"/>
<rect x="316" y="101" width="25" height="25" fill="#57CFBA"/>
<rect x="341" y="126" width="25" height="25" fill="#57CFBA"/>
<rect x="316" y="151" width="25" height="25" fill="#57CFBA"/>
<rect x="266" y="151" width="25" height="25" fill="#57CFBA"/>
<rect x="316" y="201" width="25" height="25" fill="#57CFBA"/>
<rect x="316" y="251" width="25" height="25" fill="#57CFBA"/>
<rect x="341" y="176" width="25" height="25" fill="#57CFBA"/>
<rect x="341" y="226" width="25" height="25" fill="#57CFBA"/>
<rect x="341" y="276" width="25" height="25" fill="#57CFBA"/>
<rect x="366" y="101" width="25" height="25" fill="#57CFBA"/>
<rect x="366" y="151" width="25" height="25" fill="#57CFBA"/>
<rect x="366" y="201" width="25" height="25" fill="#57CFBA"/>
<rect x="366" y="251" width="25" height="25" fill="#57CFBA"/>
<rect x="341" y="26" width="25" height="25" fill="#57CFBA"/>
<rect x="316" y="51" width="25" height="25" fill="#57CFBA"/>
<path d="M353.5 51C355.972 51 358.389 51.7331 360.445 53.1066C362.5 54.4801 364.102 56.4324 365.048 58.7165C365.995 61.0005 366.242 63.5139 365.76 65.9386C365.277 68.3634 364.087 70.5907 362.339 72.3388C360.591 74.087 358.363 75.2775 355.939 75.7598C353.514 76.2421 351.001 75.9946 348.716 75.0485C346.432 74.1024 344.48 72.5002 343.107 70.4446C341.733 68.389 341 65.9723 341 63.5L353.5 63.5L353.5 51Z" fill="#F8931F"/>
<path d="M353.5 1.21679C355.142 1.21679 356.767 1.54011 358.284 2.1683C359.8 2.79648 361.178 3.71722 362.339 4.87796C363.5 6.03869 364.42 7.41668 365.048 8.93325C365.677 10.4498 366 12.0753 366 13.7168C366 15.3583 365.677 16.9838 365.048 18.5003C364.42 20.0169 363.5 21.3949 362.339 22.5556C361.178 23.7164 359.8 24.6371 358.284 25.2653C356.767 25.8935 355.142 26.2168 353.5 26.2168L353.5 13.7168L353.5 1.21679Z" fill="#1173D9"/>
<path d="M365.533 162.101C365.533 163.712 365.216 165.307 364.6 166.795C363.983 168.283 363.08 169.635 361.941 170.775C360.802 171.914 359.449 172.817 357.961 173.434C356.473 174.05 354.878 174.367 353.267 174.367C351.656 174.367 350.061 174.05 348.572 173.434C347.084 172.817 345.732 171.914 344.593 170.775C343.454 169.635 342.55 168.283 341.934 166.795C341.317 165.307 341 163.712 341 162.101L353.267 162.101H365.533Z" fill="#EF5A2B"/>
<path d="M341 0.999993C342.642 0.999993 344.267 1.32331 345.784 1.9515C347.3 2.57968 348.678 3.50043 349.839 4.66116C351 5.82189 351.92 7.19988 352.548 8.71645C353.177 10.233 353.5 11.8585 353.5 13.5C353.5 15.1415 353.177 16.767 352.548 18.2835C351.92 19.8001 351 21.1781 349.839 22.3388C348.678 23.4996 347.3 24.4203 345.784 25.0485C344.267 25.6767 342.642 26 341 26L341 13.5L341 0.999993Z" fill="#1173D9"/>
<ellipse cx="378.5" cy="37.8652" rx="6.25" ry="6.25" fill="#8152FB"/>
</g>
<g filter="">
<rect x="291" y="1209" width="25" height="25" fill="#57CFBA"/>
<rect x="291" y="1260" width="25" height="25" fill="#57CFBA"/>
<rect x="366" y="1084" width="25" height="25" fill="#57CFBA"/>
<rect x="366" y="1134" width="25" height="25" fill="#57CFBA"/>
<rect x="341" y="1159" width="25" height="25" fill="#57CFBA"/>
<rect x="316" y="1184" width="25" height="25" fill="#57CFBA"/>
<rect x="341" y="1209" width="25" height="25" fill="#57CFBA"/>
<rect x="316" y="1234" width="25" height="25" fill="#57CFBA"/>
<rect x="266" y="1234" width="25" height="25" fill="#57CFBA"/>
<rect x="316" y="1284" width="25" height="25" fill="#57CFBA"/>
<rect x="316" y="1334" width="25" height="25" fill="#57CFBA"/>
<rect x="341" y="1259" width="25" height="25" fill="#57CFBA"/>
<rect x="341" y="1309" width="25" height="25" fill="#57CFBA"/>
<rect x="341" y="1359" width="25" height="25" fill="#57CFBA"/>
<rect x="366" y="1184" width="25" height="25" fill="#57CFBA"/>
<rect x="366" y="1234" width="25" height="25" fill="#57CFBA"/>
<rect x="366" y="1284" width="25" height="25" fill="#57CFBA"/>
<rect x="366" y="1334" width="25" height="25" fill="#57CFBA"/>
<rect x="341" y="1109" width="25" height="25" fill="#57CFBA"/>
<rect x="316" y="1134" width="25" height="25" fill="#57CFBA"/>
<path d="M353.5 1134C355.972 1134 358.389 1134.73 360.445 1136.11C362.5 1137.48 364.102 1139.43 365.048 1141.72C365.995 1144 366.242 1146.51 365.76 1148.94C365.277 1151.36 364.087 1153.59 362.339 1155.34C360.591 1157.09 358.363 1158.28 355.939 1158.76C353.514 1159.24 351.001 1158.99 348.716 1158.05C346.432 1157.1 344.48 1155.5 343.107 1153.44C341.733 1151.39 341 1148.97 341 1146.5L353.5 1146.5L353.5 1134Z" fill="#F8931F"/>
<path d="M353.5 1084.22C355.142 1084.22 356.767 1084.54 358.284 1085.17C359.8 1085.8 361.178 1086.72 362.339 1087.88C363.5 1089.04 364.42 1090.42 365.048 1091.93C365.677 1093.45 366 1095.08 366 1096.72C366 1098.36 365.677 1099.98 365.048 1101.5C364.42 1103.02 363.5 1104.39 362.339 1105.56C361.178 1106.72 359.8 1107.64 358.284 1108.27C356.767 1108.89 355.142 1109.22 353.5 1109.22L353.5 1096.72L353.5 1084.22Z" fill="#1173D9"/>
<path d="M365.533 1245.1C365.533 1246.71 365.216 1248.31 364.6 1249.79C363.983 1251.28 363.08 1252.64 361.941 1253.77C360.802 1254.91 359.449 1255.82 357.961 1256.43C356.473 1257.05 354.878 1257.37 353.267 1257.37C351.656 1257.37 350.061 1257.05 348.572 1256.43C347.084 1255.82 345.732 1254.91 344.593 1253.77C343.454 1252.64 342.55 1251.28 341.934 1249.79C341.317 1248.31 341 1246.71 341 1245.1L353.267 1245.1H365.533Z" fill="#EF5A2B"/>
<path d="M341 1084C342.642 1084 344.267 1084.32 345.784 1084.95C347.3 1085.58 348.678 1086.5 349.839 1087.66C351 1088.82 351.92 1090.2 352.548 1091.72C353.177 1093.23 353.5 1094.86 353.5 1096.5C353.5 1098.14 353.177 1099.77 352.548 1101.28C351.92 1102.8 351 1104.18 349.839 1105.34C348.678 1106.5 347.3 1107.42 345.784 1108.05C344.267 1108.68 342.642 1109 341 1109L341 1096.5L341 1084Z" fill="#1173D9"/>
<ellipse cx="378.5" cy="1120.87" rx="6.25" ry="6.25" fill="#8152FB"/>
</g>
<g filter="">
<rect x="341" y="591" width="25" height="25" fill="#57CFBA"/>
<rect x="316" y="616" width="25" height="25" fill="#57CFBA"/>
<rect x="291" y="641.216" width="25" height="25" fill="#57CFBA"/>
<rect x="366" y="616" width="25" height="25" fill="#57CFBA"/>
<rect x="366" y="666" width="25" height="25" fill="#57CFBA"/>
<rect x="341" y="691" width="25" height="25" fill="#57CFBA"/>
<rect x="291" y="691" width="25" height="25" fill="#57CFBA"/>
<rect x="316" y="716" width="25" height="25" fill="#57CFBA"/>
<rect x="341" y="741" width="25" height="25" fill="#57CFBA"/>
<rect x="341" y="791" width="25" height="25" fill="#57CFBA"/>
<rect x="366" y="716" width="25" height="25" fill="#57CFBA"/>
<rect x="366" y="766" width="25" height="25" fill="#57CFBA"/>
<rect x="341" y="641" width="25" height="25" fill="#57CFBA"/>
<rect x="316" y="666" width="25" height="25" fill="#57CFBA"/>
<rect x="266" y="666" width="25" height="25" fill="#57CFBA"/>
<path d="M353.5 666C355.972 666 358.389 666.733 360.445 668.107C362.5 669.48 364.102 671.432 365.048 673.716C365.995 676.001 366.242 678.514 365.76 680.939C365.277 683.363 364.087 685.591 362.339 687.339C360.591 689.087 358.363 690.278 355.939 690.76C353.514 691.242 351.001 690.995 348.716 690.048C346.432 689.102 344.48 687.5 343.107 685.445C341.733 683.389 341 680.972 341 678.5L353.5 678.5L353.5 666Z" fill="#F8931F"/>
<path d="M353.5 616.216C355.142 616.216 356.767 616.54 358.284 617.168C359.8 617.796 361.178 618.717 362.339 619.877C363.5 621.038 364.42 622.416 365.048 623.933C365.677 625.449 366 627.075 366 628.716C366 630.358 365.677 631.983 365.048 633.5C364.42 635.016 363.5 636.394 362.339 637.555C361.178 638.716 359.8 639.637 358.284 640.265C356.767 640.893 355.142 641.216 353.5 641.216L353.5 628.716L353.5 616.216Z" fill="#1173D9"/>
<path d="M390.533 753.1C390.533 754.711 390.216 756.306 389.6 757.794C388.983 759.283 388.08 760.635 386.941 761.774C385.802 762.913 384.449 763.817 382.961 764.433C381.473 765.05 379.878 765.367 378.267 765.367C376.656 765.367 375.061 765.05 373.572 764.433C372.084 763.817 370.732 762.913 369.593 761.774C368.454 760.635 367.55 759.283 366.934 757.794C366.317 756.306 366 754.711 366 753.1L378.267 753.1H390.533Z" fill="#EF5A2B"/>
<path d="M341 616C342.642 616 344.267 616.323 345.784 616.951C347.3 617.58 348.678 618.5 349.839 619.661C351 620.822 351.92 622.2 352.548 623.716C353.177 625.233 353.5 626.858 353.5 628.5C353.5 630.142 353.177 631.767 352.548 633.284C351.92 634.8 351 636.178 349.839 637.339C348.678 638.5 347.3 639.42 345.784 640.048C344.267 640.677 342.642 641 341 641L341 628.5L341 616Z" fill="#1173D9"/>
<ellipse cx="378.5" cy="652.865" rx="6.25" ry="6.25" fill="#8152FB"/>
</g>
<g filter="">
<rect x="51" y="579" width="25" height="25" transform="rotate(-180 51 579)" fill="#57CFBA"/>
<rect x="76" y="554" width="25" height="25" transform="rotate(-180 76 554)" fill="#57CFBA"/>
<rect x="101" y="528.784" width="25" height="25" transform="rotate(-180 101 528.784)" fill="#57CFBA"/>
<rect x="26" y="554" width="25" height="25" transform="rotate(-180 26 554)" fill="#57CFBA"/>
<rect x="26" y="504" width="25" height="25" transform="rotate(-180 26 504)" fill="#57CFBA"/>
<rect x="51" y="479" width="25" height="25" transform="rotate(-180 51 479)" fill="#57CFBA"/>
<rect x="101" y="479" width="25" height="25" transform="rotate(-180 101 479)" fill="#57CFBA"/>
<rect x="76" y="404" width="25" height="25" transform="rotate(-180 76 404)" fill="#57CFBA"/>
<rect x="76" y="454" width="25" height="25" transform="rotate(-180 76 454)" fill="#57CFBA"/>
<rect x="51" y="429" width="25" height="25" transform="rotate(-180 51 429)" fill="#57CFBA"/>
<rect x="51" y="379" width="25" height="25" transform="rotate(-180 51 379)" fill="#57CFBA"/>
<rect x="26" y="454" width="25" height="25" transform="rotate(-180 26 454)" fill="#57CFBA"/>
<rect x="26" y="404" width="25" height="25" transform="rotate(-180 26 404)" fill="#57CFBA"/>
<rect x="51" y="529" width="25" height="25" transform="rotate(-180 51 529)" fill="#57CFBA"/>
<rect x="76" y="504" width="25" height="25" transform="rotate(-180 76 504)" fill="#57CFBA"/>
<rect x="126" y="504" width="25" height="25" transform="rotate(-180 126 504)" fill="#57CFBA"/>
<rect x="101" y="429" width="25" height="25" transform="rotate(-180 101 429)" fill="#57CFBA"/>
<path d="M38.5 504C36.0277 504 33.611 503.267 31.5554 501.893C29.4998 500.52 27.8976 498.568 26.9515 496.284C26.0054 493.999 25.7579 491.486 26.2402 489.061C26.7225 486.637 27.913 484.409 29.6612 482.661C31.4093 480.913 33.6366 479.722 36.0614 479.24C38.4861 478.758 40.9995 479.005 43.2835 479.952C45.5676 480.898 47.5199 482.5 48.8934 484.555C50.2669 486.611 51 489.028 51 491.5L38.5 491.5L38.5 504Z" fill="#F8931F"/>
<path d="M38.5 553.784C36.8585 553.784 35.233 553.46 33.7165 552.832C32.1999 552.204 30.8219 551.283 29.6612 550.123C28.5004 548.962 27.5797 547.584 26.9515 546.067C26.3233 544.551 26 542.925 26 541.284C26 539.642 26.3233 538.017 26.9515 536.5C27.5797 534.984 28.5004 533.606 29.6612 532.445C30.8219 531.284 32.1999 530.363 33.7165 529.735C35.233 529.107 36.8585 528.784 38.5 528.784L38.5 541.284L38.5 553.784Z" fill="#1173D9"/>
<path d="M1.46657 416.9C1.46657 415.289 1.78386 413.694 2.40032 412.206C3.01678 410.717 3.92034 409.365 5.05941 408.226C6.19848 407.087 7.55075 406.183 9.03902 405.567C10.5273 404.95 12.1224 404.633 13.7333 404.633C15.3442 404.633 16.9393 404.95 18.4276 405.567C19.9158 406.183 21.2681 407.087 22.4072 408.226C23.5462 409.365 24.4498 410.717 25.0663 412.206C25.6827 413.694 26 415.289 26 416.9L13.7333 416.9H1.46657Z" fill="#EF5A2B"/>
<path d="M51 554C49.3585 554 47.733 553.677 46.2165 553.049C44.6999 552.42 43.3219 551.5 42.1612 550.339C41.0004 549.178 40.0797 547.8 39.4515 546.284C38.8233 544.767 38.5 543.142 38.5 541.5C38.5 539.858 38.8233 538.233 39.4515 536.716C40.0797 535.2 41.0004 533.822 42.1612 532.661C43.3219 531.5 44.6999 530.58 46.2165 529.952C47.733 529.323 49.3585 529 51 529L51 541.5L51 554Z" fill="#1173D9"/>
<ellipse cx="13.5" cy="517.135" rx="6.25" ry="6.25" transform="rotate(-180 13.5 517.135)" fill="#8152FB"/>
</g>
<g filter="">
<rect x="51" y="1059" width="25" height="25" transform="rotate(-180 51 1059)" fill="#57CFBA"/>
<rect x="76" y="1034" width="25" height="25" transform="rotate(-180 76 1034)" fill="#57CFBA"/>
<rect x="101" y="1008.78" width="25" height="25" transform="rotate(-180 101 1008.78)" fill="#57CFBA"/>
<rect x="26" y="1034" width="25" height="25" transform="rotate(-180 26 1034)" fill="#57CFBA"/>
<rect x="26" y="984" width="25" height="25" transform="rotate(-180 26 984)" fill="#57CFBA"/>
<rect x="51" y="959" width="25" height="25" transform="rotate(-180 51 959)" fill="#57CFBA"/>
<rect x="101" y="959" width="25" height="25" transform="rotate(-180 101 959)" fill="#57CFBA"/>
<rect x="76" y="884" width="25" height="25" transform="rotate(-180 76 884)" fill="#57CFBA"/>
<rect x="76" y="934" width="25" height="25" transform="rotate(-180 76 934)" fill="#57CFBA"/>
<rect x="51" y="909" width="25" height="25" transform="rotate(-180 51 909)" fill="#57CFBA"/>
<rect x="51" y="859" width="25" height="25" transform="rotate(-180 51 859)" fill="#57CFBA"/>
<rect x="26" y="934" width="25" height="25" transform="rotate(-180 26 934)" fill="#57CFBA"/>
<rect x="26" y="884" width="25" height="25" transform="rotate(-180 26 884)" fill="#57CFBA"/>
<rect x="51" y="1009" width="25" height="25" transform="rotate(-180 51 1009)" fill="#57CFBA"/>
<rect x="76" y="984" width="25" height="25" transform="rotate(-180 76 984)" fill="#57CFBA"/>
<rect x="126" y="984" width="25" height="25" transform="rotate(-180 126 984)" fill="#57CFBA"/>
<rect x="101" y="909" width="25" height="25" transform="rotate(-180 101 909)" fill="#57CFBA"/>
<path d="M38.5 984C36.0277 984 33.611 983.267 31.5554 981.893C29.4998 980.52 27.8976 978.568 26.9515 976.284C26.0054 973.999 25.7579 971.486 26.2402 969.061C26.7225 966.637 27.913 964.409 29.6612 962.661C31.4093 960.913 33.6366 959.722 36.0614 959.24C38.4861 958.758 40.9995 959.005 43.2835 959.952C45.5676 960.898 47.5199 962.5 48.8934 964.555C50.2669 966.611 51 969.028 51 971.5L38.5 971.5L38.5 984Z" fill="#F8931F"/>
<path d="M38.5 1033.78C36.8585 1033.78 35.233 1033.46 33.7165 1032.83C32.1999 1032.2 30.8219 1031.28 29.6612 1030.12C28.5004 1028.96 27.5797 1027.58 26.9515 1026.07C26.3233 1024.55 26 1022.93 26 1021.28C26 1019.64 26.3233 1018.02 26.9515 1016.5C27.5797 1014.98 28.5004 1013.61 29.6612 1012.44C30.8219 1011.28 32.1999 1010.36 33.7165 1009.74C35.233 1009.11 36.8585 1008.78 38.5 1008.78L38.5 1021.28L38.5 1033.78Z" fill="#1173D9"/>
<path d="M1.46657 896.9C1.46657 895.289 1.78386 893.694 2.40032 892.206C3.01678 890.717 3.92034 889.365 5.05941 888.226C6.19848 887.087 7.55075 886.183 9.03902 885.567C10.5273 884.95 12.1224 884.633 13.7333 884.633C15.3442 884.633 16.9393 884.95 18.4276 885.567C19.9158 886.183 21.2681 887.087 22.4072 888.226C23.5462 889.365 24.4498 890.717 25.0663 892.206C25.6827 893.694 26 895.289 26 896.9L13.7333 896.9H1.46657Z" fill="#EF5A2B"/>
<path d="M51 1034C49.3585 1034 47.733 1033.68 46.2165 1033.05C44.6999 1032.42 43.3219 1031.5 42.1612 1030.34C41.0004 1029.18 40.0797 1027.8 39.4515 1026.28C38.8233 1024.77 38.5 1023.14 38.5 1021.5C38.5 1019.86 38.8233 1018.23 39.4515 1016.72C40.0797 1015.2 41.0004 1013.82 42.1612 1012.66C43.3219 1011.5 44.6999 1010.58 46.2165 1009.95C47.733 1009.32 49.3585 1009 51 1009L51 1021.5L51 1034Z" fill="#1173D9"/>
<ellipse cx="13.5" cy="997.135" rx="6.25" ry="6.25" transform="rotate(-180 13.5 997.135)" fill="#8152FB"/>
</g>
<defs>
<filter id="filter0_f_5457_183" x="265.5" y="0.5" width="126" height="301" filterUnits="userSpaceOnUse" color-interpolation-filters="sRGB">
<feFlood flood-opacity="0" result="BackgroundImageFix"/>
<feBlend mode="normal" in="SourceGraphic" in2="BackgroundImageFix" result="shape"/>
<feGaussianBlur stdDeviation="0.25" result="effect1_foregroundBlur_5457_183"/>
</filter>
<filter id="filter1_f_5457_183" x="265.5" y="1083.5" width="126" height="301" filterUnits="userSpaceOnUse" color-interpolation-filters="sRGB">
<feFlood flood-opacity="0" result="BackgroundImageFix"/>
<feBlend mode="normal" in="SourceGraphic" in2="BackgroundImageFix" result="shape"/>
<feGaussianBlur stdDeviation="0.25" result="effect1_foregroundBlur_5457_183"/>
</filter>
<filter id="filter2_f_5457_183" x="265.5" y="590.5" width="126" height="226" filterUnits="userSpaceOnUse" color-interpolation-filters="sRGB">
<feFlood flood-opacity="0" result="BackgroundImageFix"/>
<feBlend mode="normal" in="SourceGraphic" in2="BackgroundImageFix" result="shape"/>
<feGaussianBlur stdDeviation="0.25" result="effect1_foregroundBlur_5457_183"/>
</filter>
<filter id="filter3_f_5457_183" x="0.5" y="353.5" width="126" height="226" filterUnits="userSpaceOnUse" color-interpolation-filters="sRGB">
<feFlood flood-opacity="0" result="BackgroundImageFix"/>
<feBlend mode="normal" in="SourceGraphic" in2="BackgroundImageFix" result="shape"/>
<feGaussianBlur stdDeviation="0.25" result="effect1_foregroundBlur_5457_183"/>
</filter>
<filter id="filter4_f_5457_183" x="0.5" y="833.5" width="126" height="226" filterUnits="userSpaceOnUse" color-interpolation-filters="sRGB">
<feFlood flood-opacity="0" result="BackgroundImageFix"/>
<feBlend mode="normal" in="SourceGraphic" in2="BackgroundImageFix" result="shape"/>
<feGaussianBlur stdDeviation="0.25" result="effect1_foregroundBlur_5457_183"/>
</filter>
</defs>
</svg>
