<svg width="159" height="45" viewBox="0 0 159 45" fill="none" xmlns="http://www.w3.org/2000/svg">
<g filter="">
<path d="M19.5939 4.69997L20.9619 9.27198C21.2139 9.66798 21.4659 9.84798 21.7539 9.84798C21.8979 9.84798 22.0419 9.81198 22.1859 9.70398C22.8699 9.19998 22.6899 4.98797 26.1099 4.98797H27.4059C28.4859 4.98797 28.3419 6.71598 28.3419 9.23598V23.564C28.3419 26.516 27.3339 27.344 27.3339 28.172C27.3339 28.172 27.3339 29 28.3419 29H33.1299C33.8139 29 34.1379 28.712 34.1379 28.172C34.1379 27.344 33.1299 26.516 33.1299 23.564V9.23598C33.1299 6.71598 32.9859 4.98797 34.0659 4.98797H35.3259C38.7459 4.98797 38.5299 9.27198 39.2499 9.70398C39.5379 9.88398 39.3579 9.77598 39.7179 9.77598C40.0059 9.77598 40.2579 9.63198 40.4739 9.27198L41.8419 4.69997C41.9499 4.33997 42.2739 3.79997 41.4099 3.79997H20.0259C19.1619 3.79997 19.4859 4.33997 19.5939 4.69997ZM44.0829 16.616V23.564C44.0829 26.516 43.0749 27.344 43.0749 28.172C43.0749 28.172 43.0749 29 44.0829 29H48.8709C48.8709 29 49.8789 29 49.8789 28.172C49.8789 27.344 48.8709 26.516 48.8709 23.564V12.692C48.8709 11.396 48.4389 11 47.9349 11C47.4309 11 46.8549 11.36 46.4949 11.684L44.0829 13.664C42.7149 14.78 42.9669 15.464 44.0829 16.616ZM43.2189 5.31197C43.2189 7.14797 44.6589 8.58798 46.4949 8.58798C48.2949 8.58798 49.7349 7.14797 49.7349 5.31197C49.7349 3.51197 48.2949 1.99997 46.4949 1.99997C44.6589 1.99997 43.2189 3.51197 43.2189 5.31197ZM51.9579 16.472V23.564C51.9579 26.516 50.9499 27.344 50.9499 28.172C50.9499 28.712 51.2739 29 51.9579 29H56.746C56.746 29 57.754 29 57.754 28.172C57.754 27.344 56.746 26.516 56.746 23.564V14.096C57.646 13.16 58.618 12.584 59.446 12.584C61.462 12.584 61.354 14.852 61.246 18.164C61.102 22.196 60.49 24.968 60.418 27.128C60.382 28.46 60.958 29 61.57 29H66.106C66.682 29 67.15 28.712 67.15 28.172C67.15 27.2 66.25 26.948 66.034 25.868C65.746 24.464 65.566 17.3 65.242 15.104C66.358 13.592 67.726 12.584 68.806 12.584C70.822 12.584 70.714 14.852 70.606 18.164C70.462 22.196 69.85 24.968 69.778 27.128C69.742 28.46 70.318 29 70.93 29H75.466C76.042 29 76.51 28.712 76.51 28.172C76.51 27.2 75.61 26.948 75.394 25.868C75.106 24.392 74.89 16.652 74.566 14.852C74.098 12.188 72.046 10.64 69.742 10.64C67.654 10.64 66.106 11.9 64.81 13.556C64.018 11.684 62.29 10.64 60.382 10.64C58.942 10.64 57.754 11.252 56.71 12.188C56.602 11.288 56.17 11 55.702 11C55.234 11 54.694 11.252 54.37 11.54L51.9579 13.52C50.5899 14.636 51.9579 14.852 51.9579 16.472ZM86.1304 29.36C89.5864 29.36 91.8544 26.912 92.3224 25.4C92.6464 24.356 91.8184 23.6 90.9544 23.6C90.3784 23.6 89.7664 23.924 89.4784 24.716C88.8664 26.372 87.6784 28.172 86.1304 28.172C84.8704 28.172 82.8904 26.012 82.8904 20.396H86.6704C89.7304 20.396 92.6104 19.748 92.6104 16.22C92.6104 12.152 89.1544 10.64 85.8784 10.64C80.5864 10.64 77.5984 14.06 77.5984 19.676C77.5984 24.932 80.5864 29.36 86.1304 29.36ZM85.8784 11.828C86.9224 11.828 87.3184 14.06 87.3184 16.076C87.3184 17.516 86.9224 19.208 85.2304 19.208H82.9264C83.1424 14.348 84.8344 11.828 85.8784 11.828ZM94.708 7.47198V23.564C94.708 26.516 93.7 27.344 93.7 28.172C93.7 28.172 93.7 29 94.708 29H99.496C99.496 29 100.504 29 100.504 28.172C100.504 27.344 99.496 26.516 99.496 23.564V3.54797C99.496 2.35997 99.028 1.99997 98.452 1.99997C97.984 1.99997 97.444 2.25197 97.12 2.53997L94.708 4.51997C93.34 5.63597 94.708 5.85198 94.708 7.47198ZM102.583 16.616V23.564C102.583 26.516 101.575 27.344 101.575 28.172C101.575 28.172 101.575 29 102.583 29H107.371C107.371 29 108.379 29 108.379 28.172C108.379 27.344 107.371 26.516 107.371 23.564V12.692C107.371 11.396 106.939 11 106.435 11C105.931 11 105.355 11.36 104.995 11.684L102.583 13.664C101.215 14.78 101.467 15.464 102.583 16.616ZM101.719 5.31197C101.719 7.14797 103.159 8.58798 104.995 8.58798C106.795 8.58798 108.235 7.14797 108.235 5.31197C108.235 3.51197 106.795 1.99997 104.995 1.99997C103.159 1.99997 101.719 3.51197 101.719 5.31197ZM110.458 16.472V23.564C110.458 26.516 109.45 27.344 109.45 28.172C109.45 28.712 109.774 29 110.458 29H115.246C115.246 29 116.254 29 116.254 28.172C116.254 27.344 115.246 26.516 115.246 23.564V15.428C116.398 13.736 117.874 12.584 119.026 12.584C121.042 12.584 120.934 14.852 120.826 18.164C120.682 22.196 120.07 24.968 119.998 27.128C119.962 28.46 120.538 29 121.15 29H125.686C126.262 29 126.73 28.712 126.73 28.172C126.73 27.2 125.83 26.948 125.614 25.868C125.326 24.392 125.11 16.652 124.786 14.852C124.318 12.188 122.266 10.64 119.962 10.64C117.982 10.64 116.47 11.792 115.246 13.304V12.548C115.246 11.36 114.778 11 114.202 11C113.734 11 113.194 11.252 112.87 11.54L110.458 13.52C109.09 14.636 110.458 14.852 110.458 16.472ZM136.334 29.36C139.79 29.36 142.058 26.912 142.526 25.4C142.85 24.356 142.022 23.6 141.158 23.6C140.582 23.6 139.97 23.924 139.682 24.716C139.07 26.372 137.882 28.172 136.334 28.172C135.074 28.172 133.094 26.012 133.094 20.396H136.874C139.934 20.396 142.814 19.748 142.814 16.22C142.814 12.152 139.358 10.64 136.082 10.64C130.79 10.64 127.802 14.06 127.802 19.676C127.802 24.932 130.79 29.36 136.334 29.36ZM136.082 11.828C137.126 11.828 137.522 14.06 137.522 16.076C137.522 17.516 137.126 19.208 135.434 19.208H133.13C133.346 14.348 135.038 11.828 136.082 11.828Z" fill="#2F302D"/>
</g>
<path d="M24.6389 24.2429C22.8521 24.2429 21.1207 23.8734 19.6169 25.043C18.3971 25.9918 17.2224 27.3958 17.2224 28.9767C17.2224 30.1201 17.2374 30.8881 17.7355 31.8843C18.01 32.4331 18.6758 33.3731 19.1038 33.7657C19.5965 34.2176 20.1407 34.5977 20.8525 34.8167C21.5553 35.033 21.6693 35.134 22.3535 35.3051C23.3721 35.7578 26.4583 34.9591 27.3135 34.2789C28.7815 33.1112 29.0549 31.8298 29.3659 30.345C29.3659 29.5178 29.4706 28.8942 29.0538 28.0608C28.7483 27.4496 28.1457 26.6813 27.6556 26.2402C26.6824 25.3643 25.8379 24.3843 24.3561 24.3843" stroke="#8151FB" stroke-width="1.6875" stroke-linecap="round"/>
<path d="M22.8007 30.1817C22.8007 29.0794 22.8617 27.9608 22.5179 26.9294" stroke="#8151FB" stroke-width="1.6875" stroke-linecap="round"/>
<path d="M22.8007 30.4647C23.402 30.4647 23.8961 30.406 24.4268 30.1112C24.7781 29.916 25.9132 29.7543 26.0529 29.4749" stroke="#8151FB" stroke-width="1.6875" stroke-linecap="round"/>
<path d="M0 33.0322C1.38819 35.8086 3.64475 39.0123 5.83826 41.2058C6.69009 42.0576 7.57946 42.8953 8.40709 43.7746C9.20568 44.6231 4.45697 43.8355 3.76243 43.7487C2.24753 43.5593 0.68681 43.3076 3.26942 43.3076C4.83685 43.3076 6.32818 43.7746 7.94003 43.7746C10.3189 43.7746 9.34121 40.7869 9.34121 38.8964C9.34121 37.5645 9.34121 36.2325 9.34121 34.9005" stroke="#201E29" stroke-width="1.6875" stroke-linecap="round"/>
<path d="M158.552 36.1734C158.316 33.9258 155.947 31.598 155.029 29.5244C154.399 28.1006 153.627 26.6117 152.859 25.2448C152.591 24.769 152.077 23.26 152.077 23.8058C152.077 24.6869 151.686 25.5859 151.531 26.448C151.352 27.4458 151.407 28.4655 151.407 29.4748C151.407 29.9655 151.212 30.3601 151.184 30.8145C151.175 30.9563 151.184 29.5487 151.184 29.2515C151.184 28.2735 151.193 27.2997 151.457 26.3488C151.578 25.911 151.966 25.5647 152.065 25.1207C152.399 23.6182 157.223 28.1351 158.776 28.1351" stroke="#201E29" stroke-width="1.6875" stroke-linecap="round"/>
<defs>
<filter id="filter0_f_5152_149" x="18.6619" y="1.5" width="124.688" height="28.3601" filterUnits="userSpaceOnUse" color-interpolation-filters="sRGB">
<feFlood flood-opacity="0" result="BackgroundImageFix"/>
<feBlend mode="normal" in="SourceGraphic" in2="BackgroundImageFix" result="shape"/>
<feGaussianBlur stdDeviation="0.25" result="effect1_foregroundBlur_5152_149"/>
</filter>
</defs>
</svg>
