<svg width="580" height="127" viewBox="0 0 580 127" fill="none" xmlns="http://www.w3.org/2000/svg">
<path d="M550.431 1.0751L312.067 1.07433C293.967 1.07427 279.294 15.7472 279.294 33.8471C278.454 40.7337 276.642 50.579 269.345 55.6929C278.08 56.1346 295.904 51.3359 300.245 46.3881C306.967 54.3387 316.849 58.9249 327.26 58.9249L550.431 58.9257C566.406 58.9258 579.357 45.9755 579.357 30.0004C579.357 14.0254 566.406 1.07515 550.431 1.0751Z" fill="#3A2F56" stroke="black" stroke-width="0.781986" stroke-linecap="round"/>
<path d="M349.993 23.8251V37H346.784V31.5761H341.792V37H338.583V23.8251H341.792V28.9862H346.784V23.8251H349.993ZM351.672 31.7451C351.672 30.669 351.872 29.7244 352.273 28.9111C352.685 28.0979 353.242 27.4723 353.943 27.0344C354.644 26.5965 355.425 26.3775 356.289 26.3775C357.027 26.3775 357.671 26.5276 358.222 26.8279C358.785 27.1282 359.217 27.5223 359.517 28.0103V26.5276H362.726V37H359.517V35.5174C359.204 36.0053 358.766 36.3994 358.203 36.6997C357.653 37 357.008 37.1501 356.27 37.1501C355.419 37.1501 354.644 36.9312 353.943 36.4933C353.242 36.0428 352.685 35.411 352.273 34.5977C351.872 33.772 351.672 32.8211 351.672 31.7451ZM359.517 31.7638C359.517 30.9631 359.292 30.3312 358.841 29.8683C358.403 29.4053 357.865 29.1739 357.227 29.1739C356.589 29.1739 356.045 29.4053 355.594 29.8683C355.156 30.3187 354.938 30.9443 354.938 31.7451C354.938 32.5458 355.156 33.1839 355.594 33.6594C356.045 34.1223 356.589 34.3538 357.227 34.3538C357.865 34.3538 358.403 34.1223 358.841 33.6594C359.292 33.1964 359.517 32.5646 359.517 31.7638ZM369.759 33.9972L372.029 26.5276H375.445L371.729 37H367.769L364.053 26.5276H367.488L369.759 33.9972ZM386.668 31.5949C386.668 31.8952 386.649 32.208 386.611 32.5333H379.348C379.398 33.1839 379.605 33.6844 379.968 34.0347C380.343 34.3725 380.8 34.5414 381.338 34.5414C382.139 34.5414 382.695 34.2036 383.008 33.528H386.424C386.249 34.2161 385.93 34.8355 385.467 35.386C385.016 35.9365 384.447 36.3682 383.759 36.6809C383.071 36.9937 382.301 37.1501 381.45 37.1501C380.424 37.1501 379.511 36.9312 378.71 36.4933C377.91 36.0554 377.284 35.4298 376.834 34.6165C376.383 33.8032 376.158 32.8523 376.158 31.7638C376.158 30.6753 376.377 29.7244 376.815 28.9111C377.265 28.0979 377.891 27.4723 378.692 27.0344C379.492 26.5965 380.412 26.3775 381.45 26.3775C382.464 26.3775 383.365 26.5902 384.153 27.0156C384.941 27.441 385.554 28.0478 385.992 28.8361C386.443 29.6243 386.668 30.5439 386.668 31.5949ZM383.383 30.7504C383.383 30.1998 383.196 29.7619 382.82 29.4366C382.445 29.1113 381.976 28.9487 381.413 28.9487C380.875 28.9487 380.418 29.1051 380.043 29.4179C379.68 29.7307 379.455 30.1748 379.367 30.7504H383.383ZM391.7 31.7451C391.7 30.669 391.9 29.7244 392.3 28.9111C392.713 28.0979 393.27 27.4723 393.971 27.0344C394.671 26.5965 395.453 26.3775 396.317 26.3775C397.055 26.3775 397.699 26.5276 398.25 26.8279C398.813 27.1282 399.244 27.5223 399.545 28.0103V26.5276H402.754V37H399.545V35.5174C399.232 36.0053 398.794 36.3994 398.231 36.6997C397.681 37 397.036 37.1501 396.298 37.1501C395.447 37.1501 394.671 36.9312 393.971 36.4933C393.27 36.0428 392.713 35.411 392.3 34.5977C391.9 33.772 391.7 32.8211 391.7 31.7451ZM399.545 31.7638C399.545 30.9631 399.32 30.3312 398.869 29.8683C398.431 29.4053 397.893 29.1739 397.255 29.1739C396.617 29.1739 396.073 29.4053 395.622 29.8683C395.184 30.3187 394.965 30.9443 394.965 31.7451C394.965 32.5458 395.184 33.1839 395.622 33.6594C396.073 34.1223 396.617 34.3538 397.255 34.3538C397.893 34.3538 398.431 34.1223 398.869 33.6594C399.32 33.1964 399.545 32.5646 399.545 31.7638ZM411.457 26.415C412.683 26.415 413.659 26.8154 414.385 27.6162C415.123 28.4044 415.492 29.4929 415.492 30.8817V37H412.301V31.3134C412.301 30.6127 412.12 30.0685 411.757 29.6806C411.394 29.2927 410.906 29.0988 410.293 29.0988C409.68 29.0988 409.192 29.2927 408.829 29.6806C408.466 30.0685 408.285 30.6127 408.285 31.3134V37H405.076V26.5276H408.285V27.9164C408.61 27.4535 409.048 27.0907 409.599 26.8279C410.149 26.5527 410.769 26.415 411.457 26.415ZM428.42 26.5276L421.851 41.9734H418.398L420.8 36.6434L416.54 26.5276H420.124L422.545 33.0776L424.948 26.5276H428.42ZM432.919 31.7826C432.919 30.7441 433.132 29.8182 433.557 29.005C433.995 28.1917 434.577 27.5599 435.303 27.1094C436.041 26.6465 436.842 26.415 437.705 26.415C438.368 26.415 438.962 26.5339 439.488 26.7716C440.013 26.9968 440.439 27.3159 440.764 27.7288V26.5276H443.973V41.9922H440.764V35.6863C440.401 36.1242 439.957 36.4745 439.431 36.7373C438.919 37 438.33 37.1314 437.667 37.1314C436.817 37.1314 436.028 36.9062 435.303 36.4557C434.577 36.0053 433.995 35.3735 433.557 34.5602C433.132 33.7469 432.919 32.8211 432.919 31.7826ZM440.764 31.7638C440.764 31.2008 440.651 30.7316 440.426 30.3562C440.213 29.9684 439.932 29.6806 439.582 29.4929C439.231 29.2927 438.862 29.1927 438.474 29.1927C438.099 29.1927 437.736 29.2927 437.386 29.4929C437.035 29.6806 436.748 29.9684 436.522 30.3562C436.297 30.7441 436.185 31.2196 436.185 31.7826C436.185 32.3456 436.297 32.8211 436.522 33.2089C436.748 33.5843 437.035 33.8721 437.386 34.0722C437.736 34.2599 438.099 34.3538 438.474 34.3538C438.85 34.3538 439.213 34.2599 439.563 34.0722C439.926 33.8721 440.213 33.578 440.426 33.1902C440.651 32.8023 440.764 32.3269 440.764 31.7638ZM456.636 26.5276V37H453.427V35.5737C453.101 36.0366 452.657 36.4119 452.094 36.6997C451.544 36.975 450.931 37.1126 450.255 37.1126C449.454 37.1126 448.747 36.9374 448.134 36.5871C447.521 36.2243 447.046 35.705 446.708 35.0294C446.37 34.3538 446.201 33.5593 446.201 32.6459V26.5276H449.392V32.2142C449.392 32.9149 449.573 33.4592 449.936 33.847C450.299 34.2349 450.787 34.4288 451.4 34.4288C452.025 34.4288 452.52 34.2349 452.882 33.847C453.245 33.4592 453.427 32.9149 453.427 32.2142V26.5276H456.636ZM468.813 31.5949C468.813 31.8952 468.794 32.208 468.757 32.5333H461.494C461.544 33.1839 461.75 33.6844 462.113 34.0347C462.488 34.3725 462.945 34.5414 463.483 34.5414C464.284 34.5414 464.841 34.2036 465.153 33.528H468.569C468.394 34.2161 468.075 34.8355 467.612 35.386C467.161 35.9365 466.592 36.3682 465.904 36.6809C465.216 36.9937 464.446 37.1501 463.596 37.1501C462.57 37.1501 461.656 36.9312 460.856 36.4933C460.055 36.0554 459.429 35.4298 458.979 34.6165C458.528 33.8032 458.303 32.8523 458.303 31.7638C458.303 30.6753 458.522 29.7244 458.96 28.9111C459.41 28.0979 460.036 27.4723 460.837 27.0344C461.637 26.5965 462.557 26.3775 463.596 26.3775C464.609 26.3775 465.51 26.5902 466.298 27.0156C467.086 27.441 467.699 28.0478 468.137 28.8361C468.588 29.6243 468.813 30.5439 468.813 31.5949ZM465.529 30.7504C465.529 30.1998 465.341 29.7619 464.966 29.4366C464.59 29.1113 464.121 28.9487 463.558 28.9487C463.02 28.9487 462.563 29.1051 462.188 29.4179C461.825 29.7307 461.6 30.1748 461.512 30.7504H465.529ZM474.766 37.1501C473.853 37.1501 473.04 36.9937 472.327 36.6809C471.613 36.3682 471.05 35.9428 470.637 35.4047C470.225 34.8542 469.993 34.2412 469.943 33.5655H473.115C473.152 33.9284 473.321 34.2224 473.621 34.4476C473.922 34.6728 474.291 34.7854 474.729 34.7854C475.129 34.7854 475.436 34.7103 475.648 34.5602C475.874 34.3975 475.986 34.1911 475.986 33.9409C475.986 33.6406 475.83 33.4216 475.517 33.284C475.204 33.1339 474.697 32.9712 473.997 32.796C473.246 32.6209 472.621 32.4395 472.12 32.2518C471.62 32.0516 471.188 31.7451 470.825 31.3322C470.462 30.9068 470.281 30.3375 470.281 29.6243C470.281 29.0237 470.443 28.4795 470.769 27.9915C471.107 27.491 471.595 27.0969 472.233 26.8092C472.883 26.5214 473.653 26.3775 474.541 26.3775C475.855 26.3775 476.887 26.7028 477.638 27.3534C478.401 28.004 478.839 28.8673 478.951 29.9434H475.986C475.936 29.5805 475.774 29.2927 475.498 29.08C475.236 28.8673 474.885 28.761 474.447 28.761C474.072 28.761 473.784 28.8361 473.584 28.9862C473.384 29.1238 473.284 29.3178 473.284 29.568C473.284 29.8683 473.44 30.0935 473.753 30.2436C474.078 30.3938 474.579 30.5439 475.254 30.6941C476.03 30.8943 476.662 31.0944 477.15 31.2946C477.638 31.4823 478.063 31.7951 478.426 32.233C478.801 32.6584 478.995 33.234 479.008 33.9596C479.008 34.5727 478.833 35.1232 478.482 35.6112C478.144 36.0866 477.65 36.462 477 36.7373C476.362 37.0125 475.617 37.1501 474.766 37.1501ZM486.808 34.2787V37H485.175C484.012 37 483.104 36.7185 482.454 36.1555C481.803 35.5799 481.478 34.6478 481.478 33.3591V29.1927H480.202V26.5276H481.478V23.9752H484.687V26.5276H486.789V29.1927H484.687V33.3966C484.687 33.7094 484.762 33.9346 484.912 34.0722C485.063 34.2099 485.313 34.2787 485.663 34.2787H486.808ZM490.21 25.4391C489.647 25.4391 489.184 25.2765 488.821 24.9512C488.47 24.6133 488.295 24.2005 488.295 23.7125C488.295 23.212 488.47 22.7991 488.821 22.4738C489.184 22.136 489.647 21.9671 490.21 21.9671C490.76 21.9671 491.211 22.136 491.561 22.4738C491.924 22.7991 492.105 23.212 492.105 23.7125C492.105 24.2005 491.924 24.6133 491.561 24.9512C491.211 25.2765 490.76 25.4391 490.21 25.4391ZM491.805 26.5276V37H488.596V26.5276H491.805ZM498.898 37.1501C497.872 37.1501 496.946 36.9312 496.12 36.4933C495.307 36.0554 494.662 35.4298 494.187 34.6165C493.724 33.8032 493.492 32.8523 493.492 31.7638C493.492 30.6878 493.73 29.7432 494.206 28.9299C494.681 28.1041 495.332 27.4723 496.157 27.0344C496.983 26.5965 497.909 26.3775 498.935 26.3775C499.961 26.3775 500.887 26.5965 501.713 27.0344C502.539 27.4723 503.189 28.1041 503.665 28.9299C504.14 29.7432 504.378 30.6878 504.378 31.7638C504.378 32.8398 504.134 33.7907 503.646 34.6165C503.17 35.4298 502.513 36.0554 501.675 36.4933C500.849 36.9312 499.924 37.1501 498.898 37.1501ZM498.898 34.3725C499.511 34.3725 500.03 34.1473 500.455 33.6969C500.893 33.2465 501.112 32.6021 501.112 31.7638C501.112 30.9255 500.899 30.2812 500.474 29.8308C500.061 29.3803 499.548 29.1551 498.935 29.1551C498.31 29.1551 497.79 29.3803 497.377 29.8308C496.965 30.2687 496.758 30.913 496.758 31.7638C496.758 32.6021 496.958 33.2465 497.359 33.6969C497.772 34.1473 498.285 34.3725 498.898 34.3725ZM512.461 26.415C513.687 26.415 514.663 26.8154 515.389 27.6162C516.127 28.4044 516.496 29.4929 516.496 30.8817V37H513.306V31.3134C513.306 30.6127 513.124 30.0685 512.762 29.6806C512.399 29.2927 511.911 29.0988 511.298 29.0988C510.685 29.0988 510.197 29.2927 509.834 29.6806C509.471 30.0685 509.29 30.6127 509.29 31.3134V37H506.08V26.5276H509.29V27.9164C509.615 27.4535 510.053 27.0907 510.603 26.8279C511.154 26.5527 511.773 26.415 512.461 26.415ZM522.987 37.1501C522.073 37.1501 521.26 36.9937 520.547 36.6809C519.834 36.3682 519.271 35.9428 518.858 35.4047C518.445 34.8542 518.214 34.2412 518.163 33.5655H521.335C521.373 33.9284 521.542 34.2224 521.842 34.4476C522.142 34.6728 522.511 34.7854 522.949 34.7854C523.35 34.7854 523.656 34.7103 523.869 34.5602C524.094 34.3975 524.207 34.1911 524.207 33.9409C524.207 33.6406 524.05 33.4216 523.737 33.284C523.425 33.1339 522.918 32.9712 522.217 32.796C521.467 32.6209 520.841 32.4395 520.341 32.2518C519.84 32.0516 519.408 31.7451 519.046 31.3322C518.683 30.9068 518.501 30.3375 518.501 29.6243C518.501 29.0237 518.664 28.4795 518.989 27.9915C519.327 27.491 519.815 27.0969 520.453 26.8092C521.104 26.5214 521.873 26.3775 522.762 26.3775C524.075 26.3775 525.107 26.7028 525.858 27.3534C526.621 28.004 527.059 28.8673 527.172 29.9434H524.207C524.157 29.5805 523.994 29.2927 523.719 29.08C523.456 28.8673 523.106 28.761 522.668 28.761C522.292 28.761 522.005 28.8361 521.804 28.9862C521.604 29.1238 521.504 29.3178 521.504 29.568C521.504 29.8683 521.661 30.0935 521.973 30.2436C522.299 30.3938 522.799 30.5439 523.475 30.6941C524.25 30.8943 524.882 31.0944 525.37 31.2946C525.858 31.4823 526.284 31.7951 526.646 32.233C527.022 32.6584 527.216 33.234 527.228 33.9596C527.228 34.5727 527.053 35.1232 526.703 35.6112C526.365 36.0866 525.871 36.462 525.22 36.7373C524.582 37.0125 523.838 37.1501 522.987 37.1501ZM533.039 23.0932C534.378 23.0932 535.448 23.4435 536.248 24.1441C537.062 24.8448 537.468 25.8332 537.468 27.1094C537.468 28.2855 537.08 29.2052 536.305 29.8683C535.541 30.5189 534.528 30.8505 533.264 30.863L533.17 32.2705H530.355L530.261 28.7798H531.387C532.351 28.7798 533.083 28.6609 533.583 28.4232C534.096 28.1855 534.353 27.7538 534.353 27.1282C534.353 26.6903 534.234 26.3462 533.996 26.096C533.758 25.8457 533.427 25.7206 533.002 25.7206C532.551 25.7206 532.201 25.852 531.951 26.1148C531.7 26.365 531.575 26.7091 531.575 27.147H528.554C528.529 26.3838 528.685 25.6956 529.023 25.0825C529.373 24.4695 529.886 23.9878 530.562 23.6374C531.25 23.2746 532.076 23.0932 533.039 23.0932ZM531.8 37.1501C531.237 37.1501 530.774 36.9875 530.412 36.6622C530.061 36.3244 529.886 35.9115 529.886 35.4235C529.886 34.923 530.061 34.5039 530.412 34.1661C530.774 33.8283 531.237 33.6594 531.8 33.6594C532.351 33.6594 532.801 33.8283 533.152 34.1661C533.514 34.5039 533.696 34.923 533.696 35.4235C533.696 35.9115 533.514 36.3244 533.152 36.6622C532.801 36.9875 532.351 37.1501 531.8 37.1501Z" fill="#FFE2DE"/>
<path fill-rule="evenodd" clip-rule="evenodd" d="M18.3906 40.375C17.8383 40.375 17.3906 40.8227 17.3906 41.375V51.574C17.3906 51.5763 17.3925 51.5781 17.3947 51.5781C17.397 51.5781 17.3988 51.58 17.3988 51.5822V65.3084C17.3988 65.3107 17.397 65.3125 17.3947 65.3125C17.3925 65.3125 17.3906 65.3143 17.3906 65.3166V90.0469C17.3906 90.5992 16.9429 91.0469 16.3906 91.0469H1C0.447715 91.0469 0 90.5992 0 90.0469V27.6406C0 27.0883 0.447713 26.6406 0.999998 26.6406H60.5469C61.0992 26.6406 61.5469 27.0883 61.5469 27.6406V39.375C61.5469 39.9273 61.0992 40.375 60.5469 40.375H18.3906ZM22.3988 65.3125C21.8465 65.3125 21.3988 64.8648 21.3988 64.3125V52.5781C21.3988 52.0258 21.8465 51.5781 22.3988 51.5781H58.25C58.8023 51.5781 59.25 52.0258 59.25 52.5781V64.3125C59.25 64.8648 58.8023 65.3125 58.25 65.3125H22.3988ZM87.5903 83.5271C87.5972 83.5133 87.5916 83.4965 87.5778 83.4896C87.5639 83.4827 87.5583 83.4659 87.5652 83.452L99.2147 60.0834C99.2169 60.0789 99.2224 60.077 99.2269 60.0793C99.2314 60.0815 99.2369 60.0797 99.2392 60.0752L107.054 44.3827C107.423 43.6424 108.48 43.6441 108.846 44.3855L118.959 64.8539C119.287 65.5185 118.804 66.2969 118.062 66.2969H102.031C101.651 66.2969 101.305 66.5114 101.136 66.8507L95.8701 77.4132C95.5387 78.0781 96.0222 78.8594 96.7651 78.8594H125.192C125.572 78.8594 125.919 79.0746 126.088 79.4149L131.584 90.4913C131.753 90.8316 132.1 91.0469 132.48 91.0469H149.614C150.365 91.0469 150.848 90.249 150.5 89.5832L117.843 27.177C117.671 26.8473 117.329 26.6406 116.957 26.6406H98.7616C98.3895 26.6406 98.0481 26.8473 97.8756 27.177L65.219 89.5832C64.8706 90.249 65.3536 91.0469 66.1051 91.0469H83.2392C83.6191 91.0469 83.9662 90.8316 84.135 90.4913L87.5903 83.5271ZM244.219 58.8906C244.219 62.3906 243.797 65.625 242.953 68.5938C242.539 70.0898 242.028 71.521 241.42 72.8873C241.21 73.3584 240.668 73.5754 240.185 73.3938C236.013 71.8242 231.021 69.8007 226.039 67.4795C225.548 67.251 225.336 66.6733 225.52 66.1646C225.705 65.6525 225.86 65.1341 225.984 64.6094C226.422 62.7344 226.641 60.8281 226.641 58.8906C226.641 56.4844 226.25 54.0938 225.469 51.7188C224.719 49.3125 223.359 47.1562 221.391 45.25C219.453 43.3438 216.797 41.7969 213.422 40.6094C210.047 39.4219 205.75 38.8281 200.531 38.8281C197.031 38.8281 193.953 39.1094 191.297 39.6719C188.641 40.2031 186.344 40.9531 184.406 41.9219C182.469 42.8906 180.844 44.0312 179.531 45.3438C178.219 46.625 177.172 48.0156 176.391 49.5156C175.609 50.9844 175.047 52.5312 174.703 54.1562C174.391 55.75 174.234 57.3281 174.234 58.8906C174.234 60.4844 174.391 62.0938 174.703 63.7188C175.047 65.3438 175.609 66.9062 176.391 68.4062C177.172 69.875 178.219 71.25 179.531 72.5312C180.844 73.8125 182.469 74.9375 184.406 75.9062C186.344 76.8438 188.641 77.5938 191.297 78.1562C193.953 78.6875 197.031 78.9531 200.531 78.9531C202.406 78.9531 204.156 78.875 205.781 78.7188C206.454 78.6541 207.112 78.5734 207.758 78.4767C208.677 78.3389 208.839 77.1468 208.018 76.7112C206.923 76.1304 205.85 75.5496 204.797 74.9688C203.325 74.1163 201.916 73.2746 200.572 72.4435C200.107 72.1558 199.963 71.5464 200.248 71.0791L206.121 61.4355C206.42 60.9446 207.07 60.8066 207.548 61.1256C209.558 62.4662 211.828 63.8306 214.359 65.2188C216.551 66.4204 218.831 67.6043 221.2 68.7705C221.204 68.7725 221.206 68.7774 221.203 68.7815C221.201 68.7855 221.203 68.7904 221.207 68.7925C227.473 71.9322 234.095 74.6551 239.391 76.6458C239.394 76.6468 239.395 76.6497 239.393 76.6519C239.392 76.6542 239.393 76.6571 239.395 76.6581C241.025 77.275 242.595 77.84 244.103 78.3528C244.362 78.443 244.614 78.53 244.859 78.6138C244.86 78.6144 244.862 78.6135 244.863 78.6118C244.863 78.6102 244.865 78.6093 244.867 78.6098C246.649 79.2029 248.343 79.7213 249.951 80.165C250.583 80.3393 250.89 81.0593 250.57 81.6313L244.547 92.4012C244.305 92.8347 243.781 93.0247 243.317 92.8462C241.046 91.9714 238.737 91.0591 236.391 90.1094C233.917 89.1081 231.429 88.0513 228.928 86.939C228.639 86.8105 228.307 86.8262 228.029 86.9769C224.509 88.8867 220.499 90.3215 216 91.2812C211.312 92.2812 206.156 92.7812 200.531 92.7812C193.812 92.7812 187.734 92.0625 182.297 90.625C176.891 89.1562 172.281 87 168.469 84.1562C164.656 81.3125 161.719 77.7812 159.656 73.5625C157.594 69.3125 156.562 64.4219 156.562 58.8906C156.562 53.3594 157.594 48.4844 159.656 44.2656C161.719 40.0156 164.656 36.4688 168.469 33.625C172.281 30.7812 176.891 28.6406 182.297 27.2031C187.734 25.7344 193.812 25 200.531 25C207.25 25 213.297 25.7344 218.672 27.2031C224.078 28.6406 228.672 30.7812 232.453 33.625C236.234 36.4688 239.141 40.0156 241.172 44.2656C243.203 48.4844 244.219 53.3594 244.219 58.8906Z" fill="#3A2F56"/>
<path fill-rule="evenodd" clip-rule="evenodd" d="M269.308 74.375C269.86 74.375 270.308 74.8227 270.308 75.375V85.5352C270.308 85.5589 270.288 85.5781 270.265 85.5781C270.241 85.5781 270.222 85.5973 270.222 85.6211V99.2696C270.222 99.2933 270.241 99.3125 270.265 99.3125C270.288 99.3125 270.308 99.3317 270.308 99.3554V124.047C270.308 124.599 270.755 125.047 271.308 125.047H286.698C287.251 125.047 287.698 124.599 287.698 124.047V61.6406C287.698 61.0883 287.251 60.6406 286.698 60.6406H227.151C226.599 60.6406 226.151 61.0883 226.151 61.6406V73.375C226.151 73.9273 226.599 74.375 227.151 74.375H269.308ZM266.216 99.3125C266.768 99.3125 267.216 98.8648 267.216 98.3125V86.5781C267.216 86.0258 266.768 85.5781 266.216 85.5781H229.448C228.896 85.5781 228.448 86.0258 228.448 86.5781V98.3125C228.448 98.8648 228.896 99.3125 229.448 99.3125H266.216ZM197.622 112.797C197.641 112.835 197.68 112.859 197.723 112.859C197.765 112.859 197.804 112.883 197.823 112.922L203.563 124.491C203.732 124.832 204.079 125.047 204.459 125.047H221.593C222.345 125.047 222.828 124.249 222.479 123.583L189.823 61.177C189.65 60.8473 189.309 60.6406 188.937 60.6406H170.741C170.369 60.6406 170.028 60.8473 169.855 61.177L137.199 123.583C136.85 124.249 137.333 125.047 138.085 125.047H155.219C155.599 125.047 155.946 124.832 156.115 124.491L161.61 113.415C161.779 113.075 162.126 112.859 162.506 112.859H192.678C193.421 112.859 193.904 112.077 193.572 111.413L188.297 100.85C188.127 100.511 187.781 100.297 187.402 100.297H169.636C168.895 100.297 168.411 99.5185 168.739 98.8539L178.852 78.3855C179.218 77.6441 180.275 77.6424 180.644 78.3827L191.518 100.217C191.536 100.254 191.509 100.297 191.468 100.297C191.427 100.297 191.4 100.34 191.419 100.377L197.622 112.797ZM43.4795 92.8906C43.4795 96.3906 43.9014 99.625 44.7451 102.594C45.1429 104.032 45.6305 105.41 46.208 106.728C46.416 107.203 46.9613 107.423 47.4463 107.239C51.6512 105.651 56.6393 103.62 61.5972 101.299C62.0821 101.072 62.295 100.503 62.1191 99.997C61.9599 99.5395 61.8248 99.0769 61.7139 98.6094C61.2764 96.7344 61.0576 94.8281 61.0576 92.8906C61.0576 90.4844 61.4482 88.0938 62.2295 85.7188C62.9795 83.3125 64.3389 81.1562 66.3076 79.25C68.2451 77.3438 70.9014 75.7969 74.2764 74.6094C77.6514 73.4219 81.9482 72.8281 87.167 72.8281C90.667 72.8281 93.7451 73.1094 96.4014 73.6719C99.0576 74.2031 101.354 74.9531 103.292 75.9219C105.229 76.8906 106.854 78.0312 108.167 79.3438C109.479 80.625 110.526 82.0156 111.308 83.5156C112.089 84.9844 112.651 86.5312 112.995 88.1562C113.308 89.75 113.464 91.3281 113.464 92.8906C113.464 94.4844 113.308 96.0938 112.995 97.7188C112.651 99.3438 112.089 100.906 111.308 102.406C110.526 103.875 109.479 105.25 108.167 106.531C106.854 107.812 105.229 108.938 103.292 109.906C101.354 110.844 99.0576 111.594 96.4014 112.156C93.7451 112.688 90.667 112.953 87.167 112.953C85.292 112.953 83.542 112.875 81.917 112.719C81.2447 112.654 80.5858 112.573 79.9402 112.477C79.021 112.339 78.8588 111.147 79.6799 110.711C80.7748 110.13 81.8486 109.55 82.9014 108.969C84.3737 108.116 85.782 107.275 87.1263 106.444C87.5917 106.156 87.7352 105.546 87.4506 105.079L81.5771 95.4355C81.2781 94.9446 80.6284 94.8066 80.1503 95.1256C78.1406 96.4662 75.8701 97.8306 73.3389 99.2188C70.455 100.8 67.4173 102.351 64.2257 103.871C64.1828 103.891 64.1313 103.878 64.1041 103.839C64.0767 103.799 64.0247 103.786 63.9815 103.806C58.5259 106.428 52.9422 108.716 48.3063 110.467C48.2565 110.486 48.237 110.545 48.2655 110.59C48.2872 110.624 48.272 110.67 48.2343 110.684C44.4021 112.133 40.9063 113.293 37.747 114.165C37.1152 114.339 36.8079 115.059 37.1278 115.631L43.151 126.401C43.3934 126.835 43.9173 127.025 44.3808 126.846C46.6523 125.971 48.9612 125.059 51.3076 124.109C53.7814 123.108 56.2691 122.051 58.7706 120.939C59.0594 120.811 59.3915 120.826 59.6693 120.977C63.1896 122.887 67.1992 124.321 71.6982 125.281C76.3857 126.281 81.542 126.781 87.167 126.781C93.8857 126.781 99.9639 126.062 105.401 124.625C110.808 123.156 115.417 121 119.229 118.156C123.042 115.312 125.979 111.781 128.042 107.562C130.104 103.312 131.136 98.4219 131.136 92.8906C131.136 87.3594 130.104 82.4844 128.042 78.2656C125.979 74.0156 123.042 70.4688 119.229 67.625C115.417 64.7812 110.808 62.6406 105.401 61.2031C99.9639 59.7344 93.8857 59 87.167 59C80.4482 59 74.4014 59.7344 69.0264 61.2031C63.6201 62.6406 59.0264 64.7812 55.2451 67.625C51.4639 70.4688 48.5576 74.0156 46.5264 78.2656C44.4951 82.4844 43.4795 87.3594 43.4795 92.8906Z" fill="#3A2F56" fill-opacity="0.45"/>
</svg>
