<svg width="1362" height="1056" viewBox="0 0 1362 1056" fill="none" xmlns="http://www.w3.org/2000/svg">
<path d="M1022.52 582.691C967.01 567.252 913.748 546.928 861.116 523.02C819.509 504.121 778.718 483.538 739.374 459.997C718.35 447.417 681.223 430.026 666.557 407.868C652.236 386.232 713.399 374.355 722.47 373.507C773.157 368.773 824.082 390.952 862.904 423.457C866.799 426.718 901.897 455.317 890.21 464.69C873.461 478.124 844.062 436.382 836.735 428.653C779.793 368.587 719.909 312.379 659.405 256.177C651.284 248.633 643.127 241.126 635.187 233.381C630.094 228.412 617.955 221.299 622.672 215.949C630.997 206.505 674.023 221.214 678.91 222.653C753.571 244.652 830.08 277.432 896.387 319.2C909.836 327.672 943.712 346.9 947.749 367.138C951.119 384.038 924.012 399.958 914.591 405.857C877.818 428.881 834.46 441.099 791.387 435.19C786.204 434.479 767.648 431.696 764.08 424.798C761.808 420.405 774.483 424.21 778.384 427.144C808.44 449.756 812.42 492.706 802.277 526.875C794.129 554.321 778.06 578.469 761.48 601.129C750.454 616.196 734.065 630.632 725.233 647.391C712.842 670.903 836.713 677.312 846.487 677.059C907.916 675.469 1022.65 658.986 1047.71 588.223C1076.32 507.457 952.716 456.886 899.312 437.872C803.148 403.633 699.16 413.406 600.891 390.939C573.508 384.679 594.362 351.249 603.492 336.967C656.123 254.64 741.289 219.513 834.784 222.151C918.665 224.517 1011.29 248.035 1080.06 299.757C1103.31 317.25 1129.07 343.432 1128.65 375.686C1128.25 406.861 1102.47 430.453 1078.43 444.912C1031.81 472.945 975.507 484.785 923.205 494.526C881.879 502.222 839.365 508.15 797.238 507.935C794.569 507.921 791.79 508.013 789.274 507.097C784.495 505.358 799.326 505.201 804.39 505.421C834.657 506.735 857.425 523.235 879.157 544.475C934.94 598.994 986.937 671.137 985.295 753.659C984.843 776.407 977.09 793.887 974.405 815.342C972.511 830.476 995.592 793.992 1006.91 784.165C1072.68 727.073 1152.9 705.034 1230.24 670.522C1257.13 658.522 1312.92 638.901 1319.64 602.135C1326.84 562.683 1273.51 521.632 1249.75 502.906C1125.93 405.329 972.139 338.389 826.007 286.18C801.462 277.41 776.515 269.885 751.727 261.875C727.786 254.14 699.301 253.27 680.86 235.727C667.805 223.308 710.88 214.66 728.159 210.418C819.405 188.014 909.711 192.837 996.023 232.878C1051.51 258.619 1107.11 294.085 1148.97 340.319C1168.63 362.036 1187.48 391.178 1171.73 420.607C1141.7 476.709 1053.9 491.029 1000.09 502.906C955.793 512.684 910.946 519.56 866.967 530.898C861.909 532.202 825.67 539.218 820.318 548.163C820.034 548.638 905.111 594.104 911.178 598.95C962.601 640.029 951.357 698.07 907.277 739.915C864.307 780.705 810.293 794.718 757.254 815.342C740.775 821.749 732.275 828.729 749.127 840.149C756.514 845.155 752.93 821.518 750.264 812.827C726.366 734.917 673.582 669.291 650.791 590.234C633.132 528.982 645.708 475.244 698.089 438.542C767.594 389.842 853.986 366.352 932.795 339.649C977.543 324.487 1022.35 308.725 1065.1 288.191C1067.45 287.064 1080.27 282.996 1079.08 276.961C1075.8 260.249 1059.66 239.319 1049.82 227.85C1001.79 171.857 930.952 141.481 858.353 146.891C850.903 147.446 753.907 174.221 793.662 196.841C824.991 214.665 869.195 214.993 903.051 214.44C976.538 213.241 1050.32 201.624 1122.32 187.119C1162.33 179.058 1200.22 168.249 1238.21 153.428C1259.92 144.954 1249.69 152.62 1238.37 163.988C1196.03 206.498 1164.01 249.275 1139.38 305.288C1111.41 368.918 1088.64 439.233 1071.12 506.762C1069.12 514.434 1063.92 530.358 1068.19 539.614C1076.2 556.991 1110.84 548.86 1122.32 546.151C1171.84 534.459 1219.81 510.856 1265.84 489.497C1269.09 487.985 1357.16 453.501 1359.95 440.218C1360.74 436.447 1352.53 441.33 1348.89 442.23C1339.41 444.573 1330.13 447.754 1320.61 449.94C1251.57 465.796 1181.35 473.141 1110.94 479.105C1034.4 485.588 957.303 490.615 880.458 490.168C870.696 490.111 860.933 489.617 851.201 488.827C846.717 488.463 837.162 487.994 838.685 483.631C850.184 450.691 903.914 453.303 928.244 458.321C963.848 465.664 998.474 480.14 1030.97 496.537C1057.06 509.704 1089.01 525.536 1107.69 549.671C1137.08 587.654 1094.78 624.84 1067.7 646.72C1045.86 664.374 1022.38 679.483 1002.52 699.687C1001.45 700.781 988.526 713.307 989.359 718.46C990.124 723.197 1000.45 718.313 1000.74 714.437C1001.55 703.568 980.556 687.105 975.705 682.59C937.808 647.318 897.597 614.393 858.027 581.183C760.7 499.496 847.486 572.764 754.328 494.861C747.764 489.372 687.014 447.98 685.737 429.156C684.548 411.648 793.205 428.055 803.74 430.161C841.253 437.663 872.867 440.323 896.712 471.06" stroke="#2E5C68" stroke-width="2.41319" stroke-linecap="round"/>
<path d="M433.142 621.91C411.298 567.035 394.577 511.032 380.996 453.367C370.26 407.783 361.316 361.843 355.527 315.292C352.434 290.417 343.259 249.42 351.401 223.936C359.352 199.052 405.657 241.965 411.821 248.885C446.262 287.551 460.137 342.766 458.709 394.335C458.566 399.51 457.882 445.653 443.567 441.77C423.051 436.206 437.313 386.747 438.809 376.045C450.438 292.877 457.31 209.642 463.802 125.903C464.673 114.663 465.494 103.417 466.63 92.2022C467.359 85.0088 465.459 70.7376 472.442 71.3523C484.769 72.4375 499.592 116.639 501.454 121.52C529.889 196.079 551.149 278.704 559.293 358.429C560.945 374.6 566.73 414.049 553.607 429.654C542.649 442.686 513.925 430.142 503.661 426.005C463.597 409.855 427.848 381.743 406.223 342.849C403.622 338.169 394.488 321.27 397.629 314.154C399.63 309.622 404.403 322.323 404.515 327.303C405.375 365.677 374.737 395.036 342.277 407.485C316.203 417.484 287.854 418.986 260.34 419.165C242.045 419.284 220.976 414.624 202.711 417.568C177.087 421.698 247.421 527.118 253.555 534.975C292.105 584.357 374.503 668.374 444.194 645.92C523.736 620.292 487.554 488.259 469.738 432.935C437.657 333.314 366.95 254.023 324.53 159.83C312.71 133.582 351.109 130.361 367.649 129.166C462.99 122.279 541.773 170.738 596.554 248.97C645.7 319.157 683.879 409.36 685.859 497.151C686.528 526.844 682.03 563.866 656.951 583.12C632.712 601.73 598.892 594.94 573.156 584.019C523.254 562.844 479.929 523.891 440.653 486.942C409.619 457.748 379.224 426.505 353.792 391.846C352.181 389.651 350.422 387.428 349.598 384.809C348.033 379.836 357.166 391.897 360.073 396.18C377.453 421.786 378.588 450.473 375.446 481.191C367.382 560.037 343.453 646.49 278.945 695.288C261.162 708.739 242.998 713.006 224.855 723.842C212.056 731.486 254.16 728.234 268.602 731.542C352.504 750.756 418.207 803.11 491.764 845.531C517.341 860.281 566.34 894.085 598.716 877.247C633.456 859.18 632.642 790.522 632.617 759.67C632.484 598.902 590.553 432.177 541.942 280.682C533.777 255.236 524.41 230.217 515.513 205.034C506.919 180.711 490.28 156.836 492.577 131.062C494.202 112.815 527.031 142.865 540.796 154.45C613.481 215.622 664.641 292.569 686.27 387.641C700.174 448.758 706.664 515.881 696.515 578.283C691.749 607.593 680.772 640.747 648.551 645.718C587.126 655.194 522.755 591.932 480.918 555.047C446.479 524.685 413.937 492.106 378.488 462.95C374.411 459.596 346.993 434.158 336.856 435.207C336.318 435.262 353.021 532.618 352.977 540.535C352.607 607.643 301.105 633.694 242.117 622.991C184.614 612.558 141.009 576.803 92.9084 545.862C77.964 536.25 67.4276 533.524 68.8781 554.275C69.5139 563.371 85.5277 546.072 90.5966 538.606C136.037 471.679 154.472 388.541 201.468 321.824C237.879 270.132 286.879 247.788 346.954 268.419C426.667 295.794 497.239 352.328 565.677 400.695C604.537 428.158 643.893 455.305 685.673 477.868C687.967 479.106 698.886 487.14 702.81 482.501C713.676 469.654 719.981 443.713 722.83 428.68C736.738 355.291 717.073 278.773 668.796 222.557C663.842 216.789 584.298 153.559 591.046 199.887C596.364 236.395 622.971 272.824 643.968 300.237C689.544 359.739 743.315 413.152 798.226 463.347C828.741 491.241 860.086 515.734 894.572 537.86C914.291 550.511 902.174 546.783 886.544 544.409C828.1 535.535 775.723 535.286 717.65 549.137C651.679 564.871 583.729 588.936 521.11 615.606C513.996 618.636 498.579 624.048 494.048 633.17C485.542 650.294 512.848 673.745 521.905 681.503C560.997 714.992 608.309 739.965 652.714 764.711C655.858 766.462 735.909 817.689 747.824 811.901C751.207 810.257 742.463 806.499 739.56 804.064C731.995 797.716 723.907 792.042 716.442 785.569C662.284 738.612 613.964 685.522 566.592 631.439C515.098 572.65 464.381 512.513 418.033 449.258C412.145 441.223 406.593 432.921 401.288 424.464C398.844 420.568 393.398 412.452 397.682 411.049C430.02 400.459 460.658 446.083 471.579 469.073C487.561 502.716 497.459 539.892 504.585 576.488C510.307 605.877 517.533 641.678 510.307 671.653C498.936 718.824 444.612 706.748 411.32 697.85C384.459 690.672 358.565 680.609 330.952 676.614C329.456 676.397 311.964 673.416 308.504 677.23C305.323 680.736 315.355 686.229 318.513 684.111C327.371 678.171 327.287 650.963 327.814 644.244C331.933 591.751 332.839 538.788 334.356 486.177C338.086 356.772 334.431 472.422 337.781 348.733C338.017 340.018 332.961 265.076 346.672 252.591C359.424 240.978 412.82 340.004 417.599 349.918C434.62 385.222 451.782 412.75 442.615 450.969" stroke="#2E5C68" stroke-width="2.41319" stroke-linecap="round"/>
<path d="M755.296 463.185H792.668V497.786H755.296V463.185Z" fill="#46C2C0"/>
<path d="M340 393.301H377.372V427.903H340V393.301Z" fill="#F55E2F"/>
<path d="M905.658 376H943.03V410.602H905.658V376Z" fill="#F55E2F"/>
<path d="M1265 449H1302.37V483.602H1265V449Z" fill="#F55E2F"/>
<path d="M274 261H311.372V295.602H274V261Z" fill="#46C2C0"/>
<path d="M584 625H621.372V659.602H584V625Z" fill="#46C2C0"/>
<path d="M794.128 287H831.5V321.602H794.128V287Z" fill="#F55E2F"/>
<path d="M1115.2 535.117H1152.58V569.719H1115.2V535.117Z" fill="#46C2C0"/>
<path d="M943 529H980.372V563.602H943V529Z" fill="#F55E2F"/>
<path d="M609 494H644V529H609V494Z" fill="#F55E2F"/>
<path fill-rule="evenodd" clip-rule="evenodd" d="M563 404.277H552.607V438.879H589.979V427.602H563V404.277ZM366.05 542.684V435.353H390.562V404.277H465.473C475.681 404.277 484.344 405.452 491.462 407.803C498.581 410.086 504.356 413.343 508.789 417.574C513.288 421.737 516.545 426.707 518.56 432.482C520.574 438.258 521.582 444.604 521.582 451.521C521.582 458.438 520.574 464.818 518.56 470.66C516.545 476.435 513.288 481.439 508.789 485.669C504.977 489.25 500.171 492.161 494.372 494.4V483H457V498.966H403.422V542.684H366.05ZM883.407 401.213C874.197 401.982 865.637 403.708 857.728 406.392C846.647 410.086 837.178 415.257 829.321 421.905C821.531 428.487 815.487 436.277 811.189 445.275C806.958 454.207 804.843 463.911 804.843 474.387C804.843 485.669 806.958 495.776 811.189 504.708C815.42 513.64 821.565 521.194 829.623 527.373C837.682 533.551 847.587 538.286 859.34 541.576C871.159 544.8 884.624 546.411 899.734 546.411C911.553 546.411 923.104 545.572 934.386 543.893C934.858 543.826 935.33 543.757 935.802 543.686V523.706H968.433V503.499C965.613 505.178 961.886 506.857 957.252 508.536C952.685 510.215 947.548 511.759 941.84 513.169C936.132 514.513 929.987 515.621 923.406 516.494C916.825 517.299 910.109 517.702 903.259 517.702C893.589 517.702 885.262 516.997 878.277 515.587C871.36 514.177 865.518 512.196 860.75 509.644C855.982 507.092 852.188 504.003 849.367 500.376C846.614 496.75 844.633 492.754 843.424 488.389H979.816V479.122C979.816 466.429 977.734 455.214 973.571 445.477C969.474 435.739 963.665 427.546 956.144 420.898C948.69 414.25 939.725 409.247 929.248 405.889C926.5 404.984 923.677 404.2 920.779 403.534V421.585H883.407V401.213ZM942.646 460.99C942.31 457.565 941.269 454.039 939.523 450.413C937.844 446.719 935.158 443.395 931.464 440.44C927.771 437.485 922.936 435.068 916.959 433.187C910.982 431.24 903.528 430.266 894.596 430.266C886.202 430.266 878.949 431.307 872.838 433.389C866.727 435.471 861.589 438.056 857.426 441.145C853.329 444.234 850.139 447.559 847.856 451.118C845.573 454.677 844.095 457.968 843.424 460.99H942.646ZM482.396 443.865C483.337 446.148 483.807 448.902 483.807 452.125C483.807 455.349 483.337 458.068 482.396 460.285C481.523 462.501 480.046 464.314 477.964 465.724C475.882 467.067 473.163 468.041 469.805 468.645C466.447 469.183 462.317 469.451 457.415 469.451H403.422V433.792H457.415C462.317 433.792 466.447 434.161 469.805 434.9C473.163 435.571 475.882 436.646 477.964 438.123C480.046 439.601 481.523 441.515 482.396 443.865ZM740.626 488.605L724.962 471.667L787.315 404.277H742.489L702.498 447.592L662.709 404.277H617.882L680.236 471.667L653 501.163V533H623.601L614.659 542.684H659.384L702.498 496.045L745.813 542.684H790.64L765.118 515.088H740.626V488.605ZM1052.75 497.657C1051.67 493.963 1051.14 489.229 1051.14 483.453V480.486H1028.06V445.884H1051.14V404.277H1013.76V497.254C1013.76 505.111 1014.84 511.893 1016.99 517.602C1019.2 523.31 1022.73 528.044 1027.56 531.805C1032.4 535.499 1038.61 538.252 1046.2 540.065C1053.86 541.811 1063.12 542.684 1074 542.684H1103.54V523.706H1140.91V542.684H1152.57V511.961H1081.66C1076.02 511.961 1071.25 511.558 1067.35 510.752C1063.53 509.946 1060.4 508.469 1057.99 506.32C1055.57 504.171 1053.82 501.283 1052.75 497.657ZM552.607 542.684H589.979V473.481H552.607V542.684Z" fill="white"/>
<path d="M440 489H477.372V523.602H440V489Z" fill="#F55E2F"/>
<path d="M568 396.399H603V431.399H568V396.399Z" fill="#46C2C0"/>
<path d="M1036 432H1073.37V466.602H1036V432Z" fill="#46C2C0"/>
</svg>
