<svg width="835" height="71" viewBox="0 0 835 71" fill="none" xmlns="http://www.w3.org/2000/svg">
<path fill-rule="evenodd" clip-rule="evenodd" d="M85.3027 67.7988C85.3027 68.3511 85.7505 68.7988 86.3027 68.7988H102.32C102.873 68.7988 103.32 68.3511 103.32 67.7988V2.70898C103.32 2.1567 102.873 1.70898 102.32 1.70898H79.4084C79.0392 1.70898 78.7 1.91243 78.5262 2.23818L54.7687 46.7566C54.6103 47.0535 54.6118 47.4103 54.7728 47.7058L62.3962 61.6992C62.7778 62.3997 63.7857 62.3933 64.1584 61.688L83.4186 25.2447C83.906 24.3225 85.3027 24.6689 85.3027 25.712V67.7988ZM51.6726 52.4221L44.7011 39.3583L43.8086 37.72C43.8064 37.7161 43.8079 37.7112 43.8118 37.709C43.8142 37.7077 43.8156 37.7055 43.816 37.703C43.8162 37.7014 43.8159 37.6996 43.8151 37.6981L24.8918 2.23818C24.7179 1.91243 24.3788 1.70898 24.0095 1.70898H1C0.447715 1.70898 0 2.1567 0 2.70898V67.7988C0 68.3511 0.447715 68.7988 1 68.7988H17.1152C17.6675 68.7988 18.1152 68.3511 18.1152 67.7988V25.712C18.1152 24.6689 19.512 24.3225 19.9994 25.2447L42.736 68.2661C42.9092 68.5938 43.2495 68.7988 43.6201 68.7988H60.2112C60.3276 68.7988 60.4344 68.7345 60.4888 68.6316C60.5379 68.5386 60.5372 68.4271 60.4869 68.3347L51.8178 52.4218C51.8022 52.393 51.7608 52.3932 51.7453 52.4221C51.7298 52.4512 51.6882 52.4512 51.6726 52.4221ZM154.316 67.7988C154.316 68.3511 154.764 68.7988 155.316 68.7988H221.92C222.472 68.7988 222.92 68.3511 222.92 67.7988V55.4922C222.92 54.9399 222.472 54.4922 221.92 54.4922H173.92C173.368 54.4922 172.92 54.0445 172.92 53.4922V43.8086C172.92 43.8032 172.916 43.7988 172.91 43.7988C172.905 43.7988 172.9 43.7945 172.9 43.7891V22.8086C172.9 22.8032 172.905 22.7988 172.91 22.7988C172.916 22.7988 172.92 22.7945 172.92 22.7891V17.0156C172.92 16.4633 173.368 16.0156 173.92 16.0156H221.236C221.789 16.0156 222.236 15.5679 222.236 15.0156V2.70898C222.236 2.1567 221.789 1.70898 221.236 1.70898H155.316C154.764 1.70898 154.316 2.1567 154.316 2.70898V67.7988ZM176.9 40.4062C176.9 40.9585 177.348 41.4062 177.9 41.4062H218.697C219.25 41.4062 219.697 40.9585 219.697 40.4062V28.0996C219.697 27.5473 219.25 27.0996 218.697 27.0996H177.9C177.348 27.0996 176.9 27.5473 176.9 28.0996V40.4062ZM327.685 62.543C328.312 63.1818 329.398 62.7376 329.398 61.8423V42.2348C329.398 41.9733 329.296 41.7222 329.113 41.5353L290.421 2.00945C290.233 1.81729 289.975 1.70898 289.706 1.70898H271.449C270.897 1.70898 270.449 2.1567 270.449 2.70898V67.7988C270.449 68.3511 270.897 68.7988 271.449 68.7988H287.564C288.117 68.7988 288.564 68.3511 288.564 67.7988V25.1507C288.564 24.2554 289.651 23.8112 290.278 24.45L327.685 62.543ZM336.398 68.7988C335.846 68.7988 335.398 68.3511 335.398 67.7988V47.9855C335.398 47.9747 335.411 47.9694 335.419 47.9771C335.426 47.9848 335.439 47.9794 335.439 47.9687V2.70898C335.439 2.1567 335.887 1.70898 336.439 1.70898H352.457C353.009 1.70898 353.457 2.1567 353.457 2.70898V67.7988C353.457 68.3511 353.009 68.7988 352.457 68.7988H336.398ZM449.001 16.3086C449 16.3086 449 16.3082 449 16.3076C449 16.3071 449 16.3066 448.999 16.3066H416.001C416 16.3066 416 16.3071 416 16.3076C416 16.3082 416 16.3086 415.999 16.3086H396.469C395.916 16.3086 395.469 15.8609 395.469 15.3086V2.70898C395.469 2.1567 395.916 1.70898 396.469 1.70898H469.566C470.119 1.70898 470.566 2.1567 470.566 2.70898V15.3086C470.566 15.8609 470.119 16.3086 469.566 16.3086H449.001ZM442.051 23.3066C442.051 22.7544 441.603 22.3066 441.051 22.3066H424.936C424.383 22.3066 423.936 22.7544 423.936 23.3066V67.7988C423.936 68.3511 424.383 68.7988 424.936 68.7988H441.051C441.603 68.7988 442.051 68.3511 442.051 67.7988V23.3066ZM595.244 50.5859C597.36 46.1589 598.418 41.0645 598.418 35.3027C598.418 29.541 597.36 24.4629 595.244 20.0684C593.128 15.6413 590.101 11.9466 586.162 8.98438C582.223 6.02214 577.438 3.79232 571.807 2.29492C566.208 0.764974 559.909 0 552.91 0C545.911 0 539.58 0.764974 533.916 2.29492C528.284 3.79232 523.483 6.02214 519.512 8.98438C515.54 11.9466 512.48 15.6413 510.332 20.0684C508.184 24.4629 507.109 29.541 507.109 35.3027C507.109 41.0645 508.184 46.1589 510.332 50.5859C512.48 54.9805 515.54 58.6589 519.512 61.6211C523.483 64.5833 528.284 66.8294 533.916 68.3594C539.58 69.8568 545.911 70.6055 552.91 70.6055C559.909 70.6055 566.208 69.8568 571.807 68.3594C577.438 66.8294 582.223 64.5833 586.162 61.6211C590.101 58.6589 593.128 54.9805 595.244 50.5859ZM578.887 27.832C579.701 30.306 580.107 32.7962 580.107 35.3027C580.107 37.8092 579.701 40.3158 578.887 42.8223C578.105 45.2962 576.689 47.526 574.639 49.5117C572.62 51.4974 569.854 53.1087 566.338 54.3457C562.822 55.5827 558.346 56.2012 552.91 56.2012C549.264 56.2012 546.058 55.9245 543.291 55.3711C540.524 54.7852 538.132 54.0039 536.113 53.0273C534.095 52.0182 532.402 50.8464 531.035 49.5117C529.668 48.1771 528.577 46.7448 527.764 45.2148C526.95 43.6523 526.364 42.0247 526.006 40.332C525.68 38.6393 525.518 36.9629 525.518 35.3027C525.518 33.6751 525.68 32.0312 526.006 30.3711C526.364 28.6784 526.95 27.0671 527.764 25.5371C528.577 23.9746 529.668 22.526 531.035 21.1914C532.402 19.8242 534.095 18.6361 536.113 17.627C538.132 16.6178 540.524 15.8366 543.291 15.2832C546.058 14.6973 549.264 14.4043 552.91 14.4043C558.346 14.4043 562.822 15.0228 566.338 16.2598C569.854 17.4967 572.62 19.1081 574.639 21.0938C576.689 23.0794 578.105 25.3255 578.887 27.832ZM662.037 68.7988C662.589 68.7988 663.037 68.3511 663.037 67.7988V48.0186C663.037 48.0083 663.029 48 663.019 48C663.008 48 663 47.9917 663 47.9814V27.0186C663 27.0083 663.008 27 663.019 27C663.029 27 663.037 26.9917 663.037 26.9814V16.7227C663.037 16.1704 663.485 15.7227 664.037 15.7227H687.842C689.958 15.7227 691.716 15.8529 693.115 16.1133C694.548 16.3737 695.687 16.7969 696.533 17.3828C697.38 17.9362 697.966 18.6686 698.291 19.5801C698.649 20.4915 698.828 21.5983 698.828 22.9004C698.828 24.2025 698.649 25.3092 698.291 26.2207C697.966 27.1322 697.38 27.8809 696.533 28.4668C695.687 29.0202 694.548 29.4271 693.115 29.6875C691.716 29.9479 689.958 30.0781 687.842 30.0781H669C668.448 30.0781 668 30.5258 668 31.0781V43.0918C668 43.6441 668.448 44.0918 669 44.0918H682.34C682.639 44.0918 682.923 44.2257 683.113 44.4567L702.825 68.4339C703.015 68.6649 703.298 68.7988 703.597 68.7988H722.189C723.035 68.7988 723.499 67.8126 722.959 67.1607L703.266 43.3982C702.82 42.8601 703.05 42.0411 703.7 41.7845C705.194 41.1948 706.63 40.4991 708.008 39.6973C709.798 38.6556 711.361 37.3861 712.695 35.8887C714.062 34.3587 715.137 32.5358 715.918 30.4199C716.732 28.304 717.139 25.8301 717.139 22.998C717.139 19.7754 716.65 16.862 715.674 14.2578C714.73 11.6211 713.184 9.375 711.035 7.51953C708.919 5.66406 706.152 4.23177 702.734 3.22266C699.349 2.21354 695.215 1.70898 690.332 1.70898H645.922C645.37 1.70898 644.922 2.1567 644.922 2.70898V67.7988C644.922 68.3511 645.37 68.7988 645.922 68.7988H662.037ZM827.667 19.9387C828.345 20.2336 829.121 19.7448 829.121 19.0059V5.80594C829.121 5.3721 828.842 4.98723 828.428 4.85745C826.503 4.25408 824.423 3.67659 822.188 3.125C819.714 2.50651 817.142 1.9694 814.473 1.51367C811.803 1.02539 809.085 0.651042 806.318 0.390625C803.584 0.130208 800.915 0 798.311 0C795.934 0 793.428 0.0976562 790.791 0.292969C788.154 0.488281 785.55 0.846354 782.979 1.36719C780.407 1.88802 777.949 2.62044 775.605 3.56445C773.294 4.50846 771.243 5.74544 769.453 7.27539C767.695 8.77279 766.296 10.5957 765.254 12.7441C764.212 14.8926 763.691 17.4479 763.691 20.4102C763.691 22.9167 764.18 25.1302 765.156 27.0508C766.133 28.9388 767.467 30.6152 769.16 32.0801C770.853 33.5124 772.822 34.7656 775.068 35.8398C777.314 36.8815 779.691 37.8092 782.197 38.623C784.736 39.4043 787.341 40.0879 790.01 40.6738C792.679 41.2598 795.267 41.8132 797.773 42.334C800.312 42.8223 802.705 43.3268 804.951 43.8477C807.197 44.3359 809.167 44.8893 810.859 45.5078C812.552 46.0938 813.887 46.7936 814.863 47.6074C815.84 48.3887 816.328 49.3164 816.328 50.3906C816.328 51.0742 816.084 51.7904 815.596 52.5391C815.107 53.2878 814.18 53.9876 812.812 54.6387C811.445 55.2572 809.541 55.778 807.1 56.2012C804.691 56.5918 801.566 56.7871 797.725 56.7871C791.214 56.7871 785.094 56.0872 779.365 54.6875C774.297 53.4422 769.718 51.7716 765.629 49.676C764.951 49.3283 764.131 49.813 764.131 50.5753V64.2002C764.131 64.6167 764.388 64.9902 764.78 65.1327C768.956 66.6535 773.72 67.9244 779.072 68.9453C784.736 70.0521 790.889 70.6055 797.529 70.6055C800.068 70.6055 802.738 70.5241 805.537 70.3613C808.369 70.1986 811.152 69.8568 813.887 69.3359C816.654 68.8151 819.29 68.0827 821.797 67.1387C824.303 66.1621 826.501 64.8763 828.389 63.2812C830.309 61.6862 831.839 59.7331 832.979 57.4219C834.118 55.1107 834.688 52.3438 834.688 49.1211C834.688 46.6146 834.199 44.3848 833.223 42.4316C832.246 40.4785 830.911 38.7533 829.219 37.2559C827.526 35.7585 825.557 34.4564 823.311 33.3496C821.064 32.2103 818.672 31.2174 816.133 30.3711C813.626 29.5247 811.022 28.7923 808.32 28.1738C805.651 27.5228 803.047 26.9368 800.508 26.416C798.001 25.8626 795.625 25.3418 793.379 24.8535C791.133 24.3327 789.163 23.7956 787.471 23.2422C785.778 22.6562 784.443 22.0052 783.467 21.2891C782.49 20.5404 782.002 19.6777 782.002 18.7012C782.002 18.4082 782.051 18.0827 782.148 17.7246C782.279 17.3665 782.539 17.0085 782.93 16.6504C783.32 16.2923 783.874 15.9505 784.59 15.625C785.339 15.2669 786.331 14.9577 787.568 14.6973C788.838 14.4368 790.384 14.2253 792.207 14.0625C794.062 13.8997 796.292 13.8184 798.896 13.8184C802.152 13.8184 805.326 14.0625 808.418 14.5508C811.51 15.0065 814.375 15.5924 817.012 16.3086C819.648 16.9922 822.008 17.7246 824.092 18.5059C825.459 19.0185 826.651 19.4961 827.667 19.9387Z" fill="#FFE2DE"/>
</svg>
