<svg width="1029" height="399" viewBox="0 0 1029 399" fill="none" xmlns="http://www.w3.org/2000/svg">
<path d="M481.296 202.185H518.668V236.786H481.296V202.185Z" fill="#46C2C0"/>
<path d="M66 132.301H103.372V166.903H66V132.301Z" fill="#F55E2F"/>
<path d="M631.658 115H669.03V149.602H631.658V115Z" fill="#F55E2F"/>
<path d="M991 188H1028.37V222.602H991V188Z" fill="#F55E2F"/>
<path d="M0 0H37.372V34.6018H0V0Z" fill="#46C2C0"/>
<path d="M310 364H347.372V398.602H310V364Z" fill="#46C2C0"/>
<path d="M520.128 26H557.5V60.6018H520.128V26Z" fill="#F55E2F"/>
<path d="M841.203 274.117H878.575V308.719H841.203V274.117Z" fill="#46C2C0"/>
<path d="M669 268H706.372V302.602H669V268Z" fill="#F55E2F"/>
<path d="M335 233H370V268H335V233Z" fill="#F55E2F"/>
<path fill-rule="evenodd" clip-rule="evenodd" d="M289 143.277H278.607V177.879H315.979V166.602H289V143.277ZM92.0498 281.684V174.353H116.562V143.277H191.473C201.681 143.277 210.344 144.452 217.462 146.803C224.581 149.086 230.356 152.343 234.789 156.574C239.288 160.737 242.545 165.707 244.56 171.482C246.574 177.258 247.582 183.604 247.582 190.521C247.582 197.438 246.574 203.818 244.56 209.66C242.545 215.435 239.288 220.439 234.789 224.669C230.977 228.25 226.171 231.161 220.372 233.4V222H183V237.966H129.422V281.684H92.0498ZM609.407 140.213C600.197 140.982 591.637 142.708 583.728 145.392C572.647 149.086 563.178 154.257 555.321 160.905C547.531 167.487 541.487 175.277 537.189 184.275C532.958 193.207 530.843 202.911 530.843 213.387C530.843 224.669 532.958 234.776 537.189 243.708C541.42 252.64 547.565 260.194 555.623 266.373C563.682 272.551 573.587 277.286 585.34 280.576C597.159 283.8 610.624 285.411 625.734 285.411C637.553 285.411 649.104 284.572 660.386 282.893C660.858 282.826 661.33 282.757 661.802 282.686V262.706H694.433V242.499C691.613 244.178 687.886 245.857 683.252 247.536C678.685 249.215 673.548 250.759 667.84 252.169C662.132 253.513 655.987 254.621 649.406 255.494C642.825 256.299 636.109 256.702 629.259 256.702C619.589 256.702 611.262 255.997 604.277 254.587C597.36 253.177 591.518 251.196 586.75 248.644C581.982 246.092 578.188 243.003 575.367 239.376C572.614 235.75 570.633 231.754 569.424 227.389H705.816V218.122C705.816 205.429 703.734 194.214 699.571 184.477C695.474 174.739 689.665 166.546 682.144 159.898C674.69 153.25 665.725 148.247 655.248 144.889C652.5 143.984 649.677 143.2 646.779 142.534V160.585H609.407V140.213ZM668.646 199.99C668.31 196.565 667.269 193.039 665.523 189.413C663.844 185.719 661.158 182.395 657.464 179.44C653.771 176.485 648.936 174.068 642.959 172.187C636.982 170.24 629.528 169.266 620.596 169.266C612.202 169.266 604.949 170.307 598.838 172.389C592.727 174.471 587.589 177.056 583.426 180.145C579.329 183.234 576.139 186.559 573.856 190.118C571.573 193.677 570.095 196.968 569.424 199.99H668.646ZM208.396 182.865C209.337 185.148 209.807 187.902 209.807 191.125C209.807 194.349 209.337 197.068 208.396 199.285C207.523 201.501 206.046 203.314 203.964 204.724C201.882 206.067 199.163 207.041 195.805 207.645C192.447 208.183 188.317 208.451 183.415 208.451H129.422V172.792H183.415C188.317 172.792 192.447 173.161 195.805 173.9C199.163 174.571 201.882 175.646 203.964 177.123C206.046 178.601 207.523 180.515 208.396 182.865ZM466.626 227.605L450.962 210.667L513.315 143.277H468.489L428.498 186.592L388.709 143.277H343.882L406.236 210.667L379 240.163V272H349.601L340.659 281.684H385.384L428.498 235.045L471.813 281.684H516.64L491.118 254.088H466.626V227.605ZM778.747 236.657C777.673 232.963 777.135 228.229 777.135 222.453V219.486H754.061V184.884H777.135V143.277H739.763V236.254C739.763 244.111 740.838 250.893 742.987 256.602C745.203 262.31 748.729 267.044 753.564 270.805C758.399 274.499 764.611 277.252 772.199 279.065C779.855 280.811 789.123 281.684 800.002 281.684H829.538V262.706H866.909V281.684H878.573V250.961H807.657C802.016 250.961 797.248 250.558 793.353 249.752C789.525 248.946 786.403 247.469 783.985 245.32C781.568 243.171 779.821 240.283 778.747 236.657ZM278.607 281.684H315.979V212.481H278.607V281.684Z" fill="white"/>
<path d="M166 228H203.372V262.602H166V228Z" fill="#F55E2F"/>
<path d="M294 135.399H329V170.399H294V135.399Z" fill="#46C2C0"/>
<path d="M762 171H799.372V205.602H762V171Z" fill="#46C2C0"/>
</svg>
