<svg width="193" height="92" viewBox="0 0 193 92" fill="none" xmlns="http://www.w3.org/2000/svg">
<path opacity="0.3" d="M13.2494 63.611L7.8565 66.141L7.69005 65.3088H20.1069V68.6377H2.36377V65.3088C4.36112 64.3989 6.15874 63.6221 7.75663 62.9785C9.35451 62.3349 10.7083 61.7579 11.8179 61.2475C12.9276 60.7149 13.7709 60.1822 14.3479 59.6496C14.9471 59.0948 15.2467 58.4845 15.2467 57.8187C15.2467 57.2861 15.0914 56.8311 14.7807 56.4538C14.47 56.0544 13.9817 55.7437 13.3159 55.5217C12.6501 55.2998 11.7846 55.1888 10.7194 55.1888C9.32122 55.1888 8.18939 55.4662 7.32387 56.0211C6.48054 56.5537 6.03668 57.2861 5.9923 58.2182H1.79785C1.73127 56.931 2.04197 55.7991 2.72995 54.8227C3.44012 53.8462 4.47209 53.0805 5.82585 52.5257C7.17961 51.9709 8.7775 51.6935 10.6195 51.6935C11.9733 51.6935 13.205 51.8266 14.3146 52.0929C15.4243 52.3371 16.3785 52.7032 17.1775 53.1915C17.9986 53.6797 18.62 54.2678 19.0417 54.9558C19.4855 55.6438 19.7075 56.4205 19.7075 57.2861C19.7075 57.9518 19.5854 58.5621 19.3413 59.117C19.0972 59.6496 18.7088 60.16 18.1762 60.6483C17.6657 61.1365 16.9999 61.6248 16.1788 62.113C15.3577 62.5791 14.3812 63.0784 13.2494 63.611ZM33.0905 69.0372C31.0044 69.0372 29.1624 68.7043 27.5645 68.0385C25.9888 67.3727 24.7571 66.4073 23.8694 65.1423C22.9817 63.8551 22.5378 62.2794 22.5378 60.4152C22.5378 58.551 22.9817 56.9754 23.8694 55.6882C24.7571 54.3788 25.9888 53.3912 27.5645 52.7254C29.1624 52.0596 31.0044 51.7268 33.0905 51.7268C35.1767 51.7268 36.9965 52.0596 38.55 52.7254C40.1257 53.3912 41.3574 54.3788 42.2451 55.6882C43.1328 56.9754 43.5767 58.551 43.5767 60.4152C43.5767 62.2794 43.1328 63.8551 42.2451 65.1423C41.3574 66.4073 40.1257 67.3727 38.55 68.0385C36.9965 68.7043 35.1767 69.0372 33.0905 69.0372ZM33.0905 65.7082C34.2224 65.7082 35.2432 65.5085 36.1531 65.109C37.0852 64.6874 37.8176 64.0882 38.3502 63.3114C38.9051 62.5125 39.1825 61.5471 39.1825 60.4152C39.1825 59.2834 38.9051 58.318 38.3502 57.5191C37.8176 56.6979 37.0963 56.0765 36.1864 55.6549C35.2765 55.2332 34.2446 55.0224 33.0905 55.0224C31.9587 55.0224 30.9267 55.2332 29.9946 55.6549C29.0625 56.0765 28.3191 56.6869 27.7643 57.4858C27.2094 58.2847 26.932 59.2612 26.932 60.4152C26.932 61.5471 27.1983 62.5125 27.731 63.3114C28.2858 64.0882 29.0292 64.6874 29.9613 65.109C30.8934 65.5085 31.9365 65.7082 33.0905 65.7082Z" fill="white"/>
<path opacity="0.3" d="M13.2494 84.0231L7.8565 86.5531L7.69005 85.7209H20.1069V89.0498H2.36377V85.7209C4.36112 84.811 6.15874 84.0342 7.75663 83.3906C9.35451 82.747 10.7083 82.17 11.8179 81.6596C12.9276 81.127 13.7709 80.5943 14.3479 80.0617C14.9471 79.5069 15.2467 78.8966 15.2467 78.2308C15.2467 77.6982 15.0914 77.2432 14.7807 76.8659C14.47 76.4665 13.9817 76.1558 13.3159 75.9338C12.6501 75.7119 11.7846 75.6009 10.7194 75.6009C9.32122 75.6009 8.18939 75.8784 7.32387 76.4332C6.48054 76.9658 6.03668 77.6982 5.9923 78.6303H1.79785C1.73127 77.3431 2.04197 76.2112 2.72995 75.2348C3.44012 74.2583 4.47209 73.4926 5.82585 72.9378C7.17961 72.383 8.7775 72.1056 10.6195 72.1056C11.9733 72.1056 13.205 72.2387 14.3146 72.505C15.4243 72.7492 16.3785 73.1153 17.1775 73.6036C17.9986 74.0918 18.62 74.6799 19.0417 75.3679C19.4855 76.0559 19.7075 76.8326 19.7075 77.6982C19.7075 78.364 19.5854 78.9743 19.3413 79.5291C19.0972 80.0617 18.7088 80.5721 18.1762 81.0604C17.6657 81.5486 16.9999 82.0369 16.1788 82.5251C15.3577 82.9912 14.3812 83.4905 13.2494 84.0231ZM35.6871 84.0231L30.2942 86.5531L30.1278 85.7209H42.5447V89.0498H24.8015V85.7209C26.7989 84.811 28.5965 84.0342 30.1944 83.3906C31.7923 82.747 33.146 82.17 34.2557 81.6596C35.3653 81.127 36.2086 80.5943 36.7856 80.0617C37.3848 79.5069 37.6845 78.8966 37.6845 78.2308C37.6845 77.6982 37.5291 77.2432 37.2184 76.8659C36.9077 76.4665 36.4195 76.1558 35.7537 75.9338C35.0879 75.7119 34.2224 75.6009 33.1571 75.6009C31.759 75.6009 30.6271 75.8784 29.7616 76.4332C28.9183 76.9658 28.4744 77.6982 28.43 78.6303H24.2356C24.169 77.3431 24.4797 76.2112 25.1677 75.2348C25.8779 74.2583 26.9098 73.4926 28.2636 72.9378C29.6174 72.383 31.2152 72.1056 33.0572 72.1056C34.411 72.1056 35.6427 72.2387 36.7524 72.505C37.862 72.7492 38.8163 73.1153 39.6152 73.6036C40.4364 74.0918 41.0578 74.6799 41.4794 75.3679C41.9233 76.0559 42.1452 76.8326 42.1452 77.6982C42.1452 78.364 42.0232 78.9743 41.779 79.5291C41.5349 80.0617 41.1465 80.5721 40.6139 81.0604C40.1035 81.5486 39.4377 82.0369 38.6166 82.5251C37.7954 82.9912 36.8189 83.4905 35.6871 84.0231Z" fill="white"/>
<path fill-rule="evenodd" clip-rule="evenodd" d="M45.7621 12.9032C45.7621 13.6421 44.9844 14.134 44.3028 13.8488C43.7299 13.6091 43.0859 13.3551 42.3708 13.087C40.966 12.5602 39.3747 12.0663 37.5967 11.6054C35.8188 11.1225 33.8872 10.7274 31.8019 10.4201C29.7167 10.0908 27.5765 9.92618 25.3815 9.92618C23.6255 9.92618 22.1219 9.98106 20.8708 10.0908C19.6416 10.2006 18.599 10.3432 17.7429 10.5188C16.9088 10.6944 16.2393 10.903 15.7345 11.1444C15.2516 11.3639 14.8784 11.5944 14.615 11.8358C14.3516 12.0773 14.176 12.3187 14.0882 12.5602C14.0224 12.8016 13.9895 13.0211 13.9895 13.2187C13.9895 13.8772 14.3187 14.4589 14.9772 14.9637C15.6357 15.4466 16.5357 15.8856 17.6771 16.2807C18.8185 16.6539 20.1464 17.016 21.661 17.3672C23.1755 17.6965 24.7779 18.0477 26.4681 18.4208C28.1802 18.772 29.9362 19.1671 31.7361 19.6061C33.5579 20.0232 35.3139 20.5171 37.0041 21.0878C38.7162 21.6585 40.3295 22.3279 41.844 23.0962C43.3586 23.8425 44.6866 24.7205 45.828 25.7302C46.9694 26.7399 47.8693 27.9032 48.5278 29.2203C49.1863 30.5373 49.5156 32.0408 49.5156 33.731C49.5156 35.904 49.1315 37.7698 48.3632 39.3282C47.5949 40.8867 46.5633 42.2037 45.2682 43.2792C43.9951 44.3548 42.5135 45.2218 40.8234 45.8803C39.1332 46.5169 37.3553 47.0107 35.4895 47.3619C33.6457 47.7131 31.769 47.9436 29.8593 48.0534C27.9716 48.1631 26.1717 48.218 24.4596 48.218C19.9818 48.218 15.8333 47.8448 12.014 47.0985C8.49525 46.4273 5.35347 45.5959 2.58864 44.6043C2.19655 44.4637 1.9389 44.0899 1.9389 43.6734V35.2647C1.9389 34.5025 2.75981 34.0165 3.44342 34.3536C6.074 35.6509 8.9967 36.6945 12.2115 37.4844C16.0747 38.4283 20.2013 38.9002 24.5913 38.9002C27.1814 38.9002 29.2886 38.7685 30.9129 38.5051C32.5592 38.2198 33.8433 37.8686 34.7652 37.4515C35.6871 37.0125 36.3126 36.5406 36.6419 36.0357C36.9711 35.5309 37.1358 35.048 37.1358 34.587C37.1358 33.8627 36.8065 33.2371 36.148 32.7103C35.4895 32.1616 34.5896 31.6896 33.4482 31.2945C32.3068 30.8775 30.9788 30.5043 29.4642 30.1751C27.9497 29.8239 26.3364 29.4837 24.6243 29.1544C22.9341 28.8032 21.1891 28.43 19.3892 28.035C17.5893 27.6399 15.8333 27.1789 14.1212 26.6521C12.431 26.1033 10.8287 25.4778 9.31411 24.7754C7.79956 24.051 6.47158 23.2059 5.33018 22.2401C4.18878 21.2524 3.28883 20.122 2.63033 18.8489C1.97183 17.5538 1.64258 16.0612 1.64258 14.3711C1.64258 12.3736 1.99378 10.6505 2.69618 9.20183C3.39858 7.75313 4.34243 6.52393 5.52773 5.51423C6.73498 4.48258 8.11783 3.64848 9.67629 3.01193C11.2567 2.37538 12.9139 1.8815 14.648 1.5303C16.382 1.1791 18.138 0.937649 19.916 0.805949C21.6939 0.674249 23.3841 0.608398 24.9864 0.608398C26.7424 0.608398 28.5423 0.696199 30.3861 0.871799C32.2519 1.0474 34.0847 1.29982 35.8846 1.62907C37.6845 1.93637 39.4186 2.29855 41.0868 2.7156C42.5069 3.06602 43.834 3.43193 45.0682 3.81334C45.4827 3.94144 45.7621 4.32658 45.7621 4.76042V12.9032ZM105.409 17.2026C105.409 19.4635 105.08 21.5487 104.422 23.4584C103.763 25.3461 102.699 26.9813 101.228 28.3642C99.7792 29.7251 97.8915 30.7897 95.5648 31.5579C93.2381 32.3262 90.4066 32.7103 87.0702 32.7103H71.8008C71.2485 32.7103 70.8008 32.2626 70.8008 31.7103V24.0633C70.8008 23.511 71.2485 23.0633 71.8008 23.0633H84.4362C86.0385 23.0633 87.3885 22.9755 88.486 22.7999C89.5835 22.6023 90.4724 22.284 91.1529 21.845C91.8333 21.3841 92.3162 20.7914 92.6016 20.0671C92.9089 19.3427 93.0625 18.4538 93.0625 17.4002C93.0625 16.3466 92.9089 15.4466 92.6016 14.7003C92.3162 13.9321 91.8333 13.3065 91.1529 12.8236C90.4724 12.3407 89.5835 11.9895 88.486 11.77C87.3885 11.5285 86.0385 11.4078 84.4362 11.4078H67.7884C67.2361 11.4078 66.7884 11.8555 66.7884 12.4078V22.0633C66.7884 22.0901 66.7894 22.1167 66.7915 22.143C66.7956 22.1954 66.8008 22.2477 66.8008 22.3002V33.4734C66.8008 33.5259 66.7956 33.5782 66.7915 33.6305C66.7894 33.6569 66.7884 33.6835 66.7884 33.7103V44.6792V46.9998V88.9182C66.7884 89.4705 66.3406 89.9182 65.7884 89.9182H55.5732C55.0209 89.9182 54.5732 89.4705 54.5732 88.9182V46.9998V44.6792V2.76077C54.5732 2.20849 55.0209 1.76077 55.5732 1.76077H87.0702C90.4066 1.76077 93.2381 2.1449 95.5648 2.91315C97.8915 3.65945 99.7792 4.72403 101.228 6.10688C102.699 7.46778 103.763 9.09208 104.422 10.9798C105.08 12.8675 105.409 14.9418 105.409 17.2026ZM118.809 45.9872C118.809 45.9903 118.81 45.9931 118.812 45.9953C118.814 45.9982 118.818 46 118.822 46C118.829 46 118.835 46.0057 118.835 46.0128V73.4411C118.835 73.4883 118.832 73.5342 118.826 73.5788C118.815 73.6646 118.801 73.7503 118.801 73.8367V88.9182C118.801 89.4705 119.248 89.9182 119.801 89.9182H129.984C130.536 89.9182 130.984 89.4705 130.984 88.9182V44.6986C130.984 44.6879 130.975 44.6792 130.965 44.6792C130.954 44.6792 130.945 44.6706 130.945 44.6599V29.4749C130.945 29.4599 130.958 29.4476 130.973 29.4476C130.988 29.4476 131 29.4354 131 29.4203V20.0865C131 20.0714 130.988 20.0592 130.973 20.0592C130.958 20.0592 130.945 20.047 130.945 20.0319V11.4418C130.945 10.8895 131.393 10.4418 131.945 10.4418H147.563C148.981 10.4418 150.158 10.529 151.096 10.7035C152.056 10.878 152.819 11.1615 153.386 11.554C153.953 11.9248 154.345 12.4155 154.564 13.0261C154.803 13.6367 154.923 14.3782 154.923 15.2505C154.923 16.1228 154.803 16.8643 154.564 17.4749C154.345 18.0856 153.953 18.5872 153.386 18.9797C152.819 19.3504 152.056 19.623 151.096 19.7975C150.158 19.972 148.981 20.0592 147.563 20.0592H135C134.448 20.0592 134 20.5069 134 21.0592V28.4476C134 28.9999 134.448 29.4476 135 29.4476H143.721C144.02 29.4476 144.304 29.5815 144.494 29.8126L155.701 43.444C156.174 44.0203 155.874 44.8962 155.152 45.0864C154.171 45.3452 153.213 45.6375 152.278 45.9633C149.908 46.7755 147.724 47.8181 145.726 49.0912C143.751 50.3643 142.05 51.8788 140.623 53.6348C139.218 55.3908 138.121 57.4102 137.33 59.693C136.54 61.9758 136.145 64.522 136.145 67.3316C136.145 70.1632 136.518 72.7204 137.265 75.0032C138.033 77.264 139.097 79.2725 140.458 81.0285C141.841 82.7845 143.498 84.299 145.43 85.5721C147.383 86.8452 149.535 87.8988 151.883 88.7329C154.254 89.5451 156.8 90.1487 159.522 90.5438C162.244 90.9389 165.086 91.1365 168.049 91.1365C169.959 91.1365 171.989 91.0487 174.141 90.873C176.292 90.6974 178.432 90.445 180.561 90.1158C182.712 89.8085 184.786 89.4353 186.784 88.9963C188.525 88.5988 190.12 88.1686 191.568 87.7058C191.976 87.5752 192.249 87.193 192.249 86.7641V65.3684C192.249 64.8161 191.802 64.3684 191.249 64.3684H167.337C166.785 64.3684 166.337 64.8161 166.337 65.3684V73.2788C166.337 73.8311 166.785 74.2788 167.337 74.2788H179.034C179.586 74.2788 180.034 74.7265 180.034 75.2788V78.9928C180.034 79.438 179.74 79.8298 179.312 79.9523C178.729 80.119 178.158 80.2802 177.598 80.4358C176.829 80.6553 175.995 80.8419 175.095 80.9955C174.217 81.1492 173.241 81.2699 172.165 81.3577C171.089 81.4455 169.827 81.4894 168.379 81.4894C165.503 81.4894 163.023 81.2699 160.938 80.8309C158.852 80.37 157.063 79.7663 155.571 79.02C154.1 78.2737 152.904 77.4177 151.982 76.4519C151.06 75.4861 150.336 74.4764 149.809 73.4228C149.304 72.3692 148.953 71.3156 148.755 70.262C148.58 69.2084 148.492 68.2316 148.492 67.3316C148.492 66.3 148.602 65.2354 148.821 64.1379C149.041 63.0404 149.436 61.9649 150.007 60.9113C150.577 59.8577 151.356 58.8699 152.344 57.948C153.332 57.0042 154.594 56.181 156.131 55.4786C157.667 54.7762 159.511 54.2165 161.662 53.7995C163.813 53.3824 166.337 53.1739 169.235 53.1739C171.561 53.1739 173.778 53.3275 175.886 53.6348C177.993 53.9421 179.968 54.3482 181.812 54.8531C183.656 55.3579 185.357 55.9396 186.915 56.5981C187.89 57.0043 188.803 57.4189 189.652 57.8419C190.337 58.1826 191.163 57.6957 191.163 56.9312V48.2713C191.163 47.8536 190.904 47.4792 190.51 47.3383C187.503 46.2612 184.22 45.3749 180.66 44.6792C177.471 44.0342 174.058 43.6599 170.421 43.5565C170.131 43.5482 169.858 43.4167 169.673 43.1934L158.201 29.3503C157.755 28.8122 157.985 27.9927 158.629 27.7218C159.472 27.3673 160.287 26.9612 161.073 26.5035C162.273 25.8057 163.32 24.9551 164.214 23.952C165.13 22.927 165.849 21.7057 166.373 20.2882C166.918 18.8707 167.19 17.2132 167.19 15.3159C167.19 13.1569 166.863 11.2051 166.209 9.46045C165.577 7.69399 164.541 6.18923 163.101 4.94616C161.684 3.7031 159.83 2.74354 157.54 2.06749C155.272 1.39143 152.503 1.05341 149.231 1.05341H119.809C119.257 1.05341 118.809 1.50113 118.809 2.05341V45.9872ZM115.801 85.4896C115.801 86.3849 114.715 86.829 114.087 86.1902L88.9401 60.5819C88.3129 59.9431 87.2266 60.3873 87.2266 61.2826V88.9182C87.2266 89.4705 86.7789 89.9182 86.2266 89.9182H76.0115C75.4592 89.9182 75.0115 89.4705 75.0115 88.9182V45.6792C75.0115 45.1269 75.4592 44.6792 76.0115 44.6792H87.8598C88.1287 44.6792 88.3863 44.7875 88.5744 44.9797L115.515 72.5013C115.698 72.6882 115.801 72.9393 115.801 73.2009V85.4896Z" fill="white"/>
</svg>
