<svg width="292" height="67" viewBox="0 0 292 67" fill="none" xmlns="http://www.w3.org/2000/svg">
<g filter="url(#filter0_d_1743_7)">
<path d="M4 10C4 4.47715 8.47715 0 14 0H278C283.523 0 288 4.47715 288 10V48.2512C288 53.7741 283.523 58.2512 278 58.2512H14C8.47715 58.2512 4 53.774 4 48.2512V10Z" fill="#46C2C0"/>
<path d="M55.784 17.32L47.816 39.784H40.968L33 17.32H38.824L44.392 34.28L49.992 17.32H55.784Z" fill="white"/>
<path d="M63.543 17.32V39.784H58.071V17.32H63.543Z" fill="white"/>
<path d="M72.9805 21.704V26.248H80.3085V30.472H72.9805V35.4H81.2685V39.784H67.5085V17.32H81.2685V21.704H72.9805Z" fill="white"/>
<path d="M115.733 17.32L109.877 39.784H103.253L99.669 25L95.957 39.784H89.333L83.637 17.32H89.493L92.725 33.672L96.725 17.32H102.741L106.581 33.672L109.845 17.32H115.733Z" fill="white"/>
<path d="M142.379 24.552C142.379 25.8533 142.08 27.048 141.482 28.136C140.885 29.2027 139.968 30.0667 138.73 30.728C137.493 31.3893 135.957 31.72 134.122 31.72H130.73V39.784H125.258V17.32H134.122C135.914 17.32 137.429 17.6293 138.667 18.248C139.904 18.8667 140.832 19.72 141.451 20.808C142.069 21.896 142.379 23.144 142.379 24.552ZM133.706 27.368C134.752 27.368 135.531 27.1227 136.043 26.632C136.555 26.1413 136.811 25.448 136.811 24.552C136.811 23.656 136.555 22.9627 136.043 22.472C135.531 21.9813 134.752 21.736 133.706 21.736H130.73V27.368H133.706Z" fill="white"/>
<path d="M156.683 39.784L152.011 31.304H150.699V39.784H145.227V17.32H154.411C156.182 17.32 157.686 17.6293 158.923 18.248C160.182 18.8667 161.121 19.72 161.739 20.808C162.358 21.8747 162.667 23.0693 162.667 24.392C162.667 25.8853 162.241 27.2187 161.387 28.392C160.555 29.5653 159.318 30.3973 157.675 30.888L162.859 39.784H156.683ZM150.699 27.432H154.091C155.094 27.432 155.841 27.1867 156.331 26.696C156.843 26.2053 157.099 25.512 157.099 24.616C157.099 23.7627 156.843 23.0907 156.331 22.6C155.841 22.1093 155.094 21.864 154.091 21.864H150.699V27.432Z" fill="white"/>
<path d="M176.726 40.008C174.614 40.008 172.673 39.5173 170.902 38.536C169.153 37.5547 167.756 36.1893 166.71 34.44C165.686 32.6693 165.174 30.6853 165.174 28.488C165.174 26.2907 165.686 24.3173 166.71 22.568C167.756 20.8187 169.153 19.4533 170.902 18.472C172.673 17.4907 174.614 17 176.726 17C178.838 17 180.769 17.4907 182.518 18.472C184.289 19.4533 185.676 20.8187 186.678 22.568C187.702 24.3173 188.214 26.2907 188.214 28.488C188.214 30.6853 187.702 32.6693 186.678 34.44C185.654 36.1893 184.268 37.5547 182.518 38.536C180.769 39.5173 178.838 40.008 176.726 40.008ZM176.726 35.016C178.518 35.016 179.948 34.4187 181.014 33.224C182.102 32.0293 182.646 30.4507 182.646 28.488C182.646 26.504 182.102 24.9253 181.014 23.752C179.948 22.5573 178.518 21.96 176.726 21.96C174.913 21.96 173.462 22.5467 172.374 23.72C171.308 24.8933 170.774 26.4827 170.774 28.488C170.774 30.472 171.308 32.0613 172.374 33.256C173.462 34.4293 174.913 35.016 176.726 35.016Z" fill="white"/>
<path d="M216.699 17.32V39.784H211.227V26.312L206.202 39.784H201.786L196.73 26.28V39.784H191.258V17.32H197.723L204.027 32.872L210.266 17.32H216.699Z" fill="white"/>
<path d="M237.753 24.552C237.753 25.8533 237.455 27.048 236.857 28.136C236.26 29.2027 235.343 30.0667 234.105 30.728C232.868 31.3893 231.332 31.72 229.497 31.72H226.105V39.784H220.633V17.32H229.497C231.289 17.32 232.804 17.6293 234.042 18.248C235.279 18.8667 236.207 19.72 236.826 20.808C237.444 21.896 237.753 23.144 237.753 24.552ZM229.081 27.368C230.127 27.368 230.906 27.1227 231.417 26.632C231.929 26.1413 232.186 25.448 232.186 24.552C232.186 23.656 231.929 22.9627 231.417 22.472C230.906 21.9813 230.127 21.736 229.081 21.736H226.105V27.368H229.081Z" fill="white"/>
<path d="M256.762 17.32V21.704H250.81V39.784H245.338V21.704H239.386V17.32H256.762Z" fill="white"/>
</g>
<defs>
<filter id="filter0_d_1743_7" x="0" y="0" width="292" height="66.251" filterUnits="userSpaceOnUse" color-interpolation-filters="sRGB">
<feFlood flood-opacity="0" result="BackgroundImageFix"/>
<feColorMatrix in="SourceAlpha" type="matrix" values="0 0 0 0 0 0 0 0 0 0 0 0 0 0 0 0 0 0 127 0" result="hardAlpha"/>
<feOffset dy="4"/>
<feGaussianBlur stdDeviation="2"/>
<feComposite in2="hardAlpha" operator="out"/>
<feColorMatrix type="matrix" values="0 0 0 0 0 0 0 0 0 0 0 0 0 0 0 0 0 0 0.25 0"/>
<feBlend mode="normal" in2="BackgroundImageFix" result="effect1_dropShadow_1743_7"/>
<feBlend mode="normal" in="SourceGraphic" in2="effect1_dropShadow_1743_7" result="shape"/>
</filter>
</defs>
</svg>
