<svg width="65" height="65" viewBox="0 0 65 65" fill="none" xmlns="http://www.w3.org/2000/svg">
<path d="M65 32.5C65 14.5925 50.4075 -6.37857e-07 32.5 -1.42062e-06C14.5926 -2.20338e-06 9.85443e-05 14.5925 9.77615e-05 32.4999C9.69788e-05 50.4074 14.5926 64.9999 32.5 64.9999C50.4075 64.9999 65 50.4074 65 32.5ZM30.7776 41.5674L19.3051 30.095C18.8176 29.6075 18.5901 28.99 18.5901 28.3725C18.5901 27.755 18.8176 27.1375 19.3051 26.65C20.2476 25.7075 21.8076 25.7075 22.7501 26.65L32.5 36.3999L42.25 26.65C43.1925 25.7075 44.7525 25.7075 45.695 26.65C46.6375 27.5925 46.6375 29.1525 45.695 30.095L34.2225 41.5674C33.28 42.5424 31.72 42.5424 30.7776 41.5674Z" fill="#FFFAF0"/>
</svg>
