<svg width="1728" height="866" viewBox="0 0 1728 866" fill="none" xmlns="http://www.w3.org/2000/svg">
<rect x="-1.64051" y="2.35949" width="143.271" height="42.6532" fill="#D4CEC2" stroke="#B3B3B3" stroke-width="3.28101"/>
<rect x="142.724" y="2.35949" width="143.271" height="42.6532" fill="#D4CEC2" stroke="#B3B3B3" stroke-width="3.28101"/>
<rect x="287.089" y="2.35949" width="143.271" height="42.6532" fill="#D4CEC2" stroke="#B3B3B3" stroke-width="3.28101"/>
<rect x="431.453" y="2.35949" width="143.271" height="42.6532" fill="#D4CEC2" stroke="#B3B3B3" stroke-width="3.28101"/>
<rect x="575.818" y="2.35949" width="143.271" height="42.6532" fill="#D4CEC2" stroke="#B3B3B3" stroke-width="3.28101"/>
<rect x="720.182" y="2.35949" width="143.271" height="42.6532" fill="#D4CEC2" stroke="#B3B3B3" stroke-width="3.28101"/>
<rect x="864.547" y="2.35949" width="143.271" height="42.6532" fill="#D4CEC2" stroke="#B3B3B3" stroke-width="3.28101"/>
<rect x="1008.91" y="2.35949" width="143.271" height="42.6532" fill="#D4CEC2" stroke="#B3B3B3" stroke-width="3.28101"/>
<rect x="1153.28" y="2.35949" width="143.271" height="42.6532" fill="#D4CEC2" stroke="#B3B3B3" stroke-width="3.28101"/>
<rect x="1297.64" y="2.35949" width="143.271" height="42.6532" fill="#D4CEC2" stroke="#B3B3B3" stroke-width="3.28101"/>
<rect x="1442.01" y="2.35949" width="143.271" height="42.6532" fill="#D4CEC2" stroke="#B3B3B3" stroke-width="3.28101"/>
<rect x="1586.37" y="2.35949" width="143.271" height="42.6532" fill="#D4CEC2" stroke="#B3B3B3" stroke-width="3.28101"/>
<rect x="-73.6405" y="41.3595" width="143.271" height="42.6532" fill="#D4CEC2" stroke="#B3B3B3" stroke-width="3.28101"/>
<rect x="70.7241" y="41.3595" width="143.271" height="42.6532" fill="#D4CEC2" stroke="#B3B3B3" stroke-width="3.28101"/>
<rect x="215.089" y="41.3595" width="143.271" height="42.6532" fill="#D4CEC2" stroke="#B3B3B3" stroke-width="3.28101"/>
<rect x="359.453" y="41.3595" width="143.271" height="42.6532" fill="#D4CEC2" stroke="#B3B3B3" stroke-width="3.28101"/>
<rect x="503.818" y="41.3595" width="143.271" height="42.6532" fill="#D4CEC2" stroke="#B3B3B3" stroke-width="3.28101"/>
<rect x="648.182" y="41.3595" width="143.271" height="42.6532" fill="#D4CEC2" stroke="#B3B3B3" stroke-width="3.28101"/>
<rect x="792.547" y="41.3595" width="143.271" height="42.6532" fill="#D4CEC2" stroke="#B3B3B3" stroke-width="3.28101"/>
<rect x="936.911" y="41.3595" width="143.271" height="42.6532" fill="#D4CEC2" stroke="#B3B3B3" stroke-width="3.28101"/>
<rect x="1081.28" y="41.3595" width="143.271" height="42.6532" fill="#D4CEC2" stroke="#B3B3B3" stroke-width="3.28101"/>
<rect x="1225.64" y="41.3595" width="143.271" height="42.6532" fill="#D4CEC2" stroke="#B3B3B3" stroke-width="3.28101"/>
<rect x="1370.01" y="41.3595" width="143.271" height="42.6532" fill="#D4CEC2" stroke="#B3B3B3" stroke-width="3.28101"/>
<rect x="1514.37" y="41.3595" width="143.271" height="42.6532" fill="#D4CEC2" stroke="#B3B3B3" stroke-width="3.28101"/>
<rect x="1658.36" y="41.3595" width="143.271" height="42.6532" fill="#D4CEC2" stroke="#B3B3B3" stroke-width="3.28101"/>
<rect x="-1.64051" y="80.3595" width="143.271" height="42.6532" fill="#D4CEC2" stroke="#B3B3B3" stroke-width="3.28101"/>
<rect x="142.724" y="80.3595" width="143.271" height="42.6532" fill="#D4CEC2" stroke="#B3B3B3" stroke-width="3.28101"/>
<rect x="287.089" y="80.3595" width="143.271" height="42.6532" fill="#D4CEC2" stroke="#B3B3B3" stroke-width="3.28101"/>
<rect x="431.453" y="80.3595" width="143.271" height="42.6532" fill="#D4CEC2" stroke="#B3B3B3" stroke-width="3.28101"/>
<rect x="575.818" y="80.3595" width="143.271" height="42.6532" fill="#D4CEC2" stroke="#B3B3B3" stroke-width="3.28101"/>
<rect x="720.182" y="80.3595" width="143.271" height="42.6532" fill="#D4CEC2" stroke="#B3B3B3" stroke-width="3.28101"/>
<rect x="864.547" y="80.3595" width="143.271" height="42.6532" fill="#D4CEC2" stroke="#B3B3B3" stroke-width="3.28101"/>
<rect x="1008.91" y="80.3595" width="143.271" height="42.6532" fill="#D4CEC2" stroke="#B3B3B3" stroke-width="3.28101"/>
<rect x="1153.28" y="80.3595" width="143.271" height="42.6532" fill="#D4CEC2" stroke="#B3B3B3" stroke-width="3.28101"/>
<rect x="1297.64" y="80.3595" width="143.271" height="42.6532" fill="#D4CEC2" stroke="#B3B3B3" stroke-width="3.28101"/>
<rect x="1442.01" y="80.3595" width="143.271" height="42.6532" fill="#D4CEC2" stroke="#B3B3B3" stroke-width="3.28101"/>
<rect x="1586.37" y="80.3595" width="143.271" height="42.6532" fill="#D4CEC2" stroke="#B3B3B3" stroke-width="3.28101"/>
<rect x="-73.6405" y="119.359" width="143.271" height="42.6532" fill="#D4CEC2" stroke="#B3B3B3" stroke-width="3.28101"/>
<rect x="70.7241" y="119.359" width="143.271" height="42.6532" fill="#D4CEC2" stroke="#B3B3B3" stroke-width="3.28101"/>
<rect x="215.089" y="119.359" width="143.271" height="42.6532" fill="#D4CEC2" stroke="#B3B3B3" stroke-width="3.28101"/>
<rect x="359.453" y="119.359" width="143.271" height="42.6532" fill="#D4CEC2" stroke="#B3B3B3" stroke-width="3.28101"/>
<rect x="503.818" y="119.359" width="143.271" height="42.6532" fill="#D4CEC2" stroke="#B3B3B3" stroke-width="3.28101"/>
<rect x="648.182" y="119.359" width="143.271" height="42.6532" fill="#D4CEC2" stroke="#B3B3B3" stroke-width="3.28101"/>
<rect x="792.547" y="119.359" width="143.271" height="42.6532" fill="#D4CEC2" stroke="#B3B3B3" stroke-width="3.28101"/>
<rect x="936.911" y="119.359" width="143.271" height="42.6532" fill="#D4CEC2" stroke="#B3B3B3" stroke-width="3.28101"/>
<rect x="1081.28" y="119.359" width="143.271" height="42.6532" fill="#D4CEC2" stroke="#B3B3B3" stroke-width="3.28101"/>
<rect x="1225.64" y="119.359" width="143.271" height="42.6532" fill="#D4CEC2" stroke="#B3B3B3" stroke-width="3.28101"/>
<rect x="1370.01" y="119.359" width="143.271" height="42.6532" fill="#D4CEC2" stroke="#B3B3B3" stroke-width="3.28101"/>
<rect x="1514.37" y="119.359" width="143.271" height="42.6532" fill="#D4CEC2" stroke="#B3B3B3" stroke-width="3.28101"/>
<rect x="1658.36" y="119.359" width="143.271" height="42.6532" fill="#D4CEC2" stroke="#B3B3B3" stroke-width="3.28101"/>
<rect x="-1.64051" y="158.359" width="143.271" height="42.6532" fill="#D4CEC2" stroke="#B3B3B3" stroke-width="3.28101"/>
<rect x="142.724" y="158.359" width="143.271" height="42.6532" fill="#D4CEC2" stroke="#B3B3B3" stroke-width="3.28101"/>
<rect x="287.089" y="158.359" width="143.271" height="42.6532" fill="#D4CEC2" stroke="#B3B3B3" stroke-width="3.28101"/>
<rect x="431.453" y="158.359" width="143.271" height="42.6532" fill="#D4CEC2" stroke="#B3B3B3" stroke-width="3.28101"/>
<rect x="575.818" y="158.359" width="143.271" height="42.6532" fill="#D4CEC2" stroke="#B3B3B3" stroke-width="3.28101"/>
<rect x="720.182" y="158.359" width="143.271" height="42.6532" fill="#D4CEC2" stroke="#B3B3B3" stroke-width="3.28101"/>
<rect x="864.547" y="158.359" width="143.271" height="42.6532" fill="#D4CEC2" stroke="#B3B3B3" stroke-width="3.28101"/>
<rect x="1008.91" y="158.359" width="143.271" height="42.6532" fill="#D4CEC2" stroke="#B3B3B3" stroke-width="3.28101"/>
<rect x="1153.28" y="158.359" width="143.271" height="42.6532" fill="#D4CEC2" stroke="#B3B3B3" stroke-width="3.28101"/>
<rect x="1297.64" y="158.359" width="143.271" height="42.6532" fill="#D4CEC2" stroke="#B3B3B3" stroke-width="3.28101"/>
<rect x="1442.01" y="158.359" width="143.271" height="42.6532" fill="#D4CEC2" stroke="#B3B3B3" stroke-width="3.28101"/>
<rect x="1586.37" y="158.359" width="143.271" height="42.6532" fill="#D4CEC2" stroke="#B3B3B3" stroke-width="3.28101"/>
<rect x="-73.6405" y="197.359" width="143.271" height="42.6532" fill="#D4CEC2" stroke="#B3B3B3" stroke-width="3.28101"/>
<rect x="70.7241" y="197.359" width="143.271" height="42.6532" fill="#D4CEC2" stroke="#B3B3B3" stroke-width="3.28101"/>
<rect x="215.089" y="197.359" width="143.271" height="42.6532" fill="#D4CEC2" stroke="#B3B3B3" stroke-width="3.28101"/>
<rect x="359.453" y="197.359" width="143.271" height="42.6532" fill="#D4CEC2" stroke="#B3B3B3" stroke-width="3.28101"/>
<rect x="503.818" y="197.359" width="143.271" height="42.6532" fill="#D4CEC2" stroke="#B3B3B3" stroke-width="3.28101"/>
<rect x="648.182" y="197.359" width="143.271" height="42.6532" fill="#D4CEC2" stroke="#B3B3B3" stroke-width="3.28101"/>
<rect x="792.547" y="197.359" width="143.271" height="42.6532" fill="#D4CEC2" stroke="#B3B3B3" stroke-width="3.28101"/>
<rect x="936.911" y="197.359" width="143.271" height="42.6532" fill="#D4CEC2" stroke="#B3B3B3" stroke-width="3.28101"/>
<rect x="1081.28" y="197.359" width="143.271" height="42.6532" fill="#D4CEC2" stroke="#B3B3B3" stroke-width="3.28101"/>
<rect x="1225.64" y="197.359" width="143.271" height="42.6532" fill="#D4CEC2" stroke="#B3B3B3" stroke-width="3.28101"/>
<rect x="1370.01" y="197.359" width="143.271" height="42.6532" fill="#D4CEC2" stroke="#B3B3B3" stroke-width="3.28101"/>
<rect x="1514.37" y="197.359" width="143.271" height="42.6532" fill="#D4CEC2" stroke="#B3B3B3" stroke-width="3.28101"/>
<rect x="1658.36" y="197.359" width="143.271" height="42.6532" fill="#D4CEC2" stroke="#B3B3B3" stroke-width="3.28101"/>
<rect x="-1.64051" y="236.359" width="143.271" height="42.6532" fill="#D4CEC2" stroke="#B3B3B3" stroke-width="3.28101"/>
<rect x="142.724" y="236.359" width="143.271" height="42.6532" fill="#D4CEC2" stroke="#B3B3B3" stroke-width="3.28101"/>
<rect x="287.089" y="236.359" width="143.271" height="42.6532" fill="#D4CEC2" stroke="#B3B3B3" stroke-width="3.28101"/>
<rect x="431.453" y="236.359" width="143.271" height="42.6532" fill="#D4CEC2" stroke="#B3B3B3" stroke-width="3.28101"/>
<rect x="575.818" y="236.359" width="143.271" height="42.6532" fill="#D4CEC2" stroke="#B3B3B3" stroke-width="3.28101"/>
<rect x="720.182" y="236.359" width="143.271" height="42.6532" fill="#D4CEC2" stroke="#B3B3B3" stroke-width="3.28101"/>
<rect x="864.547" y="236.359" width="143.271" height="42.6532" fill="#D4CEC2" stroke="#B3B3B3" stroke-width="3.28101"/>
<rect x="1008.91" y="236.359" width="143.271" height="42.6532" fill="#D4CEC2" stroke="#B3B3B3" stroke-width="3.28101"/>
<rect x="1153.28" y="236.359" width="143.271" height="42.6532" fill="#D4CEC2" stroke="#B3B3B3" stroke-width="3.28101"/>
<rect x="1297.64" y="236.359" width="143.271" height="42.6532" fill="#D4CEC2" stroke="#B3B3B3" stroke-width="3.28101"/>
<rect x="1442.01" y="236.359" width="143.271" height="42.6532" fill="#D4CEC2" stroke="#B3B3B3" stroke-width="3.28101"/>
<rect x="1586.37" y="236.359" width="143.271" height="42.6532" fill="#D4CEC2" stroke="#B3B3B3" stroke-width="3.28101"/>
<rect x="-73.6405" y="275.359" width="143.271" height="42.6532" fill="#D4CEC2" stroke="#B3B3B3" stroke-width="3.28101"/>
<rect x="70.7241" y="275.359" width="143.271" height="42.6532" fill="#D4CEC2" stroke="#B3B3B3" stroke-width="3.28101"/>
<rect x="215.089" y="275.359" width="143.271" height="42.6532" fill="#D4CEC2" stroke="#B3B3B3" stroke-width="3.28101"/>
<rect x="359.453" y="275.359" width="143.271" height="42.6532" fill="#D4CEC2" stroke="#B3B3B3" stroke-width="3.28101"/>
<rect x="503.818" y="275.359" width="143.271" height="42.6532" fill="#D4CEC2" stroke="#B3B3B3" stroke-width="3.28101"/>
<rect x="648.182" y="275.359" width="143.271" height="42.6532" fill="#D4CEC2" stroke="#B3B3B3" stroke-width="3.28101"/>
<rect x="792.547" y="275.359" width="143.271" height="42.6532" fill="#D4CEC2" stroke="#B3B3B3" stroke-width="3.28101"/>
<rect x="936.911" y="275.359" width="143.271" height="42.6532" fill="#D4CEC2" stroke="#B3B3B3" stroke-width="3.28101"/>
<rect x="1081.28" y="275.359" width="143.271" height="42.6532" fill="#D4CEC2" stroke="#B3B3B3" stroke-width="3.28101"/>
<rect x="1225.64" y="275.359" width="143.271" height="42.6532" fill="#D4CEC2" stroke="#B3B3B3" stroke-width="3.28101"/>
<rect x="1370.01" y="275.359" width="143.271" height="42.6532" fill="#D4CEC2" stroke="#B3B3B3" stroke-width="3.28101"/>
<rect x="1514.37" y="275.359" width="143.271" height="42.6532" fill="#D4CEC2" stroke="#B3B3B3" stroke-width="3.28101"/>
<rect x="1658.36" y="275.359" width="143.271" height="42.6532" fill="#D4CEC2" stroke="#B3B3B3" stroke-width="3.28101"/>
<rect x="-1.64051" y="314.359" width="143.271" height="42.6532" fill="#D4CEC2" stroke="#B3B3B3" stroke-width="3.28101"/>
<rect x="142.724" y="314.359" width="143.271" height="42.6532" fill="#D4CEC2" stroke="#B3B3B3" stroke-width="3.28101"/>
<rect x="287.089" y="314.359" width="143.271" height="42.6532" fill="#D4CEC2" stroke="#B3B3B3" stroke-width="3.28101"/>
<rect x="431.453" y="314.359" width="143.271" height="42.6532" fill="#D4CEC2" stroke="#B3B3B3" stroke-width="3.28101"/>
<rect x="575.818" y="314.359" width="143.271" height="42.6532" fill="#D4CEC2" stroke="#B3B3B3" stroke-width="3.28101"/>
<rect x="720.182" y="314.359" width="143.271" height="42.6532" fill="#D4CEC2" stroke="#B3B3B3" stroke-width="3.28101"/>
<rect x="864.547" y="314.359" width="143.271" height="42.6532" fill="#D4CEC2" stroke="#B3B3B3" stroke-width="3.28101"/>
<rect x="1008.91" y="314.359" width="143.271" height="42.6532" fill="#D4CEC2" stroke="#B3B3B3" stroke-width="3.28101"/>
<rect x="1153.28" y="314.359" width="143.271" height="42.6532" fill="#D4CEC2" stroke="#B3B3B3" stroke-width="3.28101"/>
<rect x="1297.64" y="314.359" width="143.271" height="42.6532" fill="#D4CEC2" stroke="#B3B3B3" stroke-width="3.28101"/>
<rect x="1442.01" y="314.359" width="143.271" height="42.6532" fill="#D4CEC2" stroke="#B3B3B3" stroke-width="3.28101"/>
<rect x="1586.37" y="314.359" width="143.271" height="42.6532" fill="#D4CEC2" stroke="#B3B3B3" stroke-width="3.28101"/>
<rect x="-73.6405" y="353.359" width="143.271" height="42.6532" fill="#D4CEC2" stroke="#B3B3B3" stroke-width="3.28101"/>
<rect x="70.7241" y="353.359" width="143.271" height="42.6532" fill="#D4CEC2" stroke="#B3B3B3" stroke-width="3.28101"/>
<rect x="215.089" y="353.359" width="143.271" height="42.6532" fill="#D4CEC2" stroke="#B3B3B3" stroke-width="3.28101"/>
<rect x="359.453" y="353.359" width="143.271" height="42.6532" fill="#D4CEC2" stroke="#B3B3B3" stroke-width="3.28101"/>
<rect x="503.818" y="353.359" width="143.271" height="42.6532" fill="#D4CEC2" stroke="#B3B3B3" stroke-width="3.28101"/>
<rect x="648.182" y="353.359" width="143.271" height="42.6532" fill="#D4CEC2" stroke="#B3B3B3" stroke-width="3.28101"/>
<rect x="792.547" y="353.359" width="143.271" height="42.6532" fill="#D4CEC2" stroke="#B3B3B3" stroke-width="3.28101"/>
<rect x="936.911" y="353.359" width="143.271" height="42.6532" fill="#D4CEC2" stroke="#B3B3B3" stroke-width="3.28101"/>
<rect x="1081.28" y="353.359" width="143.271" height="42.6532" fill="#D4CEC2" stroke="#B3B3B3" stroke-width="3.28101"/>
<rect x="1225.64" y="353.359" width="143.271" height="42.6532" fill="#D4CEC2" stroke="#B3B3B3" stroke-width="3.28101"/>
<rect x="1370.01" y="353.359" width="143.271" height="42.6532" fill="#D4CEC2" stroke="#B3B3B3" stroke-width="3.28101"/>
<rect x="1514.37" y="353.359" width="143.271" height="42.6532" fill="#D4CEC2" stroke="#B3B3B3" stroke-width="3.28101"/>
<rect x="1658.36" y="353.359" width="143.271" height="42.6532" fill="#D4CEC2" stroke="#B3B3B3" stroke-width="3.28101"/>
<rect x="-1.64051" y="392.359" width="143.271" height="42.6532" fill="#D4CEC2" stroke="#B3B3B3" stroke-width="3.28101"/>
<rect x="142.724" y="392.359" width="143.271" height="42.6532" fill="#D4CEC2" stroke="#B3B3B3" stroke-width="3.28101"/>
<rect x="287.089" y="392.359" width="143.271" height="42.6532" fill="#D4CEC2" stroke="#B3B3B3" stroke-width="3.28101"/>
<rect x="431.453" y="392.359" width="143.271" height="42.6532" fill="#D4CEC2" stroke="#B3B3B3" stroke-width="3.28101"/>
<rect x="575.818" y="392.359" width="143.271" height="42.6532" fill="#D4CEC2" stroke="#B3B3B3" stroke-width="3.28101"/>
<rect x="720.182" y="392.359" width="143.271" height="42.6532" fill="#D4CEC2" stroke="#B3B3B3" stroke-width="3.28101"/>
<rect x="864.547" y="392.359" width="143.271" height="42.6532" fill="#D4CEC2" stroke="#B3B3B3" stroke-width="3.28101"/>
<rect x="1008.91" y="392.359" width="143.271" height="42.6532" fill="#D4CEC2" stroke="#B3B3B3" stroke-width="3.28101"/>
<rect x="1153.28" y="392.359" width="143.271" height="42.6532" fill="#D4CEC2" stroke="#B3B3B3" stroke-width="3.28101"/>
<rect x="1297.64" y="392.359" width="143.271" height="42.6532" fill="#D4CEC2" stroke="#B3B3B3" stroke-width="3.28101"/>
<rect x="1442.01" y="392.359" width="143.271" height="42.6532" fill="#D4CEC2" stroke="#B3B3B3" stroke-width="3.28101"/>
<rect x="1586.37" y="392.359" width="143.271" height="42.6532" fill="#D4CEC2" stroke="#B3B3B3" stroke-width="3.28101"/>
<rect x="-73.6405" y="431.359" width="143.271" height="42.6532" fill="#D4CEC2" stroke="#B3B3B3" stroke-width="3.28101"/>
<rect x="70.7241" y="431.359" width="143.271" height="42.6532" fill="#D4CEC2" stroke="#B3B3B3" stroke-width="3.28101"/>
<rect x="215.089" y="431.359" width="143.271" height="42.6532" fill="#D4CEC2" stroke="#B3B3B3" stroke-width="3.28101"/>
<rect x="359.453" y="431.359" width="143.271" height="42.6532" fill="#D4CEC2" stroke="#B3B3B3" stroke-width="3.28101"/>
<rect x="503.818" y="431.359" width="143.271" height="42.6532" fill="#D4CEC2" stroke="#B3B3B3" stroke-width="3.28101"/>
<rect x="648.182" y="431.359" width="143.271" height="42.6532" fill="#D4CEC2" stroke="#B3B3B3" stroke-width="3.28101"/>
<rect x="792.547" y="431.359" width="143.271" height="42.6532" fill="#D4CEC2" stroke="#B3B3B3" stroke-width="3.28101"/>
<rect x="936.911" y="431.359" width="143.271" height="42.6532" fill="#D4CEC2" stroke="#B3B3B3" stroke-width="3.28101"/>
<rect x="1081.28" y="431.359" width="143.271" height="42.6532" fill="#D4CEC2" stroke="#B3B3B3" stroke-width="3.28101"/>
<rect x="1225.64" y="431.359" width="143.271" height="42.6532" fill="#D4CEC2" stroke="#B3B3B3" stroke-width="3.28101"/>
<rect x="1370.01" y="431.359" width="143.271" height="42.6532" fill="#D4CEC2" stroke="#B3B3B3" stroke-width="3.28101"/>
<rect x="1514.37" y="431.359" width="143.271" height="42.6532" fill="#D4CEC2" stroke="#B3B3B3" stroke-width="3.28101"/>
<rect x="1658.36" y="431.359" width="143.271" height="42.6532" fill="#D4CEC2" stroke="#B3B3B3" stroke-width="3.28101"/>
<rect x="-1.64051" y="470.359" width="143.271" height="42.6532" fill="#D4CEC2" stroke="#B3B3B3" stroke-width="3.28101"/>
<rect x="142.724" y="470.359" width="143.271" height="42.6532" fill="#D4CEC2" stroke="#B3B3B3" stroke-width="3.28101"/>
<rect x="287.089" y="470.359" width="143.271" height="42.6532" fill="#D4CEC2" stroke="#B3B3B3" stroke-width="3.28101"/>
<rect x="431.453" y="470.359" width="143.271" height="42.6532" fill="#D4CEC2" stroke="#B3B3B3" stroke-width="3.28101"/>
<rect x="575.818" y="470.359" width="143.271" height="42.6532" fill="#D4CEC2" stroke="#B3B3B3" stroke-width="3.28101"/>
<rect x="720.182" y="470.359" width="143.271" height="42.6532" fill="#D4CEC2" stroke="#B3B3B3" stroke-width="3.28101"/>
<rect x="864.547" y="470.359" width="143.271" height="42.6532" fill="#D4CEC2" stroke="#B3B3B3" stroke-width="3.28101"/>
<rect x="1008.91" y="470.359" width="143.271" height="42.6532" fill="#D4CEC2" stroke="#B3B3B3" stroke-width="3.28101"/>
<rect x="1153.28" y="470.359" width="143.271" height="42.6532" fill="#D4CEC2" stroke="#B3B3B3" stroke-width="3.28101"/>
<rect x="1297.64" y="470.359" width="143.271" height="42.6532" fill="#D4CEC2" stroke="#B3B3B3" stroke-width="3.28101"/>
<rect x="1442.01" y="470.359" width="143.271" height="42.6532" fill="#D4CEC2" stroke="#B3B3B3" stroke-width="3.28101"/>
<rect x="1586.37" y="470.359" width="143.271" height="42.6532" fill="#D4CEC2" stroke="#B3B3B3" stroke-width="3.28101"/>
<rect x="-73.6405" y="509.359" width="143.271" height="42.6532" fill="#D4CEC2" stroke="#B3B3B3" stroke-width="3.28101"/>
<rect x="70.7241" y="509.359" width="143.271" height="42.6532" fill="#D4CEC2" stroke="#B3B3B3" stroke-width="3.28101"/>
<rect x="215.089" y="509.359" width="143.271" height="42.6532" fill="#D4CEC2" stroke="#B3B3B3" stroke-width="3.28101"/>
<rect x="359.453" y="509.359" width="143.271" height="42.6532" fill="#D4CEC2" stroke="#B3B3B3" stroke-width="3.28101"/>
<rect x="503.818" y="509.359" width="143.271" height="42.6532" fill="#D4CEC2" stroke="#B3B3B3" stroke-width="3.28101"/>
<rect x="648.182" y="509.359" width="143.271" height="42.6532" fill="#D4CEC2" stroke="#B3B3B3" stroke-width="3.28101"/>
<rect x="792.547" y="509.359" width="143.271" height="42.6532" fill="#D4CEC2" stroke="#B3B3B3" stroke-width="3.28101"/>
<rect x="936.911" y="509.359" width="143.271" height="42.6532" fill="#D4CEC2" stroke="#B3B3B3" stroke-width="3.28101"/>
<rect x="1081.28" y="509.359" width="143.271" height="42.6532" fill="#D4CEC2" stroke="#B3B3B3" stroke-width="3.28101"/>
<rect x="1225.64" y="509.359" width="143.271" height="42.6532" fill="#D4CEC2" stroke="#B3B3B3" stroke-width="3.28101"/>
<rect x="1370.01" y="509.359" width="143.271" height="42.6532" fill="#D4CEC2" stroke="#B3B3B3" stroke-width="3.28101"/>
<rect x="1514.37" y="509.359" width="143.271" height="42.6532" fill="#D4CEC2" stroke="#B3B3B3" stroke-width="3.28101"/>
<rect x="1658.36" y="509.359" width="143.271" height="42.6532" fill="#D4CEC2" stroke="#B3B3B3" stroke-width="3.28101"/>
<rect x="-1.64051" y="548.359" width="143.271" height="42.6532" fill="#D4CEC2" stroke="#B3B3B3" stroke-width="3.28101"/>
<rect x="142.724" y="548.359" width="143.271" height="42.6532" fill="#D4CEC2" stroke="#B3B3B3" stroke-width="3.28101"/>
<rect x="287.089" y="548.359" width="143.271" height="42.6532" fill="#D4CEC2" stroke="#B3B3B3" stroke-width="3.28101"/>
<rect x="431.453" y="548.359" width="143.271" height="42.6532" fill="#D4CEC2" stroke="#B3B3B3" stroke-width="3.28101"/>
<rect x="575.818" y="548.359" width="143.271" height="42.6532" fill="#D4CEC2" stroke="#B3B3B3" stroke-width="3.28101"/>
<rect x="720.182" y="548.359" width="143.271" height="42.6532" fill="#D4CEC2" stroke="#B3B3B3" stroke-width="3.28101"/>
<rect x="864.547" y="548.359" width="143.271" height="42.6532" fill="#D4CEC2" stroke="#B3B3B3" stroke-width="3.28101"/>
<rect x="1008.91" y="548.359" width="143.271" height="42.6532" fill="#D4CEC2" stroke="#B3B3B3" stroke-width="3.28101"/>
<rect x="1153.28" y="548.359" width="143.271" height="42.6532" fill="#D4CEC2" stroke="#B3B3B3" stroke-width="3.28101"/>
<rect x="1297.64" y="548.359" width="143.271" height="42.6532" fill="#D4CEC2" stroke="#B3B3B3" stroke-width="3.28101"/>
<rect x="1442.01" y="548.359" width="143.271" height="42.6532" fill="#D4CEC2" stroke="#B3B3B3" stroke-width="3.28101"/>
<rect x="1586.37" y="548.359" width="143.271" height="42.6532" fill="#D4CEC2" stroke="#B3B3B3" stroke-width="3.28101"/>
<rect x="-73.6405" y="587.359" width="143.271" height="42.6532" fill="#D4CEC2" stroke="#B3B3B3" stroke-width="3.28101"/>
<rect x="70.7241" y="587.359" width="143.271" height="42.6532" fill="#D4CEC2" stroke="#B3B3B3" stroke-width="3.28101"/>
<rect x="215.089" y="587.359" width="143.271" height="42.6532" fill="#D4CEC2" stroke="#B3B3B3" stroke-width="3.28101"/>
<rect x="359.453" y="587.359" width="143.271" height="42.6532" fill="#D4CEC2" stroke="#B3B3B3" stroke-width="3.28101"/>
<rect x="503.818" y="587.359" width="143.271" height="42.6532" fill="#D4CEC2" stroke="#B3B3B3" stroke-width="3.28101"/>
<rect x="648.182" y="587.359" width="143.271" height="42.6532" fill="#D4CEC2" stroke="#B3B3B3" stroke-width="3.28101"/>
<rect x="792.547" y="587.359" width="143.271" height="42.6532" fill="#D4CEC2" stroke="#B3B3B3" stroke-width="3.28101"/>
<rect x="936.911" y="587.359" width="143.271" height="42.6532" fill="#D4CEC2" stroke="#B3B3B3" stroke-width="3.28101"/>
<rect x="1081.28" y="587.359" width="143.271" height="42.6532" fill="#D4CEC2" stroke="#B3B3B3" stroke-width="3.28101"/>
<rect x="1225.64" y="587.359" width="143.271" height="42.6532" fill="#D4CEC2" stroke="#B3B3B3" stroke-width="3.28101"/>
<rect x="1370.01" y="587.359" width="143.271" height="42.6532" fill="#D4CEC2" stroke="#B3B3B3" stroke-width="3.28101"/>
<rect x="1514.37" y="587.359" width="143.271" height="42.6532" fill="#D4CEC2" stroke="#B3B3B3" stroke-width="3.28101"/>
<rect x="1658.36" y="587.359" width="143.271" height="42.6532" fill="#D4CEC2" stroke="#B3B3B3" stroke-width="3.28101"/>
<rect x="-1.64051" y="626.359" width="143.271" height="42.6532" fill="#D4CEC2" stroke="#B3B3B3" stroke-width="3.28101"/>
<rect x="142.724" y="626.359" width="143.271" height="42.6532" fill="#D4CEC2" stroke="#B3B3B3" stroke-width="3.28101"/>
<rect x="287.089" y="626.359" width="143.271" height="42.6532" fill="#D4CEC2" stroke="#B3B3B3" stroke-width="3.28101"/>
<rect x="431.453" y="626.359" width="143.271" height="42.6532" fill="#D4CEC2" stroke="#B3B3B3" stroke-width="3.28101"/>
<rect x="575.818" y="626.359" width="143.271" height="42.6532" fill="#D4CEC2" stroke="#B3B3B3" stroke-width="3.28101"/>
<rect x="720.182" y="626.359" width="143.271" height="42.6532" fill="#D4CEC2" stroke="#B3B3B3" stroke-width="3.28101"/>
<rect x="864.547" y="626.359" width="143.271" height="42.6532" fill="#D4CEC2" stroke="#B3B3B3" stroke-width="3.28101"/>
<rect x="1008.91" y="626.359" width="143.271" height="42.6532" fill="#D4CEC2" stroke="#B3B3B3" stroke-width="3.28101"/>
<rect x="1153.28" y="626.359" width="143.271" height="42.6532" fill="#D4CEC2" stroke="#B3B3B3" stroke-width="3.28101"/>
<rect x="1297.64" y="626.359" width="143.271" height="42.6532" fill="#D4CEC2" stroke="#B3B3B3" stroke-width="3.28101"/>
<rect x="1442.01" y="626.359" width="143.271" height="42.6532" fill="#D4CEC2" stroke="#B3B3B3" stroke-width="3.28101"/>
<rect x="1586.37" y="626.359" width="143.271" height="42.6532" fill="#D4CEC2" stroke="#B3B3B3" stroke-width="3.28101"/>
<rect x="-73.6405" y="665.359" width="143.271" height="42.6532" fill="#D4CEC2" stroke="#B3B3B3" stroke-width="3.28101"/>
<rect x="70.7241" y="665.359" width="143.271" height="42.6532" fill="#D4CEC2" stroke="#B3B3B3" stroke-width="3.28101"/>
<rect x="215.089" y="665.359" width="143.271" height="42.6532" fill="#D4CEC2" stroke="#B3B3B3" stroke-width="3.28101"/>
<rect x="359.453" y="665.359" width="143.271" height="42.6532" fill="#D4CEC2" stroke="#B3B3B3" stroke-width="3.28101"/>
<rect x="503.818" y="665.359" width="143.271" height="42.6532" fill="#D4CEC2" stroke="#B3B3B3" stroke-width="3.28101"/>
<rect x="648.182" y="665.359" width="143.271" height="42.6532" fill="#D4CEC2" stroke="#B3B3B3" stroke-width="3.28101"/>
<rect x="792.547" y="665.359" width="143.271" height="42.6532" fill="#D4CEC2" stroke="#B3B3B3" stroke-width="3.28101"/>
<rect x="936.911" y="665.359" width="143.271" height="42.6532" fill="#D4CEC2" stroke="#B3B3B3" stroke-width="3.28101"/>
<rect x="1081.28" y="665.359" width="143.271" height="42.6532" fill="#D4CEC2" stroke="#B3B3B3" stroke-width="3.28101"/>
<rect x="1225.64" y="665.359" width="143.271" height="42.6532" fill="#D4CEC2" stroke="#B3B3B3" stroke-width="3.28101"/>
<rect x="1370.01" y="665.359" width="143.271" height="42.6532" fill="#D4CEC2" stroke="#B3B3B3" stroke-width="3.28101"/>
<rect x="1514.37" y="665.359" width="143.271" height="42.6532" fill="#D4CEC2" stroke="#B3B3B3" stroke-width="3.28101"/>
<rect x="1658.36" y="665.359" width="143.271" height="42.6532" fill="#D4CEC2" stroke="#B3B3B3" stroke-width="3.28101"/>
<rect x="-1.64051" y="704.359" width="143.271" height="42.6532" fill="#D4CEC2" stroke="#B3B3B3" stroke-width="3.28101"/>
<rect x="142.724" y="704.359" width="143.271" height="42.6532" fill="#D4CEC2" stroke="#B3B3B3" stroke-width="3.28101"/>
<rect x="287.089" y="704.359" width="143.271" height="42.6532" fill="#D4CEC2" stroke="#B3B3B3" stroke-width="3.28101"/>
<rect x="431.453" y="704.359" width="143.271" height="42.6532" fill="#D4CEC2" stroke="#B3B3B3" stroke-width="3.28101"/>
<rect x="575.818" y="704.359" width="143.271" height="42.6532" fill="#D4CEC2" stroke="#B3B3B3" stroke-width="3.28101"/>
<rect x="720.182" y="704.359" width="143.271" height="42.6532" fill="#D4CEC2" stroke="#B3B3B3" stroke-width="3.28101"/>
<rect x="864.547" y="704.359" width="143.271" height="42.6532" fill="#D4CEC2" stroke="#B3B3B3" stroke-width="3.28101"/>
<rect x="1008.91" y="704.359" width="143.271" height="42.6532" fill="#D4CEC2" stroke="#B3B3B3" stroke-width="3.28101"/>
<rect x="1153.28" y="704.359" width="143.271" height="42.6532" fill="#D4CEC2" stroke="#B3B3B3" stroke-width="3.28101"/>
<rect x="1297.64" y="704.359" width="143.271" height="42.6532" fill="#D4CEC2" stroke="#B3B3B3" stroke-width="3.28101"/>
<rect x="1442.01" y="704.359" width="143.271" height="42.6532" fill="#D4CEC2" stroke="#B3B3B3" stroke-width="3.28101"/>
<rect x="1586.37" y="704.359" width="143.271" height="42.6532" fill="#D4CEC2" stroke="#B3B3B3" stroke-width="3.28101"/>
<rect x="-73.6405" y="743.359" width="143.271" height="42.6532" fill="#D4CEC2" stroke="#B3B3B3" stroke-width="3.28101"/>
<rect x="70.7241" y="743.359" width="143.271" height="42.6532" fill="#D4CEC2" stroke="#B3B3B3" stroke-width="3.28101"/>
<rect x="215.089" y="743.359" width="143.271" height="42.6532" fill="#D4CEC2" stroke="#B3B3B3" stroke-width="3.28101"/>
<rect x="359.453" y="743.359" width="143.271" height="42.6532" fill="#D4CEC2" stroke="#B3B3B3" stroke-width="3.28101"/>
<rect x="503.818" y="743.359" width="143.271" height="42.6532" fill="#D4CEC2" stroke="#B3B3B3" stroke-width="3.28101"/>
<rect x="648.182" y="743.359" width="143.271" height="42.6532" fill="#D4CEC2" stroke="#B3B3B3" stroke-width="3.28101"/>
<rect x="792.547" y="743.359" width="143.271" height="42.6532" fill="#D4CEC2" stroke="#B3B3B3" stroke-width="3.28101"/>
<rect x="936.911" y="743.359" width="143.271" height="42.6532" fill="#D4CEC2" stroke="#B3B3B3" stroke-width="3.28101"/>
<rect x="1081.28" y="743.359" width="143.271" height="42.6532" fill="#D4CEC2" stroke="#B3B3B3" stroke-width="3.28101"/>
<rect x="1225.64" y="743.359" width="143.271" height="42.6532" fill="#D4CEC2" stroke="#B3B3B3" stroke-width="3.28101"/>
<rect x="1370.01" y="743.359" width="143.271" height="42.6532" fill="#D4CEC2" stroke="#B3B3B3" stroke-width="3.28101"/>
<rect x="1514.37" y="743.359" width="143.271" height="42.6532" fill="#D4CEC2" stroke="#B3B3B3" stroke-width="3.28101"/>
<rect x="1658.36" y="743.359" width="143.271" height="42.6532" fill="#D4CEC2" stroke="#B3B3B3" stroke-width="3.28101"/>
<rect x="-1.64051" y="782.359" width="143.271" height="42.6532" fill="#D4CEC2" stroke="#B3B3B3" stroke-width="3.28101"/>
<rect x="142.724" y="782.359" width="143.271" height="42.6532" fill="#D4CEC2" stroke="#B3B3B3" stroke-width="3.28101"/>
<rect x="287.089" y="782.359" width="143.271" height="42.6532" fill="#D4CEC2" stroke="#B3B3B3" stroke-width="3.28101"/>
<rect x="431.453" y="782.359" width="143.271" height="42.6532" fill="#D4CEC2" stroke="#B3B3B3" stroke-width="3.28101"/>
<rect x="575.818" y="782.359" width="143.271" height="42.6532" fill="#D4CEC2" stroke="#B3B3B3" stroke-width="3.28101"/>
<rect x="720.182" y="782.359" width="143.271" height="42.6532" fill="#D4CEC2" stroke="#B3B3B3" stroke-width="3.28101"/>
<rect x="864.547" y="782.359" width="143.271" height="42.6532" fill="#D4CEC2" stroke="#B3B3B3" stroke-width="3.28101"/>
<rect x="1008.91" y="782.359" width="143.271" height="42.6532" fill="#D4CEC2" stroke="#B3B3B3" stroke-width="3.28101"/>
<rect x="1153.28" y="782.359" width="143.271" height="42.6532" fill="#D4CEC2" stroke="#B3B3B3" stroke-width="3.28101"/>
<rect x="1297.64" y="782.359" width="143.271" height="42.6532" fill="#D4CEC2" stroke="#B3B3B3" stroke-width="3.28101"/>
<rect x="1442.01" y="782.359" width="143.271" height="42.6532" fill="#D4CEC2" stroke="#B3B3B3" stroke-width="3.28101"/>
<rect x="1586.37" y="782.359" width="143.271" height="42.6532" fill="#D4CEC2" stroke="#B3B3B3" stroke-width="3.28101"/>
<rect x="-73.6405" y="821.359" width="143.271" height="42.6532" fill="#D4CEC2" stroke="#B3B3B3" stroke-width="3.28101"/>
<rect x="70.7241" y="821.359" width="143.271" height="42.6532" fill="#D4CEC2" stroke="#B3B3B3" stroke-width="3.28101"/>
<rect x="215.089" y="821.359" width="143.271" height="42.6532" fill="#D4CEC2" stroke="#B3B3B3" stroke-width="3.28101"/>
<rect x="359.453" y="821.359" width="143.271" height="42.6532" fill="#D4CEC2" stroke="#B3B3B3" stroke-width="3.28101"/>
<rect x="503.818" y="821.359" width="143.271" height="42.6532" fill="#D4CEC2" stroke="#B3B3B3" stroke-width="3.28101"/>
<rect x="648.182" y="821.359" width="143.271" height="42.6532" fill="#D4CEC2" stroke="#B3B3B3" stroke-width="3.28101"/>
<rect x="792.547" y="821.359" width="143.271" height="42.6532" fill="#D4CEC2" stroke="#B3B3B3" stroke-width="3.28101"/>
<rect x="936.911" y="821.359" width="143.271" height="42.6532" fill="#D4CEC2" stroke="#B3B3B3" stroke-width="3.28101"/>
<rect x="1081.28" y="821.359" width="143.271" height="42.6532" fill="#D4CEC2" stroke="#B3B3B3" stroke-width="3.28101"/>
<rect x="1225.64" y="821.359" width="143.271" height="42.6532" fill="#D4CEC2" stroke="#B3B3B3" stroke-width="3.28101"/>
<rect x="1370.01" y="821.359" width="143.271" height="42.6532" fill="#D4CEC2" stroke="#B3B3B3" stroke-width="3.28101"/>
<rect x="1514.37" y="821.359" width="143.271" height="42.6532" fill="#D4CEC2" stroke="#B3B3B3" stroke-width="3.28101"/>
<rect x="1658.36" y="821.359" width="143.271" height="42.6532" fill="#D4CEC2" stroke="#B3B3B3" stroke-width="3.28101"/>
</svg>
