<svg width="131" height="58" viewBox="0 0 131 58" fill="none" xmlns="http://www.w3.org/2000/svg">
<path d="M15.1953 56L15.1953 13.0313L0.78125 17.5234L0.78125 6.78125L15.1953 2.32813L29.6094 2.32813L29.6094 56H15.1953ZM130.367 29.2031C130.367 33.474 129.547 37.3542 127.906 40.8438C126.292 44.3073 124.065 47.276 121.227 49.75C118.388 52.1979 115.042 54.099 111.187 55.4531C107.333 56.7813 103.193 57.4453 98.7656 57.4453C95.7969 57.4453 92.9583 57.1458 90.25 56.5469C87.5417 55.9479 85.0026 55.0755 82.6328 53.9297C80.2891 52.7839 78.1536 51.3906 76.2266 49.75C74.3255 48.0833 72.6979 46.2083 71.3437 44.125C69.9896 42.0417 68.9349 39.75 68.1797 37.25C67.4505 34.75 67.0859 32.0677 67.0859 29.2031C67.0859 26.3646 67.4505 23.6953 68.1797 21.1953C68.9349 18.6693 69.9896 16.3646 71.3438 14.2813C72.6979 12.1979 74.3255 10.3359 76.2266 8.69531C78.1536 7.02865 80.2891 5.6224 82.6328 4.47656C85.0026 3.33073 87.5417 2.45833 90.25 1.85938C92.9583 1.26042 95.7969 0.960938 98.7656 0.960938C103.193 0.960938 107.333 1.63802 111.188 2.99219C115.042 4.32031 118.388 6.22135 121.227 8.69531C124.065 11.1432 126.292 14.112 127.906 17.6016C129.547 21.0651 130.367 24.9323 130.367 29.2031ZM115.875 29.2031C115.875 26.4948 115.406 24.099 114.469 22.0156C113.531 19.9323 112.268 18.1745 110.68 16.7422C109.117 15.3099 107.307 14.2292 105.25 13.5C103.193 12.7708 101.031 12.4063 98.7656 12.4063C96.5 12.4063 94.3255 12.7708 92.2422 13.5C90.1589 14.2292 88.3229 15.3099 86.7344 16.7422C85.1719 18.1745 83.9089 19.9323 82.9453 22.0156C82.0078 24.099 81.5391 26.4948 81.5391 29.2031C81.5391 31.9115 82.0078 34.3073 82.9453 36.3906C83.9089 38.474 85.1719 40.2318 86.7344 41.6641C88.3229 43.0703 90.1589 44.151 92.2422 44.9063C94.3255 45.6354 96.5 46 98.7656 46C101.031 46 103.193 45.6354 105.25 44.9063C107.307 44.151 109.117 43.0703 110.68 41.6641C112.268 40.2318 113.531 38.474 114.469 36.3906C115.406 34.3073 115.875 31.9115 115.875 29.2031Z" fill="#46C2C0"/>
</svg>
