<svg width="230" height="164" viewBox="0 0 230 164" fill="none" xmlns="http://www.w3.org/2000/svg">
<path d="M164.036 102.401C167.52 103.625 175.165 103.87 177.876 95.0571C170.646 95.0571 167.896 95.0571 167.426 95.0571C167.99 98.4466 171.945 104.378 181.548 102.683" stroke="#FFE2DE" stroke-width="1.84564" stroke-linecap="round" stroke-linejoin="round"/>
<path d="M161.252 27.5072C160.76 27.6402 160.469 28.1468 160.602 28.6388C160.735 29.1308 161.242 29.4219 161.734 29.2889L161.252 27.5072ZM184.654 28.398L184.454 29.2989L184.988 29.4175L185.348 29.0062L184.654 28.398ZM229 1L229.756 1.5292C229.953 1.24731 229.977 0.879039 229.818 0.573833C229.659 0.268627 229.344 0.0771824 229 0.0771824V1ZM221.938 32.3524L222.84 32.5484L221.938 32.3524ZM200.189 54.9487L200.647 55.7499L200.654 55.7459L200.661 55.7418L200.189 54.9487ZM180.347 74.2539C180.402 74.7606 180.856 75.1274 181.363 75.0731C181.87 75.0188 182.237 74.564 182.183 74.0573L180.347 74.2539ZM161.734 29.2889C169.885 27.086 180.277 28.3706 184.454 29.2989L184.855 27.4972C180.558 26.5424 169.823 25.1908 161.252 27.5072L161.734 29.2889ZM185.348 29.0062C189.31 24.4853 196.276 17.6869 204.261 12.0271C212.278 6.34408 221.164 1.92282 229 1.92282V0.0771824C220.566 0.0771824 211.281 4.7886 203.193 10.5214C195.073 16.2774 188.002 23.178 183.96 27.7898L185.348 29.0062ZM228.244 0.470799C226.97 2.28984 226.003 4.74553 225.235 7.45784C224.463 10.1821 223.874 13.2301 223.387 16.2745C222.899 19.3189 222.51 22.3858 222.144 25.1374C221.776 27.9039 221.433 30.3343 221.037 32.1564L222.84 32.5484C223.255 30.6398 223.607 28.1333 223.973 25.3809C224.342 22.6136 224.727 19.5798 225.209 16.5661C225.691 13.5525 226.267 10.585 227.01 7.96099C227.757 5.32503 228.656 3.0996 229.756 1.5292L228.244 0.470799ZM221.037 32.1564C220.35 35.3128 219.425 38.1465 216.53 41.5011C213.598 44.8981 208.614 48.8626 199.718 54.1556L200.661 55.7418C209.615 50.4145 214.8 46.3291 217.927 42.7071C221.09 39.0428 222.114 35.8885 222.84 32.5484L221.037 32.1564ZM199.732 54.1475C191.757 58.7044 186.86 62.9124 183.981 66.3617C182.542 68.0866 181.598 69.6326 181.031 70.948C180.47 72.2481 180.254 73.3796 180.347 74.2539L182.183 74.0573C182.135 73.6134 182.236 72.8148 182.726 71.6787C183.209 70.558 184.048 69.1617 185.398 67.5443C188.098 64.3089 192.804 60.2315 200.647 55.7499L199.732 54.1475Z" fill="#FFE2DE"/>
<path d="M184.896 27.5072C185.388 27.6402 185.679 28.1468 185.546 28.6388C185.413 29.1308 184.907 29.4219 184.415 29.2889L184.896 27.5072ZM161.494 28.398L161.694 29.2989L161.16 29.4175L160.8 29.0062L161.494 28.398ZM117.149 1L116.393 1.5292C116.195 1.24731 116.171 0.879039 116.33 0.573833C116.489 0.268627 116.805 0.0771824 117.149 0.0771824V1ZM124.21 32.3524L123.308 32.5484L124.21 32.3524ZM145.959 54.9487L145.501 55.7499L145.494 55.7459L145.487 55.7418L145.959 54.9487ZM165.801 74.2539C165.747 74.7606 165.292 75.1274 164.785 75.0731C164.278 75.0188 163.912 74.564 163.966 74.0573L165.801 74.2539ZM184.415 29.2889C176.264 27.086 165.871 28.3706 161.694 29.2989L161.294 27.4972C165.59 26.5424 176.325 25.1908 184.896 27.5072L184.415 29.2889ZM160.8 29.0062C156.838 24.4853 149.872 17.6869 141.888 12.0271C133.87 6.34408 124.984 1.92282 117.149 1.92282V0.0771824C125.583 0.0771824 134.868 4.7886 142.955 10.5214C151.075 16.2774 158.147 23.178 162.188 27.7898L160.8 29.0062ZM117.905 0.470799C119.178 2.28984 120.145 4.74553 120.914 7.45784C121.686 10.1821 122.275 13.2301 122.762 16.2745C123.249 19.3189 123.638 22.3858 124.005 25.1374C124.373 27.9039 124.716 30.3343 125.112 32.1564L123.308 32.5484C122.893 30.6398 122.541 28.1333 122.175 25.3809C121.807 22.6136 121.422 19.5798 120.939 16.5661C120.457 13.5525 119.882 10.585 119.138 7.96099C118.391 5.32503 117.492 3.0996 116.393 1.5292L117.905 0.470799ZM125.112 32.1564C125.798 35.3128 126.723 38.1465 129.619 41.5011C132.551 44.8981 137.534 48.8626 146.431 54.1556L145.487 55.7418C136.533 50.4145 131.348 46.3291 128.221 42.7071C125.058 39.0428 124.034 35.8885 123.308 32.5484L125.112 32.1564ZM146.417 54.1475C154.392 58.7044 159.289 62.9124 162.167 66.3617C163.607 68.0866 164.55 69.6326 165.117 70.948C165.678 72.2481 165.895 73.3796 165.801 74.2539L163.966 74.0573C164.013 73.6134 163.912 72.8148 163.423 71.6787C162.939 70.558 162.1 69.1617 160.75 67.5443C158.05 64.3089 153.344 60.2315 145.501 55.7499L146.417 54.1475Z" fill="#FFE2DE"/>
<path d="M212.617 5.80176C206.403 9.47366 192.798 31.7875 202.514 53.254C209.971 68.6195 204.209 76.4152 197.148 82.0643C190.087 87.7134 186.067 92.2327 186.067 99.5765" stroke="#FFE2DE" stroke-width="1.84564" stroke-linecap="round"/>
<path d="M134.095 6.08398C140.309 9.75589 153.631 32.0697 143.915 53.5362C136.458 68.9017 142.22 76.6975 149.282 82.3465C156.343 87.9956 159.233 92.2324 159.233 99.0113" stroke="#FFE2DE" stroke-width="1.84564" stroke-linecap="round"/>
<path d="M133.531 46.7568C124.963 58.4316 115.172 84.8316 147.936 93.6442C157.54 96.4687 166.861 106.355 172.792 106.355" stroke="#FFE2DE" stroke-width="1.84564" stroke-linecap="round"/>
<path d="M213.182 47.605C221.75 59.2797 230.694 84.8324 197.93 93.645C188.326 96.4695 179.005 106.355 173.074 106.355" stroke="#FFE2DE" stroke-width="1.84564" stroke-linecap="round"/>
<path d="M147.371 80.6517C144.546 79.8043 138.163 80.1433 135.225 88.278C130.028 101.836 126.469 104.378 115.171 112.851C108.166 116.919 104.438 123.208 104.72 125.562C103.873 116.9 91.6709 100.875 49.6418 101.553C23.4301 101.553 20.6432 66.7173 22.5262 49.2993C17.121 52.2336 9.40206 60.4369 4.91898 75.2851M4.91898 75.2851C1.20275 87.5934 -1.01652 111.157 3.60177 126.692C9.40335 146.207 25.9156 157.479 45.1226 158.609C61.4766 159.571 76.9457 147.499 84.9486 141.944C90.8802 137.827 96.5293 135.165 101.049 133.471C99.0714 129.516 88.903 119.913 73.6505 119.913C57.5506 119.913 0.30456 134.035 4.91898 75.2851Z" stroke="#FFE2DE" stroke-width="1.84564" stroke-linecap="round" stroke-linejoin="round"/>
<path d="M100.766 133.471C109.522 131.682 136.524 130.816 159.798 147.311C177.65 159.965 194.54 162.94 200.754 162.846C205.085 148.441 212.73 113.586 208.663 89.4082C207.985 84.2111 201.884 81.4995 198.212 81.4995" stroke="#FFE2DE" stroke-width="1.84564" stroke-linecap="round" stroke-linejoin="round"/>
<path d="M159.235 99.0117C159.686 108.884 156.889 122.288 149.349 134.601C139.559 150.588 123.228 161.999 101.049 161.999C98.5064 157.48 97.3763 139.12 101.049 133.189" stroke="#FFE2DE" stroke-width="1.84564" stroke-linecap="round" stroke-linejoin="round"/>
<path d="M185.784 100.424C185.784 102.038 184.485 122.185 186.348 137.425C188.07 151.512 193.247 159.579 199.623 162.564" stroke="#FFE2DE" stroke-width="1.84564" stroke-linecap="round" stroke-linejoin="round"/>
</svg>
