<svg width="841" height="68" viewBox="0 0 841 68" fill="none" xmlns="http://www.w3.org/2000/svg">
<path fill-rule="evenodd" clip-rule="evenodd" d="M47.3828 66.29C47.3828 66.8423 46.9351 67.29 46.3828 67.29H30.2676C29.7153 67.29 29.2676 66.8423 29.2676 66.29V21.7998C29.2676 21.2475 29.7153 20.7998 30.2676 20.7998H46.3828C46.9351 20.7998 47.3828 21.2475 47.3828 21.7998V66.29ZM51 14.7998H74.8984C75.4507 14.7998 75.8984 14.3521 75.8984 13.7998V1.2002C75.8984 0.647911 75.4507 0.200195 74.8984 0.200195H1.80078C1.2485 0.200195 0.800781 0.64791 0.800781 1.2002V13.7998C0.800781 14.3521 1.2485 14.7998 1.80078 14.7998H23H28.2676H48.3828H51ZM117.91 1.2002C117.91 0.647911 118.358 0.200195 118.91 0.200195H135.025C135.578 0.200195 136.025 0.647911 136.025 1.2002V66.29C136.025 66.8423 135.578 67.29 135.025 67.29H118.91C118.358 67.29 117.91 66.8423 117.91 66.29V1.2002ZM272.373 24.2032C272.373 23.1601 270.976 22.8138 270.489 23.736L252.309 58.136C251.934 58.8452 250.918 58.8466 250.542 58.1383L243.014 43.9858C242.857 43.6918 242.858 43.3392 243.014 43.0454L265.596 0.729387C265.77 0.403646 266.11 0.200195 266.479 0.200195H289.391C289.943 0.200195 290.391 0.647911 290.391 1.2002V66.29C290.391 66.8423 289.943 67.29 289.391 67.29H273.373C272.821 67.29 272.373 66.8423 272.373 66.29V24.2032ZM247.473 67.285C247.475 67.2821 247.475 67.2788 247.473 67.276L238.799 50.9689C238.797 50.9635 238.789 50.9635 238.786 50.9689C238.784 50.9717 238.782 50.973 238.779 50.9729C238.776 50.9727 238.774 50.9714 238.773 50.9689L211.962 0.729387C211.788 0.403646 211.449 0.200195 211.08 0.200195H188.07C187.518 0.200195 187.07 0.647911 187.07 1.2002V66.29C187.07 66.8423 187.518 67.29 188.07 67.29H204.186C204.738 67.29 205.186 66.8423 205.186 66.29V24.2032C205.186 23.1601 206.582 22.8138 207.07 23.736L229.806 66.7573C229.98 67.085 230.32 67.29 230.69 67.29H247.465C247.466 67.29 247.467 67.2898 247.468 67.2895C247.469 67.2891 247.47 67.2886 247.471 67.2879C247.472 67.287 247.473 67.2861 247.473 67.285ZM341.387 1.2002C341.387 0.647911 341.834 0.200195 342.387 0.200195H408.307C408.859 0.200195 409.307 0.647911 409.307 1.2002V13.5068C409.307 14.0591 408.859 14.5068 408.307 14.5068H360.99C360.438 14.5068 359.99 14.9546 359.99 15.5068V24.2891C359.99 24.2896 359.99 24.29 359.989 24.29C359.989 24.29 359.988 24.2905 359.988 24.291V42.2891C359.988 42.2896 359.989 42.29 359.989 42.29C359.99 42.29 359.99 42.2905 359.99 42.291V51.9834C359.99 52.5357 360.438 52.9834 360.99 52.9834H408.99C409.543 52.9834 409.99 53.4311 409.99 53.9834V66.29C409.99 66.8423 409.543 67.29 408.99 67.29H342.387C341.834 67.29 341.387 66.8423 341.387 66.29V1.2002ZM363.988 38.8975C363.988 39.4497 364.436 39.8975 364.988 39.8975H405.768C406.32 39.8975 406.768 39.4497 406.768 38.8975V26.5908C406.768 26.0385 406.32 25.5908 405.768 25.5908H364.988C364.436 25.5908 363.988 26.0385 363.988 26.5908V38.8975ZM457.52 1.2002C457.52 0.647911 457.967 0.200195 458.52 0.200195H474.635C475.187 0.200195 475.635 0.647911 475.635 1.2002V51.5928C475.635 52.1451 476.082 52.5928 476.635 52.5928H523.609C524.162 52.5928 524.609 53.0405 524.609 53.5928V66.29C524.609 66.8423 524.162 67.29 523.609 67.29H458.52C457.967 67.29 457.52 66.8423 457.52 66.29V1.2002ZM569.16 1.2002C569.16 0.647911 569.608 0.200195 570.16 0.200195H586.275C586.828 0.200195 587.275 0.647911 587.275 1.2002V66.29C587.275 66.8423 586.828 67.29 586.275 67.29H570.16C569.608 67.29 569.16 66.8423 569.16 66.29V1.2002ZM658.149 22.9412C657.522 22.3024 656.436 22.7466 656.436 23.6419V66.29C656.436 66.8423 655.988 67.29 655.436 67.29H639.32C638.768 67.29 638.32 66.8423 638.32 66.29V1.2002C638.32 0.647911 638.768 0.200195 639.32 0.200195H657.578C657.846 0.200195 658.104 0.308501 658.292 0.500667L697.101 40.1462C697.284 40.3331 697.387 40.5842 697.387 40.8457V60.4529C697.387 61.3482 696.3 61.7923 695.673 61.1535L658.149 22.9412ZM703.349 28.29C703.328 28.29 703.311 28.273 703.311 28.252V1.20019C703.311 0.647909 703.758 0.200195 704.311 0.200195H720.328C720.88 0.200195 721.328 0.647911 721.328 1.2002V66.29C721.328 66.8423 720.88 67.29 720.328 67.29H704.387C703.834 67.29 703.387 66.8423 703.387 66.29V28.3281C703.387 28.3071 703.37 28.29 703.349 28.29ZM772.324 1.2002C772.324 0.647911 772.772 0.200195 773.324 0.200195H839.244C839.796 0.200195 840.244 0.647911 840.244 1.2002V13.5068C840.244 14.0591 839.796 14.5068 839.244 14.5068H791.928C791.375 14.5068 790.928 14.9546 790.928 15.5068V19.1885C790.928 19.1949 790.922 19.2002 790.916 19.2002C790.91 19.2002 790.904 19.2054 790.904 19.2119V46.1885C790.904 46.195 790.91 46.2002 790.916 46.2002C790.92 46.2002 790.923 46.2018 790.925 46.2042C790.927 46.2063 790.928 46.209 790.928 46.2119V51.9834C790.928 52.5357 791.375 52.9834 791.928 52.9834H839.928C840.48 52.9834 840.928 53.4311 840.928 53.9834V66.29C840.928 66.8423 840.48 67.29 839.928 67.29H773.324C772.772 67.29 772.324 66.8423 772.324 66.29V1.2002ZM797.984 39.8975H836.705C837.257 39.8975 837.705 39.4497 837.705 38.8975V26.5908C837.705 26.0385 837.257 25.5908 836.705 25.5908H797.984C797.432 25.5908 796.984 26.0385 796.984 26.5908V38.8975C796.984 39.4497 797.432 39.8975 797.984 39.8975Z" fill="#FFE2DE"/>
</svg>
