<svg width="374" height="290" viewBox="0 0 374 290" fill="none" xmlns="http://www.w3.org/2000/svg">
<rect width="374" height="290" rx="15" fill="black" fill-opacity="0.55"/>
<path fill-rule="evenodd" clip-rule="evenodd" d="M187 57.6729C138.848 57.6729 99.6738 96.8475 99.6738 145C99.6738 193.153 138.848 232.327 187 232.327C235.152 232.327 274.326 193.153 274.326 145C274.326 96.8475 235.152 57.6729 187 57.6729ZM187 221.017C145.085 221.017 110.984 186.916 110.984 145C110.984 103.084 145.085 68.9836 187 68.9836C228.915 68.9836 263.016 103.084 263.016 145C263.016 186.916 228.915 221.017 187 221.017ZM216.668 119.529H217.357V116.19H218.599V115.601H215.429V116.19H216.668V119.529H216.668ZM219.699 116.494H219.711L220.801 119.529H221.362L222.451 116.494H222.466V119.529H223.114V115.601H222.162L221.11 118.673H221.091L220.013 115.601H219.046V119.529H219.699V116.494ZM199.866 115.598H156.906L150.388 126.073H193.298L199.866 115.598ZM208.645 115.698L182.383 157.516H153.252L159.973 147.032H177.433L184.102 136.553H143.738L137.07 147.032H146.632L133.365 167.964H188.733L209.183 135.712L216.64 147.032H209.916L203.549 157.516H223.459L230.373 167.964H243.074L208.645 115.698Z" fill="white"/>
</svg>
