<svg width="48" height="48" viewBox="0 0 48 48" fill="none" xmlns="http://www.w3.org/2000/svg">
<path d="M38.54 10.6601C35.88 9.42009 33 8.52009 30 8.00009C29.9737 7.99925 29.9475 8.00419 29.9233 8.01455C29.8991 8.02492 29.8775 8.04047 29.86 8.06009C29.5 8.72009 29.08 9.58009 28.8 10.2401C25.618 9.76009 22.382 9.76009 19.2 10.2401C18.92 9.56009 18.5 8.72009 18.12 8.06009C18.1 8.02009 18.04 8.00009 17.98 8.00009C14.98 8.52009 12.12 9.42009 9.43999 10.6601C9.41999 10.6601 9.39999 10.6801 9.37999 10.7001C3.93999 18.8401 2.43999 26.7601 3.17999 34.6001C3.17999 34.6401 3.19999 34.6801 3.23999 34.7001C6.83999 37.3401 10.3 38.9401 13.72 40.0001C13.78 40.0201 13.84 40.0001 13.86 39.9601C14.66 38.8601 15.38 37.7001 16 36.4801C16.04 36.4001 16 36.3201 15.92 36.3001C14.78 35.8601 13.7 35.3401 12.64 34.7401C12.56 34.7001 12.56 34.5801 12.62 34.5201C12.84 34.3601 13.06 34.1801 13.28 34.0201C13.32 33.9801 13.38 33.9801 13.42 34.0001C20.3 37.1401 27.72 37.1401 34.52 34.0001C34.56 33.9801 34.62 33.9801 34.66 34.0201C34.88 34.2001 35.1 34.3601 35.32 34.5401C35.4 34.6001 35.4 34.7201 35.3 34.7601C34.26 35.3801 33.16 35.8801 32.02 36.3201C31.94 36.3401 31.92 36.4401 31.94 36.5001C32.58 37.7201 33.3 38.8801 34.08 39.9801C34.14 40.0001 34.2 40.0201 34.26 40.0001C37.7 38.9401 41.16 37.3401 44.76 34.7001C44.8 34.6801 44.82 34.6401 44.82 34.6001C45.7 25.5401 43.36 17.6801 38.62 10.7001C38.6 10.6801 38.58 10.6601 38.54 10.6601ZM17.04 29.8201C14.98 29.8201 13.26 27.9201 13.26 25.5801C13.26 23.2401 14.94 21.3401 17.04 21.3401C19.16 21.3401 20.84 23.2601 20.82 25.5801C20.82 27.9201 19.14 29.8201 17.04 29.8201ZM30.98 29.8201C28.92 29.8201 27.2 27.9201 27.2 25.5801C27.2 23.2401 28.88 21.3401 30.98 21.3401C33.1 21.3401 34.78 23.2601 34.76 25.5801C34.76 27.9201 33.1 29.8201 30.98 29.8201Z" fill="#E1DBD2"/>
</svg>
