<svg width="428" height="428" viewBox="0 0 428 428" fill="none" xmlns="http://www.w3.org/2000/svg">
<path d="M118.401 126.929L127.567 139.555C128.272 140.517 128.656 141.414 128.656 142.375C128.656 143.529 128.143 144.747 127.31 146.221L124.811 150.836C123.016 154.168 121.542 154.745 119.747 154.745C117.12 154.745 115.71 152.63 114.94 149.361L110.326 129.044C109.364 124.942 107.762 123.66 105.327 123.66C102.442 123.66 99.9428 125.839 97.8918 128.916L83.2787 150.771C81.2277 153.848 80.1382 155.002 78.4718 155.002C76.1644 155.002 75.0108 153.656 75.0108 151.733C75.0108 150.002 75.9081 148.592 77.4463 146.221L86.7397 131.48C89.1111 127.762 90.7134 124.494 90.7134 121.738C90.7134 117.892 87.7652 115.328 80.5227 115.328C70.2038 115.328 63.9228 127.506 63.9228 136.351C63.9228 138.017 65.3969 139.043 66.5506 139.043C68.6015 139.043 69.8193 137.889 70.1397 135.133L71.678 123.468C71.9984 121.033 73.4726 120.071 74.9467 120.071C76.549 120.071 77.4463 121.481 76.9976 123.981L71.2934 152.566C71.037 153.912 70.9729 155.13 70.9729 156.283C70.9729 162.629 74.8185 165.961 80.0741 165.961C82.7019 165.961 85.8424 164.551 87.9575 161.603L105.839 136.543C106.48 135.646 107.313 134.812 108.147 134.812C109.172 134.812 109.493 135.517 109.493 136.222C109.493 136.671 109.428 137.312 109.172 137.825L104.365 148.015C99.1096 159.103 101.096 165.961 110.646 165.961C124.426 165.961 132.245 147.375 132.245 134.877C132.245 120.135 129.233 115.328 124.234 115.328C119.299 115.328 116.094 118.212 116.094 121.802C116.094 123.404 117.055 125.07 118.401 126.929ZM138.045 130.518C138.045 131.672 138.557 132.569 140.16 132.569H142.916C144.967 132.569 146.12 133.082 146.12 134.556C146.12 134.877 146.056 135.261 145.928 135.71L140.737 154.681C139.006 161.09 142.403 165.961 149.71 165.961C154.645 165.961 159.772 163.782 159.323 159.488C158.939 155.771 155.798 155.386 153.106 156.54L145.415 159.873C144.198 160.385 143.108 159.296 143.108 158.014C143.108 157.373 143.429 156.86 144.454 155.707L156.696 141.734C160.926 136.863 158.747 131.416 152.273 132.185L147.915 132.697C147.338 132.761 146.249 132.761 146.249 131.672C146.249 131.031 146.633 130.454 147.466 130.198L154.517 127.762C157.593 126.673 159.772 125.006 159.772 121.417C159.772 117.572 156.632 115.328 153.363 115.328C151.504 115.328 149.645 116.033 148.3 117.572L141.057 125.904C139.455 127.762 138.045 129.493 138.045 130.518ZM175.392 165.961C182.314 165.961 183.596 159.937 180.712 152.822L171.995 131.48C171.418 130.07 170.842 127.185 170.842 125.391C170.842 121.738 172.957 119.046 176.546 119.046C178.853 119.046 180.84 120.712 180.327 123.981L179.75 127.634C178.917 132.954 181.609 138.658 184.173 142.183L194.812 156.924C199.363 163.205 201.35 165.961 205.259 165.961C209.425 165.961 211.54 163.141 212.245 156.988L215.514 127.314C216.155 121.417 214.232 115.264 207.887 115.264C202.503 115.264 200.837 119.43 200.837 122.699C200.837 124.237 200.709 126.288 202.311 130.39L208.207 145.58C209.041 147.695 209.553 149.169 209.553 150.323C209.553 151.733 208.784 152.438 207.182 152.438C206.028 152.438 205.131 151.541 203.593 149.105L188.403 125.327C184.557 119.302 181.737 115.328 176.674 115.328C169.816 115.328 166.804 118.533 166.804 132.954V150.259C166.804 159.552 166.996 165.961 175.392 165.961ZM244.089 124.045L233.77 154.04C231.142 161.026 232.552 165.961 239.41 165.961C245.563 165.961 246.845 162.436 246.973 155.642L247.678 124.301C247.742 120.263 248.447 118.597 250.178 118.597C252.357 118.597 252.998 120.712 252.998 123.532V126.352C252.998 135.197 254.856 139.427 260.689 139.235C264.791 139.107 267.867 135.582 267.867 131.608C267.867 122.699 260.817 116.29 249.216 116.29H227.297C220.631 116.29 218.516 120.135 218.516 123.404C218.516 130.775 228.002 134.492 233.898 127.955L241.076 119.943C241.717 119.238 242.422 118.918 242.999 118.918C244.73 118.918 245.371 120.392 244.089 124.045ZM311.556 125.583C316.363 126.032 317.452 124.109 317.452 122.058C317.452 118.02 313.542 115.392 302.07 115.392C285.662 115.392 271.69 121.994 271.69 133.659C271.69 139.491 277.138 142.568 283.419 140.004L296.238 134.748C299.186 133.531 300.468 135.902 297.904 137.697L278.804 150.964C275.92 153.015 274.318 155.322 274.318 157.693C274.318 164.103 282.009 166.025 290.533 166.025C299.122 166.09 308.736 164.615 312.453 162.885C315.85 161.283 317.644 159.232 317.452 155.578C317.26 151.733 314.376 150.195 308.864 152.117L282.65 161.283C279.509 162.372 277.779 159.744 277.779 158.334C277.779 156.732 278.292 155.45 281.304 154.489L306.3 146.541C311.94 144.747 312.837 141.734 312.837 139.363C312.837 136.287 311.171 133.338 306.3 132.761L283.355 129.941C279.445 129.429 277.971 128.147 277.971 126.288C277.971 124.494 279.638 122.763 283.355 123.084L311.556 125.583ZM372.721 157.886C372.721 153.912 369.517 151.284 365.287 151.22L352.66 151.092C350.225 151.092 349.199 150.579 349.199 149.105C349.199 147.567 350.417 146.798 351.955 146.285L362.467 142.568C371.504 139.363 373.106 135.453 373.106 131.095C373.106 125.327 369.324 115.328 353.494 115.328C334.009 115.328 324.844 131.928 324.844 153.72C324.844 162.885 329.267 165.961 333.24 165.961C340.547 165.961 341.316 160.321 338.816 154.425L332.279 139.043C331.766 137.825 331.446 136.543 331.446 135.325C331.446 130.775 335.035 126.865 341.636 126.865H361.697C366.376 126.865 368.812 129.3 368.812 132.441C368.812 135.774 366.568 138.85 359.711 137.953L340.226 135.453C337.855 135.133 336.573 135.582 336.509 137.248C336.509 138.145 337.15 139.491 338.56 141.286L354.391 160.449C357.916 164.744 361.313 165.961 363.877 165.961C370.542 165.961 372.721 161.924 372.721 157.886ZM94.2385 193.29H71.9984C67.7683 193.29 65.5251 196.687 65.5251 200.019C65.5251 202.968 67.1915 205.403 70.7807 206.044C73.6648 206.557 74.6262 207.518 73.5366 209.761L71.1652 214.568C64.8201 227.451 68.1529 242.833 84.6887 242.897C104.237 242.961 113.594 234.437 113.594 217.965C113.594 202.263 108.147 193.29 94.2385 193.29ZM105.327 209.056L94.2385 235.783C92.2517 240.526 85.1374 241.744 83.2787 235.142L76.6772 211.941C75.4594 207.582 77.3181 204.698 82.766 203.673L98.7891 200.596C103.66 199.635 107.89 202.839 105.327 209.056ZM159.899 232.835L131.699 235.334C127.981 235.655 126.315 233.924 126.315 232.13C126.315 230.271 127.789 228.989 131.699 228.476L154.644 225.656C159.515 225.08 161.181 222.131 161.181 219.055C161.181 216.683 160.284 213.671 154.644 211.877L129.648 203.929C126.635 202.968 126.123 201.686 126.123 200.084C126.123 198.673 127.853 196.046 130.994 197.135L157.207 206.3C162.719 208.223 165.603 206.685 165.796 202.839C165.988 199.186 164.193 197.135 160.797 195.533C157.079 193.802 147.465 192.328 138.877 192.392C130.353 192.392 122.662 194.315 122.662 200.724C122.662 203.096 124.264 205.403 127.148 207.454L146.248 220.721C148.811 222.516 147.529 224.887 144.581 223.67L131.763 218.414C125.482 215.85 120.034 218.927 120.034 224.759C120.034 236.424 134.006 243.025 150.414 243.025C161.886 243.025 165.796 240.398 165.796 236.36C165.796 234.309 164.706 232.386 159.899 232.835ZM199.466 192.392C184.789 192.392 173.188 201.365 173.188 210.274C173.188 213.351 174.983 215.914 178.636 216.555L211.259 222.452C213.31 222.836 214.143 223.413 214.335 224.823C214.528 226.169 213.887 227.387 211.131 227.964L183.507 233.924C181.392 234.373 180.046 234.437 179.02 233.732C178.379 233.283 178.187 232.13 178.956 230.976L181.776 226.746C185.237 221.554 181.456 219.119 178.956 219.119C175.175 219.119 173.444 222.26 173.444 226.81C173.444 238.347 184.404 243.09 195.492 243.09C206.772 243.09 218.181 237.001 218.181 225.849C218.181 223.221 216.45 220.657 213.823 220.016L209.785 219.055C207.221 218.478 206.196 218.158 206.131 215.786L206.067 213.351C205.939 208.736 201.773 204.634 195.684 207.454L182.097 213.735C179.918 214.761 177.931 214.44 177.29 212.069C176.649 209.697 178.956 208.672 181.648 207.39L204.081 196.558C207.926 194.7 209.849 196.302 209.849 199.378V210.274C209.849 212.966 211.772 215.594 214.848 215.594C218.694 215.594 220.104 211.492 220.104 207.967C220.104 200.532 214.848 192.392 199.466 192.392ZM225.358 207.518C225.358 208.672 225.871 209.569 227.473 209.569H230.229C232.28 209.569 233.434 210.082 233.434 211.556C233.434 211.877 233.37 212.261 233.242 212.71L228.05 231.681C226.32 238.09 229.717 242.961 237.023 242.961C241.958 242.961 247.086 240.782 246.637 236.488C246.252 232.771 243.112 232.386 240.42 233.54L232.729 236.873C231.511 237.385 230.422 236.296 230.422 235.014C230.422 234.373 230.742 233.86 231.767 232.707L244.009 218.734C248.239 213.863 246.06 208.416 239.587 209.185L235.228 209.697C234.652 209.761 233.562 209.761 233.562 208.672C233.562 208.031 233.947 207.454 234.78 207.198L241.83 204.762C244.906 203.673 247.086 202.006 247.086 198.417C247.086 194.572 243.945 192.328 240.676 192.328C238.818 192.328 236.959 193.033 235.613 194.572L228.371 202.904C226.768 204.762 225.358 206.493 225.358 207.518ZM270.845 205.531C268.474 202.583 268.218 197.712 272.704 195.789C276.55 194.123 280.716 195.469 282.831 198.225L289.945 207.582C293.983 212.902 302.763 209.121 300.969 203.096C298.982 196.302 290.906 192.328 278.729 192.328C264.18 192.328 254.117 201.878 254.117 218.542C254.117 234.758 261.167 242.961 268.73 242.961C274.499 242.961 277.191 240.846 282.126 234.373L292.637 220.657C294.944 217.581 295.906 217.453 297.123 217.453C298.533 217.453 300.136 218.927 298.79 220.978L291.932 231.553C287.702 238.026 291.483 242.961 296.226 242.961C300.969 242.961 304.109 240.205 303.789 233.283L303.148 219.824C302.892 214.568 298.277 212.389 292.124 216.043L265.013 232.194C260.078 235.142 255.848 227.323 260.655 224.054L270.974 217.004C274.883 214.376 275.14 210.979 272.704 207.903L270.845 205.531ZM352.02 192.328C345.099 192.328 345.163 198.289 347.534 205.467L354.776 227.323C355.225 228.733 355.93 231.617 355.93 233.412C355.93 237.065 354.264 239.757 350.675 239.757C348.367 239.757 346.38 238.09 346.893 234.822L347.47 231.168C348.303 225.849 345.547 220.593 342.919 217.132L330.998 201.365C326.319 195.212 324.461 192.328 320.551 192.328C316.385 192.328 313.693 195.148 313.565 201.301L312.86 230.976C312.732 236.873 314.142 243.025 320.487 243.025C325.871 243.025 327.537 238.859 327.537 235.591C327.537 234.053 328.178 231.745 326.063 227.9L317.603 212.71C316.513 210.787 316.257 209.121 316.257 207.967C316.257 206.557 317.026 205.852 318.628 205.852C319.782 205.852 320.551 206.749 322.217 209.185L339.01 233.54C343.048 239.436 346.124 243.025 350.675 243.025C358.109 243.025 359.647 237.962 360.288 223.605L360.993 207.967C361.442 198.673 360.417 192.328 352.02 192.328Z" fill="#201E29"/>
<path d="M339.418 302.215C340.396 300.705 342.604 300.705 343.582 302.215L349.623 311.544C350.383 312.717 351.962 313.031 353.112 312.238L362.264 305.931C363.745 304.91 365.785 305.756 366.111 307.524L368.122 318.455C368.375 319.83 369.713 320.724 371.08 320.432L381.949 318.107C383.707 317.731 385.269 319.293 384.893 321.051L382.568 331.92C382.276 333.287 383.17 334.625 384.545 334.878L395.476 336.889C397.244 337.215 398.09 339.255 397.069 340.736L390.762 349.888C389.969 351.038 390.283 352.617 391.456 353.377L400.785 359.418C402.295 360.396 402.295 362.604 400.785 363.582L391.456 369.623C390.283 370.383 389.969 371.962 390.762 373.112L397.069 382.264C398.09 383.745 397.244 385.785 395.476 386.111L384.545 388.122C383.17 388.375 382.276 389.713 382.568 391.08L384.893 401.949C385.269 403.707 383.707 405.269 381.949 404.893L371.08 402.568C369.713 402.276 368.375 403.17 368.122 404.545L366.111 415.476C365.785 417.244 363.745 418.09 362.264 417.069L353.112 410.762C351.962 409.969 350.383 410.283 349.623 411.456L343.582 420.785C342.604 422.295 340.396 422.295 339.418 420.785L333.377 411.456C332.617 410.283 331.038 409.969 329.888 410.762L320.736 417.069C319.255 418.09 317.215 417.244 316.889 415.476L314.878 404.545C314.625 403.17 313.287 402.276 311.92 402.568L301.051 404.893C299.293 405.269 297.731 403.707 298.107 401.949L300.432 391.08C300.724 389.713 299.83 388.375 298.455 388.122L287.524 386.111C285.756 385.785 284.91 383.745 285.931 382.264L292.238 373.112C293.031 371.962 292.717 370.383 291.544 369.623L282.215 363.582C280.705 362.604 280.705 360.396 282.215 359.418L291.544 353.377C292.717 352.617 293.031 351.038 292.238 349.888L285.931 340.736C284.91 339.255 285.756 337.215 287.524 336.889L298.455 334.878C299.83 334.625 300.724 333.287 300.432 331.92L298.107 321.051C297.731 319.293 299.293 317.731 301.051 318.107L311.92 320.432C313.287 320.724 314.625 319.83 314.878 318.455L316.889 307.524C317.215 305.756 319.255 304.91 320.736 305.931L329.888 312.238C331.038 313.031 332.617 312.717 333.377 311.544L339.418 302.215Z" fill="#75A9B5"/>
<g filter="url(#filter0_dddddd_3831_55)">
<path d="M319.814 354.886L320.14 364.577L314.797 356.598L312.24 357.461L312.837 367.061L307.218 359.158L304.661 360.022L312.531 370.918L315.419 369.942L315.023 361.481L319.84 368.448L322.727 367.473L322.371 354.022L319.814 354.886ZM325.472 352.991L322.975 353.834L327.086 366L329.582 365.157L325.472 352.991ZM335.318 349.664L338.092 357.875L329.348 351.681L326.867 352.52L330.977 364.685L333.459 363.847L330.739 355.551L339.429 361.83L341.925 360.986L337.815 348.821L335.318 349.664ZM338.631 348.545L339.454 350.981L343.695 349.548L346.982 359.278L349.674 358.368L346.387 348.639L350.627 347.206L349.804 344.77L338.631 348.545ZM350.628 344.491L354.738 356.657L363.43 353.72L362.612 351.299L356.552 353.347L355.637 350.64L360.695 348.948L359.877 346.527L354.814 348.204L354.083 346.038L360.143 343.991L359.32 341.555L350.628 344.491ZM370.806 346.051C372.052 345.027 372.461 343.213 371.938 341.664C371.257 339.649 368.988 338.288 366.341 339.182L360.717 341.083L364.827 353.248L367.519 352.339L366.041 347.963C366.041 347.963 366.341 347.861 368.266 347.211L372.151 350.774L375.249 349.727L370.806 346.051ZM365.243 345.602L364.206 342.534L367.349 341.472C368.282 341.157 369.257 341.515 369.577 342.462C369.892 343.394 369.318 344.225 368.386 344.54L365.243 345.602ZM331.758 376.099C333.515 375.003 334.658 373.377 333.896 371.121C333.093 368.745 331.497 367.592 328.445 368.624C325.647 369.569 324.772 371.641 325.55 373.941L325.626 374.167L328.288 373.268L328.212 373.042C327.897 372.11 328.33 371.209 329.487 370.818C330.254 370.559 331.094 370.962 331.353 371.729C331.643 372.586 331.752 373.454 330.415 374.258C328.607 375.354 327.009 377.218 327.918 379.91C328.386 381.293 328.193 380.722 328.751 382.326L336.932 379.562L336.114 377.141L330.309 379.102C329.847 377.734 330.376 376.968 331.758 376.099ZM338.664 365.137C335.506 366.204 334.254 369.342 335.57 373.236C336.947 377.312 339.945 378.795 342.937 377.784C345.99 376.753 347.403 373.745 346.037 369.7C344.71 365.775 341.897 364.045 338.664 365.137ZM342.048 375.153C340.454 375.691 339.039 374.477 338.307 372.312C337.479 369.861 337.764 368.374 339.553 367.769C341.193 367.215 342.553 368.414 343.3 370.625C344.041 372.82 343.552 374.644 342.048 375.153ZM352.112 369.222C353.869 368.126 355.012 366.5 354.25 364.244C353.447 361.868 351.851 360.715 348.798 361.747C346.001 362.692 345.126 364.763 345.904 367.064L345.98 367.29L348.642 366.391L348.566 366.165C348.251 365.233 348.684 364.332 349.841 363.941C350.608 363.682 351.448 364.085 351.707 364.852C351.997 365.709 352.106 366.577 350.769 367.381C348.961 368.477 347.363 370.341 348.272 373.033C348.74 374.416 348.547 373.845 349.105 375.449L357.286 372.685L356.468 370.264L350.663 372.225C350.201 370.857 350.73 370.091 352.112 369.222ZM362.264 363.262C362.819 362.874 363.171 361.783 362.805 360.7C362.206 358.926 360.369 357.804 358.038 358.591C355.708 359.379 354.938 361.365 355.542 363.154C355.573 363.245 355.603 363.335 355.649 363.42L357.949 362.643C357.64 361.725 358.053 361.016 358.775 360.772C359.527 360.518 360.261 360.856 360.566 361.758C360.734 362.255 360.783 363.193 359.324 363.686L359.832 365.19C361.306 364.692 362.301 365.009 362.774 366.408C363.226 367.746 362.612 368.707 361.59 369.053C360.567 369.398 359.491 368.991 359.044 367.668L356.608 368.491C357.431 370.927 359.514 372.183 362.311 371.238C365.078 370.303 366.063 368.161 365.195 365.59C364.656 363.996 363.363 363.293 362.264 363.262Z" fill="white"/>
</g>
<path d="M204.681 268.86L204.498 268.75C204.474 267.993 204.474 267.297 204.498 266.662C204.474 265.002 204.425 263.891 204.352 263.33C204.279 262.744 204.12 262.365 203.876 262.194C203.632 262.023 203.18 261.938 202.521 261.938H195.159L192.266 273.548H197.32C197.882 273.548 198.333 273.462 198.675 273.291C199.041 273.096 199.347 272.827 199.591 272.486C199.835 272.119 200.164 271.558 200.58 270.801C201.19 269.751 201.544 269.141 201.642 268.97L201.825 269.08L199.444 278.675L199.261 278.565C199.212 278.175 199.188 277.845 199.188 277.576C199.188 277.283 199.176 277.039 199.151 276.844C199.127 276.087 199.078 275.538 199.005 275.196C198.931 274.854 198.761 274.61 198.492 274.463C198.248 274.292 197.833 274.207 197.247 274.207H192.083L189.482 284.718L192.339 285.78V286H183.879V285.78L187.395 284.718L192.852 262.707L189.922 261.498V261.279H206.549L204.681 268.86ZM217.569 269.629C217.569 271.729 216.568 273.34 214.566 274.463C212.564 275.586 210 276.417 206.875 276.954C206.801 277.491 206.765 278.053 206.765 278.639C206.765 280.494 207.155 281.996 207.937 283.143C208.718 284.291 209.902 284.865 211.489 284.865C212.051 284.865 212.503 284.804 212.844 284.682C213.211 284.535 213.565 284.352 213.907 284.132C214.273 283.912 214.554 283.742 214.749 283.619L214.932 283.839C213.589 284.743 212.551 285.39 211.819 285.78C211.086 286.171 210.476 286.366 209.988 286.366C208.425 286.366 207.168 285.817 206.215 284.718C205.263 283.595 204.787 282.032 204.787 280.03C204.787 278.736 205.007 277.308 205.446 275.745C206.081 273.474 206.948 271.655 208.047 270.288C209.17 268.921 210.256 267.956 211.306 267.395C212.38 266.833 213.186 266.553 213.723 266.553C215.164 266.553 216.165 266.882 216.727 267.541C217.288 268.201 217.569 268.896 217.569 269.629ZM212.661 268.091C210.244 268.091 208.474 270.239 207.351 274.537C207.155 275.367 207.033 275.977 206.985 276.368C209.06 276.099 210.952 275.525 212.661 274.646C214.395 273.743 215.262 272.376 215.262 270.545C215.262 269.91 215.078 269.348 214.712 268.86C214.37 268.347 213.687 268.091 212.661 268.091ZM221.907 286.403C220.955 286.403 219.514 286.232 217.585 285.89C217.146 285.792 216.755 285.719 216.413 285.67L218.171 278.602H218.391C218.196 279.627 218.098 280.47 218.098 281.129C218.098 282.838 218.537 284.034 219.416 284.718C220.32 285.377 221.419 285.707 222.713 285.707C224.568 285.707 225.752 284.987 226.265 283.546C226.436 283.131 226.522 282.692 226.522 282.228C226.522 280.665 225.52 279.017 223.518 277.283L223.225 277.027C222.322 276.246 221.614 275.477 221.101 274.72C220.613 273.963 220.369 273.096 220.369 272.119C220.369 271.436 220.515 270.691 220.808 269.885C221.199 268.835 221.907 267.993 222.932 267.358C223.982 266.699 225.228 266.369 226.668 266.369C228.084 266.369 229.537 266.772 231.026 267.578L229.012 274.353H228.829C229.146 273.011 229.305 271.9 229.305 271.021C229.305 269.775 229 268.835 228.389 268.201C227.779 267.541 226.815 267.212 225.496 267.212C224.715 267.212 223.982 267.395 223.299 267.761C222.639 268.127 222.2 268.652 221.98 269.336C221.834 269.775 221.76 270.191 221.76 270.581C221.76 271.411 222.017 272.217 222.53 272.998C223.067 273.78 223.75 274.488 224.58 275.123L224.947 275.379C227.071 277.015 228.133 278.724 228.133 280.506C228.133 281.068 228.023 281.678 227.803 282.338C227.291 283.729 226.546 284.755 225.569 285.414C224.617 286.073 223.396 286.403 221.907 286.403ZM242.447 267.981C241.91 267.981 240.457 267.871 238.089 267.651L233.218 284.901L239.297 281.166L239.371 281.275C239.078 281.52 238.504 282.045 237.649 282.85C236.453 283.973 235.476 284.84 234.719 285.451C233.987 286.037 233.401 286.33 232.961 286.33C232.668 286.33 232.424 286.195 232.229 285.927C232.058 285.658 231.973 285.06 231.973 284.132C231.973 283.473 231.997 282.924 232.046 282.484L236.001 267.468C235.611 267.419 235.318 267.37 235.122 267.322C234.463 267.248 233.938 267.163 233.547 267.065L233.621 266.882H236.221C236.587 266.467 237.088 265.832 237.723 264.978C238.357 264.099 238.834 263.415 239.151 262.927H239.297L238.309 266.882H242.703L242.447 267.981Z" fill="#DB3A2C"/>
<path d="M173.572 276.005C173.796 275.782 173.796 275.419 173.572 275.196L169.93 271.554C169.707 271.331 169.345 271.331 169.121 271.554C168.898 271.778 168.898 272.14 169.121 272.363L172.358 275.601L169.121 278.838C168.898 279.061 168.898 279.424 169.121 279.647C169.345 279.871 169.707 279.871 169.93 279.647L173.572 276.005ZM90 276.173L173.168 276.173L173.168 275.028L90 275.028L90 276.173Z" fill="#DB3A2C"/>
<path d="M254.786 275.196C254.563 275.419 254.563 275.782 254.786 276.005L258.428 279.647C258.652 279.871 259.014 279.871 259.237 279.647C259.461 279.424 259.461 279.061 259.237 278.838L256 275.601L259.237 272.363C259.461 272.14 259.461 271.778 259.237 271.554C259.014 271.331 258.652 271.331 258.428 271.554L254.786 275.196ZM255.191 276.173H337.214V275.028H255.191V276.173Z" fill="#DB3A2C"/>
<path d="M246.225 256.908L247.146 262.058L249.85 262.631L247.146 263.203L246.225 268.353L245.305 263.203L242.601 262.631L245.305 262.058L246.225 256.908Z" fill="#DB3A2C"/>
<path d="M248.778 265.386C249.106 266.608 248.486 268.073 246.96 269.702C245.443 271.323 243.071 273.059 240.015 274.804C233.906 278.294 225.104 281.801 215.057 284.493C205.01 287.185 195.634 288.549 188.599 288.581C185.08 288.597 182.157 288.28 180.033 287.635C177.897 286.987 176.628 286.028 176.3 284.806C175.973 283.584 176.593 282.119 178.118 280.49C179.636 278.869 182.008 277.133 185.063 275.388C191.172 271.898 199.975 268.391 210.021 265.699C220.068 263.007 229.445 261.643 236.48 261.611C239.999 261.595 242.921 261.912 245.045 262.556C247.181 263.204 248.451 264.164 248.778 265.386Z" stroke="#DB3A2C" stroke-width="0.381503"/>
<circle cx="177.555" cy="286.092" r="2.09827" fill="#DB3A2C"/>
<path d="M53.2764 0L58.5396 29.6053L74.0001 32.8947L58.5396 36.1842L53.2764 65.7895L48.0133 36.1842L32.5527 32.8947L48.0133 29.6053L53.2764 0Z" fill="#75A9B5"/>
<path d="M33.2105 3.28906L35.5497 16.6114L42.4211 18.0917L35.5497 19.572L33.2105 32.8943L30.8713 19.572L24 18.0917L30.8713 16.6114L33.2105 3.28906Z" fill="#75A9B5"/>
<defs>
<filter id="filter0_dddddd_3831_55" x="40.2812" y="73.1719" width="604.54" height="578.774" filterUnits="userSpaceOnUse" color-interpolation-filters="sRGB">
<feFlood flood-opacity="0" result="BackgroundImageFix"/>
<feColorMatrix in="SourceAlpha" type="matrix" values="0 0 0 0 0 0 0 0 0 0 0 0 0 0 0 0 0 0 127 0" result="hardAlpha"/>
<feOffset/>
<feGaussianBlur stdDeviation="3.14732"/>
<feColorMatrix type="matrix" values="0 0 0 0 1 0 0 0 0 1 0 0 0 0 1 0 0 0 1 0"/>
<feBlend mode="normal" in2="BackgroundImageFix" result="effect1_dropShadow_3831_55"/>
<feColorMatrix in="SourceAlpha" type="matrix" values="0 0 0 0 0 0 0 0 0 0 0 0 0 0 0 0 0 0 127 0" result="hardAlpha"/>
<feOffset/>
<feGaussianBlur stdDeviation="6.29464"/>
<feColorMatrix type="matrix" values="0 0 0 0 1 0 0 0 0 1 0 0 0 0 1 0 0 0 1 0"/>
<feBlend mode="normal" in2="effect1_dropShadow_3831_55" result="effect2_dropShadow_3831_55"/>
<feColorMatrix in="SourceAlpha" type="matrix" values="0 0 0 0 0 0 0 0 0 0 0 0 0 0 0 0 0 0 127 0" result="hardAlpha"/>
<feOffset/>
<feGaussianBlur stdDeviation="22.0313"/>
<feColorMatrix type="matrix" values="0 0 0 0 1 0 0 0 0 1 0 0 0 0 1 0 0 0 1 0"/>
<feBlend mode="normal" in2="effect2_dropShadow_3831_55" result="effect3_dropShadow_3831_55"/>
<feColorMatrix in="SourceAlpha" type="matrix" values="0 0 0 0 0 0 0 0 0 0 0 0 0 0 0 0 0 0 127 0" result="hardAlpha"/>
<feOffset/>
<feGaussianBlur stdDeviation="44.0625"/>
<feColorMatrix type="matrix" values="0 0 0 0 1 0 0 0 0 1 0 0 0 0 1 0 0 0 1 0"/>
<feBlend mode="normal" in2="effect3_dropShadow_3831_55" result="effect4_dropShadow_3831_55"/>
<feColorMatrix in="SourceAlpha" type="matrix" values="0 0 0 0 0 0 0 0 0 0 0 0 0 0 0 0 0 0 127 0" result="hardAlpha"/>
<feOffset/>
<feGaussianBlur stdDeviation="75.5357"/>
<feColorMatrix type="matrix" values="0 0 0 0 1 0 0 0 0 1 0 0 0 0 1 0 0 0 1 0"/>
<feBlend mode="normal" in2="effect4_dropShadow_3831_55" result="effect5_dropShadow_3831_55"/>
<feColorMatrix in="SourceAlpha" type="matrix" values="0 0 0 0 0 0 0 0 0 0 0 0 0 0 0 0 0 0 127 0" result="hardAlpha"/>
<feOffset/>
<feGaussianBlur stdDeviation="132.188"/>
<feColorMatrix type="matrix" values="0 0 0 0 1 0 0 0 0 1 0 0 0 0 1 0 0 0 1 0"/>
<feBlend mode="normal" in2="effect5_dropShadow_3831_55" result="effect6_dropShadow_3831_55"/>
<feBlend mode="normal" in="SourceGraphic" in2="effect6_dropShadow_3831_55" result="shape"/>
</filter>
</defs>
</svg>
