<svg width="1231" height="900" viewBox="0 0 1231 900" fill="none" xmlns="http://www.w3.org/2000/svg">
<path d="M201.52 264.224L216.392 284.712C217.536 286.272 218.16 287.728 218.16 289.288C218.16 291.16 217.328 293.136 215.976 295.528L211.92 303.016C209.008 308.424 206.616 309.36 203.704 309.36C199.44 309.36 197.152 305.928 195.904 300.624L188.416 267.656C186.856 261 184.256 258.92 180.304 258.92C175.624 258.92 171.568 262.456 168.24 267.448L144.528 302.912C141.2 307.904 139.432 309.776 136.728 309.776C132.984 309.776 131.112 307.592 131.112 304.472C131.112 301.664 132.568 299.376 135.064 295.528L150.144 271.608C153.992 265.576 156.592 260.272 156.592 255.8C156.592 249.56 151.808 245.4 140.056 245.4C123.312 245.4 113.12 265.16 113.12 279.512C113.12 282.216 115.512 283.88 117.384 283.88C120.712 283.88 122.688 282.008 123.208 277.536L125.704 258.608C126.224 254.656 128.616 253.096 131.008 253.096C133.608 253.096 135.064 255.384 134.336 259.44L125.08 305.824C124.664 308.008 124.56 309.984 124.56 311.856C124.56 322.152 130.8 327.56 139.328 327.56C143.592 327.56 148.688 325.272 152.12 320.488L181.136 279.824C182.176 278.368 183.528 277.016 184.88 277.016C186.544 277.016 187.064 278.16 187.064 279.304C187.064 280.032 186.96 281.072 186.544 281.904L178.744 298.44C170.216 316.432 173.44 327.56 188.936 327.56C211.296 327.56 223.984 297.4 223.984 277.12C223.984 253.2 219.096 245.4 210.984 245.4C202.976 245.4 197.776 250.08 197.776 255.904C197.776 258.504 199.336 261.208 201.52 264.224ZM233.394 270.048C233.394 271.92 234.226 273.376 236.826 273.376H241.298C244.626 273.376 246.498 274.208 246.498 276.6C246.498 277.12 246.394 277.744 246.186 278.472L237.762 309.256C234.954 319.656 240.466 327.56 252.322 327.56C260.33 327.56 268.65 324.024 267.922 317.056C267.298 311.024 262.202 310.4 257.834 312.272L245.354 317.68C243.378 318.512 241.61 316.744 241.61 314.664C241.61 313.624 242.13 312.792 243.794 310.92L263.658 288.248C270.522 280.344 266.986 271.504 256.482 272.752L249.41 273.584C248.474 273.688 246.706 273.688 246.706 271.92C246.706 270.88 247.33 269.944 248.682 269.528L260.122 265.576C265.114 263.808 268.65 261.104 268.65 255.28C268.65 249.04 263.554 245.4 258.25 245.4C255.234 245.4 252.218 246.544 250.034 249.04L238.282 262.56C235.682 265.576 233.394 268.384 233.394 270.048ZM293.996 327.56C305.228 327.56 307.308 317.784 302.628 306.24L288.484 271.608C287.548 269.32 286.612 264.64 286.612 261.728C286.612 255.8 290.044 251.432 295.868 251.432C299.612 251.432 302.836 254.136 302.004 259.44L301.068 265.368C299.716 274 304.084 283.256 308.244 288.976L325.508 312.896C332.892 323.088 336.116 327.56 342.46 327.56C349.22 327.56 352.652 322.984 353.796 313L359.1 264.848C360.14 255.28 357.02 245.296 346.724 245.296C337.988 245.296 335.284 252.056 335.284 257.36C335.284 259.856 335.076 263.184 337.676 269.84L347.244 294.488C348.596 297.92 349.428 300.312 349.428 302.184C349.428 304.472 348.18 305.616 345.58 305.616C343.708 305.616 342.252 304.16 339.756 300.208L315.108 261.624C308.868 251.848 304.292 245.4 296.076 245.4C284.948 245.4 280.06 250.6 280.06 274V302.08C280.06 317.16 280.372 327.56 293.996 327.56ZM405.467 259.544L388.723 308.216C384.459 319.552 386.747 327.56 397.875 327.56C407.859 327.56 409.939 321.84 410.147 310.816L411.291 259.96C411.395 253.408 412.539 250.704 415.347 250.704C418.883 250.704 419.923 254.136 419.923 258.712V263.288C419.923 277.64 422.939 284.504 432.403 284.192C439.059 283.984 444.051 278.264 444.051 271.816C444.051 257.36 432.611 246.96 413.787 246.96H378.219C367.403 246.96 363.971 253.2 363.971 258.504C363.971 270.464 379.363 276.496 388.931 265.888L400.579 252.888C401.619 251.744 402.763 251.224 403.699 251.224C406.507 251.224 407.547 253.616 405.467 259.544ZM514.943 262.04C522.743 262.768 524.511 259.648 524.511 256.32C524.511 249.768 518.167 245.504 499.551 245.504C472.927 245.504 450.255 256.216 450.255 275.144C450.255 284.608 459.095 289.6 469.287 285.44L490.087 276.912C494.871 274.936 496.951 278.784 492.791 281.696L461.799 303.224C457.119 306.552 454.519 310.296 454.519 314.144C454.519 324.544 466.999 327.664 480.831 327.664C494.767 327.768 510.367 325.376 516.399 322.568C521.911 319.968 524.823 316.64 524.511 310.712C524.199 304.472 519.519 301.976 510.575 305.096L468.039 319.968C462.943 321.736 460.135 317.472 460.135 315.184C460.135 312.584 460.967 310.504 465.855 308.944L506.415 296.048C515.567 293.136 517.023 288.248 517.023 284.4C517.023 279.408 514.319 274.624 506.415 273.688L469.183 269.112C462.839 268.28 460.447 266.2 460.447 263.184C460.447 260.272 463.151 257.464 469.183 257.984L514.943 262.04ZM614.194 314.456C614.194 308.008 608.994 303.744 602.13 303.64L581.642 303.432C577.69 303.432 576.026 302.6 576.026 300.208C576.026 297.712 578.002 296.464 580.498 295.632L597.554 289.6C612.218 284.4 614.818 278.056 614.818 270.984C614.818 261.624 608.682 245.4 582.994 245.4C551.378 245.4 536.506 272.336 536.506 307.696C536.506 322.568 543.682 327.56 550.13 327.56C561.986 327.56 563.234 318.408 559.178 308.84L548.57 283.88C547.738 281.904 547.218 279.824 547.218 277.848C547.218 270.464 553.042 264.12 563.754 264.12H596.306C603.898 264.12 607.85 268.072 607.85 273.168C607.85 278.576 604.21 283.568 593.082 282.112L561.466 278.056C557.618 277.536 555.538 278.264 555.434 280.968C555.434 282.424 556.474 284.608 558.762 287.52L584.45 318.616C590.17 325.584 595.682 327.56 599.842 327.56C610.658 327.56 614.194 321.008 614.194 314.456ZM714 246.96H677.912C671.048 246.96 667.408 252.472 667.408 257.88C667.408 262.664 670.112 266.616 675.936 267.656C680.616 268.488 682.176 270.048 680.408 273.688L676.56 281.488C666.264 302.392 671.672 327.352 698.504 327.456C730.224 327.56 745.408 313.728 745.408 287C745.408 261.52 736.568 246.96 714 246.96ZM731.992 272.544L714 315.912C710.776 323.608 699.232 325.584 696.216 314.872L685.504 277.224C683.528 270.152 686.544 265.472 695.384 263.808L721.384 258.816C729.288 257.256 736.152 262.456 731.992 272.544ZM820.544 311.128L774.784 315.184C768.752 315.704 766.048 312.896 766.048 309.984C766.048 306.968 768.44 304.888 774.784 304.056L812.016 299.48C819.92 298.544 822.624 293.76 822.624 288.768C822.624 284.92 821.168 280.032 812.016 277.12L771.456 264.224C766.568 262.664 765.736 260.584 765.736 257.984C765.736 255.696 768.544 251.432 773.64 253.2L816.176 268.072C825.12 271.192 829.8 268.696 830.112 262.456C830.424 256.528 827.512 253.2 822 250.6C815.968 247.792 800.368 245.4 786.432 245.504C772.6 245.504 760.12 248.624 760.12 259.024C760.12 262.872 762.72 266.616 767.4 269.944L798.392 291.472C802.552 294.384 800.472 298.232 795.688 296.256L774.888 287.728C764.696 283.568 755.856 288.56 755.856 298.024C755.856 316.952 778.528 327.664 805.152 327.664C823.768 327.664 830.112 323.4 830.112 316.848C830.112 313.52 828.344 310.4 820.544 311.128ZM884.747 245.504C860.931 245.504 842.107 260.064 842.107 274.52C842.107 279.512 845.019 283.672 850.947 284.712L903.883 294.28C907.211 294.904 908.563 295.84 908.875 298.128C909.187 300.312 908.147 302.288 903.675 303.224L858.851 312.896C855.419 313.624 853.235 313.728 851.571 312.584C850.531 311.856 850.219 309.984 851.467 308.112L856.043 301.248C861.659 292.824 855.523 288.872 851.467 288.872C845.331 288.872 842.523 293.968 842.523 301.352C842.523 320.072 860.307 327.768 878.299 327.768C896.603 327.768 915.115 317.888 915.115 299.792C915.115 295.528 912.307 291.368 908.043 290.328L901.491 288.768C897.331 287.832 895.667 287.312 895.563 283.464L895.459 279.512C895.251 272.024 888.491 265.368 878.611 269.944L856.563 280.136C853.027 281.8 849.803 281.28 848.763 277.432C847.723 273.584 851.467 271.92 855.835 269.84L892.235 252.264C898.475 249.248 901.595 251.848 901.595 256.84V274.52C901.595 278.888 904.715 283.152 909.707 283.152C915.947 283.152 918.235 276.496 918.235 270.776C918.235 258.712 909.707 245.504 884.747 245.504ZM926.762 270.048C926.762 271.92 927.594 273.376 930.194 273.376H934.666C937.994 273.376 939.866 274.208 939.866 276.6C939.866 277.12 939.762 277.744 939.554 278.472L931.13 309.256C928.322 319.656 933.834 327.56 945.69 327.56C953.698 327.56 962.018 324.024 961.29 317.056C960.666 311.024 955.57 310.4 951.202 312.272L938.722 317.68C936.746 318.512 934.978 316.744 934.978 314.664C934.978 313.624 935.498 312.792 937.162 310.92L957.026 288.248C963.89 280.344 960.354 271.504 949.85 272.752L942.778 273.584C941.842 273.688 940.074 273.688 940.074 271.92C940.074 270.88 940.698 269.944 942.05 269.528L953.49 265.576C958.482 263.808 962.018 261.104 962.018 255.28C962.018 249.04 956.922 245.4 951.618 245.4C948.602 245.4 945.586 246.544 943.402 249.04L931.65 262.56C929.05 265.576 926.762 268.384 926.762 270.048ZM1000.57 266.824C996.724 262.04 996.308 254.136 1003.59 251.016C1009.83 248.312 1016.59 250.496 1020.02 254.968L1031.56 270.152C1038.12 278.784 1052.36 272.648 1049.45 262.872C1046.23 251.848 1033.12 245.4 1013.36 245.4C989.756 245.4 973.428 260.896 973.428 287.936C973.428 314.248 984.868 327.56 997.14 327.56C1006.5 327.56 1010.87 324.128 1018.88 313.624L1035.93 291.368C1039.68 286.376 1041.24 286.168 1043.21 286.168C1045.5 286.168 1048.1 288.56 1045.92 291.888L1034.79 309.048C1027.92 319.552 1034.06 327.56 1041.76 327.56C1049.45 327.56 1054.55 323.088 1054.03 311.856L1052.99 290.016C1052.57 281.488 1045.08 277.952 1035.1 283.88L991.108 310.088C983.1 314.872 976.236 302.184 984.036 296.88L1000.78 285.44C1007.12 281.176 1007.54 275.664 1003.59 270.672L1000.57 266.824ZM1132.29 245.4C1121.06 245.4 1121.16 255.072 1125.01 266.72L1136.76 302.184C1137.49 304.472 1138.63 309.152 1138.63 312.064C1138.63 317.992 1135.93 322.36 1130.11 322.36C1126.36 322.36 1123.14 319.656 1123.97 314.352L1124.91 308.424C1126.26 299.792 1121.79 291.264 1117.52 285.648L1098.18 260.064C1090.59 250.08 1087.57 245.4 1081.23 245.4C1074.47 245.4 1070.1 249.976 1069.89 259.96L1068.75 308.112C1068.54 317.68 1070.83 327.664 1081.12 327.664C1089.86 327.664 1092.56 320.904 1092.56 315.6C1092.56 313.104 1093.6 309.36 1090.17 303.12L1076.44 278.472C1074.67 275.352 1074.26 272.648 1074.26 270.776C1074.26 268.488 1075.51 267.344 1078.11 267.344C1079.98 267.344 1081.23 268.8 1083.93 272.752L1111.18 312.272C1117.73 321.84 1122.72 327.664 1130.11 327.664C1142.17 327.664 1144.67 319.448 1145.71 296.152L1146.85 270.776C1147.58 255.696 1145.91 245.4 1132.29 245.4Z" fill="#201E29"/>
<path d="M566.148 160.848L566.34 162.192C568.788 162.096 571.476 162 573.012 162C574.548 162 578.196 162.096 581.988 162.336L582.18 160.992C575.94 159.6 575.46 157.872 575.46 154.224V146.64C577.332 149.184 580.26 150.72 584.58 150.72C591.732 150.72 597.012 144.624 597.012 136.848C597.012 129.024 591.396 122.88 584.244 122.88C579.588 122.88 576.612 124.752 574.884 127.776L574.452 122.832L573.252 122.736C572.243 125.568 570.756 127.2 566.484 127.68V128.976C570.036 128.976 571.14 132.048 571.14 135.696V154.224C571.14 157.872 569.508 159.744 566.148 160.848ZM575.652 136.944C574.884 130.896 577.092 126.24 581.028 125.664C586.068 124.944 590.292 129.36 591.3 136.416C592.212 143.424 589.859 148.512 585.636 148.704C580.692 148.896 576.564 144.048 575.652 136.944ZM600.634 148.992L600.826 150.336C603.754 150.096 606.154 150 607.69 150C609.226 150 612.106 150.096 614.458 150.336L614.65 148.992C610.81 147.696 609.802 145.872 609.802 142.224V134.544C609.802 130.656 612.154 127.92 615.034 127.92C617.674 127.92 619.834 129.552 620.506 133.248L621.562 132.96C621.514 130.56 621.514 127.248 622.09 123.888C618.826 122.592 612.538 123.072 609.802 130.032C609.802 128.16 609.898 126.096 610.33 123.408L608.986 123.072C607.162 125.424 604.57 127.2 600.826 128.352V129.504C604.426 129.792 605.482 132.624 605.482 135.936V142.224C605.482 145.872 604.474 147.744 600.634 148.992ZM650.229 141.936L649.365 141.408C645.189 147.888 635.973 147.696 631.845 142.176C630.309 140.112 629.541 137.568 629.445 135.072L648.837 135.12C649.317 126.288 643.509 122.88 637.413 122.88C629.973 122.88 624.981 129.072 624.981 136.752C624.981 144.816 630.837 150.72 637.797 150.72C644.517 150.72 648.741 146.976 650.229 141.936ZM629.493 133.152C629.781 129.984 631.077 127.104 633.093 125.76C637.845 122.592 643.461 126.384 643.461 133.2L629.493 133.152ZM654.809 139.728L653.849 140.016C654.377 142.608 653.849 146.976 653.369 149.04C657.257 150.192 660.473 150.48 663.929 150.48C671.177 150.48 674.297 147.792 674.297 143.184C674.297 139.488 672.137 137.088 665.417 134.208C660.953 132.288 658.601 130.656 658.601 128.64C658.601 126.192 660.713 125.04 663.209 125.04C666.425 125.04 669.881 127.104 671.609 132.672L672.665 132.432C672.329 129.552 672.377 126.96 672.569 124.032C668.825 124.032 667.481 123.12 664.025 123.12C658.841 123.12 654.233 125.376 654.233 130.272C654.233 133.728 656.729 136.224 662.537 138.576C667.865 140.688 670.073 142.704 670.073 144.96C670.073 147.312 667.721 148.56 664.985 148.56C660.473 148.56 657.161 146.304 654.809 139.728ZM703.62 141.936L702.756 141.408C698.58 147.888 689.364 147.696 685.236 142.176C683.7 140.112 682.932 137.568 682.836 135.072L702.228 135.12C702.708 126.288 696.9 122.88 690.804 122.88C683.364 122.88 678.372 129.072 678.372 136.752C678.372 144.816 684.228 150.72 691.188 150.72C697.908 150.72 702.132 146.976 703.62 141.936ZM682.884 133.152C683.172 129.984 684.468 127.104 686.484 125.76C691.236 122.592 696.852 126.384 696.852 133.2L682.884 133.152ZM725.959 148.992L726.151 150.336C728.599 150.096 730.999 150 732.535 150C734.071 150 736.951 150.096 739.303 150.336L739.495 148.992C735.655 147.696 734.647 145.872 734.647 142.224V134.112C734.647 126.624 732.007 122.88 726.631 122.88C722.983 122.88 718.567 125.52 715.927 130.32C715.927 128.352 716.023 126.192 716.455 123.408L715.111 123.072C713.287 125.424 710.695 127.2 706.951 128.352V129.504C710.551 129.792 711.607 132.624 711.607 135.936V142.224C711.607 145.872 710.599 147.744 706.759 148.992L706.951 150.336C709.879 150.096 712.279 150 713.815 150C715.351 150 718.231 150.096 720.583 150.336L720.775 148.992C716.935 147.696 715.927 145.872 715.927 142.224V134.16V132.432C718.039 129.36 720.295 126.576 724.423 126.576C728.359 126.576 730.327 129.12 730.327 134.304V142.224C730.327 145.872 729.319 147.744 725.959 148.992ZM754.074 150.72C758.058 150.72 762.474 147.696 765.018 142.032L763.962 141.408C761.85 144.576 759.546 147.024 756.282 147.024C752.346 147.024 750.378 144.48 750.378 138.816C750.378 133.872 750.378 129.984 750.474 126.336L762.282 126.96L764.25 124.272L763.818 123.6L750.522 124.128C750.618 121.776 750.714 119.52 750.906 117.072L749.754 116.88C747.594 121.68 745.722 123.6 741.402 124.608V125.904C745.002 126.192 746.058 127.776 746.058 133.008V140.208C746.058 147.696 748.698 150.72 754.074 150.72ZM769.09 139.728L768.13 140.016C768.658 142.608 768.13 146.976 767.65 149.04C771.538 150.192 774.754 150.48 778.21 150.48C785.458 150.48 788.578 147.792 788.578 143.184C788.578 139.488 786.418 137.088 779.698 134.208C775.234 132.288 772.882 130.656 772.882 128.64C772.882 126.192 774.994 125.04 777.49 125.04C780.706 125.04 784.162 127.104 785.89 132.672L786.946 132.432C786.61 129.552 786.658 126.96 786.85 124.032C783.106 124.032 781.762 123.12 778.306 123.12C773.122 123.12 768.514 125.376 768.514 130.272C768.514 133.728 771.01 136.224 776.818 138.576C782.146 140.688 784.354 142.704 784.354 144.96C784.354 147.312 782.002 148.56 779.266 148.56C774.754 148.56 771.442 146.304 769.09 139.728ZM797.908 150.768C799.876 150.768 801.46 149.184 801.46 147.216C801.46 145.248 799.876 143.664 797.908 143.664C795.94 143.664 794.356 145.248 794.356 147.216C794.356 149.184 795.94 150.768 797.908 150.768ZM812.673 150.768C814.641 150.768 816.225 149.184 816.225 147.216C816.225 145.248 814.641 143.664 812.673 143.664C810.705 143.664 809.121 145.248 809.121 147.216C809.121 149.184 810.705 150.768 812.673 150.768ZM827.439 150.768C829.407 150.768 830.991 149.184 830.991 147.216C830.991 145.248 829.407 143.664 827.439 143.664C825.471 143.664 823.887 145.248 823.887 147.216C823.887 149.184 825.471 150.768 827.439 150.768Z" fill="#201E29"/>
<path d="M109.077 116.592L109.173 117.312L116.469 118.8L111.189 122.928L113.493 125.808L114.213 125.952L117.909 119.424L120.165 125.664L123.621 124.368L124.005 123.744L119.013 118.272L125.589 118.032L125.445 114.384L124.965 113.808L118.101 116.928L119.973 110.496L116.421 109.536L115.749 109.824L116.613 117.216L111.093 113.472L109.077 116.592ZM130.774 136.464L129.574 136.848C130.246 140.064 130.054 145.968 128.95 148.752C133.99 150.336 138.214 150.72 142.39 150.72C151.798 150.72 155.734 146.976 155.734 141.552C155.734 136.656 152.518 133.824 144.166 130.08C137.206 126.96 133.99 124.368 133.99 120.624C133.99 117.552 137.35 115.44 140.902 115.44C145.222 115.44 150.07 118.272 152.422 126.336L153.526 126.096C153.094 122.208 153.046 118.704 153.43 114.768C147.286 114.768 146.182 113.52 141.526 113.52C135.766 113.52 129.766 116.544 129.766 122.544C129.766 127.2 132.886 130.704 140.374 133.92C148.486 137.424 151.606 139.968 151.606 143.664C151.606 146.64 148.63 148.8 143.734 148.8C138.694 148.8 133.702 145.776 130.774 136.464ZM177.813 150.336C186.933 150.336 191.589 146.736 191.589 140.736C191.589 135.216 188.181 131.712 182.517 130.512C186.309 129.12 188.805 126.384 188.805 122.064C188.805 116.736 185.109 113.52 175.989 114C173.253 114.144 169.605 114.24 168.069 114.24C166.533 114.24 164.133 114.144 161.205 113.904L161.013 115.248C164.853 116.496 165.861 118.368 165.861 122.016V142.224C165.861 145.872 164.853 147.744 161.013 148.992L161.205 150.336C164.133 150.096 166.533 150 168.453 150C170.325 150 174.261 150.336 177.813 150.336ZM170.181 139.968V132.816L175.461 132.288C183.093 131.52 186.549 135.36 186.549 140.928C186.549 145.968 183.093 148.416 178.005 148.416C172.677 148.416 170.181 145.056 170.181 139.968ZM170.181 130.848V116.16C179.109 115.392 183.765 116.736 183.765 122.88C183.765 126.768 181.845 129.648 174.837 130.368L170.181 130.848ZM243.578 135.936L242.426 135.744C239.882 142.944 236.378 146.496 229.082 146.496C220.874 146.496 214.346 139.44 214.346 130.32C214.346 121.824 219.626 115.488 226.538 115.488C232.586 115.488 237.146 118.944 239.354 126.912L240.554 126.768C240.41 122.88 241.178 118.56 242.282 115.056L241.418 114.48C237.866 116.496 233.354 113.52 227.45 113.52C217.754 113.52 209.354 121.872 209.354 132.096C209.354 142.512 217.322 150.72 227.45 150.72C236.474 150.72 241.754 144.912 243.578 135.936ZM246.455 148.992L246.647 150.336C249.575 150.096 251.975 150 253.511 150C255.047 150 257.927 150.096 260.279 150.336L260.471 148.992C256.631 147.696 255.623 145.872 255.623 142.224V134.544C255.623 130.656 257.975 127.92 260.855 127.92C263.495 127.92 265.655 129.552 266.327 133.248L267.383 132.96C267.335 130.56 267.335 127.248 267.911 123.888C264.647 122.592 258.359 123.072 255.623 130.032C255.623 128.16 255.719 126.096 256.151 123.408L254.807 123.072C252.983 125.424 250.391 127.2 246.647 128.352V129.504C250.247 129.792 251.303 132.624 251.303 135.936V142.224C251.303 145.872 250.295 147.744 246.455 148.992ZM296.05 141.936L295.186 141.408C291.01 147.888 281.794 147.696 277.666 142.176C276.13 140.112 275.362 137.568 275.266 135.072L294.658 135.12C295.138 126.288 289.33 122.88 283.234 122.88C275.794 122.88 270.802 129.072 270.802 136.752C270.802 144.816 276.658 150.72 283.618 150.72C290.338 150.72 294.562 146.976 296.05 141.936ZM275.314 133.152C275.602 129.984 276.898 127.104 278.914 125.76C283.666 122.592 289.282 126.384 289.282 133.2L275.314 133.152ZM300.138 126.096L300.426 127.056C305.754 125.472 310.554 125.04 313.434 128.16C298.554 137.184 297.45 147.408 300.618 149.664C303.594 151.776 312.81 150.624 316.986 141.168L318.282 150H325.578L325.914 148.656C320.202 146.256 317.034 130.08 323.754 125.232L323.082 124.128C321.498 124.56 319.482 125.28 317.466 126.192C315.21 123.792 312.666 122.88 309.066 122.88C305.37 122.88 302.682 124.176 300.138 126.096ZM305.082 145.44C303.162 143.616 304.17 139.056 307.722 135.504C310.17 133.056 312.666 131.376 314.778 130.176C314.922 130.56 315.114 130.944 315.258 131.376C316.746 136.8 315.498 140.304 313.674 142.704C310.986 146.208 306.906 147.12 305.082 145.44ZM340.504 150.72C344.488 150.72 348.904 147.696 351.448 142.032L350.392 141.408C348.28 144.576 345.976 147.024 342.712 147.024C338.776 147.024 336.808 144.48 336.808 138.816C336.808 133.872 336.808 129.984 336.904 126.336L348.712 126.96L350.68 124.272L350.248 123.6L336.952 124.128C337.048 121.776 337.144 119.52 337.336 117.072L336.184 116.88C334.024 121.68 332.152 123.6 327.832 124.608V125.904C331.432 126.192 332.488 127.776 332.488 133.008V140.208C332.488 147.696 335.128 150.72 340.504 150.72ZM360.416 118.608C362.288 118.608 363.824 117.12 363.824 115.248C363.824 113.376 362.288 111.888 360.416 111.888C358.544 111.888 357.056 113.376 357.056 115.248C357.056 117.12 358.544 118.608 360.416 118.608ZM354.08 148.992L354.272 150.336C357.2 150.096 359.6 150 361.136 150C362.672 150 365.552 150.096 367.904 150.336L368.096 148.992C364.256 147.696 363.248 145.872 363.248 142.224V134.16C363.248 130.992 363.056 128.112 363.776 123.408L362.432 123.072C360.608 125.424 358.016 127.2 354.272 128.352V129.504C357.872 129.792 358.928 132.624 358.928 135.936V142.224C358.928 145.872 357.92 147.744 354.08 148.992ZM368.291 123.6L368.099 124.944C371.747 126.192 373.619 128.592 375.491 132.528L384.227 150.72H385.235L393.683 132.144C395.267 128.64 396.755 126.72 400.595 124.944L400.403 123.6C398.051 123.84 395.363 123.936 393.827 123.936C392.291 123.936 391.379 123.84 388.931 123.6L388.739 124.944C392.579 125.616 393.347 128.256 391.907 131.376L386.243 143.808L380.435 131.664C378.851 128.352 378.371 125.616 381.779 124.944L381.587 123.6C378.755 123.84 376.979 123.936 375.443 123.936C373.907 123.936 371.219 123.84 368.291 123.6ZM425.612 141.936L424.748 141.408C420.572 147.888 411.356 147.696 407.228 142.176C405.692 140.112 404.924 137.568 404.828 135.072L424.22 135.12C424.7 126.288 418.892 122.88 412.796 122.88C405.356 122.88 400.364 129.072 400.364 136.752C400.364 144.816 406.22 150.72 413.18 150.72C419.9 150.72 424.124 146.976 425.612 141.936ZM404.876 133.152C405.164 129.984 406.46 127.104 408.476 125.76C413.228 122.592 418.844 126.384 418.844 133.2L404.876 133.152ZM443.622 148.992L443.814 150.336C446.742 150.096 449.142 150 458.406 150C465.894 150 469.638 150.096 472.422 150.288L473.094 134.784H471.75C469.974 143.856 466.374 148.08 459.222 148.08C454.758 148.08 452.79 145.968 452.79 141.744V122.016C452.79 118.368 453.798 116.544 457.638 115.248L457.446 113.904C455.094 114.144 452.214 114.24 450.678 114.24C449.142 114.24 446.742 114.144 443.814 113.904L443.622 115.248C447.462 116.496 448.47 118.368 448.47 122.016V142.224C448.47 145.872 447.462 147.744 443.622 148.992ZM477.888 126.096L478.176 127.056C483.504 125.472 488.304 125.04 491.184 128.16C476.304 137.184 475.2 147.408 478.368 149.664C481.344 151.776 490.56 150.624 494.736 141.168L496.032 150H503.328L503.664 148.656C497.952 146.256 494.784 130.08 501.504 125.232L500.832 124.128C499.248 124.56 497.232 125.28 495.216 126.192C492.96 123.792 490.416 122.88 486.816 122.88C483.12 122.88 480.432 124.176 477.888 126.096ZM482.832 145.44C480.912 143.616 481.92 139.056 485.472 135.504C487.92 133.056 490.416 131.376 492.528 130.176C492.672 130.56 492.864 130.944 493.008 131.376C494.496 136.8 493.248 140.304 491.424 142.704C488.736 146.208 484.656 147.12 482.832 145.44ZM523.232 150.72C530.384 150.72 535.664 144.624 535.664 136.848C535.664 129.024 530.048 122.88 522.896 122.88C518.672 122.88 515.84 124.416 514.064 126.96V122.016C514.064 118.368 514.544 114.48 516.032 110.784L515.168 110.064C512.72 112.896 510.032 114.624 505.088 115.44V116.736C508.64 116.736 509.744 119.808 509.744 123.456V136.464C509.744 142.512 509.36 146.304 508.88 150H510.512L513.536 145.824C515.36 148.848 518.432 150.72 523.232 150.72ZM514.304 136.944C513.536 130.896 515.744 126.24 519.68 125.664C524.72 124.944 528.944 129.36 529.952 136.416C530.864 143.424 528.512 148.512 524.288 148.704C519.344 148.896 515.216 144.048 514.304 136.944Z" fill="#201E29"/>
<path d="M426.751 377.2H383.167V377.776L390.847 380.944L376.543 438.64L367.327 441.424V442H389.503V441.424L382.015 438.64L388.831 411.088H402.367C408.223 411.088 406.879 413.872 407.647 422.512L408.127 422.8L414.367 397.648L413.887 397.36C408.799 405.808 408.511 409.36 402.559 409.36H389.311L396.895 378.928H416.191C421.087 378.928 421.183 379.6 421.375 391.312C421.279 393.04 421.279 394.768 421.375 396.784L421.855 397.072L426.751 377.2ZM455.636 399.088C455.636 396.496 454.196 391.024 445.556 391.024C442.676 391.024 429.332 395.44 423.86 415.12C418.964 432.784 425.3 442.96 435.764 442.96C438.452 442.96 442.388 440.56 448.724 436.336L448.244 435.76C445.268 437.488 443.732 439.024 439.7 439.024C429.524 439.024 426.356 429.232 427.604 418.288C440.852 415.984 455.636 411.28 455.636 399.088ZM442.772 395.056C448.82 395.056 449.588 399.088 449.588 401.488C449.588 412.432 435.284 415.792 427.892 416.752C428.084 415.216 428.468 413.584 428.852 411.952C432.884 396.4 439.508 395.056 442.772 395.056ZM467.007 443.056C474.687 443.056 479.775 439.792 482.463 432.4C485.343 424.432 480.831 418.672 474.975 414.16L474.015 413.488C469.023 409.648 464.991 404.08 467.199 398.32C468.447 394.576 472.575 392.752 476.415 392.752C486.591 392.752 487.839 400.24 485.151 411.472H485.631L490.911 393.712C485.727 390.928 481.983 390.544 479.487 390.544C471.807 390.544 466.143 394.384 464.127 399.76C460.767 408.88 465.471 414.064 470.463 418.48L471.231 419.152C476.511 423.664 480.735 429.52 478.431 435.568C476.895 439.792 473.151 441.232 469.119 441.232C462.591 441.232 454.527 438.448 457.791 422.608H457.215L452.607 441.136C455.871 441.616 461.727 443.056 467.007 443.056ZM521.519 391.888H509.999L512.591 381.52H512.207C510.479 384.304 506.255 389.872 504.527 391.888H497.711L497.519 392.368C498.671 392.656 501.551 393.04 503.951 393.424L493.583 432.784C492.719 442.48 494.543 442.864 495.983 442.864C499.631 442.864 508.559 433.072 512.783 429.616L512.591 429.328L496.655 439.12L509.423 393.904C514.607 394.384 519.599 394.768 520.847 394.768L521.519 391.888Z" fill="#DB3A2C"/>
<path d="M117 168.5C129.934 159.833 141.43 159.833 154.364 168.5C167.297 177.167 178.794 177.167 191.727 168.5C204.661 159.833 216.157 159.833 229.091 168.5C242.024 177.167 253.521 177.167 266.455 168.5C279.388 159.833 290.885 159.833 303.818 168.5C316.752 177.167 328.248 177.167 341.182 168.5C354.115 159.833 365.612 159.833 378.545 168.5C391.479 177.167 402.976 177.167 415.909 168.5C428.843 159.833 440.339 159.833 453.273 168.5C466.206 177.167 477.703 177.167 490.636 168.5C503.57 159.833 515.066 159.833 528 168.5" stroke="#DB3A2C" stroke-width="3" stroke-linecap="round" stroke-linejoin="round"/>
<path d="M339.061 415.061C339.646 414.475 339.646 413.525 339.061 412.939L329.515 403.393C328.929 402.808 327.979 402.808 327.393 403.393C326.808 403.979 326.808 404.929 327.393 405.515L335.879 414L327.393 422.485C326.808 423.071 326.808 424.021 327.393 424.607C327.979 425.192 328.929 425.192 329.515 424.607L339.061 415.061ZM120 415.5L338 415.5L338 412.5L120 412.5L120 415.5Z" fill="#DB3A2C"/>
<path d="M551.939 412.939C551.354 413.525 551.354 414.475 551.939 415.061L561.485 424.607C562.071 425.192 563.021 425.192 563.607 424.607C564.192 424.021 564.192 423.071 563.607 422.485L555.121 414L563.607 405.515C564.192 404.929 564.192 403.979 563.607 403.393C563.021 402.808 562.071 402.808 561.485 403.393L551.939 412.939ZM553 415.5H768V412.5H553V415.5Z" fill="#DB3A2C"/>
<path d="M529.5 365L531.913 378.5L539 380L531.913 381.5L529.5 395L527.087 381.5L520 380L527.087 378.5L529.5 365Z" fill="#DB3A2C"/>
<path d="M536.192 387.224C537.051 390.428 535.426 394.269 531.427 398.539C527.449 402.786 521.232 407.336 513.222 411.912C497.21 421.059 474.137 430.251 447.802 437.308C421.467 444.364 396.89 447.94 378.449 448.024C369.224 448.066 361.565 447.235 355.997 445.545C350.398 443.847 347.071 441.333 346.212 438.129C345.354 434.926 346.979 431.085 350.978 426.814C354.955 422.567 361.173 418.017 369.182 413.442C385.195 404.294 408.267 395.102 434.602 388.046C460.937 380.989 485.515 377.414 503.956 377.329C513.18 377.287 520.84 378.119 526.408 379.808C532.006 381.507 535.334 384.021 536.192 387.224Z" stroke="#DB3A2C"/>
<circle cx="349.5" cy="441.5" r="5.5" fill="#DB3A2C"/>
<path d="M105.5 208L113.5 253L137 258L113.5 263L105.5 308L97.5 263L74 258L97.5 253L105.5 208Z" fill="#75A9B5"/>
<path d="M822.5 357L827.198 384L841 387L827.198 390L822.5 417L817.802 390L804 387L817.802 384L822.5 357Z" fill="#75A9B5"/>
<path d="M75 213L78.5556 233.25L89 235.5L78.5556 237.75L75 258L71.4444 237.75L61 235.5L71.4444 233.25L75 213Z" fill="#75A9B5"/>
<path d="M834.283 540.612C831.217 538.644 831.217 534.163 834.283 532.195L853.207 520.054C855.592 518.523 856.23 515.318 854.611 512.991L841.832 494.619C839.754 491.632 841.461 487.498 845.04 486.845L867.289 482.789C870.068 482.282 871.876 479.576 871.28 476.815L866.56 454.954C865.795 451.411 868.938 448.256 872.484 449.008L894.691 453.714C897.441 454.297 900.13 452.499 900.644 449.736L904.742 427.666C905.402 424.114 909.495 422.412 912.478 424.45L931.212 437.242C933.525 438.821 936.685 438.193 938.217 435.848L950.571 416.947C952.544 413.928 956.968 413.928 958.941 416.947L971.295 435.848C972.828 438.193 975.987 438.821 978.3 437.242L997.034 424.45C1000.02 422.412 1004.11 424.114 1004.77 427.666L1008.87 449.736C1009.38 452.499 1012.07 454.297 1014.82 453.714L1037.03 449.008C1040.57 448.256 1043.72 451.411 1042.95 454.954L1038.23 476.815C1037.64 479.576 1039.44 482.282 1042.22 482.789L1064.47 486.845C1068.05 487.498 1069.76 491.632 1067.68 494.619L1054.9 512.991C1053.28 515.318 1053.92 518.523 1056.31 520.054L1075.23 532.195C1078.3 534.163 1078.3 538.644 1075.23 540.612L1056.31 552.753C1053.92 554.284 1053.28 557.489 1054.9 559.816L1067.68 578.188C1069.76 581.175 1068.05 585.31 1064.47 585.962L1042.22 590.018C1039.44 590.525 1037.64 593.231 1038.23 595.992L1042.95 617.853C1043.72 621.396 1040.57 624.551 1037.03 623.799L1014.82 619.093C1012.07 618.51 1009.38 620.308 1008.87 623.071L1004.77 645.141C1004.11 648.693 1000.02 650.395 997.034 648.357L978.3 635.565C975.987 633.986 972.828 634.614 971.295 636.959L958.941 655.86C956.968 658.879 952.544 658.879 950.571 655.86L938.217 636.959C936.685 634.614 933.525 633.986 931.212 635.565L912.478 648.357C909.495 650.395 905.402 648.693 904.742 645.141L900.644 623.071C900.13 620.308 897.441 618.51 894.691 619.093L872.484 623.799C868.938 624.551 865.795 621.396 866.56 617.853L871.28 595.992C871.876 593.231 870.068 590.525 867.289 590.018L845.04 585.962C841.461 585.309 839.754 581.175 841.832 578.188L854.611 559.816C856.23 557.489 855.592 554.284 853.207 552.753L834.283 540.612Z" fill="#75A9B5"/>
<g filter="url(#filter0_dddddd_3436_55)">
<path d="M907.987 520.142L908.644 539.68L897.872 523.593L892.718 525.335L893.92 544.688L882.592 528.756L877.439 530.497L893.304 552.462L899.125 550.496L898.327 533.438L908.038 547.484L913.859 545.518L913.141 518.401L907.987 520.142ZM919.392 516.322L914.36 518.023L922.646 542.549L927.679 540.848L919.392 516.322ZM939.243 509.615L944.836 526.168L927.207 513.682L922.205 515.372L930.492 539.898L935.494 538.208L930.012 521.482L947.53 534.141L952.562 532.441L944.275 507.915L939.243 509.615ZM945.921 507.359L947.581 512.27L956.13 509.382L962.757 528.996L968.184 527.163L961.557 507.548L970.106 504.659L968.446 499.748L945.921 507.359ZM970.107 499.187L978.394 523.713L995.917 517.792L994.268 512.912L982.05 517.039L980.206 511.583L990.403 508.171L988.754 503.29L978.547 506.671L977.072 502.306L989.29 498.178L987.63 493.267L970.107 499.187ZM1010.79 502.331C1013.3 500.267 1014.12 496.61 1013.07 493.488C1011.7 489.425 1007.12 486.681 1001.78 488.484L990.447 492.315L998.733 516.841L1004.16 515.007L1001.18 506.185C1001.18 506.185 1001.79 505.98 1005.67 504.669L1013.5 511.853L1019.74 509.742L1010.79 502.331ZM999.571 501.426L997.481 495.241L1003.82 493.1C1005.7 492.465 1007.66 493.186 1008.31 495.096C1008.94 496.975 1007.79 498.65 1005.91 499.285L999.571 501.426ZM931.663 561.719C935.206 559.509 937.51 556.231 935.973 551.683C934.355 546.893 931.138 544.569 924.983 546.648C919.345 548.553 917.581 552.73 919.148 557.368L919.301 557.823L924.667 556.01L924.514 555.555C923.879 553.675 924.752 551.861 927.086 551.072C928.632 550.549 930.325 551.362 930.848 552.908C931.432 554.636 931.651 556.386 928.956 558.006C925.312 560.217 922.089 563.974 923.923 569.401C924.865 572.19 924.476 571.038 925.602 574.272L942.094 568.699L940.445 563.818L928.743 567.772C927.811 565.013 928.877 563.471 931.663 561.719ZM945.587 539.619C939.22 541.77 936.696 548.095 939.349 555.947C942.125 564.163 948.168 567.154 954.201 565.115C960.355 563.036 963.204 556.973 960.449 548.818C957.776 540.905 952.105 537.417 945.587 539.619ZM952.408 559.81C949.195 560.896 946.341 558.448 944.866 554.083C943.197 549.141 943.771 546.144 947.379 544.925C950.684 543.808 953.426 546.226 954.931 550.682C956.427 555.108 955.44 558.786 952.408 559.81ZM972.697 547.855C976.239 545.645 978.543 542.367 977.007 537.819C975.389 533.029 972.171 530.705 966.017 532.784C960.378 534.689 958.614 538.866 960.181 543.504L960.335 543.959L965.701 542.146L965.547 541.691C964.912 539.811 965.785 537.996 968.12 537.208C969.666 536.685 971.359 537.498 971.881 539.044C972.465 540.772 972.685 542.522 969.99 544.142C966.346 546.353 963.123 550.11 964.956 555.537C965.899 558.326 965.509 557.174 966.636 560.407L983.128 554.835L981.479 549.954L969.777 553.908C968.844 551.149 969.911 549.607 972.697 547.855ZM993.163 535.839C994.283 535.056 994.993 532.857 994.255 530.674C993.046 527.097 989.344 524.835 984.645 526.423C979.946 528.01 978.393 532.014 979.612 535.622C979.674 535.803 979.735 535.985 979.827 536.157L984.465 534.59C983.841 532.74 984.675 531.31 986.13 530.819C987.646 530.306 989.126 530.989 989.74 532.807C990.079 533.808 990.177 535.7 987.237 536.693L988.261 539.725C991.232 538.721 993.238 539.361 994.191 542.18C995.102 544.878 993.866 546.816 991.804 547.513C989.743 548.209 987.574 547.388 986.672 544.72L981.761 546.38C983.42 551.291 987.62 553.824 993.259 551.919C998.837 550.034 1000.82 545.715 999.072 540.531C997.986 537.317 995.379 535.901 993.163 535.839Z" fill="white"/>
</g>
<defs>
<filter id="filter0_dddddd_3436_55" x="344.448" y="-47.7935" width="1218.35" height="1165.62" filterUnits="userSpaceOnUse" color-interpolation-filters="sRGB">
<feFlood flood-opacity="0" result="BackgroundImageFix"/>
<feColorMatrix in="SourceAlpha" type="matrix" values="0 0 0 0 0 0 0 0 0 0 0 0 0 0 0 0 0 0 127 0" result="hardAlpha"/>
<feOffset/>
<feGaussianBlur stdDeviation="6.345"/>
<feColorMatrix type="matrix" values="0 0 0 0 1 0 0 0 0 1 0 0 0 0 1 0 0 0 1 0"/>
<feBlend mode="normal" in2="BackgroundImageFix" result="effect1_dropShadow_3436_55"/>
<feColorMatrix in="SourceAlpha" type="matrix" values="0 0 0 0 0 0 0 0 0 0 0 0 0 0 0 0 0 0 127 0" result="hardAlpha"/>
<feOffset/>
<feGaussianBlur stdDeviation="12.69"/>
<feColorMatrix type="matrix" values="0 0 0 0 1 0 0 0 0 1 0 0 0 0 1 0 0 0 1 0"/>
<feBlend mode="normal" in2="effect1_dropShadow_3436_55" result="effect2_dropShadow_3436_55"/>
<feColorMatrix in="SourceAlpha" type="matrix" values="0 0 0 0 0 0 0 0 0 0 0 0 0 0 0 0 0 0 127 0" result="hardAlpha"/>
<feOffset/>
<feGaussianBlur stdDeviation="44.415"/>
<feColorMatrix type="matrix" values="0 0 0 0 1 0 0 0 0 1 0 0 0 0 1 0 0 0 1 0"/>
<feBlend mode="normal" in2="effect2_dropShadow_3436_55" result="effect3_dropShadow_3436_55"/>
<feColorMatrix in="SourceAlpha" type="matrix" values="0 0 0 0 0 0 0 0 0 0 0 0 0 0 0 0 0 0 127 0" result="hardAlpha"/>
<feOffset/>
<feGaussianBlur stdDeviation="88.83"/>
<feColorMatrix type="matrix" values="0 0 0 0 1 0 0 0 0 1 0 0 0 0 1 0 0 0 1 0"/>
<feBlend mode="normal" in2="effect3_dropShadow_3436_55" result="effect4_dropShadow_3436_55"/>
<feColorMatrix in="SourceAlpha" type="matrix" values="0 0 0 0 0 0 0 0 0 0 0 0 0 0 0 0 0 0 127 0" result="hardAlpha"/>
<feOffset/>
<feGaussianBlur stdDeviation="152.28"/>
<feColorMatrix type="matrix" values="0 0 0 0 1 0 0 0 0 1 0 0 0 0 1 0 0 0 1 0"/>
<feBlend mode="normal" in2="effect4_dropShadow_3436_55" result="effect5_dropShadow_3436_55"/>
<feColorMatrix in="SourceAlpha" type="matrix" values="0 0 0 0 0 0 0 0 0 0 0 0 0 0 0 0 0 0 127 0" result="hardAlpha"/>
<feOffset/>
<feGaussianBlur stdDeviation="266.49"/>
<feColorMatrix type="matrix" values="0 0 0 0 1 0 0 0 0 1 0 0 0 0 1 0 0 0 1 0"/>
<feBlend mode="normal" in2="effect5_dropShadow_3436_55" result="effect6_dropShadow_3436_55"/>
<feBlend mode="normal" in="SourceGraphic" in2="effect6_dropShadow_3436_55" result="shape"/>
</filter>
</defs>
</svg>
