<svg width="780" height="304" viewBox="0 0 780 304" fill="none" xmlns="http://www.w3.org/2000/svg">
<path d="M56 8.5C68.9336 -0.166667 80.4301 -0.166667 93.3636 8.5C106.297 17.1667 117.794 17.1667 130.727 8.5C143.661 -0.166667 155.157 -0.166667 168.091 8.5C181.024 17.1667 192.521 17.1667 205.455 8.5C218.388 -0.166667 229.885 -0.166667 242.818 8.5C255.752 17.1667 267.248 17.1667 280.182 8.5C293.115 -0.166667 304.612 -0.166667 317.545 8.5C330.479 17.1667 341.976 17.1667 354.909 8.5C367.843 -0.166667 379.339 -0.166667 392.273 8.5C405.206 17.1667 416.703 17.1667 429.636 8.5C442.57 -0.166667 454.066 -0.166667 467 8.5" stroke="#DB3A2C" stroke-width="3" stroke-linecap="round" stroke-linejoin="round"/>
<path d="M278.061 255.061C278.646 254.475 278.646 253.525 278.061 252.939L268.515 243.393C267.929 242.808 266.979 242.808 266.393 243.393C265.808 243.979 265.808 244.929 266.393 245.515L274.879 254L266.393 262.485C265.808 263.071 265.808 264.021 266.393 264.607C266.979 265.192 267.929 265.192 268.515 264.607L278.061 255.061ZM59 255.5L277 255.5L277 252.5L59 252.5L59 255.5Z" fill="#DB3A2C"/>
<path d="M490.939 252.939C490.354 253.525 490.354 254.475 490.939 255.061L500.485 264.607C501.071 265.192 502.021 265.192 502.607 264.607C503.192 264.021 503.192 263.071 502.607 262.485L494.121 254L502.607 245.515C503.192 244.929 503.192 243.979 502.607 243.393C502.021 242.808 501.071 242.808 500.485 243.393L490.939 252.939ZM492 255.5H707V252.5H492V255.5Z" fill="#DB3A2C"/>
<path d="M468.5 205L470.913 218.5L478 220L470.913 221.5L468.5 235L466.087 221.5L459 220L466.087 218.5L468.5 205Z" fill="#DB3A2C"/>
<path d="M475.192 227.224C476.051 230.428 474.426 234.269 470.427 238.539C466.449 242.786 460.232 247.336 452.222 251.912C436.21 261.059 413.137 270.251 386.802 277.308C360.467 284.364 335.89 287.94 317.449 288.024C308.224 288.066 300.565 287.235 294.997 285.545C289.398 283.847 286.071 281.333 285.212 278.129C284.354 274.926 285.979 271.085 289.978 266.814C293.955 262.567 300.173 258.017 308.182 253.442C324.195 244.294 347.267 235.102 373.602 228.046C399.937 220.989 424.515 217.414 442.956 217.329C452.18 217.287 459.84 218.119 465.408 219.808C471.006 221.507 474.334 224.021 475.192 227.224Z" stroke="#DB3A2C"/>
<circle cx="288.5" cy="281.5" r="5.5" fill="#DB3A2C"/>
<path d="M44.5 48L52.5 93L76 98L52.5 103L44.5 148L36.5 103L13 98L36.5 93L44.5 48Z" fill="#75A9B5"/>
<path d="M761.5 197L766.198 224L780 227L766.198 230L761.5 257L756.802 230L743 227L756.802 224L761.5 197Z" fill="#75A9B5"/>
<path d="M14 53L17.5556 73.25L28 75.5L17.5556 77.75L14 98L10.4444 77.75L0 75.5L10.4444 73.25L14 53Z" fill="#75A9B5"/>
</svg>
