<svg width="51" height="53" viewBox="0 0 51 53" fill="none" xmlns="http://www.w3.org/2000/svg">
<path d="M23.3071 1.34883C24.4931 0.0785238 26.5069 0.0785252 27.6929 1.34883L30.9951 4.88597C31.7002 5.64122 32.7444 5.98048 33.7587 5.78392L38.5094 4.86334C40.2155 4.53273 41.8448 5.71642 42.0576 7.44122L42.6501 12.2439C42.7766 13.2693 43.4219 14.1575 44.3581 14.5947L48.7425 16.6423C50.3172 17.3777 50.9395 19.2929 50.0978 20.8134L47.7543 25.0471C47.2539 25.9511 47.2539 27.0489 47.7543 27.9529L50.0978 32.1866C50.9395 33.7071 50.3172 35.6223 48.7425 36.3577L44.3581 38.4053C43.4219 38.8425 42.7766 39.7307 42.6501 40.7561L42.0576 45.5588C41.8448 47.2836 40.2155 48.4673 38.5094 48.1367L33.7587 47.2161C32.7444 47.0195 31.7002 47.3588 30.9951 48.114L27.6929 51.6512C26.5069 52.9215 24.4931 52.9215 23.3071 51.6512L20.0049 48.114C19.2998 47.3588 18.2556 47.0195 17.2413 47.2161L12.4906 48.1367C10.7845 48.4673 9.15524 47.2836 8.94244 45.5588L8.34992 40.7561C8.22341 39.7307 7.5781 38.8425 6.64193 38.4053L2.25745 36.3577C0.682836 35.6223 0.0605307 33.7071 0.902184 32.1866L3.24574 27.9529C3.74614 27.0489 3.74614 25.9511 3.24574 25.0471L0.902184 20.8134C0.0605307 19.2929 0.682836 17.3777 2.25745 16.6423L6.64193 14.5947C7.57811 14.1575 8.22341 13.2693 8.34992 12.2439L8.94244 7.44122C9.15524 5.71642 10.7845 4.53273 12.4906 4.86334L17.2413 5.78392C18.2556 5.98048 19.2998 5.64122 20.0049 4.88597L23.3071 1.34883Z" fill="#6E8436"/>
</svg>
