<svg width="138" height="57" viewBox="0 0 138 57" fill="none" xmlns="http://www.w3.org/2000/svg">
<path d="M57.7578 28.2031C57.7578 31.1979 57.3802 33.9714 56.625 36.5234C55.8958 39.0495 54.8802 41.3411 53.5781 43.3984C52.276 45.4557 50.7266 47.2786 48.9297 48.8672C47.1328 50.4297 45.1797 51.7448 43.0703 52.8125C40.987 53.8802 38.7734 54.6875 36.4297 55.2344C34.112 55.7812 31.7552 56.0547 29.3594 56.0547C26.9635 56.0547 24.5937 55.7812 22.25 55.2344C19.9323 54.6875 17.7187 53.8802 15.6094 52.8125C13.5 51.7448 11.5469 50.4297 9.75 48.8672C7.95312 47.2786 6.39062 45.4557 5.0625 43.3984C3.76042 41.3411 2.73177 39.0495 1.97656 36.5234C1.2474 33.9714 0.882812 31.1979 0.882812 28.2031C0.882812 25.2083 1.2474 22.4479 1.97656 19.9219C2.73177 17.3698 3.76042 15.0651 5.0625 13.0078C6.39062 10.9505 7.95312 9.14063 9.75 7.57813C11.5469 5.98958 13.5 4.66146 15.6094 3.59375C17.7187 2.52604 19.9323 1.71875 22.25 1.17188C24.5938 0.625 26.9635 0.351563 29.3594 0.351563C31.7552 0.351563 34.112 0.625 36.4297 1.17188C38.7734 1.71875 40.987 2.52604 43.0703 3.59375C45.1797 4.66146 47.1328 5.98958 48.9297 7.57813C50.7266 9.14063 52.276 10.9505 53.5781 13.0078C54.8802 15.0651 55.8958 17.3698 56.625 19.9219C57.3802 22.4479 57.7578 25.2083 57.7578 28.2031ZM52.875 28.2031C52.875 25.5469 52.5495 23.112 51.8984 20.8984C51.2734 18.6849 50.401 16.7057 49.2812 14.9609C48.1875 13.2161 46.8854 11.6927 45.375 10.3906C43.8646 9.08854 42.237 8.02083 40.4922 7.1875C38.7734 6.32813 36.9635 5.6901 35.0625 5.27344C33.1615 4.83073 31.2604 4.60938 29.3594 4.60938C26.4948 4.60938 23.6562 5.09115 20.8437 6.05469C18.0312 6.99219 15.5052 8.4375 13.2656 10.3906C11.026 12.3438 9.21615 14.8047 7.83594 17.7734C6.45573 20.7161 5.76562 24.1927 5.76562 28.2031C5.76562 32.2135 6.45573 35.7031 7.83594 38.6719C9.21615 41.6146 11.026 44.0625 13.2656 46.0156C15.5052 47.9688 18.0312 49.4271 20.8437 50.3906C23.6562 51.3281 26.4948 51.7969 29.3594 51.7969C31.2604 51.7969 33.1615 51.5885 35.0625 51.1719C36.9635 50.7292 38.7865 50.0781 40.5312 49.2188C42.276 48.3594 43.9036 47.2786 45.4141 45.9766C46.9245 44.6745 48.2266 43.151 49.3203 41.4063C50.4401 39.6354 51.3125 37.6563 51.9375 35.4688C52.5625 33.2813 52.875 30.8594 52.875 28.2031ZM105.664 55H99.9219L131.133 5.78125L86.6406 5.78125V1.32813L137.852 1.32813V4.02344L105.664 55Z" fill="#FFE6DE"/>
<path d="M56.625 36.5234L55.6661 36.2397L55.6642 36.2461L56.625 36.5234ZM48.9297 48.8672L49.5859 49.6218L49.592 49.6164L48.9297 48.8672ZM43.0703 52.8125L42.6187 51.9203L42.6142 51.9226L43.0703 52.8125ZM36.4297 55.2344L36.2025 54.2605L36.2 54.2611L36.4297 55.2344ZM22.25 55.2344L22.0204 56.2076L22.0228 56.2082L22.25 55.2344ZM9.75 48.8672L9.08764 49.6164L9.09382 49.6218L9.75 48.8672ZM5.0625 43.3984L4.21749 43.9333L4.22236 43.9408L5.0625 43.3984ZM1.97656 36.5234L1.01497 36.7982L1.01846 36.8099L1.97656 36.5234ZM1.97656 19.9219L1.01764 19.6381L1.01579 19.6445L1.97656 19.9219ZM5.0625 13.0078L4.22233 12.4654L4.21752 12.473L5.0625 13.0078ZM9.75 7.57813L10.4062 8.33276L10.4123 8.32733L9.75 7.57813ZM22.25 1.17188L22.0228 0.19803L22.0204 0.198602L22.25 1.17188ZM36.4297 1.17188L36.2 2.14515L36.2025 2.14572L36.4297 1.17188ZM43.0703 3.59375L42.6142 4.48369L42.6187 4.48596L43.0703 3.59375ZM48.9297 7.57813L48.2673 8.32735L48.2735 8.33273L48.9297 7.57813ZM53.5781 13.0078L52.7331 13.5426L53.5781 13.0078ZM56.625 19.9219L55.6634 20.1966L55.6669 20.2083L56.625 19.9219ZM51.8984 20.8984L50.936 21.1702L50.9391 21.1806L51.8984 20.8984ZM49.2812 14.9609L48.4339 15.4921L48.4397 15.5011L49.2812 14.9609ZM40.4922 7.1875L40.045 8.08193L40.0531 8.08597L40.0612 8.08986L40.4922 7.1875ZM35.0625 5.27344L34.8357 6.24746L34.8484 6.25025L35.0625 5.27344ZM20.8437 6.05469L21.16 7.0034L21.1679 7.00071L20.8437 6.05469ZM7.83594 17.7734L8.74131 18.1981L8.74273 18.195L7.83594 17.7734ZM7.83594 38.6719L6.92914 39.0935L6.93057 39.0965L7.83594 38.6719ZM20.8437 50.3906L20.5196 51.3367L20.5275 51.3393L20.8437 50.3906ZM35.0625 51.1719L35.2766 52.1488L35.2893 52.1458L35.0625 51.1719ZM45.4141 45.9766L44.7611 45.2192L45.4141 45.9766ZM49.3203 41.4063L48.4751 40.8718L48.473 40.8751L49.3203 41.4063ZM56.7578 28.2031C56.7578 31.1137 56.3909 33.7904 55.6661 36.2397L57.5839 36.8072C58.3695 34.1523 58.7578 31.2821 58.7578 28.2031H56.7578ZM55.6642 36.2461C54.9592 38.6885 53.9808 40.8924 52.7331 42.8636L54.4231 43.9332C55.7796 41.7899 56.8325 39.4105 57.5858 36.8008L55.6642 36.2461ZM52.7331 42.8636C51.4807 44.8424 49.9925 46.5929 48.2673 48.118L49.592 49.6164C51.4607 47.9644 53.0713 46.069 54.4231 43.9332L52.7331 42.8636ZM48.2735 48.1126C46.5384 49.6213 44.6539 50.8901 42.6187 51.9203L43.5219 53.7047C45.7054 52.5995 47.7272 51.238 49.5859 49.6218L48.2735 48.1126ZM42.6142 51.9226C40.6055 52.952 38.469 53.7317 36.2025 54.2605L36.6569 56.2082C39.0779 55.6433 41.3685 54.8084 43.5264 53.7024L42.6142 51.9226ZM36.2 54.2611C33.958 54.7901 31.6784 55.0547 29.3594 55.0547V57.0547C31.8321 57.0547 34.2659 56.7724 36.6593 56.2076L36.2 54.2611ZM29.3594 55.0547C27.0404 55.0547 24.7468 54.7901 22.4772 54.2605L22.0228 56.2082C24.4407 56.7724 26.8867 57.0547 29.3594 57.0547V55.0547ZM22.4796 54.2611C20.2383 53.7322 18.0993 52.952 16.061 51.9203L15.1578 53.7047C17.3382 54.8084 19.6263 55.6428 22.0204 56.2076L22.4796 54.2611ZM16.061 51.9203C14.0257 50.8901 12.1413 49.6213 10.4062 48.1126L9.09382 49.6218C10.9525 51.238 12.9743 52.5995 15.1578 53.7047L16.061 51.9203ZM10.4123 48.118C8.68534 46.5912 7.18227 44.8382 5.90264 42.8561L4.22236 43.9408C5.59898 46.0732 7.22091 47.9661 9.08766 49.6164L10.4123 48.118ZM5.90748 42.8636C4.65814 40.8897 3.66584 38.6827 2.93466 36.237L1.01846 36.8099C1.7977 39.4163 2.86269 41.7926 4.21752 43.9332L5.90748 42.8636ZM2.93809 36.2487C2.23747 33.7966 1.88281 31.1167 1.88281 28.2031H-0.117188C-0.117188 31.2791 0.257317 34.1461 1.01504 36.7982L2.93809 36.2487ZM1.88281 28.2031C1.88281 25.2894 2.23751 22.6236 2.93734 20.1992L1.01579 19.6445C0.257279 22.2722 -0.117188 25.1273 -0.117188 28.2031H1.88281ZM2.93546 20.2056C3.66689 17.7339 4.65914 15.515 5.90748 13.5426L4.21752 12.473C2.8617 14.6152 1.79666 17.0057 1.01767 19.6381L2.93546 20.2056ZM5.90264 13.5502C7.18119 11.5697 8.6823 9.83175 10.4062 8.33273L9.09382 6.82352C7.22395 8.4495 5.60006 10.3314 4.22236 12.4654L5.90264 13.5502ZM10.4123 8.32733C12.1463 6.79442 14.0288 5.51462 16.061 4.48596L15.1578 2.70154C12.9712 3.8083 10.9475 5.18475 9.08766 6.82892L10.4123 8.32733ZM16.061 4.48596C18.0993 3.45421 20.2383 2.674 22.4796 2.14515L22.0204 0.198602C19.6263 0.763496 17.3382 1.59787 15.1578 2.70154L16.061 4.48596ZM22.4772 2.14572C24.7468 1.61614 27.0404 1.35156 29.3594 1.35156V-0.648437C26.8867 -0.648437 24.4407 -0.366143 22.0228 0.198033L22.4772 2.14572ZM29.3594 1.35156C31.6784 1.35156 33.958 1.61614 36.2 2.14515L36.6593 0.198602C34.2659 -0.366139 31.8321 -0.648437 29.3594 -0.648437V1.35156ZM36.2025 2.14572C38.469 2.67458 40.6055 3.45421 42.6142 4.48368L43.5264 2.70382C41.3685 1.59788 39.0779 0.762918 36.6569 0.198033L36.2025 2.14572ZM42.6187 4.48596C44.6509 5.51462 46.5334 6.79442 48.2673 8.32733L49.592 6.82892C47.7322 5.18475 45.7085 3.8083 43.5219 2.70154L42.6187 4.48596ZM48.2735 8.33273C49.9955 9.83009 51.4818 11.5655 52.7331 13.5426L54.4231 12.473C53.0703 10.3355 51.4577 8.45116 49.5859 6.82352L48.2735 8.33273ZM52.7331 13.5426C53.9798 15.5123 54.9582 17.7281 55.6635 20.1966L57.5865 19.6472C56.8335 17.0115 55.7806 14.6179 54.4231 12.473L52.7331 13.5426ZM55.6669 20.2083C56.3908 22.6298 56.7578 25.2924 56.7578 28.2031H58.7578C58.7578 25.1243 58.3696 22.2661 57.5831 19.6354L55.6669 20.2083ZM53.875 28.2031C53.875 25.4655 53.5395 22.9341 52.8578 20.6163L50.9391 21.1806C51.5595 23.2899 51.875 25.6283 51.875 28.2031H53.875ZM52.8608 20.6267C52.2119 18.3285 51.3014 16.2572 50.1228 14.4208L48.4397 15.5011C49.5007 17.1543 50.335 19.0413 50.9361 21.1702L52.8608 20.6267ZM50.1285 14.4298C48.9834 12.6031 47.6165 11.0027 46.0279 9.63321L44.7221 11.148C46.1543 12.3827 47.3916 13.8292 48.434 15.4921L50.1285 14.4298ZM46.0279 9.63321C44.4524 8.27501 42.7505 7.15791 40.9232 6.28514L40.0612 8.08986C41.7234 8.88375 43.2768 9.90208 44.7221 11.148L46.0279 9.63321ZM40.9394 6.29307C39.1457 5.39622 37.2574 4.73078 35.2766 4.29663L34.8484 6.25025C36.6697 6.64943 38.4012 7.26003 40.045 8.08193L40.9394 6.29307ZM35.2893 4.2995C33.3159 3.83994 31.3388 3.60938 29.3594 3.60938V5.60938C31.182 5.60938 33.007 5.82152 34.8357 6.24738L35.2893 4.2995ZM29.3594 3.60938C26.3804 3.60938 23.4325 4.11075 20.5196 5.10866L21.1679 7.00071C23.88 6.07154 26.6092 5.60938 29.3594 5.60938V3.60938ZM20.5275 5.106C17.5893 6.08542 14.9474 7.59713 12.6084 9.63696L13.9229 11.1443C16.063 9.27787 18.4732 7.89895 21.16 7.00337L20.5275 5.106ZM12.6084 9.63696C10.253 11.6911 8.36232 14.2692 6.92915 17.3519L8.74273 18.195C10.07 15.3402 11.7991 12.9964 13.9229 11.1443L12.6084 9.63696ZM6.93057 17.3488C5.47522 20.4517 4.76562 24.0795 4.76562 28.2031H6.76562C6.76562 24.306 7.43624 20.9806 8.7413 18.1981L6.93057 17.3488ZM4.76562 28.2031C4.76562 32.3271 5.47532 35.9664 6.92915 39.0935L8.74273 38.2503C7.43613 35.4399 6.76562 32.1 6.76562 28.2031H4.76562ZM6.93057 39.0965C8.36416 42.153 10.2547 44.7166 12.6084 46.7693L13.9229 45.262C11.7974 43.4084 10.0681 41.0761 8.7413 38.2472L6.93057 39.0965ZM12.6084 46.7693C14.9455 48.8075 17.5847 50.3312 20.5196 51.3366L21.1679 49.4446C18.4778 48.523 16.0649 47.13 13.9229 45.262L12.6084 46.7693ZM20.5275 51.3393C23.4384 52.3096 26.3836 52.7969 29.3594 52.7969V50.7969C26.606 50.7969 23.8741 50.3467 21.16 49.4419L20.5275 51.3393ZM29.3594 52.7969C31.3341 52.7969 33.3069 52.5804 35.2766 52.1487L34.8484 50.1951C33.016 50.5967 31.1867 50.7969 29.3594 50.7969V52.7969ZM35.2893 52.1458C37.2645 51.6858 39.1595 51.0091 40.9731 50.1158L40.0894 48.3217C38.4134 49.1472 36.6626 49.7725 34.8357 50.1979L35.2893 52.1458ZM40.9731 50.1158C42.7958 49.2181 44.4941 48.09 46.067 46.734L44.7611 45.2192C43.3132 46.4673 41.7563 47.5007 40.0894 48.3217L40.9731 50.1158ZM46.067 46.734C47.6556 45.3645 49.0225 43.7641 50.1676 41.9374L48.473 40.8751C47.4306 42.538 46.1934 43.9845 44.7611 45.2192L46.067 46.734ZM50.1655 41.9407C51.3404 40.0827 52.2501 38.0148 52.899 35.7435L50.976 35.194C50.3749 37.2977 49.5398 39.1881 48.4751 40.8718L50.1655 41.9407ZM52.899 35.7435C53.5534 33.4532 53.875 30.9372 53.875 28.2031H51.875C51.875 30.7816 51.5716 33.1093 50.976 35.194L52.899 35.7435ZM105.664 55V56H106.215L106.51 55.5339L105.664 55ZM99.9219 55L99.0774 54.4645L98.1036 56H99.9219V55ZM131.133 5.78125L131.977 6.31678L132.951 4.78125H131.133V5.78125ZM86.6406 5.78125H85.6406V6.78125H86.6406V5.78125ZM86.6406 1.32813V0.328125H85.6406V1.32813H86.6406ZM137.852 1.32813H138.852V0.328125H137.852V1.32813ZM137.852 4.02344L138.697 4.55733L138.852 4.31273V4.02344H137.852ZM105.664 54H99.9219V56H105.664V54ZM100.766 55.5355L131.977 6.31678L130.288 5.24572L99.0774 54.4645L100.766 55.5355ZM131.133 4.78125L86.6406 4.78125V6.78125L131.133 6.78125V4.78125ZM87.6406 5.78125V1.32813H85.6406V5.78125H87.6406ZM86.6406 2.32813L137.852 2.32813V0.328125L86.6406 0.328125V2.32813ZM136.852 1.32813V4.02344H138.852V1.32813H136.852ZM137.006 3.48954L104.819 54.4661L106.51 55.5339L138.697 4.55733L137.006 3.48954Z" fill="#FFE2DE"/>
</svg>
