<svg width="146" height="57" viewBox="0 0 146 57" fill="none" xmlns="http://www.w3.org/2000/svg">
<path d="M57.3945 28.2031C57.3945 31.1979 57.0169 33.9714 56.2617 36.5234C55.5326 39.0495 54.5169 41.3411 53.2148 43.3984C51.9128 45.4557 50.3633 47.2786 48.5664 48.8672C46.7695 50.4297 44.8164 51.7448 42.707 52.8125C40.6237 53.8802 38.4102 54.6875 36.0664 55.2344C33.7487 55.7812 31.3919 56.0547 28.9961 56.0547C26.6003 56.0547 24.2305 55.7812 21.8867 55.2344C19.569 54.6875 17.3555 53.8802 15.2461 52.8125C13.1367 51.7448 11.1836 50.4297 9.38672 48.8672C7.58984 47.2786 6.02734 45.4557 4.69922 43.3984C3.39714 41.3411 2.36849 39.0495 1.61328 36.5234C0.884115 33.9714 0.519531 31.1979 0.519531 28.2031C0.519531 25.2083 0.884115 22.4479 1.61328 19.9219C2.36849 17.3698 3.39714 15.0651 4.69922 13.0078C6.02734 10.9505 7.58984 9.14063 9.38672 7.57813C11.1836 5.98958 13.1367 4.66146 15.2461 3.59375C17.3555 2.52604 19.569 1.71875 21.8867 1.17188C24.2305 0.625 26.6003 0.351563 28.9961 0.351563C31.3919 0.351563 33.7487 0.625 36.0664 1.17188C38.4102 1.71875 40.6237 2.52604 42.707 3.59375C44.8164 4.66146 46.7695 5.98958 48.5664 7.57813C50.3633 9.14063 51.9128 10.9505 53.2148 13.0078C54.5169 15.0651 55.5326 17.3698 56.2617 19.9219C57.0169 22.4479 57.3945 25.2083 57.3945 28.2031ZM52.5117 28.2031C52.5117 25.5469 52.1862 23.112 51.5352 20.8984C50.9102 18.6849 50.0378 16.7057 48.918 14.9609C47.8242 13.2161 46.5221 11.6927 45.0117 10.3906C43.5013 9.08854 41.8737 8.02083 40.1289 7.1875C38.4102 6.32813 36.6003 5.6901 34.6992 5.27344C32.7982 4.83073 30.8971 4.60938 28.9961 4.60938C26.1315 4.60938 23.293 5.09115 20.4805 6.05469C17.668 6.99219 15.1419 8.4375 12.9023 10.3906C10.6628 12.3438 8.85286 14.8047 7.47266 17.7734C6.09245 20.7161 5.40234 24.1927 5.40234 28.2031C5.40234 32.2135 6.09245 35.7031 7.47266 38.6719C8.85286 41.6146 10.6628 44.0625 12.9023 46.0156C15.1419 47.9688 17.668 49.4271 20.4805 50.3906C23.293 51.3281 26.1315 51.7969 28.9961 51.7969C30.8971 51.7969 32.7982 51.5885 34.6992 51.1719C36.6003 50.7292 38.4232 50.0781 40.168 49.2188C41.9128 48.3594 43.5404 47.2786 45.0508 45.9766C46.5612 44.6745 47.8633 43.151 48.957 41.4063C50.0768 39.6354 50.9492 37.6563 51.5742 35.4688C52.1992 33.2813 52.5117 30.8594 52.5117 28.2031ZM127.176 25.625C130.223 26.5365 132.879 27.5 135.145 28.5156C137.436 29.5313 139.35 30.651 140.887 31.875C142.423 33.099 143.569 34.4531 144.324 35.9375C145.105 37.3958 145.496 39.0365 145.496 40.8594C145.496 43.2292 144.819 45.3516 143.465 47.2266C142.111 49.1016 140.223 50.7031 137.801 52.0313C135.379 53.3333 132.475 54.3229 129.09 55C125.73 55.7031 122.046 56.0547 118.035 56.0547C114.025 56.0547 110.34 55.7422 106.98 55.1172C103.621 54.4922 100.73 53.5677 98.3086 52.3438C95.8867 51.0938 93.9987 49.5703 92.6445 47.7734C91.2904 45.9505 90.6133 43.8542 90.6133 41.4844C90.6133 39.6615 91.0039 37.9818 91.7852 36.4453C92.957 34.1536 94.9622 32.1615 97.8008 30.4688C100.665 28.776 104.402 27.2526 109.012 25.8984C107.241 25.2995 105.574 24.6745 104.012 24.0234C102.449 23.3724 101.043 22.6302 99.793 21.7969C98.543 20.9896 97.5013 20.0521 96.668 18.9844C96.069 18.2292 95.6003 17.3958 95.2617 16.4844C94.9232 15.5469 94.7539 14.5182 94.7539 13.3984C94.7539 11.3672 95.3138 9.55729 96.4336 7.96875C97.5534 6.35417 99.1289 4.98698 101.16 3.86719C103.191 2.72135 105.639 1.84896 108.504 1.25C111.368 0.651042 114.546 0.351563 118.035 0.351563C123.79 0.351563 128.491 1.05469 132.137 2.46094C135.809 3.86719 138.387 5.75521 139.871 8.125C140.366 8.93229 140.743 9.77865 141.004 10.6641C141.264 11.5234 141.395 12.4349 141.395 13.3984C141.395 16.0026 140.184 18.2682 137.762 20.1953C135.366 22.1224 131.837 23.9323 127.176 25.625ZM136.59 13.4766C136.59 12.3047 136.264 11.1849 135.613 10.1172C134.988 9.04948 133.947 8.09896 132.488 7.26563C131.056 6.43229 129.168 5.76823 126.824 5.27344C124.507 4.77865 121.655 4.53125 118.27 4.53125C114.884 4.53125 111.993 4.77865 109.598 5.27344C107.228 5.76823 105.288 6.43229 103.777 7.26563C102.267 8.09896 101.173 9.04948 100.496 10.1172C99.819 11.1849 99.5065 12.3047 99.5586 13.4766C99.6107 15.8464 101.199 17.9167 104.324 19.6875C107.449 21.4323 112.124 22.8255 118.348 23.8672C121.238 23.2943 123.816 22.6563 126.082 21.9531C128.348 21.224 130.262 20.4297 131.824 19.5703C133.387 18.7109 134.572 17.7734 135.379 16.7578C136.186 15.7422 136.59 14.6484 136.59 13.4766ZM117.957 27.8125C114.702 28.3594 111.694 29.0495 108.934 29.8828C106.199 30.7161 103.842 31.6927 101.863 32.8125C99.8841 33.9323 98.3346 35.1823 97.2148 36.5625C96.1211 37.9427 95.5742 39.4271 95.5742 41.0156C95.5742 42.474 96.056 43.8672 97.0195 45.1953C97.9831 46.4974 99.4154 47.6432 101.316 48.6328C103.217 49.6224 105.561 50.4167 108.348 51.0156C111.134 51.5885 114.363 51.875 118.035 51.875C121.707 51.875 124.936 51.5885 127.723 51.0156C130.535 50.4427 132.879 49.6615 134.754 48.6719C136.655 47.6823 138.087 46.5365 139.051 45.2344C140.04 43.9063 140.535 42.5 140.535 41.0156C140.535 39.4271 139.962 37.9427 138.816 36.5625C137.697 35.1823 136.134 33.9323 134.129 32.8125C132.124 31.6927 129.741 30.7161 126.98 29.8828C124.22 29.0495 121.212 28.3594 117.957 27.8125Z" fill="#FFE6DE"/>
</svg>
