<svg width="143" height="57" viewBox="0 0 143 57" fill="none" xmlns="http://www.w3.org/2000/svg">
<path d="M57.0322 28.2031C57.0322 31.1979 56.6546 33.9714 55.8994 36.5234C55.1702 39.0495 54.1546 41.3411 52.8525 43.3984C51.5505 45.4557 50.001 47.2786 48.2041 48.8672C46.4072 50.4297 44.4541 51.7448 42.3447 52.8125C40.2614 53.8802 38.0479 54.6875 35.7041 55.2344C33.3864 55.7812 31.0296 56.0547 28.6338 56.0547C26.238 56.0547 23.8682 55.7812 21.5244 55.2344C19.2067 54.6875 16.9932 53.8802 14.8838 52.8125C12.7744 51.7448 10.8213 50.4297 9.02441 48.8672C7.22754 47.2786 5.66504 45.4557 4.33691 43.3984C3.03483 41.3411 2.00618 39.0495 1.25098 36.5234C0.52181 33.9714 0.157227 31.1979 0.157227 28.2031C0.157227 25.2083 0.52181 22.4479 1.25098 19.9219C2.00618 17.3698 3.03483 15.0651 4.33691 13.0078C5.66504 10.9505 7.22754 9.14063 9.02441 7.57813C10.8213 5.98958 12.7744 4.66146 14.8838 3.59375C16.9932 2.52604 19.2067 1.71875 21.5244 1.17188C23.8682 0.625 26.238 0.351563 28.6338 0.351563C31.0296 0.351563 33.3864 0.625 35.7041 1.17188C38.0479 1.71875 40.2614 2.52604 42.3447 3.59375C44.4541 4.66146 46.4072 5.98958 48.2041 7.57813C50.001 9.14063 51.5505 10.9505 52.8525 13.0078C54.1546 15.0651 55.1702 17.3698 55.8994 19.9219C56.6546 22.4479 57.0322 25.2083 57.0322 28.2031ZM52.1494 28.2031C52.1494 25.5469 51.8239 23.112 51.1729 20.8984C50.5479 18.6849 49.6755 16.7057 48.5557 14.9609C47.4619 13.2161 46.1598 11.6927 44.6494 10.3906C43.139 9.08854 41.5114 8.02083 39.7666 7.1875C38.0479 6.32813 36.238 5.6901 34.3369 5.27344C32.4359 4.83073 30.5348 4.60938 28.6338 4.60938C25.7692 4.60938 22.9307 5.09115 20.1182 6.05469C17.3057 6.99219 14.7796 8.4375 12.54 10.3906C10.3005 12.3438 8.49056 14.8047 7.11035 17.7734C5.73014 20.7161 5.04004 24.1927 5.04004 28.2031C5.04004 32.2135 5.73014 35.7031 7.11035 38.6719C8.49056 41.6146 10.3005 44.0625 12.54 46.0156C14.7796 47.9688 17.3057 49.4271 20.1182 50.3906C22.9307 51.3281 25.7692 51.7969 28.6338 51.7969C30.5348 51.7969 32.4359 51.5885 34.3369 51.1719C36.238 50.7292 38.0609 50.0781 39.8057 49.2188C41.5505 48.3594 43.1781 47.2786 44.6885 45.9766C46.1989 44.6745 47.501 43.151 48.5947 41.4063C49.7145 39.6354 50.5869 37.6563 51.2119 35.4688C51.8369 33.2813 52.1494 30.8594 52.1494 28.2031ZM112.087 51.7969C115.498 51.7969 118.493 51.4974 121.071 50.8984C123.675 50.2995 125.928 49.4531 127.829 48.3594C129.73 47.2656 131.319 45.9505 132.595 44.4141C133.871 42.8776 134.886 41.1849 135.642 39.3359C136.423 37.487 136.97 35.5078 137.282 33.3984C137.621 31.263 137.803 29.0495 137.829 26.7578C136.683 27.7474 135.381 28.763 133.923 29.8047C132.465 30.8464 130.772 31.7969 128.845 32.6563C126.918 33.5156 124.73 34.2318 122.282 34.8047C119.834 35.3516 117.048 35.625 113.923 35.625C110.459 35.625 107.23 35.2734 104.235 34.5703C101.267 33.8411 98.6885 32.7474 96.501 31.2891C94.3135 29.8307 92.5947 28.0078 91.3447 25.8203C90.1208 23.6068 89.5088 21.0156 89.5088 18.0469C89.5088 15.599 90.0687 13.3073 91.1885 11.1719C92.3083 9.01042 93.9359 7.13542 96.0713 5.54688C98.2327 3.93229 100.876 2.66927 104.001 1.75781C107.152 0.820313 110.746 0.351563 114.782 0.351563C118.819 0.351563 122.556 0.898438 125.993 1.99219C129.431 3.0599 132.399 4.6875 134.899 6.875C137.399 9.03646 139.353 11.7578 140.759 15.0391C142.165 18.3203 142.868 22.1745 142.868 26.6016C142.868 30.9505 142.243 34.9349 140.993 38.5547C139.769 42.1484 137.881 45.2474 135.329 47.8516C132.777 50.4297 129.548 52.4479 125.642 53.9063C121.761 55.3385 117.165 56.0547 111.853 56.0547C110.238 56.0547 108.636 55.9635 107.048 55.7813C105.485 55.625 103.949 55.4036 102.438 55.1172C100.928 54.8568 99.4827 54.5573 98.1025 54.2188C96.7223 53.8542 95.4333 53.4766 94.2354 53.0859V47.8906C95.0947 48.2813 96.0973 48.7109 97.2432 49.1797C98.415 49.6224 99.7432 50.0391 101.228 50.4297C102.712 50.8203 104.353 51.1458 106.149 51.4063C107.972 51.6667 109.951 51.7969 112.087 51.7969ZM115.446 31.4063C118.155 31.4063 120.629 31.0938 122.868 30.4688C125.134 29.8438 127.165 29.0625 128.962 28.125C130.785 27.1615 132.399 26.1198 133.806 25C135.212 23.8542 136.423 22.7865 137.438 21.7969C137.256 20.4427 136.944 19.0755 136.501 17.6953C136.084 16.3151 135.485 14.987 134.704 13.7109C133.949 12.4349 132.998 11.25 131.853 10.1563C130.733 9.03646 129.366 8.07292 127.751 7.26563C126.162 6.43229 124.313 5.78125 122.204 5.3125C120.095 4.84375 117.699 4.60938 115.017 4.60938C111.657 4.60938 108.688 4.9349 106.11 5.58594C103.558 6.21094 101.41 7.10938 99.665 8.28125C97.9202 9.45313 96.6051 10.8724 95.7197 12.5391C94.8343 14.1797 94.3916 16.0156 94.3916 18.0469C94.3916 20.1042 94.7952 21.9661 95.6025 23.6328C96.4359 25.2734 97.7119 26.6667 99.4307 27.8125C101.149 28.9583 103.324 29.8438 105.954 30.4688C108.61 31.0938 111.774 31.4063 115.446 31.4063Z" fill="#FFE6DE"/>
<path d="M55.8994 36.5234L54.9405 36.2397L54.9386 36.2461L55.8994 36.5234ZM48.2041 48.8672L48.8603 49.6218L48.8664 49.6164L48.2041 48.8672ZM42.3447 52.8125L41.8931 51.9203L41.8886 51.9226L42.3447 52.8125ZM35.7041 55.2344L35.4769 54.2605L35.4745 54.2611L35.7041 55.2344ZM21.5244 55.2344L21.2948 56.2076L21.2972 56.2082L21.5244 55.2344ZM9.02441 48.8672L8.36205 49.6164L8.36824 49.6218L9.02441 48.8672ZM4.33691 43.3984L3.4919 43.9333L3.49677 43.9408L4.33691 43.3984ZM1.25098 36.5234L0.289381 36.7982L0.292879 36.8099L1.25098 36.5234ZM1.25098 19.9219L0.292058 19.6381L0.290204 19.6445L1.25098 19.9219ZM4.33691 13.0078L3.49674 12.4654L3.49193 12.473L4.33691 13.0078ZM9.02441 7.57813L9.68061 8.33276L9.68675 8.32733L9.02441 7.57813ZM21.5244 1.17188L21.2972 0.19803L21.2948 0.198602L21.5244 1.17188ZM35.7041 1.17188L35.4745 2.14515L35.4769 2.14572L35.7041 1.17188ZM42.3447 3.59375L41.8886 4.48369L41.8931 4.48596L42.3447 3.59375ZM48.2041 7.57813L47.5417 8.32735L47.5479 8.33273L48.2041 7.57813ZM52.8525 13.0078L52.0076 13.5426L52.8525 13.0078ZM55.8994 19.9219L54.9378 20.1966L54.9413 20.2083L55.8994 19.9219ZM51.1729 20.8984L50.2104 21.1702L50.2135 21.1806L51.1729 20.8984ZM48.5557 14.9609L47.7083 15.4921L47.7141 15.5011L48.5557 14.9609ZM39.7666 7.1875L39.3194 8.08193L39.3275 8.08597L39.3356 8.08986L39.7666 7.1875ZM34.3369 5.27344L34.1101 6.24746L34.1228 6.25025L34.3369 5.27344ZM20.1182 6.05469L20.4344 7.0034L20.4423 7.00071L20.1182 6.05469ZM7.11035 17.7734L8.01572 18.1981L8.01714 18.195L7.11035 17.7734ZM7.11035 38.6719L6.20355 39.0935L6.20499 39.0965L7.11035 38.6719ZM20.1182 50.3906L19.7941 51.3367L19.8019 51.3393L20.1182 50.3906ZM34.3369 51.1719L34.551 52.1488L34.5637 52.1458L34.3369 51.1719ZM44.6885 45.9766L44.0355 45.2192L44.6885 45.9766ZM48.5947 41.4063L47.7495 40.8718L47.7474 40.8751L48.5947 41.4063ZM56.0322 28.2031C56.0322 31.1137 55.6653 33.7904 54.9405 36.2397L56.8583 36.8072C57.6439 34.1523 58.0322 31.2821 58.0322 28.2031H56.0322ZM54.9386 36.2461C54.2336 38.6885 53.2552 40.8924 52.0076 42.8636L53.6975 43.9332C55.054 41.7899 56.1069 39.4105 56.8602 36.8008L54.9386 36.2461ZM52.0076 42.8636C50.7552 44.8424 49.2669 46.5929 47.5418 48.118L48.8664 49.6164C50.7351 47.9644 52.3457 46.069 53.6975 43.9332L52.0076 42.8636ZM47.5479 48.1126C45.8128 49.6213 43.9284 50.8901 41.8931 51.9203L42.7963 53.7047C44.9799 52.5995 47.0016 51.238 48.8603 49.6218L47.5479 48.1126ZM41.8886 51.9226C39.8799 52.952 37.7434 53.7317 35.4769 54.2605L35.9313 56.2082C38.3523 55.6433 40.6429 54.8084 42.8008 53.7024L41.8886 51.9226ZM35.4745 54.2611C33.2325 54.7901 30.9528 55.0547 28.6338 55.0547V57.0547C31.1065 57.0547 33.5403 56.7724 35.9338 56.2076L35.4745 54.2611ZM28.6338 55.0547C26.3148 55.0547 24.0212 54.7901 21.7516 54.2605L21.2972 56.2082C23.7151 56.7724 26.1611 57.0547 28.6338 57.0547V55.0547ZM21.7541 54.2611C19.5127 53.7322 17.3737 52.952 15.3354 51.9203L14.4322 53.7047C16.6126 54.8084 18.9007 55.6428 21.2948 56.2076L21.7541 54.2611ZM15.3354 51.9203C13.3002 50.8901 11.4157 49.6213 9.68059 48.1126L8.36824 49.6218C10.2269 51.238 12.2487 52.5995 14.4322 53.7047L15.3354 51.9203ZM9.68675 48.118C7.95975 46.5912 6.45669 44.8382 5.17705 42.8561L3.49677 43.9408C4.87339 46.0732 6.49533 47.9661 8.36207 49.6164L9.68675 48.118ZM5.18189 42.8636C3.93256 40.8897 2.94026 38.6827 2.20907 36.237L0.292879 36.8099C1.07211 39.4163 2.13711 41.7926 3.49193 43.9332L5.18189 42.8636ZM2.2125 36.2487C1.51189 33.7966 1.15723 31.1167 1.15723 28.2031H-0.842773C-0.842773 31.2791 -0.468269 34.1461 0.289453 36.7982L2.2125 36.2487ZM1.15723 28.2031C1.15723 25.2894 1.51193 22.6236 2.21175 20.1992L0.290204 19.6445C-0.468307 22.2722 -0.842773 25.1273 -0.842773 28.2031H1.15723ZM2.20987 20.2056C2.9413 17.7339 3.93355 15.515 5.18189 13.5426L3.49193 12.473C2.13611 14.6152 1.07107 17.0057 0.29208 19.6381L2.20987 20.2056ZM5.17705 13.5502C6.45561 11.5697 7.95672 9.83175 9.68059 8.33273L8.36824 6.82352C6.49836 8.4495 4.87447 10.3314 3.49677 12.4654L5.17705 13.5502ZM9.68675 8.32733C11.4207 6.79442 13.3032 5.51462 15.3354 4.48596L14.4322 2.70154C12.2456 3.8083 10.2219 5.18475 8.36207 6.82892L9.68675 8.32733ZM15.3354 4.48596C17.3737 3.45421 19.5127 2.674 21.7541 2.14515L21.2948 0.198602C18.9007 0.763496 16.6126 1.59787 14.4322 2.70154L15.3354 4.48596ZM21.7516 2.14572C24.0212 1.61614 26.3148 1.35156 28.6338 1.35156V-0.648437C26.1611 -0.648437 23.7151 -0.366143 21.2972 0.198033L21.7516 2.14572ZM28.6338 1.35156C30.9528 1.35156 33.2325 1.61614 35.4745 2.14515L35.9338 0.198602C33.5403 -0.366139 31.1065 -0.648437 28.6338 -0.648437V1.35156ZM35.4769 2.14572C37.7434 2.67458 39.8799 3.45421 41.8886 4.48368L42.8008 2.70382C40.6429 1.59788 38.3523 0.762918 35.9313 0.198033L35.4769 2.14572ZM41.8931 4.48596C43.9253 5.51462 45.8078 6.79442 47.5418 8.32733L48.8664 6.82892C47.0066 5.18475 44.9829 3.8083 42.7963 2.70154L41.8931 4.48596ZM47.5479 8.33273C49.2699 9.83009 50.7562 11.5655 52.0076 13.5426L53.6975 12.473C52.3447 10.3355 50.7321 8.45116 48.8603 6.82352L47.5479 8.33273ZM52.0076 13.5426C53.2542 15.5123 54.2326 17.7281 54.9379 20.1966L56.8609 19.6472C56.1079 17.0115 55.055 14.6179 53.6975 12.473L52.0076 13.5426ZM54.9413 20.2083C55.6653 22.6298 56.0322 25.2924 56.0322 28.2031H58.0322C58.0322 25.1243 57.644 22.2661 56.8575 19.6354L54.9413 20.2083ZM53.1494 28.2031C53.1494 25.4655 52.8139 22.9341 52.1322 20.6163L50.2135 21.1806C50.8339 23.2899 51.1494 25.6283 51.1494 28.2031H53.1494ZM52.1352 20.6267C51.4863 18.3285 50.5758 16.2572 49.3973 14.4208L47.7141 15.5011C48.7751 17.1543 49.6094 19.0413 50.2105 21.1702L52.1352 20.6267ZM49.403 14.4298C48.2578 12.6031 46.891 11.0027 45.3024 9.63321L43.9965 11.148C45.4287 12.3827 46.666 13.8292 47.7084 15.4921L49.403 14.4298ZM45.3024 9.63321C43.7268 8.27501 42.0249 7.15791 40.1976 6.28514L39.3356 8.08986C40.9978 8.88375 42.5512 9.90208 43.9965 11.148L45.3024 9.63321ZM40.2138 6.29307C38.4201 5.39622 36.5318 4.73078 34.551 4.29663L34.1228 6.25025C35.9441 6.64943 37.6756 7.26003 39.3194 8.08193L40.2138 6.29307ZM34.5637 4.2995C32.5903 3.83994 30.6132 3.60938 28.6338 3.60938V5.60938C30.4565 5.60938 32.2814 5.82152 34.1101 6.24738L34.5637 4.2995ZM28.6338 3.60938C25.6548 3.60938 22.7069 4.11075 19.7941 5.10866L20.4423 7.00071C23.1544 6.07154 25.8836 5.60938 28.6338 5.60938V3.60938ZM19.8019 5.106C16.8637 6.08542 14.2218 7.59713 11.8828 9.63696L13.1973 11.1443C15.3375 9.27787 17.7477 7.89895 20.4344 7.00337L19.8019 5.106ZM11.8828 9.63696C9.52739 11.6911 7.63674 14.2692 6.20356 17.3519L8.01714 18.195C9.34438 15.3402 11.0735 12.9964 13.1973 11.1443L11.8828 9.63696ZM6.20499 17.3488C4.74963 20.4517 4.04004 24.0795 4.04004 28.2031H6.04004C6.04004 24.306 6.71066 20.9806 8.01571 18.1981L6.20499 17.3488ZM4.04004 28.2031C4.04004 32.3271 4.74974 35.9664 6.20356 39.0935L8.01714 38.2503C6.71055 35.4399 6.04004 32.1 6.04004 28.2031H4.04004ZM6.20499 39.0965C7.63858 42.153 9.52908 44.7166 11.8828 46.7693L13.1973 45.262C11.0718 43.4084 9.34254 41.0761 8.01571 38.2472L6.20499 39.0965ZM11.8828 46.7693C14.22 48.8075 16.8592 50.3312 19.7941 51.3366L20.4423 49.4446C17.7522 48.523 15.3393 47.13 13.1973 45.262L11.8828 46.7693ZM19.8019 51.3393C22.7128 52.3096 25.658 52.7969 28.6338 52.7969L28.6338 50.7969C25.8804 50.7969 23.1485 50.3467 20.4344 49.4419L19.8019 51.3393ZM28.6338 52.7969C30.6085 52.7969 32.5813 52.5804 34.551 52.1487L34.1228 50.1951C32.2904 50.5967 30.4611 50.7969 28.6338 50.7969L28.6338 52.7969ZM34.5637 52.1458C36.5389 51.6858 38.434 51.0091 40.2475 50.1158L39.3638 48.3217C37.6878 49.1472 35.937 49.7725 34.1101 50.1979L34.5637 52.1458ZM40.2475 50.1158C42.0702 49.2181 43.7685 48.09 45.3414 46.734L44.0355 45.2192C42.5877 46.4673 41.0307 47.5007 39.3638 48.3217L40.2475 50.1158ZM45.3414 46.734C46.93 45.3645 48.2969 43.7641 49.442 41.9374L47.7474 40.8751C46.705 42.538 45.4678 43.9845 44.0355 45.2192L45.3414 46.734ZM49.4399 41.9407C50.6148 40.0827 51.5245 38.0148 52.1734 35.7435L50.2504 35.194C49.6493 37.2977 48.8142 39.1881 47.7495 40.8718L49.4399 41.9407ZM52.1734 35.7435C52.8278 33.4532 53.1494 30.9372 53.1494 28.2031H51.1494C51.1494 30.7816 50.846 33.1093 50.2504 35.194L52.1734 35.7435ZM121.071 50.8984L120.847 49.9239L120.845 49.9244L121.071 50.8984ZM132.595 44.4141L131.825 43.7752L132.595 44.4141ZM135.642 39.3359L134.72 38.9467L134.716 38.9578L135.642 39.3359ZM137.282 33.3984L136.295 33.2418L136.293 33.2519L137.282 33.3984ZM137.829 26.7578L138.829 26.7692L138.854 24.5512L137.175 26.001L137.829 26.7578ZM122.282 34.8047L122.5 35.7807L122.51 35.7784L122.282 34.8047ZM104.235 34.5703L103.997 35.5415L104.007 35.5438L104.235 34.5703ZM91.3447 25.8203L90.4695 26.3043L90.4765 26.3165L91.3447 25.8203ZM91.1885 11.1719L92.0741 11.6363L92.0764 11.6319L91.1885 11.1719ZM96.0713 5.54688L96.6682 6.34922L96.6697 6.34803L96.0713 5.54688ZM104.001 1.75781L104.281 2.71783L104.286 2.71629L104.001 1.75781ZM125.993 1.99219L125.69 2.94514L125.697 2.94718L125.993 1.99219ZM134.899 6.875L134.241 7.62759L134.245 7.63147L134.899 6.875ZM140.993 38.5547L140.048 38.2283L140.047 38.2323L140.993 38.5547ZM135.329 47.8516L136.04 48.5551L136.043 48.5515L135.329 47.8516ZM125.642 53.9063L125.988 54.8444L125.991 54.8431L125.642 53.9063ZM107.048 55.7813L107.162 54.7878L107.155 54.7869L107.147 54.7862L107.048 55.7813ZM102.438 55.1172L102.625 54.1347L102.617 54.1331L102.608 54.1317L102.438 55.1172ZM98.1025 54.2188L97.8471 55.1856L97.8557 55.1879L97.8643 55.19L98.1025 54.2188ZM94.2354 53.0859H93.2354V53.8117L93.9253 54.0367L94.2354 53.0859ZM94.2354 47.8906L94.6492 46.9803L93.2354 46.3376V47.8906H94.2354ZM97.2432 49.1797L96.8645 50.1052L96.8771 50.1104L96.8898 50.1152L97.2432 49.1797ZM106.149 51.4063L106.006 52.3959L106.008 52.3962L106.149 51.4063ZM122.868 30.4688L122.602 29.5048L122.599 29.5056L122.868 30.4688ZM128.962 28.125L129.424 29.0116L129.429 29.0091L128.962 28.125ZM133.806 25L134.429 25.7823L134.437 25.7752L133.806 25ZM137.438 21.7969L138.136 22.5131L138.497 22.162L138.43 21.6635L137.438 21.7969ZM136.501 17.6953L135.544 17.9843L135.546 17.9925L135.549 18.0007L136.501 17.6953ZM134.704 13.7109L133.844 14.2203L133.847 14.2267L133.851 14.2331L134.704 13.7109ZM131.853 10.1563L131.145 10.8634L131.154 10.8716L131.162 10.8796L131.853 10.1563ZM127.751 7.26563L127.286 8.15117L127.295 8.1557L127.304 8.16005L127.751 7.26563ZM106.11 5.58594L106.348 6.55726L106.355 6.5555L106.11 5.58594ZM95.7197 12.5391L96.5998 13.014L96.6028 13.0082L95.7197 12.5391ZM95.6025 23.6328L94.7026 24.0687L94.7067 24.0772L94.711 24.0857L95.6025 23.6328ZM105.954 30.4688L105.723 31.4417L105.725 31.4422L105.954 30.4688ZM112.087 52.7969C115.554 52.7969 118.628 52.4928 121.298 51.8725L120.845 49.9244C118.359 50.502 115.443 50.7969 112.087 50.7969V52.7969ZM121.295 51.873C123.976 51.2565 126.325 50.3786 128.328 49.2262L127.33 47.4926C125.531 48.5277 123.375 49.3424 120.847 49.9239L121.295 51.873ZM128.328 49.2262C130.322 48.0789 132.005 46.6894 133.364 45.053L131.825 43.7752C130.632 45.2116 129.139 46.4523 127.33 47.4926L128.328 49.2262ZM133.364 45.053C134.705 43.4381 135.774 41.6574 136.567 39.7141L134.716 38.9578C133.999 40.7124 133.036 42.3171 131.825 43.7752L133.364 45.053ZM136.563 39.7252C137.379 37.7938 137.947 35.7326 138.271 33.545L136.293 33.2519C135.992 35.283 135.467 37.1801 134.72 38.9467L136.563 39.7252ZM138.27 33.555C138.616 31.3688 138.802 29.1066 138.829 26.7692L136.829 26.7464C136.804 28.9924 136.625 31.1573 136.295 33.2419L138.27 33.555ZM137.175 26.001C136.057 26.9673 134.779 27.964 133.342 28.991L134.504 30.6184C135.983 29.562 137.31 28.5275 138.483 27.5146L137.175 26.001ZM133.342 28.991C131.946 29.9876 130.314 30.9062 128.437 31.7429L129.252 33.5696C131.23 32.6876 132.983 31.7052 134.504 30.6184L133.342 28.991ZM128.437 31.7429C126.578 32.5722 124.452 33.2698 122.054 33.831L122.51 35.7784C125.008 35.1937 127.257 34.459 129.252 33.5696L128.437 31.7429ZM122.064 33.8287C119.703 34.3563 116.992 34.625 113.923 34.625V36.625C117.104 36.625 119.966 36.3468 122.5 35.7806L122.064 33.8287ZM113.923 34.625C110.527 34.625 107.375 34.2803 104.464 33.5968L104.007 35.5438C107.085 36.2666 110.392 36.625 113.923 36.625V34.625ZM104.474 33.5992C101.6 32.8933 99.1323 31.8415 97.0557 30.457L95.9463 32.1211C98.2446 33.6533 100.933 34.789 103.997 35.5415L104.474 33.5992ZM97.0557 30.457C94.9916 29.0809 93.3826 27.371 92.213 25.3242L90.4765 26.3165C91.8069 28.6447 93.6354 30.5805 95.9463 32.1211L97.0557 30.457ZM92.2199 25.3364C91.091 23.2949 90.5088 20.8759 90.5088 18.0469H88.5088C88.5088 21.1554 89.1505 23.9187 90.4696 26.3042L92.2199 25.3364ZM90.5088 18.0469C90.5088 15.7582 91.0306 13.6262 92.0741 11.6363L90.3029 10.7075C89.1068 12.9884 88.5088 15.4397 88.5088 18.0469H90.5088ZM92.0764 11.6319C93.1201 9.61734 94.6429 7.85578 96.6682 6.34922L95.4744 4.74453C93.2288 6.41505 91.4965 8.40349 90.3006 10.7119L92.0764 11.6319ZM96.6697 6.34803C98.7179 4.81809 101.248 3.60251 104.281 2.71781L103.721 0.797812C100.504 1.73603 97.7476 3.04649 95.4728 4.74572L96.6697 6.34803ZM104.286 2.71629C107.326 1.81175 110.821 1.35156 114.782 1.35156V-0.648437C110.67 -0.648437 106.978 -0.171129 103.716 0.799335L104.286 2.71629ZM114.782 1.35156C118.728 1.35156 122.361 1.88603 125.69 2.94511L126.296 1.03926C122.75 -0.0891504 118.909 -0.648437 114.782 -0.648437V1.35156ZM125.697 2.94718C129.012 3.97695 131.855 5.53957 134.241 7.62758L135.558 6.12242C132.944 3.83543 129.849 2.14285 126.29 1.03719L125.697 2.94718ZM134.245 7.63147C136.622 9.68595 138.488 12.2797 139.84 15.433L141.678 14.6451C140.217 11.2359 138.177 8.38697 135.553 6.11853L134.245 7.63147ZM139.84 15.433C141.181 18.5637 141.868 22.2784 141.868 26.6016H143.868C143.868 22.0706 143.149 18.0769 141.678 14.6451L139.84 15.433ZM141.868 26.6016C141.868 30.8543 141.257 34.7267 140.048 38.2283L141.938 38.8811C143.229 35.1431 143.868 31.0467 143.868 26.6016H141.868ZM140.047 38.2323C138.869 41.6904 137.058 44.6588 134.615 47.1516L136.043 48.5515C138.704 45.836 140.67 42.6065 141.94 38.8771L140.047 38.2323ZM134.618 47.1481C132.182 49.6088 129.083 51.5542 125.292 52.9694L125.991 54.8431C130.013 53.3416 133.372 51.2505 136.04 48.5551L134.618 47.1481ZM125.295 52.9681C121.552 54.3497 117.079 55.0547 111.853 55.0547V57.0547C117.251 57.0547 121.97 56.3274 125.988 54.8444L125.295 52.9681ZM111.853 55.0547C110.276 55.0547 108.712 54.9657 107.162 54.7878L106.934 56.7747C108.561 56.9614 110.2 57.0547 111.853 57.0547V55.0547ZM107.147 54.7862C105.613 54.6328 104.106 54.4156 102.625 54.1347L102.252 56.0997C103.792 56.3917 105.357 56.6172 106.948 56.7763L107.147 54.7862ZM102.608 54.1317C101.119 53.875 99.6967 53.5801 98.3408 53.2475L97.8643 55.19C99.2688 55.5345 100.737 55.8386 102.269 56.1026L102.608 54.1317ZM98.3579 53.2519C96.9937 52.8916 95.7231 52.5192 94.5454 52.1352L93.9253 54.0367C95.1435 54.4339 96.4509 54.8168 97.8471 55.1856L98.3579 53.2519ZM95.2354 53.0859V47.8906H93.2354V53.0859H95.2354ZM93.8215 48.801C94.6955 49.1982 95.7103 49.633 96.8645 50.1052L97.6218 48.2541C96.4844 47.7888 95.494 47.3643 94.6492 46.9803L93.8215 48.801ZM96.8898 50.1152C98.1003 50.5725 99.4623 50.9992 100.973 51.3968L101.482 49.4626C100.024 49.0789 98.7298 48.6723 97.5966 48.2442L96.8898 50.1152ZM100.973 51.3968C102.5 51.7986 104.178 52.131 106.006 52.3959L106.293 50.4166C104.527 50.1606 102.924 49.8421 101.482 49.4626L100.973 51.3968ZM106.008 52.3962C107.884 52.6643 109.911 52.7969 112.087 52.7969V50.7969C109.992 50.7969 108.06 50.6691 106.291 50.4163L106.008 52.3962ZM115.446 32.4063C118.231 32.4063 120.797 32.085 123.137 31.4319L122.599 29.5056C120.46 30.1025 118.078 30.4063 115.446 30.4063L115.446 32.4063ZM123.134 31.4327C125.457 30.7919 127.556 29.9865 129.424 29.0116L128.499 27.2384C126.774 28.1385 124.81 28.8956 122.602 29.5048L123.134 31.4327ZM129.429 29.0091C131.299 28.0207 132.967 26.9459 134.429 25.7823L133.183 24.2177C131.832 25.2937 130.27 26.3023 128.495 27.2409L129.429 29.0091ZM134.437 25.7752C135.861 24.6156 137.095 23.5281 138.136 22.5131L136.741 21.0806C135.751 22.0448 134.563 23.0927 133.174 24.2248L134.437 25.7752ZM138.43 21.6635C138.239 20.2475 137.913 18.8228 137.453 17.3899L135.549 18.0007C135.975 19.3282 136.273 20.6379 136.447 21.9303L138.43 21.6635ZM137.458 17.4063C137.016 15.9412 136.381 14.535 135.557 13.1888L133.851 14.2331C134.59 15.439 135.153 16.689 135.544 17.9843L137.458 17.4063ZM135.565 13.2016C134.76 11.8416 133.751 10.5856 132.543 9.43289L131.162 10.8796C132.246 11.9144 133.138 13.0282 133.844 14.2203L135.565 13.2016ZM132.56 9.44914C131.354 8.24355 129.896 7.21994 128.198 6.3712L127.304 8.16005C128.835 8.92589 130.111 9.82937 131.145 10.8634L132.56 9.44914ZM128.216 6.38008C126.535 5.49838 124.6 4.82045 122.421 4.33631L121.987 6.28869C124.027 6.74205 125.79 7.3662 127.286 8.15117L128.216 6.38008ZM122.421 4.33631C120.226 3.84848 117.755 3.60938 115.017 3.60938V5.60938C117.643 5.60938 119.964 5.83902 121.987 6.28869L122.421 4.33631ZM115.017 3.60938C111.595 3.60938 108.541 3.94064 105.866 4.61637L106.355 6.5555C108.836 5.92915 111.719 5.60938 115.017 5.60938V3.60938ZM105.872 4.61464C103.234 5.26086 100.971 6.19972 99.1075 7.45111L100.223 9.11139C101.849 8.01903 103.883 7.16102 106.348 6.55723L105.872 4.61464ZM99.1075 7.45111C97.2419 8.7041 95.8077 10.242 94.8366 12.0699L96.6028 13.0082C97.4026 11.5027 98.5986 10.2022 100.223 9.11139L99.1075 7.45111ZM94.8397 12.0641C93.8686 13.8635 93.3916 15.865 93.3916 18.0469H95.3916C95.3916 16.1662 95.8 14.4959 96.5997 13.014L94.8397 12.0641ZM93.3916 18.0469C93.3916 20.2382 93.8224 22.2517 94.7026 24.0687L96.5025 23.1969C95.7681 21.6806 95.3916 19.9701 95.3916 18.0469H93.3916ZM94.711 24.0857C95.6313 25.8976 97.0321 27.4153 98.876 28.6446L99.9854 26.9804C98.3918 25.918 97.2404 24.6493 96.4941 23.1799L94.711 24.0857ZM98.876 28.6446C100.719 29.8729 103.011 30.7973 105.723 31.4417L106.185 29.4958C103.637 28.8902 101.58 28.0437 99.9854 26.9804L98.876 28.6446ZM105.725 31.4422C108.477 32.0897 111.722 32.4063 115.446 32.4063L115.446 30.4063C111.827 30.4063 108.744 30.0978 106.183 29.4953L105.725 31.4422Z" fill="#FFE2DE"/>
</svg>
