<svg width="70" height="54" viewBox="0 0 70 54" fill="none" xmlns="http://www.w3.org/2000/svg">
<path d="M13.3604 54L13.3604 4.625L0.547852 8.64844L0.547852 4.3125L13.3604 0.328125H18.165L18.165 54H13.3604ZM64.5479 54L64.5479 4.625L51.7354 8.64844V4.3125L64.5479 0.328125L69.3525 0.328125L69.3525 54H64.5479Z" fill="#FFE6DE"/>
<path d="M13.3604 54H12.3604V55H13.3604V54ZM13.3604 4.625H14.3604V3.26283L13.0608 3.67093L13.3604 4.625ZM0.547852 8.64844H-0.452148L-0.452148 10.0106L0.847451 9.6025L0.547852 8.64844ZM0.547852 4.3125L0.250903 3.35761L-0.452148 3.57624V4.3125H0.547852ZM13.3604 0.328125V-0.671875H13.2085L13.0634 -0.626768L13.3604 0.328125ZM18.165 0.328125L19.165 0.328125L19.165 -0.671875L18.165 -0.671875L18.165 0.328125ZM18.165 54V55H19.165V54H18.165ZM14.3604 54L14.3604 4.625H12.3604L12.3604 54H14.3604ZM13.0608 3.67093L0.248252 7.69437L0.847451 9.6025L13.66 5.57907L13.0608 3.67093ZM1.54785 8.64844L1.54785 4.3125H-0.452148L-0.452148 8.64844H1.54785ZM0.8448 5.26739L13.6573 1.28302L13.0634 -0.626768L0.250903 3.35761L0.8448 5.26739ZM13.3604 1.32813H18.165L18.165 -0.671875H13.3604V1.32813ZM17.165 0.328125L17.165 54H19.165L19.165 0.328125L17.165 0.328125ZM18.165 53H13.3604V55H18.165V53ZM64.5479 54H63.5479V55H64.5479V54ZM64.5479 4.625H65.5479V3.26283L64.2483 3.67093L64.5479 4.625ZM51.7354 8.64844H50.7354V10.0106L52.035 9.6025L51.7354 8.64844ZM51.7354 4.3125L51.4384 3.35761L50.7354 3.57624V4.3125H51.7354ZM64.5479 0.328125V-0.671875H64.396L64.2509 -0.626768L64.5479 0.328125ZM69.3525 0.328125H70.3525V-0.671875H69.3525V0.328125ZM69.3525 54V55H70.3525V54H69.3525ZM65.5479 54L65.5479 4.625H63.5479L63.5479 54H65.5479ZM64.2483 3.67093L51.4358 7.69437L52.035 9.6025L64.8475 5.57907L64.2483 3.67093ZM52.7354 8.64844V4.3125H50.7354V8.64844H52.7354ZM52.0323 5.26739L64.8448 1.28302L64.2509 -0.626768L51.4384 3.35761L52.0323 5.26739ZM64.5479 1.32813L69.3525 1.32813V-0.671875L64.5479 -0.671875V1.32813ZM68.3525 0.328125L68.3525 54H70.3525L70.3525 0.328125H68.3525ZM69.3525 53H64.5479V55H69.3525V53Z" fill="#FFE2DE"/>
</svg>
