<svg width="105" height="57" viewBox="0 0 105 57" fill="none" xmlns="http://www.w3.org/2000/svg">
<path d="M13.6348 55L13.6348 5.625L0.822266 9.64844L0.822266 5.3125L13.6348 1.32813H18.4395L18.4395 55H13.6348ZM86.3457 26.3672C89.4186 26.7578 92.0879 27.3698 94.3535 28.2031C96.6452 29.0365 98.5332 30.026 100.018 31.1719C101.528 32.3177 102.648 33.6198 103.377 35.0781C104.106 36.5104 104.471 38.0339 104.471 39.6484C104.471 42.4609 103.755 44.9089 102.322 46.9922C100.916 49.0495 98.9889 50.7552 96.541 52.1094C94.1191 53.4375 91.2676 54.4271 87.9863 55.0781C84.7311 55.7292 81.2676 56.0547 77.5957 56.0547C74.9655 56.0547 72.5957 55.9505 70.4863 55.7422C68.377 55.5599 66.4368 55.2865 64.666 54.9219C62.8952 54.5573 61.2415 54.1276 59.7051 53.6328C58.1686 53.112 56.6712 52.5521 55.2129 51.9531V46.2891C58.4681 48.2161 61.8275 49.6224 65.291 50.5078C68.7546 51.3672 72.4655 51.7969 76.4238 51.7969C80.4082 51.7969 83.8457 51.5104 86.7363 50.9375C89.653 50.3385 92.0488 49.5182 93.9238 48.4766C95.8249 47.4089 97.2311 46.1328 98.1426 44.6484C99.0801 43.1641 99.5488 41.5234 99.5488 39.7266C99.5488 35.8464 97.1921 33.0208 92.4785 31.25C87.791 29.4792 80.5905 28.5677 70.877 28.5156V24.2969C79.7311 24.2969 86.3978 23.5286 90.877 21.9922C95.3561 20.4297 97.5957 17.9427 97.5957 14.5313C97.5957 11.3542 95.7988 8.89323 92.2051 7.14844C88.6374 5.40365 83.377 4.53125 76.4238 4.53125C74.3926 4.53125 72.4915 4.63542 70.7207 4.84375C68.9759 5.05208 67.2962 5.36458 65.6816 5.78125C64.0671 6.19792 62.4915 6.70573 60.9551 7.30469C59.4186 7.90365 57.8561 8.60677 56.2676 9.41406V3.78906C58.0124 3.21615 59.7181 2.72135 61.3848 2.30469C63.0514 1.86198 64.7311 1.4974 66.4238 1.21094C68.1165 0.924479 69.8483 0.716146 71.6191 0.585938C73.39 0.429688 75.252 0.351563 77.2051 0.351563C79.3926 0.351563 81.528 0.455729 83.6113 0.664063C85.7207 0.872396 87.7129 1.21094 89.5879 1.67969C91.4629 2.1224 93.1816 2.70833 94.7441 3.4375C96.3327 4.14063 97.6999 5.01302 98.8457 6.05469C99.9915 7.07031 100.877 8.25521 101.502 9.60938C102.153 10.9635 102.479 12.5 102.479 14.2188C102.479 15.599 102.14 16.9401 101.463 18.2422C100.812 19.5443 99.8092 20.7422 98.4551 21.8359C97.127 22.9297 95.4473 23.8802 93.416 24.6875C91.4108 25.4688 89.054 26.0286 86.3457 26.3672Z" fill="#FFE6DE"/>
<path d="M13.6348 55H12.6348V56H13.6348V55ZM13.6348 5.625H14.6348V4.26283L13.3352 4.67093L13.6348 5.625ZM0.822266 9.64844H-0.177734L-0.177734 11.0106L1.12187 10.6025L0.822266 9.64844ZM0.822266 5.3125L0.525317 4.35761L-0.177734 4.57624V5.3125H0.822266ZM13.6348 1.32813V0.328125H13.4829L13.3378 0.373232L13.6348 1.32813ZM18.4395 1.32813L19.4395 1.32813L19.4395 0.328125L18.4395 0.328125L18.4395 1.32813ZM18.4395 55V56H19.4395V55H18.4395ZM14.6348 55L14.6348 5.625H12.6348L12.6348 55H14.6348ZM13.3352 4.67093L0.522666 8.69437L1.12187 10.6025L13.9344 6.57907L13.3352 4.67093ZM1.82227 9.64844L1.82227 5.3125H-0.177734L-0.177734 9.64844H1.82227ZM1.11921 6.26739L13.9317 2.28302L13.3378 0.373232L0.525317 4.35761L1.11921 6.26739ZM13.6348 2.32813H18.4395L18.4395 0.328125H13.6348V2.32813ZM17.4395 1.32813L17.4395 55H19.4395L19.4395 1.32813L17.4395 1.32813ZM18.4395 54H13.6348V56H18.4395V54ZM86.3457 26.3672L86.2217 25.3749L86.2196 27.3592L86.3457 26.3672ZM94.3535 28.2031L94.0083 29.1417L94.0118 29.1429L94.3535 28.2031ZM100.018 31.1719L99.4065 31.9635L99.4132 31.9686L100.018 31.1719ZM103.377 35.0781L102.483 35.5253L102.486 35.5318L103.377 35.0781ZM102.322 46.9922L101.498 46.4257L101.497 46.4279L102.322 46.9922ZM96.541 52.1094L97.0219 52.9862L97.0251 52.9844L96.541 52.1094ZM87.9863 55.0781L87.7917 54.0972L87.7902 54.0975L87.9863 55.0781ZM70.4863 55.7422L70.5846 54.747L70.5724 54.7459L70.4863 55.7422ZM59.7051 53.6328L59.384 54.5799L59.3913 54.5823L59.3985 54.5847L59.7051 53.6328ZM55.2129 51.9531H54.2129L54.2129 52.6235L54.833 52.8781L55.2129 51.9531ZM55.2129 46.2891L55.7223 45.4285L54.2129 44.535V46.2891H55.2129ZM65.291 50.5078L65.0433 51.4767L65.0502 51.4784L65.291 50.5078ZM86.7363 50.9375L86.9307 51.9184L86.9375 51.9171L86.7363 50.9375ZM93.9238 48.4766L94.4095 49.3507L94.4135 49.3485L93.9238 48.4766ZM98.1426 44.6484L97.297 44.1144L97.2904 44.1252L98.1426 44.6484ZM92.4785 31.25L92.1251 32.1855L92.1268 32.1861L92.4785 31.25ZM70.877 28.5156H69.877V29.5103L70.8716 29.5156L70.877 28.5156ZM70.877 24.2969V23.2969H69.877V24.2969H70.877ZM90.877 21.9922L91.2014 22.9381L91.2063 22.9364L90.877 21.9922ZM92.2051 7.14844L91.7657 8.04677L91.7683 8.04802L92.2051 7.14844ZM70.7207 4.84375L70.6039 3.8506L70.6021 3.8508L70.7207 4.84375ZM56.2676 9.41406H55.2676V11.044L56.7206 10.3055L56.2676 9.41406ZM56.2676 3.78906L55.9556 2.83897L55.2676 3.06489V3.78906H56.2676ZM61.3848 2.30469L61.6273 3.27483L61.6344 3.27305L61.6415 3.27117L61.3848 2.30469ZM71.6191 0.585938L71.6925 1.58325L71.6998 1.58271L71.707 1.58207L71.6191 0.585938ZM83.6113 0.664063L83.5118 1.6591L83.513 1.65922L83.6113 0.664063ZM89.5879 1.67969L89.3453 2.64991L89.3581 2.65293L89.5879 1.67969ZM94.7441 3.4375L94.3213 4.34368L94.3303 4.3479L94.3394 4.35193L94.7441 3.4375ZM98.8457 6.05469L98.173 6.79469L98.1824 6.80303L98.8457 6.05469ZM101.502 9.60938L100.594 10.0284L100.597 10.0356L100.601 10.0427L101.502 9.60938ZM101.463 18.2422L100.576 17.7808L100.572 17.7879L100.568 17.795L101.463 18.2422ZM98.4551 21.8359L97.8267 21.058L97.8194 21.064L98.4551 21.8359ZM93.416 24.6875L93.7791 25.6193L93.7854 25.6168L93.416 24.6875ZM86.2196 27.3592C89.2376 27.7428 91.8301 28.3405 94.0083 29.1417L94.6987 27.2646C92.3457 26.3991 89.5996 25.7728 86.4718 25.3752L86.2196 27.3592ZM94.0118 29.1429C96.234 29.951 98.024 30.8963 99.4065 31.9635L100.629 30.3803C99.0424 29.1558 97.0564 28.1219 94.6953 27.2633L94.0118 29.1429ZM99.4132 31.9686C100.821 33.0368 101.832 34.2249 102.483 35.5253L104.271 34.6309C103.463 33.0147 102.235 31.5987 100.622 30.3752L99.4132 31.9686ZM102.486 35.5318C103.143 36.8229 103.471 38.1908 103.471 39.6484H105.471C105.471 37.8769 105.069 36.1979 104.268 34.6244L102.486 35.5318ZM103.471 39.6484C103.471 42.2823 102.803 44.5275 101.498 46.4257L103.146 47.5587C104.706 45.2902 105.471 42.6395 105.471 39.6484H103.471ZM101.497 46.4279C100.189 48.3413 98.3853 49.9463 96.057 51.2343L97.0251 52.9844C99.5926 51.5641 101.643 49.7576 103.148 47.5565L101.497 46.4279ZM96.0602 51.2326C93.7444 52.5025 90.9932 53.462 87.7917 54.0972L88.1809 56.059C91.542 55.3921 94.4939 54.3725 97.0219 52.9862L96.0602 51.2326ZM87.7902 54.0975C84.606 54.7344 81.2086 55.0547 77.5957 55.0547V57.0547C81.3266 57.0547 84.8563 56.7239 88.1824 56.0587L87.7902 54.0975ZM77.5957 55.0547C74.9909 55.0547 72.6547 54.9515 70.5846 54.747L70.388 56.7373C72.5367 56.9496 74.9401 57.0547 77.5957 57.0547V55.0547ZM70.5724 54.7459C68.4955 54.5664 66.5946 54.298 64.8677 53.9424L64.4644 55.9013C66.2791 56.275 68.2584 56.5534 70.4002 56.7385L70.5724 54.7459ZM64.8677 53.9424C63.1281 53.5843 61.5098 53.1634 60.0116 52.681L59.3985 54.5847C60.9732 55.0918 62.6622 55.5303 64.4644 55.9013L64.8677 53.9424ZM60.0261 52.6857C58.5089 52.1714 57.0312 51.6189 55.5928 51.0281L54.833 52.8781C56.3112 53.4853 57.8283 54.0525 59.384 54.5799L60.0261 52.6857ZM56.2129 51.9531V46.2891H54.2129V51.9531H56.2129ZM54.7035 47.1496C58.0356 49.1222 61.4827 50.5664 65.0433 51.4767L65.5387 49.539C62.1723 48.6784 58.9006 47.3101 55.7223 45.4285L54.7035 47.1496ZM65.0502 51.4784C68.6006 52.3593 72.393 52.7969 76.4238 52.7969V50.7969C72.5379 50.7969 68.9086 50.3751 65.5318 49.5372L65.0502 51.4784ZM76.4238 52.7969C80.4523 52.7969 83.9582 52.5076 86.9307 51.9184L86.5419 49.9566C83.7332 50.5133 80.3641 50.7969 76.4238 50.7969V52.7969ZM86.9375 51.9171C89.9182 51.305 92.4185 50.4568 94.4095 49.3507L93.4382 47.6024C91.6791 48.5797 89.3878 49.3721 86.5352 49.9579L86.9375 51.9171ZM94.4135 49.3485C96.4263 48.218 97.9744 46.8334 98.9948 45.1717L97.2904 44.1252C96.4879 45.4322 95.2234 46.5997 93.4341 47.6047L94.4135 49.3485ZM98.9881 45.1824C100.029 43.5343 100.549 41.7078 100.549 39.7266H98.5488C98.5488 41.3391 98.1312 42.7938 97.2971 44.1144L98.9881 45.1824ZM100.549 39.7266C100.549 37.5662 99.8861 35.6596 98.5492 34.0567C97.2265 32.471 95.2919 31.2387 92.8302 30.3139L92.1268 32.1861C94.3787 33.0321 95.9792 34.098 97.0133 35.3378C98.0331 36.5605 98.5488 38.0067 98.5488 39.7266H100.549ZM92.8319 30.3145C87.9721 28.4786 80.6247 27.5679 70.8823 27.5156L70.8716 29.5156C80.5563 29.5675 87.6099 30.4797 92.1251 32.1855L92.8319 30.3145ZM71.877 28.5156V24.2969H69.877V28.5156H71.877ZM70.877 25.2969C79.763 25.2969 86.5631 24.5291 91.2014 22.9381L90.5525 21.0463C86.2325 22.5281 79.6993 23.2969 70.877 23.2969V25.2969ZM91.2063 22.9364C93.5423 22.1215 95.3895 21.0341 96.6591 19.6243C97.9478 18.1932 98.5957 16.4788 98.5957 14.5313H96.5957C96.5957 15.9951 96.1238 17.2299 95.1729 18.2859C94.2029 19.363 92.6908 20.3004 90.5476 21.048L91.2063 22.9364ZM98.5957 14.5313C98.5957 10.8655 96.4736 8.1092 92.6418 6.24886L91.7683 8.04802C95.1241 9.67726 96.5957 11.8428 96.5957 14.5313H98.5957ZM92.6444 6.25011C88.873 4.40569 83.4312 3.53125 76.4238 3.53125V5.53125C83.3227 5.53125 88.4018 6.40161 91.7657 8.04676L92.6444 6.25011ZM76.4238 3.53125C74.3588 3.53125 72.4184 3.63713 70.6039 3.8506L70.8375 5.8369C72.5647 5.63371 74.4264 5.53125 76.4238 5.53125V3.53125ZM70.6021 3.8508C68.8154 4.06414 67.0918 4.38459 65.4318 4.81297L65.9315 6.74953C67.5007 6.34458 69.1364 6.04003 70.8393 5.8367L70.6021 3.8508ZM65.4318 4.81297C63.7791 5.23946 62.1658 5.75943 60.5919 6.37298L61.3183 8.23639C62.8173 7.65203 64.355 7.15638 65.9315 6.74953L65.4318 4.81297ZM60.5919 6.37298C59.0225 6.98477 57.43 7.70159 55.8145 8.52258L56.7206 10.3055C58.2822 9.51195 59.8147 8.82252 61.3183 8.23639L60.5919 6.37298ZM57.2676 9.41406V3.78906H55.2676V9.41406H57.2676ZM56.5795 4.73915C58.303 4.17325 59.9855 3.68527 61.6273 3.27483L61.1422 1.33455C59.4506 1.75744 57.7217 2.25905 55.9556 2.83897L56.5795 4.73915ZM61.6415 3.27117C63.2786 2.8363 64.9284 2.47824 66.5907 2.19692L66.257 0.224957C64.5339 0.516555 62.8242 0.887656 61.128 1.3382L61.6415 3.27117ZM66.5907 2.19692C68.2514 1.91588 69.9519 1.71123 71.6925 1.58325L71.5458 -0.41137C69.7447 -0.278936 67.9817 -0.0669203 66.257 0.224957L66.5907 2.19692ZM71.707 1.58207C73.446 1.42863 75.2785 1.35156 77.2051 1.35156V-0.648437C75.2254 -0.648437 73.334 -0.569259 71.5312 -0.410192L71.707 1.58207ZM77.2051 1.35156C79.3608 1.35156 81.463 1.45422 83.5118 1.6591L83.7108 -0.330975C81.593 -0.542758 79.4243 -0.648437 77.2051 -0.648437V1.35156ZM83.513 1.65922C85.5784 1.86321 87.522 2.194 89.3454 2.64983L89.8304 0.709545C87.9037 0.227871 85.863 -0.118415 83.7096 -0.331096L83.513 1.65922ZM89.3581 2.65293C91.1742 3.08174 92.8274 3.64654 94.3213 4.34368L95.167 2.53132C93.5359 1.77012 91.7515 1.16305 89.8177 0.706448L89.3581 2.65293ZM94.3394 4.35193C95.8417 5.01687 97.1156 5.83332 98.173 6.79463L99.5184 5.31475C98.2841 4.19272 96.8237 3.26438 95.1489 2.52307L94.3394 4.35193ZM98.1824 6.80303C99.2276 7.72949 100.028 8.80314 100.594 10.0284L102.41 9.19032C101.725 7.70728 100.755 6.41114 99.509 5.30634L98.1824 6.80303ZM100.601 10.0427C101.178 11.2434 101.479 12.6284 101.479 14.2188H103.479C103.479 12.3716 103.128 10.6837 102.403 9.17608L100.601 10.0427ZM101.479 14.2188C101.479 15.4282 101.183 16.612 100.576 17.7808L102.35 18.7035C103.096 17.2682 103.479 15.7697 103.479 14.2188H101.479ZM100.568 17.795C99.9927 18.9465 99.091 20.0368 97.8267 21.058L99.0834 22.6139C100.527 21.4475 101.631 20.1421 102.357 18.6894L100.568 17.795ZM97.8194 21.064C96.5896 22.0768 95.0063 22.9794 93.0467 23.7582L93.7854 25.6168C95.8882 24.781 97.6643 23.7826 99.0908 22.6079L97.8194 21.064ZM93.053 23.7557C91.1419 24.5003 88.8689 25.044 86.2217 25.3749L86.4697 27.3595C89.2392 27.0133 91.6797 26.4372 93.779 25.6193L93.053 23.7557Z" fill="#FFE2DE"/>
</svg>
