<svg width="230" height="164" viewBox="0 0 230 164" fill="none" xmlns="http://www.w3.org/2000/svg">
<path d="M116.866 159.739C109.183 153.638 134.378 112.946 147.936 93.3623H198.213L206.969 137.708L200.755 163.411C192.187 161.716 173.809 157.31 168.837 153.243C163.866 149.175 151.702 142.133 146.241 139.12C142.946 144.392 132.457 155.898 116.866 159.739Z" fill="#FAA840"/>
<path d="M206.403 139.403C197.817 127.426 196.988 103.719 197.647 93.3625L208.38 88.8433C210.169 94.8689 212.278 113.417 206.403 139.403Z" fill="#5D6C8C"/>
<path d="M37.7787 99.0115C23.543 91.7807 21.4904 62.8574 22.2436 49.582C15.1821 52.9715 6.12482 68.224 5.29629 73.8731C2.81069 90.8203 6.33213 99.0115 8.40346 101.554C10.5689 108.427 21.4528 122.003 47.6646 121.325C68.2272 119.97 77.2281 120.196 79.5819 120.196C85.3251 121.42 97.6025 125.845 100.766 133.753C96.4726 145.277 99.542 157.385 101.613 161.999L116.301 160.022C115.736 156.35 120.029 134.149 131.553 122.173C143.078 110.197 148.312 96.5636 147.936 91.3852L136.073 86.866L131.553 96.4694C130.612 98.8232 126.243 105.225 116.301 112.004C106.359 118.783 104.626 123.867 105.003 125.562L101.613 117.653C98.6946 114.076 89.5808 106.242 76.4749 103.531C60.0926 100.141 47.6646 103.248 37.7787 99.0115Z" fill="#5D6C8C"/>
<path d="M29.8702 119.348C6.37002 113.925 3.31951 88.2783 4.73178 76.1328C2.66043 84.4181 -0.63493 105.395 2.75452 123.02C6.14397 140.645 20.1725 151.077 26.7631 154.09C35.0484 158.139 56.1383 162.79 74.2154 149.006C92.2924 135.222 100.013 133.094 101.613 133.753C101.708 133 100.201 130.364 93.4223 125.845C72.8031 113.417 59.2454 126.127 29.8702 119.348Z" fill="#FAA840"/>
<path d="M134.944 88.2783C117.771 75.1724 127.035 54.9487 133.814 46.4751L144.897 52.5706C144.994 52.5473 145.066 52.5959 145.112 52.6891L144.897 52.5706C144.403 52.6889 143.233 54.6512 141.158 62.0101C138.672 70.8226 143.888 77.7333 146.807 80.0871C144.076 83.1 137.881 88.9562 134.944 88.2783Z" fill="#FAA840"/>
<path d="M210.923 88.2783C228.097 75.1724 218.832 54.9487 212.053 46.4751L200.97 52.5706C200.873 52.5473 200.802 52.5959 200.755 52.6891L200.97 52.5706C201.464 52.6889 202.634 54.6512 204.709 62.0101C207.195 70.8226 201.979 77.7333 199.06 80.0871C201.791 83.1 207.986 88.9562 210.923 88.2783Z" fill="#FAA840"/>
<path d="M134.942 88.2781C137.88 80.8213 143.887 79.8986 146.523 80.3694C148.029 81.2168 152.003 83.9848 155.844 88.2781C159.685 92.5714 159.892 97.4108 159.516 99.2938L149.065 93.9272C145.864 93.174 138.558 90.9897 134.942 88.2781Z" fill="#D1E6F1"/>
<path d="M208.513 89.51C205.575 82.0533 199.568 81.1306 196.932 81.6013C195.426 82.4487 191.452 85.2167 187.611 89.51C183.77 93.8034 183.563 98.6427 183.939 100.526L194.39 95.1591C197.591 94.4059 204.897 92.2216 208.513 89.51Z" fill="#D1E6F1"/>
<path d="M143.982 53.8186C147.371 46.1359 147.559 39.0369 147.371 35.1767C149.819 32.0697 159.799 26.1946 180.136 27.5504C182.019 27.7387 188.553 29.0192 199.625 32.6346C198.495 42.8029 201.414 50.9941 203.015 53.8186C205.651 59.5619 208.438 73.082 198.495 81.2167C188.553 87.5436 185.879 96.2809 185.785 99.8586C183.054 102.024 176.633 106.412 172.792 106.638C168.951 106.863 162.153 101.648 159.234 99.0113C159.517 96.1867 158.387 89.2384 151.608 84.0412C141.214 76.3585 139.745 69.1653 140.31 66.5291C140.122 65.4934 140.592 61.5014 143.982 53.8186Z" fill="#5D6C8C"/>
<path d="M177.875 95.0571H167.989C167.989 96.4694 168.893 99.8024 172.509 101.836C176.124 100.028 177.593 96.5636 177.875 95.0571Z" fill="#FFE2DE"/>
<path d="M134.095 47.0399C146.071 35.5158 157.539 30.3751 161.776 29.2453C154.319 19.3029 141.157 10.3209 136.073 7.77881C134.755 11.3566 133.417 25.3474 134.095 47.0399Z" fill="#FAA840"/>
<path d="M212.618 47.0399C200.642 35.5158 189.174 30.3751 184.937 29.2453C192.394 19.3029 204.144 10.3209 209.228 7.77881C210.546 11.3566 213.296 25.3474 212.618 47.0399Z" fill="#FAA840"/>
<path d="M145.111 53.5364C154.997 12.2981 131.365 1.37658 118.561 1.56488C122.338 10.4794 123.08 18.2297 124.21 30.3752C124.459 33.0533 126.187 43.6505 145.111 53.5364Z" fill="#5D6C8C"/>
<path d="M201.416 53.8216C191.53 12.5833 215.162 1.66174 227.967 1.85004C224.189 10.7646 223.448 18.5148 222.318 30.6604C222.069 33.3384 220.341 43.9357 201.416 53.8216Z" fill="#5D6C8C"/>
<path d="M164.036 102.401C167.52 103.625 175.165 103.87 177.876 95.0571C170.646 95.0571 167.896 95.0571 167.426 95.0571C167.99 98.4466 171.945 104.378 181.548 102.683" stroke="#FFE2DE" stroke-width="1.84564" stroke-linecap="round" stroke-linejoin="round"/>
<path d="M161.252 27.5072C160.76 27.6402 160.469 28.1468 160.602 28.6388C160.735 29.1308 161.242 29.4219 161.734 29.2889L161.252 27.5072ZM184.654 28.398L184.454 29.2989L184.988 29.4175L185.348 29.0062L184.654 28.398ZM229 1L229.756 1.5292C229.953 1.24731 229.977 0.879039 229.818 0.573833C229.659 0.268627 229.344 0.0771819 229 0.0771819V1ZM221.938 32.3524L222.84 32.5484L221.938 32.3524ZM200.189 54.9487L200.647 55.75L200.654 55.7459L200.661 55.7418L200.189 54.9487ZM180.347 74.2539C180.402 74.7607 180.857 75.1275 181.363 75.0732C181.87 75.0189 182.237 74.564 182.183 74.0573L180.347 74.2539ZM161.734 29.2889C169.885 27.086 180.277 28.3707 184.454 29.2989L184.855 27.4972C180.558 26.5424 169.823 25.1908 161.252 27.5072L161.734 29.2889ZM185.348 29.0062C189.31 24.4853 196.276 17.687 204.261 12.0271C212.278 6.34408 221.164 1.92282 229 1.92282V0.0771819C220.566 0.0771819 211.281 4.7886 203.193 10.5214C195.073 16.2774 188.002 23.1781 183.96 27.7899L185.348 29.0062ZM228.244 0.470799C226.97 2.28984 226.003 4.74553 225.235 7.45784C224.463 10.1821 223.874 13.2301 223.387 16.2745C222.899 19.3189 222.51 22.3858 222.144 25.1374C221.776 27.9039 221.433 30.3343 221.037 32.1564L222.84 32.5484C223.255 30.6398 223.607 28.1333 223.973 25.3809C224.342 22.6136 224.727 19.5798 225.209 16.5661C225.691 13.5525 226.267 10.585 227.01 7.96099C227.757 5.32503 228.656 3.0996 229.756 1.5292L228.244 0.470799ZM221.037 32.1564C220.35 35.3128 219.426 38.1465 216.53 41.5011C213.598 44.8981 208.614 48.8626 199.718 54.1557L200.661 55.7418C209.616 50.4146 214.801 46.3292 217.927 42.7071C221.09 39.0428 222.114 35.8885 222.84 32.5484L221.037 32.1564ZM199.732 54.1475C191.757 58.7044 186.86 62.9124 183.981 66.3618C182.542 68.0867 181.598 69.6327 181.031 70.948C180.47 72.2482 180.254 73.3797 180.347 74.2539L182.183 74.0573C182.135 73.6134 182.236 72.8148 182.726 71.6788C183.209 70.558 184.048 69.1618 185.398 67.5443C188.098 64.3089 192.804 60.2315 200.647 55.75L199.732 54.1475Z" fill="#FFE2DE"/>
<path d="M184.896 27.5072C185.388 27.6402 185.679 28.1468 185.546 28.6388C185.413 29.1308 184.907 29.4219 184.415 29.2889L184.896 27.5072ZM161.494 28.398L161.694 29.2989L161.16 29.4175L160.8 29.0062L161.494 28.398ZM117.149 1L116.393 1.5292C116.195 1.24731 116.171 0.879039 116.33 0.573833C116.489 0.268627 116.805 0.0771819 117.149 0.0771819V1ZM124.21 32.3524L123.308 32.5484L124.21 32.3524ZM145.959 54.9487L145.501 55.75L145.494 55.7459L145.487 55.7418L145.959 54.9487ZM165.801 74.2539C165.747 74.7607 165.292 75.1275 164.785 75.0732C164.278 75.0189 163.912 74.564 163.966 74.0573L165.801 74.2539ZM184.415 29.2889C176.264 27.086 165.871 28.3707 161.694 29.2989L161.294 27.4972C165.59 26.5424 176.325 25.1908 184.896 27.5072L184.415 29.2889ZM160.8 29.0062C156.838 24.4853 149.872 17.687 141.888 12.0271C133.87 6.34408 124.984 1.92282 117.149 1.92282V0.0771819C125.583 0.0771819 134.868 4.7886 142.955 10.5214C151.075 16.2774 158.147 23.1781 162.188 27.7899L160.8 29.0062ZM117.905 0.470799C119.178 2.28984 120.145 4.74553 120.914 7.45784C121.686 10.1821 122.275 13.2301 122.762 16.2745C123.249 19.3189 123.638 22.3858 124.005 25.1374C124.373 27.9039 124.716 30.3343 125.112 32.1564L123.308 32.5484C122.893 30.6398 122.541 28.1333 122.175 25.3809C121.807 22.6136 121.422 19.5798 120.939 16.5661C120.457 13.5525 119.882 10.585 119.138 7.96099C118.391 5.32503 117.492 3.0996 116.393 1.5292L117.905 0.470799ZM125.112 32.1564C125.798 35.3128 126.723 38.1465 129.619 41.5011C132.551 44.8981 137.534 48.8626 146.431 54.1557L145.487 55.7418C136.533 50.4146 131.348 46.3292 128.221 42.7071C125.058 39.0428 124.034 35.8885 123.308 32.5484L125.112 32.1564ZM146.417 54.1475C154.392 58.7044 159.289 62.9124 162.167 66.3618C163.607 68.0867 164.55 69.6327 165.117 70.948C165.678 72.2482 165.895 73.3797 165.801 74.2539L163.966 74.0573C164.013 73.6134 163.912 72.8148 163.423 71.6788C162.939 70.558 162.1 69.1618 160.75 67.5443C158.05 64.3089 153.344 60.2315 145.501 55.75L146.417 54.1475Z" fill="#FFE2DE"/>
<path d="M212.617 5.80176C206.403 9.47366 192.798 31.7875 202.514 53.254C209.971 68.6195 204.209 76.4153 197.148 82.0643C190.087 87.7134 186.067 92.2327 186.067 99.5765" stroke="#FFE2DE" stroke-width="1.84564" stroke-linecap="round"/>
<path d="M134.096 6.08398C140.31 9.75589 153.632 32.0698 143.916 53.5363C136.459 68.9018 142.221 76.6975 149.283 82.3466C156.344 87.9957 159.234 92.2325 159.234 99.0114" stroke="#FFE2DE" stroke-width="1.84564" stroke-linecap="round"/>
<path d="M133.53 46.7573C124.962 58.4321 115.171 84.8321 147.935 93.6447C157.539 96.4692 166.86 106.355 172.791 106.355" stroke="#FFE2DE" stroke-width="1.84564" stroke-linecap="round"/>
<path d="M213.182 47.605C221.75 59.2797 230.694 84.8324 197.93 93.645C188.326 96.4695 179.005 106.355 173.074 106.355" stroke="#FFE2DE" stroke-width="1.84564" stroke-linecap="round"/>
<path d="M147.371 80.6517C144.546 79.8044 138.163 80.1433 135.225 88.278C130.028 101.836 126.469 104.378 115.171 112.851C108.166 116.919 104.438 123.208 104.72 125.562C103.873 116.9 91.671 100.875 49.6418 101.553C23.4301 101.553 20.6432 66.7173 22.5262 49.2993C17.121 52.2336 9.40206 60.4369 4.91898 75.2851M4.91898 75.2851C1.20275 87.5934 -1.01652 111.157 3.60177 126.692C9.40336 146.207 25.9157 157.479 45.1226 158.609C61.4767 159.571 76.9457 147.499 84.9486 141.944C90.8802 137.827 96.5293 135.165 101.049 133.471C99.0714 129.516 88.9031 119.913 73.6505 119.913C57.5507 119.913 0.304559 134.036 4.91898 75.2851Z" stroke="#FFE2DE" stroke-width="1.84564" stroke-linecap="round" stroke-linejoin="round"/>
<path d="M100.766 133.471C109.522 131.682 136.524 130.816 159.799 147.311C177.65 159.965 194.54 162.94 200.754 162.846C205.085 148.441 212.73 113.586 208.663 89.4082C207.985 84.2111 201.884 81.4995 198.212 81.4995" stroke="#FFE2DE" stroke-width="1.84564" stroke-linecap="round" stroke-linejoin="round"/>
<path d="M159.235 99.0117C159.686 108.884 156.889 122.288 149.349 134.601C139.559 150.588 123.228 161.999 101.049 161.999C98.5064 157.48 97.3763 139.12 101.049 133.189" stroke="#FFE2DE" stroke-width="1.84564" stroke-linecap="round" stroke-linejoin="round"/>
<path d="M185.785 100.424C185.785 102.038 184.486 122.185 186.349 137.425C188.071 151.512 193.248 159.579 199.624 162.564" stroke="#FFE2DE" stroke-width="1.84564" stroke-linecap="round" stroke-linejoin="round"/>
</svg>
