<svg width="1440" height="184" viewBox="0 0 1440 184" fill="none" xmlns="http://www.w3.org/2000/svg">
<line y1="183" x2="1440" y2="183" stroke="#FFE2DE" stroke-width="2"/>
<line y1="1" x2="1440" y2="1" stroke="#FFE2DE" stroke-width="2"/>
<path d="M61.082 51L57.3906 43.9297H39.168L35.4766 51H32.8008L46.8438 24.1641H49.7148L63.7578 51H61.082ZM48.2891 26.5273L40.3594 41.6836H56.1992L48.2891 26.5273ZM101.223 32.4063C101.223 33.7474 101.001 34.9323 100.559 35.9609C100.129 36.9896 99.4453 37.8555 98.5078 38.5586C97.5703 39.2617 96.3594 39.7956 94.875 40.1602C93.4036 40.5117 91.6263 40.6875 89.543 40.6875L77.4922 40.6875V51H75.0508V24.1641H89.543C91.6263 24.1641 93.4036 24.3464 94.875 24.7109C96.3594 25.0625 97.5703 25.5833 98.5078 26.2734C99.4453 26.9635 100.129 27.8229 100.559 28.8516C101.001 29.8802 101.223 31.0651 101.223 32.4063ZM98.7031 32.4063C98.7031 31.1302 98.4883 30.1016 98.0586 29.3203C97.6419 28.5391 96.9909 27.9401 96.1055 27.5234C95.2331 27.0938 94.1198 26.8073 92.7656 26.6641C91.4245 26.5208 89.8294 26.4492 87.9805 26.4492H77.4922V38.4023L87.9805 38.4023C88.6966 38.4023 89.4583 38.4089 90.2656 38.4219C91.0859 38.4219 91.8932 38.3828 92.6875 38.3047C93.4818 38.2135 94.237 38.0638 94.9531 37.8555C95.6823 37.6341 96.3203 37.3021 96.8672 36.8594C97.4271 36.4167 97.8698 35.8372 98.1953 35.1211C98.5339 34.4049 98.7031 33.5 98.7031 32.4063ZM116.266 39.5156V51H113.824V24.1641H127.184C129.228 24.1641 130.979 24.3268 132.438 24.6523C133.896 24.9648 135.087 25.4466 136.012 26.0977C136.949 26.7357 137.633 27.5365 138.062 28.5C138.492 29.4635 138.707 30.5898 138.707 31.8789C138.707 33.8841 138.18 35.4922 137.125 36.7031C136.07 37.901 134.371 38.7214 132.027 39.1641L141.188 51H138.121L129.469 39.4375C129.104 39.4635 128.733 39.4831 128.355 39.4961C127.978 39.5091 127.587 39.5156 127.184 39.5156H116.266ZM136.188 31.8789C136.188 30.7331 135.986 29.8086 135.582 29.1055C135.178 28.3893 134.521 27.8359 133.609 27.4453C132.698 27.0547 131.5 26.7943 130.016 26.6641C128.544 26.5208 126.734 26.4492 124.586 26.4492H116.266V37.2305H124.508C126.656 37.2305 128.473 37.1719 129.957 37.0547C131.441 36.9245 132.646 36.6706 133.57 36.293C134.495 35.9023 135.159 35.362 135.562 34.6719C135.979 33.9688 136.188 33.0378 136.188 31.8789ZM153.145 51V24.1641H155.586V51H153.145ZM170.629 51V24.1641H173.07V48.7148L192.68 48.7148V51L170.629 51ZM230.715 51H227.844L243.449 26.3906L221.203 26.3906V24.1641L246.809 24.1641V25.5117L230.715 51ZM257.203 38.793V36.3906L272.398 36.3906V38.793L257.203 38.793ZM288.008 51V26.3125L281.602 28.3242V26.1563L288.008 24.1641H290.41V51H288.008ZM318.363 36.6836C319.9 36.8789 321.234 37.1849 322.367 37.6016C323.513 38.0182 324.457 38.513 325.199 39.0859C325.954 39.6589 326.514 40.3099 326.879 41.0391C327.243 41.7552 327.426 42.5169 327.426 43.3242C327.426 44.7305 327.068 45.9544 326.352 46.9961C325.648 48.0247 324.685 48.8776 323.461 49.5547C322.25 50.2188 320.824 50.7135 319.184 51.0391C317.556 51.3646 315.824 51.5273 313.988 51.5273C312.673 51.5273 311.488 51.4753 310.434 51.3711C309.379 51.2799 308.409 51.1432 307.523 50.9609C306.638 50.7786 305.811 50.5638 305.043 50.3164C304.275 50.056 303.526 49.776 302.797 49.4766V46.6445C304.424 47.6081 306.104 48.3112 307.836 48.7539C309.568 49.1836 311.423 49.3984 313.402 49.3984C315.395 49.3984 317.113 49.2552 318.559 48.9688C320.017 48.6693 321.215 48.2591 322.152 47.7383C323.103 47.2044 323.806 46.5664 324.262 45.8242C324.73 45.082 324.965 44.2617 324.965 43.3633C324.965 41.4232 323.786 40.0104 321.43 39.125C319.086 38.2396 315.486 37.7839 310.629 37.7578V35.6484C315.056 35.6484 318.389 35.2643 320.629 34.4961C322.868 33.7148 323.988 32.4714 323.988 30.7656C323.988 29.1771 323.09 27.9466 321.293 27.0742C319.509 26.2018 316.879 25.7656 313.402 25.7656C312.387 25.7656 311.436 25.8177 310.551 25.9219C309.678 26.026 308.839 26.1823 308.031 26.3906C307.224 26.599 306.436 26.8529 305.668 27.1523C304.9 27.4518 304.118 27.8034 303.324 28.207V25.3945C304.197 25.1081 305.049 24.8607 305.883 24.6523C306.716 24.431 307.556 24.2487 308.402 24.1055C309.249 23.9622 310.115 23.8581 311 23.793C311.885 23.7148 312.816 23.6758 313.793 23.6758C314.887 23.6758 315.954 23.7279 316.996 23.832C318.051 23.9362 319.047 24.1055 319.984 24.3398C320.922 24.5612 321.781 24.8542 322.562 25.2188C323.357 25.5703 324.04 26.0065 324.613 26.5273C325.186 27.0352 325.629 27.6276 325.941 28.3047C326.267 28.9818 326.43 29.75 326.43 30.6094C326.43 31.2995 326.26 31.9701 325.922 32.6211C325.596 33.2721 325.095 33.8711 324.418 34.418C323.754 34.9648 322.914 35.4401 321.898 35.8438C320.896 36.2344 319.717 36.5143 318.363 36.6836ZM339.578 54.9648H337.215L338.816 46.7617H342.02L339.578 54.9648ZM372.32 51V49.3594C375.693 47.4714 378.746 45.7396 381.48 44.1641C384.228 42.5755 386.565 41.0911 388.492 39.7109C390.419 38.3177 391.897 36.9961 392.926 35.7461C393.954 34.4831 394.443 33.2331 394.391 31.9961C394.352 31.0716 394.091 30.2318 393.609 29.4766C393.141 28.7083 392.457 28.0573 391.559 27.5234C390.66 26.9766 389.553 26.5534 388.238 26.2539C386.923 25.9544 385.406 25.8047 383.688 25.8047C382.62 25.8047 381.598 25.8633 380.621 25.9805C379.658 26.0977 378.72 26.2799 377.809 26.5273C376.91 26.7617 376.031 27.0612 375.172 27.4258C374.312 27.7904 373.466 28.2201 372.633 28.7148V26.0391C373.531 25.6745 374.404 25.349 375.25 25.0625C376.096 24.763 376.956 24.5091 377.828 24.3008C378.701 24.0924 379.605 23.9362 380.543 23.832C381.48 23.7279 382.483 23.6758 383.551 23.6758C385.465 23.6758 387.236 23.8646 388.863 24.2422C390.491 24.6198 391.897 25.1732 393.082 25.9023C394.267 26.6185 395.191 27.5039 395.855 28.5586C396.533 29.6133 396.871 30.8242 396.871 32.1914C396.871 33.4284 396.448 34.6654 395.602 35.9023C394.755 37.1393 393.518 38.4219 391.891 39.75C390.276 41.0781 388.284 42.4779 385.914 43.9492C383.544 45.4206 380.836 47.0221 377.789 48.7539H397.438V51H372.32ZM436.738 37.6016C436.738 39.099 436.549 40.4857 436.172 41.7617C435.807 43.0247 435.299 44.1706 434.648 45.1992C433.997 46.2279 433.223 47.1393 432.324 47.9336C431.426 48.7148 430.449 49.3724 429.395 49.9063C428.353 50.4401 427.246 50.8438 426.074 51.1172C424.915 51.3906 423.737 51.5273 422.539 51.5273C421.341 51.5273 420.156 51.3906 418.984 51.1172C417.826 50.8438 416.719 50.4401 415.664 49.9063C414.609 49.3724 413.633 48.7148 412.734 47.9336C411.836 47.1393 411.055 46.2279 410.391 45.1992C409.74 44.1706 409.225 43.0247 408.848 41.7617C408.483 40.4857 408.301 39.099 408.301 37.6016C408.301 36.1042 408.483 34.724 408.848 33.4609C409.225 32.1849 409.74 31.0326 410.391 30.0039C411.055 28.9753 411.836 28.0703 412.734 27.2891C413.633 26.4948 414.609 25.8307 415.664 25.2969C416.719 24.763 417.826 24.3594 418.984 24.0859C420.156 23.8125 421.341 23.6758 422.539 23.6758C423.737 23.6758 424.915 23.8125 426.074 24.0859C427.246 24.3594 428.353 24.763 429.395 25.2969C430.449 25.8307 431.426 26.4948 432.324 27.2891C433.223 28.0703 433.997 28.9753 434.648 30.0039C435.299 31.0326 435.807 32.1849 436.172 33.4609C436.549 34.724 436.738 36.1042 436.738 37.6016ZM434.297 37.6016C434.297 36.2734 434.134 35.056 433.809 33.9492C433.496 32.8424 433.06 31.8529 432.5 30.9805C431.953 30.1081 431.302 29.3464 430.547 28.6953C429.792 28.0443 428.978 27.5104 428.105 27.0938C427.246 26.6641 426.341 26.3451 425.391 26.1367C424.44 25.9154 423.49 25.8047 422.539 25.8047C421.107 25.8047 419.688 26.0456 418.281 26.5273C416.875 26.9961 415.612 27.7188 414.492 28.6953C413.372 29.6719 412.467 30.9023 411.777 32.3867C411.087 33.8581 410.742 35.5964 410.742 37.6016C410.742 39.6068 411.087 41.3516 411.777 42.8359C412.467 44.3073 413.372 45.5313 414.492 46.5078C415.612 47.4844 416.875 48.2135 418.281 48.6953C419.688 49.1641 421.107 49.3984 422.539 49.3984C423.49 49.3984 424.44 49.2943 425.391 49.0859C426.341 48.8646 427.253 48.5391 428.125 48.1094C428.997 47.6797 429.811 47.1393 430.566 46.4883C431.322 45.8372 431.973 45.0755 432.52 44.2031C433.079 43.3177 433.516 42.3281 433.828 41.2344C434.141 40.1406 434.297 38.9297 434.297 37.6016ZM446.781 51V49.3594C450.154 47.4714 453.207 45.7396 455.941 44.1641C458.689 42.5755 461.026 41.0911 462.953 39.7109C464.88 38.3177 466.358 36.9961 467.387 35.7461C468.415 34.4831 468.904 33.2331 468.852 31.9961C468.812 31.0716 468.552 30.2318 468.07 29.4766C467.602 28.7083 466.918 28.0573 466.02 27.5234C465.121 26.9766 464.014 26.5534 462.699 26.2539C461.384 25.9544 459.867 25.8047 458.148 25.8047C457.081 25.8047 456.059 25.8633 455.082 25.9805C454.118 26.0977 453.181 26.2799 452.27 26.5273C451.371 26.7617 450.492 27.0612 449.633 27.4258C448.773 27.7904 447.927 28.2201 447.094 28.7148V26.0391C447.992 25.6745 448.865 25.349 449.711 25.0625C450.557 24.763 451.417 24.5091 452.289 24.3008C453.161 24.0924 454.066 23.9362 455.004 23.832C455.941 23.7279 456.944 23.6758 458.012 23.6758C459.926 23.6758 461.697 23.8646 463.324 24.2422C464.952 24.6198 466.358 25.1732 467.543 25.9023C468.728 26.6185 469.652 27.5039 470.316 28.5586C470.993 29.6133 471.332 30.8242 471.332 32.1914C471.332 33.4284 470.909 34.6654 470.062 35.9023C469.216 37.1393 467.979 38.4219 466.352 39.75C464.737 41.0781 462.745 42.4779 460.375 43.9492C458.005 45.4206 455.297 47.0221 452.25 48.7539H471.898V51L446.781 51ZM481.922 51V49.3594C485.294 47.4714 488.348 45.7396 491.082 44.1641C493.829 42.5755 496.167 41.0911 498.094 39.7109C500.021 38.3177 501.499 36.9961 502.527 35.7461C503.556 34.4831 504.044 33.2331 503.992 31.9961C503.953 31.0716 503.693 30.2318 503.211 29.4766C502.742 28.7083 502.059 28.0573 501.16 27.5234C500.262 26.9766 499.155 26.5534 497.84 26.2539C496.525 25.9544 495.008 25.8047 493.289 25.8047C492.221 25.8047 491.199 25.8633 490.223 25.9805C489.259 26.0977 488.322 26.2799 487.41 26.5273C486.512 26.7617 485.633 27.0612 484.773 27.4258C483.914 27.7904 483.068 28.2201 482.234 28.7148V26.0391C483.133 25.6745 484.005 25.349 484.852 25.0625C485.698 24.763 486.557 24.5091 487.43 24.3008C488.302 24.0924 489.207 23.9362 490.145 23.832C491.082 23.7279 492.085 23.6758 493.152 23.6758C495.066 23.6758 496.837 23.8646 498.465 24.2422C500.092 24.6198 501.499 25.1732 502.684 25.9023C503.868 26.6185 504.793 27.5039 505.457 28.5586C506.134 29.6133 506.473 30.8242 506.473 32.1914C506.473 33.4284 506.049 34.6654 505.203 35.9023C504.357 37.1393 503.12 38.4219 501.492 39.75C499.878 41.0781 497.885 42.4779 495.516 43.9492C493.146 45.4206 490.438 47.0221 487.391 48.7539L507.039 48.7539V51L481.922 51Z" fill="#FFE2DE"/>
<path fill-rule="evenodd" clip-rule="evenodd" d="M98.3828 144.29C98.3828 144.842 97.9351 145.29 97.3828 145.29H81.2676C80.7153 145.29 80.2676 144.842 80.2676 144.29V99.7998C80.2676 99.2475 80.7153 98.7998 81.2676 98.7998H97.3828C97.9351 98.7998 98.3828 99.2475 98.3828 99.7998V144.29ZM102 92.7998H125.898C126.451 92.7998 126.898 92.3521 126.898 91.7998V79.2002C126.898 78.6479 126.451 78.2002 125.898 78.2002H52.8008C52.2485 78.2002 51.8008 78.6479 51.8008 79.2002V91.7998C51.8008 92.3521 52.2485 92.7998 52.8008 92.7998H74H79.2676H99.3828H102ZM168.91 79.2002C168.91 78.6479 169.358 78.2002 169.91 78.2002H186.025C186.578 78.2002 187.025 78.6479 187.025 79.2002V144.29C187.025 144.842 186.578 145.29 186.025 145.29H169.91C169.358 145.29 168.91 144.842 168.91 144.29V79.2002ZM323.373 102.203C323.373 101.16 321.976 100.814 321.489 101.736L303.309 136.136C302.934 136.845 301.918 136.847 301.542 136.138L294.014 121.986C293.857 121.692 293.858 121.339 294.014 121.045L316.596 78.7294C316.77 78.4036 317.11 78.2002 317.479 78.2002H340.391C340.943 78.2002 341.391 78.6479 341.391 79.2002V144.29C341.391 144.842 340.943 145.29 340.391 145.29H324.373C323.821 145.29 323.373 144.842 323.373 144.29V102.203ZM298.473 145.285C298.475 145.282 298.475 145.279 298.473 145.276L289.799 128.969C289.797 128.963 289.789 128.963 289.786 128.969C289.784 128.972 289.782 128.973 289.779 128.973C289.776 128.973 289.774 128.971 289.773 128.969L262.962 78.7294C262.788 78.4036 262.449 78.2002 262.08 78.2002H239.07C238.518 78.2002 238.07 78.6479 238.07 79.2002V144.29C238.07 144.842 238.518 145.29 239.07 145.29H255.186C255.738 145.29 256.186 144.842 256.186 144.29V102.203C256.186 101.16 257.582 100.814 258.07 101.736L280.806 144.757C280.98 145.085 281.32 145.29 281.69 145.29H298.465C298.466 145.29 298.467 145.29 298.468 145.289C298.469 145.289 298.47 145.289 298.471 145.288C298.472 145.287 298.473 145.286 298.473 145.285ZM392.387 79.2002C392.387 78.6479 392.834 78.2002 393.387 78.2002H459.307C459.859 78.2002 460.307 78.6479 460.307 79.2002V91.5068C460.307 92.0591 459.859 92.5068 459.307 92.5068H411.99C411.438 92.5068 410.99 92.9546 410.99 93.5068V102.289C410.99 102.29 410.99 102.29 410.989 102.29C410.989 102.29 410.988 102.29 410.988 102.291V120.289C410.988 120.29 410.989 120.29 410.989 120.29C410.99 120.29 410.99 120.29 410.99 120.291V129.983C410.99 130.536 411.438 130.983 411.99 130.983H459.99C460.543 130.983 460.99 131.431 460.99 131.983V144.29C460.99 144.842 460.543 145.29 459.99 145.29H393.387C392.834 145.29 392.387 144.842 392.387 144.29V79.2002ZM414.988 116.897C414.988 117.45 415.436 117.897 415.988 117.897H456.768C457.32 117.897 457.768 117.45 457.768 116.897V104.591C457.768 104.039 457.32 103.591 456.768 103.591H415.988C415.436 103.591 414.988 104.039 414.988 104.591V116.897ZM508.52 79.2002C508.52 78.6479 508.967 78.2002 509.52 78.2002H525.635C526.187 78.2002 526.635 78.6479 526.635 79.2002V129.593C526.635 130.145 527.082 130.593 527.635 130.593H574.609C575.162 130.593 575.609 131.04 575.609 131.593V144.29C575.609 144.842 575.162 145.29 574.609 145.29H509.52C508.967 145.29 508.52 144.842 508.52 144.29V79.2002ZM620.16 79.2002C620.16 78.6479 620.608 78.2002 621.16 78.2002H637.275C637.828 78.2002 638.275 78.6479 638.275 79.2002V144.29C638.275 144.842 637.828 145.29 637.275 145.29H621.16C620.608 145.29 620.16 144.842 620.16 144.29V79.2002ZM709.149 100.941C708.522 100.302 707.436 100.747 707.436 101.642V144.29C707.436 144.842 706.988 145.29 706.436 145.29H690.32C689.768 145.29 689.32 144.842 689.32 144.29V79.2002C689.32 78.6479 689.768 78.2002 690.32 78.2002H708.578C708.846 78.2002 709.104 78.3085 709.292 78.5007L748.101 118.146C748.284 118.333 748.387 118.584 748.387 118.846V138.453C748.387 139.348 747.3 139.792 746.673 139.154L709.149 100.941ZM754.349 106.29C754.328 106.29 754.311 106.273 754.311 106.252V79.2002C754.311 78.6479 754.758 78.2002 755.311 78.2002H771.328C771.88 78.2002 772.328 78.6479 772.328 79.2002V144.29C772.328 144.842 771.88 145.29 771.328 145.29H755.387C754.834 145.29 754.387 144.842 754.387 144.29V106.328C754.387 106.307 754.37 106.29 754.349 106.29ZM823.324 79.2002C823.324 78.6479 823.772 78.2002 824.324 78.2002H890.244C890.796 78.2002 891.244 78.6479 891.244 79.2002V91.5068C891.244 92.0591 890.796 92.5068 890.244 92.5068H842.928C842.375 92.5068 841.928 92.9546 841.928 93.5068V97.1885C841.928 97.1949 841.922 97.2002 841.916 97.2002C841.91 97.2002 841.904 97.2054 841.904 97.2119V124.188C841.904 124.195 841.91 124.2 841.916 124.2C841.92 124.2 841.923 124.202 841.925 124.204C841.927 124.206 841.928 124.209 841.928 124.212V129.983C841.928 130.536 842.375 130.983 842.928 130.983H890.928C891.48 130.983 891.928 131.431 891.928 131.983V144.29C891.928 144.842 891.48 145.29 890.928 145.29H824.324C823.772 145.29 823.324 144.842 823.324 144.29V79.2002ZM848.984 117.897H887.705C888.257 117.897 888.705 117.45 888.705 116.897V104.591C888.705 104.039 888.257 103.591 887.705 103.591H848.984C848.432 103.591 847.984 104.039 847.984 104.591V116.897C847.984 117.45 848.432 117.897 848.984 117.897Z" fill="#FFE2DE"/>
</svg>
