<svg width="1273" height="109" viewBox="0 0 1273 109" fill="none" xmlns="http://www.w3.org/2000/svg">
<path d="M276.752 79.8975V54.4255C276.752 53.1029 276.645 52.0149 276.432 51.1615C276.261 50.2655 276.069 49.5189 275.856 48.9215C275.643 48.3242 275.429 47.8335 275.216 47.4495C275.045 47.0229 274.96 46.6175 274.96 46.2335C274.96 45.9775 275.045 45.7215 275.216 45.4655C275.301 45.2949 275.451 45.1455 275.664 45.0175C275.92 44.8469 276.283 44.7615 276.752 44.7615H303.184C303.952 44.7615 304.315 44.9535 304.272 45.3375C304.272 45.6789 304.165 46.0202 303.952 46.3615L301.52 50.3295C301.392 50.5002 301.243 50.6495 301.072 50.7775C300.944 50.9055 300.795 51.0335 300.624 51.1615C300.453 51.2469 300.261 51.2895 300.048 51.2895C299.835 51.2895 299.6 51.2255 299.344 51.0975C299.003 50.9269 298.725 50.6282 298.512 50.2015C298.341 49.7322 298.043 49.2629 297.616 48.7935C297.232 48.2815 296.635 47.8335 295.824 47.4495C295.056 47.0655 293.904 46.8735 292.368 46.8735H286.928C286.331 46.8735 285.904 47.5775 285.648 48.9855C285.392 50.3509 285.264 52.1642 285.264 54.4255V66.7135C286.885 66.6282 288.123 66.3722 288.976 65.9455C289.829 65.4762 290.491 64.9855 290.96 64.4735C291.429 63.9615 291.813 63.5135 292.112 63.1295C292.411 62.7029 292.795 62.4895 293.264 62.4895C293.435 62.4895 293.605 62.5322 293.776 62.6175C293.904 62.7029 294.011 62.8309 294.096 63.0015C294.224 63.1722 294.288 63.4282 294.288 63.7695V71.7695C294.288 72.0255 294.245 72.2389 294.16 72.4095C293.989 72.8362 293.691 73.0495 293.264 73.0495C292.795 73.0495 292.411 72.8362 292.112 72.4095C291.813 71.9829 291.429 71.5135 290.96 71.0015C290.491 70.4895 289.829 70.0202 288.976 69.5935C288.123 69.1242 286.885 68.8682 285.264 68.8255V79.8975C285.264 81.2202 285.349 82.3295 285.52 83.2255C285.733 84.0789 285.947 84.8042 286.16 85.4015C286.373 85.9989 286.565 86.5109 286.736 86.9375C286.949 87.3215 287.056 87.7055 287.056 88.0895C287.056 88.3455 286.992 88.5802 286.864 88.7935C286.736 89.0069 286.544 89.1989 286.288 89.3695C286.075 89.4975 285.733 89.5615 285.264 89.5615H276.752C276.411 89.5615 276.112 89.4975 275.856 89.3695C275.643 89.2842 275.429 89.1349 275.216 88.9215C275.045 88.7082 274.96 88.4309 274.96 88.0895C274.96 87.7055 275.045 87.3215 275.216 86.9375C275.429 86.5109 275.643 85.9989 275.856 85.4015C276.069 84.8042 276.261 84.0789 276.432 83.2255C276.645 82.3295 276.752 81.2202 276.752 79.8975ZM301.627 62.0415L305.915 58.5215C306.214 58.2655 306.576 58.0522 307.003 57.8815C307.43 57.6682 307.856 57.5615 308.283 57.5615C308.795 57.5615 309.222 57.7535 309.563 58.1375C309.947 58.5215 310.139 59.2469 310.139 60.3135V60.6335C311.248 59.5242 312.443 58.6282 313.723 57.9455C315.046 57.2629 316.518 56.9215 318.139 56.9215C319.12 56.9215 320.166 57.0709 321.275 57.3695C322.384 57.6682 323.408 58.1162 324.347 58.7135C325.286 59.2682 326.054 59.9722 326.651 60.8255C327.248 61.6789 327.547 62.6389 327.547 63.7055C327.547 64.5162 327.206 65.3055 326.523 66.0735C325.84 66.7989 324.88 67.1615 323.643 67.1615C322.491 67.1615 321.595 66.8202 320.955 66.1375C320.358 65.4122 319.846 64.6229 319.419 63.7695C318.992 62.9162 318.587 62.1482 318.203 61.4655C317.862 60.7402 317.328 60.3775 316.603 60.3775C315.707 60.3775 314.683 60.7402 313.531 61.4655C312.379 62.1482 311.248 63.0655 310.139 64.2175V79.8975C310.139 81.2202 310.224 82.3295 310.395 83.2255C310.608 84.0789 310.822 84.8042 311.035 85.4015C311.248 85.9989 311.44 86.5109 311.611 86.9375C311.824 87.3215 311.931 87.7055 311.931 88.0895C311.931 88.3455 311.867 88.5802 311.739 88.7935C311.611 89.0069 311.419 89.1989 311.163 89.3695C310.95 89.4975 310.608 89.5615 310.139 89.5615H301.627C300.432 89.5615 299.835 89.0709 299.835 88.0895C299.835 87.7055 299.92 87.3215 300.091 86.9375C300.304 86.5109 300.518 85.9989 300.731 85.4015C300.944 84.8042 301.136 84.0789 301.307 83.2255C301.52 82.3295 301.627 81.2202 301.627 79.8975V67.2895C301.627 66.5642 301.499 65.9882 301.243 65.5615C301.03 65.0922 300.838 64.6869 300.667 64.3455C300.539 63.9615 300.518 63.6202 300.603 63.3215C300.688 62.9802 301.03 62.5535 301.627 62.0415ZM329.46 72.9855C329.46 67.9509 330.719 64.0255 333.236 61.2095C335.796 58.3509 339.444 56.9215 344.18 56.9215C345.631 56.9215 347.06 57.1135 348.468 57.4975C349.919 57.8389 351.199 58.4149 352.308 59.2255C353.46 59.9935 354.377 61.0175 355.06 62.2975C355.785 63.5349 356.148 65.0495 356.148 66.8415C356.148 68.4202 355.849 69.7002 355.252 70.6815C354.655 71.6202 353.865 72.3669 352.884 72.9215C351.903 73.4335 350.772 73.7962 349.492 74.0095C348.255 74.1802 346.953 74.2655 345.588 74.2655H338.868C338.868 76.7402 339.06 78.8735 339.444 80.6655C339.828 82.4149 340.297 83.8442 340.852 84.9535C341.449 86.0202 342.089 86.8095 342.772 87.3215C343.455 87.8335 344.073 88.0895 344.628 88.0895C345.311 88.0895 345.951 87.9189 346.548 87.5775C347.145 87.1935 347.7 86.7242 348.212 86.1695C348.724 85.5722 349.172 84.9109 349.556 84.1855C349.983 83.4175 350.324 82.6709 350.58 81.9455C350.836 81.2202 351.199 80.7082 351.668 80.4095C352.18 80.1109 352.692 79.9615 353.204 79.9615C353.972 79.9615 354.633 80.2602 355.188 80.8575C355.785 81.4549 355.935 82.2229 355.636 83.1615C355.423 83.8442 355.017 84.5909 354.42 85.4015C353.823 86.2122 353.055 86.9802 352.116 87.7055C351.177 88.3882 350.068 88.9855 348.788 89.4975C347.551 89.9669 346.164 90.2015 344.628 90.2015C342.153 90.2015 339.977 89.7535 338.1 88.8575C336.223 87.9189 334.644 86.6602 333.364 85.0815C332.084 83.5029 331.103 81.6895 330.42 79.6415C329.78 77.5509 329.46 75.3322 329.46 72.9855ZM338.932 72.1535H343.028C343.796 72.1535 344.415 71.9829 344.884 71.6415C345.353 71.3002 345.716 70.8735 345.972 70.3615C346.271 69.8069 346.463 69.2095 346.548 68.5695C346.676 67.8869 346.74 67.2255 346.74 66.5855C346.74 65.6895 346.697 64.7935 346.612 63.8975C346.527 63.0015 346.377 62.1909 346.164 61.4655C345.951 60.7402 345.673 60.1642 345.332 59.7375C345.033 59.2682 344.649 59.0335 344.18 59.0335C343.711 59.0335 343.177 59.3109 342.58 59.8655C342.025 60.4202 341.492 61.2522 340.98 62.3615C340.468 63.4709 340.02 64.8362 339.636 66.4575C339.252 68.0789 339.017 69.9775 338.932 72.1535ZM370.757 56.9215C372.122 56.9215 373.445 57.2202 374.725 57.8175C376.005 58.3722 377.157 59.1829 378.181 60.2495C378.394 60.0362 378.672 59.7802 379.013 59.4815C379.397 59.1829 379.845 58.9055 380.357 58.6495C380.912 58.3509 381.53 58.0949 382.213 57.8815C382.896 57.6682 383.642 57.5615 384.453 57.5615C385.434 57.5615 386.01 57.7962 386.181 58.2655C386.352 58.6922 386.437 59.3962 386.437 60.3775V95.8975C386.437 97.2202 386.522 98.3082 386.693 99.1615C386.906 100.058 387.12 100.804 387.333 101.402C387.546 101.999 387.738 102.49 387.909 102.874C388.122 103.3 388.229 103.706 388.229 104.09C388.229 105.071 387.632 105.562 386.437 105.562H377.925C377.584 105.562 377.285 105.498 377.029 105.37C376.816 105.284 376.602 105.135 376.389 104.922C376.218 104.751 376.133 104.474 376.133 104.09C376.133 103.706 376.218 103.3 376.389 102.874C376.602 102.49 376.816 101.999 377.029 101.402C377.242 100.804 377.434 100.058 377.605 99.1615C377.818 98.3082 377.925 97.2202 377.925 95.8975V87.1935C376.901 88.1322 375.792 88.8789 374.597 89.4335C373.402 89.9455 372.122 90.2015 370.757 90.2015C369.008 90.2015 367.365 89.7535 365.829 88.8575C364.293 87.9615 362.949 86.7455 361.797 85.2095C360.645 83.6735 359.728 81.9029 359.045 79.8975C358.405 77.8922 358.085 75.8015 358.085 73.6255C358.085 71.4069 358.405 69.2949 359.045 67.2895C359.728 65.2842 360.645 63.5135 361.797 61.9775C362.949 60.4415 364.293 59.2255 365.829 58.3295C367.365 57.3909 369.008 56.9215 370.757 56.9215ZM373.317 86.6175C374.17 86.6175 374.981 86.3829 375.749 85.9135C376.56 85.4015 377.285 84.7402 377.925 83.9295V63.2575C377.285 62.4042 376.56 61.7429 375.749 61.2735C374.981 60.7615 374.17 60.5055 373.317 60.5055C372.165 60.5055 371.205 60.9322 370.437 61.7855C369.712 62.5962 369.114 63.6415 368.645 64.9215C368.218 66.2015 367.92 67.6309 367.749 69.2095C367.578 70.7455 367.493 72.2175 367.493 73.6255C367.493 75.0335 367.578 76.5055 367.749 78.0415C367.92 79.5775 368.218 80.9855 368.645 82.2655C369.114 83.5029 369.712 84.5482 370.437 85.4015C371.205 86.2122 372.165 86.6175 373.317 86.6175ZM391.812 62.1695L396.1 58.6495C396.398 58.3509 396.761 58.0949 397.188 57.8815C397.614 57.6682 398.041 57.5615 398.468 57.5615C398.98 57.5615 399.406 57.7749 399.748 58.2015C400.132 58.5855 400.324 59.3322 400.324 60.4415V81.6255C400.324 82.2655 400.324 82.8842 400.324 83.4815C400.366 84.0789 400.452 84.6335 400.58 85.1455C400.75 85.6149 400.985 85.9989 401.284 86.2975C401.625 86.5962 402.073 86.7455 402.628 86.7455C403.652 86.7455 404.761 86.2762 405.956 85.3375C407.193 84.3989 408.324 83.1829 409.348 81.6895V67.4175C408.366 66.3935 407.812 65.5189 407.684 64.7935C407.556 64.0255 408.11 63.1509 409.348 62.1695L413.636 58.6495C413.977 58.3935 414.361 58.1589 414.788 57.9455C415.214 57.6895 415.641 57.5615 416.068 57.5615C416.537 57.5615 416.942 57.7749 417.284 58.2015C417.668 58.5855 417.86 59.3322 417.86 60.4415V79.8975C417.86 81.2202 417.945 82.3295 418.116 83.2255C418.329 84.0789 418.542 84.8042 418.756 85.4015C418.969 85.9989 419.161 86.5109 419.332 86.9375C419.545 87.3215 419.652 87.7055 419.652 88.0895C419.652 89.0709 419.054 89.5615 417.86 89.5615H411.332C410.35 89.5615 409.774 89.3482 409.604 88.9215C409.433 88.4522 409.348 87.7269 409.348 86.7455V85.4655C408.238 86.8309 407.001 87.9615 405.635 88.8575C404.313 89.7535 402.756 90.2015 400.964 90.2015C399.428 90.2015 398.084 90.0735 396.932 89.8175C395.822 89.5615 394.884 89.1135 394.116 88.4735C393.348 87.8335 392.772 86.9802 392.388 85.9135C392.004 84.8469 391.812 83.5029 391.812 81.8815V67.4175C390.83 66.3935 390.276 65.5189 390.148 64.7935C390.02 64.0255 390.574 63.1509 391.812 62.1695ZM421.585 72.9855C421.585 67.9509 422.844 64.0255 425.361 61.2095C427.921 58.3509 431.569 56.9215 436.305 56.9215C437.756 56.9215 439.185 57.1135 440.593 57.4975C442.044 57.8389 443.324 58.4149 444.433 59.2255C445.585 59.9935 446.502 61.0175 447.185 62.2975C447.91 63.5349 448.273 65.0495 448.273 66.8415C448.273 68.4202 447.974 69.7002 447.377 70.6815C446.78 71.6202 445.99 72.3669 445.009 72.9215C444.028 73.4335 442.897 73.7962 441.617 74.0095C440.38 74.1802 439.078 74.2655 437.713 74.2655H430.993C430.993 76.7402 431.185 78.8735 431.569 80.6655C431.953 82.4149 432.422 83.8442 432.977 84.9535C433.574 86.0202 434.214 86.8095 434.897 87.3215C435.58 87.8335 436.198 88.0895 436.753 88.0895C437.436 88.0895 438.076 87.9189 438.673 87.5775C439.27 87.1935 439.825 86.7242 440.337 86.1695C440.849 85.5722 441.297 84.9109 441.681 84.1855C442.108 83.4175 442.449 82.6709 442.705 81.9455C442.961 81.2202 443.324 80.7082 443.793 80.4095C444.305 80.1109 444.817 79.9615 445.329 79.9615C446.097 79.9615 446.758 80.2602 447.313 80.8575C447.91 81.4549 448.06 82.2229 447.761 83.1615C447.548 83.8442 447.142 84.5909 446.545 85.4015C445.948 86.2122 445.18 86.9802 444.241 87.7055C443.302 88.3882 442.193 88.9855 440.913 89.4975C439.676 89.9669 438.289 90.2015 436.753 90.2015C434.278 90.2015 432.102 89.7535 430.225 88.8575C428.348 87.9189 426.769 86.6602 425.489 85.0815C424.209 83.5029 423.228 81.6895 422.545 79.6415C421.905 77.5509 421.585 75.3322 421.585 72.9855ZM431.057 72.1535H435.153C435.921 72.1535 436.54 71.9829 437.009 71.6415C437.478 71.3002 437.841 70.8735 438.097 70.3615C438.396 69.8069 438.588 69.2095 438.673 68.5695C438.801 67.8869 438.865 67.2255 438.865 66.5855C438.865 65.6895 438.822 64.7935 438.737 63.8975C438.652 63.0015 438.502 62.1909 438.289 61.4655C438.076 60.7402 437.798 60.1642 437.457 59.7375C437.158 59.2682 436.774 59.0335 436.305 59.0335C435.836 59.0335 435.302 59.3109 434.705 59.8655C434.15 60.4202 433.617 61.2522 433.105 62.3615C432.593 63.4709 432.145 64.8362 431.761 66.4575C431.377 68.0789 431.142 69.9775 431.057 72.1535ZM452.002 62.0415L456.29 58.5215C456.589 58.2655 456.951 58.0522 457.378 57.8815C457.805 57.6682 458.231 57.5615 458.658 57.5615C459.17 57.5615 459.597 57.7535 459.938 58.1375C460.322 58.5215 460.514 59.2469 460.514 60.3135V61.6575C461.623 60.2922 462.839 59.1615 464.162 58.2655C465.527 57.3695 467.106 56.9215 468.898 56.9215C470.946 56.9215 472.781 57.5829 474.402 58.9055C476.023 60.1855 477.047 62.0202 477.474 64.4095C477.559 64.9215 477.645 65.7109 477.73 66.7775C477.815 67.8442 477.901 69.0389 477.986 70.3615C478.071 71.6415 478.157 73.0069 478.242 74.4575C478.327 75.8655 478.391 77.2095 478.434 78.4895C478.519 79.7269 478.605 80.8575 478.69 81.8815C478.775 82.8629 478.861 83.5669 478.946 83.9935C479.031 84.4629 479.181 84.8682 479.394 85.2095C479.65 85.5082 479.885 85.8069 480.098 86.1055C480.311 86.4042 480.503 86.7029 480.674 87.0015C480.845 87.3002 480.93 87.6629 480.93 88.0895C480.93 88.5589 480.738 88.9215 480.354 89.1775C480.013 89.4335 479.586 89.5615 479.074 89.5615H471.01C470.455 89.5615 469.965 89.3055 469.538 88.7935C469.111 88.2815 468.919 87.4282 468.962 86.2335C469.047 84.3135 469.282 82.0735 469.666 79.5135C470.05 76.9535 470.306 73.8815 470.434 70.2975C470.477 68.8042 470.498 67.4602 470.498 66.2655C470.541 65.0282 470.455 63.9829 470.242 63.1295C470.071 62.2762 469.751 61.6149 469.282 61.1455C468.813 60.6335 468.13 60.3775 467.234 60.3775C466.21 60.3775 465.079 60.8469 463.842 61.7855C462.647 62.7242 461.538 63.9402 460.514 65.4335V79.8975C460.514 81.2202 460.599 82.3295 460.77 83.2255C460.983 84.0789 461.197 84.8042 461.41 85.4015C461.623 85.9989 461.815 86.5109 461.986 86.9375C462.199 87.3215 462.306 87.7055 462.306 88.0895C462.306 88.3455 462.242 88.5802 462.114 88.7935C461.986 89.0069 461.794 89.1989 461.538 89.3695C461.325 89.4975 460.983 89.5615 460.514 89.5615H452.002C450.807 89.5615 450.21 89.0709 450.21 88.0895C450.21 87.7055 450.295 87.3215 450.466 86.9375C450.679 86.5109 450.893 85.9989 451.106 85.4015C451.319 84.8042 451.511 84.0789 451.682 83.2255C451.895 82.3295 452.002 81.2202 452.002 79.8975V67.2895C452.002 66.5642 451.874 65.9882 451.618 65.5615C451.405 65.0922 451.213 64.6869 451.042 64.3455C450.914 63.9615 450.893 63.6202 450.978 63.3215C451.063 62.9802 451.405 62.5535 452.002 62.0415ZM481.361 57.5615H485.841V54.4895C484.859 53.4655 484.305 52.5909 484.177 51.8655C484.049 51.0975 484.603 50.2229 485.841 49.2415L490.129 45.7215C490.427 45.4655 490.79 45.2522 491.217 45.0815C491.643 44.8682 492.07 44.7615 492.497 44.7615C493.009 44.7615 493.435 44.9535 493.777 45.3375C494.161 45.7215 494.353 46.4469 494.353 47.5135V57.5615H498.833C499.217 57.5615 499.494 57.6682 499.665 57.8815C499.835 58.0949 499.921 58.3509 499.921 58.6495C499.921 58.9055 499.835 59.1402 499.665 59.3535C499.494 59.5669 499.217 59.6735 498.833 59.6735H494.353V75.8655C494.353 76.5482 494.353 77.5295 494.353 78.8095C494.395 80.0895 494.481 81.3695 494.609 82.6495C494.737 83.8869 494.929 84.9749 495.185 85.9135C495.441 86.8522 495.803 87.3215 496.273 87.3215C497.126 87.3215 497.659 86.8095 497.873 85.7855C498.086 84.7189 498.257 83.4389 498.385 81.9455C498.47 81.0922 498.769 80.4522 499.281 80.0255C499.835 79.5989 500.433 79.3855 501.073 79.3855C501.798 79.3855 502.438 79.6629 502.993 80.2175C503.59 80.7295 503.846 81.4762 503.761 82.4575C503.718 83.1402 503.505 83.8869 503.121 84.6975C502.737 85.5082 502.182 86.2762 501.457 87.0015C500.731 87.7269 499.793 88.3455 498.641 88.8575C497.531 89.3269 496.187 89.5615 494.609 89.5615C492.987 89.5615 491.643 89.3269 490.577 88.8575C489.553 88.3882 488.699 87.7695 488.017 87.0015C487.377 86.2335 486.907 85.3589 486.609 84.3775C486.31 83.3962 486.097 82.3935 485.969 81.3695C485.841 80.3455 485.777 79.3642 485.777 78.4255C485.819 77.4442 485.841 76.5909 485.841 75.8655V59.6735H481.361C480.977 59.6735 480.699 59.5669 480.529 59.3535C480.358 59.1402 480.273 58.9055 480.273 58.6495C480.273 58.3509 480.358 58.0949 480.529 57.8815C480.699 57.6682 480.977 57.5615 481.361 57.5615ZM507.565 46.0415L511.853 42.5215C512.151 42.2655 512.514 42.0522 512.941 41.8815C513.367 41.6682 513.794 41.5615 514.22 41.5615C514.733 41.5615 515.159 41.7535 515.501 42.1375C515.885 42.5215 516.077 43.2469 516.077 44.3135V79.8975C516.077 81.2202 516.162 82.3295 516.333 83.2255C516.546 84.0789 516.759 84.8042 516.973 85.4015C517.186 85.9989 517.378 86.5109 517.549 86.9375C517.762 87.3215 517.869 87.7055 517.869 88.0895C517.869 88.3455 517.805 88.5802 517.677 88.7935C517.549 89.0069 517.357 89.1989 517.101 89.3695C516.887 89.4975 516.546 89.5615 516.077 89.5615H507.565C507.223 89.5615 506.925 89.4975 506.669 89.3695C506.455 89.2842 506.242 89.1349 506.029 88.9215C505.858 88.7082 505.773 88.4309 505.773 88.0895C505.773 87.7055 505.858 87.3215 506.029 86.9375C506.242 86.5109 506.455 85.9989 506.669 85.4015C506.882 84.8042 507.074 84.0789 507.245 83.2255C507.458 82.3295 507.565 81.2202 507.565 79.8975V51.2895C507.565 50.5642 507.437 49.9882 507.181 49.5615C506.967 49.0922 506.775 48.6869 506.605 48.3455C506.477 47.9615 506.455 47.6202 506.541 47.3215C506.626 46.9802 506.967 46.5535 507.565 46.0415ZM521.565 57.5615H530.781C531.122 57.5615 531.421 57.6255 531.677 57.7535C531.89 57.8389 532.082 57.9882 532.253 58.2015C532.466 58.3722 532.573 58.6495 532.573 59.0335C532.573 59.5882 532.487 60.2069 532.317 60.8895C532.146 61.5295 532.231 62.1909 532.573 62.8735L540.317 79.9615L544.861 67.2255C545.33 65.9029 545.458 64.8149 545.245 63.9615C545.031 63.0655 544.69 62.3189 544.221 61.7215C543.794 61.1242 543.346 60.6335 542.877 60.2495C542.45 59.8229 542.237 59.4175 542.237 59.0335C542.237 58.0522 542.834 57.5615 544.029 57.5615H551.708C552.05 57.5615 552.349 57.6255 552.604 57.7535C552.818 57.8389 553.01 57.9882 553.181 58.2015C553.394 58.3722 553.501 58.6495 553.501 59.0335C553.501 59.4175 553.287 59.7589 552.861 60.0575C552.434 60.3562 551.901 60.7829 551.261 61.3375C550.621 61.8922 549.938 62.6389 549.213 63.5775C548.487 64.4735 547.805 65.6895 547.165 67.2255C546.141 69.7855 545.138 72.5162 544.157 75.4175C543.175 78.2762 542.173 81.1349 541.149 83.9935C540.167 86.8095 539.165 89.5189 538.141 92.1215C537.117 94.7242 536.05 97.0069 534.941 98.9695C533.831 100.975 532.658 102.575 531.421 103.77C530.226 104.964 528.946 105.562 527.581 105.562C526.898 105.562 526.109 105.434 525.213 105.178C524.359 104.964 523.527 104.602 522.717 104.09C521.949 103.62 521.287 102.98 520.733 102.17C520.221 101.359 519.965 100.378 519.965 99.2255C519.965 98.1162 520.327 97.2842 521.053 96.7295C521.821 96.2175 522.653 95.9615 523.549 95.9615C524.402 95.9615 525.149 96.1962 525.789 96.6655C526.471 97.1775 526.812 97.9242 526.812 98.9055C526.812 100.186 526.834 101.252 526.877 102.106C526.919 103.002 527.154 103.45 527.581 103.45C528.349 103.45 529.095 103.13 529.821 102.49C530.546 101.892 531.25 101.039 531.933 99.9295C532.658 98.8629 533.362 97.5829 534.045 96.0895C534.727 94.6389 535.41 93.0389 536.093 91.2895L524.061 64.6655C523.847 64.1962 523.506 63.7055 523.036 63.1935C522.567 62.6815 522.077 62.1909 521.565 61.7215C521.095 61.2522 520.669 60.7829 520.285 60.3135C519.943 59.8442 519.773 59.4175 519.773 59.0335C519.773 58.0522 520.37 57.5615 521.565 57.5615ZM571.398 88.0895C571.398 87.7055 571.611 87.3002 572.038 86.8735C572.464 86.4469 572.955 85.9349 573.51 85.3375C574.107 84.6975 574.726 83.9509 575.366 83.0975C576.048 82.2015 576.603 81.1349 577.03 79.8975L587.526 51.1615L587.27 50.3295C587.142 49.8602 586.95 49.4762 586.694 49.1775C586.48 48.8362 586.267 48.5162 586.054 48.2175C585.84 47.9189 585.648 47.6202 585.478 47.3215C585.35 47.0229 585.286 46.6602 585.286 46.2335C585.286 45.7642 585.456 45.4015 585.798 45.1455C586.182 44.8895 586.63 44.7615 587.142 44.7615H592.966C593.52 44.7615 593.904 45.0602 594.118 45.6575C594.374 46.2549 594.672 47.0442 595.014 48.0255L605.446 79.8975C605.83 81.1349 606.235 82.2015 606.662 83.0975C607.131 83.9509 607.536 84.6975 607.878 85.3375C608.262 85.9349 608.56 86.4469 608.774 86.8735C609.03 87.3002 609.158 87.7055 609.158 88.0895C609.158 88.3455 609.094 88.5802 608.966 88.7935C608.838 89.0069 608.646 89.1989 608.39 89.3695C608.176 89.4975 607.835 89.5615 607.366 89.5615H598.854C597.659 89.5615 597.062 89.0709 597.062 88.0895C597.062 87.7055 597.126 87.3002 597.254 86.8735C597.382 86.4469 597.488 85.9349 597.574 85.3375C597.659 84.7402 597.659 84.0149 597.574 83.1615C597.531 82.2655 597.318 81.1775 596.934 79.8975L595.142 74.1375C595.014 73.6682 594.822 73.2842 594.566 72.9855C594.31 72.6869 593.862 72.5375 593.222 72.5375H582.918C582.491 72.5375 582.15 72.7082 581.894 73.0495C581.68 73.3482 581.51 73.6895 581.382 74.0735L579.334 79.8975C578.95 81.0922 578.843 82.1375 579.014 83.0335C579.184 83.8869 579.44 84.6335 579.782 85.2735C580.123 85.8709 580.464 86.4042 580.806 86.8735C581.19 87.3002 581.382 87.7055 581.382 88.0895C581.382 88.3455 581.318 88.5802 581.19 88.7935C581.062 89.0069 580.87 89.1989 580.614 89.3695C580.4 89.4975 580.059 89.5615 579.59 89.5615H573.19C571.995 89.5615 571.398 89.0709 571.398 88.0895ZM583.494 70.4255H592.774C593.243 70.4255 593.478 70.2762 593.478 69.9775C593.52 69.6362 593.499 69.3589 593.414 69.1455L588.614 54.4255L583.046 69.4655C582.96 69.7215 582.939 69.9562 582.982 70.1695C583.067 70.3402 583.238 70.4255 583.494 70.4255ZM614.989 79.1935C615.757 79.1935 616.397 79.4282 616.909 79.8975C617.421 80.3242 617.848 80.8575 618.189 81.4975C618.53 82.1375 618.85 82.8629 619.149 83.6735C619.448 84.4415 619.768 85.1455 620.109 85.7855C620.45 86.4255 620.856 86.9802 621.325 87.4495C621.837 87.8762 622.477 88.0895 623.245 88.0895C623.842 88.0895 624.376 87.9615 624.845 87.7055C625.357 87.4069 625.784 87.0442 626.125 86.6175C626.466 86.1909 626.722 85.7002 626.893 85.1455C627.106 84.5909 627.213 84.0362 627.213 83.4815C627.213 82.3295 626.808 81.3055 625.997 80.4095C625.229 79.4709 624.248 78.5962 623.053 77.7855C621.858 76.9322 620.578 76.1002 619.213 75.2895C617.848 74.4789 616.568 73.6255 615.373 72.7295C614.178 71.8335 613.176 70.8522 612.365 69.7855C611.597 68.6762 611.213 67.4175 611.213 66.0095C611.213 64.3455 611.64 62.9375 612.493 61.7855C613.389 60.6335 614.477 59.6949 615.757 58.9695C617.037 58.2442 618.402 57.7322 619.853 57.4335C621.304 57.0922 622.626 56.9215 623.821 56.9215C625.698 56.9215 627.384 57.1135 628.877 57.4975C630.37 57.8815 631.65 58.4149 632.717 59.0975C633.784 59.7802 634.594 60.5909 635.149 61.5295C635.746 62.4255 636.045 63.4069 636.045 64.4735C636.045 65.2842 635.704 66.0735 635.021 66.8415C634.338 67.5669 633.378 67.9295 632.141 67.9295C631.373 67.9295 630.733 67.7162 630.221 67.2895C629.709 66.8202 629.282 66.2655 628.941 65.6255C628.6 64.9855 628.28 64.2815 627.981 63.5135C627.682 62.7029 627.362 61.9775 627.021 61.3375C626.68 60.6975 626.253 60.1642 625.741 59.7375C625.272 59.2682 624.653 59.0335 623.885 59.0335C623.288 59.0335 622.733 59.1829 622.221 59.4815C621.752 59.7375 621.346 60.0789 621.005 60.5055C620.664 60.9322 620.386 61.4229 620.173 61.9775C620.002 62.5322 619.917 63.0869 619.917 63.6415C619.917 64.7935 620.301 65.8389 621.069 66.7775C621.88 67.7162 622.882 68.6122 624.077 69.4655C625.314 70.3189 626.616 71.1722 627.981 72.0255C629.389 72.8362 630.69 73.7109 631.885 74.6495C633.122 75.5882 634.125 76.6122 634.893 77.7215C635.704 78.7882 636.109 80.0255 636.109 81.4335C636.109 83.0975 635.661 84.4842 634.765 85.5935C633.869 86.7029 632.76 87.5989 631.437 88.2815C630.157 88.9642 628.77 89.4549 627.277 89.7535C625.826 90.0522 624.504 90.2015 623.309 90.2015C621.474 90.2015 619.789 90.0095 618.253 89.6255C616.76 89.2415 615.48 88.7082 614.413 88.0255C613.346 87.3429 612.514 86.5535 611.917 85.6575C611.362 84.7189 611.085 83.7162 611.085 82.6495C611.085 81.8389 611.426 81.0709 612.109 80.3455C612.792 79.5775 613.752 79.1935 614.989 79.1935ZM639.815 46.0415L644.103 42.5215C644.401 42.2655 644.764 42.0522 645.191 41.8815C645.617 41.6682 646.044 41.5615 646.47 41.5615C646.983 41.5615 647.409 41.7535 647.751 42.1375C648.135 42.5215 648.327 43.2469 648.327 44.3135V69.7215C650.375 69.4655 652.103 69.1029 653.51 68.6335C654.961 68.1215 656.135 67.5029 657.031 66.7775C657.969 66.0522 658.673 65.2202 659.143 64.2815C659.612 63.3429 659.911 62.3402 660.039 61.2735C660.124 60.7189 660.039 60.2282 659.783 59.8015C659.569 59.3749 659.463 58.9909 659.463 58.6495C659.463 58.4362 659.548 58.2442 659.719 58.0735C659.804 57.9455 659.953 57.8389 660.167 57.7535C660.423 57.6255 660.785 57.5615 661.255 57.5615H665.095C666.289 57.5615 666.887 57.9242 666.887 58.6495C666.887 59.0762 666.801 59.4175 666.631 59.6735C666.503 59.9295 666.332 60.3349 666.119 60.8895C665.777 62.1695 665.244 63.3215 664.519 64.3455C663.793 65.3695 662.919 66.2655 661.895 67.0335C660.913 67.8015 659.825 68.4629 658.631 69.0175C657.479 69.5722 656.284 70.0415 655.047 70.4255C656.924 71.0655 658.503 72.0469 659.783 73.3695C661.105 74.6495 662.193 76.0149 663.047 77.4655C663.9 78.8735 664.561 80.2175 665.031 81.4975C665.543 82.7349 665.905 83.6309 666.119 84.1855C666.332 84.6549 666.567 85.0602 666.823 85.4015C667.121 85.7002 667.399 85.9775 667.655 86.2335C667.911 86.4895 668.124 86.7669 668.295 87.0655C668.508 87.3215 668.615 87.6629 668.615 88.0895C668.615 88.6869 668.423 89.0922 668.039 89.3055C667.655 89.4762 667.207 89.5615 666.695 89.5615H658.631C658.076 89.5615 657.649 89.3055 657.351 88.7935C657.052 88.2389 656.796 87.3855 656.583 86.2335C656.327 84.8682 655.964 83.3962 655.495 81.8175C655.068 80.2389 654.513 78.7669 653.831 77.4015C653.148 76.0362 652.337 74.9055 651.399 74.0095C650.503 73.0709 649.479 72.6015 648.327 72.6015V79.8975C648.327 81.2202 648.412 82.3295 648.583 83.2255C648.796 84.0789 649.009 84.8042 649.223 85.4015C649.436 85.9989 649.628 86.5109 649.799 86.9375C650.012 87.3215 650.119 87.7055 650.119 88.0895C650.119 88.3455 650.055 88.5802 649.927 88.7935C649.799 89.0069 649.607 89.1989 649.351 89.3695C649.137 89.4975 648.796 89.5615 648.327 89.5615H639.815C638.62 89.5615 638.023 89.0709 638.023 88.0895C638.023 87.7055 638.108 87.3215 638.279 86.9375C638.492 86.5109 638.705 85.9989 638.919 85.4015C639.132 84.8042 639.324 84.0789 639.495 83.2255C639.708 82.3295 639.815 81.2202 639.815 79.8975V51.2895C638.833 50.2655 638.279 49.3909 638.151 48.6655C638.023 47.8975 638.577 47.0229 639.815 46.0415ZM667.96 72.9855C667.96 67.9509 669.219 64.0255 671.736 61.2095C674.296 58.3509 677.944 56.9215 682.68 56.9215C684.131 56.9215 685.56 57.1135 686.968 57.4975C688.419 57.8389 689.699 58.4149 690.808 59.2255C691.96 59.9935 692.877 61.0175 693.56 62.2975C694.285 63.5349 694.648 65.0495 694.648 66.8415C694.648 68.4202 694.349 69.7002 693.752 70.6815C693.155 71.6202 692.365 72.3669 691.384 72.9215C690.403 73.4335 689.272 73.7962 687.992 74.0095C686.755 74.1802 685.453 74.2655 684.088 74.2655H677.368C677.368 76.7402 677.56 78.8735 677.944 80.6655C678.328 82.4149 678.797 83.8442 679.352 84.9535C679.949 86.0202 680.589 86.8095 681.272 87.3215C681.955 87.8335 682.573 88.0895 683.128 88.0895C683.811 88.0895 684.451 87.9189 685.048 87.5775C685.645 87.1935 686.2 86.7242 686.712 86.1695C687.224 85.5722 687.672 84.9109 688.056 84.1855C688.483 83.4175 688.824 82.6709 689.08 81.9455C689.336 81.2202 689.699 80.7082 690.168 80.4095C690.68 80.1109 691.192 79.9615 691.704 79.9615C692.472 79.9615 693.133 80.2602 693.688 80.8575C694.285 81.4549 694.435 82.2229 694.136 83.1615C693.923 83.8442 693.517 84.5909 692.92 85.4015C692.323 86.2122 691.555 86.9802 690.616 87.7055C689.677 88.3882 688.568 88.9855 687.288 89.4975C686.051 89.9669 684.664 90.2015 683.128 90.2015C680.653 90.2015 678.477 89.7535 676.6 88.8575C674.723 87.9189 673.144 86.6602 671.864 85.0815C670.584 83.5029 669.603 81.6895 668.92 79.6415C668.28 77.5509 667.96 75.3322 667.96 72.9855ZM677.432 72.1535H681.528C682.296 72.1535 682.915 71.9829 683.384 71.6415C683.853 71.3002 684.216 70.8735 684.472 70.3615C684.771 69.8069 684.963 69.2095 685.048 68.5695C685.176 67.8869 685.24 67.2255 685.24 66.5855C685.24 65.6895 685.197 64.7935 685.112 63.8975C685.027 63.0015 684.877 62.1909 684.664 61.4655C684.451 60.7402 684.173 60.1642 683.832 59.7375C683.533 59.2682 683.149 59.0335 682.68 59.0335C682.211 59.0335 681.677 59.3109 681.08 59.8655C680.525 60.4202 679.992 61.2522 679.48 62.3615C678.968 63.4709 678.52 64.8362 678.136 66.4575C677.752 68.0789 677.517 69.9775 677.432 72.1535ZM709.257 56.9215C710.622 56.9215 711.902 57.1989 713.097 57.7535C714.292 58.2655 715.401 58.9909 716.425 59.9295V51.2895C715.444 50.2655 714.889 49.3909 714.761 48.6655C714.633 47.8975 715.188 47.0229 716.425 46.0415L720.713 42.5215C721.012 42.2655 721.374 42.0522 721.801 41.8815C722.228 41.6682 722.654 41.5615 723.081 41.5615C723.593 41.5615 724.02 41.7535 724.361 42.1375C724.745 42.5215 724.937 43.2469 724.937 44.3135V79.8975C724.937 81.2202 725.022 82.3295 725.193 83.2255C725.406 84.0789 725.62 84.8042 725.833 85.4015C726.046 85.9989 726.238 86.5109 726.409 86.9375C726.622 87.3215 726.729 87.7055 726.729 88.0895C726.729 89.0709 726.132 89.5615 724.937 89.5615H718.409C717.513 89.5615 716.958 89.3695 716.745 88.9855C716.532 88.6015 716.425 87.9829 716.425 87.1295C715.401 88.1109 714.292 88.8789 713.097 89.4335C711.902 89.9455 710.622 90.2015 709.257 90.2015C707.508 90.2015 705.865 89.7535 704.329 88.8575C702.793 87.9189 701.449 86.6815 700.297 85.1455C699.145 83.6095 698.228 81.8389 697.545 79.8335C696.905 77.8282 696.585 75.7162 696.585 73.4975C696.585 71.3215 696.905 69.2309 697.545 67.2255C698.228 65.2202 699.145 63.4495 700.297 61.9135C701.449 60.3775 702.793 59.1615 704.329 58.2655C705.865 57.3695 707.508 56.9215 709.257 56.9215ZM705.993 73.4975C705.993 74.9055 706.078 76.3989 706.249 77.9775C706.42 79.5135 706.718 80.9215 707.145 82.2015C707.614 83.4815 708.212 84.5482 708.937 85.4015C709.705 86.2122 710.665 86.6175 711.817 86.6175C712.67 86.6175 713.481 86.3829 714.249 85.9135C715.06 85.4015 715.785 84.7189 716.425 83.8655V63.1935C715.785 62.3829 715.06 61.7429 714.249 61.2735C713.481 60.7615 712.67 60.5055 711.817 60.5055C710.665 60.5055 709.705 60.9322 708.937 61.7855C708.212 62.5962 707.614 63.6415 707.145 64.9215C706.718 66.1589 706.42 67.5455 706.249 69.0815C706.078 70.6175 705.993 72.0895 705.993 73.4975ZM762.376 44.1215C765.149 44.1215 767.624 44.6975 769.8 45.8495C772.018 47.0015 773.874 48.6015 775.368 50.6495C776.904 52.6975 778.077 55.1295 778.888 57.9455C779.698 60.7189 780.104 63.7482 780.104 67.0335C780.104 69.9775 779.784 72.7295 779.144 75.2895C778.504 77.8495 777.586 80.1322 776.392 82.1375C775.197 84.1002 773.725 85.7642 771.976 87.1295C770.226 88.4522 768.242 89.3482 766.024 89.8175C766.536 90.5429 767.197 91.3322 768.008 92.1855C768.861 93.0815 769.821 93.8922 770.888 94.6175C771.741 95.2149 772.637 95.6629 773.576 95.9615C774.514 96.2602 775.389 96.5375 776.2 96.7935C777.053 97.0922 777.8 97.4549 778.44 97.8815C779.122 98.3509 779.613 99.0335 779.912 99.9295C780.125 100.612 780.168 101.274 780.04 101.914C779.954 102.596 779.72 103.194 779.336 103.706C778.952 104.218 778.461 104.644 777.864 104.986C777.309 105.327 776.69 105.519 776.007 105.562H775.432C773.469 105.562 771.72 104.836 770.184 103.386C768.648 101.978 767.176 99.6309 765.768 96.3455L763.4 90.2015H762.376C759.602 90.2015 757.106 89.6255 754.888 88.4735C752.712 87.2789 750.856 85.6575 749.32 83.6095C747.826 81.5189 746.674 79.0655 745.864 76.2495C745.053 73.3909 744.648 70.3189 744.648 67.0335C744.648 63.7482 745.053 60.7189 745.864 57.9455C746.674 55.1295 747.826 52.6975 749.32 50.6495C750.856 48.6015 752.712 47.0015 754.888 45.8495C757.106 44.6975 759.602 44.1215 762.376 44.1215ZM754.056 67.0335C754.056 70.3189 754.29 73.2629 754.76 75.8655C755.272 78.4682 755.912 80.6869 756.68 82.5215C757.49 84.3135 758.386 85.7002 759.368 86.6815C760.392 87.6202 761.394 88.0895 762.376 88.0895C763.357 88.0895 764.338 87.6202 765.32 86.6815C766.344 85.7002 767.24 84.3135 768.008 82.5215C768.818 80.6869 769.458 78.4682 769.928 75.8655C770.44 73.2629 770.696 70.3189 770.696 67.0335C770.696 63.7482 770.44 60.8255 769.928 58.2655C769.458 55.6629 768.818 53.4869 768.008 51.7375C767.24 49.9455 766.344 48.5802 765.32 47.6415C764.338 46.7029 763.357 46.2335 762.376 46.2335C761.394 46.2335 760.392 46.7029 759.368 47.6415C758.386 48.5802 757.49 49.9455 756.68 51.7375C755.912 53.4869 755.272 55.6629 754.76 58.2655C754.29 60.8255 754.056 63.7482 754.056 67.0335ZM783.687 62.1695L787.975 58.6495C788.273 58.3509 788.636 58.0949 789.062 57.8815C789.489 57.6682 789.916 57.5615 790.343 57.5615C790.855 57.5615 791.281 57.7749 791.623 58.2015C792.007 58.5855 792.199 59.3322 792.199 60.4415V81.6255C792.199 82.2655 792.199 82.8842 792.199 83.4815C792.241 84.0789 792.327 84.6335 792.455 85.1455C792.625 85.6149 792.86 85.9989 793.159 86.2975C793.5 86.5962 793.948 86.7455 794.503 86.7455C795.527 86.7455 796.636 86.2762 797.831 85.3375C799.068 84.3989 800.199 83.1829 801.223 81.6895V67.4175C800.241 66.3935 799.687 65.5189 799.559 64.7935C799.431 64.0255 799.985 63.1509 801.223 62.1695L805.511 58.6495C805.852 58.3935 806.236 58.1589 806.663 57.9455C807.089 57.6895 807.516 57.5615 807.943 57.5615C808.412 57.5615 808.817 57.7749 809.159 58.2015C809.543 58.5855 809.735 59.3322 809.735 60.4415V79.8975C809.735 81.2202 809.82 82.3295 809.991 83.2255C810.204 84.0789 810.417 84.8042 810.631 85.4015C810.844 85.9989 811.036 86.5109 811.207 86.9375C811.42 87.3215 811.527 87.7055 811.527 88.0895C811.527 89.0709 810.929 89.5615 809.735 89.5615H803.207C802.225 89.5615 801.649 89.3482 801.479 88.9215C801.308 88.4522 801.223 87.7269 801.223 86.7455V85.4655C800.113 86.8309 798.876 87.9615 797.51 88.8575C796.188 89.7535 794.631 90.2015 792.839 90.2015C791.303 90.2015 789.959 90.0735 788.807 89.8175C787.697 89.5615 786.759 89.1135 785.991 88.4735C785.223 87.8335 784.647 86.9802 784.263 85.9135C783.879 84.8469 783.687 83.5029 783.687 81.8815V67.4175C782.705 66.3935 782.151 65.5189 782.023 64.7935C781.895 64.0255 782.449 63.1509 783.687 62.1695ZM813.46 72.9855C813.46 67.9509 814.719 64.0255 817.236 61.2095C819.796 58.3509 823.444 56.9215 828.18 56.9215C829.631 56.9215 831.06 57.1135 832.468 57.4975C833.919 57.8389 835.199 58.4149 836.308 59.2255C837.46 59.9935 838.377 61.0175 839.06 62.2975C839.785 63.5349 840.148 65.0495 840.148 66.8415C840.148 68.4202 839.849 69.7002 839.252 70.6815C838.655 71.6202 837.865 72.3669 836.884 72.9215C835.903 73.4335 834.772 73.7962 833.492 74.0095C832.255 74.1802 830.953 74.2655 829.588 74.2655H822.868C822.868 76.7402 823.06 78.8735 823.444 80.6655C823.828 82.4149 824.297 83.8442 824.852 84.9535C825.449 86.0202 826.089 86.8095 826.772 87.3215C827.455 87.8335 828.073 88.0895 828.628 88.0895C829.311 88.0895 829.951 87.9189 830.548 87.5775C831.145 87.1935 831.7 86.7242 832.212 86.1695C832.724 85.5722 833.172 84.9109 833.556 84.1855C833.983 83.4175 834.324 82.6709 834.58 81.9455C834.836 81.2202 835.199 80.7082 835.668 80.4095C836.18 80.1109 836.692 79.9615 837.204 79.9615C837.972 79.9615 838.633 80.2602 839.188 80.8575C839.785 81.4549 839.935 82.2229 839.636 83.1615C839.423 83.8442 839.017 84.5909 838.42 85.4015C837.823 86.2122 837.055 86.9802 836.116 87.7055C835.177 88.3882 834.068 88.9855 832.788 89.4975C831.551 89.9669 830.164 90.2015 828.628 90.2015C826.153 90.2015 823.977 89.7535 822.1 88.8575C820.223 87.9189 818.644 86.6602 817.364 85.0815C816.084 83.5029 815.103 81.6895 814.42 79.6415C813.78 77.5509 813.46 75.3322 813.46 72.9855ZM822.932 72.1535H827.028C827.796 72.1535 828.415 71.9829 828.884 71.6415C829.353 71.3002 829.716 70.8735 829.972 70.3615C830.271 69.8069 830.463 69.2095 830.548 68.5695C830.676 67.8869 830.74 67.2255 830.74 66.5855C830.74 65.6895 830.697 64.7935 830.612 63.8975C830.527 63.0015 830.377 62.1909 830.164 61.4655C829.951 60.7402 829.673 60.1642 829.332 59.7375C829.033 59.2682 828.649 59.0335 828.18 59.0335C827.711 59.0335 827.177 59.3109 826.58 59.8655C826.025 60.4202 825.492 61.2522 824.98 62.3615C824.468 63.4709 824.02 64.8362 823.636 66.4575C823.252 68.0789 823.017 69.9775 822.932 72.1535ZM845.989 79.1935C846.757 79.1935 847.397 79.4282 847.909 79.8975C848.421 80.3242 848.848 80.8575 849.189 81.4975C849.53 82.1375 849.85 82.8629 850.149 83.6735C850.448 84.4415 850.768 85.1455 851.109 85.7855C851.45 86.4255 851.856 86.9802 852.325 87.4495C852.837 87.8762 853.477 88.0895 854.245 88.0895C854.842 88.0895 855.376 87.9615 855.845 87.7055C856.357 87.4069 856.784 87.0442 857.125 86.6175C857.466 86.1909 857.722 85.7002 857.893 85.1455C858.106 84.5909 858.213 84.0362 858.213 83.4815C858.213 82.3295 857.808 81.3055 856.997 80.4095C856.229 79.4709 855.248 78.5962 854.053 77.7855C852.858 76.9322 851.578 76.1002 850.213 75.2895C848.848 74.4789 847.568 73.6255 846.373 72.7295C845.178 71.8335 844.176 70.8522 843.365 69.7855C842.597 68.6762 842.213 67.4175 842.213 66.0095C842.213 64.3455 842.64 62.9375 843.493 61.7855C844.389 60.6335 845.477 59.6949 846.757 58.9695C848.037 58.2442 849.402 57.7322 850.853 57.4335C852.304 57.0922 853.626 56.9215 854.821 56.9215C856.698 56.9215 858.384 57.1135 859.877 57.4975C861.37 57.8815 862.65 58.4149 863.717 59.0975C864.784 59.7802 865.594 60.5909 866.149 61.5295C866.746 62.4255 867.045 63.4069 867.045 64.4735C867.045 65.2842 866.704 66.0735 866.021 66.8415C865.338 67.5669 864.378 67.9295 863.141 67.9295C862.373 67.9295 861.733 67.7162 861.221 67.2895C860.709 66.8202 860.282 66.2655 859.941 65.6255C859.6 64.9855 859.28 64.2815 858.981 63.5135C858.682 62.7029 858.362 61.9775 858.021 61.3375C857.68 60.6975 857.253 60.1642 856.741 59.7375C856.272 59.2682 855.653 59.0335 854.885 59.0335C854.288 59.0335 853.733 59.1829 853.221 59.4815C852.752 59.7375 852.346 60.0789 852.005 60.5055C851.664 60.9322 851.386 61.4229 851.173 61.9775C851.002 62.5322 850.917 63.0869 850.917 63.6415C850.917 64.7935 851.301 65.8389 852.069 66.7775C852.88 67.7162 853.882 68.6122 855.077 69.4655C856.314 70.3189 857.616 71.1722 858.981 72.0255C860.389 72.8362 861.69 73.7109 862.885 74.6495C864.122 75.5882 865.125 76.6122 865.893 77.7215C866.704 78.7882 867.109 80.0255 867.109 81.4335C867.109 83.0975 866.661 84.4842 865.765 85.5935C864.869 86.7029 863.76 87.5989 862.437 88.2815C861.157 88.9642 859.77 89.4549 858.277 89.7535C856.826 90.0522 855.504 90.2015 854.309 90.2015C852.474 90.2015 850.789 90.0095 849.253 89.6255C847.76 89.2415 846.48 88.7082 845.413 88.0255C844.346 87.3429 843.514 86.5535 842.917 85.6575C842.362 84.7189 842.085 83.7162 842.085 82.6495C842.085 81.8389 842.426 81.0709 843.109 80.3455C843.792 79.5775 844.752 79.1935 845.989 79.1935ZM868.861 57.5615H873.341V54.4895C872.359 53.4655 871.805 52.5909 871.677 51.8655C871.549 51.0975 872.103 50.2229 873.341 49.2415L877.629 45.7215C877.927 45.4655 878.29 45.2522 878.717 45.0815C879.143 44.8682 879.57 44.7615 879.997 44.7615C880.509 44.7615 880.935 44.9535 881.277 45.3375C881.661 45.7215 881.853 46.4469 881.853 47.5135V57.5615H886.333C886.717 57.5615 886.994 57.6682 887.165 57.8815C887.335 58.0949 887.421 58.3509 887.421 58.6495C887.421 58.9055 887.335 59.1402 887.165 59.3535C886.994 59.5669 886.717 59.6735 886.333 59.6735H881.853V75.8655C881.853 76.5482 881.853 77.5295 881.853 78.8095C881.895 80.0895 881.981 81.3695 882.109 82.6495C882.237 83.8869 882.429 84.9749 882.685 85.9135C882.941 86.8522 883.303 87.3215 883.773 87.3215C884.626 87.3215 885.159 86.8095 885.373 85.7855C885.586 84.7189 885.757 83.4389 885.885 81.9455C885.97 81.0922 886.269 80.4522 886.781 80.0255C887.335 79.5989 887.933 79.3855 888.573 79.3855C889.298 79.3855 889.938 79.6629 890.493 80.2175C891.09 80.7295 891.346 81.4762 891.261 82.4575C891.218 83.1402 891.005 83.8869 890.621 84.6975C890.237 85.5082 889.682 86.2762 888.957 87.0015C888.231 87.7269 887.293 88.3455 886.141 88.8575C885.031 89.3269 883.687 89.5615 882.109 89.5615C880.487 89.5615 879.143 89.3269 878.077 88.8575C877.053 88.3882 876.199 87.7695 875.517 87.0015C874.877 86.2335 874.407 85.3589 874.109 84.3775C873.81 83.3962 873.597 82.3935 873.469 81.3695C873.341 80.3455 873.277 79.3642 873.277 78.4255C873.319 77.4442 873.341 76.5909 873.341 75.8655V59.6735H868.861C868.477 59.6735 868.199 59.5669 868.029 59.3535C867.858 59.1402 867.773 58.9055 867.773 58.6495C867.773 58.3509 867.858 58.0949 868.029 57.8815C868.199 57.6682 868.477 57.5615 868.861 57.5615ZM895.065 62.2975L899.353 58.7775C899.694 58.4789 900.078 58.2015 900.505 57.9455C900.974 57.6895 901.443 57.5615 901.913 57.5615C902.382 57.5615 902.766 57.7749 903.065 58.2015C903.406 58.6282 903.577 59.4175 903.577 60.5695V79.8975C903.577 81.2202 903.662 82.3295 903.833 83.2255C904.046 84.0789 904.259 84.8042 904.473 85.4015C904.686 85.9989 904.878 86.5109 905.049 86.9375C905.262 87.3215 905.369 87.7055 905.369 88.0895C905.369 88.3455 905.305 88.5802 905.177 88.7935C905.049 89.0069 904.857 89.1989 904.601 89.3695C904.387 89.4975 904.046 89.5615 903.577 89.5615H895.065C894.723 89.5615 894.425 89.4975 894.169 89.3695C893.955 89.2842 893.742 89.1349 893.529 88.9215C893.358 88.7082 893.273 88.4309 893.273 88.0895C893.273 87.7055 893.358 87.3215 893.529 86.9375C893.742 86.5109 893.955 85.9989 894.169 85.4015C894.382 84.8042 894.574 84.0789 894.745 83.2255C894.958 82.3295 895.065 81.2202 895.065 79.8975V67.5455C894.083 66.5215 893.529 65.6469 893.401 64.9215C893.273 64.1535 893.827 63.2789 895.065 62.2975ZM899.353 41.5615C900.974 41.5615 902.339 42.1375 903.449 43.2895C904.558 44.4415 905.113 45.8282 905.113 47.4495C905.113 48.2602 904.963 49.0282 904.665 49.7535C904.366 50.4362 903.961 51.0549 903.449 51.6095C902.937 52.1215 902.318 52.5269 901.593 52.8255C900.91 53.1242 900.163 53.2735 899.353 53.2735C897.731 53.2735 896.345 52.7189 895.193 51.6095C894.083 50.4575 893.529 49.0709 893.529 47.4495C893.529 46.6389 893.678 45.8922 893.977 45.2095C894.275 44.4842 894.681 43.8655 895.193 43.3535C895.747 42.7989 896.366 42.3722 897.049 42.0735C897.774 41.7322 898.542 41.5615 899.353 41.5615ZM922.441 56.9215C924.915 56.9215 927.091 57.3269 928.969 58.1375C930.846 58.9055 932.425 60.0362 933.705 61.5295C934.985 62.9802 935.945 64.7295 936.585 66.7775C937.267 68.7829 937.609 71.0442 937.609 73.5615C937.609 76.0362 937.267 78.2975 936.585 80.3455C935.945 82.3935 934.985 84.1642 933.705 85.6575C932.425 87.1082 930.846 88.2389 928.969 89.0495C927.091 89.8175 924.915 90.2015 922.441 90.2015C919.966 90.2015 917.79 89.8175 915.913 89.0495C914.035 88.2389 912.457 87.1082 911.177 85.6575C909.897 84.1642 908.915 82.3935 908.233 80.3455C907.593 78.2975 907.273 76.0362 907.273 73.5615C907.273 71.0442 907.593 68.7829 908.233 66.7775C908.915 64.7295 909.897 62.9802 911.177 61.5295C912.457 60.0362 914.035 58.9055 915.913 58.1375C917.79 57.3269 919.966 56.9215 922.441 56.9215ZM916.681 73.5615C916.681 76.0362 916.851 78.1909 917.193 80.0255C917.534 81.8602 917.982 83.3749 918.537 84.5695C919.091 85.7642 919.71 86.6602 920.393 87.2575C921.075 87.8122 921.758 88.0895 922.441 88.0895C923.123 88.0895 923.806 87.8122 924.489 87.2575C925.171 86.6602 925.79 85.7642 926.345 84.5695C926.899 83.3749 927.347 81.8602 927.689 80.0255C928.03 78.1909 928.201 76.0362 928.201 73.5615C928.201 71.0442 928.03 68.8895 927.689 67.0975C927.347 65.2629 926.899 63.7482 926.345 62.5535C925.79 61.3589 925.171 60.4842 924.489 59.9295C923.806 59.3322 923.123 59.0335 922.441 59.0335C921.758 59.0335 921.075 59.3322 920.393 59.9295C919.71 60.4842 919.091 61.3589 918.537 62.5535C917.982 63.7482 917.534 65.2629 917.193 67.0975C916.851 68.8895 916.681 71.0442 916.681 73.5615ZM941.315 62.0415L945.603 58.5215C945.901 58.2655 946.264 58.0522 946.691 57.8815C947.117 57.6682 947.544 57.5615 947.97 57.5615C948.483 57.5615 948.909 57.7535 949.251 58.1375C949.635 58.5215 949.827 59.2469 949.827 60.3135V61.6575C950.936 60.2922 952.152 59.1615 953.475 58.2655C954.84 57.3695 956.419 56.9215 958.211 56.9215C960.259 56.9215 962.093 57.5829 963.715 58.9055C965.336 60.1855 966.36 62.0202 966.787 64.4095C966.872 64.9215 966.957 65.7109 967.043 66.7775C967.128 67.8442 967.213 69.0389 967.299 70.3615C967.384 71.6415 967.469 73.0069 967.555 74.4575C967.64 75.8655 967.704 77.2095 967.747 78.4895C967.832 79.7269 967.917 80.8575 968.003 81.8815C968.088 82.8629 968.173 83.5669 968.259 83.9935C968.344 84.4629 968.493 84.8682 968.707 85.2095C968.963 85.5082 969.197 85.8069 969.411 86.1055C969.624 86.4042 969.816 86.7029 969.987 87.0015C970.157 87.3002 970.243 87.6629 970.243 88.0895C970.243 88.5589 970.051 88.9215 969.667 89.1775C969.325 89.4335 968.899 89.5615 968.387 89.5615H960.323C959.768 89.5615 959.277 89.3055 958.851 88.7935C958.424 88.2815 958.232 87.4282 958.275 86.2335C958.36 84.3135 958.595 82.0735 958.979 79.5135C959.363 76.9535 959.619 73.8815 959.747 70.2975C959.789 68.8042 959.811 67.4602 959.811 66.2655C959.853 65.0282 959.768 63.9829 959.555 63.1295C959.384 62.2762 959.064 61.6149 958.595 61.1455C958.125 60.6335 957.443 60.3775 956.547 60.3775C955.523 60.3775 954.392 60.8469 953.155 61.7855C951.96 62.7242 950.851 63.9402 949.827 65.4335V79.8975C949.827 81.2202 949.912 82.3295 950.083 83.2255C950.296 84.0789 950.509 84.8042 950.723 85.4015C950.936 85.9989 951.128 86.5109 951.299 86.9375C951.512 87.3215 951.619 87.7055 951.619 88.0895C951.619 88.3455 951.555 88.5802 951.427 88.7935C951.299 89.0069 951.107 89.1989 950.851 89.3695C950.637 89.4975 950.296 89.5615 949.827 89.5615H941.315C940.12 89.5615 939.523 89.0709 939.523 88.0895C939.523 87.7055 939.608 87.3215 939.779 86.9375C939.992 86.5109 940.205 85.9989 940.419 85.4015C940.632 84.8042 940.824 84.0789 940.995 83.2255C941.208 82.3295 941.315 81.2202 941.315 79.8975V67.2895C941.315 66.5642 941.187 65.9882 940.931 65.5615C940.717 65.0922 940.525 64.6869 940.355 64.3455C940.227 63.9615 940.205 63.6202 940.291 63.3215C940.376 62.9802 940.717 62.5535 941.315 62.0415ZM976.052 79.1935C976.82 79.1935 977.46 79.4282 977.972 79.8975C978.484 80.3242 978.91 80.8575 979.252 81.4975C979.593 82.1375 979.913 82.8629 980.212 83.6735C980.51 84.4415 980.83 85.1455 981.172 85.7855C981.513 86.4255 981.918 86.9802 982.388 87.4495C982.9 87.8762 983.54 88.0895 984.308 88.0895C984.905 88.0895 985.438 87.9615 985.908 87.7055C986.42 87.4069 986.846 87.0442 987.188 86.6175C987.529 86.1909 987.785 85.7002 987.956 85.1455C988.169 84.5909 988.276 84.0362 988.276 83.4815C988.276 82.3295 987.87 81.3055 987.06 80.4095C986.292 79.4709 985.31 78.5962 984.116 77.7855C982.921 76.9322 981.641 76.1002 980.276 75.2895C978.91 74.4789 977.63 73.6255 976.436 72.7295C975.241 71.8335 974.238 70.8522 973.428 69.7855C972.66 68.6762 972.276 67.4175 972.276 66.0095C972.276 64.3455 972.702 62.9375 973.556 61.7855C974.452 60.6335 975.54 59.6949 976.82 58.9695C978.1 58.2442 979.465 57.7322 980.916 57.4335C982.366 57.0922 983.689 56.9215 984.884 56.9215C986.761 56.9215 988.446 57.1135 989.94 57.4975C991.433 57.8815 992.713 58.4149 993.78 59.0975C994.846 59.7802 995.657 60.5909 996.212 61.5295C996.809 62.4255 997.108 63.4069 997.108 64.4735C997.108 65.2842 996.766 66.0735 996.084 66.8415C995.401 67.5669 994.441 67.9295 993.204 67.9295C992.436 67.9295 991.796 67.7162 991.284 67.2895C990.772 66.8202 990.345 66.2655 990.003 65.6255C989.662 64.9855 989.342 64.2815 989.044 63.5135C988.745 62.7029 988.425 61.9775 988.083 61.3375C987.742 60.6975 987.316 60.1642 986.804 59.7375C986.334 59.2682 985.716 59.0335 984.948 59.0335C984.35 59.0335 983.796 59.1829 983.284 59.4815C982.814 59.7375 982.409 60.0789 982.068 60.5055C981.726 60.9322 981.449 61.4229 981.236 61.9775C981.065 62.5322 980.98 63.0869 980.98 63.6415C980.98 64.7935 981.364 65.8389 982.132 66.7775C982.942 67.7162 983.945 68.6122 985.14 69.4655C986.377 70.3189 987.678 71.1722 989.044 72.0255C990.452 72.8362 991.753 73.7109 992.948 74.6495C994.185 75.5882 995.188 76.6122 995.956 77.7215C996.766 78.7882 997.172 80.0255 997.172 81.4335C997.172 83.0975 996.724 84.4842 995.828 85.5935C994.932 86.7029 993.822 87.5989 992.5 88.2815C991.22 88.9642 989.833 89.4549 988.34 89.7535C986.889 90.0522 985.566 90.2015 984.372 90.2015C982.537 90.2015 980.852 90.0095 979.316 89.6255C977.822 89.2415 976.542 88.7082 975.476 88.0255C974.409 87.3429 973.577 86.5535 972.98 85.6575C972.425 84.7189 972.148 83.7162 972.148 82.6495C972.148 81.8389 972.489 81.0709 973.172 80.3455C973.854 79.5775 974.814 79.1935 976.052 79.1935Z" fill="#E1DBD2"/>
<g filter="url(#filter0_f_5197_84)">
<line x1="2.5" y1="72.0615" x2="206.5" y2="72.0615" stroke="#E1DBD2" stroke-width="3" stroke-linecap="round"/>
</g>
<g filter="url(#filter1_f_5197_84)">
<line x1="1066.5" y1="72.0615" x2="1270.5" y2="72.0615" stroke="#E1DBD2" stroke-width="3" stroke-linecap="round"/>
</g>
<g filter="url(#filter2_f_5197_84)">
<path d="M1015.75 12.1996C1015.92 11.2736 1017.52 11.4248 1018.2 11.4663C1020.99 11.6372 1021.83 12.215 1023.79 14.237C1026.88 17.4283 1026.7 22.6304 1023.09 25.2329C1019.98 27.478 1014.01 25.689 1010.51 25.5673C1006.33 25.4216 1008.39 31.4632 1006.48 33.71" stroke="#E1DBD2" stroke-width="3.3075" stroke-linecap="round"/>
<path d="M1003.39 41.0262C1004.06 40.9838 1003.61 40.309 1004.06 40.5274C1005.03 40.9995 1005.41 40.6681 1005.67 39.8411" stroke="#E1DBD2" stroke-width="3.3075" stroke-linecap="round"/>
<path d="M983.753 15.5415C983.937 14.9589 986.183 13.9447 986.759 13.7139C989.15 12.7554 993.188 14.4061 995.294 15.3398C997.848 16.472 997.126 20.7219 995.889 22.8578C994.649 24.9998 990.865 24.7509 989.33 27.0192C987.692 29.4404 988.054 31.8421 987.901 34.3399" stroke="#E1DBD2" stroke-width="3.3075" stroke-linecap="round"/>
<path d="M989.365 39.2862C989.327 39.9057 989.399 39.9888 988.898 39.6992" stroke="#E1DBD2" stroke-width="3.3075" stroke-linecap="round"/>
<path d="M1034.77 33.2328C1037.29 33.3869 1039.45 34.3866 1039.38 37.3901C1039.3 40.3683 1038.85 42.8245 1035.87 44.0934C1032.5 45.5298 1027.75 41.9017 1024.65 43.8976C1023.62 44.5623 1022.56 45.7144 1022.45 46.952C1022.38 47.7521 1022.64 48.8975 1021.87 49.2223" stroke="#E1DBD2" stroke-width="3.3075" stroke-linecap="round"/>
<path d="M1018.47 54.313C1018.4 54.7152 1018.31 54.5956 1018 54.726" stroke="#E1DBD2" stroke-width="3.3075" stroke-linecap="round"/>
</g>
<g filter="url(#filter3_f_5197_84)">
<path d="M1015.75 12.1996C1015.92 11.2736 1017.52 11.4248 1018.2 11.4663C1020.99 11.6372 1021.83 12.215 1023.79 14.237C1026.88 17.4283 1026.7 22.6304 1023.09 25.2329C1019.98 27.478 1014.01 25.689 1010.51 25.5673C1006.33 25.4216 1008.39 31.4632 1006.48 33.71" stroke="#E1DBD2" stroke-width="3.3075" stroke-linecap="round"/>
<path d="M1003.39 41.0262C1004.06 40.9838 1003.61 40.309 1004.06 40.5274C1005.03 40.9995 1005.41 40.6681 1005.67 39.8411" stroke="#E1DBD2" stroke-width="3.3075" stroke-linecap="round"/>
<path d="M983.753 15.5415C983.937 14.9589 986.183 13.9447 986.759 13.7139C989.15 12.7554 993.188 14.4061 995.294 15.3398C997.848 16.472 997.126 20.7219 995.889 22.8578C994.649 24.9998 990.865 24.7509 989.33 27.0192C987.692 29.4404 988.054 31.8421 987.901 34.3399" stroke="#E1DBD2" stroke-width="3.3075" stroke-linecap="round"/>
<path d="M989.365 39.2862C989.327 39.9057 989.399 39.9888 988.898 39.6992" stroke="#E1DBD2" stroke-width="3.3075" stroke-linecap="round"/>
<path d="M1034.77 33.2328C1037.29 33.3869 1039.45 34.3866 1039.38 37.3901C1039.3 40.3683 1038.85 42.8245 1035.87 44.0934C1032.5 45.5298 1027.75 41.9017 1024.65 43.8976C1023.62 44.5623 1022.56 45.7144 1022.45 46.952C1022.38 47.7521 1022.64 48.8975 1021.87 49.2223" stroke="#E1DBD2" stroke-width="3.3075" stroke-linecap="round"/>
<path d="M1018.47 54.313C1018.4 54.7152 1018.31 54.5956 1018 54.726" stroke="#E1DBD2" stroke-width="3.3075" stroke-linecap="round"/>
</g>
<defs>
<filter id="filter0_f_5197_84" x="0" y="69.5615" width="209" height="5" filterUnits="userSpaceOnUse" color-interpolation-filters="sRGB">
<feFlood flood-opacity="0" result="BackgroundImageFix"/>
<feBlend mode="normal" in="SourceGraphic" in2="BackgroundImageFix" result="shape"/>
<feGaussianBlur stdDeviation="0.5" result="effect1_foregroundBlur_5197_84"/>
</filter>
<filter id="filter1_f_5197_84" x="1064" y="69.5615" width="209" height="5" filterUnits="userSpaceOnUse" color-interpolation-filters="sRGB">
<feFlood flood-opacity="0" result="BackgroundImageFix"/>
<feBlend mode="normal" in="SourceGraphic" in2="BackgroundImageFix" result="shape"/>
<feGaussianBlur stdDeviation="0.5" result="effect1_foregroundBlur_5197_84"/>
</filter>
<filter id="filter2_f_5197_84" x="978.099" y="5.77783" width="66.9321" height="54.6025" filterUnits="userSpaceOnUse" color-interpolation-filters="sRGB">
<feFlood flood-opacity="0" result="BackgroundImageFix"/>
<feBlend mode="normal" in="SourceGraphic" in2="BackgroundImageFix" result="shape"/>
<feGaussianBlur stdDeviation="2" result="effect1_foregroundBlur_5197_84"/>
</filter>
<filter id="filter3_f_5197_84" x="981.099" y="8.77783" width="60.9321" height="48.6025" filterUnits="userSpaceOnUse" color-interpolation-filters="sRGB">
<feFlood flood-opacity="0" result="BackgroundImageFix"/>
<feBlend mode="normal" in="SourceGraphic" in2="BackgroundImageFix" result="shape"/>
<feGaussianBlur stdDeviation="0.5" result="effect1_foregroundBlur_5197_84"/>
</filter>
</defs>
</svg>
