<svg width="1273" height="110" viewBox="0 0 1273 110" fill="none" xmlns="http://www.w3.org/2000/svg">
<g filter="url(#filter0_f_5215_84)">
<path d="M276.752 54.4255V79.8975C276.752 85.1455 274.96 86.6175 274.96 88.0895C274.96 88.0895 274.96 89.5615 276.752 89.5615H285.264C285.264 89.5615 287.056 89.5615 287.056 88.0895C287.056 86.6175 285.264 85.1455 285.264 79.8975V68.8255C291.664 69.0815 291.408 73.0495 293.264 73.0495C293.264 73.0495 294.288 73.0495 294.288 71.7695V63.7695C294.288 63.7695 294.288 62.4895 293.264 62.4895C291.408 62.4895 291.664 66.4575 285.264 66.7135V54.4255C285.264 49.9455 285.712 46.8735 286.928 46.8735H292.368C298.448 46.8735 298.064 50.3295 299.344 51.0975C299.856 51.4175 299.536 51.2255 300.176 51.2255C300.688 51.2255 301.136 50.9695 301.52 50.3295L303.952 46.3615C304.336 45.7215 304.72 44.7615 303.184 44.7615H276.752C276.752 44.7615 274.96 44.7615 274.96 46.2335C274.96 47.7055 276.752 49.1775 276.752 54.4255ZM301.627 67.2895V79.8975C301.627 85.1455 299.835 86.6175 299.835 88.0895C299.835 89.0495 300.411 89.5615 301.627 89.5615H310.139C310.139 89.5615 311.931 89.5615 311.931 88.0895C311.931 86.6175 310.139 85.1455 310.139 79.8975V64.2175C312.315 61.9135 314.811 60.3775 316.603 60.3775C319.419 60.3775 318.971 67.1615 323.643 67.1615C326.139 67.1615 327.547 65.3055 327.547 63.7055C327.547 59.4175 322.107 56.9215 318.139 56.9215C314.939 56.9215 312.315 58.4575 310.139 60.6335V60.3135C310.139 58.2015 309.307 57.5615 308.283 57.5615C307.451 57.5615 306.491 58.0095 305.915 58.5215L301.627 62.0415C299.195 64.0255 301.627 64.4095 301.627 67.2895ZM344.628 90.2015C350.772 90.2015 354.804 85.8495 355.636 83.1615C356.212 81.3055 354.74 79.9615 353.204 79.9615C352.18 79.9615 351.092 80.5375 350.58 81.9455C349.492 84.8895 347.38 88.0895 344.628 88.0895C342.388 88.0895 338.868 84.2495 338.868 74.2655H345.588C351.028 74.2655 356.148 73.1135 356.148 66.8415C356.148 59.6095 350.004 56.9215 344.18 56.9215C334.772 56.9215 329.46 63.0015 329.46 72.9855C329.46 82.3295 334.772 90.2015 344.628 90.2015ZM344.18 59.0335C346.036 59.0335 346.74 63.0015 346.74 66.5855C346.74 69.1455 346.036 72.1535 343.028 72.1535H338.932C339.316 63.5135 342.324 59.0335 344.18 59.0335ZM358.085 73.6255C358.085 82.3935 363.717 90.2015 370.757 90.2015C373.445 90.2015 375.877 89.0495 377.925 87.1935V95.8975C377.925 101.146 376.133 102.618 376.133 104.09C376.133 104.09 376.133 105.562 377.925 105.562H386.437C387.653 105.562 388.229 105.05 388.229 104.09C388.229 102.618 386.437 101.146 386.437 95.8975V60.3775C386.437 58.4575 386.373 57.5615 384.453 57.5615C381.253 57.5615 378.949 59.4815 378.181 60.2495C376.133 58.1375 373.509 56.9215 370.757 56.9215C363.717 56.9215 358.085 64.7935 358.085 73.6255ZM367.493 73.6255C367.493 67.9295 368.773 60.5055 373.317 60.5055C375.045 60.5055 376.645 61.5935 377.925 63.2575V83.9295C376.645 85.5295 375.045 86.6175 373.317 86.6175C368.773 86.6175 367.493 79.2575 367.493 73.6255ZM391.812 67.4175V81.8815C391.812 88.4095 394.884 90.2015 400.964 90.2015C404.484 90.2015 407.172 88.1535 409.348 85.4655V86.7455C409.348 88.6655 409.412 89.5615 411.332 89.5615H417.86C419.076 89.5615 419.652 89.0495 419.652 88.0895C419.652 86.6175 417.86 85.1455 417.86 79.8975V60.4415C417.86 58.2655 417.028 57.5615 416.068 57.5615C415.236 57.5615 414.276 58.1375 413.636 58.6495L409.348 62.1695C406.916 64.1535 407.364 65.3695 409.348 67.4175V81.6895C407.3 84.6975 404.676 86.7455 402.628 86.7455C400.388 86.7455 400.324 84.1215 400.324 81.6255V60.4415C400.324 58.2655 399.492 57.5615 398.468 57.5615C397.635 57.5615 396.676 58.0735 396.1 58.6495L391.812 62.1695C389.38 64.1535 389.828 65.3695 391.812 67.4175ZM436.753 90.2015C442.897 90.2015 446.929 85.8495 447.761 83.1615C448.337 81.3055 446.865 79.9615 445.329 79.9615C444.305 79.9615 443.217 80.5375 442.705 81.9455C441.617 84.8895 439.505 88.0895 436.753 88.0895C434.513 88.0895 430.993 84.2495 430.993 74.2655H437.713C443.153 74.2655 448.273 73.1135 448.273 66.8415C448.273 59.6095 442.129 56.9215 436.305 56.9215C426.897 56.9215 421.585 63.0015 421.585 72.9855C421.585 82.3295 426.897 90.2015 436.753 90.2015ZM436.305 59.0335C438.161 59.0335 438.865 63.0015 438.865 66.5855C438.865 69.1455 438.161 72.1535 435.153 72.1535H431.057C431.441 63.5135 434.449 59.0335 436.305 59.0335ZM452.002 67.2895V79.8975C452.002 85.1455 450.21 86.6175 450.21 88.0895C450.21 89.0495 450.786 89.5615 452.002 89.5615H460.514C460.514 89.5615 462.306 89.5615 462.306 88.0895C462.306 86.6175 460.514 85.1455 460.514 79.8975V65.4335C462.562 62.4255 465.186 60.3775 467.234 60.3775C470.818 60.3775 470.626 64.4095 470.434 70.2975C470.178 77.4655 469.09 82.3935 468.962 86.2335C468.898 88.6015 469.922 89.5615 471.01 89.5615H479.074C480.098 89.5615 480.93 89.0495 480.93 88.0895C480.93 86.3615 479.33 85.9135 478.946 83.9935C478.434 81.3695 478.05 67.6095 477.474 64.4095C476.642 59.6735 472.994 56.9215 468.898 56.9215C465.378 56.9215 462.69 58.9695 460.514 61.6575V60.3135C460.514 58.2015 459.682 57.5615 458.658 57.5615C457.826 57.5615 456.866 58.0095 456.29 58.5215L452.002 62.0415C449.57 64.0255 452.002 64.4095 452.002 67.2895ZM481.361 59.6735H485.841V75.8655C485.841 80.2815 484.945 89.5615 494.609 89.5615C500.945 89.5615 503.505 85.1455 503.761 82.4575C503.953 80.4735 502.545 79.3855 501.073 79.3855C499.793 79.3855 498.513 80.2175 498.385 81.9455C498.193 84.9535 498.001 87.3215 496.273 87.3215C494.353 87.3215 494.353 78.5535 494.353 75.8655V59.6735H498.833C500.305 59.6735 500.305 57.5615 498.833 57.5615H494.353V47.5135C494.353 45.4015 493.521 44.7615 492.497 44.7615C491.665 44.7615 490.705 45.2095 490.129 45.7215L485.841 49.2415C483.409 51.2255 483.857 52.4415 485.841 54.4895V57.5615H481.361C479.889 57.5615 479.889 59.6735 481.361 59.6735ZM507.565 51.2895V79.8975C507.565 85.1455 505.773 86.6175 505.773 88.0895C505.773 88.0895 505.773 89.5615 507.565 89.5615H516.077C516.077 89.5615 517.869 89.5615 517.869 88.0895C517.869 86.6175 516.077 85.1455 516.077 79.8975V44.3135C516.077 42.2015 515.245 41.5615 514.22 41.5615C513.389 41.5615 512.429 42.0095 511.853 42.5215L507.565 46.0415C505.133 48.0255 507.565 48.4095 507.565 51.2895ZM524.061 64.6655L536.093 91.2895C533.405 98.2655 530.653 103.45 527.581 103.45C526.749 103.45 526.812 101.466 526.812 98.9055C526.812 96.9215 525.213 95.9615 523.549 95.9615C521.757 95.9615 519.965 97.0495 519.965 99.2255C519.965 103.834 524.893 105.562 527.581 105.562C535.837 105.562 541.021 82.5215 547.165 67.2255C549.661 61.0175 553.501 60.5055 553.501 59.0335C553.501 59.0335 553.501 57.5615 551.708 57.5615H544.029C542.813 57.5615 542.237 58.0735 542.237 59.0335C542.237 60.5055 546.717 61.9775 544.861 67.2255L540.317 79.9615L532.573 62.8735C531.933 61.5295 532.573 60.1215 532.573 59.0335C532.573 59.0335 532.573 57.5615 530.781 57.5615H521.565C520.349 57.5615 519.773 58.0735 519.773 59.0335C519.773 60.6335 523.165 62.7455 524.061 64.6655ZM571.398 88.0895C571.398 89.0495 571.974 89.5615 573.19 89.5615H579.59C579.59 89.5615 581.382 89.5615 581.382 88.0895C581.382 86.6175 577.798 84.6975 579.334 79.8975L581.382 74.0735C581.638 73.3055 582.086 72.5375 582.918 72.5375H593.222C594.502 72.5375 594.886 73.2415 595.142 74.1375L596.934 79.8975C598.534 84.9535 597.062 86.6175 597.062 88.0895C597.062 89.0495 597.638 89.5615 598.854 89.5615H607.366C607.366 89.5615 609.158 89.5615 609.158 88.0895C609.158 86.6175 607.046 84.8895 605.446 79.8975L595.014 48.0255C594.374 46.0415 594.054 44.7615 592.966 44.7615H587.142C586.118 44.7615 585.286 45.2735 585.286 46.2335C585.286 47.9615 586.694 48.4735 587.27 50.3295L587.526 51.1615L577.03 79.8975C575.238 84.8895 571.398 86.6175 571.398 88.0895ZM583.046 69.4655L588.614 54.4255L593.414 69.1455C593.542 69.5295 593.67 70.4255 592.774 70.4255H583.494C582.982 70.4255 582.854 69.9775 583.046 69.4655ZM623.309 90.2015C628.045 90.2015 636.109 88.0255 636.109 81.4335C636.109 73.0495 619.917 70.5535 619.917 63.6415C619.917 61.4015 621.517 59.0335 623.885 59.0335C628.493 59.0335 627.469 67.9295 632.141 67.9295C634.637 67.9295 636.045 66.0735 636.045 64.4735C636.045 60.1855 631.245 56.9215 623.821 56.9215C619.085 56.9215 611.213 59.4175 611.213 66.0095C611.213 74.3935 627.213 76.5695 627.213 83.4815C627.213 85.7215 625.613 88.0895 623.245 88.0895C618.637 88.0895 619.661 79.1935 614.989 79.1935C612.493 79.1935 611.085 81.0495 611.085 82.6495C611.085 86.9375 615.885 90.2015 623.309 90.2015ZM639.815 51.2895V79.8975C639.815 85.1455 638.023 86.6175 638.023 88.0895C638.023 89.0495 638.599 89.5615 639.815 89.5615H648.327C648.327 89.5615 650.119 89.5615 650.119 88.0895C650.119 86.6175 648.327 85.1455 648.327 79.8975V72.6015C652.999 72.6015 655.559 80.8575 656.583 86.2335C657.031 88.5375 657.543 89.5615 658.631 89.5615H666.695C667.719 89.5615 668.615 89.2415 668.615 88.0895C668.615 86.3615 666.887 86.1055 666.119 84.1855C665.223 81.9455 662.471 72.9855 655.047 70.4255C659.975 68.8895 664.775 66.0735 666.119 60.8895C666.567 59.8015 666.887 59.4815 666.887 58.6495C666.887 57.9455 666.311 57.5615 665.095 57.5615H661.255C661.255 57.5615 659.463 57.5615 659.463 58.6495C659.463 59.2895 660.167 60.1855 660.039 61.2735C659.527 65.6255 656.519 68.7615 648.327 69.7215V44.3135C648.327 42.2015 647.495 41.5615 646.47 41.5615C645.639 41.5615 644.679 42.0095 644.103 42.5215L639.815 46.0415C637.383 48.0255 637.831 49.2415 639.815 51.2895ZM683.128 90.2015C689.272 90.2015 693.304 85.8495 694.136 83.1615C694.712 81.3055 693.24 79.9615 691.704 79.9615C690.68 79.9615 689.592 80.5375 689.08 81.9455C687.992 84.8895 685.88 88.0895 683.128 88.0895C680.888 88.0895 677.368 84.2495 677.368 74.2655H684.088C689.528 74.2655 694.648 73.1135 694.648 66.8415C694.648 59.6095 688.504 56.9215 682.68 56.9215C673.272 56.9215 667.96 63.0015 667.96 72.9855C667.96 82.3295 673.272 90.2015 683.128 90.2015ZM682.68 59.0335C684.536 59.0335 685.24 63.0015 685.24 66.5855C685.24 69.1455 684.536 72.1535 681.528 72.1535H677.432C677.816 63.5135 680.824 59.0335 682.68 59.0335ZM709.257 90.2015C711.945 90.2015 714.377 89.0495 716.425 87.1295C716.425 88.7935 716.617 89.5615 718.409 89.5615H724.937C726.153 89.5615 726.729 89.0495 726.729 88.0895C726.729 86.6175 724.937 85.1455 724.937 79.8975V44.3135C724.937 42.2015 724.105 41.5615 723.081 41.5615C722.249 41.5615 721.289 42.0095 720.713 42.5215L716.425 46.0415C713.993 48.0255 714.441 49.2415 716.425 51.2895V59.9295C714.377 58.0735 711.945 56.9215 709.257 56.9215C702.217 56.9215 696.585 64.7295 696.585 73.4975C696.585 82.3295 702.217 90.2015 709.257 90.2015ZM705.993 73.4975C705.993 67.8655 707.273 60.5055 711.817 60.5055C713.545 60.5055 715.145 61.5935 716.425 63.1935V83.8655C715.145 85.5295 713.545 86.6175 711.817 86.6175C707.273 86.6175 705.993 79.1935 705.993 73.4975ZM762.376 90.2015H763.4L765.768 96.3455C768.584 102.81 771.464 105.562 775.368 105.562C775.56 105.562 775.816 105.562 776.007 105.562C778.76 105.562 780.808 102.682 779.912 99.9295C778.76 96.3455 774.28 96.9855 770.888 94.6175C768.776 93.1455 767.048 91.2255 766.024 89.8175C774.92 87.8975 780.104 78.7455 780.104 67.0335C780.104 53.8495 773.512 44.1215 762.376 44.1215C751.24 44.1215 744.648 53.8495 744.648 67.0335C744.648 80.2175 751.24 90.2015 762.376 90.2015ZM762.376 46.2335C766.344 46.2335 770.696 53.8495 770.696 67.0335C770.696 80.2175 766.344 88.0895 762.376 88.0895C758.408 88.0895 754.056 80.2175 754.056 67.0335C754.056 53.8495 758.408 46.2335 762.376 46.2335ZM783.687 67.4175V81.8815C783.687 88.4095 786.759 90.2015 792.839 90.2015C796.359 90.2015 799.047 88.1535 801.223 85.4655V86.7455C801.223 88.6655 801.287 89.5615 803.207 89.5615H809.735C810.951 89.5615 811.527 89.0495 811.527 88.0895C811.527 86.6175 809.735 85.1455 809.735 79.8975V60.4415C809.735 58.2655 808.903 57.5615 807.943 57.5615C807.111 57.5615 806.151 58.1375 805.511 58.6495L801.223 62.1695C798.791 64.1535 799.239 65.3695 801.223 67.4175V81.6895C799.175 84.6975 796.551 86.7455 794.503 86.7455C792.263 86.7455 792.199 84.1215 792.199 81.6255V60.4415C792.199 58.2655 791.367 57.5615 790.343 57.5615C789.51 57.5615 788.551 58.0735 787.975 58.6495L783.687 62.1695C781.255 64.1535 781.703 65.3695 783.687 67.4175ZM828.628 90.2015C834.772 90.2015 838.804 85.8495 839.636 83.1615C840.212 81.3055 838.74 79.9615 837.204 79.9615C836.18 79.9615 835.092 80.5375 834.58 81.9455C833.492 84.8895 831.38 88.0895 828.628 88.0895C826.388 88.0895 822.868 84.2495 822.868 74.2655H829.588C835.028 74.2655 840.148 73.1135 840.148 66.8415C840.148 59.6095 834.004 56.9215 828.18 56.9215C818.772 56.9215 813.46 63.0015 813.46 72.9855C813.46 82.3295 818.772 90.2015 828.628 90.2015ZM828.18 59.0335C830.036 59.0335 830.74 63.0015 830.74 66.5855C830.74 69.1455 830.036 72.1535 827.028 72.1535H822.932C823.316 63.5135 826.324 59.0335 828.18 59.0335ZM854.309 90.2015C859.045 90.2015 867.109 88.0255 867.109 81.4335C867.109 73.0495 850.917 70.5535 850.917 63.6415C850.917 61.4015 852.517 59.0335 854.885 59.0335C859.493 59.0335 858.469 67.9295 863.141 67.9295C865.637 67.9295 867.045 66.0735 867.045 64.4735C867.045 60.1855 862.245 56.9215 854.821 56.9215C850.085 56.9215 842.213 59.4175 842.213 66.0095C842.213 74.3935 858.213 76.5695 858.213 83.4815C858.213 85.7215 856.613 88.0895 854.245 88.0895C849.637 88.0895 850.661 79.1935 845.989 79.1935C843.493 79.1935 842.085 81.0495 842.085 82.6495C842.085 86.9375 846.885 90.2015 854.309 90.2015ZM868.861 59.6735H873.341V75.8655C873.341 80.2815 872.445 89.5615 882.109 89.5615C888.445 89.5615 891.005 85.1455 891.261 82.4575C891.453 80.4735 890.045 79.3855 888.573 79.3855C887.293 79.3855 886.013 80.2175 885.885 81.9455C885.693 84.9535 885.501 87.3215 883.773 87.3215C881.853 87.3215 881.853 78.5535 881.853 75.8655V59.6735H886.333C887.805 59.6735 887.805 57.5615 886.333 57.5615H881.853V47.5135C881.853 45.4015 881.021 44.7615 879.997 44.7615C879.165 44.7615 878.205 45.2095 877.629 45.7215L873.341 49.2415C870.909 51.2255 871.357 52.4415 873.341 54.4895V57.5615H868.861C867.389 57.5615 867.389 59.6735 868.861 59.6735ZM895.065 67.5455V79.8975C895.065 85.1455 893.273 86.6175 893.273 88.0895C893.273 88.0895 893.273 89.5615 895.065 89.5615H903.577C903.577 89.5615 905.369 89.5615 905.369 88.0895C905.369 86.6175 903.577 85.1455 903.577 79.8975V60.5695C903.577 58.2655 902.809 57.5615 901.913 57.5615C901.017 57.5615 899.993 58.2015 899.353 58.7775L895.065 62.2975C892.633 64.2815 893.081 65.4975 895.065 67.5455ZM893.529 47.4495C893.529 50.7135 896.089 53.2735 899.353 53.2735C902.553 53.2735 905.113 50.7135 905.113 47.4495C905.113 44.2495 902.553 41.5615 899.353 41.5615C896.089 41.5615 893.529 44.2495 893.529 47.4495ZM922.441 90.2015C932.297 90.2015 937.609 83.5455 937.609 73.5615C937.609 63.5775 932.297 56.9215 922.441 56.9215C912.585 56.9215 907.273 63.5775 907.273 73.5615C907.273 83.5455 912.585 90.2015 922.441 90.2015ZM916.681 73.5615C916.681 63.5775 919.753 59.0335 922.441 59.0335C925.128 59.0335 928.201 63.5775 928.201 73.5615C928.201 83.5455 925.128 88.0895 922.441 88.0895C919.753 88.0895 916.681 83.5455 916.681 73.5615ZM941.315 67.2895V79.8975C941.315 85.1455 939.523 86.6175 939.523 88.0895C939.523 89.0495 940.099 89.5615 941.315 89.5615H949.827C949.827 89.5615 951.619 89.5615 951.619 88.0895C951.619 86.6175 949.827 85.1455 949.827 79.8975V65.4335C951.875 62.4255 954.499 60.3775 956.547 60.3775C960.131 60.3775 959.939 64.4095 959.747 70.2975C959.491 77.4655 958.403 82.3935 958.275 86.2335C958.211 88.6015 959.235 89.5615 960.323 89.5615H968.387C969.411 89.5615 970.243 89.0495 970.243 88.0895C970.243 86.3615 968.643 85.9135 968.259 83.9935C967.747 81.3695 967.363 67.6095 966.787 64.4095C965.955 59.6735 962.307 56.9215 958.211 56.9215C954.691 56.9215 952.003 58.9695 949.827 61.6575V60.3135C949.827 58.2015 948.995 57.5615 947.97 57.5615C947.139 57.5615 946.179 58.0095 945.603 58.5215L941.315 62.0415C938.883 64.0255 941.315 64.4095 941.315 67.2895ZM984.372 90.2015C989.108 90.2015 997.172 88.0255 997.172 81.4335C997.172 73.0495 980.98 70.5535 980.98 63.6415C980.98 61.4015 982.58 59.0335 984.948 59.0335C989.556 59.0335 988.532 67.9295 993.204 67.9295C995.7 67.9295 997.108 66.0735 997.108 64.4735C997.108 60.1855 992.308 56.9215 984.884 56.9215C980.148 56.9215 972.276 59.4175 972.276 66.0095C972.276 74.3935 988.276 76.5695 988.276 83.4815C988.276 85.7215 986.676 88.0895 984.308 88.0895C979.7 88.0895 980.724 79.1935 976.052 79.1935C973.556 79.1935 972.148 81.0495 972.148 82.6495C972.148 86.9375 976.948 90.2015 984.372 90.2015Z" fill="#E1DBD2"/>
</g>
<g filter="url(#filter1_f_5215_84)">
<line x1="2.5" y1="72.0615" x2="206.5" y2="72.0615" stroke="#E1DBD2" stroke-width="3" stroke-linecap="round"/>
</g>
<g filter="url(#filter2_f_5215_84)">
<line x1="1066.5" y1="72.0615" x2="1270.5" y2="72.0615" stroke="#E1DBD2" stroke-width="3" stroke-linecap="round"/>
</g>
<g filter="url(#filter3_f_5215_84)">
<path d="M1015.75 12.1996C1015.92 11.2736 1017.52 11.4248 1018.2 11.4663C1020.99 11.6372 1021.83 12.215 1023.79 14.237C1026.88 17.4283 1026.7 22.6304 1023.09 25.2329C1019.98 27.478 1014.01 25.689 1010.51 25.5673C1006.33 25.4216 1008.39 31.4632 1006.48 33.71" stroke="#E1DBD2" stroke-width="3.3075" stroke-linecap="round"/>
<path d="M1003.39 41.0267C1004.06 40.9843 1003.61 40.3095 1004.06 40.5279C1005.03 41 1005.41 40.6686 1005.67 39.8416" stroke="#E1DBD2" stroke-width="3.3075" stroke-linecap="round"/>
<path d="M983.753 15.541C983.937 14.9584 986.183 13.9443 986.759 13.7134C989.15 12.7549 993.188 14.4056 995.294 15.3393C997.848 16.4715 997.126 20.7214 995.889 22.8573C994.649 24.9993 990.865 24.7505 989.33 27.0188C987.692 29.4399 988.054 31.8416 987.901 34.3394" stroke="#E1DBD2" stroke-width="3.3075" stroke-linecap="round"/>
<path d="M989.365 39.2857C989.327 39.9052 989.399 39.9883 988.898 39.6987" stroke="#E1DBD2" stroke-width="3.3075" stroke-linecap="round"/>
<path d="M1034.77 33.2333C1037.29 33.3874 1039.45 34.3871 1039.38 37.3906C1039.3 40.3688 1038.85 42.825 1035.87 44.0939C1032.5 45.5303 1027.75 41.9022 1024.65 43.8981C1023.62 44.5628 1022.56 45.7149 1022.45 46.9525C1022.38 47.7526 1022.64 48.898 1021.87 49.2228" stroke="#E1DBD2" stroke-width="3.3075" stroke-linecap="round"/>
<path d="M1018.47 54.313C1018.4 54.7152 1018.31 54.5956 1018 54.726" stroke="#E1DBD2" stroke-width="3.3075" stroke-linecap="round"/>
</g>
<g filter="url(#filter4_f_5215_84)">
<path d="M1015.75 12.1996C1015.92 11.2736 1017.52 11.4248 1018.2 11.4663C1020.99 11.6372 1021.83 12.215 1023.79 14.237C1026.88 17.4283 1026.7 22.6304 1023.09 25.2329C1019.98 27.478 1014.01 25.689 1010.51 25.5673C1006.33 25.4216 1008.39 31.4632 1006.48 33.71" stroke="#E1DBD2" stroke-width="3.3075" stroke-linecap="round"/>
<path d="M1003.39 41.0267C1004.06 40.9843 1003.61 40.3095 1004.06 40.5279C1005.03 41 1005.41 40.6686 1005.67 39.8416" stroke="#E1DBD2" stroke-width="3.3075" stroke-linecap="round"/>
<path d="M983.753 15.541C983.937 14.9584 986.183 13.9443 986.759 13.7134C989.15 12.7549 993.188 14.4056 995.294 15.3393C997.848 16.4715 997.126 20.7214 995.889 22.8573C994.649 24.9993 990.865 24.7505 989.33 27.0188C987.692 29.4399 988.054 31.8416 987.901 34.3394" stroke="#E1DBD2" stroke-width="3.3075" stroke-linecap="round"/>
<path d="M989.365 39.2857C989.327 39.9052 989.399 39.9883 988.898 39.6987" stroke="#E1DBD2" stroke-width="3.3075" stroke-linecap="round"/>
<path d="M1034.77 33.2333C1037.29 33.3874 1039.45 34.3871 1039.38 37.3906C1039.3 40.3688 1038.85 42.825 1035.87 44.0939C1032.5 45.5303 1027.75 41.9022 1024.65 43.8981C1023.62 44.5628 1022.56 45.7149 1022.45 46.9525C1022.38 47.7526 1022.64 48.898 1021.87 49.2228" stroke="#E1DBD2" stroke-width="3.3075" stroke-linecap="round"/>
<path d="M1018.47 54.313C1018.4 54.7152 1018.31 54.5956 1018 54.726" stroke="#E1DBD2" stroke-width="3.3075" stroke-linecap="round"/>
</g>
<defs>
<filter id="filter0_f_5215_84" x="270.96" y="37.5615" width="730.211" height="72" filterUnits="userSpaceOnUse" color-interpolation-filters="sRGB">
<feFlood flood-opacity="0" result="BackgroundImageFix"/>
<feBlend mode="normal" in="SourceGraphic" in2="BackgroundImageFix" result="shape"/>
<feGaussianBlur stdDeviation="2" result="effect1_foregroundBlur_5215_84"/>
</filter>
<filter id="filter1_f_5215_84" x="0" y="69.5615" width="209" height="5" filterUnits="userSpaceOnUse" color-interpolation-filters="sRGB">
<feFlood flood-opacity="0" result="BackgroundImageFix"/>
<feBlend mode="normal" in="SourceGraphic" in2="BackgroundImageFix" result="shape"/>
<feGaussianBlur stdDeviation="0.5" result="effect1_foregroundBlur_5215_84"/>
</filter>
<filter id="filter2_f_5215_84" x="1064" y="69.5615" width="209" height="5" filterUnits="userSpaceOnUse" color-interpolation-filters="sRGB">
<feFlood flood-opacity="0" result="BackgroundImageFix"/>
<feBlend mode="normal" in="SourceGraphic" in2="BackgroundImageFix" result="shape"/>
<feGaussianBlur stdDeviation="0.5" result="effect1_foregroundBlur_5215_84"/>
</filter>
<filter id="filter3_f_5215_84" x="978.099" y="5.77832" width="66.9321" height="54.6016" filterUnits="userSpaceOnUse" color-interpolation-filters="sRGB">
<feFlood flood-opacity="0" result="BackgroundImageFix"/>
<feBlend mode="normal" in="SourceGraphic" in2="BackgroundImageFix" result="shape"/>
<feGaussianBlur stdDeviation="2" result="effect1_foregroundBlur_5215_84"/>
</filter>
<filter id="filter4_f_5215_84" x="981.099" y="8.77832" width="60.9321" height="48.6016" filterUnits="userSpaceOnUse" color-interpolation-filters="sRGB">
<feFlood flood-opacity="0" result="BackgroundImageFix"/>
<feBlend mode="normal" in="SourceGraphic" in2="BackgroundImageFix" result="shape"/>
<feGaussianBlur stdDeviation="0.5" result="effect1_foregroundBlur_5215_84"/>
</filter>
</defs>
</svg>
