<svg width="341" height="319" viewBox="0 0 341 319" fill="none" xmlns="http://www.w3.org/2000/svg">
<path d="M4.60084 282.78C4.60084 286.906 1.79885 310.917 5.66248 313.332C9.20081 315.543 13.6728 315.691 17.9304 315.691C24.1891 315.691 30.2386 316.752 36.4502 316.752" stroke="#8151FB" stroke-width="3" stroke-linecap="round"/>
<path d="M336.399 282.78C336.399 286.906 339.201 310.917 335.338 313.332C331.799 315.543 327.327 315.691 323.07 315.691C316.811 315.691 310.761 316.752 304.55 316.752" stroke="#8151FB" stroke-width="3" stroke-linecap="round"/>
<path d="M33.2652 2.19704C23.4126 2.19704 13.3734 1.61856 3.53918 2.19704C0.189185 2.3941 3.53918 29.4734 3.53918 32.9847" stroke="#8151FB" stroke-width="3" stroke-linecap="round"/>
<path d="M307.735 2.19704C317.587 2.19704 327.627 1.61856 337.461 2.19704C340.811 2.3941 337.461 29.4734 337.461 32.9847" stroke="#8151FB" stroke-width="3" stroke-linecap="round"/>
</svg>
