<svg width="1051" height="169" viewBox="0 0 1051 169" fill="none" xmlns="http://www.w3.org/2000/svg">
<path d="M5.0344 132.818C5.0344 136.944 2.23242 160.955 6.09605 163.369C9.63438 165.581 14.1064 165.729 18.3639 165.729C24.6227 165.729 30.6722 166.79 36.8837 166.79" stroke="#8151FB" stroke-width="3" stroke-linecap="round"/>
<path d="M1020 2C1025.49 2 1036.31 2 1041.79 2C1047.75 2 1047.68 1.9841 1048.93 7.30822C1049.91 11.4801 1046.52 33.254 1048.93 34.4565" stroke="#8151FB" stroke-width="3" stroke-linecap="round"/>
<path d="M33.6988 2.23513C23.8462 2.23513 13.8069 1.65665 3.97276 2.23513C0.622763 2.43219 3.97276 29.5115 3.97276 33.0228" stroke="#8151FB" stroke-width="3" stroke-linecap="round"/>
<path d="M1047.11 115C1047.11 119.405 1050.04 145.676 1045.63 147.88C1038.93 151.231 1026.54 149.031 1019 149.031" stroke="#8151FB" stroke-width="3" stroke-linecap="round"/>
</svg>
