<svg width="48" height="48" viewBox="0 0 48 48" fill="none" xmlns="http://www.w3.org/2000/svg">
<path d="M24 15C22.22 15 20.4799 15.5278 18.9999 16.5168C17.5198 17.5057 16.3663 18.9113 15.6851 20.5558C15.0039 22.2004 14.8257 24.01 15.1729 25.7558C15.5202 27.5016 16.3774 29.1053 17.636 30.364C18.8947 31.6226 20.4984 32.4798 22.2442 32.8271C23.99 33.1743 25.7996 32.9961 27.4442 32.3149C29.0887 31.6337 30.4943 30.4802 31.4832 29.0001C32.4722 27.5201 33 25.78 33 24C33 21.6131 32.0518 19.3239 30.364 17.636C28.6761 15.9482 26.3869 15 24 15ZM24 30C22.8133 30 21.6533 29.6481 20.6666 28.9888C19.6799 28.3295 18.9108 27.3925 18.4567 26.2961C18.0026 25.1997 17.8838 23.9933 18.1153 22.8295C18.3468 21.6656 18.9182 20.5965 19.7574 19.7574C20.5965 18.9182 21.6656 18.3468 22.8295 18.1153C23.9933 17.8838 25.1997 18.0026 26.2961 18.4567C27.3925 18.9108 28.3295 19.6799 28.9888 20.6666C29.6481 21.6533 30 22.8133 30 24C29.9951 25.5898 29.3613 27.113 28.2372 28.2372C27.113 29.3613 25.5898 29.9951 24 30ZM32.25 5.25H15.75C12.9652 5.25 10.2945 6.35625 8.32538 8.32538C6.35625 10.2945 5.25 12.9652 5.25 15.75V32.25C5.25 35.0348 6.35625 37.7055 8.32538 39.6746C10.2945 41.6438 12.9652 42.75 15.75 42.75H32.25C35.0348 42.75 37.7055 41.6438 39.6746 39.6746C41.6438 37.7055 42.75 35.0348 42.75 32.25V15.75C42.75 12.9652 41.6438 10.2945 39.6746 8.32538C37.7055 6.35625 35.0348 5.25 32.25 5.25ZM39.75 32.25C39.75 33.2349 39.556 34.2102 39.1791 35.1201C38.8022 36.0301 38.2497 36.8569 37.5533 37.5533C36.8569 38.2497 36.0301 38.8022 35.1201 39.1791C34.2102 39.556 33.2349 39.75 32.25 39.75H15.75C14.7651 39.75 13.7898 39.556 12.8799 39.1791C11.9699 38.8022 11.1431 38.2497 10.4467 37.5533C9.75026 36.8569 9.19781 36.0301 8.8209 35.1201C8.44399 34.2102 8.25 33.2349 8.25 32.25V15.75C8.25 13.7609 9.04018 11.8532 10.4467 10.4467C11.8532 9.04018 13.7609 8.25 15.75 8.25H32.25C33.2349 8.25 34.2102 8.44399 35.1201 8.8209C36.0301 9.19781 36.8569 9.75026 37.5533 10.4467C38.2497 11.1431 38.8022 11.9699 39.1791 12.8799C39.556 13.7898 39.75 14.7651 39.75 15.75V32.25ZM36 14.25C36 14.695 35.868 15.13 35.6208 15.5C35.3736 15.87 35.0222 16.1584 34.611 16.3287C34.1999 16.499 33.7475 16.5436 33.311 16.4568C32.8746 16.37 32.4737 16.1557 32.159 15.841C31.8443 15.5263 31.63 15.1254 31.5432 14.689C31.4564 14.2525 31.501 13.8001 31.6713 13.389C31.8416 12.9778 32.13 12.6264 32.5 12.3792C32.87 12.132 33.305 12 33.75 12C34.3467 12 34.919 12.2371 35.341 12.659C35.7629 13.081 36 13.6533 36 14.25Z" fill="#E1DBD2"/>
</svg>
