<svg width="419" height="71" viewBox="0 0 419 71" fill="none" xmlns="http://www.w3.org/2000/svg">
<path d="M241.864 41.12C242.632 41.2053 243.229 41.504 243.656 42.016C244.125 42.4853 244.509 43.0827 244.808 43.808C245.107 44.4907 245.363 45.2373 245.576 46.048C245.832 46.816 246.109 47.5413 246.408 48.224C246.707 48.864 247.091 49.4187 247.56 49.888C248.029 50.3147 248.648 50.528 249.416 50.528C250.269 50.528 250.995 50.2293 251.592 49.632C252.189 49.0347 252.68 48.2667 253.064 47.328C253.491 46.3467 253.811 45.2373 254.024 44C254.28 42.7627 254.472 41.5253 254.6 40.288C254.728 39.008 254.792 37.7707 254.792 36.576C254.835 35.3387 254.856 34.272 254.856 33.376V16.864C254.856 15.5413 254.749 14.4533 254.536 13.6C254.365 12.704 254.173 11.9573 253.96 11.36C253.747 10.7627 253.533 10.272 253.32 9.888C253.149 9.46133 253.064 9.056 253.064 8.672C253.064 8.416 253.149 8.16 253.32 7.904C253.405 7.73333 253.555 7.584 253.768 7.456C254.024 7.28533 254.387 7.2 254.856 7.2H263.368C263.709 7.2 264.008 7.264 264.264 7.392C264.477 7.47733 264.669 7.62666 264.84 7.84C265.053 8.01066 265.16 8.288 265.16 8.672C265.16 9.056 265.053 9.46133 264.84 9.888C264.669 10.272 264.477 10.7627 264.264 11.36C264.051 11.9573 263.837 12.704 263.624 13.6C263.453 14.4533 263.368 15.5413 263.368 16.864V33.376C263.368 34.5707 263.347 35.872 263.304 37.28C263.304 38.688 263.176 40.1173 262.92 41.568C262.707 42.976 262.323 44.3627 261.768 45.728C261.256 47.0507 260.488 48.224 259.464 49.248C258.44 50.272 257.117 51.104 255.496 51.744C253.875 52.3413 251.848 52.64 249.416 52.64C247.453 52.64 245.747 52.384 244.296 51.872C242.888 51.36 241.715 50.72 240.776 49.952C239.837 49.1413 239.133 48.2667 238.664 47.328C238.195 46.3893 237.96 45.472 237.96 44.576C237.96 43.808 238.259 43.04 238.856 42.272C239.496 41.504 240.371 41.12 241.48 41.12H241.864ZM268.749 24.608L273.037 21.088C273.336 20.7893 273.698 20.5333 274.125 20.32C274.552 20.1067 274.978 20 275.405 20C275.917 20 276.344 20.2133 276.685 20.64C277.069 21.024 277.261 21.7707 277.261 22.88V44.064C277.261 44.704 277.261 45.3227 277.261 45.92C277.304 46.5173 277.389 47.072 277.517 47.584C277.688 48.0533 277.922 48.4373 278.221 48.736C278.562 49.0347 279.01 49.184 279.565 49.184C280.589 49.184 281.698 48.7147 282.893 47.776C284.13 46.8373 285.261 45.6213 286.285 44.128V29.856C285.304 28.832 284.749 27.9573 284.621 27.232C284.493 26.464 285.048 25.5893 286.285 24.608L290.573 21.088C290.914 20.832 291.298 20.5973 291.725 20.384C292.152 20.128 292.578 20 293.005 20C293.474 20 293.88 20.2133 294.221 20.64C294.605 21.024 294.797 21.7707 294.797 22.88V42.336C294.797 43.6587 294.882 44.768 295.053 45.664C295.266 46.5173 295.48 47.2427 295.693 47.84C295.906 48.4373 296.098 48.9493 296.269 49.376C296.482 49.76 296.589 50.144 296.589 50.528C296.589 51.5093 295.992 52 294.797 52H288.269C287.288 52 286.712 51.7867 286.541 51.36C286.37 50.8907 286.285 50.1653 286.285 49.184V47.904C285.176 49.2693 283.938 50.4 282.573 51.296C281.25 52.192 279.693 52.64 277.901 52.64C276.365 52.64 275.021 52.512 273.869 52.256C272.76 52 271.821 51.552 271.053 50.912C270.285 50.272 269.709 49.4187 269.325 48.352C268.941 47.2853 268.749 45.9413 268.749 44.32V29.856C267.768 28.832 267.213 27.9573 267.085 27.232C266.957 26.464 267.512 25.5893 268.749 24.608ZM311.195 19.36C312.56 19.36 313.84 19.6373 315.035 20.192C316.229 20.704 317.339 21.4293 318.363 22.368V13.728C317.381 12.704 316.827 11.8293 316.699 11.104C316.571 10.336 317.125 9.46133 318.363 8.48L322.651 4.96C322.949 4.704 323.312 4.49066 323.739 4.32C324.165 4.10666 324.592 4 325.019 4C325.531 4 325.957 4.192 326.299 4.576C326.683 4.96 326.875 5.68533 326.875 6.752V42.336C326.875 43.6587 326.96 44.768 327.131 45.664C327.344 46.5173 327.557 47.2427 327.771 47.84C327.984 48.4373 328.176 48.9493 328.347 49.376C328.56 49.76 328.667 50.144 328.667 50.528C328.667 51.5093 328.069 52 326.875 52H320.347C319.451 52 318.896 51.808 318.683 51.424C318.469 51.04 318.363 50.4213 318.363 49.568C317.339 50.5493 316.229 51.3173 315.035 51.872C313.84 52.384 312.56 52.64 311.195 52.64C309.445 52.64 307.803 52.192 306.267 51.296C304.731 50.3573 303.387 49.12 302.235 47.584C301.083 46.048 300.165 44.2773 299.483 42.272C298.843 40.2667 298.523 38.1547 298.523 35.936C298.523 33.76 298.843 31.6693 299.483 29.664C300.165 27.6587 301.083 25.888 302.235 24.352C303.387 22.816 304.731 21.6 306.267 20.704C307.803 19.808 309.445 19.36 311.195 19.36ZM307.931 35.936C307.931 37.344 308.016 38.8373 308.187 40.416C308.357 41.952 308.656 43.36 309.083 44.64C309.552 45.92 310.149 46.9867 310.875 47.84C311.643 48.6507 312.603 49.056 313.755 49.056C314.608 49.056 315.419 48.8213 316.187 48.352C316.997 47.84 317.723 47.1573 318.363 46.304V25.632C317.723 24.8213 316.997 24.1813 316.187 23.712C315.419 23.2 314.608 22.944 313.755 22.944C312.603 22.944 311.643 23.3707 310.875 24.224C310.149 25.0347 309.552 26.08 309.083 27.36C308.656 28.5973 308.357 29.984 308.187 31.52C308.016 33.056 307.931 34.528 307.931 35.936ZM332.441 58.528C333.209 58.528 333.828 58.6987 334.297 59.04C334.809 59.424 335.257 59.8933 335.641 60.448C336.025 61.0027 336.388 61.5787 336.729 62.176C337.113 62.816 337.54 63.4133 338.009 63.968C338.521 64.5227 339.14 64.9707 339.865 65.312C340.633 65.696 341.593 65.888 342.745 65.888C344.494 65.888 345.945 65.632 347.097 65.12C348.249 64.6507 349.188 64.032 349.913 63.264C350.638 62.496 351.15 61.6427 351.449 60.704C351.748 59.7653 351.897 58.848 351.897 57.952C351.897 56.7147 351.577 55.6693 350.937 54.816C350.297 54.0053 349.401 53.3227 348.249 52.768C347.097 52.256 345.71 51.8507 344.089 51.552C342.51 51.2533 340.761 50.9973 338.841 50.784C336.665 50.5707 335.193 49.9093 334.425 48.8C333.7 47.6907 333.636 46.4533 334.233 45.088C334.66 44.1493 335.001 43.424 335.257 42.912C335.556 42.3573 335.748 41.9733 335.833 41.76C334.34 40.864 333.102 39.6267 332.121 38.048C331.182 36.4693 330.713 34.4 330.713 31.84C330.713 29.536 331.118 27.616 331.929 26.08C332.74 24.544 333.764 23.3067 335.001 22.368C336.281 21.3867 337.689 20.6827 339.225 20.256C340.761 19.7867 342.254 19.5093 343.705 19.424C343.79 19.168 343.961 18.592 344.217 17.696C344.516 16.7573 344.985 15.7973 345.625 14.816C346.308 13.8347 347.225 12.96 348.377 12.192C349.529 11.424 351.001 11.04 352.793 11.04C353.646 11.04 354.585 11.168 355.609 11.424C356.633 11.6373 357.593 12 358.489 12.512C359.385 13.024 360.132 13.664 360.729 14.432C361.326 15.2 361.625 16.1173 361.625 17.184C361.625 17.9947 361.284 18.784 360.601 19.552C359.918 20.2773 358.958 20.64 357.721 20.64C356.953 20.64 356.334 20.4693 355.865 20.128C355.396 19.7867 355.012 19.36 354.713 18.848C354.457 18.336 354.244 17.8027 354.073 17.248C353.902 16.6507 353.71 16.096 353.497 15.584C353.284 15.072 353.006 14.6453 352.665 14.304C352.366 13.9627 351.918 13.792 351.321 13.792C350.34 13.792 349.508 14.048 348.825 14.56C348.142 15.0293 347.588 15.584 347.161 16.224C346.777 16.864 346.478 17.4827 346.265 18.08C346.052 18.6773 345.924 19.104 345.881 19.36C347.374 19.4027 348.932 19.6373 350.553 20.064C352.174 20.448 353.668 21.1093 355.033 22.048C356.398 22.9867 357.529 24.2453 358.425 25.824C359.321 27.4027 359.769 29.408 359.769 31.84C359.769 34.3147 359.3 36.3627 358.361 37.984C357.422 39.5627 356.228 40.8 354.777 41.696C353.326 42.592 351.748 43.2107 350.041 43.552C348.334 43.8933 346.734 44.064 345.241 44.064C344.089 44.064 342.873 43.9787 341.593 43.808C340.356 43.5947 339.118 43.2533 337.881 42.784C337.71 43.168 337.54 43.5947 337.369 44.064C337.198 44.5333 337.049 44.9813 336.921 45.408C336.836 45.7493 337.07 45.9627 337.625 46.048C338.18 46.1333 339.012 46.176 340.121 46.176C340.846 46.176 341.636 46.176 342.489 46.176C343.342 46.1333 344.281 46.112 345.305 46.112C348.718 46.112 351.47 46.4533 353.561 47.136C355.652 47.776 357.294 48.608 358.489 49.632C359.684 50.6133 360.473 51.68 360.857 52.832C361.284 54.0267 361.497 55.1573 361.497 56.224C361.497 57.9733 361.113 59.4667 360.345 60.704C359.62 61.9413 358.681 62.9867 357.529 63.84C356.377 64.736 355.076 65.44 353.625 65.952C352.217 66.5067 350.809 66.9333 349.401 67.232C348.036 67.5307 346.756 67.7227 345.561 67.808C344.366 67.936 343.428 68 342.745 68C338.137 68 334.617 67.5307 332.185 66.592C329.753 65.696 328.537 64.16 328.537 61.984C328.537 61.1733 328.878 60.384 329.561 59.616C330.244 58.8907 331.204 58.528 332.441 58.528ZM340.121 31.84C340.121 34.016 340.292 35.7653 340.633 37.088C340.974 38.4107 341.401 39.4347 341.913 40.16C342.425 40.8853 342.98 41.376 343.577 41.632C344.174 41.8453 344.729 41.952 345.241 41.952C345.753 41.952 346.308 41.8453 346.905 41.632C347.502 41.376 348.057 40.8853 348.569 40.16C349.081 39.4347 349.508 38.4107 349.849 37.088C350.19 35.7653 350.361 34.016 350.361 31.84C350.361 29.664 350.19 27.9147 349.849 26.592C349.508 25.2267 349.081 24.16 348.569 23.392C348.057 22.624 347.502 22.112 346.905 21.856C346.308 21.6 345.753 21.472 345.241 21.472C344.729 21.472 344.174 21.6 343.577 21.856C342.98 22.112 342.425 22.624 341.913 23.392C341.401 24.16 340.974 25.2267 340.633 26.592C340.292 27.9147 340.121 29.664 340.121 31.84ZM363.523 35.424C363.523 30.3893 364.781 26.464 367.299 23.648C369.859 20.7893 373.507 19.36 378.243 19.36C379.693 19.36 381.123 19.552 382.531 19.936C383.981 20.2773 385.261 20.8533 386.371 21.664C387.523 22.432 388.44 23.456 389.123 24.736C389.848 25.9733 390.211 27.488 390.211 29.28C390.211 30.8587 389.912 32.1387 389.315 33.12C388.717 34.0587 387.928 34.8053 386.947 35.36C385.965 35.872 384.835 36.2347 383.555 36.448C382.317 36.6187 381.016 36.704 379.651 36.704H372.931C372.931 39.1787 373.123 41.312 373.507 43.104C373.891 44.8533 374.36 46.2827 374.915 47.392C375.512 48.4587 376.152 49.248 376.835 49.76C377.517 50.272 378.136 50.528 378.691 50.528C379.373 50.528 380.013 50.3573 380.611 50.016C381.208 49.632 381.763 49.1627 382.275 48.608C382.787 48.0107 383.235 47.3493 383.619 46.624C384.045 45.856 384.387 45.1093 384.643 44.384C384.899 43.6587 385.261 43.1467 385.731 42.848C386.243 42.5493 386.755 42.4 387.267 42.4C388.035 42.4 388.696 42.6987 389.251 43.296C389.848 43.8933 389.997 44.6613 389.699 45.6C389.485 46.2827 389.08 47.0293 388.483 47.84C387.885 48.6507 387.117 49.4187 386.179 50.144C385.24 50.8267 384.131 51.424 382.851 51.936C381.613 52.4053 380.227 52.64 378.691 52.64C376.216 52.64 374.04 52.192 372.163 51.296C370.285 50.3573 368.707 49.0987 367.427 47.52C366.147 45.9413 365.165 44.128 364.483 42.08C363.843 39.9893 363.523 37.7707 363.523 35.424ZM372.995 34.592H377.091C377.859 34.592 378.477 34.4213 378.947 34.08C379.416 33.7387 379.779 33.312 380.035 32.8C380.333 32.2453 380.525 31.648 380.611 31.008C380.739 30.3253 380.803 29.664 380.803 29.024C380.803 28.128 380.76 27.232 380.675 26.336C380.589 25.44 380.44 24.6293 380.227 23.904C380.013 23.1787 379.736 22.6027 379.395 22.176C379.096 21.7067 378.712 21.472 378.243 21.472C377.773 21.472 377.24 21.7493 376.643 22.304C376.088 22.8587 375.555 23.6907 375.043 24.8C374.531 25.9093 374.083 27.2747 373.699 28.896C373.315 30.5173 373.08 32.416 372.995 34.592ZM396.052 41.632C396.82 41.632 397.46 41.8667 397.972 42.336C398.484 42.7627 398.91 43.296 399.252 43.936C399.593 44.576 399.913 45.3013 400.212 46.112C400.51 46.88 400.83 47.584 401.172 48.224C401.513 48.864 401.918 49.4187 402.388 49.888C402.9 50.3147 403.54 50.528 404.308 50.528C404.905 50.528 405.438 50.4 405.908 50.144C406.42 49.8453 406.846 49.4827 407.188 49.056C407.529 48.6293 407.785 48.1387 407.956 47.584C408.169 47.0293 408.276 46.4747 408.276 45.92C408.276 44.768 407.87 43.744 407.06 42.848C406.292 41.9093 405.31 41.0347 404.116 40.224C402.921 39.3707 401.641 38.5387 400.276 37.728C398.91 36.9173 397.63 36.064 396.436 35.168C395.241 34.272 394.238 33.2907 393.428 32.224C392.66 31.1147 392.276 29.856 392.276 28.448C392.276 26.784 392.702 25.376 393.556 24.224C394.452 23.072 395.54 22.1333 396.82 21.408C398.1 20.6827 399.465 20.1707 400.916 19.872C402.366 19.5307 403.689 19.36 404.884 19.36C406.761 19.36 408.446 19.552 409.94 19.936C411.433 20.32 412.713 20.8533 413.78 21.536C414.846 22.2187 415.657 23.0293 416.212 23.968C416.809 24.864 417.108 25.8453 417.108 26.912C417.108 27.7227 416.766 28.512 416.084 29.28C415.401 30.0053 414.441 30.368 413.204 30.368C412.436 30.368 411.796 30.1547 411.284 29.728C410.772 29.2587 410.345 28.704 410.003 28.064C409.662 27.424 409.342 26.72 409.044 25.952C408.745 25.1413 408.425 24.416 408.083 23.776C407.742 23.136 407.316 22.6027 406.804 22.176C406.334 21.7067 405.716 21.472 404.948 21.472C404.35 21.472 403.796 21.6213 403.284 21.92C402.814 22.176 402.409 22.5173 402.068 22.944C401.726 23.3707 401.449 23.8613 401.236 24.416C401.065 24.9707 400.98 25.5253 400.98 26.08C400.98 27.232 401.364 28.2773 402.132 29.216C402.942 30.1547 403.945 31.0507 405.14 31.904C406.377 32.7573 407.678 33.6107 409.044 34.464C410.452 35.2747 411.753 36.1493 412.948 37.088C414.185 38.0267 415.188 39.0507 415.956 40.16C416.766 41.2267 417.172 42.464 417.172 43.872C417.172 45.536 416.724 46.9227 415.828 48.032C414.932 49.1413 413.822 50.0373 412.5 50.72C411.22 51.4027 409.833 51.8933 408.34 52.192C406.889 52.4907 405.566 52.64 404.372 52.64C402.537 52.64 400.852 52.448 399.316 52.064C397.822 51.68 396.542 51.1467 395.476 50.464C394.409 49.7813 393.577 48.992 392.98 48.096C392.425 47.1573 392.148 46.1547 392.148 45.088C392.148 44.2773 392.489 43.5093 393.172 42.784C393.854 42.016 394.814 41.632 396.052 41.632Z" fill="#E1DBD2"/>
<g filter="url(#filter0_f_5278_146)">
<path d="M2 28.7317C9.44528 17.7561 16.8906 17.7561 24.3358 28.7317C31.7811 39.7073 39.2264 39.7073 46.6717 28.7317C54.1169 17.7561 61.5622 17.7561 69.0075 28.7317C76.4528 39.7073 83.898 39.7073 91.3433 28.7317C98.7886 17.7561 106.234 17.7561 113.679 28.7317C121.124 39.7073 128.57 39.7073 136.015 28.7317C143.46 17.7561 150.906 17.7561 158.351 28.7317C165.796 39.7073 173.241 39.7073 180.687 28.7317C188.132 17.7561 195.577 17.7561 203.022 28.7317C210.468 39.7073 217.913 39.7073 225.358 28.7317" stroke="#E1DBD2" stroke-width="2"/>
</g>
<path d="M390.372 20.3589C390.372 14.6928 390.372 9.02674 390.372 3.36065C390.372 2.86461 390.375 2.38083 390.29 1.89073C390.197 1.3528 390.133 1.43824 390.518 1.73997C393.919 4.40536 396.565 7.41306 399.228 10.8516C400.99 13.1271 402.767 15.4213 404.326 17.8525C404.821 18.6246 405.239 19.6318 405.84 20.3212C406.327 20.8803 405.586 20.6958 405.165 20.5756C400.117 19.1331 395.57 15.9408 391.184 13.113C388.92 11.6532 386.549 10.2922 384.371 8.69381C383.927 8.36761 383.543 8.40389 384.399 8.28864C388.699 7.70905 392.994 5.81453 397.121 4.49136C399.183 3.83033 401.256 3.02638 403.378 2.588C403.635 2.53484 403.901 2.55031 404.162 2.55031C404.687 2.55031 403.856 2.76479 403.697 2.87068C401.86 4.0935 400.302 5.98437 398.808 7.6008C396.398 10.2091 394.321 13.075 392.187 15.9209C389.691 19.2495 386.928 22.2861 384.207 25.4094C383.501 26.2196 382.266 27.4015 382 28.5" stroke="#8151FB" stroke-width="3" stroke-linecap="round"/>
<path d="M265.702 48.6904C266.186 51.0814 268.852 52.1817 270.141 53.6904C270.693 54.336 271.734 55.2389 272.071 56.0714" stroke="#8151FB" stroke-width="3" stroke-linecap="round"/>
<path d="M271.492 47.5C270.431 47.6454 269.609 49.7595 269.133 50.7011C268.536 51.8826 267.994 53.0779 267.353 54.2196C266.734 55.3235 265.791 56.3282 265.316 57.5" stroke="#8151FB" stroke-width="3" stroke-linecap="round"/>
<path d="M263 52.4997C265.547 52.4997 268.097 52.2616 270.634 52.2616C271.992 52.2616 273.246 51.5474 274.58 51.5474" stroke="#8151FB" stroke-width="3" stroke-linecap="round"/>
<defs>
<filter id="filter0_f_5278_146" x="0.172363" y="18.5" width="227.013" height="20.4634" filterUnits="userSpaceOnUse" color-interpolation-filters="sRGB">
<feFlood flood-opacity="0" result="BackgroundImageFix"/>
<feBlend mode="normal" in="SourceGraphic" in2="BackgroundImageFix" result="shape"/>
<feGaussianBlur stdDeviation="0.5" result="effect1_foregroundBlur_5278_146"/>
</filter>
</defs>
</svg>
