<svg width="1512" height="720" viewBox="0 0 1512 720" fill="none" xmlns="http://www.w3.org/2000/svg">
<g clip-path="url(#clip0_5278_171)">
<rect width="1512" height="720" fill="#2F302D"/>
<g filter="url(#filter0_f_5278_171)">
<rect x="160" width="80" height="80" fill="#EDB2D0"/>
<rect x="80" y="80.0005" width="80" height="80" fill="#EDB2D0"/>
<rect y="160" width="80" height="80" fill="#EDB2D0"/>
<rect y="320" width="80" height="80" fill="#EDB2D0"/>
<rect y="480" width="80" height="80" fill="#EDB2D0"/>
<rect x="240" y="80.0005" width="80" height="80" fill="#EDB2D0"/>
<rect x="240" y="240" width="80" height="80" fill="#EDB2D0"/>
<rect x="160" y="320" width="80" height="80" fill="#EDB2D0"/>
<rect x="80" y="400" width="80" height="80" fill="#EDB2D0"/>
<rect x="160" y="480" width="80" height="80" fill="#EDB2D0"/>
<rect x="80" y="560" width="80" height="80" fill="#EDB2D0"/>
<rect x="160" y="640" width="80" height="80" fill="#EDB2D0"/>
<rect x="240" y="400" width="80" height="80" fill="#EDB2D0"/>
<rect x="240" y="560" width="80" height="80" fill="#EDB2D0"/>
<rect x="160" y="160" width="80" height="80" fill="#EDB2D0"/>
<rect x="80" y="240" width="80" height="80" fill="#EDB2D0"/>
<path d="M280 80C274.747 80 269.546 78.9654 264.693 76.9552C259.84 74.945 255.43 71.9986 251.716 68.2843C248.001 64.5699 245.055 60.1604 243.045 55.3073C241.035 50.4543 240 45.2529 240 40C240 34.7471 241.035 29.5457 243.045 24.6927C245.055 19.8396 248.001 15.4301 251.716 11.7157C255.43 8.00138 259.84 5.055 264.693 3.04482C269.546 1.03463 274.747 -2.43729e-06 280 -1.74846e-06L280 40L280 80Z" fill="#1A75BC"/>
<path d="M200 240C207.911 240 215.645 242.346 222.223 246.741C228.801 251.136 233.928 257.384 236.955 264.693C239.983 272.002 240.775 280.044 239.232 287.804C237.688 295.563 233.879 302.69 228.285 308.284C222.69 313.878 215.563 317.688 207.804 319.231C200.045 320.775 192.002 319.983 184.693 316.955C177.384 313.928 171.137 308.801 166.741 302.223C162.346 295.645 160 287.911 160 280L200 280L200 240Z" fill="#F8931F"/>
<path d="M40 480.001C32.0888 480.001 24.3552 477.655 17.7772 473.259C11.1992 468.864 6.07234 462.617 3.04483 455.308C0.0173265 447.999 -0.774806 439.956 0.768603 432.197C2.31201 424.438 6.12164 417.31 11.7157 411.716C17.3098 406.122 24.4372 402.312 32.1964 400.769C39.9556 399.226 47.9983 400.018 55.3073 403.045C62.6164 406.073 68.8635 411.2 73.2588 417.778C77.654 424.356 80 432.089 80 440.001L40 440L40 480.001Z" fill="#F8931F"/>
<path d="M200 80.6928C205.253 80.6928 210.455 81.7275 215.308 83.7377C220.161 85.7479 224.57 88.6942 228.285 92.4086C231.999 96.1229 234.945 100.532 236.955 105.386C238.966 110.239 240 115.44 240 120.693C240 125.946 238.966 131.147 236.955 136C234.945 140.853 231.999 145.263 228.285 148.977C224.57 152.691 220.161 155.638 215.308 157.648C210.455 159.658 205.253 160.693 200 160.693L200 120.693L200 80.6928Z" fill="#EF5A2B"/>
<path d="M238.507 595.521C238.507 600.676 237.492 605.78 235.519 610.543C233.546 615.305 230.655 619.632 227.01 623.277C223.365 626.922 219.038 629.814 214.275 631.787C209.513 633.759 204.408 634.775 199.253 634.775C194.099 634.775 188.994 633.759 184.232 631.787C179.469 629.814 175.142 626.922 171.497 623.277C167.852 619.632 164.961 615.305 162.988 610.543C161.015 605.78 160 600.676 160 595.521L199.253 595.521H238.507Z" fill="#EF5A2B"/>
<path d="M160 79.9995C165.253 79.9995 170.454 81.0341 175.307 83.0443C180.16 85.0545 184.57 88.0009 188.284 91.7152C191.999 95.4296 194.945 99.8391 196.955 104.692C198.965 109.545 200 114.747 200 120C200 125.252 198.965 130.454 196.955 135.307C194.945 140.16 191.999 144.569 188.284 148.284C184.57 151.998 180.16 154.945 175.307 156.955C170.454 158.965 165.253 160 160 160L160 120L160 79.9995Z" fill="#F15A2B"/>
<ellipse cx="280" cy="197.969" rx="20" ry="20" fill="#1A75BC"/>
</g>
</g>
<defs>
<filter id="filter0_f_5278_171" x="-1" y="-1" width="322" height="722" filterUnits="userSpaceOnUse" color-interpolation-filters="sRGB">
<feFlood flood-opacity="0" result="BackgroundImageFix"/>
<feBlend mode="normal" in="SourceGraphic" in2="BackgroundImageFix" result="shape"/>
<feGaussianBlur stdDeviation="0.5" result="effect1_foregroundBlur_5278_171"/>
</filter>
<clipPath id="clip0_5278_171">
<rect width="1512" height="720" fill="white"/>
</clipPath>
</defs>
</svg>
