<svg width="422" height="72" viewBox="0 0 422 72" fill="none" xmlns="http://www.w3.org/2000/svg">
<g filter="url(#filter0_f_5278_146)">
<path d="M237.96 44.576C238.024 48.096 241.608 52.64 249.416 52.64C263.88 52.64 263.368 40.544 263.368 33.376V16.864C263.368 11.616 265.16 10.144 265.16 8.672C265.16 8.672 265.16 7.2 263.368 7.2H254.856C254.856 7.2 253.064 7.2 253.064 8.672C253.064 10.144 254.856 11.616 254.856 16.864V33.376C254.856 38.88 254.536 50.528 249.416 50.528C244.744 50.528 246.472 41.568 241.864 41.12C241.736 41.12 241.608 41.12 241.48 41.12C239.24 41.12 237.96 43.04 237.96 44.576ZM268.749 29.856V44.32C268.749 50.848 271.821 52.64 277.901 52.64C281.421 52.64 284.109 50.592 286.285 47.904V49.184C286.285 51.104 286.349 52 288.269 52H294.797C296.013 52 296.589 51.488 296.589 50.528C296.589 49.056 294.797 47.584 294.797 42.336V22.88C294.797 20.704 293.965 20 293.005 20C292.173 20 291.213 20.576 290.573 21.088L286.285 24.608C283.853 26.592 284.301 27.808 286.285 29.856V44.128C284.237 47.136 281.613 49.184 279.565 49.184C277.325 49.184 277.261 46.56 277.261 44.064V22.88C277.261 20.704 276.429 20 275.405 20C274.573 20 273.613 20.512 273.037 21.088L268.749 24.608C266.317 26.592 266.765 27.808 268.749 29.856ZM311.195 52.64C313.883 52.64 316.315 51.488 318.363 49.568C318.363 51.232 318.555 52 320.347 52H326.875C328.091 52 328.667 51.488 328.667 50.528C328.667 49.056 326.875 47.584 326.875 42.336V6.752C326.875 4.64 326.043 4 325.019 4C324.187 4 323.227 4.448 322.651 4.96L318.363 8.48C315.931 10.464 316.378 11.68 318.363 13.728V22.368C316.315 20.512 313.883 19.36 311.195 19.36C304.155 19.36 298.523 27.168 298.523 35.936C298.523 44.768 304.155 52.64 311.195 52.64ZM307.931 35.936C307.931 30.304 309.211 22.944 313.755 22.944C315.483 22.944 317.083 24.032 318.363 25.632V46.304C317.083 47.968 315.483 49.056 313.755 49.056C309.211 49.056 307.931 41.632 307.931 35.936ZM328.537 61.984C328.537 66.272 333.593 68 342.745 68C346.841 68 361.497 66.592 361.497 56.224C361.497 52 358.873 46.112 345.305 46.112C343.257 46.112 341.529 46.176 340.121 46.176C337.945 46.176 336.729 46.048 336.921 45.408C337.177 44.576 337.561 43.552 337.881 42.784C340.313 43.744 342.937 44.064 345.241 44.064C351.257 44.064 359.769 41.824 359.769 31.84C359.769 22.176 351.833 19.552 345.881 19.36C346.073 18.4 347.353 13.792 351.321 13.792C354.841 13.792 353.049 20.64 357.721 20.64C360.217 20.64 361.625 18.784 361.625 17.184C361.625 12.896 356.121 11.04 352.793 11.04C345.625 11.04 343.961 18.336 343.705 19.424C337.881 19.808 330.713 22.688 330.713 31.84C330.713 36.896 332.889 39.968 335.833 41.76C335.641 42.144 335.065 43.232 334.233 45.088C333.017 47.84 334.553 50.336 338.841 50.784C346.585 51.616 351.897 52.96 351.897 57.952C351.897 61.6 349.657 65.888 342.745 65.888C335.833 65.888 337.113 58.528 332.441 58.528C329.945 58.528 328.537 60.384 328.537 61.984ZM345.241 21.472C347.289 21.472 350.361 23.136 350.361 31.84C350.361 40.544 347.289 41.952 345.241 41.952C343.193 41.952 340.121 40.544 340.121 31.84C340.121 23.136 343.193 21.472 345.241 21.472ZM378.691 52.64C384.835 52.64 388.867 48.288 389.699 45.6C390.275 43.744 388.803 42.4 387.267 42.4C386.243 42.4 385.155 42.976 384.643 44.384C383.555 47.328 381.443 50.528 378.691 50.528C376.451 50.528 372.931 46.688 372.931 36.704H379.651C385.091 36.704 390.211 35.552 390.211 29.28C390.211 22.048 384.067 19.36 378.243 19.36C368.835 19.36 363.523 25.44 363.523 35.424C363.523 44.768 368.835 52.64 378.691 52.64ZM378.243 21.472C380.099 21.472 380.803 25.44 380.803 29.024C380.803 31.584 380.099 34.592 377.091 34.592H372.995C373.379 25.952 376.387 21.472 378.243 21.472ZM404.372 52.64C409.108 52.64 417.172 50.464 417.172 43.872C417.172 35.488 400.98 32.992 400.98 26.08C400.98 23.84 402.58 21.472 404.948 21.472C409.556 21.472 408.532 30.368 413.204 30.368C415.7 30.368 417.108 28.512 417.108 26.912C417.108 22.624 412.308 19.36 404.884 19.36C400.148 19.36 392.276 21.856 392.276 28.448C392.276 36.832 408.276 39.008 408.276 45.92C408.276 48.16 406.676 50.528 404.308 50.528C399.7 50.528 400.724 41.632 396.052 41.632C393.556 41.632 392.148 43.488 392.148 45.088C392.148 49.376 396.948 52.64 404.372 52.64Z" fill="#E1DBD2"/>
</g>
<g filter="url(#filter1_f_5278_146)">
<path d="M2 28.7317C9.44528 17.7561 16.8906 17.7561 24.3358 28.7317C31.7811 39.7073 39.2264 39.7073 46.6717 28.7317C54.1169 17.7561 61.5622 17.7561 69.0075 28.7317C76.4528 39.7073 83.898 39.7073 91.3433 28.7317C98.7886 17.7561 106.234 17.7561 113.679 28.7317C121.124 39.7073 128.57 39.7073 136.015 28.7317C143.46 17.7561 150.906 17.7561 158.351 28.7317C165.796 39.7073 173.241 39.7073 180.687 28.7317C188.132 17.7561 195.577 17.7561 203.022 28.7317C210.468 39.7073 217.913 39.7073 225.358 28.7317" stroke="#E1DBD2" stroke-width="2"/>
</g>
<path d="M390.372 20.3589C390.372 14.6928 390.372 9.02674 390.372 3.36065C390.372 2.86461 390.375 2.38083 390.29 1.89073C390.197 1.3528 390.133 1.43824 390.518 1.73997C393.919 4.40536 396.565 7.41306 399.228 10.8516C400.99 13.1271 402.767 15.4213 404.326 17.8525C404.821 18.6246 405.239 19.6318 405.84 20.3212C406.327 20.8803 405.586 20.6958 405.165 20.5756C400.117 19.1331 395.57 15.9408 391.184 13.113C388.92 11.6532 386.549 10.2922 384.371 8.69381C383.927 8.36761 383.543 8.40389 384.399 8.28864C388.699 7.70905 392.994 5.81453 397.121 4.49136C399.183 3.83033 401.256 3.02638 403.378 2.588C403.635 2.53484 403.901 2.55031 404.162 2.55031C404.687 2.55031 403.856 2.76479 403.697 2.87068C401.86 4.0935 400.302 5.98437 398.808 7.6008C396.398 10.2091 394.321 13.075 392.187 15.9209C389.691 19.2495 386.928 22.2861 384.207 25.4094C383.501 26.2196 382.266 27.4015 382 28.5" stroke="#8151FB" stroke-width="3" stroke-linecap="round"/>
<path d="M265.702 48.6904C266.186 51.0814 268.852 52.1817 270.141 53.6904C270.693 54.336 271.734 55.2389 272.071 56.0714" stroke="#8151FB" stroke-width="3" stroke-linecap="round"/>
<path d="M271.492 47.5C270.431 47.6454 269.609 49.7595 269.133 50.7011C268.536 51.8826 267.994 53.0779 267.353 54.2196C266.734 55.3235 265.791 56.3282 265.316 57.5" stroke="#8151FB" stroke-width="3" stroke-linecap="round"/>
<path d="M263 52.4997C265.547 52.4997 268.097 52.2616 270.634 52.2616C271.992 52.2616 273.246 51.5474 274.58 51.5474" stroke="#8151FB" stroke-width="3" stroke-linecap="round"/>
<defs>
<filter id="filter0_f_5278_146" x="233.96" y="0" width="187.211" height="72" filterUnits="userSpaceOnUse" color-interpolation-filters="sRGB">
<feFlood flood-opacity="0" result="BackgroundImageFix"/>
<feBlend mode="normal" in="SourceGraphic" in2="BackgroundImageFix" result="shape"/>
<feGaussianBlur stdDeviation="2" result="effect1_foregroundBlur_5278_146"/>
</filter>
<filter id="filter1_f_5278_146" x="0.172363" y="18.5" width="227.013" height="20.4634" filterUnits="userSpaceOnUse" color-interpolation-filters="sRGB">
<feFlood flood-opacity="0" result="BackgroundImageFix"/>
<feBlend mode="normal" in="SourceGraphic" in2="BackgroundImageFix" result="shape"/>
<feGaussianBlur stdDeviation="0.5" result="effect1_foregroundBlur_5278_146"/>
</filter>
</defs>
</svg>
