<svg width="322" height="801" viewBox="0 0 322 801" fill="none" xmlns="http://www.w3.org/2000/svg">
<g filter="">
<rect width="79.8481" height="79.8481" transform="matrix(1 0 0 -1 160.696 720.151)" fill="#1173D9"/>
<rect width="79.8481" height="79.8481" transform="matrix(1 0 0 -1 80.8479 640.302)" fill="#1173D9"/>
<rect width="79.8481" height="79.8481" transform="matrix(1 0 0 -1 241.152 799.5)" fill="#1173D9"/>
<rect width="79.8481" height="79.8481" transform="matrix(1 0 0 -1 1 560.456)" fill="#1173D9"/>
<rect width="79.8481" height="79.8481" transform="matrix(1 0 0 -1 1 241.062)" fill="#1173D9"/>
<rect width="79.8481" height="79.8481" transform="matrix(1 0 0 -1 240.544 640.302)" fill="#1173D9"/>
<rect width="79.8481" height="79.8481" transform="matrix(1 0 0 -1 240.544 480.607)" fill="#1173D9"/>
<rect width="79.8481" height="79.8481" transform="matrix(1 0 0 -1 160.696 400.759)" fill="#1173D9"/>
<rect width="79.8481" height="79.8481" transform="matrix(1 0 0 -1 80.8479 320.91)" fill="#1173D9"/>
<rect width="79.8481" height="79.8481" transform="matrix(1 0 0 -1 160.696 241.062)" fill="#1173D9"/>
<rect width="79.8481" height="79.8481" transform="matrix(1 0 0 -1 80.8479 161.214)" fill="#1173D9"/>
<rect width="79.8481" height="79.8481" transform="matrix(1 0 0 -1 160.696 81.3662)" fill="#1173D9"/>
<rect width="79.8481" height="79.8481" transform="matrix(1 0 0 -1 240.544 320.91)" fill="#1173D9"/>
<rect width="79.8481" height="79.8481" transform="matrix(1 0 0 -1 240.544 161.214)" fill="#1173D9"/>
<rect width="79.8481" height="79.8481" transform="matrix(1 0 0 -1 160.696 560.456)" fill="#1173D9"/>
<rect width="79.8481" height="79.8481" transform="matrix(1 0 0 -1 80.8479 480.607)" fill="#1173D9"/>
<path d="M280.468 640.303C275.225 640.303 270.034 641.335 265.19 643.342C260.346 645.348 255.945 648.289 252.238 651.996C248.53 655.704 245.59 660.105 243.583 664.949C241.577 669.792 240.544 674.984 240.544 680.227C240.544 685.47 241.577 690.661 243.583 695.505C245.59 700.349 248.53 704.75 252.238 708.457C255.945 712.165 260.346 715.105 265.19 717.112C270.034 719.118 275.225 720.151 280.468 720.151L280.468 680.227L280.468 640.303Z" fill="#8151FB"/>
<path d="M200.62 480.607C208.517 480.607 216.235 478.265 222.801 473.878C229.366 469.492 234.484 463.256 237.505 455.961C240.527 448.666 241.318 440.639 239.777 432.894C238.237 425.15 234.434 418.036 228.851 412.452C223.267 406.869 216.154 403.066 208.409 401.526C200.665 399.985 192.637 400.776 185.342 403.798C178.047 406.82 171.812 411.937 167.425 418.502C163.038 425.068 160.696 432.787 160.696 440.683L200.62 440.683L200.62 480.607Z" fill="#F8931F"/>
<path d="M200.62 639.611C205.863 639.611 211.055 638.579 215.899 636.572C220.742 634.566 225.144 631.625 228.851 627.918C232.558 624.211 235.499 619.809 237.505 614.965C239.512 610.122 240.544 604.93 240.544 599.687C240.544 594.444 239.512 589.253 237.505 584.409C235.499 579.565 232.558 575.164 228.851 571.457C225.144 567.749 220.742 564.809 215.899 562.802C211.055 560.796 205.863 559.763 200.62 559.763L200.62 599.687L200.62 639.611Z" fill="#EF5A2B"/>
<path d="M239.054 125.761C239.054 120.616 238.041 115.521 236.072 110.768C234.103 106.014 231.217 101.695 227.579 98.0573C223.941 94.4192 219.622 91.5333 214.868 89.5644C210.115 87.5955 205.02 86.5821 199.875 86.5821C194.73 86.5821 189.635 87.5955 184.882 89.5644C180.128 91.5333 175.809 94.4192 172.171 98.0573C168.533 101.695 165.647 106.014 163.678 110.768C161.709 115.521 160.696 120.616 160.696 125.761L199.875 125.761H239.054Z" fill="#EF5A2B"/>
<path d="M160.696 640.304C165.939 640.304 171.131 639.271 175.974 637.265C180.818 635.258 185.219 632.317 188.927 628.61C192.634 624.903 195.575 620.502 197.581 615.658C199.587 610.814 200.62 605.623 200.62 600.38C200.62 595.137 199.587 589.945 197.581 585.101C195.575 580.258 192.634 575.856 188.927 572.149C185.219 568.442 180.818 565.501 175.974 563.495C171.131 561.488 165.939 560.456 160.696 560.456L160.696 600.38L160.696 640.304Z" fill="#F15A2B"/>
<ellipse cx="19.962" cy="19.962" rx="19.962" ry="19.962" transform="matrix(1 0 0 -1 260.506 542.52)" fill="#8152FB"/>
</g>
<defs>
<filter id="filter0_f_4767_378" x="0" y="0.518066" width="322" height="799.982" filterUnits="userSpaceOnUse" color-interpolation-filters="sRGB">
<feFlood flood-opacity="0" result="BackgroundImageFix"/>
<feBlend mode="normal" in="SourceGraphic" in2="BackgroundImageFix" result="shape"/>
<feGaussianBlur stdDeviation="0.5" result="effect1_foregroundBlur_4767_378"/>
</filter>
</defs>
</svg>
