<svg width="494" height="70" viewBox="0 0 494 70" fill="none" xmlns="http://www.w3.org/2000/svg">
<path d="M0.896 49.976C0.896 49.5067 1.10933 49.1227 1.536 48.824C1.96267 48.5253 2.432 48.1413 2.944 47.672C3.456 47.2027 3.92533 46.5413 4.352 45.688C4.82133 44.792 5.07733 43.5547 5.12 41.976V15.224C5.07733 13.6027 4.82133 12.3653 4.352 11.512C3.92533 10.6587 3.456 9.99733 2.944 9.528C2.432 9.05866 1.96267 8.67466 1.536 8.376C1.10933 8.07733 0.896 7.69333 0.896 7.224C0.896 7.05333 0.96 6.88266 1.088 6.712C1.25867 6.37066 1.62133 6.2 2.176 6.2H7.232C9.024 6.2 10.6453 6.75466 12.096 7.864C13.5467 8.93066 14.848 10.36 16 12.152C17.152 13.9013 18.1547 15.928 19.008 18.232C19.904 20.536 20.672 22.9253 21.312 25.4C21.9947 27.832 22.5707 30.2427 23.04 32.632C23.5093 35.0213 23.8933 37.1973 24.192 39.16C24.5333 41.1227 24.8107 42.7867 25.024 44.152C25.2373 45.4747 25.408 46.3067 25.536 46.648L31.808 7.672C31.808 7.416 31.8933 7.16 32.064 6.904C32.1493 6.73333 32.2987 6.584 32.512 6.456C32.768 6.28533 33.1307 6.2 33.6 6.2H42.112C43.3067 6.2 43.904 6.69066 43.904 7.672C43.904 8.056 43.7973 8.46133 43.584 8.888C43.4133 9.272 43.2213 9.76266 43.008 10.36C42.7947 10.9573 42.5813 11.704 42.368 12.6C42.1973 13.4533 42.112 14.5413 42.112 15.864V41.336C42.112 42.6587 42.1973 43.768 42.368 44.664C42.5813 45.5173 42.7947 46.2427 43.008 46.84C43.2213 47.4373 43.4133 47.9493 43.584 48.376C43.7973 48.76 43.904 49.144 43.904 49.528C43.904 49.784 43.84 50.0187 43.712 50.232C43.584 50.4453 43.392 50.6373 43.136 50.808C42.9227 50.936 42.5813 51 42.112 51H33.6C32.4053 51 31.808 50.5093 31.808 49.528C31.808 49.144 31.8933 48.76 32.064 48.376C32.2773 47.9493 32.4907 47.4373 32.704 46.84C32.9173 46.2427 33.1093 45.5173 33.28 44.664C33.4933 43.768 33.6 42.6587 33.6 41.336V15.864C33.6 15.1387 33.5573 14.4773 33.472 13.88C33.4293 13.2827 33.3653 12.7493 33.28 12.28L27.2 49.656C27.1147 50.1253 26.9013 50.4667 26.56 50.68C26.2187 50.8933 25.8133 51 25.344 51H18.176C17.6213 51 17.1947 50.744 16.896 50.232C16.5973 49.6773 16.3413 48.824 16.128 47.672C15.9573 46.776 15.7227 45.368 15.424 43.448C15.168 41.4853 14.848 39.3307 14.464 36.984C14.1227 34.5947 13.696 32.1413 13.184 29.624C12.7147 27.1067 12.16 24.824 11.52 22.776C10.9227 20.6853 10.2613 18.9787 9.536 17.656C8.85333 16.2907 8.08533 15.608 7.232 15.608V41.976C7.31733 43.5547 7.57333 44.792 8 45.688C8.46933 46.5413 8.96 47.2027 9.472 47.672C9.984 48.1413 10.432 48.5253 10.816 48.824C11.2427 49.1227 11.456 49.5067 11.456 49.976C11.456 50.1467 11.4133 50.3173 11.328 50.488C11.2427 50.616 11.1147 50.744 10.944 50.872C10.7733 50.9573 10.5173 51 10.176 51H2.176C1.32267 51 0.896 50.6587 0.896 49.976ZM45.835 34.424C45.835 29.3893 47.0937 25.464 49.611 22.648C52.171 19.7893 55.819 18.36 60.555 18.36C62.0057 18.36 63.435 18.552 64.843 18.936C66.2937 19.2773 67.5737 19.8533 68.683 20.664C69.835 21.432 70.7523 22.456 71.435 23.736C72.1603 24.9733 72.523 26.488 72.523 28.28C72.523 29.8587 72.2243 31.1387 71.627 32.12C71.0297 33.0587 70.2403 33.8053 69.259 34.36C68.2777 34.872 67.147 35.2347 65.867 35.448C64.6297 35.6187 63.3283 35.704 61.963 35.704H55.243C55.243 38.1787 55.435 40.312 55.819 42.104C56.203 43.8533 56.6723 45.2827 57.227 46.392C57.8243 47.4587 58.4643 48.248 59.147 48.76C59.8297 49.272 60.4483 49.528 61.003 49.528C61.6857 49.528 62.3257 49.3573 62.923 49.016C63.5203 48.632 64.075 48.1627 64.587 47.608C65.099 47.0107 65.547 46.3493 65.931 45.624C66.3577 44.856 66.699 44.1093 66.955 43.384C67.211 42.6587 67.5737 42.1467 68.043 41.848C68.555 41.5493 69.067 41.4 69.579 41.4C70.347 41.4 71.0083 41.6987 71.563 42.296C72.1603 42.8933 72.3097 43.6613 72.011 44.6C71.7977 45.2827 71.3923 46.0293 70.795 46.84C70.1977 47.6507 69.4297 48.4187 68.491 49.144C67.5523 49.8267 66.443 50.424 65.163 50.936C63.9257 51.4053 62.539 51.64 61.003 51.64C58.5283 51.64 56.3523 51.192 54.475 50.296C52.5977 49.3573 51.019 48.0987 49.739 46.52C48.459 44.9413 47.4777 43.128 46.795 41.08C46.155 38.9893 45.835 36.7707 45.835 34.424ZM55.307 33.592H59.403C60.171 33.592 60.7897 33.4213 61.259 33.08C61.7283 32.7387 62.091 32.312 62.347 31.8C62.6457 31.2453 62.8377 30.648 62.923 30.008C63.051 29.3253 63.115 28.664 63.115 28.024C63.115 27.128 63.0723 26.232 62.987 25.336C62.9017 24.44 62.7523 23.6293 62.539 22.904C62.3257 22.1787 62.0483 21.6027 61.707 21.176C61.4083 20.7067 61.0243 20.472 60.555 20.472C60.0857 20.472 59.5523 20.7493 58.955 21.304C58.4003 21.8587 57.867 22.6907 57.355 23.8C56.843 24.9093 56.395 26.2747 56.011 27.896C55.627 29.5173 55.3923 31.416 55.307 33.592ZM76.252 23.48L80.54 19.96C80.8387 19.704 81.2013 19.4907 81.628 19.32C82.0547 19.1067 82.4813 19 82.908 19C83.42 19 83.8467 19.192 84.188 19.576C84.572 19.96 84.764 20.6853 84.764 21.752V23.096C85.8733 21.7307 87.0893 20.6 88.412 19.704C89.7773 18.808 91.356 18.36 93.148 18.36C95.196 18.36 97.0307 19.0213 98.652 20.344C100.273 21.624 101.297 23.4587 101.724 25.848C101.809 26.36 101.895 27.1493 101.98 28.216C102.065 29.2827 102.151 30.4773 102.236 31.8C102.321 33.08 102.407 34.4453 102.492 35.896C102.577 37.304 102.641 38.648 102.684 39.928C102.769 41.1653 102.855 42.296 102.94 43.32C103.025 44.3013 103.111 45.0053 103.196 45.432C103.281 45.9013 103.431 46.3067 103.644 46.648C103.9 46.9467 104.135 47.2453 104.348 47.544C104.561 47.8427 104.753 48.1413 104.924 48.44C105.095 48.7387 105.18 49.1013 105.18 49.528C105.18 49.9973 104.988 50.36 104.604 50.616C104.263 50.872 103.836 51 103.324 51H95.26C94.7053 51 94.2147 50.744 93.788 50.232C93.3613 49.72 93.1693 48.8667 93.212 47.672C93.2973 45.752 93.532 43.512 93.916 40.952C94.3 38.392 94.556 35.32 94.684 31.736C94.7267 30.2427 94.748 28.8987 94.748 27.704C94.7907 26.4667 94.7053 25.4213 94.492 24.568C94.3213 23.7147 94.0013 23.0533 93.532 22.584C93.0627 22.072 92.38 21.816 91.484 21.816C90.46 21.816 89.3293 22.2853 88.092 23.224C86.8973 24.1627 85.788 25.3787 84.764 26.872V41.336C84.764 42.6587 84.8493 43.768 85.02 44.664C85.2333 45.5173 85.4467 46.2427 85.66 46.84C85.8733 47.4373 86.0653 47.9493 86.236 48.376C86.4493 48.76 86.556 49.144 86.556 49.528C86.556 49.784 86.492 50.0187 86.364 50.232C86.236 50.4453 86.044 50.6373 85.788 50.808C85.5747 50.936 85.2333 51 84.764 51H76.252C75.0573 51 74.46 50.5093 74.46 49.528C74.46 49.144 74.5453 48.76 74.716 48.376C74.9293 47.9493 75.1427 47.4373 75.356 46.84C75.5693 46.2427 75.7613 45.5173 75.932 44.664C76.1453 43.768 76.252 42.6587 76.252 41.336V28.728C76.252 28.0027 76.124 27.4267 75.868 27C75.6547 26.5307 75.4627 26.1253 75.292 25.784C75.164 25.4 75.1427 25.0587 75.228 24.76C75.3133 24.4187 75.6547 23.992 76.252 23.48ZM105.611 19H110.091V15.928C109.109 14.904 108.555 14.0293 108.427 13.304C108.299 12.536 108.853 11.6613 110.091 10.68L114.379 7.16C114.677 6.904 115.04 6.69066 115.467 6.52C115.893 6.30666 116.32 6.2 116.747 6.2C117.259 6.2 117.685 6.392 118.027 6.776C118.411 7.16 118.603 7.88533 118.603 8.952V19H123.083C123.467 19 123.744 19.1067 123.915 19.32C124.085 19.5333 124.171 19.7893 124.171 20.088C124.171 20.344 124.085 20.5787 123.915 20.792C123.744 21.0053 123.467 21.112 123.083 21.112H118.603V37.304C118.603 37.9867 118.603 38.968 118.603 40.248C118.645 41.528 118.731 42.808 118.859 44.088C118.987 45.3253 119.179 46.4133 119.435 47.352C119.691 48.2907 120.053 48.76 120.523 48.76C121.376 48.76 121.909 48.248 122.123 47.224C122.336 46.1573 122.507 44.8773 122.635 43.384C122.72 42.5307 123.019 41.8907 123.531 41.464C124.085 41.0373 124.683 40.824 125.323 40.824C126.048 40.824 126.688 41.1013 127.243 41.656C127.84 42.168 128.096 42.9147 128.011 43.896C127.968 44.5787 127.755 45.3253 127.371 46.136C126.987 46.9467 126.432 47.7147 125.707 48.44C124.981 49.1653 124.043 49.784 122.891 50.296C121.781 50.7653 120.437 51 118.859 51C117.237 51 115.893 50.7653 114.827 50.296C113.803 49.8267 112.949 49.208 112.267 48.44C111.627 47.672 111.157 46.7973 110.859 45.816C110.56 44.8347 110.347 43.832 110.219 42.808C110.091 41.784 110.027 40.8027 110.027 39.864C110.069 38.8827 110.091 38.0293 110.091 37.304V21.112H105.611C105.227 21.112 104.949 21.0053 104.779 20.792C104.608 20.5787 104.523 20.344 104.523 20.088C104.523 19.7893 104.608 19.5333 104.779 19.32C104.949 19.1067 105.227 19 105.611 19ZM145.191 18.36C147.665 18.36 149.841 18.7653 151.719 19.576C153.596 20.344 155.175 21.4747 156.455 22.968C157.735 24.4187 158.695 26.168 159.335 28.216C160.017 30.2213 160.359 32.4827 160.359 35C160.359 37.4747 160.017 39.736 159.335 41.784C158.695 43.832 157.735 45.6027 156.455 47.096C155.175 48.5467 153.596 49.6773 151.719 50.488C149.841 51.256 147.665 51.64 145.191 51.64C142.716 51.64 140.54 51.256 138.663 50.488C136.785 49.6773 135.207 48.5467 133.927 47.096C132.647 45.6027 131.665 43.832 130.983 41.784C130.343 39.736 130.023 37.4747 130.023 35C130.023 32.4827 130.343 30.2213 130.983 28.216C131.665 26.168 132.647 24.4187 133.927 22.968C135.207 21.4747 136.785 20.344 138.663 19.576C140.54 18.7653 142.716 18.36 145.191 18.36ZM139.431 35C139.431 37.4747 139.601 39.6293 139.943 41.464C140.284 43.2987 140.732 44.8133 141.287 46.008C141.841 47.2027 142.46 48.0987 143.143 48.696C143.825 49.2507 144.508 49.528 145.191 49.528C145.873 49.528 146.556 49.2507 147.239 48.696C147.921 48.0987 148.54 47.2027 149.095 46.008C149.649 44.8133 150.097 43.2987 150.439 41.464C150.78 39.6293 150.951 37.4747 150.951 35C150.951 32.4827 150.78 30.328 150.439 28.536C150.097 26.7013 149.649 25.1867 149.095 23.992C148.54 22.7973 147.921 21.9227 147.239 21.368C146.556 20.7707 145.873 20.472 145.191 20.472C144.508 20.472 143.825 20.7707 143.143 21.368C142.46 21.9227 141.841 22.7973 141.287 23.992C140.732 25.1867 140.284 26.7013 139.943 28.536C139.601 30.328 139.431 32.4827 139.431 35ZM164.065 23.48L168.353 19.96C168.651 19.704 169.014 19.4907 169.441 19.32C169.867 19.1067 170.294 19 170.72 19C171.233 19 171.659 19.192 172.001 19.576C172.385 19.96 172.577 20.6853 172.577 21.752V22.072C173.686 20.9627 174.881 20.0667 176.161 19.384C177.483 18.7013 178.955 18.36 180.577 18.36C181.558 18.36 182.603 18.5093 183.713 18.808C184.822 19.1067 185.846 19.5547 186.785 20.152C187.723 20.7067 188.491 21.4107 189.089 22.264C189.686 23.1173 189.985 24.0773 189.985 25.144C189.985 25.9547 189.643 26.744 188.961 27.512C188.278 28.2373 187.318 28.6 186.081 28.6C184.929 28.6 184.033 28.2587 183.393 27.576C182.795 26.8507 182.283 26.0613 181.857 25.208C181.43 24.3547 181.025 23.5867 180.641 22.904C180.299 22.1787 179.766 21.816 179.041 21.816C178.145 21.816 177.121 22.1787 175.969 22.904C174.817 23.5867 173.686 24.504 172.577 25.656V41.336C172.577 42.6587 172.662 43.768 172.833 44.664C173.046 45.5173 173.259 46.2427 173.473 46.84C173.686 47.4373 173.878 47.9493 174.049 48.376C174.262 48.76 174.369 49.144 174.369 49.528C174.369 49.784 174.305 50.0187 174.177 50.232C174.049 50.4453 173.857 50.6373 173.601 50.808C173.387 50.936 173.046 51 172.577 51H164.065C162.87 51 162.273 50.5093 162.273 49.528C162.273 49.144 162.358 48.76 162.529 48.376C162.742 47.9493 162.955 47.4373 163.169 46.84C163.382 46.2427 163.574 45.5173 163.745 44.664C163.958 43.768 164.065 42.6587 164.065 41.336V28.728C164.065 28.0027 163.937 27.4267 163.681 27C163.467 26.5307 163.275 26.1253 163.105 25.784C162.977 25.4 162.955 25.0587 163.041 24.76C163.126 24.4187 163.467 23.992 164.065 23.48ZM195.802 40.632C196.57 40.632 197.21 40.8667 197.722 41.336C198.234 41.7627 198.66 42.296 199.002 42.936C199.343 43.576 199.663 44.3013 199.962 45.112C200.26 45.88 200.58 46.584 200.922 47.224C201.263 47.864 201.668 48.4187 202.138 48.888C202.65 49.3147 203.29 49.528 204.058 49.528C204.655 49.528 205.188 49.4 205.658 49.144C206.17 48.8453 206.596 48.4827 206.938 48.056C207.279 47.6293 207.535 47.1387 207.706 46.584C207.919 46.0293 208.026 45.4747 208.026 44.92C208.026 43.768 207.62 42.744 206.81 41.848C206.042 40.9093 205.06 40.0347 203.866 39.224C202.671 38.3707 201.391 37.5387 200.026 36.728C198.66 35.9173 197.38 35.064 196.186 34.168C194.991 33.272 193.988 32.2907 193.178 31.224C192.41 30.1147 192.026 28.856 192.026 27.448C192.026 25.784 192.452 24.376 193.306 23.224C194.202 22.072 195.29 21.1333 196.57 20.408C197.85 19.6827 199.215 19.1707 200.666 18.872C202.116 18.5307 203.439 18.36 204.634 18.36C206.511 18.36 208.196 18.552 209.69 18.936C211.183 19.32 212.463 19.8533 213.53 20.536C214.596 21.2187 215.407 22.0293 215.962 22.968C216.559 23.864 216.858 24.8453 216.858 25.912C216.858 26.7227 216.516 27.512 215.834 28.28C215.151 29.0053 214.191 29.368 212.954 29.368C212.186 29.368 211.546 29.1547 211.034 28.728C210.522 28.2587 210.095 27.704 209.753 27.064C209.412 26.424 209.092 25.72 208.794 24.952C208.495 24.1413 208.175 23.416 207.833 22.776C207.492 22.136 207.066 21.6027 206.554 21.176C206.084 20.7067 205.466 20.472 204.698 20.472C204.1 20.472 203.546 20.6213 203.034 20.92C202.564 21.176 202.159 21.5173 201.818 21.944C201.476 22.3707 201.199 22.8613 200.986 23.416C200.815 23.9707 200.73 24.5253 200.73 25.08C200.73 26.232 201.114 27.2773 201.882 28.216C202.692 29.1547 203.695 30.0507 204.89 30.904C206.127 31.7573 207.428 32.6107 208.794 33.464C210.202 34.2747 211.503 35.1493 212.698 36.088C213.935 37.0267 214.938 38.0507 215.706 39.16C216.516 40.2267 216.922 41.464 216.922 42.872C216.922 44.536 216.474 45.9227 215.578 47.032C214.682 48.1413 213.572 49.0373 212.25 49.72C210.97 50.4027 209.583 50.8933 208.09 51.192C206.639 51.4907 205.316 51.64 204.122 51.64C202.287 51.64 200.602 51.448 199.066 51.064C197.572 50.68 196.292 50.1467 195.226 49.464C194.159 48.7813 193.327 47.992 192.73 47.096C192.175 46.1573 191.898 45.1547 191.898 44.088C191.898 43.2773 192.239 42.5093 192.922 41.784C193.604 41.016 194.564 40.632 195.802 40.632Z" fill="#E1DBD2"/>
<g filter="url(#filter0_f_5352_102)">
<path d="M268 34.2317C275.445 23.2561 282.891 23.2561 290.336 34.2317C297.781 45.2073 305.226 45.2073 312.672 34.2317C320.117 23.2561 327.562 23.2561 335.007 34.2317C342.453 45.2073 349.898 45.2073 357.343 34.2317C364.789 23.2561 372.234 23.2561 379.679 34.2317C387.124 45.2073 394.57 45.2073 402.015 34.2317C409.46 23.2561 416.906 23.2561 424.351 34.2317C431.796 45.2073 439.241 45.2073 446.687 34.2317C454.132 23.2561 461.577 23.2561 469.022 34.2317C476.468 45.2073 483.913 45.2073 491.358 34.2317" stroke="#E1DBD2" stroke-width="2"/>
</g>
<path d="M229.707 56.1193C232.796 56.1193 235.759 56.1752 238.803 55.5899C239.919 55.3753 243.52 54.0473 244 53.0874" stroke="#8151FB" stroke-width="3" stroke-linecap="round"/>
<path d="M235.338 49.189C234.012 49.3547 235.037 59.4164 235.771 60.8834" stroke="#8151FB" stroke-width="3" stroke-linecap="round"/>
<path d="M235 32.1976C238.123 32.1976 241.305 31.7549 244.297 31.7549" stroke="#8151FB" stroke-width="3" stroke-linecap="round"/>
<path d="M239.427 26V39.7242" stroke="#8151FB" stroke-width="3" stroke-linecap="round"/>
<path d="M217.094 40.7552C220.702 40.7552 224.225 40.3125 227.72 40.3125" stroke="#8151FB" stroke-width="3" stroke-linecap="round"/>
<path d="M221.964 35C221.964 39.1776 222.407 43.3317 222.407 47.3961" stroke="#8151FB" stroke-width="3" stroke-linecap="round"/>
<defs>
<filter id="filter0_f_5352_102" x="266.172" y="24" width="227.013" height="20.4634" filterUnits="userSpaceOnUse" color-interpolation-filters="sRGB">
<feFlood flood-opacity="0" result="BackgroundImageFix"/>
<feBlend mode="normal" in="SourceGraphic" in2="BackgroundImageFix" result="shape"/>
<feGaussianBlur stdDeviation="0.5" result="effect1_foregroundBlur_5352_102"/>
</filter>
</defs>
</svg>
