<svg width="1512" height="798" viewBox="0 0 1512 798" fill="none" xmlns="http://www.w3.org/2000/svg">
<g clip-path="url(#clip0_5348_87)">
<rect width="1512" height="798" fill="#2F302D"/>
<g filter="url(#filter0_f_5348_87)">
<rect width="79.8481" height="79.8481" transform="matrix(1 0 0 -1 1350.7 718.632)" fill="#1173D9"/>
<rect width="79.8481" height="79.8481" transform="matrix(1 0 0 -1 1270.85 638.784)" fill="#1173D9"/>
<rect width="79.8481" height="79.8481" transform="matrix(1 0 0 -1 1431.15 797.981)" fill="#1173D9"/>
<rect width="79.8481" height="79.8481" transform="matrix(1 0 0 -1 1191 558.937)" fill="#1173D9"/>
<rect width="79.8481" height="79.8481" transform="matrix(1 0 0 -1 1191 239.543)" fill="#1173D9"/>
<rect width="79.8481" height="79.8481" transform="matrix(1 0 0 -1 1430.54 638.784)" fill="#1173D9"/>
<rect width="79.8481" height="79.8481" transform="matrix(1 0 0 -1 1430.54 479.089)" fill="#1173D9"/>
<rect width="79.8481" height="79.8481" transform="matrix(1 0 0 -1 1350.7 399.24)" fill="#1173D9"/>
<rect width="79.8481" height="79.8481" transform="matrix(1 0 0 -1 1270.85 319.392)" fill="#1173D9"/>
<rect width="79.8481" height="79.8481" transform="matrix(1 0 0 -1 1350.7 239.543)" fill="#1173D9"/>
<rect width="79.8481" height="79.8481" transform="matrix(1 0 0 -1 1270.85 159.696)" fill="#1173D9"/>
<rect width="79.8481" height="79.8481" transform="matrix(1 0 0 -1 1350.7 79.8477)" fill="#1173D9"/>
<rect width="79.8481" height="79.8481" transform="matrix(1 0 0 -1 1430.54 319.392)" fill="#1173D9"/>
<rect width="79.8481" height="79.8481" transform="matrix(1 0 0 -1 1430.54 159.696)" fill="#1173D9"/>
<rect width="79.8481" height="79.8481" transform="matrix(1 0 0 -1 1350.7 558.937)" fill="#1173D9"/>
<rect width="79.8481" height="79.8481" transform="matrix(1 0 0 -1 1270.85 479.089)" fill="#1173D9"/>
<path d="M1470.47 638.784C1465.23 638.784 1460.03 639.817 1455.19 641.823C1450.35 643.83 1445.95 646.77 1442.24 650.478C1438.53 654.185 1435.59 658.586 1433.58 663.43C1431.58 668.274 1430.54 673.465 1430.54 678.708C1430.54 683.951 1431.58 689.143 1433.58 693.987C1435.59 698.83 1438.53 703.232 1442.24 706.939C1445.95 710.646 1450.35 713.587 1455.19 715.593C1460.03 717.6 1465.23 718.632 1470.47 718.632L1470.47 678.708L1470.47 638.784Z" fill="#8151FB"/>
<path d="M1390.62 479.088C1398.52 479.088 1406.24 476.747 1412.8 472.36C1419.37 467.973 1424.48 461.738 1427.51 454.443C1430.53 447.147 1431.32 439.12 1429.78 431.375C1428.24 423.631 1424.43 416.517 1418.85 410.934C1413.27 405.35 1406.15 401.548 1398.41 400.007C1390.66 398.467 1382.64 399.258 1375.34 402.279C1368.05 405.301 1361.81 410.418 1357.42 416.984C1353.04 423.549 1350.7 431.268 1350.7 439.164L1390.62 439.164L1390.62 479.088Z" fill="#F8931F"/>
<path d="M1390.62 638.093C1395.86 638.093 1401.05 637.06 1405.9 635.054C1410.74 633.047 1415.14 630.107 1418.85 626.399C1422.56 622.692 1425.5 618.291 1427.51 613.447C1429.51 608.603 1430.54 603.412 1430.54 598.169C1430.54 592.926 1429.51 587.734 1427.51 582.89C1425.5 578.047 1422.56 573.645 1418.85 569.938C1415.14 566.231 1410.74 563.29 1405.9 561.284C1401.05 559.277 1395.86 558.245 1390.62 558.245L1390.62 598.169L1390.62 638.093Z" fill="#EF5A2B"/>
<path d="M1429.05 124.242C1429.05 119.097 1428.04 114.003 1426.07 109.249C1424.1 104.496 1421.22 100.177 1417.58 96.5388C1413.94 92.9007 1409.62 90.0148 1404.87 88.0459C1400.11 86.0769 1395.02 85.0635 1389.87 85.0635C1384.73 85.0635 1379.64 86.0769 1374.88 88.0459C1370.13 90.0148 1365.81 92.9007 1362.17 96.5388C1358.53 100.177 1355.65 104.496 1353.68 109.249C1351.71 114.003 1350.7 119.097 1350.7 124.242L1389.87 124.242H1429.05Z" fill="#EF5A2B"/>
<path d="M1350.7 638.785C1355.94 638.785 1361.13 637.752 1365.97 635.746C1370.82 633.74 1375.22 630.799 1378.93 627.092C1382.63 623.384 1385.57 618.983 1387.58 614.139C1389.59 609.296 1390.62 604.104 1390.62 598.861C1390.62 593.618 1389.59 588.427 1387.58 583.583C1385.57 578.739 1382.63 574.338 1378.93 570.63C1375.22 566.923 1370.82 563.982 1365.97 561.976C1361.13 559.97 1355.94 558.937 1350.7 558.937L1350.7 598.861L1350.7 638.785Z" fill="#F15A2B"/>
<ellipse cx="19.962" cy="19.962" rx="19.962" ry="19.962" transform="matrix(1 0 0 -1 1450.51 541.001)" fill="#8152FB"/>
</g>
</g>
<defs>
<filter id="filter0_f_5348_87" x="1190" y="-1.00049" width="322" height="799.982" filterUnits="userSpaceOnUse" color-interpolation-filters="sRGB">
<feFlood flood-opacity="0" result="BackgroundImageFix"/>
<feBlend mode="normal" in="SourceGraphic" in2="BackgroundImageFix" result="shape"/>
<feGaussianBlur stdDeviation="0.5" result="effect1_foregroundBlur_5348_87"/>
</filter>
<clipPath id="clip0_5348_87">
<rect width="1512" height="798" fill="white"/>
</clipPath>
</defs>
</svg>
