<svg width="498" height="70" viewBox="0 0 498 70" fill="none" xmlns="http://www.w3.org/2000/svg">
<g filter="url(#filter0_f_5352_102)">
<path d="M9.12 15.224V41.976C8.864 48.376 4.896 48.12 4.896 49.976C4.896 50.68 5.344 51 6.176 51H14.176C14.176 51 15.456 51 15.456 49.976C15.456 48.12 11.488 48.376 11.232 41.976V15.608C16.288 15.608 19.104 42.296 20.128 47.672C20.576 49.976 21.088 51 22.176 51H29.344C30.24 51 31.008 50.552 31.2 49.656L37.28 12.28C37.472 13.24 37.6 14.392 37.6 15.864V41.336C37.6 46.584 35.808 48.056 35.808 49.528C35.808 50.488 36.384 51 37.6 51H46.112C46.112 51 47.904 51 47.904 49.528C47.904 48.056 46.112 46.584 46.112 41.336V15.864C46.112 10.616 47.904 9.144 47.904 7.672C47.904 6.712 47.328 6.2 46.112 6.2H37.6C37.6 6.2 35.808 6.2 35.808 7.672L29.536 46.648C28.384 43.832 25.568 6.2 11.232 6.2H6.176C6.176 6.2 4.896 6.2 4.896 7.224C4.896 9.08 8.864 8.824 9.12 15.224ZM65.003 51.64C71.147 51.64 75.179 47.288 76.011 44.6C76.587 42.744 75.115 41.4 73.579 41.4C72.555 41.4 71.467 41.976 70.955 43.384C69.867 46.328 67.755 49.528 65.003 49.528C62.763 49.528 59.243 45.688 59.243 35.704H65.963C71.403 35.704 76.523 34.552 76.523 28.28C76.523 21.048 70.379 18.36 64.555 18.36C55.147 18.36 49.835 24.44 49.835 34.424C49.835 43.768 55.147 51.64 65.003 51.64ZM64.555 20.472C66.411 20.472 67.115 24.44 67.115 28.024C67.115 30.584 66.411 33.592 63.403 33.592H59.307C59.691 24.952 62.699 20.472 64.555 20.472ZM80.252 28.728V41.336C80.252 46.584 78.46 48.056 78.46 49.528C78.46 50.488 79.036 51 80.252 51H88.764C88.764 51 90.556 51 90.556 49.528C90.556 48.056 88.764 46.584 88.764 41.336V26.872C90.812 23.864 93.436 21.816 95.484 21.816C99.068 21.816 98.876 25.848 98.684 31.736C98.428 38.904 97.34 43.832 97.212 47.672C97.148 50.04 98.172 51 99.26 51H107.324C108.348 51 109.18 50.488 109.18 49.528C109.18 47.8 107.58 47.352 107.196 45.432C106.684 42.808 106.3 29.048 105.724 25.848C104.892 21.112 101.244 18.36 97.148 18.36C93.628 18.36 90.94 20.408 88.764 23.096V21.752C88.764 19.64 87.932 19 86.908 19C86.076 19 85.116 19.448 84.54 19.96L80.252 23.48C77.82 25.464 80.252 25.848 80.252 28.728ZM109.611 21.112H114.091V37.304C114.091 41.72 113.195 51 122.859 51C129.195 51 131.755 46.584 132.011 43.896C132.203 41.912 130.795 40.824 129.323 40.824C128.043 40.824 126.763 41.656 126.635 43.384C126.443 46.392 126.251 48.76 124.523 48.76C122.603 48.76 122.603 39.992 122.603 37.304V21.112H127.083C128.555 21.112 128.555 19 127.083 19H122.603V8.952C122.603 6.84 121.771 6.2 120.747 6.2C119.915 6.2 118.955 6.648 118.379 7.16L114.091 10.68C111.659 12.664 112.107 13.88 114.091 15.928V19H109.611C108.139 19 108.139 21.112 109.611 21.112ZM149.191 51.64C159.047 51.64 164.359 44.984 164.359 35C164.359 25.016 159.047 18.36 149.191 18.36C139.335 18.36 134.023 25.016 134.023 35C134.023 44.984 139.335 51.64 149.191 51.64ZM143.431 35C143.431 25.016 146.503 20.472 149.191 20.472C151.878 20.472 154.951 25.016 154.951 35C154.951 44.984 151.878 49.528 149.191 49.528C146.503 49.528 143.431 44.984 143.431 35ZM168.065 28.728V41.336C168.065 46.584 166.273 48.056 166.273 49.528C166.273 50.488 166.849 51 168.065 51H176.577C176.577 51 178.369 51 178.369 49.528C178.369 48.056 176.577 46.584 176.577 41.336V25.656C178.753 23.352 181.249 21.816 183.041 21.816C185.857 21.816 185.409 28.6 190.081 28.6C192.577 28.6 193.985 26.744 193.985 25.144C193.985 20.856 188.545 18.36 184.577 18.36C181.377 18.36 178.753 19.896 176.577 22.072V21.752C176.577 19.64 175.745 19 174.72 19C173.889 19 172.929 19.448 172.353 19.96L168.065 23.48C165.633 25.464 168.065 25.848 168.065 28.728ZM208.122 51.64C212.858 51.64 220.922 49.464 220.922 42.872C220.922 34.488 204.73 31.992 204.73 25.08C204.73 22.84 206.33 20.472 208.698 20.472C213.306 20.472 212.282 29.368 216.954 29.368C219.45 29.368 220.858 27.512 220.858 25.912C220.858 21.624 216.058 18.36 208.634 18.36C203.898 18.36 196.026 20.856 196.026 27.448C196.026 35.832 212.026 38.008 212.026 44.92C212.026 47.16 210.426 49.528 208.058 49.528C203.45 49.528 204.474 40.632 199.802 40.632C197.306 40.632 195.898 42.488 195.898 44.088C195.898 48.376 200.698 51.64 208.122 51.64Z" fill="#E1DBD2"/>
</g>
<g filter="">
<path d="M272 34.2317C279.445 23.2561 286.891 23.2561 294.336 34.2317C301.781 45.2073 309.226 45.2073 316.672 34.2317C324.117 23.2561 331.562 23.2561 339.007 34.2317C346.453 45.2073 353.898 45.2073 361.343 34.2317C368.789 23.2561 376.234 23.2561 383.679 34.2317C391.124 45.2073 398.57 45.2073 406.015 34.2317C413.46 23.2561 420.906 23.2561 428.351 34.2317C435.796 45.2073 443.241 45.2073 450.687 34.2317C458.132 23.2561 465.577 23.2561 473.022 34.2317C480.468 45.2073 487.913 45.2073 495.358 34.2317" stroke="#E1DBD2" stroke-width="2"/>
</g>
<path d="M233.707 56.1193C236.796 56.1193 239.759 56.1752 242.803 55.5899C243.919 55.3753 247.52 54.0473 248 53.0874" stroke="#8151FB" stroke-width="3" stroke-linecap="round"/>
<path d="M239.338 49.189C238.012 49.3547 239.037 59.4164 239.771 60.8834" stroke="#8151FB" stroke-width="3" stroke-linecap="round"/>
<path d="M239 32.1976C242.123 32.1976 245.305 31.7549 248.297 31.7549" stroke="#8151FB" stroke-width="3" stroke-linecap="round"/>
<path d="M243.427 26V39.7242" stroke="#8151FB" stroke-width="3" stroke-linecap="round"/>
<path d="M221.094 40.7552C224.702 40.7552 228.225 40.3125 231.72 40.3125" stroke="#8151FB" stroke-width="3" stroke-linecap="round"/>
<path d="M225.964 35C225.964 39.1776 226.407 43.3317 226.407 47.3961" stroke="#8151FB" stroke-width="3" stroke-linecap="round"/>
<defs>
<filter id="filter0_f_5352_102" x="0.895996" y="2.2002" width="224.026" height="53.4399" filterUnits="userSpaceOnUse" color-interpolation-filters="sRGB">
<feFlood flood-opacity="0" result="BackgroundImageFix"/>
<feBlend mode="normal" in="SourceGraphic" in2="BackgroundImageFix" result="shape"/>
<feGaussianBlur stdDeviation="2" result="effect1_foregroundBlur_5352_102"/>
</filter>
<filter id="filter1_f_5352_102" x="270.172" y="24" width="227.013" height="20.4634" filterUnits="userSpaceOnUse" color-interpolation-filters="sRGB">
<feFlood flood-opacity="0" result="BackgroundImageFix"/>
<feBlend mode="normal" in="SourceGraphic" in2="BackgroundImageFix" result="shape"/>
<feGaussianBlur stdDeviation="0.5" result="effect1_foregroundBlur_5352_102"/>
</filter>
</defs>
</svg>
