<svg width="162" height="49" viewBox="0 0 162 49" fill="none" xmlns="http://www.w3.org/2000/svg">
<path d="M0.96 46.528C0.96 46.144 1.04533 45.76 1.216 45.376C1.42933 44.9493 1.64267 44.4373 1.856 43.84C2.06933 43.2427 2.26133 42.5173 2.432 41.664C2.64533 40.768 2.752 39.6587 2.752 38.336V12.864C2.752 11.5413 2.64533 10.4533 2.432 9.6C2.26133 8.704 2.06933 7.95733 1.856 7.36C1.64267 6.76266 1.42933 6.272 1.216 5.888C1.04533 5.46133 0.96 5.056 0.96 4.672C0.96 3.69066 1.55733 3.2 2.752 3.2H11.264C11.52 3.2 11.7547 3.24266 11.968 3.328C12.1813 3.41333 12.3733 3.52 12.544 3.648C12.7573 3.73333 12.9067 3.904 12.992 4.16C14.656 3.09333 16.4693 2.56 18.432 2.56C20.1813 2.56 21.824 2.98666 23.36 3.84C24.896 4.69333 26.24 5.84533 27.392 7.296C28.544 8.74666 29.44 10.4533 30.08 12.416C30.7627 14.336 31.104 16.4053 31.104 18.624C31.104 20.8 30.7627 22.8693 30.08 24.832C29.44 26.752 28.544 28.4373 27.392 29.888C26.24 31.3387 24.896 32.4907 23.36 33.344C21.824 34.1973 20.1813 34.624 18.432 34.624C15.7867 34.624 13.3973 33.6853 11.264 31.808V38.336C11.264 39.6587 11.3493 40.768 11.52 41.664C11.7333 42.5173 11.9467 43.2427 12.16 43.84C12.3733 44.4373 12.5653 44.9493 12.736 45.376C12.9493 45.76 13.056 46.144 13.056 46.528C13.056 47.5093 12.4587 48 11.264 48H2.752C2.41067 48 2.112 47.936 1.856 47.808C1.64267 47.7227 1.42933 47.5733 1.216 47.36C1.04533 47.1467 0.96 46.8693 0.96 46.528ZM11.264 12.864V28.544C11.904 29.312 12.608 29.9307 13.376 30.4C14.1867 30.8267 15.0187 31.04 15.872 31.04C17.024 31.04 17.9627 30.656 18.688 29.888C19.456 29.12 20.0533 28.1387 20.48 26.944C20.9493 25.7493 21.2693 24.4267 21.44 22.976C21.6107 21.4827 21.696 20.032 21.696 18.624C21.696 17.216 21.6107 15.7653 21.44 14.272C21.2693 12.7787 20.9493 11.4347 20.48 10.24C20.0533 9.04533 19.456 8.064 18.688 7.296C17.9627 6.528 17.024 6.144 15.872 6.144C14.8053 6.144 13.9733 6.336 13.376 6.72C12.7787 7.104 12.3093 7.616 11.968 8.256C11.6693 8.896 11.4773 9.62133 11.392 10.432C11.3067 11.2 11.264 12.0107 11.264 12.864ZM34.8145 20.48L39.1025 16.96C39.4012 16.704 39.7638 16.4907 40.1905 16.32C40.6172 16.1067 41.0438 16 41.4705 16C41.9825 16 42.4092 16.192 42.7505 16.576C43.1345 16.96 43.3265 17.6853 43.3265 18.752V19.072C44.4358 17.9627 45.6305 17.0667 46.9105 16.384C48.2332 15.7013 49.7052 15.36 51.3265 15.36C52.3078 15.36 53.3532 15.5093 54.4625 15.808C55.5718 16.1067 56.5958 16.5547 57.5345 17.152C58.4732 17.7067 59.2412 18.4107 59.8385 19.264C60.4358 20.1173 60.7345 21.0773 60.7345 22.144C60.7345 22.9547 60.3932 23.744 59.7105 24.512C59.0278 25.2373 58.0678 25.6 56.8305 25.6C55.6785 25.6 54.7825 25.2587 54.1425 24.576C53.5452 23.8507 53.0332 23.0613 52.6065 22.208C52.1798 21.3547 51.7745 20.5867 51.3905 19.904C51.0492 19.1787 50.5158 18.816 49.7905 18.816C48.8945 18.816 47.8705 19.1787 46.7185 19.904C45.5665 20.5867 44.4358 21.504 43.3265 22.656V38.336C43.3265 39.6587 43.4118 40.768 43.5825 41.664C43.7958 42.5173 44.0092 43.2427 44.2225 43.84C44.4358 44.4373 44.6278 44.9493 44.7985 45.376C45.0118 45.76 45.1185 46.144 45.1185 46.528C45.1185 46.784 45.0545 47.0187 44.9265 47.232C44.7985 47.4453 44.6065 47.6373 44.3505 47.808C44.1372 47.936 43.7958 48 43.3265 48H34.8145C33.6198 48 33.0225 47.5093 33.0225 46.528C33.0225 46.144 33.1078 45.76 33.2785 45.376C33.4918 44.9493 33.7052 44.4373 33.9185 43.84C34.1318 43.2427 34.3238 42.5173 34.4945 41.664C34.7078 40.768 34.8145 39.6587 34.8145 38.336V25.728C34.8145 25.0027 34.6865 24.4267 34.4305 24C34.2172 23.5307 34.0252 23.1253 33.8545 22.784C33.7265 22.4 33.7052 22.0587 33.7905 21.76C33.8758 21.4187 34.2172 20.992 34.8145 20.48ZM64.4395 20.736L68.7275 17.216C69.0688 16.9173 69.4528 16.64 69.8795 16.384C70.3488 16.128 70.8182 16 71.2875 16C71.7568 16 72.1408 16.2133 72.4395 16.64C72.7808 17.0667 72.9515 17.856 72.9515 19.008V38.336C72.9515 39.6587 73.0368 40.768 73.2075 41.664C73.4208 42.5173 73.6342 43.2427 73.8475 43.84C74.0608 44.4373 74.2528 44.9493 74.4235 45.376C74.6368 45.76 74.7435 46.144 74.7435 46.528C74.7435 46.784 74.6795 47.0187 74.5515 47.232C74.4235 47.4453 74.2315 47.6373 73.9755 47.808C73.7622 47.936 73.4208 48 72.9515 48H64.4395C64.0982 48 63.7995 47.936 63.5435 47.808C63.3302 47.7227 63.1168 47.5733 62.9035 47.36C62.7328 47.1467 62.6475 46.8693 62.6475 46.528C62.6475 46.144 62.7328 45.76 62.9035 45.376C63.1168 44.9493 63.3302 44.4373 63.5435 43.84C63.7568 43.2427 63.9488 42.5173 64.1195 41.664C64.3328 40.768 64.4395 39.6587 64.4395 38.336V25.984C63.4582 24.96 62.9035 24.0853 62.7755 23.36C62.6475 22.592 63.2022 21.7173 64.4395 20.736ZM68.7275 -3.8147e-06C70.3488 -3.8147e-06 71.7142 0.575996 72.8235 1.728C73.9328 2.88 74.4875 4.26666 74.4875 5.888C74.4875 6.69866 74.3382 7.46666 74.0395 8.192C73.7408 8.87467 73.3355 9.49333 72.8235 10.048C72.3115 10.56 71.6928 10.9653 70.9675 11.264C70.2848 11.5627 69.5382 11.712 68.7275 11.712C67.1062 11.712 65.7195 11.1573 64.5675 10.048C63.4582 8.896 62.9035 7.50933 62.9035 5.888C62.9035 5.07733 63.0528 4.33066 63.3515 3.648C63.6502 2.92266 64.0555 2.304 64.5675 1.792C65.1222 1.23733 65.7408 0.810665 66.4235 0.511997C67.1488 0.170663 67.9168 -3.8147e-06 68.7275 -3.8147e-06ZM76.6475 46.528C76.6475 46.016 77.0742 45.2053 77.9275 44.096C78.8235 42.944 79.9328 41.6 81.2555 40.064C82.5782 38.528 83.9862 36.8427 85.4795 35.008C87.0155 33.1733 88.4448 31.296 89.7675 29.376C91.0902 27.456 92.1782 25.536 93.0315 23.616C93.9275 21.6533 94.3755 19.8187 94.3755 18.112H90.9835C89.8315 18.112 88.9568 18.5387 88.3595 19.392C87.8048 20.2453 87.2928 21.2053 86.8235 22.272C86.3968 23.296 85.8848 24.2347 85.2875 25.088C84.7328 25.9413 83.8795 26.368 82.7275 26.368C81.4902 26.368 80.5302 26.0053 79.8475 25.28C79.1648 24.512 78.8235 23.7227 78.8235 22.912C78.8235 20.736 79.9115 19.0507 82.0875 17.856C84.3062 16.6187 87.2928 16 91.0475 16H105.448C105.789 16 106.088 16.064 106.344 16.192C106.557 16.2773 106.749 16.4267 106.92 16.64C107.133 16.8107 107.24 17.088 107.24 17.472C107.24 17.984 106.792 18.8373 105.896 20.032C105.042 21.184 103.954 22.5493 102.632 24.128C101.352 25.7067 99.9435 27.456 98.4075 29.376C96.8715 31.2533 95.4422 33.152 94.1195 35.072C92.8395 36.992 91.7515 38.8907 90.8555 40.768C90.0022 42.6453 89.5755 44.352 89.5755 45.888H92.9035C94.0555 45.888 94.9088 45.4613 95.4635 44.608C96.0608 43.7547 96.5728 42.816 96.9995 41.792C97.4688 40.7253 97.9808 39.7653 98.5355 38.912C99.1328 38.0587 100.008 37.632 101.16 37.632C102.397 37.632 103.357 38.016 104.04 38.784C104.722 39.5093 105.064 40.2773 105.064 41.088C105.064 43.264 103.954 44.9707 101.736 46.208C99.5595 47.4027 96.5942 48 92.8395 48H78.4395C78.0982 48 77.7995 47.936 77.5435 47.808C77.3302 47.7227 77.1168 47.5733 76.9035 47.36C76.7328 47.1467 76.6475 46.8693 76.6475 46.528ZM107.898 31.424C107.898 26.3893 109.156 22.464 111.674 19.648C114.234 16.7893 117.882 15.36 122.618 15.36C124.068 15.36 125.498 15.552 126.906 15.936C128.356 16.2773 129.636 16.8533 130.746 17.664C131.898 18.432 132.815 19.456 133.498 20.736C134.223 21.9733 134.586 23.488 134.586 25.28C134.586 26.8587 134.287 28.1387 133.69 29.12C133.092 30.0587 132.303 30.8053 131.322 31.36C130.34 31.872 129.21 32.2347 127.93 32.448C126.692 32.6187 125.391 32.704 124.026 32.704H117.306C117.306 35.1787 117.498 37.312 117.882 39.104C118.266 40.8533 118.735 42.2827 119.29 43.392C119.887 44.4587 120.527 45.248 121.21 45.76C121.892 46.272 122.511 46.528 123.066 46.528C123.748 46.528 124.388 46.3573 124.986 46.016C125.583 45.632 126.138 45.1627 126.65 44.608C127.162 44.0107 127.61 43.3493 127.994 42.624C128.42 41.856 128.762 41.1093 129.018 40.384C129.274 39.6587 129.636 39.1467 130.106 38.848C130.618 38.5493 131.13 38.4 131.642 38.4C132.41 38.4 133.071 38.6987 133.626 39.296C134.223 39.8933 134.372 40.6613 134.074 41.6C133.86 42.2827 133.455 43.0293 132.858 43.84C132.26 44.6507 131.492 45.4187 130.554 46.144C129.615 46.8267 128.506 47.424 127.226 47.936C125.988 48.4053 124.602 48.64 123.066 48.64C120.591 48.64 118.415 48.192 116.538 47.296C114.66 46.3573 113.082 45.0987 111.802 43.52C110.522 41.9413 109.54 40.128 108.858 38.08C108.218 35.9893 107.898 33.7707 107.898 31.424ZM117.37 30.592H121.466C122.234 30.592 122.852 30.4213 123.322 30.08C123.791 29.7387 124.154 29.312 124.41 28.8C124.708 28.2453 124.9 27.648 124.986 27.008C125.114 26.3253 125.178 25.664 125.178 25.024C125.178 24.128 125.135 23.232 125.05 22.336C124.964 21.44 124.815 20.6293 124.602 19.904C124.388 19.1787 124.111 18.6027 123.77 18.176C123.471 17.7067 123.087 17.472 122.618 17.472C122.148 17.472 121.615 17.7493 121.018 18.304C120.463 18.8587 119.93 19.6907 119.418 20.8C118.906 21.9093 118.458 23.2747 118.074 24.896C117.69 26.5173 117.455 28.416 117.37 30.592ZM140.427 37.632C141.195 37.632 141.835 37.8667 142.347 38.336C142.859 38.7627 143.285 39.296 143.627 39.936C143.968 40.576 144.288 41.3013 144.587 42.112C144.885 42.88 145.205 43.584 145.547 44.224C145.888 44.864 146.293 45.4187 146.763 45.888C147.275 46.3147 147.915 46.528 148.683 46.528C149.28 46.528 149.813 46.4 150.283 46.144C150.795 45.8453 151.221 45.4827 151.562 45.056C151.904 44.6293 152.16 44.1387 152.331 43.584C152.544 43.0293 152.651 42.4747 152.651 41.92C152.651 40.768 152.245 39.744 151.435 38.848C150.667 37.9093 149.685 37.0347 148.491 36.224C147.296 35.3707 146.016 34.5387 144.651 33.728C143.285 32.9173 142.005 32.064 140.811 31.168C139.616 30.272 138.613 29.2907 137.803 28.224C137.035 27.1147 136.651 25.856 136.651 24.448C136.651 22.784 137.077 21.376 137.931 20.224C138.827 19.072 139.915 18.1333 141.195 17.408C142.475 16.6827 143.84 16.1707 145.291 15.872C146.741 15.5307 148.064 15.36 149.259 15.36C151.136 15.36 152.821 15.552 154.315 15.936C155.808 16.32 157.088 16.8533 158.155 17.536C159.221 18.2187 160.032 19.0293 160.587 19.968C161.184 20.864 161.483 21.8453 161.483 22.912C161.483 23.7227 161.141 24.512 160.459 25.28C159.776 26.0053 158.816 26.368 157.579 26.368C156.811 26.368 156.171 26.1547 155.659 25.728C155.147 25.2587 154.72 24.704 154.378 24.064C154.037 23.424 153.717 22.72 153.419 21.952C153.12 21.1413 152.8 20.416 152.458 19.776C152.117 19.136 151.691 18.6027 151.179 18.176C150.709 17.7067 150.091 17.472 149.323 17.472C148.725 17.472 148.171 17.6213 147.659 17.92C147.189 18.176 146.784 18.5173 146.443 18.944C146.101 19.3707 145.824 19.8613 145.611 20.416C145.44 20.9707 145.355 21.5253 145.355 22.08C145.355 23.232 145.739 24.2773 146.507 25.216C147.317 26.1547 148.32 27.0507 149.515 27.904C150.752 28.7573 152.053 29.6107 153.419 30.464C154.827 31.2747 156.128 32.1493 157.323 33.088C158.56 34.0267 159.563 35.0507 160.331 36.16C161.141 37.2267 161.547 38.464 161.547 39.872C161.547 41.536 161.099 42.9227 160.203 44.032C159.307 45.1413 158.197 46.0373 156.875 46.72C155.595 47.4027 154.208 47.8933 152.715 48.192C151.264 48.4907 149.941 48.64 148.747 48.64C146.912 48.64 145.227 48.448 143.691 48.064C142.197 47.68 140.917 47.1467 139.851 46.464C138.784 45.7813 137.952 44.992 137.355 44.096C136.8 43.1573 136.523 42.1547 136.523 41.088C136.523 40.2773 136.864 39.5093 137.547 38.784C138.229 38.016 139.189 37.632 140.427 37.632Z" fill="#E1DBD2"/>
</svg>
