<svg width="437" height="519" viewBox="0 0 437 519" fill="none" xmlns="http://www.w3.org/2000/svg">
<path d="M410.486 440.636C410.486 445.408 410.486 487.115 410.486 507.025C410.486 512.548 406.009 517 400.486 517L30.4863 517C24.9635 517 20.4863 512.523 20.4863 507L20.4863 498.428L20.4863 237" stroke="white" stroke-width="3"/>
<path fill-rule="evenodd" clip-rule="evenodd" d="M287.695 284.435C316.932 286.406 343.889 293.912 368.355 304.438C392.507 314.828 415.513 327.203 427.074 344.396C438.532 361.434 438.764 380.87 431.881 398.906C425.39 415.915 405.668 428.443 389.612 442.562C372.014 458.034 360.435 477.949 333.216 485.659C305.056 493.636 270.891 492.308 242.871 484.13C216.199 476.345 203.589 457.57 185.703 442.604C168.932 428.571 146.963 416.457 141.267 399.114C135.401 381.25 145.167 363.42 154.004 346.074C163.822 326.8 169.87 304.565 195.436 292.778C221.234 280.884 256.172 282.309 287.695 284.435Z" fill="white" fill-opacity="0.37"/>
<path d="M20.4863 77.448C20.4863 72.2976 20.4863 31.6531 20.4863 11.9764C20.4863 6.45353 24.9634 2 30.4863 2H400.486C406.009 2 410.486 6.47715 410.486 12V22.0311V311" stroke="white" stroke-width="3"/>
<path fill-rule="evenodd" clip-rule="evenodd" d="M123.925 63.7404C152.782 67.2334 172.911 81.9704 198.944 90.4905C228.29 100.095 270.592 98.8733 286.602 116.982C302.503 134.965 281.846 156.807 275.386 176.948C269.307 195.899 268.977 216.266 249.879 231.48C230.372 247.018 199.415 253.98 169.86 261.006C138.07 268.563 99.7873 286.003 71.9863 273.767C40.9005 260.084 59.3963 228.021 44.9945 206.046C36.7128 193.409 7.74167 181.582 1.48629 168.499C-5.2708 154.366 13.0338 143.131 15.9863 128.499C20.2042 107.595 17.928 94.7456 29.4863 73.9986C55.9863 37 91.5737 59.8245 123.925 63.7404Z" fill="white" fill-opacity="0.37"/>
</svg>
