<svg width="173" height="173" viewBox="0 0 173 173" fill="none" xmlns="http://www.w3.org/2000/svg">
<mask id="path-1-outside-1_5477_74" maskUnits="userSpaceOnUse" x="-1.22473" y="13.5279" width="120.081" height="160.386" fill="black">
<rect fill="white" x="-1.22473" y="13.5279" width="120.081" height="160.386"/>
<path d="M104.591 154.442C95.1082 156.983 85.199 157.516 75.4982 156.005C65.7975 154.495 56.5192 150.975 48.2576 145.671C39.996 140.367 32.9332 133.396 27.5217 125.205C22.1101 117.013 18.4691 107.782 16.8318 98.1017C15.1945 88.4216 15.5971 78.5062 18.0138 68.9907C20.4304 59.4752 24.8078 50.5693 30.8656 42.8435C36.9234 35.1177 44.5281 28.7423 53.1925 24.1256C61.8569 19.509 71.39 16.7529 81.1812 16.0338L86.3445 86.3445L104.591 154.442Z"/>
</mask>
<path d="M104.591 154.442C95.1082 156.983 85.199 157.516 75.4982 156.005C65.7975 154.495 56.5192 150.975 48.2576 145.671C39.996 140.367 32.9332 133.396 27.5217 125.205C22.1101 117.013 18.4691 107.782 16.8318 98.1017C15.1945 88.4216 15.5971 78.5062 18.0138 68.9907C20.4304 59.4752 24.8078 50.5693 30.8656 42.8435C36.9234 35.1177 44.5281 28.7423 53.1925 24.1256C61.8569 19.509 71.39 16.7529 81.1812 16.0338L86.3445 86.3445L104.591 154.442Z" fill="#8151FB"/>
<path d="M104.591 154.442C95.1082 156.983 85.199 157.516 75.4982 156.005C65.7975 154.495 56.5192 150.975 48.2576 145.671C39.996 140.367 32.9332 133.396 27.5217 125.205C22.1101 117.013 18.4691 107.782 16.8318 98.1017C15.1945 88.4216 15.5971 78.5062 18.0138 68.9907C20.4304 59.4752 24.8078 50.5693 30.8656 42.8435C36.9234 35.1177 44.5281 28.7423 53.1925 24.1256C61.8569 19.509 71.39 16.7529 81.1812 16.0338L86.3445 86.3445L104.591 154.442Z" stroke="#8151FB" stroke-width="2" mask="url(#path-1-outside-1_5477_74)"/>
<path d="M127 28.7407C115.511 20.6174 101.485 15.8445 86.3445 15.8445C47.4085 15.8445 15.8445 47.4084 15.8445 86.3445C15.8445 125.281 47.4085 156.844 86.3445 156.844C99.8236 156.844 112.419 153.062 123.127 146.5" stroke="#8151FB" stroke-dasharray="10 10"/>
</svg>
