<svg width="321" height="881" viewBox="0 0 321 881" fill="none" xmlns="http://www.w3.org/2000/svg">
<g filter="">
<rect x="161" width="80" height="80" fill="#EDB2D0"/>
<rect x="81" y="80.0005" width="80" height="80" fill="#EDB2D0"/>
<rect x="1.00012" y="160" width="80" height="80" fill="#EDB2D0"/>
<rect x="1.00012" y="320" width="80" height="80" fill="#EDB2D0"/>
<rect x="1.00012" y="480" width="80" height="80" fill="#EDB2D0"/>
<rect x="241" y="80.0005" width="80" height="80" fill="#EDB2D0"/>
<rect x="241" y="240" width="80" height="80" fill="#EDB2D0"/>
<rect x="161" y="320" width="80" height="80" fill="#EDB2D0"/>
<rect x="81" y="400" width="80" height="80" fill="#EDB2D0"/>
<rect x="161" y="480" width="80" height="80" fill="#EDB2D0"/>
<rect x="81" y="560" width="80" height="80" fill="#EDB2D0"/>
<rect x="81" y="720" width="80" height="80" fill="#EDB2D0"/>
<rect x="161" y="640" width="80" height="80" fill="#EDB2D0"/>
<rect x="161" y="800" width="80" height="80" fill="#EDB2D0"/>
<rect x="241" y="400" width="80" height="80" fill="#EDB2D0"/>
<rect x="241" y="560" width="80" height="80" fill="#EDB2D0"/>
<rect x="241" y="720" width="80" height="80" fill="#EDB2D0"/>
<rect x="161" y="160" width="80" height="80" fill="#EDB2D0"/>
<rect x="81" y="240" width="80" height="80" fill="#EDB2D0"/>
<path d="M281 80C275.747 80 270.546 78.9654 265.693 76.9552C260.84 74.945 256.43 71.9986 252.716 68.2843C249.002 64.5699 246.055 60.1604 244.045 55.3073C242.035 50.4543 241 45.2529 241 40C241 34.7471 242.035 29.5457 244.045 24.6927C246.055 19.8396 249.002 15.4301 252.716 11.7157C256.43 8.00138 260.84 5.055 265.693 3.04482C270.546 1.03463 275.747 -2.43729e-06 281 -1.74846e-06L281 40L281 80Z" fill="#1A75BC"/>
<path d="M201 240C208.911 240 216.645 242.346 223.223 246.741C229.801 251.136 234.928 257.384 237.955 264.693C240.983 272.002 241.775 280.044 240.232 287.804C238.688 295.563 234.879 302.69 229.284 308.284C223.69 313.878 216.563 317.688 208.804 319.231C201.045 320.775 193.002 319.983 185.693 316.955C178.384 313.928 172.137 308.801 167.741 302.223C163.346 295.645 161 287.911 161 280L201 280L201 240Z" fill="#F8931F"/>
<path d="M241 840C241 832.089 243.346 824.355 247.741 817.777C252.137 811.199 258.384 806.072 265.693 803.045C273.002 800.017 281.045 799.225 288.804 800.769C296.563 802.312 303.69 806.122 309.285 811.716C314.879 817.31 318.688 824.437 320.232 832.196C321.775 839.956 320.983 847.998 317.955 855.307C314.928 862.616 309.801 868.864 303.223 873.259C296.645 877.654 288.911 880 281 880L281 840H241Z" fill="#8151FB"/>
<path d="M41 480.001C33.0888 480.001 25.3552 477.655 18.7772 473.259C12.1992 468.864 7.07233 462.617 4.04483 455.308C1.01732 447.999 0.225195 439.956 1.7686 432.197C3.31201 424.438 7.12164 417.31 12.7157 411.716C18.3098 406.122 25.4372 402.312 33.1964 400.769C40.9556 399.226 48.9983 400.018 56.3073 403.045C63.6164 406.073 69.8635 411.2 74.2588 417.778C78.654 424.356 81 432.089 81 440L41 440L41 480.001Z" fill="#F8931F"/>
<path d="M201 80.6928C206.253 80.6928 211.455 81.7275 216.308 83.7377C221.161 85.7479 225.57 88.6942 229.284 92.4086C232.999 96.1229 235.945 100.532 237.955 105.386C239.966 110.239 241 115.44 241 120.693C241 125.946 239.966 131.147 237.955 136C235.945 140.853 232.999 145.263 229.284 148.977C225.57 152.691 221.161 155.638 216.308 157.648C211.455 159.658 206.253 160.693 201 160.693L201 120.693L201 80.6928Z" fill="#EF5A2B"/>
<path d="M239.507 595.521C239.507 600.676 238.492 605.78 236.519 610.543C234.546 615.305 231.655 619.632 228.01 623.277C224.365 626.922 220.038 629.814 215.275 631.787C210.513 633.759 205.408 634.775 200.253 634.775C195.099 634.775 189.994 633.759 185.232 631.787C180.469 629.814 176.142 626.922 172.497 623.277C168.852 619.632 165.961 615.305 163.988 610.543C162.015 605.78 161 600.676 161 595.521L200.253 595.521H239.507Z" fill="#EF5A2B"/>
<path d="M161 79.9995C166.253 79.9995 171.454 81.0341 176.307 83.0443C181.16 85.0545 185.57 88.0009 189.284 91.7152C192.999 95.4296 195.945 99.8391 197.955 104.692C199.965 109.545 201 114.747 201 120C201 125.252 199.965 130.454 197.955 135.307C195.945 140.16 192.999 144.569 189.284 148.284C185.57 151.998 181.16 154.945 176.307 156.955C171.454 158.965 166.253 160 161 160L161 120L161 79.9995Z" fill="#F15A2B"/>
<ellipse cx="281" cy="197.969" rx="20" ry="20" fill="#1A75BC"/>
</g>
<defs>
<filter id="filter0_f_5477_81" x="0" y="-1" width="322" height="882" filterUnits="userSpaceOnUse" color-interpolation-filters="sRGB">
<feFlood flood-opacity="0" result="BackgroundImageFix"/>
<feBlend mode="normal" in="SourceGraphic" in2="BackgroundImageFix" result="shape"/>
<feGaussianBlur stdDeviation="0.5" result="effect1_foregroundBlur_5477_81"/>
</filter>
</defs>
</svg>
