<svg width="197" height="70" viewBox="0 0 197 70" fill="none" xmlns="http://www.w3.org/2000/svg">
<g filter="url(#filter0_f_5477_68)">
<path d="M0.96 49.528C0.96 49.144 1.04533 48.76 1.216 48.376C1.42933 47.9493 1.64267 47.4373 1.856 46.84C2.06933 46.2427 2.26133 45.5173 2.432 44.664C2.64533 43.768 2.752 42.6587 2.752 41.336V15.864C2.752 14.5413 2.64533 13.4533 2.432 12.6C2.26133 11.704 2.06933 10.9573 1.856 10.36C1.64267 9.76266 1.42933 9.272 1.216 8.888C1.04533 8.46133 0.96 8.056 0.96 7.672C0.96 6.69066 1.55733 6.2 2.752 6.2H11.264C11.52 6.2 11.7547 6.24266 11.968 6.328C12.1813 6.41333 12.3733 6.52 12.544 6.648C12.7573 6.73333 12.9067 6.904 12.992 7.16C14.656 6.09333 16.4693 5.56 18.432 5.56C20.1813 5.56 21.824 5.98666 23.36 6.84C24.896 7.69333 26.24 8.84533 27.392 10.296C28.544 11.7467 29.44 13.4533 30.08 15.416C30.7627 17.336 31.104 19.4053 31.104 21.624C31.104 23.8 30.7627 25.8693 30.08 27.832C29.44 29.752 28.544 31.4373 27.392 32.888C26.24 34.3387 24.896 35.4907 23.36 36.344C21.824 37.1973 20.1813 37.624 18.432 37.624C15.7867 37.624 13.3973 36.6853 11.264 34.808V41.336C11.264 42.6587 11.3493 43.768 11.52 44.664C11.7333 45.5173 11.9467 46.2427 12.16 46.84C12.3733 47.4373 12.5653 47.9493 12.736 48.376C12.9493 48.76 13.056 49.144 13.056 49.528C13.056 50.5093 12.4587 51 11.264 51H2.752C2.41067 51 2.112 50.936 1.856 50.808C1.64267 50.7227 1.42933 50.5733 1.216 50.36C1.04533 50.1467 0.96 49.8693 0.96 49.528ZM11.264 15.864V31.544C11.904 32.312 12.608 32.9307 13.376 33.4C14.1867 33.8267 15.0187 34.04 15.872 34.04C17.024 34.04 17.9627 33.656 18.688 32.888C19.456 32.12 20.0533 31.1387 20.48 29.944C20.9493 28.7493 21.2693 27.4267 21.44 25.976C21.6107 24.4827 21.696 23.032 21.696 21.624C21.696 20.216 21.6107 18.7653 21.44 17.272C21.2693 15.7787 20.9493 14.4347 20.48 13.24C20.0533 12.0453 19.456 11.064 18.688 10.296C17.9627 9.528 17.024 9.144 15.872 9.144C14.8053 9.144 13.9733 9.336 13.376 9.72C12.7787 10.104 12.3093 10.616 11.968 11.256C11.6693 11.896 11.4773 12.6213 11.392 13.432C11.3067 14.2 11.264 15.0107 11.264 15.864ZM34.8145 23.48L39.1025 19.96C39.4012 19.704 39.7638 19.4907 40.1905 19.32C40.6172 19.1067 41.0438 19 41.4705 19C41.9825 19 42.4092 19.192 42.7505 19.576C43.1345 19.96 43.3265 20.6853 43.3265 21.752V22.072C44.4358 20.9627 45.6305 20.0667 46.9105 19.384C48.2332 18.7013 49.7052 18.36 51.3265 18.36C52.3078 18.36 53.3532 18.5093 54.4625 18.808C55.5718 19.1067 56.5958 19.5547 57.5345 20.152C58.4732 20.7067 59.2412 21.4107 59.8385 22.264C60.4358 23.1173 60.7345 24.0773 60.7345 25.144C60.7345 25.9547 60.3932 26.744 59.7105 27.512C59.0278 28.2373 58.0678 28.6 56.8305 28.6C55.6785 28.6 54.7825 28.2587 54.1425 27.576C53.5452 26.8507 53.0332 26.0613 52.6065 25.208C52.1798 24.3547 51.7745 23.5867 51.3905 22.904C51.0492 22.1787 50.5158 21.816 49.7905 21.816C48.8945 21.816 47.8705 22.1787 46.7185 22.904C45.5665 23.5867 44.4358 24.504 43.3265 25.656V41.336C43.3265 42.6587 43.4118 43.768 43.5825 44.664C43.7958 45.5173 44.0092 46.2427 44.2225 46.84C44.4358 47.4373 44.6278 47.9493 44.7985 48.376C45.0118 48.76 45.1185 49.144 45.1185 49.528C45.1185 49.784 45.0545 50.0187 44.9265 50.232C44.7985 50.4453 44.6065 50.6373 44.3505 50.808C44.1372 50.936 43.7958 51 43.3265 51H34.8145C33.6198 51 33.0225 50.5093 33.0225 49.528C33.0225 49.144 33.1078 48.76 33.2785 48.376C33.4918 47.9493 33.7052 47.4373 33.9185 46.84C34.1318 46.2427 34.3238 45.5173 34.4945 44.664C34.7078 43.768 34.8145 42.6587 34.8145 41.336V28.728C34.8145 28.0027 34.6865 27.4267 34.4305 27C34.2172 26.5307 34.0252 26.1253 33.8545 25.784C33.7265 25.4 33.7052 25.0587 33.7905 24.76C33.8758 24.4187 34.2172 23.992 34.8145 23.48ZM77.8155 18.36C80.2902 18.36 82.4662 18.7653 84.3435 19.576C86.2208 20.344 87.7995 21.4747 89.0795 22.968C90.3595 24.4187 91.3195 26.168 91.9595 28.216C92.6422 30.2213 92.9835 32.4827 92.9835 35C92.9835 37.4747 92.6422 39.736 91.9595 41.784C91.3195 43.832 90.3595 45.6027 89.0795 47.096C87.7995 48.5467 86.2208 49.6773 84.3435 50.488C82.4662 51.256 80.2902 51.64 77.8155 51.64C75.3408 51.64 73.1648 51.256 71.2875 50.488C69.4102 49.6773 67.8315 48.5467 66.5515 47.096C65.2715 45.6027 64.2902 43.832 63.6075 41.784C62.9675 39.736 62.6475 37.4747 62.6475 35C62.6475 32.4827 62.9675 30.2213 63.6075 28.216C64.2902 26.168 65.2715 24.4187 66.5515 22.968C67.8315 21.4747 69.4102 20.344 71.2875 19.576C73.1648 18.7653 75.3408 18.36 77.8155 18.36ZM72.0555 35C72.0555 37.4747 72.2262 39.6293 72.5675 41.464C72.9088 43.2987 73.3568 44.8133 73.9115 46.008C74.4662 47.2027 75.0848 48.0987 75.7675 48.696C76.4502 49.2507 77.1328 49.528 77.8155 49.528C78.4982 49.528 79.1808 49.2507 79.8635 48.696C80.5462 48.0987 81.1648 47.2027 81.7195 46.008C82.2742 44.8133 82.7222 43.2987 83.0635 41.464C83.4048 39.6293 83.5755 37.4747 83.5755 35C83.5755 32.4827 83.4048 30.328 83.0635 28.536C82.7222 26.7013 82.2742 25.1867 81.7195 23.992C81.1648 22.7973 80.5462 21.9227 79.8635 21.368C79.1808 20.7707 78.4982 20.472 77.8155 20.472C77.1328 20.472 76.4502 20.7707 75.7675 21.368C75.0848 21.9227 74.4662 22.7973 73.9115 23.992C73.3568 25.1867 72.9088 26.7013 72.5675 28.536C72.2262 30.328 72.0555 32.4827 72.0555 35ZM96.6895 23.48L100.978 19.96C101.276 19.704 101.639 19.4907 102.066 19.32C102.492 19.1067 102.919 19 103.345 19C103.772 19 104.156 19.1493 104.498 19.448C104.839 19.7467 105.052 20.3013 105.138 21.112C106.076 20.2587 107.079 19.5973 108.146 19.128C109.212 18.616 110.386 18.36 111.666 18.36C113.372 18.36 114.93 18.808 116.338 19.704C117.746 20.6 118.812 21.88 119.538 23.544C120.69 22.0507 121.97 20.8133 123.378 19.832C124.786 18.8507 126.428 18.36 128.306 18.36C130.354 18.36 132.188 19.0213 133.81 20.344C135.431 21.624 136.455 23.4587 136.882 25.848C136.967 26.36 137.052 27.1493 137.138 28.216C137.223 29.2827 137.308 30.4773 137.394 31.8C137.479 33.08 137.564 34.4453 137.65 35.896C137.735 37.304 137.799 38.648 137.842 39.928C137.927 41.1653 138.012 42.296 138.098 43.32C138.183 44.3013 138.268 45.0053 138.354 45.432C138.439 45.9013 138.588 46.3067 138.802 46.648C139.058 46.9467 139.292 47.2453 139.506 47.544C139.719 47.8427 139.911 48.1413 140.082 48.44C140.252 48.7387 140.338 49.1013 140.338 49.528C140.338 49.9973 140.146 50.36 139.762 50.616C139.42 50.872 138.994 51 138.482 51H130.418C129.863 51 129.372 50.744 128.946 50.232C128.519 49.72 128.327 48.8667 128.37 47.672C128.455 45.752 128.69 43.512 129.074 40.952C129.458 38.392 129.714 35.32 129.842 31.736C129.884 30.2427 129.906 28.8987 129.906 27.704C129.948 26.4667 129.863 25.4213 129.65 24.568C129.479 23.7147 129.159 23.0533 128.69 22.584C128.22 22.072 127.538 21.816 126.642 21.816C125.66 21.816 124.594 22.2213 123.442 23.032C122.332 23.8427 121.287 24.9307 120.306 26.296C120.391 26.936 120.476 27.8107 120.562 28.92C120.647 29.9867 120.732 31.16 120.818 32.44C120.903 33.72 120.967 35.0427 121.01 36.408C121.095 37.7733 121.159 39.0533 121.202 40.248C121.287 41.4427 121.372 42.5093 121.458 43.448C121.543 44.344 121.628 45.0053 121.714 45.432C121.799 45.9013 121.948 46.3067 122.162 46.648C122.418 46.9467 122.652 47.2453 122.866 47.544C123.079 47.8427 123.271 48.1413 123.442 48.44C123.612 48.7387 123.698 49.1013 123.698 49.528C123.698 49.9973 123.506 50.36 123.122 50.616C122.78 50.872 122.354 51 121.842 51H113.778C113.223 51 112.732 50.744 112.306 50.232C111.879 49.72 111.687 48.8667 111.73 47.672C111.815 45.752 112.05 43.512 112.434 40.952C112.818 38.392 113.074 35.32 113.202 31.736C113.244 30.2427 113.266 28.8987 113.266 27.704C113.308 26.4667 113.223 25.4213 113.01 24.568C112.839 23.7147 112.519 23.0533 112.05 22.584C111.58 22.072 110.898 21.816 110.002 21.816C109.276 21.816 108.487 22.0507 107.634 22.52C106.823 22.9893 106.012 23.6507 105.202 24.504V41.336C105.202 42.6587 105.287 43.768 105.458 44.664C105.671 45.5173 105.884 46.2427 106.098 46.84C106.311 47.4373 106.503 47.9493 106.674 48.376C106.887 48.76 106.994 49.144 106.994 49.528C106.994 49.784 106.93 50.0187 106.802 50.232C106.674 50.4453 106.482 50.6373 106.226 50.808C106.012 50.936 105.671 51 105.202 51H96.6895C95.4948 51 94.8975 50.5093 94.8975 49.528C94.8975 49.144 94.9828 48.76 95.1535 48.376C95.3668 47.9493 95.5802 47.4373 95.7935 46.84C96.0068 46.2427 96.1988 45.5173 96.3695 44.664C96.5828 43.768 96.6895 42.6587 96.6895 41.336V28.728C96.6895 28.0027 96.5615 27.4267 96.3055 27C96.0922 26.5307 95.9002 26.1253 95.7295 25.784C95.6015 25.4 95.5802 25.0587 95.6655 24.76C95.7508 24.4187 96.0922 23.992 96.6895 23.48ZM144.065 23.544L148.353 20.024C148.694 19.768 149.078 19.5333 149.505 19.32C149.974 19.1067 150.422 19 150.849 19C151.318 19 151.723 19.1707 152.065 19.512C152.406 19.8533 152.577 20.4933 152.577 21.432C153.601 20.4507 154.71 19.704 155.905 19.192C157.099 18.6373 158.379 18.36 159.745 18.36C161.494 18.36 163.137 18.8293 164.673 19.768C166.209 20.664 167.553 21.88 168.705 23.416C169.857 24.952 170.753 26.7227 171.393 28.728C172.075 30.7333 172.417 32.8453 172.417 35.064C172.417 37.24 172.075 39.3307 171.393 41.336C170.753 43.3413 169.857 45.112 168.705 46.648C167.553 48.184 166.209 49.4 164.673 50.296C163.137 51.192 161.494 51.64 159.745 51.64C158.379 51.64 157.099 51.384 155.905 50.872C154.71 50.3173 153.601 49.5707 152.577 48.632V57.336C152.577 58.6587 152.662 59.7467 152.833 60.6C153.046 61.496 153.259 62.2427 153.473 62.84C153.686 63.4373 153.878 63.928 154.049 64.312C154.262 64.7387 154.369 65.144 154.369 65.528C154.369 66.5093 153.771 67 152.577 67H144.065C143.723 67 143.425 66.936 143.169 66.808C142.955 66.7227 142.742 66.5733 142.529 66.36C142.358 66.1893 142.273 65.912 142.273 65.528C142.273 65.144 142.358 64.7387 142.529 64.312C142.742 63.928 142.955 63.4373 143.169 62.84C143.382 62.2427 143.574 61.496 143.745 60.6C143.958 59.7467 144.065 58.6587 144.065 57.336V28.792C143.083 27.768 142.529 26.8933 142.401 26.168C142.273 25.4 142.827 24.5253 144.065 23.544ZM157.185 48.056C158.337 48.056 159.275 47.6507 160.001 46.84C160.769 45.9867 161.366 44.9413 161.793 43.704C162.262 42.424 162.582 41.016 162.753 39.48C162.923 37.944 163.009 36.472 163.009 35.064C163.009 33.656 162.923 32.184 162.753 30.648C162.582 29.0693 162.262 27.64 161.793 26.36C161.366 25.08 160.769 24.0347 160.001 23.224C159.275 22.3707 158.337 21.944 157.185 21.944C156.331 21.944 155.499 22.2 154.689 22.712C153.921 23.1813 153.217 23.8427 152.577 24.696V45.368C153.217 46.1787 153.921 46.84 154.689 47.352C155.499 47.8213 156.331 48.056 157.185 48.056ZM172.861 19H177.341V15.928C176.359 14.904 175.805 14.0293 175.677 13.304C175.549 12.536 176.103 11.6613 177.341 10.68L181.629 7.16C181.927 6.904 182.29 6.69066 182.717 6.52C183.143 6.30666 183.57 6.2 183.997 6.2C184.509 6.2 184.935 6.392 185.277 6.776C185.661 7.16 185.853 7.88533 185.853 8.952V19H190.333C190.717 19 190.994 19.1067 191.165 19.32C191.335 19.5333 191.421 19.7893 191.421 20.088C191.421 20.344 191.335 20.5787 191.165 20.792C190.994 21.0053 190.717 21.112 190.333 21.112H185.853V37.304C185.853 37.9867 185.853 38.968 185.853 40.248C185.895 41.528 185.981 42.808 186.109 44.088C186.237 45.3253 186.429 46.4133 186.685 47.352C186.941 48.2907 187.303 48.76 187.773 48.76C188.626 48.76 189.159 48.248 189.373 47.224C189.586 46.1573 189.757 44.8773 189.885 43.384C189.97 42.5307 190.269 41.8907 190.781 41.464C191.335 41.0373 191.933 40.824 192.573 40.824C193.298 40.824 193.938 41.1013 194.493 41.656C195.09 42.168 195.346 42.9147 195.261 43.896C195.218 44.5787 195.005 45.3253 194.621 46.136C194.237 46.9467 193.682 47.7147 192.957 48.44C192.231 49.1653 191.293 49.784 190.141 50.296C189.031 50.7653 187.687 51 186.109 51C184.487 51 183.143 50.7653 182.077 50.296C181.053 49.8267 180.199 49.208 179.517 48.44C178.877 47.672 178.407 46.7973 178.109 45.816C177.81 44.8347 177.597 43.832 177.469 42.808C177.341 41.784 177.277 40.8027 177.277 39.864C177.319 38.8827 177.341 38.0293 177.341 37.304V21.112H172.861C172.477 21.112 172.199 21.0053 172.029 20.792C171.858 20.5787 171.773 20.344 171.773 20.088C171.773 19.7893 171.858 19.5333 172.029 19.32C172.199 19.1067 172.477 19 172.861 19Z" fill="#E1DBD2"/>
</g>
<path d="M0.96 49.528C0.96 49.144 1.04533 48.76 1.216 48.376C1.42933 47.9493 1.64267 47.4373 1.856 46.84C2.06933 46.2427 2.26133 45.5173 2.432 44.664C2.64533 43.768 2.752 42.6587 2.752 41.336V15.864C2.752 14.5413 2.64533 13.4533 2.432 12.6C2.26133 11.704 2.06933 10.9573 1.856 10.36C1.64267 9.76266 1.42933 9.272 1.216 8.888C1.04533 8.46133 0.96 8.056 0.96 7.672C0.96 6.69066 1.55733 6.2 2.752 6.2H11.264C11.52 6.2 11.7547 6.24266 11.968 6.328C12.1813 6.41333 12.3733 6.52 12.544 6.648C12.7573 6.73333 12.9067 6.904 12.992 7.16C14.656 6.09333 16.4693 5.56 18.432 5.56C20.1813 5.56 21.824 5.98666 23.36 6.84C24.896 7.69333 26.24 8.84533 27.392 10.296C28.544 11.7467 29.44 13.4533 30.08 15.416C30.7627 17.336 31.104 19.4053 31.104 21.624C31.104 23.8 30.7627 25.8693 30.08 27.832C29.44 29.752 28.544 31.4373 27.392 32.888C26.24 34.3387 24.896 35.4907 23.36 36.344C21.824 37.1973 20.1813 37.624 18.432 37.624C15.7867 37.624 13.3973 36.6853 11.264 34.808V41.336C11.264 42.6587 11.3493 43.768 11.52 44.664C11.7333 45.5173 11.9467 46.2427 12.16 46.84C12.3733 47.4373 12.5653 47.9493 12.736 48.376C12.9493 48.76 13.056 49.144 13.056 49.528C13.056 50.5093 12.4587 51 11.264 51H2.752C2.41067 51 2.112 50.936 1.856 50.808C1.64267 50.7227 1.42933 50.5733 1.216 50.36C1.04533 50.1467 0.96 49.8693 0.96 49.528ZM11.264 15.864V31.544C11.904 32.312 12.608 32.9307 13.376 33.4C14.1867 33.8267 15.0187 34.04 15.872 34.04C17.024 34.04 17.9627 33.656 18.688 32.888C19.456 32.12 20.0533 31.1387 20.48 29.944C20.9493 28.7493 21.2693 27.4267 21.44 25.976C21.6107 24.4827 21.696 23.032 21.696 21.624C21.696 20.216 21.6107 18.7653 21.44 17.272C21.2693 15.7787 20.9493 14.4347 20.48 13.24C20.0533 12.0453 19.456 11.064 18.688 10.296C17.9627 9.528 17.024 9.144 15.872 9.144C14.8053 9.144 13.9733 9.336 13.376 9.72C12.7787 10.104 12.3093 10.616 11.968 11.256C11.6693 11.896 11.4773 12.6213 11.392 13.432C11.3067 14.2 11.264 15.0107 11.264 15.864ZM34.8145 23.48L39.1025 19.96C39.4012 19.704 39.7638 19.4907 40.1905 19.32C40.6172 19.1067 41.0438 19 41.4705 19C41.9825 19 42.4092 19.192 42.7505 19.576C43.1345 19.96 43.3265 20.6853 43.3265 21.752V22.072C44.4358 20.9627 45.6305 20.0667 46.9105 19.384C48.2332 18.7013 49.7052 18.36 51.3265 18.36C52.3078 18.36 53.3532 18.5093 54.4625 18.808C55.5718 19.1067 56.5958 19.5547 57.5345 20.152C58.4732 20.7067 59.2412 21.4107 59.8385 22.264C60.4358 23.1173 60.7345 24.0773 60.7345 25.144C60.7345 25.9547 60.3932 26.744 59.7105 27.512C59.0278 28.2373 58.0678 28.6 56.8305 28.6C55.6785 28.6 54.7825 28.2587 54.1425 27.576C53.5452 26.8507 53.0332 26.0613 52.6065 25.208C52.1798 24.3547 51.7745 23.5867 51.3905 22.904C51.0492 22.1787 50.5158 21.816 49.7905 21.816C48.8945 21.816 47.8705 22.1787 46.7185 22.904C45.5665 23.5867 44.4358 24.504 43.3265 25.656V41.336C43.3265 42.6587 43.4118 43.768 43.5825 44.664C43.7958 45.5173 44.0092 46.2427 44.2225 46.84C44.4358 47.4373 44.6278 47.9493 44.7985 48.376C45.0118 48.76 45.1185 49.144 45.1185 49.528C45.1185 49.784 45.0545 50.0187 44.9265 50.232C44.7985 50.4453 44.6065 50.6373 44.3505 50.808C44.1372 50.936 43.7958 51 43.3265 51H34.8145C33.6198 51 33.0225 50.5093 33.0225 49.528C33.0225 49.144 33.1078 48.76 33.2785 48.376C33.4918 47.9493 33.7052 47.4373 33.9185 46.84C34.1318 46.2427 34.3238 45.5173 34.4945 44.664C34.7078 43.768 34.8145 42.6587 34.8145 41.336V28.728C34.8145 28.0027 34.6865 27.4267 34.4305 27C34.2172 26.5307 34.0252 26.1253 33.8545 25.784C33.7265 25.4 33.7052 25.0587 33.7905 24.76C33.8758 24.4187 34.2172 23.992 34.8145 23.48ZM77.8155 18.36C80.2902 18.36 82.4662 18.7653 84.3435 19.576C86.2208 20.344 87.7995 21.4747 89.0795 22.968C90.3595 24.4187 91.3195 26.168 91.9595 28.216C92.6422 30.2213 92.9835 32.4827 92.9835 35C92.9835 37.4747 92.6422 39.736 91.9595 41.784C91.3195 43.832 90.3595 45.6027 89.0795 47.096C87.7995 48.5467 86.2208 49.6773 84.3435 50.488C82.4662 51.256 80.2902 51.64 77.8155 51.64C75.3408 51.64 73.1648 51.256 71.2875 50.488C69.4102 49.6773 67.8315 48.5467 66.5515 47.096C65.2715 45.6027 64.2902 43.832 63.6075 41.784C62.9675 39.736 62.6475 37.4747 62.6475 35C62.6475 32.4827 62.9675 30.2213 63.6075 28.216C64.2902 26.168 65.2715 24.4187 66.5515 22.968C67.8315 21.4747 69.4102 20.344 71.2875 19.576C73.1648 18.7653 75.3408 18.36 77.8155 18.36ZM72.0555 35C72.0555 37.4747 72.2262 39.6293 72.5675 41.464C72.9088 43.2987 73.3568 44.8133 73.9115 46.008C74.4662 47.2027 75.0848 48.0987 75.7675 48.696C76.4502 49.2507 77.1328 49.528 77.8155 49.528C78.4982 49.528 79.1808 49.2507 79.8635 48.696C80.5462 48.0987 81.1648 47.2027 81.7195 46.008C82.2742 44.8133 82.7222 43.2987 83.0635 41.464C83.4048 39.6293 83.5755 37.4747 83.5755 35C83.5755 32.4827 83.4048 30.328 83.0635 28.536C82.7222 26.7013 82.2742 25.1867 81.7195 23.992C81.1648 22.7973 80.5462 21.9227 79.8635 21.368C79.1808 20.7707 78.4982 20.472 77.8155 20.472C77.1328 20.472 76.4502 20.7707 75.7675 21.368C75.0848 21.9227 74.4662 22.7973 73.9115 23.992C73.3568 25.1867 72.9088 26.7013 72.5675 28.536C72.2262 30.328 72.0555 32.4827 72.0555 35ZM96.6895 23.48L100.978 19.96C101.276 19.704 101.639 19.4907 102.066 19.32C102.492 19.1067 102.919 19 103.345 19C103.772 19 104.156 19.1493 104.498 19.448C104.839 19.7467 105.052 20.3013 105.138 21.112C106.076 20.2587 107.079 19.5973 108.146 19.128C109.212 18.616 110.386 18.36 111.666 18.36C113.372 18.36 114.93 18.808 116.338 19.704C117.746 20.6 118.812 21.88 119.538 23.544C120.69 22.0507 121.97 20.8133 123.378 19.832C124.786 18.8507 126.428 18.36 128.306 18.36C130.354 18.36 132.188 19.0213 133.81 20.344C135.431 21.624 136.455 23.4587 136.882 25.848C136.967 26.36 137.052 27.1493 137.138 28.216C137.223 29.2827 137.308 30.4773 137.394 31.8C137.479 33.08 137.564 34.4453 137.65 35.896C137.735 37.304 137.799 38.648 137.842 39.928C137.927 41.1653 138.012 42.296 138.098 43.32C138.183 44.3013 138.268 45.0053 138.354 45.432C138.439 45.9013 138.588 46.3067 138.802 46.648C139.058 46.9467 139.292 47.2453 139.506 47.544C139.719 47.8427 139.911 48.1413 140.082 48.44C140.252 48.7387 140.338 49.1013 140.338 49.528C140.338 49.9973 140.146 50.36 139.762 50.616C139.42 50.872 138.994 51 138.482 51H130.418C129.863 51 129.372 50.744 128.946 50.232C128.519 49.72 128.327 48.8667 128.37 47.672C128.455 45.752 128.69 43.512 129.074 40.952C129.458 38.392 129.714 35.32 129.842 31.736C129.884 30.2427 129.906 28.8987 129.906 27.704C129.948 26.4667 129.863 25.4213 129.65 24.568C129.479 23.7147 129.159 23.0533 128.69 22.584C128.22 22.072 127.538 21.816 126.642 21.816C125.66 21.816 124.594 22.2213 123.442 23.032C122.332 23.8427 121.287 24.9307 120.306 26.296C120.391 26.936 120.476 27.8107 120.562 28.92C120.647 29.9867 120.732 31.16 120.818 32.44C120.903 33.72 120.967 35.0427 121.01 36.408C121.095 37.7733 121.159 39.0533 121.202 40.248C121.287 41.4427 121.372 42.5093 121.458 43.448C121.543 44.344 121.628 45.0053 121.714 45.432C121.799 45.9013 121.948 46.3067 122.162 46.648C122.418 46.9467 122.652 47.2453 122.866 47.544C123.079 47.8427 123.271 48.1413 123.442 48.44C123.612 48.7387 123.698 49.1013 123.698 49.528C123.698 49.9973 123.506 50.36 123.122 50.616C122.78 50.872 122.354 51 121.842 51H113.778C113.223 51 112.732 50.744 112.306 50.232C111.879 49.72 111.687 48.8667 111.73 47.672C111.815 45.752 112.05 43.512 112.434 40.952C112.818 38.392 113.074 35.32 113.202 31.736C113.244 30.2427 113.266 28.8987 113.266 27.704C113.308 26.4667 113.223 25.4213 113.01 24.568C112.839 23.7147 112.519 23.0533 112.05 22.584C111.58 22.072 110.898 21.816 110.002 21.816C109.276 21.816 108.487 22.0507 107.634 22.52C106.823 22.9893 106.012 23.6507 105.202 24.504V41.336C105.202 42.6587 105.287 43.768 105.458 44.664C105.671 45.5173 105.884 46.2427 106.098 46.84C106.311 47.4373 106.503 47.9493 106.674 48.376C106.887 48.76 106.994 49.144 106.994 49.528C106.994 49.784 106.93 50.0187 106.802 50.232C106.674 50.4453 106.482 50.6373 106.226 50.808C106.012 50.936 105.671 51 105.202 51H96.6895C95.4948 51 94.8975 50.5093 94.8975 49.528C94.8975 49.144 94.9828 48.76 95.1535 48.376C95.3668 47.9493 95.5802 47.4373 95.7935 46.84C96.0068 46.2427 96.1988 45.5173 96.3695 44.664C96.5828 43.768 96.6895 42.6587 96.6895 41.336V28.728C96.6895 28.0027 96.5615 27.4267 96.3055 27C96.0922 26.5307 95.9002 26.1253 95.7295 25.784C95.6015 25.4 95.5802 25.0587 95.6655 24.76C95.7508 24.4187 96.0922 23.992 96.6895 23.48ZM144.065 23.544L148.353 20.024C148.694 19.768 149.078 19.5333 149.505 19.32C149.974 19.1067 150.422 19 150.849 19C151.318 19 151.723 19.1707 152.065 19.512C152.406 19.8533 152.577 20.4933 152.577 21.432C153.601 20.4507 154.71 19.704 155.905 19.192C157.099 18.6373 158.379 18.36 159.745 18.36C161.494 18.36 163.137 18.8293 164.673 19.768C166.209 20.664 167.553 21.88 168.705 23.416C169.857 24.952 170.753 26.7227 171.393 28.728C172.075 30.7333 172.417 32.8453 172.417 35.064C172.417 37.24 172.075 39.3307 171.393 41.336C170.753 43.3413 169.857 45.112 168.705 46.648C167.553 48.184 166.209 49.4 164.673 50.296C163.137 51.192 161.494 51.64 159.745 51.64C158.379 51.64 157.099 51.384 155.905 50.872C154.71 50.3173 153.601 49.5707 152.577 48.632V57.336C152.577 58.6587 152.662 59.7467 152.833 60.6C153.046 61.496 153.259 62.2427 153.473 62.84C153.686 63.4373 153.878 63.928 154.049 64.312C154.262 64.7387 154.369 65.144 154.369 65.528C154.369 66.5093 153.771 67 152.577 67H144.065C143.723 67 143.425 66.936 143.169 66.808C142.955 66.7227 142.742 66.5733 142.529 66.36C142.358 66.1893 142.273 65.912 142.273 65.528C142.273 65.144 142.358 64.7387 142.529 64.312C142.742 63.928 142.955 63.4373 143.169 62.84C143.382 62.2427 143.574 61.496 143.745 60.6C143.958 59.7467 144.065 58.6587 144.065 57.336V28.792C143.083 27.768 142.529 26.8933 142.401 26.168C142.273 25.4 142.827 24.5253 144.065 23.544ZM157.185 48.056C158.337 48.056 159.275 47.6507 160.001 46.84C160.769 45.9867 161.366 44.9413 161.793 43.704C162.262 42.424 162.582 41.016 162.753 39.48C162.923 37.944 163.009 36.472 163.009 35.064C163.009 33.656 162.923 32.184 162.753 30.648C162.582 29.0693 162.262 27.64 161.793 26.36C161.366 25.08 160.769 24.0347 160.001 23.224C159.275 22.3707 158.337 21.944 157.185 21.944C156.331 21.944 155.499 22.2 154.689 22.712C153.921 23.1813 153.217 23.8427 152.577 24.696V45.368C153.217 46.1787 153.921 46.84 154.689 47.352C155.499 47.8213 156.331 48.056 157.185 48.056ZM172.861 19H177.341V15.928C176.359 14.904 175.805 14.0293 175.677 13.304C175.549 12.536 176.103 11.6613 177.341 10.68L181.629 7.16C181.927 6.904 182.29 6.69066 182.717 6.52C183.143 6.30666 183.57 6.2 183.997 6.2C184.509 6.2 184.935 6.392 185.277 6.776C185.661 7.16 185.853 7.88533 185.853 8.952V19H190.333C190.717 19 190.994 19.1067 191.165 19.32C191.335 19.5333 191.421 19.7893 191.421 20.088C191.421 20.344 191.335 20.5787 191.165 20.792C190.994 21.0053 190.717 21.112 190.333 21.112H185.853V37.304C185.853 37.9867 185.853 38.968 185.853 40.248C185.895 41.528 185.981 42.808 186.109 44.088C186.237 45.3253 186.429 46.4133 186.685 47.352C186.941 48.2907 187.303 48.76 187.773 48.76C188.626 48.76 189.159 48.248 189.373 47.224C189.586 46.1573 189.757 44.8773 189.885 43.384C189.97 42.5307 190.269 41.8907 190.781 41.464C191.335 41.0373 191.933 40.824 192.573 40.824C193.298 40.824 193.938 41.1013 194.493 41.656C195.09 42.168 195.346 42.9147 195.261 43.896C195.218 44.5787 195.005 45.3253 194.621 46.136C194.237 46.9467 193.682 47.7147 192.957 48.44C192.231 49.1653 191.293 49.784 190.141 50.296C189.031 50.7653 187.687 51 186.109 51C184.487 51 183.143 50.7653 182.077 50.296C181.053 49.8267 180.199 49.208 179.517 48.44C178.877 47.672 178.407 46.7973 178.109 45.816C177.81 44.8347 177.597 43.832 177.469 42.808C177.341 41.784 177.277 40.8027 177.277 39.864C177.319 38.8827 177.341 38.0293 177.341 37.304V21.112H172.861C172.477 21.112 172.199 21.0053 172.029 20.792C171.858 20.5787 171.773 20.344 171.773 20.088C171.773 19.7893 171.858 19.5333 172.029 19.32C172.199 19.1067 172.477 19 172.861 19Z" fill="#E1DBD2"/>
<defs>
<filter id="filter0_f_5477_68" x="-3.04004" y="1.56006" width="202.429" height="69.4399" filterUnits="userSpaceOnUse" color-interpolation-filters="sRGB">
<feFlood flood-opacity="0" result="BackgroundImageFix"/>
<feBlend mode="normal" in="SourceGraphic" in2="BackgroundImageFix" result="shape"/>
<feGaussianBlur stdDeviation="2" result="effect1_foregroundBlur_5477_68"/>
</filter>
</defs>
</svg>
