<svg width="320" height="881" viewBox="0 0 320 881" fill="none" xmlns="http://www.w3.org/2000/svg">
<rect x="160" y="81.0005" width="80" height="80" fill="#57CFBA"/>
<rect x="79.9999" y="161.001" width="80" height="80" fill="#57CFBA"/>
<rect y="241.693" width="80" height="80" fill="#57CFBA"/>
<rect y="561.001" width="80" height="80" fill="#57CFBA"/>
<rect x="240" y="161.001" width="80" height="80" fill="#57CFBA"/>
<rect x="240" y="321" width="80" height="80" fill="#57CFBA"/>
<rect x="160" y="401" width="80" height="80" fill="#57CFBA"/>
<rect x="79.9999" y="481.001" width="80" height="80" fill="#57CFBA"/>
<rect x="160" y="561.001" width="80" height="80" fill="#57CFBA"/>
<rect x="79.9999" y="641" width="80" height="80" fill="#57CFBA"/>
<rect x="79.9999" y="801" width="80" height="80" fill="#57CFBA"/>
<rect x="160" y="721" width="80" height="80" fill="#57CFBA"/>
<rect x="240" y="481.001" width="80" height="80" fill="#57CFBA"/>
<rect x="240" y="641" width="80" height="80" fill="#57CFBA"/>
<rect x="160" y="241" width="80" height="80" fill="#57CFBA"/>
<rect x="79.9999" y="321" width="80" height="80" fill="#57CFBA"/>
<path d="M200 321C207.911 321 215.645 323.346 222.223 327.742C228.801 332.137 233.928 338.384 236.955 345.693C239.983 353.002 240.775 361.045 239.232 368.804C237.688 376.563 233.878 383.691 228.284 389.285C222.69 394.879 215.563 398.688 207.804 400.232C200.044 401.775 192.002 400.983 184.693 397.956C177.384 394.928 171.137 389.801 166.741 383.223C162.346 376.645 160 368.912 160 361L200 361L200 321Z" fill="#F8931F"/>
<path d="M200 161.693C205.253 161.693 210.454 162.728 215.307 164.738C220.16 166.748 224.57 169.695 228.284 173.409C231.999 177.123 234.945 181.533 236.955 186.386C238.965 191.239 240 196.44 240 201.693C240 206.946 238.965 212.148 236.955 217.001C234.945 221.854 231.999 226.263 228.284 229.978C224.57 233.692 220.16 236.638 215.307 238.649C210.454 240.659 205.253 241.693 200 241.693L200 201.693L200 161.693Z" fill="#1173D9"/>
<path d="M238.507 676.521C238.507 681.676 237.492 686.78 235.519 691.543C233.546 696.305 230.655 700.632 227.01 704.277C223.365 707.922 219.037 710.814 214.275 712.787C209.513 714.759 204.408 715.775 199.253 715.775C194.099 715.775 188.994 714.759 184.232 712.787C179.469 710.814 175.142 707.922 171.497 704.277C167.852 700.632 164.961 696.305 162.988 691.543C161.015 686.78 160 681.676 160 676.521L199.253 676.521H238.507Z" fill="#EF5A2B"/>
<path d="M160 161C165.253 161 170.454 162.035 175.307 164.045C180.16 166.055 184.57 169.001 188.284 172.716C191.999 176.43 194.945 180.84 196.955 185.693C198.965 190.546 200 195.747 200 201C200 206.253 198.965 211.454 196.955 216.307C194.945 221.16 191.999 225.57 188.284 229.284C184.57 232.999 180.16 235.945 175.307 237.955C170.454 239.965 165.253 241 160 241L160 201L160 161Z" fill="#1173D9"/>
<ellipse cx="280" cy="278.969" rx="20" ry="20" fill="#8152FB"/>
<path d="M280 131L319.837 81.5L240.163 81.5L280 131Z" fill="#F8931F"/>
<path d="M119.5 401L80.0958 481.25L158.904 481.25L119.5 401Z" fill="#F8931F"/>
<g filter="">
<rect x="240" y="1.00049" width="80" height="80" fill="#57CFBA"/>
</g>
<path d="M280 121L319.562 161.069H240.438L280 121Z" fill="#F8931F"/>
<path d="M119.391 641.001L79.8295 600.932L158.953 600.932L119.391 641.001Z" fill="#F8931F"/>
<defs>
<filter id="filter0_f_5284_68" x="239" y="0.000488281" width="82" height="82" filterUnits="userSpaceOnUse" color-interpolation-filters="sRGB">
<feFlood flood-opacity="0" result="BackgroundImageFix"/>
<feBlend mode="normal" in="SourceGraphic" in2="BackgroundImageFix" result="shape"/>
<feGaussianBlur stdDeviation="0.5" result="effect1_foregroundBlur_5284_68"/>
</filter>
</defs>
</svg>
