<svg width="506" height="72" viewBox="0 0 506 72" fill="none" xmlns="http://www.w3.org/2000/svg">
<g filter="url(#filter0_f_5246_83)">
<path d="M8.864 42.272C10.016 42.272 10.8907 42.6987 11.488 43.552C12.128 44.4053 12.6827 45.3653 13.152 46.432C13.664 47.456 14.2187 48.3947 14.816 49.248C15.4133 50.1013 16.288 50.528 17.44 50.528C18.848 50.528 19.9573 50.2933 20.768 49.824C21.5787 49.3547 22.1973 48.7787 22.624 48.096C23.0507 47.4133 23.328 46.7093 23.456 45.984C23.584 45.216 23.648 44.5547 23.648 44C23.648 42.08 23.1787 40.416 22.24 39.008C21.344 37.5573 20.2133 36.2133 18.848 34.976C17.4827 33.7387 15.9893 32.544 14.368 31.392C12.7467 30.24 11.2533 29.0027 9.888 27.68C8.52267 26.3573 7.37067 24.8853 6.432 23.264C5.536 21.6427 5.088 19.7653 5.088 17.632C5.088 15.968 5.49333 14.4747 6.304 13.152C7.11467 11.7867 8.18133 10.6133 9.504 9.632C10.8693 8.65066 12.448 7.904 14.24 7.392C16.0747 6.83733 17.9733 6.56 19.936 6.56C23.9893 6.56 27.0827 7.17866 29.216 8.416C31.392 9.61066 32.48 11.296 32.48 13.472C32.48 14.2827 32.1387 15.072 31.456 15.84C30.7733 16.5653 29.8133 16.928 28.576 16.928C27.808 16.928 27.168 16.736 26.656 16.352C26.1867 15.9253 25.7813 15.4133 25.44 14.816C25.0987 14.176 24.7787 13.5147 24.48 12.832C24.224 12.1067 23.904 11.4453 23.52 10.848C23.136 10.208 22.6667 9.696 22.112 9.312C21.6 8.88533 20.896 8.672 20 8.672C18.592 8.672 17.4827 8.90666 16.672 9.376C15.8613 9.84533 15.2427 10.4213 14.816 11.104C14.3893 11.7867 14.112 12.512 13.984 13.28C13.856 14.048 13.792 14.7093 13.792 15.264C13.792 17.1413 14.24 18.8267 15.136 20.32C16.0747 21.7707 17.248 23.136 18.656 24.416C20.064 25.6533 21.5573 26.8693 23.136 28.064C24.7573 29.2587 26.272 30.5387 27.68 31.904C29.088 33.2267 30.24 34.6987 31.136 36.32C32.0747 37.9413 32.544 39.8187 32.544 41.952C32.544 43.616 32.1173 45.1093 31.264 46.432C30.4533 47.712 29.3653 48.8213 28 49.76C26.6347 50.6987 25.0347 51.424 23.2 51.936C21.408 52.4053 19.5093 52.64 17.504 52.64C15.6693 52.64 13.9627 52.4693 12.384 52.128C10.848 51.8293 9.52533 51.3813 8.416 50.784C7.34933 50.1867 6.496 49.4613 5.856 48.608C5.25867 47.7547 4.96 46.7947 4.96 45.728C4.96 44.9173 5.30133 44.1493 5.984 43.424C6.66667 42.656 7.62667 42.272 8.864 42.272ZM36.252 24.544L40.54 21.024C40.8813 20.768 41.2653 20.5333 41.692 20.32C42.1613 20.1067 42.6093 20 43.036 20C43.5053 20 43.9107 20.1707 44.252 20.512C44.5933 20.8533 44.764 21.4933 44.764 22.432C45.788 21.4507 46.8973 20.704 48.092 20.192C49.2867 19.6373 50.5667 19.36 51.932 19.36C53.6813 19.36 55.324 19.8293 56.86 20.768C58.396 21.664 59.74 22.88 60.892 24.416C62.044 25.952 62.94 27.7227 63.58 29.728C64.2627 31.7333 64.604 33.8453 64.604 36.064C64.604 38.24 64.2627 40.3307 63.58 42.336C62.94 44.3413 62.044 46.112 60.892 47.648C59.74 49.184 58.396 50.4 56.86 51.296C55.324 52.192 53.6813 52.64 51.932 52.64C50.5667 52.64 49.2867 52.384 48.092 51.872C46.8973 51.3173 45.788 50.5707 44.764 49.632V58.336C44.764 59.6587 44.8493 60.7467 45.02 61.6C45.2333 62.496 45.4467 63.2427 45.66 63.84C45.8733 64.4373 46.0653 64.928 46.236 65.312C46.4493 65.7387 46.556 66.144 46.556 66.528C46.556 67.5093 45.9587 68 44.764 68H36.252C35.9107 68 35.612 67.936 35.356 67.808C35.1427 67.7227 34.9293 67.5733 34.716 67.36C34.5453 67.1893 34.46 66.912 34.46 66.528C34.46 66.144 34.5453 65.7387 34.716 65.312C34.9293 64.928 35.1427 64.4373 35.356 63.84C35.5693 63.2427 35.7613 62.496 35.932 61.6C36.1453 60.7467 36.252 59.6587 36.252 58.336V29.792C35.2707 28.768 34.716 27.8933 34.588 27.168C34.46 26.4 35.0147 25.5253 36.252 24.544ZM49.372 49.056C50.524 49.056 51.4627 48.6507 52.188 47.84C52.956 46.9867 53.5533 45.9413 53.98 44.704C54.4493 43.424 54.7693 42.016 54.94 40.48C55.1107 38.944 55.196 37.472 55.196 36.064C55.196 34.656 55.1107 33.184 54.94 31.648C54.7693 30.0693 54.4493 28.64 53.98 27.36C53.5533 26.08 52.956 25.0347 52.188 24.224C51.4627 23.3707 50.524 22.944 49.372 22.944C48.5187 22.944 47.6867 23.2 46.876 23.712C46.108 24.1813 45.404 24.8427 44.764 25.696V46.368C45.404 47.1787 46.108 47.84 46.876 48.352C47.6867 48.8213 48.5187 49.056 49.372 49.056ZM66.5225 35.424C66.5225 30.3893 67.7812 26.464 70.2985 23.648C72.8585 20.7893 76.5065 19.36 81.2425 19.36C82.6932 19.36 84.1225 19.552 85.5305 19.936C86.9812 20.2773 88.2612 20.8533 89.3705 21.664C90.5225 22.432 91.4398 23.456 92.1225 24.736C92.8478 25.9733 93.2105 27.488 93.2105 29.28C93.2105 30.8587 92.9118 32.1387 92.3145 33.12C91.7172 34.0587 90.9278 34.8053 89.9465 35.36C88.9652 35.872 87.8345 36.2347 86.5545 36.448C85.3172 36.6187 84.0158 36.704 82.6505 36.704H75.9305C75.9305 39.1787 76.1225 41.312 76.5065 43.104C76.8905 44.8533 77.3598 46.2827 77.9145 47.392C78.5118 48.4587 79.1518 49.248 79.8345 49.76C80.5172 50.272 81.1358 50.528 81.6905 50.528C82.3732 50.528 83.0132 50.3573 83.6105 50.016C84.2078 49.632 84.7625 49.1627 85.2745 48.608C85.7865 48.0107 86.2345 47.3493 86.6185 46.624C87.0452 45.856 87.3865 45.1093 87.6425 44.384C87.8985 43.6587 88.2612 43.1467 88.7305 42.848C89.2425 42.5493 89.7545 42.4 90.2665 42.4C91.0345 42.4 91.6958 42.6987 92.2505 43.296C92.8478 43.8933 92.9972 44.6613 92.6985 45.6C92.4852 46.2827 92.0798 47.0293 91.4825 47.84C90.8852 48.6507 90.1172 49.4187 89.1785 50.144C88.2398 50.8267 87.1305 51.424 85.8505 51.936C84.6132 52.4053 83.2265 52.64 81.6905 52.64C79.2158 52.64 77.0398 52.192 75.1625 51.296C73.2852 50.3573 71.7065 49.0987 70.4265 47.52C69.1465 45.9413 68.1652 44.128 67.4825 42.08C66.8425 39.9893 66.5225 37.7707 66.5225 35.424ZM75.9945 34.592H80.0905C80.8585 34.592 81.4772 34.4213 81.9465 34.08C82.4158 33.7387 82.7785 33.312 83.0345 32.8C83.3332 32.2453 83.5252 31.648 83.6105 31.008C83.7385 30.3253 83.8025 29.664 83.8025 29.024C83.8025 28.128 83.7598 27.232 83.6745 26.336C83.5892 25.44 83.4398 24.6293 83.2265 23.904C83.0132 23.1787 82.7358 22.6027 82.3945 22.176C82.0958 21.7067 81.7118 21.472 81.2425 21.472C80.7732 21.472 80.2398 21.7493 79.6425 22.304C79.0878 22.8587 78.5545 23.6907 78.0425 24.8C77.5305 25.9093 77.0825 27.2747 76.6985 28.896C76.3145 30.5173 76.0798 32.416 75.9945 34.592ZM108.588 30.816C109.228 30.5173 109.868 30.176 110.508 29.792C111.148 29.408 111.724 29.0453 112.236 28.704C112.065 26.656 111.681 24.9493 111.083 23.584C110.486 22.176 109.633 21.472 108.524 21.472C107.841 21.472 107.158 21.8987 106.476 22.752C105.836 23.6053 105.153 24.544 104.428 25.568C103.702 26.5493 102.892 27.4667 101.996 28.32C101.1 29.1733 100.076 29.6 98.9235 29.6C97.6862 29.6 96.7902 29.2373 96.2355 28.512C95.7235 27.744 95.4675 26.9547 95.4675 26.144C95.4675 25.0773 95.7875 24.1173 96.4275 23.264C97.0675 22.4107 97.9635 21.7067 99.1155 21.152C100.268 20.5547 101.633 20.1067 103.212 19.808C104.833 19.5093 106.604 19.36 108.524 19.36C112.15 19.36 114.753 20.0213 116.332 21.344C117.953 22.624 118.977 24.4587 119.404 26.848C119.489 27.36 119.574 28.1493 119.66 29.216C119.745 30.2827 119.83 31.4773 119.916 32.8C120.001 34.08 120.086 35.4453 120.172 36.896C120.257 38.304 120.321 39.648 120.364 40.928C120.449 42.1653 120.534 43.296 120.62 44.32C120.705 45.3013 120.79 46.0053 120.876 46.432C120.961 46.9013 121.11 47.3067 121.324 47.648C121.58 47.9467 121.814 48.2453 122.028 48.544C122.241 48.8427 122.433 49.1413 122.604 49.44C122.774 49.7387 122.86 50.1013 122.86 50.528C122.86 50.9973 122.668 51.36 122.284 51.616C121.942 51.872 121.516 52 121.004 52H112.94C112.556 52 112.193 51.872 111.852 51.616C111.51 51.3173 111.254 50.8693 111.083 50.272C110.145 50.9973 109.036 51.5733 107.756 52C106.518 52.4693 105.302 52.704 104.108 52.704C102.742 52.704 101.505 52.448 100.396 51.936C99.2862 51.3813 98.3475 50.6773 97.5795 49.824C96.8115 48.928 96.2142 47.9467 95.7875 46.88C95.3608 45.7707 95.1475 44.64 95.1475 43.488C95.1475 41.44 95.5528 39.7547 96.3635 38.432C97.2168 37.0667 98.2835 35.936 99.5635 35.04C100.886 34.144 102.337 33.376 103.916 32.736C105.537 32.096 107.094 31.456 108.588 30.816ZM110.956 47.392C111.126 45.5573 111.361 43.4667 111.66 41.12C112.001 38.7307 112.236 35.936 112.364 32.736V31.648C112.022 31.904 111.596 32.2027 111.083 32.544C110.572 32.8853 110.017 33.2693 109.42 33.696C108.865 34.08 108.289 34.5493 107.692 35.104C107.137 35.616 106.625 36.2347 106.156 36.96C105.686 37.6853 105.302 38.5387 105.004 39.52C104.705 40.5013 104.556 41.632 104.556 42.912C104.556 43.3813 104.598 43.936 104.684 44.576C104.769 45.1733 104.918 45.7707 105.132 46.368C105.388 46.9227 105.729 47.4133 106.156 47.84C106.582 48.224 107.158 48.416 107.884 48.416C108.481 48.416 109.014 48.3307 109.484 48.16C109.996 47.9467 110.486 47.6907 110.956 47.392ZM126.565 8.48L130.853 4.96C131.151 4.704 131.514 4.49066 131.941 4.32C132.367 4.10666 132.794 4 133.22 4C133.733 4 134.159 4.192 134.501 4.576C134.885 4.96 135.077 5.68533 135.077 6.752V32.16C137.125 31.904 138.853 31.5413 140.26 31.072C141.711 30.56 142.885 29.9413 143.781 29.216C144.719 28.4907 145.423 27.6587 145.893 26.72C146.362 25.7813 146.661 24.7787 146.789 23.712C146.874 23.1573 146.789 22.6667 146.533 22.24C146.319 21.8133 146.213 21.4293 146.213 21.088C146.213 20.8747 146.298 20.6827 146.469 20.512C146.554 20.384 146.703 20.2773 146.917 20.192C147.173 20.064 147.535 20 148.005 20H151.845C153.039 20 153.637 20.3627 153.637 21.088C153.637 21.5147 153.551 21.856 153.381 22.112C153.253 22.368 153.082 22.7733 152.869 23.328C152.527 24.608 151.994 25.76 151.269 26.784C150.543 27.808 149.669 28.704 148.645 29.472C147.663 30.24 146.575 30.9013 145.381 31.456C144.229 32.0107 143.034 32.48 141.797 32.864C143.674 33.504 145.253 34.4853 146.533 35.808C147.855 37.088 148.943 38.4533 149.797 39.904C150.65 41.312 151.311 42.656 151.781 43.936C152.293 45.1733 152.655 46.0693 152.869 46.624C153.082 47.0933 153.317 47.4987 153.573 47.84C153.871 48.1387 154.149 48.416 154.405 48.672C154.661 48.928 154.874 49.2053 155.045 49.504C155.258 49.76 155.365 50.1013 155.365 50.528C155.365 51.1253 155.173 51.5307 154.789 51.744C154.405 51.9147 153.957 52 153.445 52H145.381C144.826 52 144.399 51.744 144.101 51.232C143.802 50.6773 143.546 49.824 143.333 48.672C143.077 47.3067 142.714 45.8347 142.245 44.256C141.818 42.6773 141.263 41.2053 140.581 39.84C139.898 38.4747 139.087 37.344 138.149 36.448C137.253 35.5093 136.229 35.04 135.077 35.04V42.336C135.077 43.6587 135.162 44.768 135.333 45.664C135.546 46.5173 135.759 47.2427 135.973 47.84C136.186 48.4373 136.378 48.9493 136.549 49.376C136.762 49.76 136.869 50.144 136.869 50.528C136.869 50.784 136.805 51.0187 136.677 51.232C136.549 51.4453 136.357 51.6373 136.101 51.808C135.887 51.936 135.546 52 135.077 52H126.565C125.37 52 124.773 51.5093 124.773 50.528C124.773 50.144 124.858 49.76 125.029 49.376C125.242 48.9493 125.455 48.4373 125.669 47.84C125.882 47.2427 126.074 46.5173 126.245 45.664C126.458 44.768 126.565 43.6587 126.565 42.336V13.728C125.583 12.704 125.029 11.8293 124.901 11.104C124.773 10.336 125.327 9.46133 126.565 8.48ZM154.71 35.424C154.71 30.3893 155.969 26.464 158.486 23.648C161.046 20.7893 164.694 19.36 169.43 19.36C170.881 19.36 172.31 19.552 173.718 19.936C175.169 20.2773 176.449 20.8533 177.558 21.664C178.71 22.432 179.627 23.456 180.31 24.736C181.035 25.9733 181.398 27.488 181.398 29.28C181.398 30.8587 181.099 32.1387 180.502 33.12C179.905 34.0587 179.115 34.8053 178.134 35.36C177.153 35.872 176.022 36.2347 174.742 36.448C173.505 36.6187 172.203 36.704 170.838 36.704H164.118C164.118 39.1787 164.31 41.312 164.694 43.104C165.078 44.8533 165.547 46.2827 166.102 47.392C166.699 48.4587 167.339 49.248 168.022 49.76C168.705 50.272 169.323 50.528 169.878 50.528C170.561 50.528 171.201 50.3573 171.798 50.016C172.395 49.632 172.95 49.1627 173.462 48.608C173.974 48.0107 174.422 47.3493 174.806 46.624C175.233 45.856 175.574 45.1093 175.83 44.384C176.086 43.6587 176.449 43.1467 176.918 42.848C177.43 42.5493 177.942 42.4 178.454 42.4C179.222 42.4 179.883 42.6987 180.438 43.296C181.035 43.8933 181.185 44.6613 180.886 45.6C180.673 46.2827 180.267 47.0293 179.67 47.84C179.073 48.6507 178.305 49.4187 177.366 50.144C176.427 50.8267 175.318 51.424 174.038 51.936C172.801 52.4053 171.414 52.64 169.878 52.64C167.403 52.64 165.227 52.192 163.35 51.296C161.473 50.3573 159.894 49.0987 158.614 47.52C157.334 45.9413 156.353 44.128 155.67 42.08C155.03 39.9893 154.71 37.7707 154.71 35.424ZM164.182 34.592H168.278C169.046 34.592 169.665 34.4213 170.134 34.08C170.603 33.7387 170.966 33.312 171.222 32.8C171.521 32.2453 171.713 31.648 171.798 31.008C171.926 30.3253 171.99 29.664 171.99 29.024C171.99 28.128 171.947 27.232 171.862 26.336C171.777 25.44 171.627 24.6293 171.414 23.904C171.201 23.1787 170.923 22.6027 170.582 22.176C170.283 21.7067 169.899 21.472 169.43 21.472C168.961 21.472 168.427 21.7493 167.83 22.304C167.275 22.8587 166.742 23.6907 166.23 24.8C165.718 25.9093 165.27 27.2747 164.886 28.896C164.502 30.5173 164.267 32.416 164.182 34.592ZM185.127 24.48L189.415 20.96C189.714 20.704 190.076 20.4907 190.503 20.32C190.93 20.1067 191.356 20 191.783 20C192.295 20 192.722 20.192 193.063 20.576C193.447 20.96 193.639 21.6853 193.639 22.752V23.072C194.748 21.9627 195.943 21.0667 197.223 20.384C198.546 19.7013 200.018 19.36 201.639 19.36C202.62 19.36 203.666 19.5093 204.775 19.808C205.884 20.1067 206.908 20.5547 207.847 21.152C208.786 21.7067 209.554 22.4107 210.151 23.264C210.748 24.1173 211.047 25.0773 211.047 26.144C211.047 26.9547 210.706 27.744 210.023 28.512C209.34 29.2373 208.38 29.6 207.143 29.6C205.991 29.6 205.095 29.2587 204.455 28.576C203.858 27.8507 203.346 27.0613 202.919 26.208C202.492 25.3547 202.087 24.5867 201.703 23.904C201.362 23.1787 200.828 22.816 200.103 22.816C199.207 22.816 198.183 23.1787 197.031 23.904C195.879 24.5867 194.748 25.504 193.639 26.656V42.336C193.639 43.6587 193.724 44.768 193.895 45.664C194.108 46.5173 194.322 47.2427 194.535 47.84C194.748 48.4373 194.94 48.9493 195.111 49.376C195.324 49.76 195.431 50.144 195.431 50.528C195.431 50.784 195.367 51.0187 195.239 51.232C195.111 51.4453 194.919 51.6373 194.663 51.808C194.45 51.936 194.108 52 193.639 52H185.127C183.932 52 183.335 51.5093 183.335 50.528C183.335 50.144 183.42 49.76 183.591 49.376C183.804 48.9493 184.018 48.4373 184.231 47.84C184.444 47.2427 184.636 46.5173 184.807 45.664C185.02 44.768 185.127 43.6587 185.127 42.336V29.728C185.127 29.0027 184.999 28.4267 184.743 28C184.53 27.5307 184.338 27.1253 184.167 26.784C184.039 26.4 184.018 26.0587 184.103 25.76C184.188 25.4187 184.53 24.992 185.127 24.48ZM216.864 41.632C217.632 41.632 218.272 41.8667 218.784 42.336C219.296 42.7627 219.723 43.296 220.064 43.936C220.405 44.576 220.725 45.3013 221.024 46.112C221.323 46.88 221.643 47.584 221.984 48.224C222.325 48.864 222.731 49.4187 223.2 49.888C223.712 50.3147 224.352 50.528 225.12 50.528C225.717 50.528 226.251 50.4 226.72 50.144C227.232 49.8453 227.659 49.4827 228 49.056C228.341 48.6293 228.597 48.1387 228.768 47.584C228.981 47.0293 229.088 46.4747 229.088 45.92C229.088 44.768 228.683 43.744 227.872 42.848C227.104 41.9093 226.123 41.0347 224.928 40.224C223.733 39.3707 222.453 38.5387 221.088 37.728C219.723 36.9173 218.443 36.064 217.248 35.168C216.053 34.272 215.051 33.2907 214.24 32.224C213.472 31.1147 213.088 29.856 213.088 28.448C213.088 26.784 213.515 25.376 214.368 24.224C215.264 23.072 216.352 22.1333 217.632 21.408C218.912 20.6827 220.277 20.1707 221.728 19.872C223.179 19.5307 224.501 19.36 225.696 19.36C227.573 19.36 229.259 19.552 230.752 19.936C232.245 20.32 233.525 20.8533 234.592 21.536C235.659 22.2187 236.469 23.0293 237.024 23.968C237.621 24.864 237.92 25.8453 237.92 26.912C237.92 27.7227 237.579 28.512 236.896 29.28C236.213 30.0053 235.253 30.368 234.016 30.368C233.248 30.368 232.608 30.1547 232.096 29.728C231.584 29.2587 231.157 28.704 230.816 28.064C230.475 27.424 230.155 26.72 229.856 25.952C229.557 25.1413 229.237 24.416 228.896 23.776C228.555 23.136 228.128 22.6027 227.616 22.176C227.147 21.7067 226.528 21.472 225.76 21.472C225.163 21.472 224.608 21.6213 224.096 21.92C223.627 22.176 223.221 22.5173 222.88 22.944C222.539 23.3707 222.261 23.8613 222.048 24.416C221.877 24.9707 221.792 25.5253 221.792 26.08C221.792 27.232 222.176 28.2773 222.944 29.216C223.755 30.1547 224.757 31.0507 225.952 31.904C227.189 32.7573 228.491 33.6107 229.856 34.464C231.264 35.2747 232.565 36.1493 233.76 37.088C234.997 38.0267 236 39.0507 236.768 40.16C237.579 41.2267 237.984 42.464 237.984 43.872C237.984 45.536 237.536 46.9227 236.64 48.032C235.744 49.1413 234.635 50.0373 233.312 50.72C232.032 51.4027 230.645 51.8933 229.152 52.192C227.701 52.4907 226.379 52.64 225.184 52.64C223.349 52.64 221.664 52.448 220.128 52.064C218.635 51.68 217.355 51.1467 216.288 50.464C215.221 49.7813 214.389 48.992 213.792 48.096C213.237 47.1573 212.96 46.1547 212.96 45.088C212.96 44.2773 213.301 43.5093 213.984 42.784C214.667 42.016 215.627 41.632 216.864 41.632Z" fill="#E1DBD2"/>
</g>
<g filter="url(#filter1_f_5246_83)">
<path d="M280 25.2317C287.445 14.2561 294.891 14.2561 302.336 25.2317C309.781 36.2073 317.226 36.2073 324.672 25.2317C332.117 14.2561 339.562 14.2561 347.007 25.2317C354.453 36.2073 361.898 36.2073 369.343 25.2317C376.789 14.2561 384.234 14.2561 391.679 25.2317C399.124 36.2073 406.57 36.2073 414.015 25.2317C421.46 14.2561 428.906 14.2561 436.351 25.2317C443.796 36.2073 451.241 36.2073 458.687 25.2317C466.132 14.2561 473.577 14.2561 481.022 25.2317C488.468 36.2073 495.913 36.2073 503.358 25.2317" stroke="#E1DBD2" stroke-width="2"/>
</g>
<path d="M233.707 57.1193C236.796 57.1193 239.759 57.1752 242.803 56.5899C243.919 56.3753 247.52 55.0473 248 54.0874" stroke="#8151FB" stroke-width="3" stroke-linecap="round"/>
<path d="M239.338 50.189C238.012 50.3547 239.037 60.4164 239.771 61.8834" stroke="#8151FB" stroke-width="3" stroke-linecap="round"/>
<path d="M239 33.1976C242.123 33.1976 245.305 32.7549 248.297 32.7549" stroke="#8151FB" stroke-width="3" stroke-linecap="round"/>
<path d="M243.427 27V40.7242" stroke="#8151FB" stroke-width="3" stroke-linecap="round"/>
<path d="M221.094 41.7552C224.702 41.7552 228.225 41.3125 231.72 41.3125" stroke="#8151FB" stroke-width="3" stroke-linecap="round"/>
<path d="M225.964 36C225.964 40.1776 226.407 44.3317 226.407 48.3961" stroke="#8151FB" stroke-width="3" stroke-linecap="round"/>
<defs>
<filter id="filter0_f_5246_83" x="0.960022" y="0" width="241.024" height="72" filterUnits="userSpaceOnUse" color-interpolation-filters="sRGB">
<feFlood flood-opacity="0" result="BackgroundImageFix"/>
<feBlend mode="normal" in="SourceGraphic" in2="BackgroundImageFix" result="shape"/>
<feGaussianBlur stdDeviation="2" result="effect1_foregroundBlur_5246_83"/>
</filter>
<filter id="filter1_f_5246_83" x="278.172" y="15" width="227.013" height="20.4634" filterUnits="userSpaceOnUse" color-interpolation-filters="sRGB">
<feFlood flood-opacity="0" result="BackgroundImageFix"/>
<feBlend mode="normal" in="SourceGraphic" in2="BackgroundImageFix" result="shape"/>
<feGaussianBlur stdDeviation="0.5" result="effect1_foregroundBlur_5246_83"/>
</filter>
</defs>
</svg>
