<svg width="502" height="70" viewBox="0 0 502 70" fill="none" xmlns="http://www.w3.org/2000/svg">
<path d="M4.864 41.272C6.016 41.272 6.89067 41.6987 7.488 42.552C8.128 43.4053 8.68267 44.3653 9.152 45.432C9.664 46.456 10.2187 47.3947 10.816 48.248C11.4133 49.1013 12.288 49.528 13.44 49.528C14.848 49.528 15.9573 49.2933 16.768 48.824C17.5787 48.3547 18.1973 47.7787 18.624 47.096C19.0507 46.4133 19.328 45.7093 19.456 44.984C19.584 44.216 19.648 43.5547 19.648 43C19.648 41.08 19.1787 39.416 18.24 38.008C17.344 36.5573 16.2133 35.2133 14.848 33.976C13.4827 32.7387 11.9893 31.544 10.368 30.392C8.74667 29.24 7.25333 28.0027 5.888 26.68C4.52267 25.3573 3.37067 23.8853 2.432 22.264C1.536 20.6427 1.088 18.7653 1.088 16.632C1.088 14.968 1.49333 13.4747 2.304 12.152C3.11467 10.7867 4.18133 9.61333 5.504 8.632C6.86933 7.65066 8.448 6.904 10.24 6.392C12.0747 5.83733 13.9733 5.56 15.936 5.56C19.9893 5.56 23.0827 6.17866 25.216 7.416C27.392 8.61066 28.48 10.296 28.48 12.472C28.48 13.2827 28.1387 14.072 27.456 14.84C26.7733 15.5653 25.8133 15.928 24.576 15.928C23.808 15.928 23.168 15.736 22.656 15.352C22.1867 14.9253 21.7813 14.4133 21.44 13.816C21.0987 13.176 20.7787 12.5147 20.48 11.832C20.224 11.1067 19.904 10.4453 19.52 9.848C19.136 9.208 18.6667 8.696 18.112 8.312C17.6 7.88533 16.896 7.672 16 7.672C14.592 7.672 13.4827 7.90666 12.672 8.376C11.8613 8.84533 11.2427 9.42133 10.816 10.104C10.3893 10.7867 10.112 11.512 9.984 12.28C9.856 13.048 9.792 13.7093 9.792 14.264C9.792 16.1413 10.24 17.8267 11.136 19.32C12.0747 20.7707 13.248 22.136 14.656 23.416C16.064 24.6533 17.5573 25.8693 19.136 27.064C20.7573 28.2587 22.272 29.5387 23.68 30.904C25.088 32.2267 26.24 33.6987 27.136 35.32C28.0747 36.9413 28.544 38.8187 28.544 40.952C28.544 42.616 28.1173 44.1093 27.264 45.432C26.4533 46.712 25.3653 47.8213 24 48.76C22.6347 49.6987 21.0347 50.424 19.2 50.936C17.408 51.4053 15.5093 51.64 13.504 51.64C11.6693 51.64 9.96267 51.4693 8.384 51.128C6.848 50.8293 5.52533 50.3813 4.416 49.784C3.34933 49.1867 2.496 48.4613 1.856 47.608C1.25867 46.7547 0.96 45.7947 0.96 44.728C0.96 43.9173 1.30133 43.1493 1.984 42.424C2.66667 41.656 3.62667 41.272 4.864 41.272ZM32.252 23.544L36.54 20.024C36.8813 19.768 37.2653 19.5333 37.692 19.32C38.1613 19.1067 38.6093 19 39.036 19C39.5053 19 39.9107 19.1707 40.252 19.512C40.5933 19.8533 40.764 20.4933 40.764 21.432C41.788 20.4507 42.8973 19.704 44.092 19.192C45.2867 18.6373 46.5667 18.36 47.932 18.36C49.6813 18.36 51.324 18.8293 52.86 19.768C54.396 20.664 55.74 21.88 56.892 23.416C58.044 24.952 58.94 26.7227 59.58 28.728C60.2627 30.7333 60.604 32.8453 60.604 35.064C60.604 37.24 60.2627 39.3307 59.58 41.336C58.94 43.3413 58.044 45.112 56.892 46.648C55.74 48.184 54.396 49.4 52.86 50.296C51.324 51.192 49.6813 51.64 47.932 51.64C46.5667 51.64 45.2867 51.384 44.092 50.872C42.8973 50.3173 41.788 49.5707 40.764 48.632V57.336C40.764 58.6587 40.8493 59.7467 41.02 60.6C41.2333 61.496 41.4467 62.2427 41.66 62.84C41.8733 63.4373 42.0653 63.928 42.236 64.312C42.4493 64.7387 42.556 65.144 42.556 65.528C42.556 66.5093 41.9587 67 40.764 67H32.252C31.9107 67 31.612 66.936 31.356 66.808C31.1427 66.7227 30.9293 66.5733 30.716 66.36C30.5453 66.1893 30.46 65.912 30.46 65.528C30.46 65.144 30.5453 64.7387 30.716 64.312C30.9293 63.928 31.1427 63.4373 31.356 62.84C31.5693 62.2427 31.7613 61.496 31.932 60.6C32.1453 59.7467 32.252 58.6587 32.252 57.336V28.792C31.2707 27.768 30.716 26.8933 30.588 26.168C30.46 25.4 31.0147 24.5253 32.252 23.544ZM45.372 48.056C46.524 48.056 47.4627 47.6507 48.188 46.84C48.956 45.9867 49.5533 44.9413 49.98 43.704C50.4493 42.424 50.7693 41.016 50.94 39.48C51.1107 37.944 51.196 36.472 51.196 35.064C51.196 33.656 51.1107 32.184 50.94 30.648C50.7693 29.0693 50.4493 27.64 49.98 26.36C49.5533 25.08 48.956 24.0347 48.188 23.224C47.4627 22.3707 46.524 21.944 45.372 21.944C44.5187 21.944 43.6867 22.2 42.876 22.712C42.108 23.1813 41.404 23.8427 40.764 24.696V45.368C41.404 46.1787 42.108 46.84 42.876 47.352C43.6867 47.8213 44.5187 48.056 45.372 48.056ZM62.5225 34.424C62.5225 29.3893 63.7812 25.464 66.2985 22.648C68.8585 19.7893 72.5065 18.36 77.2425 18.36C78.6932 18.36 80.1225 18.552 81.5305 18.936C82.9812 19.2773 84.2612 19.8533 85.3705 20.664C86.5225 21.432 87.4398 22.456 88.1225 23.736C88.8478 24.9733 89.2105 26.488 89.2105 28.28C89.2105 29.8587 88.9118 31.1387 88.3145 32.12C87.7172 33.0587 86.9278 33.8053 85.9465 34.36C84.9652 34.872 83.8345 35.2347 82.5545 35.448C81.3172 35.6187 80.0158 35.704 78.6505 35.704H71.9305C71.9305 38.1787 72.1225 40.312 72.5065 42.104C72.8905 43.8533 73.3598 45.2827 73.9145 46.392C74.5118 47.4587 75.1518 48.248 75.8345 48.76C76.5172 49.272 77.1358 49.528 77.6905 49.528C78.3732 49.528 79.0132 49.3573 79.6105 49.016C80.2078 48.632 80.7625 48.1627 81.2745 47.608C81.7865 47.0107 82.2345 46.3493 82.6185 45.624C83.0452 44.856 83.3865 44.1093 83.6425 43.384C83.8985 42.6587 84.2612 42.1467 84.7305 41.848C85.2425 41.5493 85.7545 41.4 86.2665 41.4C87.0345 41.4 87.6958 41.6987 88.2505 42.296C88.8478 42.8933 88.9972 43.6613 88.6985 44.6C88.4852 45.2827 88.0798 46.0293 87.4825 46.84C86.8852 47.6507 86.1172 48.4187 85.1785 49.144C84.2398 49.8267 83.1305 50.424 81.8505 50.936C80.6132 51.4053 79.2265 51.64 77.6905 51.64C75.2158 51.64 73.0398 51.192 71.1625 50.296C69.2852 49.3573 67.7065 48.0987 66.4265 46.52C65.1465 44.9413 64.1652 43.128 63.4825 41.08C62.8425 38.9893 62.5225 36.7707 62.5225 34.424ZM71.9945 33.592H76.0905C76.8585 33.592 77.4772 33.4213 77.9465 33.08C78.4158 32.7387 78.7785 32.312 79.0345 31.8C79.3332 31.2453 79.5252 30.648 79.6105 30.008C79.7385 29.3253 79.8025 28.664 79.8025 28.024C79.8025 27.128 79.7598 26.232 79.6745 25.336C79.5892 24.44 79.4398 23.6293 79.2265 22.904C79.0132 22.1787 78.7358 21.6027 78.3945 21.176C78.0958 20.7067 77.7118 20.472 77.2425 20.472C76.7732 20.472 76.2398 20.7493 75.6425 21.304C75.0878 21.8587 74.5545 22.6907 74.0425 23.8C73.5305 24.9093 73.0825 26.2747 72.6985 27.896C72.3145 29.5173 72.0798 31.416 71.9945 33.592ZM104.588 29.816C105.228 29.5173 105.868 29.176 106.508 28.792C107.148 28.408 107.724 28.0453 108.236 27.704C108.065 25.656 107.681 23.9493 107.083 22.584C106.486 21.176 105.633 20.472 104.524 20.472C103.841 20.472 103.158 20.8987 102.476 21.752C101.836 22.6053 101.153 23.544 100.428 24.568C99.7022 25.5493 98.8915 26.4667 97.9955 27.32C97.0995 28.1733 96.0755 28.6 94.9235 28.6C93.6862 28.6 92.7902 28.2373 92.2355 27.512C91.7235 26.744 91.4675 25.9547 91.4675 25.144C91.4675 24.0773 91.7875 23.1173 92.4275 22.264C93.0675 21.4107 93.9635 20.7067 95.1155 20.152C96.2675 19.5547 97.6328 19.1067 99.2115 18.808C100.833 18.5093 102.604 18.36 104.524 18.36C108.15 18.36 110.753 19.0213 112.332 20.344C113.953 21.624 114.977 23.4587 115.404 25.848C115.489 26.36 115.574 27.1493 115.66 28.216C115.745 29.2827 115.83 30.4773 115.916 31.8C116.001 33.08 116.086 34.4453 116.172 35.896C116.257 37.304 116.321 38.648 116.364 39.928C116.449 41.1653 116.534 42.296 116.62 43.32C116.705 44.3013 116.79 45.0053 116.876 45.432C116.961 45.9013 117.11 46.3067 117.324 46.648C117.58 46.9467 117.814 47.2453 118.028 47.544C118.241 47.8427 118.433 48.1413 118.604 48.44C118.774 48.7387 118.86 49.1013 118.86 49.528C118.86 49.9973 118.668 50.36 118.284 50.616C117.942 50.872 117.516 51 117.004 51H108.94C108.556 51 108.193 50.872 107.852 50.616C107.51 50.3173 107.254 49.8693 107.083 49.272C106.145 49.9973 105.036 50.5733 103.756 51C102.518 51.4693 101.302 51.704 100.108 51.704C98.7422 51.704 97.5048 51.448 96.3955 50.936C95.2862 50.3813 94.3475 49.6773 93.5795 48.824C92.8115 47.928 92.2142 46.9467 91.7875 45.88C91.3608 44.7707 91.1475 43.64 91.1475 42.488C91.1475 40.44 91.5528 38.7547 92.3635 37.432C93.2168 36.0667 94.2835 34.936 95.5635 34.04C96.8862 33.144 98.3368 32.376 99.9155 31.736C101.537 31.096 103.094 30.456 104.588 29.816ZM106.956 46.392C107.126 44.5573 107.361 42.4667 107.66 40.12C108.001 37.7307 108.236 34.936 108.364 31.736V30.648C108.022 30.904 107.596 31.2027 107.083 31.544C106.572 31.8853 106.017 32.2693 105.42 32.696C104.865 33.08 104.289 33.5493 103.692 34.104C103.137 34.616 102.625 35.2347 102.156 35.96C101.686 36.6853 101.302 37.5387 101.004 38.52C100.705 39.5013 100.556 40.632 100.556 41.912C100.556 42.3813 100.598 42.936 100.684 43.576C100.769 44.1733 100.918 44.7707 101.132 45.368C101.388 45.9227 101.729 46.4133 102.156 46.84C102.582 47.224 103.158 47.416 103.884 47.416C104.481 47.416 105.014 47.3307 105.484 47.16C105.996 46.9467 106.486 46.6907 106.956 46.392ZM122.565 7.48L126.853 3.96C127.151 3.704 127.514 3.49066 127.941 3.32C128.367 3.10666 128.794 3 129.22 3C129.733 3 130.159 3.192 130.501 3.576C130.885 3.96 131.077 4.68533 131.077 5.752V31.16C133.125 30.904 134.853 30.5413 136.26 30.072C137.711 29.56 138.885 28.9413 139.781 28.216C140.719 27.4907 141.423 26.6587 141.893 25.72C142.362 24.7813 142.661 23.7787 142.789 22.712C142.874 22.1573 142.789 21.6667 142.533 21.24C142.319 20.8133 142.213 20.4293 142.213 20.088C142.213 19.8747 142.298 19.6827 142.469 19.512C142.554 19.384 142.703 19.2773 142.917 19.192C143.173 19.064 143.535 19 144.005 19H147.845C149.039 19 149.637 19.3627 149.637 20.088C149.637 20.5147 149.551 20.856 149.381 21.112C149.253 21.368 149.082 21.7733 148.869 22.328C148.527 23.608 147.994 24.76 147.269 25.784C146.543 26.808 145.669 27.704 144.645 28.472C143.663 29.24 142.575 29.9013 141.381 30.456C140.229 31.0107 139.034 31.48 137.797 31.864C139.674 32.504 141.253 33.4853 142.533 34.808C143.855 36.088 144.943 37.4533 145.797 38.904C146.65 40.312 147.311 41.656 147.781 42.936C148.293 44.1733 148.655 45.0693 148.869 45.624C149.082 46.0933 149.317 46.4987 149.573 46.84C149.871 47.1387 150.149 47.416 150.405 47.672C150.661 47.928 150.874 48.2053 151.045 48.504C151.258 48.76 151.365 49.1013 151.365 49.528C151.365 50.1253 151.173 50.5307 150.789 50.744C150.405 50.9147 149.957 51 149.445 51H141.381C140.826 51 140.399 50.744 140.101 50.232C139.802 49.6773 139.546 48.824 139.333 47.672C139.077 46.3067 138.714 44.8347 138.245 43.256C137.818 41.6773 137.263 40.2053 136.581 38.84C135.898 37.4747 135.087 36.344 134.149 35.448C133.253 34.5093 132.229 34.04 131.077 34.04V41.336C131.077 42.6587 131.162 43.768 131.333 44.664C131.546 45.5173 131.759 46.2427 131.973 46.84C132.186 47.4373 132.378 47.9493 132.549 48.376C132.762 48.76 132.869 49.144 132.869 49.528C132.869 49.784 132.805 50.0187 132.677 50.232C132.549 50.4453 132.357 50.6373 132.101 50.808C131.887 50.936 131.546 51 131.077 51H122.565C121.37 51 120.773 50.5093 120.773 49.528C120.773 49.144 120.858 48.76 121.029 48.376C121.242 47.9493 121.455 47.4373 121.669 46.84C121.882 46.2427 122.074 45.5173 122.245 44.664C122.458 43.768 122.565 42.6587 122.565 41.336V12.728C121.583 11.704 121.029 10.8293 120.901 10.104C120.773 9.336 121.327 8.46133 122.565 7.48ZM150.71 34.424C150.71 29.3893 151.969 25.464 154.486 22.648C157.046 19.7893 160.694 18.36 165.43 18.36C166.881 18.36 168.31 18.552 169.718 18.936C171.169 19.2773 172.449 19.8533 173.558 20.664C174.71 21.432 175.627 22.456 176.31 23.736C177.035 24.9733 177.398 26.488 177.398 28.28C177.398 29.8587 177.099 31.1387 176.502 32.12C175.905 33.0587 175.115 33.8053 174.134 34.36C173.153 34.872 172.022 35.2347 170.742 35.448C169.505 35.6187 168.203 35.704 166.838 35.704H160.118C160.118 38.1787 160.31 40.312 160.694 42.104C161.078 43.8533 161.547 45.2827 162.102 46.392C162.699 47.4587 163.339 48.248 164.022 48.76C164.705 49.272 165.323 49.528 165.878 49.528C166.561 49.528 167.201 49.3573 167.798 49.016C168.395 48.632 168.95 48.1627 169.462 47.608C169.974 47.0107 170.422 46.3493 170.806 45.624C171.233 44.856 171.574 44.1093 171.83 43.384C172.086 42.6587 172.449 42.1467 172.918 41.848C173.43 41.5493 173.942 41.4 174.454 41.4C175.222 41.4 175.883 41.6987 176.438 42.296C177.035 42.8933 177.185 43.6613 176.886 44.6C176.673 45.2827 176.267 46.0293 175.67 46.84C175.073 47.6507 174.305 48.4187 173.366 49.144C172.427 49.8267 171.318 50.424 170.038 50.936C168.801 51.4053 167.414 51.64 165.878 51.64C163.403 51.64 161.227 51.192 159.35 50.296C157.473 49.3573 155.894 48.0987 154.614 46.52C153.334 44.9413 152.353 43.128 151.67 41.08C151.03 38.9893 150.71 36.7707 150.71 34.424ZM160.182 33.592H164.278C165.046 33.592 165.665 33.4213 166.134 33.08C166.603 32.7387 166.966 32.312 167.222 31.8C167.521 31.2453 167.713 30.648 167.798 30.008C167.926 29.3253 167.99 28.664 167.99 28.024C167.99 27.128 167.947 26.232 167.862 25.336C167.777 24.44 167.627 23.6293 167.414 22.904C167.201 22.1787 166.923 21.6027 166.582 21.176C166.283 20.7067 165.899 20.472 165.43 20.472C164.961 20.472 164.427 20.7493 163.83 21.304C163.275 21.8587 162.742 22.6907 162.23 23.8C161.718 24.9093 161.27 26.2747 160.886 27.896C160.502 29.5173 160.267 31.416 160.182 33.592ZM181.127 23.48L185.415 19.96C185.714 19.704 186.076 19.4907 186.503 19.32C186.93 19.1067 187.356 19 187.783 19C188.295 19 188.722 19.192 189.063 19.576C189.447 19.96 189.639 20.6853 189.639 21.752V22.072C190.748 20.9627 191.943 20.0667 193.223 19.384C194.546 18.7013 196.018 18.36 197.639 18.36C198.62 18.36 199.666 18.5093 200.775 18.808C201.884 19.1067 202.908 19.5547 203.847 20.152C204.786 20.7067 205.554 21.4107 206.151 22.264C206.748 23.1173 207.047 24.0773 207.047 25.144C207.047 25.9547 206.706 26.744 206.023 27.512C205.34 28.2373 204.38 28.6 203.143 28.6C201.991 28.6 201.095 28.2587 200.455 27.576C199.858 26.8507 199.346 26.0613 198.919 25.208C198.492 24.3547 198.087 23.5867 197.703 22.904C197.362 22.1787 196.828 21.816 196.103 21.816C195.207 21.816 194.183 22.1787 193.031 22.904C191.879 23.5867 190.748 24.504 189.639 25.656V41.336C189.639 42.6587 189.724 43.768 189.895 44.664C190.108 45.5173 190.322 46.2427 190.535 46.84C190.748 47.4373 190.94 47.9493 191.111 48.376C191.324 48.76 191.431 49.144 191.431 49.528C191.431 49.784 191.367 50.0187 191.239 50.232C191.111 50.4453 190.919 50.6373 190.663 50.808C190.45 50.936 190.108 51 189.639 51H181.127C179.932 51 179.335 50.5093 179.335 49.528C179.335 49.144 179.42 48.76 179.591 48.376C179.804 47.9493 180.018 47.4373 180.231 46.84C180.444 46.2427 180.636 45.5173 180.807 44.664C181.02 43.768 181.127 42.6587 181.127 41.336V28.728C181.127 28.0027 180.999 27.4267 180.743 27C180.53 26.5307 180.338 26.1253 180.167 25.784C180.039 25.4 180.018 25.0587 180.103 24.76C180.188 24.4187 180.53 23.992 181.127 23.48ZM212.864 40.632C213.632 40.632 214.272 40.8667 214.784 41.336C215.296 41.7627 215.723 42.296 216.064 42.936C216.405 43.576 216.725 44.3013 217.024 45.112C217.323 45.88 217.643 46.584 217.984 47.224C218.325 47.864 218.731 48.4187 219.2 48.888C219.712 49.3147 220.352 49.528 221.12 49.528C221.717 49.528 222.251 49.4 222.72 49.144C223.232 48.8453 223.659 48.4827 224 48.056C224.341 47.6293 224.597 47.1387 224.768 46.584C224.981 46.0293 225.088 45.4747 225.088 44.92C225.088 43.768 224.683 42.744 223.872 41.848C223.104 40.9093 222.123 40.0347 220.928 39.224C219.733 38.3707 218.453 37.5387 217.088 36.728C215.723 35.9173 214.443 35.064 213.248 34.168C212.053 33.272 211.051 32.2907 210.24 31.224C209.472 30.1147 209.088 28.856 209.088 27.448C209.088 25.784 209.515 24.376 210.368 23.224C211.264 22.072 212.352 21.1333 213.632 20.408C214.912 19.6827 216.277 19.1707 217.728 18.872C219.179 18.5307 220.501 18.36 221.696 18.36C223.573 18.36 225.259 18.552 226.752 18.936C228.245 19.32 229.525 19.8533 230.592 20.536C231.659 21.2187 232.469 22.0293 233.024 22.968C233.621 23.864 233.92 24.8453 233.92 25.912C233.92 26.7227 233.579 27.512 232.896 28.28C232.213 29.0053 231.253 29.368 230.016 29.368C229.248 29.368 228.608 29.1547 228.096 28.728C227.584 28.2587 227.157 27.704 226.816 27.064C226.475 26.424 226.155 25.72 225.856 24.952C225.557 24.1413 225.237 23.416 224.896 22.776C224.555 22.136 224.128 21.6027 223.616 21.176C223.147 20.7067 222.528 20.472 221.76 20.472C221.163 20.472 220.608 20.6213 220.096 20.92C219.627 21.176 219.221 21.5173 218.88 21.944C218.539 22.3707 218.261 22.8613 218.048 23.416C217.877 23.9707 217.792 24.5253 217.792 25.08C217.792 26.232 218.176 27.2773 218.944 28.216C219.755 29.1547 220.757 30.0507 221.952 30.904C223.189 31.7573 224.491 32.6107 225.856 33.464C227.264 34.2747 228.565 35.1493 229.76 36.088C230.997 37.0267 232 38.0507 232.768 39.16C233.579 40.2267 233.984 41.464 233.984 42.872C233.984 44.536 233.536 45.9227 232.64 47.032C231.744 48.1413 230.635 49.0373 229.312 49.72C228.032 50.4027 226.645 50.8933 225.152 51.192C223.701 51.4907 222.379 51.64 221.184 51.64C219.349 51.64 217.664 51.448 216.128 51.064C214.635 50.68 213.355 50.1467 212.288 49.464C211.221 48.7813 210.389 47.992 209.792 47.096C209.237 46.1573 208.96 45.1547 208.96 44.088C208.96 43.2773 209.301 42.5093 209.984 41.784C210.667 41.016 211.627 40.632 212.864 40.632Z" fill="#E1DBD2"/>
<g filter="url(#filter0_f_5246_83)">
<path d="M276 24.2317C283.445 13.2561 290.891 13.2561 298.336 24.2317C305.781 35.2073 313.226 35.2073 320.672 24.2317C328.117 13.2561 335.562 13.2561 343.007 24.2317C350.453 35.2073 357.898 35.2073 365.343 24.2317C372.789 13.2561 380.234 13.2561 387.679 24.2317C395.124 35.2073 402.57 35.2073 410.015 24.2317C417.46 13.2561 424.906 13.2561 432.351 24.2317C439.796 35.2073 447.241 35.2073 454.687 24.2317C462.132 13.2561 469.577 13.2561 477.022 24.2317C484.468 35.2073 491.913 35.2073 499.358 24.2317" stroke="#E1DBD2" stroke-width="2"/>
</g>
<path d="M229.707 56.1193C232.796 56.1193 235.759 56.1752 238.803 55.5899C239.919 55.3753 243.52 54.0473 244 53.0874" stroke="#8151FB" stroke-width="3" stroke-linecap="round"/>
<path d="M235.338 49.189C234.012 49.3547 235.037 59.4164 235.771 60.8834" stroke="#8151FB" stroke-width="3" stroke-linecap="round"/>
<path d="M235 32.1976C238.123 32.1976 241.305 31.7549 244.297 31.7549" stroke="#8151FB" stroke-width="3" stroke-linecap="round"/>
<path d="M239.427 26V39.7242" stroke="#8151FB" stroke-width="3" stroke-linecap="round"/>
<path d="M217.094 40.7552C220.702 40.7552 224.225 40.3125 227.72 40.3125" stroke="#8151FB" stroke-width="3" stroke-linecap="round"/>
<path d="M221.964 35C221.964 39.1776 222.407 43.3317 222.407 47.3961" stroke="#8151FB" stroke-width="3" stroke-linecap="round"/>
<defs>
<filter id="filter0_f_5246_83" x="274.172" y="14" width="227.013" height="20.4634" filterUnits="userSpaceOnUse" color-interpolation-filters="sRGB">
<feFlood flood-opacity="0" result="BackgroundImageFix"/>
<feBlend mode="normal" in="SourceGraphic" in2="BackgroundImageFix" result="shape"/>
<feGaussianBlur stdDeviation="0.5" result="effect1_foregroundBlur_5246_83"/>
</filter>
</defs>
</svg>
