<svg width="254" height="100" viewBox="0 0 254 100" fill="none" xmlns="http://www.w3.org/2000/svg">
<g filter="">
<path d="M22.216 7.8L24.648 15.928C25.096 16.632 25.544 16.952 26.056 16.952C26.312 16.952 26.568 16.888 26.824 16.696C28.04 15.8 27.72 8.312 33.8 8.312H36.104C38.024 8.312 37.768 11.384 37.768 15.864V41.336C37.768 46.584 35.976 48.056 35.976 49.528C35.976 49.528 35.976 51 37.768 51H46.28C47.496 51 48.072 50.488 48.072 49.528C48.072 48.056 46.28 46.584 46.28 41.336V15.864C46.28 11.384 46.024 8.312 47.944 8.312H50.184C56.264 8.312 55.88 15.928 57.16 16.696C57.672 17.016 57.352 16.824 57.992 16.824C58.504 16.824 58.952 16.568 59.336 15.928L61.768 7.8C61.96 7.16 62.536 6.2 61 6.2H22.984C21.448 6.2 22.024 7.16 22.216 7.8ZM65.752 28.984V41.336C65.752 46.584 63.96 48.056 63.96 49.528C63.96 49.528 63.96 51 65.752 51H74.264C74.264 51 76.056 51 76.056 49.528C76.056 48.056 74.264 46.584 74.264 41.336V22.008C74.264 19.704 73.496 19 72.6 19C71.704 19 70.68 19.64 70.04 20.216L65.752 23.736C63.32 25.72 63.768 26.936 65.752 28.984ZM64.216 8.888C64.216 12.152 66.776 14.712 70.04 14.712C73.24 14.712 75.8 12.152 75.8 8.888C75.8 5.688 73.24 3 70.04 3C66.776 3 64.216 5.688 64.216 8.888ZM79.752 28.728V41.336C79.752 46.584 77.96 48.056 77.96 49.528C77.96 50.488 78.536 51 79.752 51H88.264C88.264 51 90.056 51 90.056 49.528C90.056 48.056 88.264 46.584 88.264 41.336V24.504C89.864 22.84 91.592 21.816 93.064 21.816C96.648 21.816 96.456 25.848 96.264 31.736C96.008 38.904 94.92 43.832 94.792 47.672C94.728 50.04 95.752 51 96.84 51H104.904C105.928 51 106.76 50.488 106.76 49.528C106.76 47.8 105.16 47.352 104.776 45.432C104.264 42.936 103.944 30.2 103.368 26.296C105.352 23.608 107.784 21.816 109.704 21.816C113.288 21.816 113.096 25.848 112.904 31.736C112.648 38.904 111.56 43.832 111.432 47.672C111.368 50.04 112.392 51 113.48 51H121.544C122.568 51 123.4 50.488 123.4 49.528C123.4 47.8 121.8 47.352 121.416 45.432C120.904 42.808 120.52 29.048 119.944 25.848C119.112 21.112 115.464 18.36 111.368 18.36C107.656 18.36 104.904 20.6 102.6 23.544C101.192 20.216 98.12 18.36 94.728 18.36C92.168 18.36 90.056 19.448 88.2 21.112C88.008 19.512 87.24 19 86.408 19C85.576 19 84.616 19.448 84.04 19.96L79.752 23.48C77.32 25.464 79.752 25.848 79.752 28.728ZM140.503 51.64C146.647 51.64 150.679 47.288 151.511 44.6C152.087 42.744 150.615 41.4 149.079 41.4C148.055 41.4 146.967 41.976 146.455 43.384C145.367 46.328 143.255 49.528 140.503 49.528C138.263 49.528 134.743 45.688 134.743 35.704H141.463C146.903 35.704 152.023 34.552 152.023 28.28C152.023 21.048 145.879 18.36 140.055 18.36C130.647 18.36 125.335 24.44 125.335 34.424C125.335 43.768 130.647 51.64 140.503 51.64ZM140.055 20.472C141.911 20.472 142.615 24.44 142.615 28.024C142.615 30.584 141.911 33.592 138.903 33.592H134.807C135.191 24.952 138.199 20.472 140.055 20.472ZM155.752 12.728V41.336C155.752 46.584 153.96 48.056 153.96 49.528C153.96 49.528 153.96 51 155.752 51H164.264C164.264 51 166.056 51 166.056 49.528C166.056 48.056 164.264 46.584 164.264 41.336V5.752C164.264 3.64 163.432 3 162.408 3C161.576 3 160.616 3.448 160.04 3.96L155.752 7.48C153.32 9.464 155.752 9.848 155.752 12.728ZM169.752 28.984V41.336C169.752 46.584 167.96 48.056 167.96 49.528C167.96 49.528 167.96 51 169.752 51H178.264C178.264 51 180.056 51 180.056 49.528C180.056 48.056 178.264 46.584 178.264 41.336V22.008C178.264 19.704 177.496 19 176.6 19C175.704 19 174.68 19.64 174.04 20.216L169.752 23.736C167.32 25.72 167.768 26.936 169.752 28.984ZM168.216 8.888C168.216 12.152 170.776 14.712 174.04 14.712C177.24 14.712 179.8 12.152 179.8 8.888C179.8 5.688 177.24 3 174.04 3C170.776 3 168.216 5.688 168.216 8.888ZM183.752 28.728V41.336C183.752 46.584 181.96 48.056 181.96 49.528C181.96 50.488 182.536 51 183.752 51H192.264C192.264 51 194.056 51 194.056 49.528C194.056 48.056 192.264 46.584 192.264 41.336V26.872C194.312 23.864 196.936 21.816 198.984 21.816C202.568 21.816 202.376 25.848 202.184 31.736C201.928 38.904 200.84 43.832 200.712 47.672C200.648 50.04 201.672 51 202.76 51H210.824C211.848 51 212.68 50.488 212.68 49.528C212.68 47.8 211.08 47.352 210.696 45.432C210.184 42.808 209.8 29.048 209.224 25.848C208.392 21.112 204.744 18.36 200.648 18.36C197.128 18.36 194.44 20.408 192.264 23.096V21.752C192.264 19.64 191.432 19 190.408 19C189.576 19 188.616 19.448 188.04 19.96L183.752 23.48C181.32 25.464 183.752 25.848 183.752 28.728ZM229.753 51.64C235.897 51.64 239.929 47.288 240.761 44.6C241.337 42.744 239.865 41.4 238.329 41.4C237.305 41.4 236.217 41.976 235.705 43.384C234.617 46.328 232.505 49.528 229.753 49.528C227.513 49.528 223.993 45.688 223.993 35.704H230.713C236.153 35.704 241.273 34.552 241.273 28.28C241.273 21.048 235.129 18.36 229.305 18.36C219.897 18.36 214.585 24.44 214.585 34.424C214.585 43.768 219.897 51.64 229.753 51.64ZM229.305 20.472C231.161 20.472 231.865 24.44 231.865 28.024C231.865 30.584 231.161 33.592 228.153 33.592H224.057C224.441 24.952 227.449 20.472 229.305 20.472Z" fill="#2F302D"/>
</g>
<path d="M31.1849 43.0985C28.0084 43.0985 24.9302 42.4416 22.2569 44.5209C20.0883 46.2076 18 48.7036 18 51.5141C18 53.5468 18.0267 54.9121 18.9122 56.6831C19.4001 57.6589 20.5838 59.3299 21.3447 60.0278C22.2206 60.8312 23.188 61.507 24.4535 61.8963C25.703 62.2808 25.9056 62.4603 27.1219 62.7645C28.9328 63.5694 34.4194 62.1495 35.9397 60.9401C38.5495 58.8642 39.0356 56.5862 39.5885 53.9467C39.5885 52.476 39.7745 51.3675 39.0337 49.8858C38.4904 48.7993 37.4192 47.4334 36.5479 46.6492C34.8177 45.0921 33.3165 43.3499 30.6822 43.3499" stroke="#8151FB" stroke-width="3" stroke-linecap="round"/>
<path d="M27.917 53.6563C27.917 51.6966 28.0254 49.7081 27.4142 47.8745" stroke="#8151FB" stroke-width="3" stroke-linecap="round"/>
<path d="M27.917 54.1591C28.9861 54.1591 29.8645 54.0547 30.8079 53.5306C31.4324 53.1837 33.4504 52.8961 33.6988 52.3994" stroke="#8151FB" stroke-width="3" stroke-linecap="round"/>
<path d="M1.6048 78.2798C4.07269 83.2156 8.08434 88.911 11.9839 92.8106C13.4983 94.3249 15.0794 95.8141 16.5507 97.3774C17.9704 98.8858 9.52831 97.4856 8.29356 97.3312C5.60041 96.9946 2.82579 96.547 7.4171 96.547C10.2036 96.547 12.8549 97.3774 15.7204 97.3774C19.9495 97.3774 18.2114 92.0659 18.2114 88.705C18.2114 86.3371 18.2114 83.9691 18.2114 81.6011" stroke="#201E29" stroke-width="3" stroke-linecap="round"/>
<path d="M251.475 82.086C251.055 78.0903 246.844 73.952 245.212 70.2656C244.092 67.7345 242.72 65.0874 241.353 62.6574C240.877 61.8116 239.964 59.1289 239.964 60.0992C239.964 61.6655 239.268 63.2638 238.993 64.7965C238.675 66.5704 238.773 68.383 238.773 70.1774C238.773 71.0497 238.426 71.7512 238.376 72.5591C238.36 72.8112 238.376 70.3087 238.376 69.7805C238.376 68.0417 238.392 66.3105 238.861 64.6201C239.077 63.8417 239.766 63.2261 239.942 62.4368C240.535 59.7657 249.111 67.7957 251.872 67.7957" stroke="#201E29" stroke-width="3" stroke-linecap="round"/>
<defs>
<filter id="filter0_f_5152_148" x="20.448" y="2" width="221.889" height="50.6401" filterUnits="userSpaceOnUse" color-interpolation-filters="sRGB">
<feFlood flood-opacity="0" result="BackgroundImageFix"/>
<feBlend mode="normal" in="SourceGraphic" in2="BackgroundImageFix" result="shape"/>
<feGaussianBlur stdDeviation="0.5" result="effect1_foregroundBlur_5152_148"/>
</filter>
</defs>
</svg>
