<svg width="321" height="800" viewBox="0 0 321 800" fill="none" xmlns="http://www.w3.org/2000/svg">
<rect x="160.609" y="720" width="80" height="80" transform="rotate(-180 160.609 720)" fill="#1173D9"/>
<rect x="240.609" y="640" width="80" height="80" transform="rotate(-180 240.609 640)" fill="#1173D9"/>
<rect x="80" y="799.5" width="80" height="80" transform="rotate(-180 80 799.5)" fill="#1173D9"/>
<rect x="320.609" y="560" width="80" height="80" transform="rotate(-180 320.609 560)" fill="#1173D9"/>
<rect x="320.609" y="240" width="80" height="80" transform="rotate(-180 320.609 240)" fill="#1173D9"/>
<rect x="80.6089" y="640" width="80" height="80" transform="rotate(-180 80.6089 640)" fill="#1173D9"/>
<rect x="80.6089" y="480" width="80" height="80" transform="rotate(-180 80.6089 480)" fill="#1173D9"/>
<rect x="160.609" y="400" width="80" height="80" transform="rotate(-180 160.609 400)" fill="#1173D9"/>
<rect x="240.609" y="320" width="80" height="80" transform="rotate(-180 240.609 320)" fill="#1173D9"/>
<rect x="160.609" y="240" width="80" height="80" transform="rotate(-180 160.609 240)" fill="#1173D9"/>
<rect x="240.609" y="160" width="80" height="80" transform="rotate(-180 240.609 160)" fill="#1173D9"/>
<rect x="160.609" y="80" width="80" height="80" transform="rotate(-180 160.609 80)" fill="#1173D9"/>
<rect x="80.6089" y="320" width="80" height="80" transform="rotate(-180 80.6089 320)" fill="#1173D9"/>
<rect x="80.6089" y="160" width="80" height="80" transform="rotate(-180 80.6089 160)" fill="#1173D9"/>
<rect x="160.609" y="560" width="80" height="80" transform="rotate(-180 160.609 560)" fill="#1173D9"/>
<rect x="240.609" y="480" width="80" height="80" transform="rotate(-180 240.609 480)" fill="#1173D9"/>
<path d="M40.6089 640C45.8618 640 51.0632 641.035 55.9162 643.045C60.7692 645.055 65.1788 648.001 68.8931 651.716C72.6075 655.43 75.5539 659.84 77.5641 664.693C79.5742 669.546 80.6089 674.747 80.6089 680C80.6089 685.253 79.5742 690.454 77.564 695.307C75.5539 700.16 72.6075 704.57 68.8931 708.284C65.1788 711.999 60.7692 714.945 55.9162 716.955C51.0632 718.965 45.8617 720 40.6089 720L40.6089 680L40.6089 640Z" fill="#8151FB"/>
<path d="M120.609 480C112.698 480 104.964 477.654 98.386 473.259C91.808 468.864 86.6811 462.616 83.6536 455.307C80.6261 447.998 79.834 439.956 81.3774 432.196C82.9208 424.437 86.7304 417.31 92.3245 411.716C97.9186 406.122 105.046 402.312 112.805 400.769C120.564 399.225 128.607 400.017 135.916 403.045C143.225 406.072 149.472 411.199 153.868 417.777C158.263 424.355 160.609 432.089 160.609 440L120.609 440L120.609 480Z" fill="#F8931F"/>
<path d="M120.609 639.307C115.356 639.307 110.154 638.273 105.301 636.262C100.448 634.252 96.0388 631.306 92.3245 627.591C88.6102 623.877 85.6638 619.468 83.6536 614.614C81.6434 609.761 80.6088 604.56 80.6088 599.307C80.6088 594.054 81.6434 588.853 83.6536 584C85.6638 579.147 88.6102 574.737 92.3245 571.023C96.0388 567.309 100.448 564.362 105.301 562.352C110.154 560.342 115.356 559.307 120.609 559.307L120.609 599.307L120.609 639.307Z" fill="#EF5A2B"/>
<path d="M81 120.253C81 115.099 82.0283 109.994 84.0262 105.232C86.024 100.469 88.9524 96.142 92.644 92.497C96.3356 88.8519 100.718 85.9606 105.541 83.9879C110.365 82.0152 115.534 80.9999 120.755 80.9999C125.976 80.9999 131.145 82.0152 135.969 83.9879C140.792 85.9606 145.174 88.852 148.866 92.497C152.558 96.142 155.486 100.469 157.484 105.232C159.482 109.994 160.51 115.099 160.51 120.253L120.755 120.253H81Z" fill="#EF5A2B"/>
<path d="M160.609 640.001C155.356 640.001 150.155 638.966 145.302 636.956C140.449 634.946 136.039 631.999 132.325 628.285C128.61 624.57 125.664 620.161 123.654 615.308C121.644 610.455 120.609 605.253 120.609 600C120.609 594.748 121.644 589.546 123.654 584.693C125.664 579.84 128.61 575.431 132.325 571.716C136.039 568.002 140.449 565.055 145.302 563.045C150.155 561.035 155.356 560 160.609 560L160.609 600L160.609 640.001Z" fill="#F15A2B"/>
<ellipse cx="40.6089" cy="522.031" rx="20" ry="20" transform="rotate(-180 40.6089 522.031)" fill="#8152FB"/>
</svg>
