<svg width="1728" height="1226" viewBox="0 0 1728 1226" fill="none" xmlns="http://www.w3.org/2000/svg">
<g clip-path="url(#clip0_2146_45)">
<rect y="961.676" width="1728" height="264.057" fill="#804438"/>
<rect x="1275" y="722.94" width="454" height="238.737" fill="#804438"/>
<rect y="903.077" width="1728" height="58.599" fill="#622D23"/>
<rect y="961.676" width="1728" height="34.7253" fill="#8A5349"/>
<rect x="1238.17" y="679.533" width="491.279" height="58.599" fill="#622D23"/>
<path d="M1253.26 738.132L1204.54 679.533H1301.99L1253.26 738.132Z" fill="#622D23"/>
<path d="M1246 745L1238.21 737.5H1253.79L1246 745Z" fill="#622D23"/>
<rect x="1238.17" y="721.493" width="491.279" height="16.6392" fill="#8A5349"/>
<path d="M1253.72 791.667L1238.67 781.358H1268.77L1253.72 791.667Z" fill="#622D23"/>
<rect x="1239.08" y="771.41" width="490.364" height="10.1282" fill="#8A5349"/>
<rect x="1253.72" y="781.539" width="491.279" height="10.1282" fill="#622D23"/>
<path d="M1253.72 819.158L1238.67 808.849H1268.77L1253.72 819.158Z" fill="#622D23"/>
<rect x="1239.08" y="798.901" width="490.364" height="10.1282" fill="#8A5349"/>
<rect x="1253.72" y="809.03" width="491.279" height="10.1282" fill="#622D23"/>
<g filter="url(#filter0_d_2146_45)">
<rect y="1011.59" width="1728" height="16.6392" fill="#622D23"/>
</g>
<rect x="85" y="1077.3" width="366" height="148.645" fill="#65615E"/>
<g filter="url(#filter1_d_2146_45)">
<rect x="39" y="1043.94" width="23" height="182" fill="#622D23"/>
</g>
<g filter="url(#filter2_d_2146_45)">
<rect x="474" y="1043.94" width="23" height="182" fill="#622D23"/>
</g>
<g filter="url(#filter3_d_2146_45)">
<rect x="62" y="1043.94" width="412" height="16.6773" fill="#622D23"/>
</g>
<rect x="85" y="1077.3" width="6" height="148.645" fill="#EBEBEB"/>
<rect x="445" y="1077.3" width="6" height="148.645" fill="#EBEBEB"/>
<rect x="268" y="1077.3" width="6" height="148.645" fill="#EBEBEB"/>
<rect x="91" y="1081.65" width="4.3506" height="354" transform="rotate(-90 91 1081.65)" fill="#EBEBEB"/>
<rect x="681" y="1077.3" width="366" height="148.645" fill="#65615E"/>
<g filter="url(#filter4_d_2146_45)">
<rect x="635" y="1043.94" width="23" height="182" fill="#622D23"/>
</g>
<g filter="url(#filter5_d_2146_45)">
<rect x="1070" y="1043.94" width="23" height="182" fill="#622D23"/>
</g>
<g filter="url(#filter6_d_2146_45)">
<rect x="658" y="1043.94" width="412" height="16.6773" fill="#622D23"/>
</g>
<rect x="681" y="1077.3" width="6" height="148.645" fill="#EBEBEB"/>
<rect x="1041" y="1077.3" width="6" height="148.645" fill="#EBEBEB"/>
<rect x="864" y="1077.3" width="6" height="148.645" fill="#EBEBEB"/>
<rect x="687" y="1081.65" width="4.3506" height="354" transform="rotate(-90 687 1081.65)" fill="#EBEBEB"/>
<rect x="1277" y="1077.3" width="366" height="148.645" fill="#65615E"/>
<g filter="url(#filter7_d_2146_45)">
<rect x="1231" y="1043.94" width="23" height="182" fill="#622D23"/>
</g>
<g filter="url(#filter8_d_2146_45)">
<rect x="1666" y="1043.94" width="23" height="182" fill="#622D23"/>
</g>
<g filter="url(#filter9_d_2146_45)">
<rect x="1254" y="1043.94" width="412" height="16.6773" fill="#622D23"/>
</g>
<rect x="1277" y="1077.3" width="6" height="148.645" fill="#EBEBEB"/>
<rect x="1637" y="1077.3" width="6" height="148.645" fill="#EBEBEB"/>
<rect x="1460" y="1077.3" width="6" height="148.645" fill="#EBEBEB"/>
<rect x="1283" y="1081.65" width="4.3506" height="354" transform="rotate(-90 1283 1081.65)" fill="#EBEBEB"/>
<rect x="1246" y="738" width="483" height="7" fill="#622D23"/>
<rect x="82" y="54.2666" width="1045" height="607" rx="5" fill="#F7F7F7"/>
<rect x="82" y="606.267" width="1045" height="55" fill="#34302D"/>
<rect x="112" y="660.267" width="985" height="21" fill="black"/>
<rect x="188.667" y="676.995" width="10" height="227.272" fill="#252422"/>
<rect x="151" y="860.228" width="40" height="7.86408" fill="#252422"/>
<rect x="152" y="824.053" width="40" height="7.86408" fill="#252422"/>
<rect x="151" y="787.878" width="40" height="7.86408" fill="#252422"/>
<rect x="151" y="751.704" width="40" height="7.86408" fill="#252422"/>
<rect x="151" y="715.529" width="40" height="7.86408" fill="#252422"/>
<rect x="151" y="679.354" width="40" height="7.86408" fill="#252422"/>
<rect x="112" y="676.995" width="40" height="227.272" fill="black"/>
<rect x="488" y="676.995" width="10" height="227.272" fill="#252422"/>
<rect x="450.333" y="860.228" width="40" height="7.86408" fill="#252422"/>
<rect x="451.333" y="824.053" width="40" height="7.86408" fill="#252422"/>
<rect x="450.333" y="787.878" width="40" height="7.86408" fill="#252422"/>
<rect x="450.333" y="751.704" width="40" height="7.86408" fill="#252422"/>
<rect x="450.333" y="715.529" width="40" height="7.86408" fill="#252422"/>
<rect x="450.333" y="679.354" width="40" height="7.86408" fill="#252422"/>
<rect x="411.333" y="676.995" width="40" height="227.272" fill="black"/>
<rect x="787.334" y="676.995" width="10" height="227.272" fill="#252422"/>
<rect x="749.667" y="860.228" width="40" height="7.86408" fill="#252422"/>
<rect x="750.667" y="824.053" width="40" height="7.86408" fill="#252422"/>
<rect x="749.667" y="787.878" width="40" height="7.86408" fill="#252422"/>
<rect x="749.667" y="751.704" width="40" height="7.86408" fill="#252422"/>
<rect x="749.667" y="715.529" width="40" height="7.86408" fill="#252422"/>
<rect x="749.667" y="679.354" width="40" height="7.86408" fill="#252422"/>
<rect x="710.667" y="676.995" width="40" height="227.272" fill="black"/>
<rect x="1086.67" y="676.995" width="10" height="227.272" fill="#252422"/>
<rect x="1049" y="860.228" width="40" height="7.86408" fill="#252422"/>
<rect x="1050" y="824.053" width="40" height="7.86408" fill="#252422"/>
<rect x="1049" y="787.878" width="40" height="7.86408" fill="#252422"/>
<rect x="1049" y="751.704" width="40" height="7.86408" fill="#252422"/>
<rect x="1049" y="715.529" width="40" height="7.86408" fill="#252422"/>
<rect x="1049" y="679.354" width="40" height="7.86408" fill="#252422"/>
<rect x="1010" y="676.995" width="40" height="227.272" fill="black"/>
<path d="M112.5 681.267L81.7561 660.267H143.244L112.5 681.267Z" fill="black"/>
<path d="M1096.5 681.267L1065.76 660.267H1127.24L1096.5 681.267Z" fill="black"/>
<rect x="82" y="653.267" width="1045" height="7" fill="#D9D9D9"/>
</g>
<defs>
<filter id="filter0_d_2146_45" x="-4" y="1011.59" width="1736" height="24.6392" filterUnits="userSpaceOnUse" color-interpolation-filters="sRGB">
<feFlood flood-opacity="0" result="BackgroundImageFix"/>
<feColorMatrix in="SourceAlpha" type="matrix" values="0 0 0 0 0 0 0 0 0 0 0 0 0 0 0 0 0 0 127 0" result="hardAlpha"/>
<feOffset dy="4"/>
<feGaussianBlur stdDeviation="2"/>
<feComposite in2="hardAlpha" operator="out"/>
<feColorMatrix type="matrix" values="0 0 0 0 0 0 0 0 0 0 0 0 0 0 0 0 0 0 0.25 0"/>
<feBlend mode="normal" in2="BackgroundImageFix" result="effect1_dropShadow_2146_45"/>
<feBlend mode="normal" in="SourceGraphic" in2="effect1_dropShadow_2146_45" result="shape"/>
</filter>
<filter id="filter1_d_2146_45" x="39" y="1039.94" width="37" height="190" filterUnits="userSpaceOnUse" color-interpolation-filters="sRGB">
<feFlood flood-opacity="0" result="BackgroundImageFix"/>
<feColorMatrix in="SourceAlpha" type="matrix" values="0 0 0 0 0 0 0 0 0 0 0 0 0 0 0 0 0 0 127 0" result="hardAlpha"/>
<feOffset dx="10"/>
<feGaussianBlur stdDeviation="2"/>
<feComposite in2="hardAlpha" operator="out"/>
<feColorMatrix type="matrix" values="0 0 0 0 0 0 0 0 0 0 0 0 0 0 0 0 0 0 0.25 0"/>
<feBlend mode="normal" in2="BackgroundImageFix" result="effect1_dropShadow_2146_45"/>
<feBlend mode="normal" in="SourceGraphic" in2="effect1_dropShadow_2146_45" result="shape"/>
</filter>
<filter id="filter2_d_2146_45" x="460" y="1033.94" width="43" height="202" filterUnits="userSpaceOnUse" color-interpolation-filters="sRGB">
<feFlood flood-opacity="0" result="BackgroundImageFix"/>
<feColorMatrix in="SourceAlpha" type="matrix" values="0 0 0 0 0 0 0 0 0 0 0 0 0 0 0 0 0 0 127 0" result="hardAlpha"/>
<feOffset dx="-4"/>
<feGaussianBlur stdDeviation="5"/>
<feComposite in2="hardAlpha" operator="out"/>
<feColorMatrix type="matrix" values="0 0 0 0 0 0 0 0 0 0 0 0 0 0 0 0 0 0 0.25 0"/>
<feBlend mode="normal" in2="BackgroundImageFix" result="effect1_dropShadow_2146_45"/>
<feBlend mode="normal" in="SourceGraphic" in2="effect1_dropShadow_2146_45" result="shape"/>
</filter>
<filter id="filter3_d_2146_45" x="58" y="1043.94" width="420" height="30.6772" filterUnits="userSpaceOnUse" color-interpolation-filters="sRGB">
<feFlood flood-opacity="0" result="BackgroundImageFix"/>
<feColorMatrix in="SourceAlpha" type="matrix" values="0 0 0 0 0 0 0 0 0 0 0 0 0 0 0 0 0 0 127 0" result="hardAlpha"/>
<feOffset dy="10"/>
<feGaussianBlur stdDeviation="2"/>
<feComposite in2="hardAlpha" operator="out"/>
<feColorMatrix type="matrix" values="0 0 0 0 0 0 0 0 0 0 0 0 0 0 0 0 0 0 0.25 0"/>
<feBlend mode="normal" in2="BackgroundImageFix" result="effect1_dropShadow_2146_45"/>
<feBlend mode="normal" in="SourceGraphic" in2="effect1_dropShadow_2146_45" result="shape"/>
</filter>
<filter id="filter4_d_2146_45" x="635" y="1039.94" width="37" height="190" filterUnits="userSpaceOnUse" color-interpolation-filters="sRGB">
<feFlood flood-opacity="0" result="BackgroundImageFix"/>
<feColorMatrix in="SourceAlpha" type="matrix" values="0 0 0 0 0 0 0 0 0 0 0 0 0 0 0 0 0 0 127 0" result="hardAlpha"/>
<feOffset dx="10"/>
<feGaussianBlur stdDeviation="2"/>
<feComposite in2="hardAlpha" operator="out"/>
<feColorMatrix type="matrix" values="0 0 0 0 0 0 0 0 0 0 0 0 0 0 0 0 0 0 0.25 0"/>
<feBlend mode="normal" in2="BackgroundImageFix" result="effect1_dropShadow_2146_45"/>
<feBlend mode="normal" in="SourceGraphic" in2="effect1_dropShadow_2146_45" result="shape"/>
</filter>
<filter id="filter5_d_2146_45" x="1056" y="1033.94" width="43" height="202" filterUnits="userSpaceOnUse" color-interpolation-filters="sRGB">
<feFlood flood-opacity="0" result="BackgroundImageFix"/>
<feColorMatrix in="SourceAlpha" type="matrix" values="0 0 0 0 0 0 0 0 0 0 0 0 0 0 0 0 0 0 127 0" result="hardAlpha"/>
<feOffset dx="-4"/>
<feGaussianBlur stdDeviation="5"/>
<feComposite in2="hardAlpha" operator="out"/>
<feColorMatrix type="matrix" values="0 0 0 0 0 0 0 0 0 0 0 0 0 0 0 0 0 0 0.25 0"/>
<feBlend mode="normal" in2="BackgroundImageFix" result="effect1_dropShadow_2146_45"/>
<feBlend mode="normal" in="SourceGraphic" in2="effect1_dropShadow_2146_45" result="shape"/>
</filter>
<filter id="filter6_d_2146_45" x="654" y="1043.94" width="420" height="30.6772" filterUnits="userSpaceOnUse" color-interpolation-filters="sRGB">
<feFlood flood-opacity="0" result="BackgroundImageFix"/>
<feColorMatrix in="SourceAlpha" type="matrix" values="0 0 0 0 0 0 0 0 0 0 0 0 0 0 0 0 0 0 127 0" result="hardAlpha"/>
<feOffset dy="10"/>
<feGaussianBlur stdDeviation="2"/>
<feComposite in2="hardAlpha" operator="out"/>
<feColorMatrix type="matrix" values="0 0 0 0 0 0 0 0 0 0 0 0 0 0 0 0 0 0 0.25 0"/>
<feBlend mode="normal" in2="BackgroundImageFix" result="effect1_dropShadow_2146_45"/>
<feBlend mode="normal" in="SourceGraphic" in2="effect1_dropShadow_2146_45" result="shape"/>
</filter>
<filter id="filter7_d_2146_45" x="1231" y="1039.94" width="37" height="190" filterUnits="userSpaceOnUse" color-interpolation-filters="sRGB">
<feFlood flood-opacity="0" result="BackgroundImageFix"/>
<feColorMatrix in="SourceAlpha" type="matrix" values="0 0 0 0 0 0 0 0 0 0 0 0 0 0 0 0 0 0 127 0" result="hardAlpha"/>
<feOffset dx="10"/>
<feGaussianBlur stdDeviation="2"/>
<feComposite in2="hardAlpha" operator="out"/>
<feColorMatrix type="matrix" values="0 0 0 0 0 0 0 0 0 0 0 0 0 0 0 0 0 0 0.25 0"/>
<feBlend mode="normal" in2="BackgroundImageFix" result="effect1_dropShadow_2146_45"/>
<feBlend mode="normal" in="SourceGraphic" in2="effect1_dropShadow_2146_45" result="shape"/>
</filter>
<filter id="filter8_d_2146_45" x="1652" y="1033.94" width="43" height="202" filterUnits="userSpaceOnUse" color-interpolation-filters="sRGB">
<feFlood flood-opacity="0" result="BackgroundImageFix"/>
<feColorMatrix in="SourceAlpha" type="matrix" values="0 0 0 0 0 0 0 0 0 0 0 0 0 0 0 0 0 0 127 0" result="hardAlpha"/>
<feOffset dx="-4"/>
<feGaussianBlur stdDeviation="5"/>
<feComposite in2="hardAlpha" operator="out"/>
<feColorMatrix type="matrix" values="0 0 0 0 0 0 0 0 0 0 0 0 0 0 0 0 0 0 0.25 0"/>
<feBlend mode="normal" in2="BackgroundImageFix" result="effect1_dropShadow_2146_45"/>
<feBlend mode="normal" in="SourceGraphic" in2="effect1_dropShadow_2146_45" result="shape"/>
</filter>
<filter id="filter9_d_2146_45" x="1250" y="1043.94" width="420" height="30.6772" filterUnits="userSpaceOnUse" color-interpolation-filters="sRGB">
<feFlood flood-opacity="0" result="BackgroundImageFix"/>
<feColorMatrix in="SourceAlpha" type="matrix" values="0 0 0 0 0 0 0 0 0 0 0 0 0 0 0 0 0 0 127 0" result="hardAlpha"/>
<feOffset dy="10"/>
<feGaussianBlur stdDeviation="2"/>
<feComposite in2="hardAlpha" operator="out"/>
<feColorMatrix type="matrix" values="0 0 0 0 0 0 0 0 0 0 0 0 0 0 0 0 0 0 0.25 0"/>
<feBlend mode="normal" in2="BackgroundImageFix" result="effect1_dropShadow_2146_45"/>
<feBlend mode="normal" in="SourceGraphic" in2="effect1_dropShadow_2146_45" result="shape"/>
</filter>
<clipPath id="clip0_2146_45">
<rect width="1728" height="1226" fill="white"/>
</clipPath>
</defs>
</svg>
