<svg width="330" height="68" viewBox="0 0 330 68" fill="none" xmlns="http://www.w3.org/2000/svg">
<path d="M139.45 36.9264V51.2544C139.45 54.2064 138.442 55.0344 138.442 55.8624C138.442 55.8624 138.442 56.6904 139.45 56.6904H144.238C144.238 56.6904 145.246 56.6904 145.246 55.8624C145.246 55.0344 144.238 54.2064 144.238 51.2544V45.0264C147.838 45.1704 147.694 47.4024 148.738 47.4024C148.738 47.4024 149.314 47.4024 149.314 46.6824V42.1824C149.314 42.1824 149.314 41.4624 148.738 41.4624C147.694 41.4624 147.838 43.6944 144.238 43.8384V36.9264C144.238 34.4064 144.49 32.6784 145.174 32.6784H148.234C151.654 32.6784 151.438 34.6224 152.158 35.0544C152.446 35.2344 152.266 35.1264 152.626 35.1264C152.914 35.1264 153.166 34.9824 153.382 34.6224L154.75 32.3904C154.966 32.0304 155.182 31.4904 154.318 31.4904H139.45C139.45 31.4904 138.442 31.4904 138.442 32.3184C138.442 33.1464 139.45 33.9744 139.45 36.9264ZM150.255 55.8624C150.255 56.4024 150.579 56.6904 151.263 56.6904H154.863C154.863 56.6904 155.871 56.6904 155.871 55.8624C155.871 55.0344 153.855 53.9544 154.719 51.2544L155.871 47.9784C156.015 47.5464 156.267 47.1144 156.735 47.1144H162.531C163.251 47.1144 163.467 47.5104 163.611 48.0144L164.619 51.2544C165.519 54.0984 164.691 55.0344 164.691 55.8624C164.691 56.4024 165.015 56.6904 165.699 56.6904H170.487C170.487 56.6904 171.495 56.6904 171.495 55.8624C171.495 55.0344 170.307 54.0624 169.407 51.2544L163.539 33.3264C163.179 32.2104 162.999 31.4904 162.387 31.4904H159.111C158.535 31.4904 158.067 31.7784 158.067 32.3184C158.067 33.2904 158.859 33.5784 159.183 34.6224L159.327 35.0904L153.423 51.2544C152.415 54.0624 150.255 55.0344 150.255 55.8624ZM156.807 45.3864L159.939 36.9264L162.639 45.2064C162.711 45.4224 162.783 45.9264 162.279 45.9264H157.059C156.771 45.9264 156.699 45.6744 156.807 45.3864ZM181.461 57.0504H182.037L183.369 60.5064C184.953 64.1424 186.573 65.6904 188.769 65.6904C188.877 65.6904 189.021 65.6904 189.129 65.6904C190.677 65.6904 191.829 64.0704 191.325 62.5224C190.677 60.5064 188.157 60.8664 186.249 59.5344C185.061 58.7064 184.089 57.6264 183.513 56.8344C188.517 55.7544 191.433 50.6064 191.433 44.0184C191.433 36.6024 187.725 31.1304 181.461 31.1304C175.197 31.1304 171.489 36.6024 171.489 44.0184C171.489 51.4344 175.197 57.0504 181.461 57.0504ZM181.461 32.3184C183.693 32.3184 186.141 36.6024 186.141 44.0184C186.141 51.4344 183.693 55.8624 181.461 55.8624C179.229 55.8624 176.781 51.4344 176.781 44.0184C176.781 36.6024 179.229 32.3184 181.461 32.3184Z" fill="#E1DBD2"/>
<g filter="url(#filter0_f_5202_64)">
<line x1="1.84375" y1="46.5342" x2="116.594" y2="46.5342" stroke="#E1DBD2" stroke-width="1.6875" stroke-linecap="round"/>
</g>
<g filter="url(#filter1_f_5202_64)">
<line x1="213.281" y1="46.5342" x2="328.031" y2="46.5342" stroke="#E1DBD2" stroke-width="1.6875" stroke-linecap="round"/>
</g>
<g filter="url(#filter2_f_5202_64)">
<path d="M205.669 6.86187C205.767 6.341 206.664 6.426 207.046 6.44939C208.618 6.5455 209.091 6.87053 210.194 8.0079C211.933 9.80298 211.832 12.7292 209.802 14.1931C208.05 15.4559 204.693 14.4496 202.725 14.3812C200.37 14.2992 201.533 17.6976 200.458 18.9615" stroke="#E1DBD2" stroke-width="1.86047" stroke-linecap="round"/>
<path d="M198.716 23.0768C199.093 23.0529 198.839 22.6734 199.092 22.7962C199.64 23.0618 199.852 22.8754 199.999 22.4101" stroke="#E1DBD2" stroke-width="1.86047" stroke-linecap="round"/>
<path d="M187.671 8.74143C187.775 8.41374 189.039 7.84328 189.363 7.71342C190.707 7.17424 192.979 8.10276 194.164 8.62799C195.6 9.26484 195.194 11.6554 194.498 12.8569C193.801 14.0617 191.672 13.9218 190.809 15.1977C189.888 16.5596 190.091 17.9105 190.005 19.3156" stroke="#E1DBD2" stroke-width="1.86047" stroke-linecap="round"/>
<path d="M190.828 22.0981C190.807 22.4466 190.847 22.4934 190.566 22.3304" stroke="#E1DBD2" stroke-width="1.86047" stroke-linecap="round"/>
<path d="M216.37 18.6928C217.787 18.7795 219.002 19.3418 218.959 21.0313C218.917 22.7065 218.666 24.0881 216.99 24.8019C215.092 25.6099 212.422 23.569 210.677 24.6917C210.096 25.0656 209.5 25.7137 209.441 26.4099C209.402 26.8599 209.543 27.5042 209.114 27.6869" stroke="#E1DBD2" stroke-width="1.86047" stroke-linecap="round"/>
<path d="M207.201 30.5508C207.158 30.777 207.11 30.7097 206.938 30.7831" stroke="#E1DBD2" stroke-width="1.86047" stroke-linecap="round"/>
</g>
<g filter="url(#filter3_f_5202_64)">
<path d="M205.669 6.86187C205.767 6.341 206.664 6.426 207.046 6.44939C208.618 6.5455 209.091 6.87053 210.194 8.0079C211.933 9.80298 211.832 12.7292 209.802 14.1931C208.05 15.4559 204.693 14.4496 202.725 14.3812C200.37 14.2992 201.533 17.6976 200.458 18.9615" stroke="#E1DBD2" stroke-width="1.86047" stroke-linecap="round"/>
<path d="M198.716 23.0768C199.093 23.0529 198.839 22.6734 199.092 22.7962C199.64 23.0618 199.852 22.8754 199.999 22.4101" stroke="#E1DBD2" stroke-width="1.86047" stroke-linecap="round"/>
<path d="M187.671 8.74143C187.775 8.41374 189.039 7.84328 189.363 7.71342C190.707 7.17424 192.979 8.10276 194.164 8.62799C195.6 9.26484 195.194 11.6554 194.498 12.8569C193.801 14.0617 191.672 13.9218 190.809 15.1977C189.888 16.5596 190.091 17.9105 190.005 19.3156" stroke="#E1DBD2" stroke-width="1.86047" stroke-linecap="round"/>
<path d="M190.828 22.0981C190.807 22.4466 190.847 22.4934 190.566 22.3304" stroke="#E1DBD2" stroke-width="1.86047" stroke-linecap="round"/>
<path d="M216.37 18.6928C217.787 18.7795 219.002 19.3418 218.959 21.0313C218.917 22.7065 218.666 24.0881 216.99 24.8019C215.092 25.6099 212.422 23.569 210.677 24.6917C210.096 25.0656 209.5 25.7137 209.441 26.4099C209.402 26.8599 209.543 27.5042 209.114 27.6869" stroke="#E1DBD2" stroke-width="1.86047" stroke-linecap="round"/>
<path d="M207.201 30.5508C207.158 30.777 207.11 30.7097 206.938 30.7831" stroke="#E1DBD2" stroke-width="1.86047" stroke-linecap="round"/>
</g>
<defs>
<filter id="filter0_f_5202_64" x="0.4375" y="45.1279" width="117.562" height="2.8125" filterUnits="userSpaceOnUse" color-interpolation-filters="sRGB">
<feFlood flood-opacity="0" result="BackgroundImageFix"/>
<feBlend mode="normal" in="SourceGraphic" in2="BackgroundImageFix" result="shape"/>
<feGaussianBlur stdDeviation="0.28125" result="effect1_foregroundBlur_5202_64"/>
</filter>
<filter id="filter1_f_5202_64" x="211.875" y="45.1279" width="117.562" height="2.8125" filterUnits="userSpaceOnUse" color-interpolation-filters="sRGB">
<feFlood flood-opacity="0" result="BackgroundImageFix"/>
<feBlend mode="normal" in="SourceGraphic" in2="BackgroundImageFix" result="shape"/>
<feGaussianBlur stdDeviation="0.28125" result="effect1_foregroundBlur_5202_64"/>
</filter>
<filter id="filter2_f_5202_64" x="184.491" y="3.24951" width="37.6494" height="30.7139" filterUnits="userSpaceOnUse" color-interpolation-filters="sRGB">
<feFlood flood-opacity="0" result="BackgroundImageFix"/>
<feBlend mode="normal" in="SourceGraphic" in2="BackgroundImageFix" result="shape"/>
<feGaussianBlur stdDeviation="1.125" result="effect1_foregroundBlur_5202_64"/>
</filter>
<filter id="filter3_f_5202_64" x="186.178" y="4.93701" width="34.2744" height="27.3389" filterUnits="userSpaceOnUse" color-interpolation-filters="sRGB">
<feFlood flood-opacity="0" result="BackgroundImageFix"/>
<feBlend mode="normal" in="SourceGraphic" in2="BackgroundImageFix" result="shape"/>
<feGaussianBlur stdDeviation="0.28125" result="effect1_foregroundBlur_5202_64"/>
</filter>
</defs>
</svg>
