<svg width="270" height="60" viewBox="0 0 270 60" fill="none" xmlns="http://www.w3.org/2000/svg">
<g filter="url(#filter0_f_5153_68)">
<path d="M1.80812 37.1915C1.86199 40.1546 4.87897 43.9797 11.4517 43.9797C23.6273 43.9797 23.1963 33.7974 23.1963 27.7634V13.8638C23.1963 9.44608 24.7048 8.20697 24.7048 6.96786C24.7048 6.96786 24.7048 5.72874 23.1963 5.72874H16.031C16.031 5.72874 14.5225 5.72874 14.5225 6.96786C14.5225 8.20697 16.031 9.44608 16.031 13.8638V27.7634C16.031 32.3966 15.7616 42.2018 11.4517 42.2018C7.51882 42.2018 8.97343 34.6594 5.09446 34.2822C4.98672 34.2822 4.87897 34.2822 4.77122 34.2822C2.88561 34.2822 1.80812 35.8985 1.80812 37.1915ZM27.8337 13.8638V33.6896C27.8337 40.5317 33.7061 43.9797 39.5784 43.9797C45.3968 43.9797 51.2692 40.5317 51.2692 33.6896V13.3251C51.4846 7.9376 54.8249 8.1531 54.8249 6.59074C54.8249 6.59074 54.8249 5.72874 53.7474 5.72874H47.0131C47.0131 5.72874 45.9356 5.72874 45.9356 6.59074C45.9356 8.1531 49.2758 7.9376 49.4913 13.3251V33.6896C49.4913 38.8616 45.8817 41.5014 42.2721 41.5014C38.6086 41.5014 34.999 38.8616 34.999 33.6896V13.8638C34.999 9.44608 36.5075 8.20697 36.5075 6.96786C36.5075 6.96786 36.5075 5.72874 34.999 5.72874H27.8337C27.8337 5.72874 26.3252 5.72874 26.3252 6.96786C26.3252 8.20697 27.8337 9.44608 27.8337 13.8638ZM59.9211 13.3251V35.8446C59.7056 41.2321 56.3653 41.0166 56.3653 42.5789C56.3653 43.1715 56.7425 43.4409 57.4428 43.4409H64.1772C64.1772 43.4409 65.2546 43.4409 65.2546 42.5789C65.2546 41.0166 61.9144 41.2321 61.6989 35.8446V13.6483C65.955 13.6483 68.3255 36.114 69.1875 40.6394C69.5646 42.5789 69.9956 43.4409 70.9115 43.4409H76.9454C77.6997 43.4409 78.3462 43.0638 78.5078 42.3096L83.6259 10.8468C83.7875 11.6549 83.8952 12.6247 83.8952 13.8638V35.3059C83.8952 39.7236 82.3867 40.9627 82.3867 42.2018C82.3867 43.0099 82.8716 43.4409 83.8952 43.4409H91.0605C91.0605 43.4409 92.569 43.4409 92.569 42.2018C92.569 40.9627 91.0605 39.7236 91.0605 35.3059V13.8638C91.0605 9.44608 92.569 8.20697 92.569 6.96786C92.569 6.15974 92.0842 5.72874 91.0605 5.72874H83.8952C83.8952 5.72874 82.3867 5.72874 82.3867 6.96786L77.107 39.7774C76.1373 37.407 73.7668 5.72874 61.6989 5.72874H57.4428C57.4428 5.72874 56.3653 5.72874 56.3653 6.59074C56.3653 8.1531 59.7056 7.9376 59.9211 13.3251ZM94.1945 6.96786C94.1945 8.20697 95.703 9.44608 95.703 13.8638V35.3059C95.703 39.7236 94.1945 40.9627 94.1945 42.2018C94.1945 42.2018 94.1945 43.4409 95.703 43.4409H102.868C103.892 43.4409 104.377 43.0099 104.377 42.2018C104.377 40.9627 102.868 39.7236 102.868 35.3059V29.8107C104.592 31.3191 106.64 32.1811 108.902 32.1811C114.828 32.1811 119.569 26.0933 119.569 18.7125C119.569 11.2778 114.828 5.19 108.902 5.19C107.232 5.19 105.67 5.67487 104.323 6.53686C105.185 5.99811 104.862 6.05199 104.538 6.05199C104 6.05199 103.623 5.72874 102.868 5.72874H95.703C94.6794 5.72874 94.1945 6.15974 94.1945 6.96786ZM102.868 13.8638C102.868 11.0623 103.192 8.20697 106.747 8.20697C110.572 8.20697 111.65 13.9177 111.65 18.7125C111.65 23.4535 110.572 29.1642 106.747 29.1642C105.293 29.1642 103.946 28.356 102.868 27.0631V13.8638ZM131.744 43.9797C138.424 43.9797 144.404 40.5317 144.404 34.9826C144.404 24.1538 128.619 22.1066 128.619 12.5169C128.619 10.6313 129.158 6.96786 133.845 6.96786C138.263 6.96786 137.131 13.9177 141.064 13.9177C143.165 13.9177 144.35 12.3553 144.35 11.0084C144.35 7.39885 140.579 5.19 133.791 5.19C127.111 5.19 121.292 8.96121 121.292 14.5103C121.292 25.3391 136.916 27.1169 136.916 36.7066C136.916 38.5922 136.377 42.2018 131.69 42.2018C127.811 42.2018 128.404 35.252 124.471 35.252C122.37 35.252 121.184 36.8144 121.184 38.1612C121.184 41.7708 125.494 43.9797 131.744 43.9797ZM146.233 7.07561L148.28 13.9177C148.657 14.5103 149.034 14.7797 149.465 14.7797C149.681 14.7797 149.896 14.7258 150.112 14.5642C151.135 13.8099 150.866 7.5066 155.984 7.5066H157.923C159.54 7.5066 159.324 10.0926 159.324 13.8638V35.3059C159.324 39.7236 157.816 40.9627 157.816 42.2018C157.816 42.2018 157.816 43.4409 159.324 43.4409H166.49C167.513 43.4409 167.998 43.0099 167.998 42.2018C167.998 40.9627 166.49 39.7236 166.49 35.3059V13.8638C166.49 10.0926 166.274 7.5066 167.89 7.5066H169.776C174.894 7.5066 174.571 13.9177 175.648 14.5642C176.079 14.8335 175.81 14.6719 176.349 14.6719C176.78 14.6719 177.157 14.4564 177.48 13.9177L179.527 7.07561C179.689 6.53686 180.174 5.72874 178.881 5.72874H146.879C145.586 5.72874 146.071 6.53686 146.233 7.07561ZM173.849 42.2018C173.849 43.0099 174.334 43.4409 175.357 43.4409H180.745C180.745 43.4409 182.253 43.4409 182.253 42.2018C182.253 40.9627 179.236 39.3465 180.529 35.3059L182.253 30.4033C182.469 29.7568 182.846 29.1103 183.546 29.1103H192.22C193.298 29.1103 193.621 29.7029 193.836 30.4572L195.345 35.3059C196.692 39.562 195.453 40.9627 195.453 42.2018C195.453 43.0099 195.937 43.4409 196.961 43.4409H204.126C204.126 43.4409 205.635 43.4409 205.635 42.2018C205.635 40.9627 203.857 39.5081 202.51 35.3059L193.729 8.47634C193.19 6.80623 192.92 5.72874 192.005 5.72874H187.102C186.24 5.72874 185.54 6.15974 185.54 6.96786C185.54 8.42247 186.725 8.85347 187.21 10.4158L187.425 11.1162L178.59 35.3059C177.081 39.5081 173.849 40.9627 173.849 42.2018ZM183.654 26.5243L188.341 13.8638L192.382 26.2549C192.489 26.5782 192.597 27.3324 191.843 27.3324H184.031C183.6 27.3324 183.492 26.9553 183.654 26.5243ZM207.257 42.2018C207.257 42.2018 207.257 43.4409 208.766 43.4409H215.931C216.955 43.4409 217.44 43.0099 217.44 42.2018C217.44 40.9627 215.931 39.7236 215.931 35.3059V27.4402C217.009 28.2483 218.194 28.8409 219.433 29.1642C221.804 31.7501 222.881 37.2453 223.528 40.6394C223.905 42.5789 224.336 43.4409 225.251 43.4409H232.04C232.902 43.4409 233.656 43.1715 233.656 42.2018C233.656 40.7472 232.201 40.5317 231.555 38.9155C230.908 37.2992 229.4 32.1811 225.144 29.0025C229.508 27.5479 232.632 23.1302 232.632 17.0963C232.632 9.66158 227.891 5.19 221.965 5.19C220.241 5.19 218.679 5.56712 217.224 6.26749C218.086 5.83649 217.709 5.94424 217.332 5.94424C216.793 5.94424 216.47 5.72874 215.931 5.72874H208.766C207.742 5.72874 207.257 6.15974 207.257 6.96786C207.257 8.20697 208.766 9.44608 208.766 13.8638V35.3059C208.766 39.7236 207.257 40.9627 207.257 42.2018ZM215.931 13.8638C215.931 10.7391 216.039 8.20697 219.81 8.20697C223.635 8.20697 224.713 12.3014 224.713 17.0963C224.713 21.8372 223.635 26.4704 219.81 26.4704C218.356 26.4704 217.009 25.7701 215.931 24.6926V13.8638ZM234.41 7.07561L236.457 13.9177C236.835 14.5103 237.212 14.7797 237.643 14.7797C237.858 14.7797 238.074 14.7258 238.289 14.5642C239.313 13.8099 239.043 7.5066 244.161 7.5066H246.101C247.717 7.5066 247.502 10.0926 247.502 13.8638V35.3059C247.502 39.7236 245.993 40.9627 245.993 42.2018C245.993 42.2018 245.993 43.4409 247.502 43.4409H254.667C255.691 43.4409 256.175 43.0099 256.175 42.2018C256.175 40.9627 254.667 39.7236 254.667 35.3059V13.8638C254.667 10.0926 254.451 7.5066 256.068 7.5066H257.953C263.071 7.5066 262.748 13.9177 263.826 14.5642C264.257 14.8335 263.987 14.6719 264.526 14.6719C264.957 14.6719 265.334 14.4564 265.657 13.9177L267.705 7.07561C267.866 6.53686 268.351 5.72874 267.058 5.72874H235.057C233.764 5.72874 234.249 6.53686 234.41 7.07561Z" fill="#E1DBD2"/>
</g>
<path fill-rule="evenodd" clip-rule="evenodd" d="M5.35947 53.4332C10.3204 51.5223 14.6796 51.5223 19.6406 53.4332C25.0642 55.5223 29.9358 55.5223 35.3595 53.4332C40.3204 51.5223 44.6796 51.5223 49.6406 53.4332C55.0642 55.5223 59.9358 55.5223 65.3595 53.4332C70.3204 51.5223 74.6796 51.5223 79.6406 53.4332C85.0642 55.5223 89.9358 55.5223 95.3595 53.4332C100.32 51.5223 104.68 51.5223 109.641 53.4332C115.064 55.5223 119.936 55.5223 125.359 53.4332C130.32 51.5223 134.68 51.5223 139.641 53.4332C145.064 55.5223 149.936 55.5223 155.359 53.4332C160.32 51.5223 164.68 51.5223 169.641 53.4332C175.064 55.5223 179.936 55.5223 185.359 53.4332C190.32 51.5223 194.68 51.5223 199.641 53.4332C205.064 55.5223 209.936 55.5223 215.359 53.4332C220.32 51.5223 224.68 51.5223 229.641 53.4332C235.064 55.5223 239.936 55.5223 245.359 53.4332C250.32 51.5223 254.68 51.5223 259.641 53.4332C260.156 53.6317 260.735 53.3748 260.933 52.8594C261.132 52.3441 260.875 51.7653 260.359 51.5668C254.936 49.4777 250.064 49.4777 244.641 51.5668C239.68 53.4777 235.32 53.4777 230.359 51.5668C224.936 49.4777 220.064 49.4777 214.641 51.5668C209.68 53.4777 205.32 53.4777 200.359 51.5668C194.936 49.4777 190.064 49.4777 184.641 51.5668C179.681 53.4773 175.322 53.4777 170.363 51.568C170.362 51.5676 170.361 51.5672 170.359 51.5668C170.021 51.4363 169.684 51.3139 169.349 51.1996C164.325 49.4859 159.725 49.6083 154.641 51.5668C149.68 53.4777 145.32 53.4777 140.359 51.5668C134.936 49.4777 130.064 49.4777 124.641 51.5668C119.68 53.4777 115.32 53.4777 110.359 51.5668C104.936 49.4777 100.064 49.4777 94.6406 51.5668C89.6796 53.4777 85.3204 53.4777 80.3595 51.5668C74.9358 49.4777 70.0642 49.4777 64.6406 51.5668C59.6796 53.4777 55.3204 53.4777 50.3595 51.5668C44.9358 49.4777 40.0642 49.4777 34.6406 51.5668C29.6796 53.4777 25.3204 53.4777 20.3595 51.5668C14.9358 49.4777 10.0642 49.4777 4.64058 51.5668C4.12521 51.7653 3.86834 52.3441 4.06686 52.8594C4.26537 53.3748 4.84409 53.6317 5.35947 53.4332Z" fill="#7F4FF9"/>
<defs>
<filter id="filter0_f_5153_68" x="0.966316" y="4.34815" width="268.227" height="40.4734" filterUnits="userSpaceOnUse" color-interpolation-filters="sRGB">
<feFlood flood-opacity="0" result="BackgroundImageFix"/>
<feBlend mode="normal" in="SourceGraphic" in2="BackgroundImageFix" result="shape"/>
<feGaussianBlur stdDeviation="0.420895" result="effect1_foregroundBlur_5153_68"/>
</filter>
</defs>
</svg>
