<svg width="327" height="51" viewBox="0 0 327 51" fill="none" xmlns="http://www.w3.org/2000/svg">
<g filter="url(#filter0_f_4932_81)">
<path d="M13.0769 35.998C18.0624 35.998 22.5253 33.4248 22.5253 29.2836C22.5253 21.2023 10.745 19.6744 10.745 12.5178C10.745 11.1106 11.1471 8.37662 14.645 8.37662C17.9418 8.37662 17.0975 13.5632 20.0325 13.5632C21.6006 13.5632 22.4851 12.3972 22.4851 11.3921C22.4851 8.69827 19.6707 7.04983 14.6048 7.04983C9.61923 7.04983 5.277 9.86423 5.277 14.0054C5.277 22.0868 16.9367 23.4136 16.9367 30.5702C16.9367 31.9774 16.5346 34.6712 13.0367 34.6712C10.1419 34.6712 10.5842 29.4847 7.64915 29.4847C6.08112 29.4847 5.19659 30.6506 5.19659 31.6558C5.19659 34.3496 8.41306 35.998 13.0769 35.998ZM24.8547 21.6445V39.5763C24.8547 42.8732 23.729 43.7979 23.729 44.7227C23.729 44.7227 23.729 45.6474 24.8547 45.6474H30.2021C30.966 45.6474 31.3278 45.3258 31.3278 44.7227C31.3278 43.7979 30.2021 42.8732 30.2021 39.5763V34.1083C31.4887 35.2743 33.0165 35.998 34.7051 35.998C39.1278 35.998 42.6659 31.0929 42.6659 25.5847C42.6659 20.0363 39.1278 15.091 34.7051 15.091C33.0165 15.091 31.4887 15.8147 30.2021 17.0209C30.2021 15.8549 29.7196 15.493 29.1165 15.493C28.5939 15.493 27.9506 15.8147 27.5485 16.1363L24.8547 18.3477C23.3269 19.594 23.6083 20.3579 24.8547 21.6445ZM33.0969 17.3425C35.9515 17.3425 36.7556 22.0064 36.7556 25.5847C36.7556 29.1228 35.9515 33.7465 33.0969 33.7465C32.0113 33.7465 31.0062 33.063 30.2021 32.0578V19.0714C31.0062 18.026 32.0113 17.3425 33.0969 17.3425ZM44.9969 21.6043V29.5249C44.9969 32.8217 43.8711 33.7465 43.8711 34.6712C43.8711 35.2743 44.233 35.5959 44.9969 35.5959H50.3442C50.3442 35.5959 51.47 35.5959 51.47 34.6712C51.47 33.7465 50.3442 32.8217 50.3442 29.5249V19.6744C51.7112 18.227 53.2793 17.2621 54.405 17.2621C56.1741 17.2621 55.8926 21.5239 58.8277 21.5239C60.3957 21.5239 61.2802 20.3579 61.2802 19.3528C61.2802 16.659 57.8627 15.091 55.37 15.091C53.3597 15.091 51.7112 16.0559 50.3442 17.4229V17.2219C50.3442 15.8951 49.8216 15.493 49.1783 15.493C48.6556 15.493 48.0525 15.7745 47.6907 16.0961L44.9969 18.3075C43.4691 19.5538 44.9969 19.7951 44.9969 21.6043ZM63.6078 21.7652V29.5249C63.6078 32.8217 62.482 33.7465 62.482 34.6712C62.482 34.6712 62.482 35.5959 63.6078 35.5959H68.9551C68.9551 35.5959 70.0809 35.5959 70.0809 34.6712C70.0809 33.7465 68.9551 32.8217 68.9551 29.5249V17.3827C68.9551 15.9353 68.4727 15.493 67.9098 15.493C67.3469 15.493 66.7036 15.8951 66.3016 16.257L63.6078 18.4683C62.0799 19.7147 62.3614 20.4786 63.6078 21.7652ZM62.6428 9.14053C62.6428 11.191 64.2511 12.7993 66.3016 12.7993C68.3118 12.7993 69.9201 11.191 69.9201 9.14053C69.9201 7.13024 68.3118 5.4416 66.3016 5.4416C64.2511 5.4416 62.6428 7.13024 62.6428 9.14053ZM72.4028 21.6043V29.5249C72.4028 32.8217 71.277 33.7465 71.277 34.6712C71.277 35.2743 71.6389 35.5959 72.4028 35.5959H77.7502C77.7502 35.5959 78.8759 35.5959 78.8759 34.6712C78.8759 33.7465 77.7502 32.8217 77.7502 29.5249V20.4384C79.0367 18.5487 80.6852 17.2621 81.9718 17.2621C84.2233 17.2621 84.1027 19.7951 83.9821 23.494C83.8212 27.9971 83.1377 31.0929 83.0573 33.5052C83.0171 34.9929 83.6604 35.5959 84.3439 35.5959H89.4098C90.0531 35.5959 90.5758 35.2743 90.5758 34.6712C90.5758 33.5857 89.5707 33.3042 89.3294 32.098C89.0078 30.4496 88.7665 21.8054 88.4047 19.7951C87.882 16.8198 85.5903 15.091 83.0171 15.091C80.8058 15.091 79.1172 16.3776 77.7502 18.0662V17.2219C77.7502 15.8951 77.2275 15.493 76.5842 15.493C76.0615 15.493 75.4584 15.7745 75.0966 16.0961L72.4028 18.3075C70.875 19.5538 72.4028 19.7951 72.4028 21.6043ZM90.0933 41.8681C90.0933 44.5618 93.2696 45.6474 99.019 45.6474C101.592 45.6474 110.799 44.7629 110.799 38.2495C110.799 35.5959 109.151 31.897 100.627 31.897C99.3407 31.897 98.2551 31.9372 97.3706 31.9372C96.0036 31.9372 95.2397 31.8568 95.3603 31.4547C95.5211 30.9321 95.7624 30.2888 95.9634 29.8063C97.4912 30.4094 99.1396 30.6104 100.587 30.6104C104.366 30.6104 109.714 29.2032 109.714 22.9311C109.714 16.86 104.728 15.2116 100.989 15.091C101.11 14.4879 101.914 11.5931 104.407 11.5931C106.618 11.5931 105.492 15.8951 108.427 15.8951C109.995 15.8951 110.88 14.7291 110.88 13.724C110.88 11.0302 107.422 9.86423 105.331 9.86423C100.828 9.86423 99.7829 14.4477 99.6221 15.1312C95.9634 15.3724 91.4603 17.1817 91.4603 22.9311C91.4603 26.1074 92.8273 28.0373 94.6768 29.163C94.5562 29.4043 94.1943 30.0878 93.6717 31.2537C92.9077 32.9826 93.8727 34.5506 96.5665 34.832C101.431 35.3547 104.768 36.199 104.768 39.3351C104.768 41.6268 103.361 44.3206 99.019 44.3206C94.6768 44.3206 95.4809 39.6969 92.5459 39.6969C90.9779 39.6969 90.0933 40.8629 90.0933 41.8681ZM100.587 16.4178C101.874 16.4178 103.804 17.4631 103.804 22.9311C103.804 28.3991 101.874 29.2836 100.587 29.2836C99.3005 29.2836 97.3706 28.3991 97.3706 22.9311C97.3706 17.4631 99.3005 16.4178 100.587 16.4178ZM122.123 8.37662C122.123 9.30135 123.249 10.2261 123.249 13.523V29.5249C123.249 32.8217 122.123 33.7465 122.123 34.6712C122.123 34.6712 122.123 35.5959 123.249 35.5959H130.004C136.919 35.5959 142.186 31.2537 142.186 21.7249C142.186 11.7539 136.919 7.45189 130.004 7.45189H123.249C122.485 7.45189 122.123 7.77353 122.123 8.37662ZM128.596 29.5249V13.523C128.596 10.7086 128.476 8.77868 129.24 8.77868H130.004C131.692 8.77868 136.276 11.7539 136.276 21.7249C136.276 31.2537 131.813 34.2692 130.004 34.2692H129.24C128.476 34.2692 128.596 32.3393 128.596 29.5249ZM152.933 35.998C156.793 35.998 159.326 33.264 159.848 31.5754C160.21 30.4094 159.285 29.5651 158.32 29.5651C157.677 29.5651 156.994 29.9269 156.672 30.8115C155.988 32.6609 154.662 34.6712 152.933 34.6712C151.526 34.6712 149.314 32.2589 149.314 25.9868H153.536C156.953 25.9868 160.17 25.2631 160.17 21.3229C160.17 16.7796 156.31 15.091 152.651 15.091C146.741 15.091 143.404 18.9105 143.404 25.1826C143.404 31.0527 146.741 35.998 152.933 35.998ZM152.651 16.4178C153.817 16.4178 154.26 18.9105 154.26 21.1621C154.26 22.7703 153.817 24.66 151.928 24.66H149.354C149.596 19.2322 151.485 16.4178 152.651 16.4178ZM169.066 35.998C172.041 35.998 177.107 34.631 177.107 30.4898C177.107 25.2229 166.935 23.6548 166.935 19.3126C166.935 17.9054 167.94 16.4178 169.428 16.4178C172.323 16.4178 171.679 22.0064 174.614 22.0064C176.182 22.0064 177.067 20.8404 177.067 19.8353C177.067 17.1415 174.052 15.091 169.388 15.091C166.412 15.091 161.467 16.659 161.467 20.8002C161.467 26.0672 171.519 27.4342 171.519 31.7764C171.519 33.1836 170.513 34.6712 169.026 34.6712C166.131 34.6712 166.774 29.0826 163.839 29.0826C162.271 29.0826 161.387 30.2486 161.387 31.2537C161.387 33.9475 164.402 35.998 169.066 35.998ZM179.435 21.7652V29.5249C179.435 32.8217 178.309 33.7465 178.309 34.6712C178.309 34.6712 178.309 35.5959 179.435 35.5959H184.782C184.782 35.5959 185.908 35.5959 185.908 34.6712C185.908 33.7465 184.782 32.8217 184.782 29.5249V17.3827C184.782 15.9353 184.3 15.493 183.737 15.493C183.174 15.493 182.531 15.8951 182.129 16.257L179.435 18.4683C177.907 19.7147 178.189 20.4786 179.435 21.7652ZM178.47 9.14053C178.47 11.191 180.078 12.7993 182.129 12.7993C184.139 12.7993 185.747 11.191 185.747 9.14053C185.747 7.13024 184.139 5.4416 182.129 5.4416C180.078 5.4416 178.47 7.13024 178.47 9.14053ZM185.818 41.8681C185.818 44.5618 188.994 45.6474 194.743 45.6474C197.317 45.6474 206.524 44.7629 206.524 38.2495C206.524 35.5959 204.875 31.897 196.352 31.897C195.065 31.897 193.979 31.9372 193.095 31.9372C191.728 31.9372 190.964 31.8568 191.085 31.4547C191.245 30.9321 191.487 30.2888 191.688 29.8063C193.216 30.4094 194.864 30.6104 196.311 30.6104C200.091 30.6104 205.438 29.2032 205.438 22.9311C205.438 16.86 200.453 15.2116 196.713 15.091C196.834 14.4879 197.638 11.5931 200.131 11.5931C202.342 11.5931 201.217 15.8951 204.152 15.8951C205.72 15.8951 206.604 14.7291 206.604 13.724C206.604 11.0302 203.146 9.86423 201.056 9.86423C196.553 9.86423 195.507 14.4477 195.346 15.1312C191.688 15.3724 187.185 17.1817 187.185 22.9311C187.185 26.1074 188.552 28.0373 190.401 29.163C190.281 29.4043 189.919 30.0878 189.396 31.2537C188.632 32.9826 189.597 34.5506 192.291 34.832C197.156 35.3547 200.493 36.199 200.493 39.3351C200.493 41.6268 199.086 44.3206 194.743 44.3206C190.401 44.3206 191.205 39.6969 188.27 39.6969C186.702 39.6969 185.818 40.8629 185.818 41.8681ZM196.311 16.4178C197.598 16.4178 199.528 17.4631 199.528 22.9311C199.528 28.3991 197.598 29.2836 196.311 29.2836C195.025 29.2836 193.095 28.3991 193.095 22.9311C193.095 17.4631 195.025 16.4178 196.311 16.4178ZM208.922 21.6043V29.5249C208.922 32.8217 207.796 33.7465 207.796 34.6712C207.796 35.2743 208.158 35.5959 208.922 35.5959H214.269C214.269 35.5959 215.395 35.5959 215.395 34.6712C215.395 33.7465 214.269 32.8217 214.269 29.5249V20.4384C215.556 18.5487 217.204 17.2621 218.491 17.2621C220.742 17.2621 220.622 19.7951 220.501 23.494C220.34 27.9971 219.657 31.0929 219.576 33.5052C219.536 34.9929 220.18 35.5959 220.863 35.5959H225.929C226.572 35.5959 227.095 35.2743 227.095 34.6712C227.095 33.5857 226.09 33.3042 225.849 32.098C225.527 30.4496 225.286 21.8054 224.924 19.7951C224.401 16.8198 222.109 15.091 219.536 15.091C217.325 15.091 215.636 16.3776 214.269 18.0662V17.2219C214.269 15.8951 213.747 15.493 213.103 15.493C212.581 15.493 211.978 15.7745 211.616 16.0961L208.922 18.3075C207.394 19.5538 208.922 19.7951 208.922 21.6043ZM228.292 30.2486C228.292 33.1032 230.463 36.0382 233.92 36.0382C235.408 36.0382 237.137 35.3949 238.303 34.5104C238.504 35.2743 238.986 35.5959 239.469 35.5959H244.535C245.178 35.5959 245.701 35.2743 245.701 34.6712C245.701 33.5857 244.696 33.3042 244.454 32.098C244.133 30.4496 243.892 21.8054 243.53 19.7951C243.007 16.8198 241.238 15.091 236.695 15.091C231.87 15.091 228.493 16.659 228.493 19.3528C228.493 20.3579 229.096 21.5239 230.664 21.5239C233.599 21.5239 234.926 16.4178 236.695 16.4178C238.062 16.4178 238.826 18.3879 239.027 20.961C238.383 21.4033 237.539 21.926 236.735 22.2878C232.956 23.9765 228.292 25.062 228.292 30.2486ZM237.258 24.0971C238.021 23.5744 238.665 23.1321 239.107 22.8105V23.494C238.946 27.5146 238.424 30.4094 238.222 32.7011C237.619 33.063 237.016 33.3444 236.293 33.3444C234.483 33.3444 234.202 31.0527 234.202 29.8867C234.202 26.6703 235.891 25.062 237.258 24.0971ZM245.976 16.8198H248.791V26.9919C248.791 29.7661 248.228 35.5959 254.299 35.5959C258.279 35.5959 259.887 32.8217 260.048 31.1331C260.169 29.8867 259.284 29.2032 258.36 29.2032C257.556 29.2032 256.751 29.7259 256.671 30.8115C256.55 32.7011 256.43 34.1887 255.344 34.1887C254.138 34.1887 254.138 28.6805 254.138 26.9919V16.8198H256.952C257.877 16.8198 257.877 15.493 256.952 15.493H254.138V9.18074C254.138 7.85394 253.615 7.45189 252.972 7.45189C252.449 7.45189 251.846 7.73333 251.484 8.05497L248.791 10.2663C247.263 11.5127 247.544 12.2766 248.791 13.5632V15.493H245.976C245.052 15.493 245.052 16.8198 245.976 16.8198ZM262.438 11.5529V29.5249C262.438 32.8217 261.312 33.7465 261.312 34.6712C261.312 35.2743 261.674 35.5959 262.438 35.5959H267.785C267.785 35.5959 268.911 35.5959 268.911 34.6712C268.911 33.7465 267.785 32.8217 267.785 29.5249V20.4384C269.072 18.5487 270.72 17.2621 272.007 17.2621C274.259 17.2621 274.138 19.7951 274.017 23.494C273.856 27.9971 273.173 31.0929 273.093 33.5052C273.052 34.9929 273.696 35.5959 274.379 35.5959H279.445C280.088 35.5959 280.611 35.2743 280.611 34.6712C280.611 33.5857 279.606 33.3042 279.365 32.098C279.043 30.4496 278.802 21.8054 278.44 19.7951C277.917 16.8198 275.626 15.091 273.052 15.091C270.841 15.091 269.152 16.3776 267.785 18.0662V7.17045C267.785 5.84366 267.263 5.4416 266.619 5.4416C266.097 5.4416 265.494 5.72304 265.132 6.04468L262.438 8.256C260.91 9.50238 262.438 9.74362 262.438 11.5529ZM291.337 35.998C297.528 35.998 300.865 31.8166 300.865 25.5445C300.865 19.2724 297.528 15.091 291.337 15.091C285.145 15.091 281.808 19.2724 281.808 25.5445C281.808 31.8166 285.145 35.998 291.337 35.998ZM287.718 25.5445C287.718 19.2724 289.648 16.4178 291.337 16.4178C293.025 16.4178 294.955 19.2724 294.955 25.5445C294.955 31.8166 293.025 34.6712 291.337 34.6712C289.648 34.6712 287.718 31.8166 287.718 25.5445ZM303.194 21.6043V29.5249C303.194 32.8217 302.068 33.7465 302.068 34.6712C302.068 35.2743 302.43 35.5959 303.194 35.5959H308.541C308.541 35.5959 309.667 35.5959 309.667 34.6712C309.667 33.7465 308.541 32.8217 308.541 29.5249V20.4384C309.827 18.5487 311.476 17.2621 312.762 17.2621C315.014 17.2621 314.893 19.7951 314.773 23.494C314.612 27.9971 313.928 31.0929 313.848 33.5052C313.808 34.9929 314.451 35.5959 315.135 35.5959H320.201C320.844 35.5959 321.367 35.2743 321.367 34.6712C321.367 33.5857 320.361 33.3042 320.12 32.098C319.799 30.4496 319.557 21.8054 319.195 19.7951C318.673 16.8198 316.381 15.091 313.808 15.091C311.597 15.091 309.908 16.3776 308.541 18.0662V17.2219C308.541 15.8951 308.018 15.493 307.375 15.493C306.852 15.493 306.249 15.7745 305.887 16.0961L303.194 18.3075C301.666 19.5538 303.194 19.7951 303.194 21.6043Z" fill="#E1DBD2"/>
</g>
<g filter="url(#filter1_f_4932_81)">
<path d="M13.0769 36.6264C18.0624 36.6264 22.5253 34.0533 22.5253 29.9121C22.5253 21.8307 10.745 20.3029 10.745 13.1462C10.745 11.739 11.1471 9.00504 14.645 9.00504C17.9418 9.00504 17.0975 14.1916 20.0325 14.1916C21.6006 14.1916 22.4851 13.0256 22.4851 12.0205C22.4851 9.32668 19.6707 7.67825 14.6048 7.67825C9.61923 7.67825 5.277 10.4927 5.277 14.6339C5.277 22.7152 16.9367 24.042 16.9367 31.1986C16.9367 32.6058 16.5346 35.2996 13.0367 35.2996C10.1419 35.2996 10.5842 30.1131 7.64915 30.1131C6.08112 30.1131 5.19659 31.2791 5.19659 32.2842C5.19659 34.978 8.41306 36.6264 13.0769 36.6264ZM24.8547 22.273V40.2047C24.8547 43.5016 23.729 44.4263 23.729 45.3511C23.729 45.3511 23.729 46.2758 24.8547 46.2758H30.2021C30.966 46.2758 31.3278 45.9542 31.3278 45.3511C31.3278 44.4263 30.2021 43.5016 30.2021 40.2047V34.7368C31.4887 35.9027 33.0165 36.6264 34.7051 36.6264C39.1278 36.6264 42.6659 31.7213 42.6659 26.2131C42.6659 20.6647 39.1278 15.7194 34.7051 15.7194C33.0165 15.7194 31.4887 16.4431 30.2021 17.6493C30.2021 16.4833 29.7196 16.1215 29.1165 16.1215C28.5939 16.1215 27.9506 16.4431 27.5485 16.7648L24.8547 18.9761C23.3269 20.2225 23.6083 20.9864 24.8547 22.273ZM33.0969 17.9709C35.9515 17.9709 36.7556 22.6348 36.7556 26.2131C36.7556 29.7512 35.9515 34.3749 33.0969 34.3749C32.0113 34.3749 31.0062 33.6914 30.2021 32.6863V19.6998C31.0062 18.6544 32.0113 17.9709 33.0969 17.9709ZM44.9969 22.2327V30.1533C44.9969 33.4502 43.8711 34.3749 43.8711 35.2996C43.8711 35.9027 44.233 36.2244 44.9969 36.2244H50.3442C50.3442 36.2244 51.47 36.2244 51.47 35.2996C51.47 34.3749 50.3442 33.4502 50.3442 30.1533V20.3029C51.7112 18.8555 53.2793 17.8905 54.405 17.8905C56.1741 17.8905 55.8926 22.1523 58.8277 22.1523C60.3957 22.1523 61.2802 20.9864 61.2802 19.9812C61.2802 17.2874 57.8627 15.7194 55.37 15.7194C53.3597 15.7194 51.7112 16.6843 50.3442 18.0513V17.8503C50.3442 16.5235 49.8216 16.1215 49.1783 16.1215C48.6556 16.1215 48.0525 16.4029 47.6907 16.7246L44.9969 18.9359C43.4691 20.1823 44.9969 20.4235 44.9969 22.2327ZM63.6078 22.3936V30.1533C63.6078 33.4502 62.482 34.3749 62.482 35.2996C62.482 35.2996 62.482 36.2244 63.6078 36.2244H68.9551C68.9551 36.2244 70.0809 36.2244 70.0809 35.2996C70.0809 34.3749 68.9551 33.4502 68.9551 30.1533V18.0111C68.9551 16.5637 68.4727 16.1215 67.9098 16.1215C67.3469 16.1215 66.7036 16.5235 66.3016 16.8854L63.6078 19.0967C62.0799 20.3431 62.3614 21.107 63.6078 22.3936ZM62.6428 9.76895C62.6428 11.8194 64.2511 13.4277 66.3016 13.4277C68.3118 13.4277 69.9201 11.8194 69.9201 9.76895C69.9201 7.75866 68.3118 6.07001 66.3016 6.07001C64.2511 6.07001 62.6428 7.75866 62.6428 9.76895ZM72.4028 22.2327V30.1533C72.4028 33.4502 71.277 34.3749 71.277 35.2996C71.277 35.9027 71.6389 36.2244 72.4028 36.2244H77.7502C77.7502 36.2244 78.8759 36.2244 78.8759 35.2996C78.8759 34.3749 77.7502 33.4502 77.7502 30.1533V21.0668C79.0367 19.1771 80.6852 17.8905 81.9718 17.8905C84.2233 17.8905 84.1027 20.4235 83.9821 24.1224C83.8212 28.6255 83.1377 31.7213 83.0573 34.1337C83.0171 35.6213 83.6604 36.2244 84.3439 36.2244H89.4098C90.0531 36.2244 90.5758 35.9027 90.5758 35.2996C90.5758 34.2141 89.5707 33.9326 89.3294 32.7265C89.0078 31.078 88.7665 22.4338 88.4047 20.4235C87.882 17.4483 85.5903 15.7194 83.0171 15.7194C80.8058 15.7194 79.1172 17.006 77.7502 18.6946V17.8503C77.7502 16.5235 77.2275 16.1215 76.5842 16.1215C76.0615 16.1215 75.4584 16.4029 75.0966 16.7246L72.4028 18.9359C70.875 20.1823 72.4028 20.4235 72.4028 22.2327ZM90.0933 42.4965C90.0933 45.1903 93.2696 46.2758 99.019 46.2758C101.592 46.2758 110.799 45.3913 110.799 38.8779C110.799 36.2244 109.151 32.5254 100.627 32.5254C99.3407 32.5254 98.2551 32.5656 97.3706 32.5656C96.0036 32.5656 95.2397 32.4852 95.3603 32.0832C95.5211 31.5605 95.7624 30.9172 95.9634 30.4347C97.4912 31.0378 99.1396 31.2388 100.587 31.2388C104.366 31.2388 109.714 29.8316 109.714 23.5595C109.714 17.4885 104.728 15.84 100.989 15.7194C101.11 15.1163 101.914 12.2215 104.407 12.2215C106.618 12.2215 105.492 16.5235 108.427 16.5235C109.995 16.5235 110.88 15.3576 110.88 14.3524C110.88 11.6586 107.422 10.4927 105.331 10.4927C100.828 10.4927 99.7829 15.0761 99.6221 15.7596C95.9634 16.0008 91.4603 17.8101 91.4603 23.5595C91.4603 26.7358 92.8273 28.6657 94.6768 29.7914C94.5562 30.0327 94.1943 30.7162 93.6717 31.8821C92.9077 33.611 93.8727 35.179 96.5665 35.4605C101.431 35.9831 104.768 36.8275 104.768 39.9635C104.768 42.2552 103.361 44.949 99.019 44.949C94.6768 44.949 95.4809 40.3254 92.5459 40.3254C90.9779 40.3254 90.0933 41.4913 90.0933 42.4965ZM100.587 17.0462C101.874 17.0462 103.804 18.0915 103.804 23.5595C103.804 29.0275 101.874 29.9121 100.587 29.9121C99.3005 29.9121 97.3706 29.0275 97.3706 23.5595C97.3706 18.0915 99.3005 17.0462 100.587 17.0462ZM122.123 9.00504C122.123 9.92977 123.249 10.8545 123.249 14.1514V30.1533C123.249 33.4502 122.123 34.3749 122.123 35.2996C122.123 35.2996 122.123 36.2244 123.249 36.2244H130.004C136.919 36.2244 142.186 31.8821 142.186 22.3534C142.186 12.3823 136.919 8.0803 130.004 8.0803H123.249C122.485 8.0803 122.123 8.40195 122.123 9.00504ZM128.596 30.1533V14.1514C128.596 11.337 128.476 9.4071 129.24 9.4071H130.004C131.692 9.4071 136.276 12.3823 136.276 22.3534C136.276 31.8821 131.813 34.8976 130.004 34.8976H129.24C128.476 34.8976 128.596 32.9677 128.596 30.1533ZM152.933 36.6264C156.793 36.6264 159.326 33.8924 159.848 32.2038C160.21 31.0378 159.285 30.1935 158.32 30.1935C157.677 30.1935 156.994 30.5553 156.672 31.4399C155.988 33.2893 154.662 35.2996 152.933 35.2996C151.526 35.2996 149.314 32.8873 149.314 26.6152H153.536C156.953 26.6152 160.17 25.8915 160.17 21.9513C160.17 17.4081 156.31 15.7194 152.651 15.7194C146.741 15.7194 143.404 19.539 143.404 25.8111C143.404 31.6811 146.741 36.6264 152.933 36.6264ZM152.651 17.0462C153.817 17.0462 154.26 19.539 154.26 21.7905C154.26 23.3987 153.817 25.2884 151.928 25.2884H149.354C149.596 19.8606 151.485 17.0462 152.651 17.0462ZM169.066 36.6264C172.041 36.6264 177.107 35.2594 177.107 31.1182C177.107 25.8513 166.935 24.2832 166.935 19.941C166.935 18.5338 167.94 17.0462 169.428 17.0462C172.323 17.0462 171.679 22.6348 174.614 22.6348C176.182 22.6348 177.067 21.4688 177.067 20.4637C177.067 17.7699 174.052 15.7194 169.388 15.7194C166.412 15.7194 161.467 17.2874 161.467 21.4286C161.467 26.6956 171.519 28.0626 171.519 32.4048C171.519 33.812 170.513 35.2996 169.026 35.2996C166.131 35.2996 166.774 29.711 163.839 29.711C162.271 29.711 161.387 30.877 161.387 31.8821C161.387 34.5759 164.402 36.6264 169.066 36.6264ZM179.435 22.3936V30.1533C179.435 33.4502 178.309 34.3749 178.309 35.2996C178.309 35.2996 178.309 36.2244 179.435 36.2244H184.782C184.782 36.2244 185.908 36.2244 185.908 35.2996C185.908 34.3749 184.782 33.4502 184.782 30.1533V18.0111C184.782 16.5637 184.3 16.1215 183.737 16.1215C183.174 16.1215 182.531 16.5235 182.129 16.8854L179.435 19.0967C177.907 20.3431 178.189 21.107 179.435 22.3936ZM178.47 9.76895C178.47 11.8194 180.078 13.4277 182.129 13.4277C184.139 13.4277 185.747 11.8194 185.747 9.76895C185.747 7.75866 184.139 6.07001 182.129 6.07001C180.078 6.07001 178.47 7.75866 178.47 9.76895ZM185.818 42.4965C185.818 45.1903 188.994 46.2758 194.743 46.2758C197.317 46.2758 206.524 45.3913 206.524 38.8779C206.524 36.2244 204.875 32.5254 196.352 32.5254C195.065 32.5254 193.979 32.5656 193.095 32.5656C191.728 32.5656 190.964 32.4852 191.085 32.0832C191.245 31.5605 191.487 30.9172 191.688 30.4347C193.216 31.0378 194.864 31.2388 196.311 31.2388C200.091 31.2388 205.438 29.8316 205.438 23.5595C205.438 17.4885 200.453 15.84 196.713 15.7194C196.834 15.1163 197.638 12.2215 200.131 12.2215C202.342 12.2215 201.217 16.5235 204.152 16.5235C205.72 16.5235 206.604 15.3576 206.604 14.3524C206.604 11.6586 203.146 10.4927 201.056 10.4927C196.553 10.4927 195.507 15.0761 195.346 15.7596C191.688 16.0008 187.185 17.8101 187.185 23.5595C187.185 26.7358 188.552 28.6657 190.401 29.7914C190.281 30.0327 189.919 30.7162 189.396 31.8821C188.632 33.611 189.597 35.179 192.291 35.4605C197.156 35.9831 200.493 36.8275 200.493 39.9635C200.493 42.2552 199.086 44.949 194.743 44.949C190.401 44.949 191.205 40.3254 188.27 40.3254C186.702 40.3254 185.818 41.4913 185.818 42.4965ZM196.311 17.0462C197.598 17.0462 199.528 18.0915 199.528 23.5595C199.528 29.0275 197.598 29.9121 196.311 29.9121C195.025 29.9121 193.095 29.0275 193.095 23.5595C193.095 18.0915 195.025 17.0462 196.311 17.0462ZM208.922 22.2327V30.1533C208.922 33.4502 207.796 34.3749 207.796 35.2996C207.796 35.9027 208.158 36.2244 208.922 36.2244H214.269C214.269 36.2244 215.395 36.2244 215.395 35.2996C215.395 34.3749 214.269 33.4502 214.269 30.1533V21.0668C215.556 19.1771 217.204 17.8905 218.491 17.8905C220.742 17.8905 220.622 20.4235 220.501 24.1224C220.34 28.6255 219.657 31.7213 219.576 34.1337C219.536 35.6213 220.18 36.2244 220.863 36.2244H225.929C226.572 36.2244 227.095 35.9027 227.095 35.2996C227.095 34.2141 226.09 33.9326 225.849 32.7265C225.527 31.078 225.286 22.4338 224.924 20.4235C224.401 17.4483 222.109 15.7194 219.536 15.7194C217.325 15.7194 215.636 17.006 214.269 18.6946V17.8503C214.269 16.5235 213.747 16.1215 213.103 16.1215C212.581 16.1215 211.978 16.4029 211.616 16.7246L208.922 18.9359C207.394 20.1823 208.922 20.4235 208.922 22.2327ZM228.292 30.877C228.292 33.7316 230.463 36.6666 233.92 36.6666C235.408 36.6666 237.137 36.0233 238.303 35.1388C238.504 35.9027 238.986 36.2244 239.469 36.2244H244.535C245.178 36.2244 245.701 35.9027 245.701 35.2996C245.701 34.2141 244.696 33.9326 244.454 32.7265C244.133 31.078 243.892 22.4338 243.53 20.4235C243.007 17.4483 241.238 15.7194 236.695 15.7194C231.87 15.7194 228.493 17.2874 228.493 19.9812C228.493 20.9864 229.096 22.1523 230.664 22.1523C233.599 22.1523 234.926 17.0462 236.695 17.0462C238.062 17.0462 238.826 19.0163 239.027 21.5895C238.383 22.0317 237.539 22.5544 236.735 22.9162C232.956 24.6049 228.292 25.6904 228.292 30.877ZM237.258 24.7255C238.021 24.2028 238.665 23.7606 239.107 23.4389V24.1224C238.946 28.143 238.424 31.0378 238.222 33.3295C237.619 33.6914 237.016 33.9728 236.293 33.9728C234.483 33.9728 234.202 31.6811 234.202 30.5151C234.202 27.2987 235.891 25.6904 237.258 24.7255ZM245.976 17.4483H248.791V27.6203C248.791 30.3945 248.228 36.2244 254.299 36.2244C258.279 36.2244 259.887 33.4502 260.048 31.7615C260.169 30.5151 259.284 29.8316 258.36 29.8316C257.556 29.8316 256.751 30.3543 256.671 31.4399C256.55 33.3295 256.43 34.8172 255.344 34.8172C254.138 34.8172 254.138 29.309 254.138 27.6203V17.4483H256.952C257.877 17.4483 257.877 16.1215 256.952 16.1215H254.138V9.80916C254.138 8.48236 253.615 8.0803 252.972 8.0803C252.449 8.0803 251.846 8.36175 251.484 8.68339L248.791 10.8947C247.263 12.1411 247.544 12.905 248.791 14.1916V16.1215H245.976C245.052 16.1215 245.052 17.4483 245.976 17.4483ZM262.438 12.1813V30.1533C262.438 33.4502 261.312 34.3749 261.312 35.2996C261.312 35.9027 261.674 36.2244 262.438 36.2244H267.785C267.785 36.2244 268.911 36.2244 268.911 35.2996C268.911 34.3749 267.785 33.4502 267.785 30.1533V21.0668C269.072 19.1771 270.72 17.8905 272.007 17.8905C274.259 17.8905 274.138 20.4235 274.017 24.1224C273.856 28.6255 273.173 31.7213 273.093 34.1337C273.052 35.6213 273.696 36.2244 274.379 36.2244H279.445C280.088 36.2244 280.611 35.9027 280.611 35.2996C280.611 34.2141 279.606 33.9326 279.365 32.7265C279.043 31.078 278.802 22.4338 278.44 20.4235C277.917 17.4483 275.626 15.7194 273.052 15.7194C270.841 15.7194 269.152 17.006 267.785 18.6946V7.79886C267.785 6.47207 267.263 6.07001 266.619 6.07001C266.097 6.07001 265.494 6.35146 265.132 6.6731L262.438 8.88442C260.91 10.1308 262.438 10.372 262.438 12.1813ZM291.337 36.6264C297.528 36.6264 300.865 32.445 300.865 26.1729C300.865 19.9008 297.528 15.7194 291.337 15.7194C285.145 15.7194 281.808 19.9008 281.808 26.1729C281.808 32.445 285.145 36.6264 291.337 36.6264ZM287.718 26.1729C287.718 19.9008 289.648 17.0462 291.337 17.0462C293.025 17.0462 294.955 19.9008 294.955 26.1729C294.955 32.445 293.025 35.2996 291.337 35.2996C289.648 35.2996 287.718 32.445 287.718 26.1729ZM303.194 22.2327V30.1533C303.194 33.4502 302.068 34.3749 302.068 35.2996C302.068 35.9027 302.43 36.2244 303.194 36.2244H308.541C308.541 36.2244 309.667 36.2244 309.667 35.2996C309.667 34.3749 308.541 33.4502 308.541 30.1533V21.0668C309.827 19.1771 311.476 17.8905 312.762 17.8905C315.014 17.8905 314.893 20.4235 314.773 24.1224C314.612 28.6255 313.928 31.7213 313.848 34.1337C313.808 35.6213 314.451 36.2244 315.135 36.2244H320.201C320.844 36.2244 321.367 35.9027 321.367 35.2996C321.367 34.2141 320.361 33.9326 320.12 32.7265C319.799 31.078 319.557 22.4338 319.195 20.4235C318.673 17.4483 316.381 15.7194 313.808 15.7194C311.597 15.7194 309.908 17.006 308.541 18.6946V17.8503C308.541 16.5235 308.018 16.1215 307.375 16.1215C306.852 16.1215 306.249 16.4029 305.887 16.7246L303.194 18.9359C301.666 20.1823 303.194 20.4235 303.194 22.2327Z" fill="#E1DBD2"/>
</g>
<defs>
<filter id="filter0_f_4932_81" x="0.484916" y="0.730033" width="325.593" height="49.629" filterUnits="userSpaceOnUse" color-interpolation-filters="sRGB">
<feFlood flood-opacity="0" result="BackgroundImageFix"/>
<feBlend mode="normal" in="SourceGraphic" in2="BackgroundImageFix" result="shape"/>
<feGaussianBlur stdDeviation="2.35581" result="effect1_foregroundBlur_4932_81"/>
</filter>
<filter id="filter1_f_4932_81" x="4.88243" y="5.75596" width="316.798" height="40.834" filterUnits="userSpaceOnUse" color-interpolation-filters="sRGB">
<feFlood flood-opacity="0" result="BackgroundImageFix"/>
<feBlend mode="normal" in="SourceGraphic" in2="BackgroundImageFix" result="shape"/>
<feGaussianBlur stdDeviation="0.157054" result="effect1_foregroundBlur_4932_81"/>
</filter>
</defs>
</svg>
