<svg width="330" height="55" viewBox="0 0 330 55" fill="none" xmlns="http://www.w3.org/2000/svg">
<path d="M3.82759 32.3448C4.73413 32.3448 5.42242 32.6806 5.89248 33.3521C6.39611 34.0236 6.83259 34.779 7.20192 35.6184C7.60482 36.4242 8.0413 37.1629 8.51136 37.8344C8.98141 38.5059 9.66971 38.8416 10.5762 38.8416C11.6842 38.8416 12.5572 38.657 13.1951 38.2877C13.8331 37.9183 14.3199 37.4651 14.6556 36.9279C14.9914 36.3906 15.2096 35.8367 15.3104 35.2659C15.4111 34.6615 15.4615 34.1411 15.4615 33.7046C15.4615 32.1937 15.0921 30.8843 14.3535 29.7763C13.6484 28.6347 12.7586 27.5771 11.6842 26.6034C10.6098 25.6297 9.43468 24.6896 8.15881 23.7831C6.88295 22.8766 5.70781 21.9029 4.6334 20.862C3.55899 19.8212 2.65245 18.6629 1.9138 17.387C1.20871 16.1111 0.856172 14.6338 0.856172 12.955C0.856172 11.6456 1.17514 10.4705 1.81307 9.42963C2.451 8.35521 3.29039 7.43189 4.33122 6.65966C5.40563 5.88743 6.64792 5.29986 8.05809 4.89695C9.50183 4.46047 10.9959 4.24223 12.5404 4.24223C15.7301 4.24223 18.1643 4.72908 19.843 5.70276C21.5554 6.64287 22.4116 7.9691 22.4116 9.68144C22.4116 10.3194 22.143 10.9405 21.6057 11.5449C21.0685 12.1157 20.3131 12.401 19.3394 12.401C18.7351 12.401 18.2314 12.25 17.8285 11.9478C17.4592 11.612 17.1402 11.2091 16.8716 10.7391C16.603 10.2354 16.3512 9.71502 16.1162 9.17781C15.9147 8.60703 15.6629 8.08661 15.3607 7.61656C15.0586 7.11293 14.6892 6.71002 14.2527 6.40784C13.8498 6.07209 13.2958 5.90421 12.5908 5.90421C11.4828 5.90421 10.6098 6.08888 9.97188 6.45821C9.33395 6.82754 8.84711 7.2808 8.51136 7.81801C8.1756 8.35522 7.95736 8.926 7.85664 9.53035C7.75591 10.1347 7.70555 10.6551 7.70555 11.0916C7.70555 12.5689 8.05809 13.8952 8.76317 15.0703C9.50183 16.2119 10.4252 17.2863 11.5331 18.2935C12.6411 19.2672 13.8163 20.2241 15.0586 21.1642C16.3344 22.1043 17.5263 23.1116 18.6343 24.186C19.7423 25.2268 20.6489 26.3852 21.3539 27.6611C22.0926 28.9369 22.4619 30.4142 22.4619 32.093C22.4619 33.4024 22.1262 34.5776 21.4547 35.6184C20.8167 36.6257 19.9606 37.4986 18.8861 38.2373C17.8117 38.976 16.5527 39.5467 15.1089 39.9496C13.6987 40.319 12.2046 40.5036 10.6266 40.5036C9.18286 40.5036 7.83985 40.3693 6.59756 40.1007C5.38885 39.8657 4.34801 39.5132 3.47505 39.0431C2.63567 38.573 1.96416 38.0023 1.46053 37.3308C0.990473 36.6593 0.755446 35.9038 0.755446 35.0644C0.755446 34.4265 1.02405 33.8221 1.56125 33.2514C2.09846 32.647 2.85391 32.3448 3.82759 32.3448ZM25.3798 32.3952V12.3507C25.3798 11.3098 25.2959 10.4537 25.128 9.78217C24.9937 9.07709 24.8426 8.48952 24.6747 8.01946C24.5069 7.54941 24.339 7.16329 24.1711 6.86111C24.0368 6.52536 23.9697 6.20639 23.9697 5.90421C23.9697 5.13198 24.4397 4.74586 25.3798 4.74586H36.7115C38.0881 4.74586 39.3808 4.98089 40.5895 5.45095C41.7982 5.88743 42.8558 6.50857 43.7623 7.31438C44.6689 8.12019 45.374 9.09388 45.8776 10.2354C46.4148 11.3434 46.6834 12.5689 46.6834 13.9119C46.6834 15.6243 46.3309 17.2023 45.6258 18.6461C44.9207 20.0562 43.947 21.2314 42.7047 22.1715C44.182 22.9437 45.374 24.0013 46.2805 25.3444C47.2206 26.6874 47.6907 28.2318 47.6907 29.9778C47.6907 31.3208 47.4221 32.6134 46.8849 33.8557C46.3812 35.0644 45.6761 36.122 44.7696 37.0286C43.8631 37.9351 42.8054 38.657 41.5967 39.1942C40.388 39.7314 39.0954 40 37.7188 40H25.3798C25.1112 40 24.8762 39.9496 24.6747 39.8489C24.5069 39.7818 24.339 39.6642 24.1711 39.4964C24.0368 39.3285 23.9697 39.1103 23.9697 38.8416C23.9697 38.5395 24.0368 38.2373 24.1711 37.9351C24.339 37.5994 24.5069 37.1965 24.6747 36.7264C24.8426 36.2563 24.9937 35.6856 25.128 35.0141C25.2959 34.309 25.3798 33.436 25.3798 32.3952ZM32.9343 37.1797H35.7043C36.6108 37.1797 37.3494 36.9446 37.9202 36.4746C38.5246 36.0045 38.9946 35.417 39.3304 34.7119C39.6997 33.9732 39.9515 33.1842 40.0858 32.3448C40.2201 31.5054 40.2873 30.7164 40.2873 29.9778C40.2873 29.2391 40.1866 28.5004 39.9851 27.7618C39.7837 26.9895 39.4815 26.3013 39.0786 25.6969C38.6757 25.0925 38.1553 24.6057 37.5173 24.2364C36.8794 23.8335 36.1072 23.632 35.2006 23.632H34.697C34.3948 23.632 34.0926 23.6488 33.7905 23.6824C33.4883 23.6824 33.2029 23.7327 32.9343 23.8335C32.6993 23.9006 32.4978 24.0181 32.3299 24.186C32.1621 24.3539 32.0781 24.5889 32.0781 24.8911V32.3952C32.0781 32.9995 32.0781 33.5871 32.0781 34.1579C32.0781 34.7287 32.0949 35.2491 32.1285 35.7191C32.1956 36.1556 32.2796 36.5082 32.3803 36.7768C32.5146 37.0454 32.6993 37.1797 32.9343 37.1797ZM32.0781 12.3507V19.9051C32.0781 20.1737 32.1621 20.392 32.3299 20.5599C32.4978 20.7277 32.6993 20.862 32.9343 20.9628C33.2029 21.0299 33.4883 21.0803 33.7905 21.1139C34.0926 21.1139 34.3612 21.1139 34.5963 21.1139H35.2006C36.1072 21.1139 36.829 20.8788 37.3662 20.4088C37.9034 19.9387 38.3063 19.3511 38.5749 18.6461C38.8771 17.9074 39.0618 17.1184 39.1289 16.279C39.2297 15.4396 39.28 14.6506 39.28 13.9119C39.28 13.1733 39.2129 12.4346 39.0786 11.696C38.9443 10.9237 38.6925 10.2354 38.3231 9.63108C37.9874 9.02672 37.5173 8.53988 36.913 8.17055C36.3422 7.76765 35.6035 7.56619 34.697 7.56619H32.9343C32.6993 7.56619 32.5146 7.7005 32.3803 7.9691C32.2796 8.2377 32.1956 8.60703 32.1285 9.07709C32.0949 9.51357 32.0781 10.0172 32.0781 10.588C32.0781 11.1588 32.0781 11.7463 32.0781 12.3507ZM64.4604 4.24223C65.5348 4.24223 66.6092 4.35975 67.6836 4.59478C68.758 4.8298 69.7317 5.16556 70.6047 5.60204C71.4776 6.03852 72.1827 6.59251 72.7199 7.26402C73.2907 7.90195 73.5761 8.64061 73.5761 9.47999C73.5761 10.1179 73.3075 10.7391 72.7703 11.3434C72.2331 11.9142 71.4776 12.1996 70.5039 12.1996C69.5974 12.1996 68.8923 11.8806 68.3887 11.2427C67.8851 10.5712 67.4486 9.84932 67.0793 9.07709C66.7435 8.27128 66.391 7.54941 66.0216 6.91148C65.6523 6.23997 65.1319 5.90421 64.4604 5.90421C63.9232 5.90421 63.2181 6.1896 62.3451 6.76039C61.4722 7.33117 60.5992 8.27128 59.7262 9.58072C58.8869 10.8902 58.1482 12.6193 57.5103 14.7681C56.9059 16.8834 56.6037 19.5022 56.6037 22.6247C56.6037 25.613 56.9059 28.1479 57.5103 30.2296C58.1146 32.2777 58.8533 33.9396 59.7262 35.2155C60.5992 36.4914 61.5057 37.4147 62.4459 37.9855C63.4195 38.5563 64.2589 38.8416 64.964 38.8416C65.5684 38.8416 66.1224 38.7073 66.626 38.4387C67.1296 38.1701 67.5661 37.8176 67.9354 37.3811C68.3048 36.9446 68.6237 36.4578 68.8923 35.9206C69.1609 35.3498 69.3624 34.7958 69.4967 34.2586C69.6646 33.6543 69.9332 33.2346 70.3025 32.9995C70.7054 32.7309 71.1251 32.5966 71.5616 32.5966C72.1323 32.5966 72.6528 32.8149 73.1228 33.2514C73.5929 33.6878 73.744 34.2586 73.5761 34.9637C73.4754 35.4002 73.2235 35.9374 72.8206 36.5753C72.4177 37.2132 71.847 37.8344 71.1083 38.4387C70.4032 39.0095 69.5303 39.4964 68.4894 39.8993C67.4822 40.3022 66.307 40.5036 64.964 40.5036C62.7816 40.5036 60.7335 40.1343 58.8197 39.3956C56.9059 38.6234 55.2271 37.4986 53.7834 36.0213C52.3732 34.544 51.2485 32.6806 50.4091 30.431C49.6033 28.1815 49.2004 25.5794 49.2004 22.6247C49.2004 19.5022 49.6033 16.7994 50.4091 14.5163C51.2485 12.1996 52.3565 10.2858 53.733 8.77491C55.1096 7.23044 56.7213 6.08888 58.5679 5.35022C60.4481 4.61156 62.4123 4.24223 64.4604 4.24223ZM75.1196 5.90421C75.1196 5.70276 75.1868 5.50131 75.3211 5.29986C75.3882 5.16556 75.5058 5.04804 75.6736 4.94732C75.8751 4.81301 76.1605 4.74586 76.5298 4.74586H83.2281C83.4967 4.74586 83.7317 4.79623 83.9332 4.89695C84.101 4.9641 84.2521 5.08162 84.3864 5.24949C84.5543 5.3838 84.6383 5.60204 84.6383 5.90421C84.6383 6.20639 84.5543 6.52536 84.3864 6.86111C84.2521 7.16329 84.101 7.54941 83.9332 8.01946C83.7653 8.48952 83.5974 9.07709 83.4295 9.78217C83.2952 10.4537 83.2281 11.3098 83.2281 12.3507V32.3952C83.2281 34.1747 83.3288 35.6184 83.5303 36.7264C83.7317 37.8008 84.0675 38.338 84.5375 38.338H89.876C91.1519 38.338 92.2095 38.103 93.0489 37.6329C93.8883 37.1293 94.5933 36.5753 95.1641 35.971C95.7685 35.3666 96.2721 34.8294 96.675 34.3593C97.1115 33.8557 97.5312 33.6039 97.9341 33.6039C98.102 33.6039 98.2531 33.6543 98.3874 33.755C98.656 33.9564 98.7231 34.3426 98.5888 34.9133C98.4881 35.4841 98.3034 36.0717 98.0348 36.676C97.7662 37.2804 97.4976 37.8344 97.229 38.338C96.9604 38.8081 96.8261 39.0431 96.8261 39.0431C96.5911 39.446 96.1882 39.7146 95.6174 39.8489C95.0802 39.9496 94.6269 40 94.2576 40H76.5298C76.2612 40 76.0262 39.9496 75.8247 39.8489C75.6568 39.7818 75.489 39.6642 75.3211 39.4964C75.1868 39.3285 75.1196 39.1103 75.1196 38.8416C75.1196 38.5395 75.1868 38.2373 75.3211 37.9351C75.489 37.5994 75.6568 37.1965 75.8247 36.7264C75.9926 36.2563 76.1437 35.6856 76.278 35.0141C76.4459 34.309 76.5298 33.436 76.5298 32.3952V12.3507C76.5298 11.3098 76.4459 10.4537 76.278 9.78217C76.1437 9.07709 75.9926 8.48952 75.8247 8.01946C75.6568 7.54941 75.489 7.16329 75.3211 6.86111C75.1868 6.52536 75.1196 6.20639 75.1196 5.90421ZM113.902 33.3017C115.278 31.3543 116.789 29.642 118.434 28.1647C120.079 26.6538 121.607 25.1597 123.017 23.6824C124.427 22.2051 125.603 20.627 126.543 18.9482C127.516 17.2359 128.003 15.2046 128.003 12.8543C128.003 11.9142 127.919 11.0245 127.751 10.1851C127.584 9.34569 127.348 8.60703 127.046 7.9691C126.744 7.33117 126.375 6.82754 125.938 6.45821C125.535 6.08888 125.065 5.90421 124.528 5.90421C123.957 5.90421 123.437 6.10567 122.967 6.50857C122.53 6.8779 122.111 7.34795 121.708 7.91874C121.338 8.48952 120.969 9.11066 120.6 9.78217C120.264 10.4201 119.895 11.0245 119.492 11.5952C119.089 12.166 118.636 12.6529 118.132 13.0558C117.662 13.4251 117.125 13.6098 116.52 13.6098C115.379 13.6098 114.573 13.2908 114.103 12.6529C113.633 11.9814 113.398 11.3266 113.398 10.6887C113.398 9.84932 113.65 9.04351 114.153 8.27128C114.657 7.49904 115.379 6.81075 116.319 6.20639C117.259 5.60204 118.417 5.13198 119.794 4.79623C121.204 4.4269 122.782 4.24223 124.528 4.24223C126.14 4.24223 127.617 4.4269 128.96 4.79623C130.303 5.16556 131.445 5.71955 132.385 6.45821C133.358 7.16329 134.097 8.06983 134.601 9.17781C135.138 10.2522 135.407 11.5113 135.407 12.955C135.407 14.6674 135.155 16.1615 134.651 17.4374C134.147 18.6796 133.476 19.8044 132.637 20.8117C131.831 21.8189 130.891 22.759 129.816 23.632C128.775 24.505 127.701 25.4115 126.593 26.3516C125.485 27.2917 124.394 28.3158 123.319 29.4238C122.245 30.5317 121.288 31.8244 120.449 33.3017H126.039C127.315 33.3017 128.373 33.0667 129.212 32.5966C130.051 32.093 130.756 31.539 131.327 30.9347C131.932 30.3303 132.435 29.7931 132.838 29.323C133.275 28.8194 133.694 28.5676 134.097 28.5676C134.265 28.5676 134.416 28.618 134.55 28.7187C134.752 28.853 134.836 29.2055 134.802 29.7763C134.802 30.3135 134.752 30.9682 134.651 31.7405C134.55 32.4791 134.399 33.2849 134.198 34.1579C134.03 34.9973 133.845 35.7863 133.644 36.5249C133.476 37.23 133.325 37.8344 133.191 38.338C133.056 38.8081 132.989 39.0431 132.989 39.0431C132.754 39.446 132.351 39.7146 131.78 39.8489C131.243 39.9496 130.79 40 130.421 40H115.513C114.808 40 114.237 39.7818 113.801 39.3453C113.364 38.9088 113.062 38.3548 112.894 37.6833C112.76 37.0118 112.76 36.2899 112.894 35.5177C113.062 34.7455 113.398 34.0068 113.902 33.3017ZM149.333 4.24223C151.515 4.24223 153.395 4.67871 154.973 5.55167C156.551 6.42463 157.844 7.65013 158.851 9.22818C159.859 10.7726 160.597 12.6361 161.067 14.8185C161.537 17.0009 161.772 19.3847 161.772 21.97C161.772 24.5553 161.537 26.9895 161.067 29.2727C160.597 31.5222 159.859 33.4864 158.851 35.1651C157.844 36.8103 156.551 38.1198 154.973 39.0935C153.395 40.0336 151.515 40.5036 149.333 40.5036C147.15 40.5036 145.27 40.0336 143.692 39.0935C142.114 38.1198 140.821 36.8103 139.814 35.1651C138.807 33.4864 138.068 31.5222 137.598 29.2727C137.128 26.9895 136.893 24.5553 136.893 21.97C136.893 19.3847 137.128 17.0009 137.598 14.8185C138.068 12.6361 138.807 10.7726 139.814 9.22818C140.821 7.65013 142.114 6.42463 143.692 5.55167C145.27 4.67871 147.15 4.24223 149.333 4.24223ZM144.296 21.97C144.296 24.5553 144.414 26.8888 144.649 28.9705C144.884 31.0522 145.22 32.8317 145.656 34.309C146.093 35.7527 146.613 36.8775 147.217 37.6833C147.855 38.4555 148.561 38.8416 149.333 38.8416C150.105 38.8416 150.793 38.4555 151.398 37.6833C152.036 36.8775 152.573 35.7527 153.009 34.309C153.446 32.8317 153.781 31.0522 154.017 28.9705C154.252 26.8888 154.369 24.5553 154.369 21.97C154.369 16.7658 153.916 12.7872 153.009 10.034C152.136 7.2808 150.911 5.90421 149.333 5.90421C147.755 5.90421 146.512 7.2808 145.606 10.034C144.733 12.7872 144.296 16.7658 144.296 21.97ZM164.412 33.3017C165.789 31.3543 167.3 29.642 168.945 28.1647C170.59 26.6538 172.118 25.1597 173.528 23.6824C174.938 22.2051 176.113 20.627 177.053 18.9482C178.027 17.2359 178.514 15.2046 178.514 12.8543C178.514 11.9142 178.43 11.0245 178.262 10.1851C178.094 9.34569 177.859 8.60703 177.557 7.9691C177.255 7.33117 176.885 6.82754 176.449 6.45821C176.046 6.08888 175.576 5.90421 175.039 5.90421C174.468 5.90421 173.948 6.10567 173.477 6.50857C173.041 6.8779 172.621 7.34795 172.218 7.91874C171.849 8.48952 171.48 9.11066 171.11 9.78217C170.775 10.4201 170.405 11.0245 170.002 11.5952C169.6 12.166 169.146 12.6529 168.643 13.0558C168.173 13.4251 167.635 13.6098 167.031 13.6098C165.889 13.6098 165.084 13.2908 164.614 12.6529C164.144 11.9814 163.909 11.3266 163.909 10.6887C163.909 9.84932 164.16 9.04351 164.664 8.27128C165.168 7.49904 165.889 6.81075 166.83 6.20639C167.77 5.60204 168.928 5.13198 170.305 4.79623C171.715 4.4269 173.293 4.24223 175.039 4.24223C176.65 4.24223 178.128 4.4269 179.471 4.79623C180.814 5.16556 181.955 5.71955 182.895 6.45821C183.869 7.16329 184.608 8.06983 185.111 9.17781C185.649 10.2522 185.917 11.5113 185.917 12.955C185.917 14.6674 185.665 16.1615 185.162 17.4374C184.658 18.6796 183.987 19.8044 183.147 20.8117C182.341 21.8189 181.401 22.759 180.327 23.632C179.286 24.505 178.212 25.4115 177.104 26.3516C175.996 27.2917 174.904 28.3158 173.83 29.4238C172.756 30.5317 171.799 31.8244 170.959 33.3017H176.55C177.825 33.3017 178.883 33.0667 179.723 32.5966C180.562 32.093 181.267 31.539 181.838 30.9347C182.442 30.3303 182.946 29.7931 183.349 29.323C183.785 28.8194 184.205 28.5676 184.608 28.5676C184.776 28.5676 184.927 28.618 185.061 28.7187C185.262 28.853 185.346 29.2055 185.313 29.7763C185.313 30.3135 185.262 30.9682 185.162 31.7405C185.061 32.4791 184.91 33.2849 184.708 34.1579C184.541 34.9973 184.356 35.7863 184.154 36.5249C183.987 37.23 183.835 37.8344 183.701 38.338C183.567 38.8081 183.5 39.0431 183.5 39.0431C183.265 39.446 182.862 39.7146 182.291 39.8489C181.754 39.9496 181.301 40 180.931 40H166.024C165.319 40 164.748 39.7818 164.311 39.3453C163.875 38.9088 163.573 38.3548 163.405 37.6833C163.271 37.0118 163.271 36.2899 163.405 35.5177C163.573 34.7455 163.909 34.0068 164.412 33.3017ZM206.239 22.3729C206.877 22.7087 207.499 23.1284 208.103 23.632C208.741 24.1356 209.295 24.7232 209.765 25.3947C210.268 26.0326 210.671 26.7713 210.974 27.6107C211.276 28.4501 211.427 29.3734 211.427 30.3807C211.427 32.0594 211.058 33.5367 210.319 34.8126C209.58 36.0549 208.606 37.1125 207.398 37.9855C206.223 38.8249 204.88 39.4628 203.369 39.8993C201.858 40.3022 200.313 40.5036 198.735 40.5036C196.922 40.5036 195.311 40.3358 193.9 40C192.49 39.6307 191.298 39.1438 190.325 38.5395C189.385 37.9351 188.663 37.2468 188.159 36.4746C187.655 35.7024 187.404 34.8965 187.404 34.0572C187.404 33.4192 187.639 32.7813 188.109 32.1434C188.579 31.4719 189.385 31.1361 190.526 31.1361C191.131 31.1361 191.668 31.3376 192.138 31.7405C192.641 32.1098 193.095 32.5798 193.498 33.1506C193.9 33.7214 194.287 34.3426 194.656 35.0141C195.025 35.652 195.411 36.2563 195.814 36.8271C196.217 37.3979 196.654 37.8848 197.124 38.2877C197.594 38.657 198.131 38.8416 198.735 38.8416C199.205 38.8416 199.743 38.7073 200.347 38.4387C200.985 38.1366 201.572 37.6665 202.11 37.0286C202.647 36.3906 203.1 35.5848 203.469 34.6112C203.839 33.6039 204.023 32.3952 204.023 30.985C204.023 30.3471 203.973 29.6588 203.872 28.9201C203.805 28.1479 203.637 27.4428 203.369 26.8049C203.134 26.1334 202.764 25.5794 202.261 25.1429C201.791 24.7064 201.136 24.4882 200.297 24.4882C199.759 24.421 199.356 24.186 199.088 23.7831C198.819 23.3466 198.685 22.8766 198.685 22.3729C198.685 21.8693 198.819 21.3992 199.088 20.9628C199.356 20.5263 199.759 20.2913 200.297 20.2577C201.002 20.2241 201.623 19.9555 202.16 19.4519C202.63 19.0154 203.05 18.3271 203.419 17.387C203.822 16.4133 204.023 15.0031 204.023 13.1565C204.023 12.1492 203.906 11.2091 203.671 10.3362C203.469 9.42963 203.184 8.65739 202.815 8.01946C202.445 7.34795 202.026 6.82754 201.556 6.45821C201.086 6.08888 200.582 5.90421 200.045 5.90421C199.474 5.90421 198.954 6.10567 198.484 6.50857C198.047 6.8779 197.627 7.34795 197.224 7.91874C196.855 8.48952 196.486 9.11066 196.116 9.78217C195.781 10.4201 195.411 11.0245 195.008 11.5952C194.606 12.166 194.152 12.6529 193.649 13.0558C193.179 13.4251 192.641 13.6098 192.037 13.6098C190.895 13.6098 190.09 13.2908 189.62 12.6529C189.15 11.9814 188.915 11.3266 188.915 10.6887C188.915 9.84932 189.166 9.04351 189.67 8.27128C190.174 7.49904 190.895 6.81075 191.836 6.20639C192.776 5.60204 193.934 5.13198 195.311 4.79623C196.721 4.4269 198.299 4.24223 200.045 4.24223C201.656 4.24223 203.151 4.46047 204.527 4.89695C205.937 5.29986 207.146 5.90421 208.153 6.71002C209.16 7.51583 209.95 8.52309 210.52 9.73181C211.125 10.9069 211.427 12.25 211.427 13.7609C211.427 14.8017 211.276 15.7754 210.974 16.6819C210.671 17.5549 210.268 18.3607 209.765 19.0993C209.295 19.8044 208.741 20.4423 208.103 21.0131C207.499 21.5503 206.877 22.0036 206.239 22.3729Z" fill="#E1DBD2"/>
<path d="M235.469 20.6943C234.641 20.6943 233.969 21.3659 233.969 22.1943C233.969 23.0228 234.641 23.6943 235.469 23.6943V20.6943ZM329.53 23.255C330.116 22.6692 330.116 21.7195 329.53 21.1337L319.984 11.5877C319.398 11.0019 318.448 11.0019 317.863 11.5877C317.277 12.1735 317.277 13.1233 317.863 13.7091L326.348 22.1943L317.863 30.6796C317.277 31.2654 317.277 32.2152 317.863 32.8009C318.448 33.3867 319.398 33.3867 319.984 32.8009L329.53 23.255ZM235.469 23.6943H328.469V20.6943H235.469V23.6943Z" fill="#E1DBD2"/>
</svg>
