<svg width="332" height="55" viewBox="0 0 332 55" fill="none" xmlns="http://www.w3.org/2000/svg">
<g filter="url(#filter0_f_5153_67)">
<path d="M11.1575 40.5036C17.4025 40.5036 22.9928 37.2804 22.9928 32.093C22.9928 21.97 8.23643 20.0562 8.23643 11.0916C8.23643 9.3289 8.74006 5.90421 13.1216 5.90421C17.2514 5.90421 16.1938 12.401 19.8703 12.401C21.8345 12.401 22.9424 10.9405 22.9424 9.68144C22.9424 6.30712 19.417 4.24223 13.0713 4.24223C6.82626 4.24223 1.38706 7.76765 1.38706 12.955C1.38706 23.078 15.9923 24.74 15.9923 33.7046C15.9923 35.4673 15.4887 38.8416 11.1071 38.8416C7.48099 38.8416 8.03498 32.3448 4.35848 32.3448C2.39432 32.3448 1.28633 33.8053 1.28633 35.0644C1.28633 38.4387 5.31537 40.5036 11.1575 40.5036ZM24.5005 5.90421C24.5005 7.06256 25.9107 8.22091 25.9107 12.3507V32.3952C25.9107 36.5249 24.5005 37.6833 24.5005 38.8416C24.5005 38.8416 24.5005 40 25.9107 40H38.2497C43.7896 40 48.2215 35.417 48.2215 29.9778C48.2215 26.5027 46.1567 23.6824 43.2356 22.1715C45.7034 20.308 47.2143 17.2863 47.2143 13.9119C47.2143 8.52309 42.7823 4.74586 37.2424 4.74586H25.9107C24.9538 4.74586 24.5005 5.14877 24.5005 5.90421ZM32.609 32.3952V24.8911C32.609 23.6824 34.0695 23.632 35.2279 23.632C35.4293 23.632 35.5804 23.632 35.7315 23.632C39.3073 23.632 40.8182 27.0567 40.8182 29.9778C40.8182 32.9492 39.8109 37.1797 36.2351 37.1797H33.4652C32.5083 37.1797 32.609 34.8126 32.609 32.3952ZM33.4652 7.56619H35.2279C38.8037 7.56619 39.8109 10.9909 39.8109 13.9119C39.8109 16.8834 39.3073 21.1139 35.7315 21.1139C35.5804 21.1139 35.379 21.1139 35.1272 21.1139C34.1199 21.1139 32.609 21.0131 32.609 19.9051V12.3507C32.609 9.93326 32.5083 7.56619 33.4652 7.56619ZM49.7313 22.6247C49.7313 34.5104 56.7317 40.5036 65.4949 40.5036C70.8334 40.5036 73.7544 36.7768 74.107 34.9637C74.3588 33.5535 73.2508 32.5966 72.0421 32.5966C71.1859 32.5966 70.3297 33.0499 70.0276 34.2586C69.4736 36.4746 67.9627 38.8416 65.4949 38.8416C62.7249 38.8416 57.1346 34.5608 57.1346 22.6247C57.1346 10.1347 62.876 5.90421 64.9913 5.90421C67.7109 5.90421 67.3583 12.1996 71.0348 12.1996C72.999 12.1996 74.107 10.7391 74.107 9.47999C74.107 6.10567 69.2721 4.24223 64.9913 4.24223C56.7317 4.24223 49.7313 10.1347 49.7313 22.6247ZM77.0607 12.3507V32.3952C77.0607 36.5249 75.6505 37.6833 75.6505 38.8416C75.6505 38.8416 75.6505 40 77.0607 40H94.7885C95.5439 40 96.9037 39.8489 97.357 39.0431C97.4074 38.9927 100.077 34.4097 98.9182 33.755C98.7672 33.6543 98.6161 33.6039 98.465 33.6039C96.803 33.6039 95.4936 38.338 90.4069 38.338H85.0684C84.1115 38.338 83.759 35.9206 83.759 32.3952V12.3507C83.759 8.22091 85.1691 7.06256 85.1691 5.90421C85.1691 5.90421 85.1691 4.74586 83.759 4.74586H77.0607C77.0607 4.74586 75.6505 4.74586 75.6505 5.90421C75.6505 7.06256 77.0607 8.22091 77.0607 12.3507ZM116.044 40H130.952C131.707 40 133.067 39.8489 133.52 39.0431C133.57 38.9927 136.24 29.3734 135.081 28.7187C134.93 28.618 134.779 28.5676 134.628 28.5676C132.966 28.5676 131.657 33.3017 126.57 33.3017H120.98C126.117 24.4378 135.937 23.1787 135.937 12.955C135.937 7.16329 131.505 4.24223 125.059 4.24223C118.008 4.24223 113.929 7.31438 113.929 10.6887C113.929 11.9478 114.735 13.6098 117.051 13.6098C120.728 13.6098 121.634 5.90421 125.059 5.90421C127.174 5.90421 128.534 9.12745 128.534 12.8543C128.534 22.2218 119.922 25.5458 114.432 33.3017C112.468 36.0717 113.274 40 116.044 40ZM149.864 40.5036C158.627 40.5036 162.303 32.3448 162.303 21.97C162.303 11.5952 158.627 4.24223 149.864 4.24223C141.1 4.24223 137.424 11.5952 137.424 21.97C137.424 32.3448 141.1 40.5036 149.864 40.5036ZM144.827 21.97C144.827 11.5952 146.741 5.90421 149.864 5.90421C152.986 5.90421 154.9 11.5952 154.9 21.97C154.9 32.3448 152.986 38.8416 149.864 38.8416C146.741 38.8416 144.827 32.3448 144.827 21.97ZM166.555 40H181.462C182.218 40 183.577 39.8489 184.031 39.0431C184.081 38.9927 186.75 29.3734 185.592 28.7187C185.441 28.618 185.29 28.5676 185.139 28.5676C183.477 28.5676 182.167 33.3017 177.081 33.3017H171.49C176.627 24.4378 186.448 23.1787 186.448 12.955C186.448 7.16329 182.016 4.24223 175.57 4.24223C168.519 4.24223 164.439 7.31438 164.439 10.6887C164.439 11.9478 165.245 13.6098 167.562 13.6098C171.238 13.6098 172.145 5.90421 175.57 5.90421C177.685 5.90421 179.045 9.12745 179.045 12.8543C179.045 22.2218 170.433 25.5458 164.943 33.3017C162.979 36.0717 163.785 40 166.555 40ZM206.77 22.3729C209.339 20.9124 211.958 17.8906 211.958 13.7609C211.958 7.66692 207.022 4.24223 200.576 4.24223C193.525 4.24223 189.445 7.31438 189.445 10.6887C189.445 11.9478 190.251 13.6098 192.568 13.6098C196.244 13.6098 197.151 5.90421 200.576 5.90421C202.691 5.90421 204.554 9.12745 204.554 13.1565C204.554 20.5095 200.827 20.2577 200.827 20.2577C198.662 20.4591 198.662 24.2867 200.827 24.4882C204.151 24.4882 204.554 28.4669 204.554 30.985C204.554 36.6257 201.18 38.8416 199.266 38.8416C195.64 38.8416 194.734 31.1361 191.057 31.1361C188.74 31.1361 187.935 32.7981 187.935 34.0572C187.935 37.4315 192.014 40.5036 199.266 40.5036C205.511 40.5036 211.958 37.0789 211.958 30.3807C211.958 26.3516 209.339 23.7327 206.77 22.3729Z" fill="#E1DBD2"/>
</g>
<g filter="url(#filter1_f_5153_67)">
<path d="M236 20.6943C235.172 20.6943 234.5 21.3659 234.5 22.1943C234.5 23.0228 235.172 23.6943 236 23.6943V20.6943ZM330.061 23.255C330.646 22.6692 330.646 21.7195 330.061 21.1337L320.515 11.5877C319.929 11.0019 318.979 11.0019 318.393 11.5877C317.808 12.1735 317.808 13.1233 318.393 13.7091L326.879 22.1943L318.393 30.6796C317.808 31.2654 317.808 32.2152 318.393 32.8009C318.979 33.3867 319.929 33.3867 320.515 32.8009L330.061 23.255ZM236 23.6943H329V20.6943H236V23.6943Z" fill="#E1DBD2"/>
</g>
<defs>
<filter id="filter0_f_5153_67" x="0.499454" y="3.45526" width="212.245" height="37.8353" filterUnits="userSpaceOnUse" color-interpolation-filters="sRGB">
<feFlood flood-opacity="0" result="BackgroundImageFix"/>
<feBlend mode="normal" in="SourceGraphic" in2="BackgroundImageFix" result="shape"/>
<feGaussianBlur stdDeviation="0.393461" result="effect1_foregroundBlur_5153_67"/>
</filter>
<filter id="filter1_f_5153_67" x="233.5" y="10.1484" width="98" height="24.0918" filterUnits="userSpaceOnUse" color-interpolation-filters="sRGB">
<feFlood flood-opacity="0" result="BackgroundImageFix"/>
<feBlend mode="normal" in="SourceGraphic" in2="BackgroundImageFix" result="shape"/>
<feGaussianBlur stdDeviation="0.5" result="effect1_foregroundBlur_5153_67"/>
</filter>
</defs>
</svg>
