<svg width="269" height="60" viewBox="0 0 269 60" fill="none" xmlns="http://www.w3.org/2000/svg">
<path d="M4.5637 34.2822C5.2102 34.3541 5.71303 34.6055 6.07219 35.0365C6.46727 35.4316 6.79052 35.9344 7.04193 36.545C7.29335 37.1196 7.50884 37.7482 7.68843 38.4306C7.90392 39.0771 8.13738 39.6877 8.38879 40.2623C8.64021 40.8011 8.96346 41.268 9.35854 41.6631C9.75362 42.0222 10.2744 42.2018 10.9209 42.2018C11.6392 42.2018 12.2498 41.9504 12.7526 41.4476C13.2555 40.9447 13.6685 40.2982 13.9917 39.5081C14.3509 38.682 14.6203 37.7482 14.7999 36.7066C15.0154 35.665 15.177 34.6235 15.2847 33.5819C15.3925 32.5044 15.4464 31.4628 15.4464 30.4572C15.4823 29.4156 15.5002 28.5177 15.5002 27.7634V13.8638C15.5002 12.7504 15.4104 11.8345 15.2309 11.1162C15.0872 10.362 14.9256 9.73341 14.746 9.23059C14.5664 8.72776 14.3868 8.31472 14.2072 7.99147C14.0636 7.63231 13.9917 7.2911 13.9917 6.96786C13.9917 6.75236 14.0636 6.53686 14.2072 6.32136C14.2791 6.1777 14.4048 6.05199 14.5844 5.94424C14.7999 5.80057 15.1052 5.72874 15.5002 5.72874H22.6655C22.9529 5.72874 23.2043 5.78262 23.4198 5.89037C23.5994 5.9622 23.761 6.0879 23.9047 6.26749C24.0842 6.41115 24.174 6.64461 24.174 6.96786C24.174 7.2911 24.0842 7.63231 23.9047 7.99147C23.761 8.31472 23.5994 8.72776 23.4198 9.23059C23.2402 9.73341 23.0606 10.362 22.881 11.1162C22.7374 11.8345 22.6655 12.7504 22.6655 13.8638V27.7634C22.6655 28.7691 22.6476 29.8645 22.6117 31.0498C22.6117 32.235 22.5039 33.4382 22.2884 34.6594C22.1088 35.8446 21.7856 37.0119 21.3187 38.1612C20.8877 39.2746 20.2412 40.2623 19.3792 41.1243C18.5172 41.9863 17.4038 42.6867 16.039 43.2254C14.6742 43.7282 12.9681 43.9797 10.9209 43.9797C9.26875 43.9797 7.83209 43.7642 6.61094 43.3332C5.4257 42.9022 4.438 42.3634 3.64784 41.7169C2.85768 41.0345 2.26506 40.2982 1.86998 39.5081C1.4749 38.7179 1.27736 37.9457 1.27736 37.1915C1.27736 36.545 1.52877 35.8985 2.0316 35.252C2.57035 34.6055 3.30663 34.2822 4.24046 34.2822H4.5637ZM34.4683 5.72874C34.7556 5.72874 35.007 5.78262 35.2225 5.89037C35.4021 5.9622 35.5637 6.0879 35.7074 6.26749C35.887 6.41115 35.9768 6.64461 35.9768 6.96786C35.9768 7.2911 35.887 7.63231 35.7074 7.99147C35.5637 8.31472 35.4021 8.72776 35.2225 9.23059C35.0429 9.73341 34.8634 10.362 34.6838 11.1162C34.5401 11.8345 34.4683 12.7504 34.4683 13.8638V33.6896C34.4683 34.9826 34.6658 36.114 35.0609 37.0837C35.4919 38.0535 36.0486 38.8795 36.731 39.562C37.4134 40.2084 38.1856 40.6933 39.0476 41.0166C39.9455 41.3398 40.8434 41.5014 41.7413 41.5014C42.6393 41.5014 43.5192 41.3398 44.3812 41.0166C45.2432 40.6933 46.0154 40.2084 46.6978 39.562C47.3802 38.8795 47.919 38.0535 48.314 37.0837C48.745 36.114 48.9605 34.9826 48.9605 33.6896V13.3251C48.9246 11.9602 48.7091 10.9187 48.314 10.2003C47.9549 9.482 47.5598 8.9253 47.1288 8.53022C46.6978 8.13514 46.3027 7.81189 45.9436 7.56048C45.5844 7.30906 45.4048 6.98581 45.4048 6.59074C45.4048 6.44707 45.4587 6.3034 45.5664 6.15974C45.7101 5.87241 46.0154 5.72874 46.4823 5.72874H53.2166C53.4321 5.72874 53.6117 5.76466 53.7554 5.83649C54.1145 5.98016 54.2941 6.23157 54.2941 6.59074C54.2941 6.98581 54.1145 7.30906 53.7554 7.56048C53.4321 7.81189 53.055 8.13514 52.624 8.53022C52.193 8.9253 51.78 9.482 51.3849 10.2003C51.0257 10.9187 50.8102 11.9602 50.7384 13.3251V33.6896C50.7384 35.4136 50.3972 36.9221 49.7148 38.2151C49.0683 39.4722 48.1883 40.5317 47.0749 41.3937C45.9615 42.2557 44.7044 42.9022 43.3037 43.3332C41.9389 43.7642 40.5202 43.9797 39.0476 43.9797C37.575 43.9797 36.1384 43.7642 34.7377 43.3332C33.3369 42.9022 32.0798 42.2557 30.9664 41.3937C29.853 40.5317 28.9551 39.4722 28.2727 38.2151C27.6262 36.9221 27.303 35.4136 27.303 33.6896V13.8638C27.303 12.7504 27.2132 11.8345 27.0336 11.1162C26.8899 10.362 26.7283 9.73341 26.5487 9.23059C26.3691 8.72776 26.1896 8.31472 26.01 7.99147C25.8663 7.63231 25.7945 7.2911 25.7945 6.96786C25.7945 6.75236 25.8663 6.53686 26.01 6.32136C26.0818 6.1777 26.2075 6.05199 26.3871 5.94424C26.6026 5.80057 26.9079 5.72874 27.303 5.72874H34.4683ZM55.8346 42.5789C55.8346 42.1838 56.0142 41.8606 56.3733 41.6092C56.7325 41.3578 57.1276 41.0345 57.5586 40.6394C57.9896 40.2444 58.3846 39.6877 58.7438 38.9693C59.1389 38.2151 59.3544 37.1735 59.3903 35.8446V13.3251C59.3544 11.9602 59.1389 10.9187 58.7438 10.2003C58.3846 9.482 57.9896 8.9253 57.5586 8.53022C57.1276 8.13514 56.7325 7.81189 56.3733 7.56048C56.0142 7.30906 55.8346 6.98581 55.8346 6.59074C55.8346 6.44707 55.8885 6.3034 55.9962 6.15974C56.1399 5.87241 56.4452 5.72874 56.9121 5.72874H61.1682C62.6766 5.72874 64.0415 6.19565 65.2626 7.12948C66.4838 8.02739 67.5792 9.23059 68.549 10.7391C69.5187 12.2116 70.3627 13.9177 71.0811 15.8572C71.8353 17.7966 72.4818 19.808 73.0206 21.8911C73.5952 23.9383 74.0801 25.9676 74.4752 27.9789C74.8703 29.9902 75.1935 31.822 75.4449 33.4741C75.7322 35.1263 75.9657 36.527 76.1453 37.6763C76.3249 38.7897 76.4685 39.4901 76.5763 39.7774L81.856 6.96786C81.856 6.75236 81.9278 6.53686 82.0715 6.32136C82.1433 6.1777 82.269 6.05199 82.4486 5.94424C82.6641 5.80057 82.9694 5.72874 83.3645 5.72874H90.5298C91.5354 5.72874 92.0383 6.14178 92.0383 6.96786C92.0383 7.2911 91.9485 7.63231 91.7689 7.99147C91.6252 8.31472 91.4636 8.72776 91.284 9.23059C91.1044 9.73341 90.9249 10.362 90.7453 11.1162C90.6016 11.8345 90.5298 12.7504 90.5298 13.8638V35.3059C90.5298 36.4193 90.6016 37.3531 90.7453 38.1073C90.9249 38.8257 91.1044 39.4362 91.284 39.9391C91.4636 40.4419 91.6252 40.8729 91.7689 41.2321C91.9485 41.5553 92.0383 41.8786 92.0383 42.2018C92.0383 42.4173 91.9844 42.6148 91.8766 42.7944C91.7689 42.974 91.6073 43.1356 91.3918 43.2793C91.2122 43.387 90.9249 43.4409 90.5298 43.4409H83.3645C82.3588 43.4409 81.856 43.0279 81.856 42.2018C81.856 41.8786 81.9278 41.5553 82.0715 41.2321C82.2511 40.8729 82.4306 40.4419 82.6102 39.9391C82.7898 39.4362 82.9514 38.8257 83.0951 38.1073C83.2747 37.3531 83.3645 36.4193 83.3645 35.3059V13.8638C83.3645 13.2532 83.3286 12.6965 83.2567 12.1937C83.2208 11.6909 83.1669 11.2419 83.0951 10.8468L77.977 42.3096C77.9052 42.7046 77.7256 42.992 77.4383 43.1715C77.1509 43.3511 76.8097 43.4409 76.4147 43.4409H70.3807C69.9138 43.4409 69.5546 43.2254 69.3032 42.7944C69.0518 42.3275 68.8363 41.6092 68.6567 40.6394C68.5131 39.8852 68.3155 38.7 68.0641 37.0837C67.8486 35.4316 67.5792 33.6178 67.256 31.6424C66.9687 29.6311 66.6095 27.5659 66.1785 25.4468C65.7834 23.3278 65.3165 21.4062 64.7778 19.6822C64.2749 17.9223 63.7182 16.4857 63.1076 15.3723C62.533 14.223 61.8865 13.6483 61.1682 13.6483V35.8446C61.24 37.1735 61.4555 38.2151 61.8147 38.9693C62.2097 39.6877 62.6228 40.2444 63.0538 40.6394C63.4848 41.0345 63.8619 41.3578 64.1851 41.6092C64.5443 41.8606 64.7239 42.1838 64.7239 42.5789C64.7239 42.7226 64.688 42.8663 64.6161 43.0099C64.5443 43.1177 64.4365 43.2254 64.2929 43.3332C64.1492 43.405 63.9337 43.4409 63.6464 43.4409H56.9121C56.1937 43.4409 55.8346 43.1536 55.8346 42.5789ZM93.6638 42.2018C93.6638 41.8786 93.7356 41.5553 93.8793 41.2321C94.0588 40.8729 94.2384 40.4419 94.418 39.9391C94.5976 39.4362 94.7592 38.8257 94.9029 38.1073C95.0825 37.3531 95.1722 36.4193 95.1722 35.3059V13.8638C95.1722 12.7504 95.0825 11.8345 94.9029 11.1162C94.7592 10.362 94.5976 9.73341 94.418 9.23059C94.2384 8.72776 94.0588 8.31472 93.8793 7.99147C93.7356 7.63231 93.6638 7.2911 93.6638 6.96786C93.6638 6.14178 94.1666 5.72874 95.1722 5.72874H102.338C102.553 5.72874 102.751 5.76466 102.93 5.83649C103.11 5.90832 103.271 5.99811 103.415 6.10586C103.595 6.1777 103.72 6.32136 103.792 6.53686C105.193 5.63895 106.719 5.19 108.372 5.19C109.844 5.19 111.227 5.54916 112.52 6.26749C113.813 6.98581 114.944 7.95556 115.914 9.17671C116.884 10.3979 117.638 11.8345 118.177 13.4867C118.751 15.1029 119.039 16.8449 119.039 18.7125C119.039 20.5442 118.751 22.2862 118.177 23.9383C117.638 25.5546 116.884 26.9733 115.914 28.1944C114.944 29.4156 113.813 30.3853 112.52 31.1036C111.227 31.822 109.844 32.1811 108.372 32.1811C106.145 32.1811 104.133 31.391 102.338 29.8107V35.3059C102.338 36.4193 102.409 37.3531 102.553 38.1073C102.733 38.8257 102.912 39.4362 103.092 39.9391C103.271 40.4419 103.433 40.8729 103.577 41.2321C103.756 41.5553 103.846 41.8786 103.846 42.2018C103.846 43.0279 103.343 43.4409 102.338 43.4409H95.1722C94.8849 43.4409 94.6335 43.387 94.418 43.2793C94.2384 43.2075 94.0588 43.0818 93.8793 42.9022C93.7356 42.7226 93.6638 42.4891 93.6638 42.2018ZM102.338 13.8638V27.0631C102.876 27.7096 103.469 28.2303 104.115 28.6254C104.798 28.9846 105.498 29.1642 106.217 29.1642C107.186 29.1642 107.976 28.8409 108.587 28.1944C109.234 27.5479 109.736 26.7219 110.095 25.7162C110.491 24.7105 110.76 23.5971 110.904 22.376C111.047 21.1189 111.119 19.8977 111.119 18.7125C111.119 17.5273 111.047 16.3061 110.904 15.049C110.76 13.792 110.491 12.6606 110.095 11.6549C109.736 10.6493 109.234 9.82321 108.587 9.17671C107.976 8.53022 107.186 8.20697 106.217 8.20697C105.319 8.20697 104.618 8.36859 104.115 8.69184C103.613 9.01509 103.218 9.44608 102.93 9.98483C102.679 10.5236 102.517 11.1342 102.445 11.8166C102.373 12.4631 102.338 13.1455 102.338 13.8638ZM123.94 35.252C124.91 35.252 125.646 35.6112 126.149 36.3295C126.688 37.0478 127.155 37.8559 127.55 38.7538C127.981 39.6158 128.447 40.406 128.95 41.1243C129.453 41.8426 130.189 42.2018 131.159 42.2018C132.344 42.2018 133.278 42.0043 133.961 41.6092C134.643 41.2141 135.164 40.7292 135.523 40.1546C135.882 39.5799 136.116 38.9873 136.223 38.3767C136.331 37.7302 136.385 37.1735 136.385 36.7066C136.385 35.0904 135.99 33.6896 135.2 32.5044C134.446 31.2832 133.494 30.1519 132.344 29.1103C131.195 28.0687 129.938 27.0631 128.573 26.0933C127.208 25.1236 125.951 24.082 124.802 22.9686C123.653 21.8552 122.683 20.6161 121.893 19.2513C121.139 17.8864 120.761 16.3061 120.761 14.5103C120.761 13.1096 121.103 11.8525 121.785 10.7391C122.467 9.58975 123.365 8.60205 124.479 7.77597C125.628 6.9499 126.957 6.32136 128.465 5.89037C130.01 5.42345 131.608 5.19 133.26 5.19C136.672 5.19 139.276 5.71078 141.072 6.75236C142.904 7.75801 143.82 9.17671 143.82 11.0084C143.82 11.6909 143.532 12.3553 142.958 13.0018C142.383 13.6124 141.575 13.9177 140.533 13.9177C139.887 13.9177 139.348 13.756 138.917 13.4328C138.522 13.0736 138.181 12.6426 137.893 12.1398C137.606 11.6011 137.337 11.0444 137.085 10.4697C136.87 9.85912 136.601 9.30242 136.277 8.79959C135.954 8.26084 135.559 7.82985 135.092 7.5066C134.661 7.14744 134.068 6.96786 133.314 6.96786C132.129 6.96786 131.195 7.1654 130.513 7.56048C129.83 7.95556 129.309 8.44043 128.95 9.01509C128.591 9.58975 128.358 10.2003 128.25 10.8468C128.142 11.4933 128.088 12.05 128.088 12.5169C128.088 14.0973 128.465 15.5159 129.22 16.773C130.01 17.9942 130.998 19.1435 132.183 20.221C133.368 21.2626 134.625 22.2862 135.954 23.2918C137.319 24.2975 138.594 25.375 139.779 26.5243C140.964 27.6377 141.934 28.8768 142.688 30.2417C143.478 31.6065 143.874 33.1868 143.874 34.9826C143.874 36.3834 143.514 37.6404 142.796 38.7538C142.114 39.8313 141.198 40.7651 140.048 41.5553C138.899 42.3455 137.552 42.956 136.008 43.387C134.499 43.7821 132.901 43.9797 131.213 43.9797C129.669 43.9797 128.232 43.836 126.903 43.5487C125.61 43.2973 124.497 42.9201 123.563 42.4173C122.665 41.9145 121.947 41.3039 121.408 40.5856C120.905 39.8672 120.654 39.0591 120.654 38.1612C120.654 37.4788 120.941 36.8323 121.516 36.2217C122.09 35.5752 122.898 35.252 123.94 35.252ZM146.348 5.72874H178.35C178.673 5.72874 178.889 5.78262 178.996 5.89037C179.14 5.9622 179.212 6.06995 179.212 6.21361C179.212 6.32136 179.176 6.46503 179.104 6.64461C179.068 6.78828 179.032 6.93194 178.996 7.07561L176.949 13.9177C176.841 14.0613 176.716 14.187 176.572 14.2948C176.464 14.4025 176.339 14.5103 176.195 14.618C176.051 14.6899 175.89 14.7258 175.71 14.7258C175.53 14.7258 175.333 14.6719 175.117 14.5642C174.83 14.4205 174.597 13.9715 174.417 13.2173C174.273 12.4631 174.022 11.6729 173.663 10.8468C173.34 9.98483 172.837 9.21263 172.154 8.53022C171.508 7.84781 170.538 7.5066 169.245 7.5066H167.359C166.569 7.5066 166.138 8.09922 166.067 9.28446C165.995 10.4338 165.959 11.9602 165.959 13.8638V35.3059C165.959 36.4193 166.031 37.3531 166.174 38.1073C166.354 38.8257 166.533 39.4362 166.713 39.9391C166.893 40.4419 167.054 40.8729 167.198 41.2321C167.377 41.5553 167.467 41.8786 167.467 42.2018C167.467 43.0279 166.964 43.4409 165.959 43.4409H158.793C158.506 43.4409 158.255 43.387 158.039 43.2793C157.86 43.2075 157.68 43.0818 157.5 42.9022C157.357 42.7226 157.285 42.4891 157.285 42.2018C157.285 41.8786 157.357 41.5553 157.5 41.2321C157.68 40.8729 157.86 40.4419 158.039 39.9391C158.219 39.4362 158.38 38.8257 158.524 38.1073C158.704 37.3531 158.793 36.4193 158.793 35.3059V13.8638C158.793 12.93 158.793 12.068 158.793 11.2778C158.793 10.4877 158.758 9.82321 158.686 9.28446C158.614 8.7098 158.47 8.2788 158.255 7.99147C158.075 7.66822 157.788 7.5066 157.393 7.5066H155.453C154.16 7.5066 153.173 7.84781 152.49 8.53022C151.844 9.21263 151.341 9.96687 150.982 10.7929C150.658 11.619 150.407 12.4092 150.227 13.1634C150.084 13.9177 149.868 14.3846 149.581 14.5642C149.401 14.7078 149.186 14.7797 148.934 14.7797C148.503 14.7797 148.108 14.4923 147.749 13.9177L145.702 7.07561C145.666 6.93194 145.612 6.78828 145.54 6.64461C145.504 6.46503 145.486 6.32136 145.486 6.21361C145.486 6.06995 145.54 5.9622 145.648 5.89037C145.792 5.78262 146.025 5.72874 146.348 5.72874ZM173.318 42.2018C173.318 41.8786 173.498 41.5374 173.857 41.1782C174.216 40.819 174.629 40.388 175.096 39.8852C175.599 39.3465 176.12 38.7179 176.658 37.9996C177.233 37.2453 177.7 36.3474 178.059 35.3059L186.894 11.1162L186.679 10.4158C186.571 10.0207 186.41 9.6975 186.194 9.44608C186.015 9.15875 185.835 8.88938 185.655 8.63797C185.476 8.38655 185.314 8.13514 185.171 7.88372C185.063 7.63231 185.009 7.32702 185.009 6.96786C185.009 6.57278 185.153 6.26749 185.44 6.05199C185.763 5.83649 186.14 5.72874 186.571 5.72874H191.474C191.941 5.72874 192.264 5.98016 192.444 6.48298C192.659 6.98581 192.91 7.65027 193.198 8.47634L201.979 35.3059C202.303 36.3474 202.644 37.2453 203.003 37.9996C203.398 38.7179 203.739 39.3465 204.027 39.8852C204.35 40.388 204.601 40.819 204.781 41.1782C204.996 41.5374 205.104 41.8786 205.104 42.2018C205.104 42.4173 205.05 42.6148 204.942 42.7944C204.835 42.974 204.673 43.1356 204.458 43.2793C204.278 43.387 203.991 43.4409 203.596 43.4409H196.43C195.425 43.4409 194.922 43.0279 194.922 42.2018C194.922 41.8786 194.976 41.5374 195.083 41.1782C195.191 40.819 195.281 40.388 195.353 39.8852C195.425 39.3824 195.425 38.7718 195.353 38.0535C195.317 37.2992 195.137 36.3834 194.814 35.3059L193.306 30.4572C193.198 30.0621 193.036 29.7388 192.821 29.4874C192.605 29.236 192.228 29.1103 191.689 29.1103H183.016C182.656 29.1103 182.369 29.254 182.154 29.5413C181.974 29.7927 181.83 30.08 181.723 30.4033L179.999 35.3059C179.675 36.3115 179.586 37.1915 179.729 37.9457C179.873 38.664 180.088 39.2926 180.376 39.8313C180.663 40.3342 180.95 40.7831 181.238 41.1782C181.561 41.5374 181.723 41.8786 181.723 42.2018C181.723 42.4173 181.669 42.6148 181.561 42.7944C181.453 42.974 181.292 43.1356 181.076 43.2793C180.896 43.387 180.609 43.4409 180.214 43.4409H174.827C173.821 43.4409 173.318 43.0279 173.318 42.2018ZM183.5 27.3324H191.312C191.707 27.3324 191.905 27.2067 191.905 26.9553C191.941 26.668 191.923 26.4345 191.851 26.2549L187.81 13.8638L183.123 26.5243C183.051 26.7398 183.033 26.9374 183.069 27.1169C183.141 27.2606 183.285 27.3324 183.5 27.3324ZM206.727 42.2018C206.727 41.8786 206.798 41.5553 206.942 41.2321C207.122 40.8729 207.301 40.4419 207.481 39.9391C207.66 39.4362 207.822 38.8257 207.966 38.1073C208.145 37.3531 208.235 36.4193 208.235 35.3059V13.8638C208.235 12.7504 208.145 11.8345 207.966 11.1162C207.822 10.362 207.66 9.73341 207.481 9.23059C207.301 8.72776 207.122 8.31472 206.942 7.99147C206.798 7.63231 206.727 7.2911 206.727 6.96786C206.727 6.14178 207.229 5.72874 208.235 5.72874H215.4C215.58 5.72874 215.742 5.7467 215.885 5.78262C216.209 5.85445 216.478 6.01607 216.693 6.26749C218.202 5.54916 219.782 5.19 221.434 5.19C222.907 5.19 224.29 5.45937 225.583 5.99811C226.876 6.53686 228.007 7.32702 228.977 8.36859C229.947 9.37425 230.701 10.6134 231.24 12.0859C231.814 13.5585 232.102 15.2286 232.102 17.0963C232.102 20.1132 231.401 22.6813 230 24.8003C228.6 26.8835 226.804 28.2842 224.613 29.0025C225.69 29.7927 226.588 30.6906 227.307 31.6963C228.061 32.666 228.672 33.6178 229.138 34.5516C229.641 35.4854 230.036 36.3474 230.324 37.1376C230.647 37.9278 230.88 38.5204 231.024 38.9155C231.204 39.3105 231.401 39.6517 231.617 39.9391C231.868 40.1905 232.102 40.4239 232.317 40.6394C232.533 40.8549 232.712 41.0884 232.856 41.3398C233.035 41.5553 233.125 41.8426 233.125 42.2018C233.125 42.7046 232.964 43.0458 232.64 43.2254C232.317 43.3691 231.94 43.4409 231.509 43.4409H224.721C224.254 43.4409 223.895 43.2254 223.643 42.7944C223.392 42.3275 223.176 41.6092 222.997 40.6394C222.853 39.7774 222.656 38.8257 222.404 37.7841C222.189 36.7066 221.919 35.6471 221.596 34.6055C221.273 33.528 220.896 32.5223 220.465 31.5885C220.034 30.6188 219.513 29.8107 218.902 29.1642C217.681 28.8409 216.514 28.2663 215.4 27.4402V35.3059C215.4 36.4193 215.472 37.3531 215.616 38.1073C215.796 38.8257 215.975 39.4362 216.155 39.9391C216.334 40.4419 216.496 40.8729 216.64 41.2321C216.819 41.5553 216.909 41.8786 216.909 42.2018C216.909 43.0279 216.406 43.4409 215.4 43.4409H208.235C207.948 43.4409 207.696 43.387 207.481 43.2793C207.301 43.2075 207.122 43.0818 206.942 42.9022C206.798 42.7226 206.727 42.4891 206.727 42.2018ZM215.4 24.6926C215.939 25.2313 216.532 25.6623 217.178 25.9856C217.861 26.3088 218.561 26.4704 219.279 26.4704C220.249 26.4704 221.039 26.2011 221.65 25.6623C222.296 25.1236 222.799 24.4232 223.158 23.5612C223.553 22.6992 223.823 21.7115 223.966 20.5981C224.11 19.4488 224.182 18.2815 224.182 17.0963C224.182 15.911 224.11 14.7797 223.966 13.7022C223.823 12.6247 223.553 11.6909 223.158 10.9007C222.799 10.0746 222.296 9.42813 221.65 8.96121C221.039 8.45838 220.249 8.20697 219.279 8.20697C218.346 8.20697 217.609 8.35064 217.071 8.63797C216.568 8.9253 216.191 9.33834 215.939 9.87708C215.688 10.3799 215.526 10.9725 215.454 11.6549C215.418 12.3374 215.4 13.0736 215.4 13.8638V24.6926ZM234.526 5.72874H266.527C266.851 5.72874 267.066 5.78262 267.174 5.89037C267.318 5.9622 267.389 6.06995 267.389 6.21361C267.389 6.32136 267.353 6.46503 267.282 6.64461C267.246 6.78828 267.21 6.93194 267.174 7.07561L265.127 13.9177C265.019 14.0613 264.893 14.187 264.749 14.2948C264.642 14.4025 264.516 14.5103 264.372 14.618C264.229 14.6899 264.067 14.7258 263.888 14.7258C263.708 14.7258 263.51 14.6719 263.295 14.5642C263.008 14.4205 262.774 13.9715 262.595 13.2173C262.451 12.4631 262.199 11.6729 261.84 10.8468C261.517 9.98483 261.014 9.21263 260.332 8.53022C259.685 7.84781 258.716 7.5066 257.423 7.5066H255.537C254.747 7.5066 254.316 8.09922 254.244 9.28446C254.172 10.4338 254.136 11.9602 254.136 13.8638V35.3059C254.136 36.4193 254.208 37.3531 254.352 38.1073C254.531 38.8257 254.711 39.4362 254.89 39.9391C255.07 40.4419 255.232 40.8729 255.375 41.2321C255.555 41.5553 255.645 41.8786 255.645 42.2018C255.645 43.0279 255.142 43.4409 254.136 43.4409H246.971C246.684 43.4409 246.432 43.387 246.217 43.2793C246.037 43.2075 245.857 43.0818 245.678 42.9022C245.534 42.7226 245.462 42.4891 245.462 42.2018C245.462 41.8786 245.534 41.5553 245.678 41.2321C245.857 40.8729 246.037 40.4419 246.217 39.9391C246.396 39.4362 246.558 38.8257 246.702 38.1073C246.881 37.3531 246.971 36.4193 246.971 35.3059V13.8638C246.971 12.93 246.971 12.068 246.971 11.2778C246.971 10.4877 246.935 9.82321 246.863 9.28446C246.791 8.7098 246.648 8.2788 246.432 7.99147C246.253 7.66822 245.965 7.5066 245.57 7.5066H243.631C242.338 7.5066 241.35 7.84781 240.668 8.53022C240.021 9.21263 239.518 9.96687 239.159 10.7929C238.836 11.619 238.584 12.4092 238.405 13.1634C238.261 13.9177 238.046 14.3846 237.758 14.5642C237.579 14.7078 237.363 14.7797 237.112 14.7797C236.681 14.7797 236.286 14.4923 235.927 13.9177L233.879 7.07561C233.843 6.93194 233.79 6.78828 233.718 6.64461C233.682 6.46503 233.664 6.32136 233.664 6.21361C233.664 6.06995 233.718 5.9622 233.826 5.89037C233.969 5.78262 234.203 5.72874 234.526 5.72874Z" fill="#E1DBD2"/>
<path fill-rule="evenodd" clip-rule="evenodd" d="M4.82846 53.4332C9.78943 51.5223 14.1486 51.5223 19.1096 53.4332C24.5332 55.5223 29.4048 55.5223 34.8285 53.4332C39.7894 51.5223 44.1486 51.5223 49.1096 53.4332C54.5332 55.5223 59.4048 55.5223 64.8285 53.4332C69.7894 51.5223 74.1486 51.5223 79.1096 53.4332C84.5332 55.5223 89.4048 55.5223 94.8285 53.4332C99.7894 51.5223 104.149 51.5223 109.11 53.4332C114.533 55.5223 119.405 55.5223 124.828 53.4332C129.789 51.5223 134.149 51.5223 139.11 53.4332C144.533 55.5223 149.405 55.5223 154.828 53.4332C159.789 51.5223 164.149 51.5223 169.11 53.4332C174.533 55.5223 179.405 55.5223 184.828 53.4332C189.789 51.5223 194.149 51.5223 199.11 53.4332C204.533 55.5223 209.405 55.5223 214.828 53.4332C219.789 51.5223 224.149 51.5223 229.11 53.4332C234.533 55.5223 239.405 55.5223 244.828 53.4332C249.789 51.5223 254.149 51.5223 259.11 53.4332C259.625 53.6317 260.204 53.3748 260.402 52.8594C260.601 52.3441 260.344 51.7653 259.828 51.5668C254.405 49.4777 249.533 49.4777 244.11 51.5668C239.149 53.4777 234.789 53.4777 229.828 51.5668C224.405 49.4777 219.533 49.4777 214.11 51.5668C209.149 53.4777 204.789 53.4777 199.828 51.5668C194.405 49.4777 189.533 49.4777 184.11 51.5668C179.15 53.4773 174.791 53.4777 169.832 51.568C169.831 51.5676 169.829 51.5672 169.828 51.5668C169.49 51.4363 169.153 51.3139 168.818 51.1996C163.794 49.4859 159.194 49.6083 154.11 51.5668C149.149 53.4777 144.789 53.4777 139.828 51.5668C134.405 49.4777 129.533 49.4777 124.11 51.5668C119.149 53.4777 114.789 53.4777 109.828 51.5668C104.405 49.4777 99.5332 49.4777 94.1096 51.5668C89.1486 53.4777 84.7894 53.4777 79.8285 51.5668C74.4048 49.4777 69.5332 49.4777 64.1096 51.5668C59.1486 53.4777 54.7894 53.4777 49.8285 51.5668C44.4048 49.4777 39.5332 49.4777 34.1096 51.5668C29.1486 53.4777 24.7894 53.4777 19.8285 51.5668C14.4048 49.4777 9.53323 49.4777 4.10958 51.5668C3.5942 51.7653 3.33734 52.3441 3.53585 52.8594C3.73437 53.3748 4.31309 53.6317 4.82846 53.4332Z" fill="#7F4FF9"/>
</svg>
