<svg width="338" height="56" viewBox="0 0 338 56" fill="none" xmlns="http://www.w3.org/2000/svg">
<g filter="url(#filter0_f_4932_113)">
<path d="M24.0769 38.998C29.0624 38.998 33.5253 36.4248 33.5253 32.2836C33.5253 24.2023 21.745 22.6744 21.745 15.5178C21.745 14.1106 22.1471 11.3766 25.645 11.3766C28.9418 11.3766 28.0975 16.5632 31.0325 16.5632C32.6006 16.5632 33.4851 15.3972 33.4851 14.3921C33.4851 11.6983 30.6707 10.0498 25.6048 10.0498C20.6192 10.0498 16.277 12.8642 16.277 17.0054C16.277 25.0868 27.9367 26.4136 27.9367 33.5702C27.9367 34.9774 27.5346 37.6712 24.0367 37.6712C21.1419 37.6712 21.5842 32.4847 18.6491 32.4847C17.0811 32.4847 16.1966 33.6506 16.1966 34.6558C16.1966 37.3496 19.4131 38.998 24.0769 38.998ZM35.8547 24.6445V42.5763C35.8547 45.8732 34.729 46.7979 34.729 47.7227C34.729 47.7227 34.729 48.6474 35.8547 48.6474H41.2021C41.966 48.6474 42.3278 48.3258 42.3278 47.7227C42.3278 46.7979 41.2021 45.8732 41.2021 42.5763V37.1083C42.4887 38.2743 44.0165 38.998 45.7051 38.998C50.1278 38.998 53.6659 34.0929 53.6659 28.5847C53.6659 23.0363 50.1278 18.091 45.7051 18.091C44.0165 18.091 42.4887 18.8147 41.2021 20.0209C41.2021 18.8549 40.7196 18.493 40.1165 18.493C39.5939 18.493 38.9506 18.8147 38.5485 19.1363L35.8547 21.3477C34.3269 22.594 34.6083 23.3579 35.8547 24.6445ZM44.0969 20.3425C46.9515 20.3425 47.7556 25.0064 47.7556 28.5847C47.7556 32.1228 46.9515 36.7465 44.0969 36.7465C43.0113 36.7465 42.0062 36.063 41.2021 35.0578V22.0714C42.0062 21.026 43.0113 20.3425 44.0969 20.3425ZM55.9969 24.6043V32.5249C55.9969 35.8217 54.8711 36.7465 54.8711 37.6712C54.8711 38.2743 55.233 38.5959 55.9969 38.5959H61.3442C61.3442 38.5959 62.47 38.5959 62.47 37.6712C62.47 36.7465 61.3442 35.8217 61.3442 32.5249V22.6744C62.7112 21.227 64.2793 20.2621 65.405 20.2621C67.1741 20.2621 66.8926 24.5239 69.8277 24.5239C71.3957 24.5239 72.2802 23.3579 72.2802 22.3528C72.2802 19.659 68.8627 18.091 66.37 18.091C64.3597 18.091 62.7112 19.0559 61.3442 20.4229V20.2219C61.3442 18.8951 60.8216 18.493 60.1783 18.493C59.6556 18.493 59.0525 18.7745 58.6907 19.0961L55.9969 21.3075C54.4691 22.5538 55.9969 22.7951 55.9969 24.6043ZM74.6078 24.7652V32.5249C74.6078 35.8217 73.482 36.7465 73.482 37.6712C73.482 37.6712 73.482 38.5959 74.6078 38.5959H79.9551C79.9551 38.5959 81.0809 38.5959 81.0809 37.6712C81.0809 36.7465 79.9551 35.8217 79.9551 32.5249V20.3827C79.9551 18.9353 79.4727 18.493 78.9098 18.493C78.3469 18.493 77.7036 18.8951 77.3016 19.257L74.6078 21.4683C73.0799 22.7147 73.3614 23.4786 74.6078 24.7652ZM73.6428 12.1405C73.6428 14.191 75.2511 15.7993 77.3016 15.7993C79.3118 15.7993 80.9201 14.191 80.9201 12.1405C80.9201 10.1302 79.3118 8.4416 77.3016 8.4416C75.2511 8.4416 73.6428 10.1302 73.6428 12.1405ZM83.4028 24.6043V32.5249C83.4028 35.8217 82.277 36.7465 82.277 37.6712C82.277 38.2743 82.6389 38.5959 83.4028 38.5959H88.7502C88.7502 38.5959 89.8759 38.5959 89.8759 37.6712C89.8759 36.7465 88.7502 35.8217 88.7502 32.5249V23.4384C90.0367 21.5487 91.6852 20.2621 92.9718 20.2621C95.2233 20.2621 95.1027 22.7951 94.9821 26.494C94.8212 30.9971 94.1377 34.0929 94.0573 36.5052C94.0171 37.9929 94.6604 38.5959 95.3439 38.5959H100.41C101.053 38.5959 101.576 38.2743 101.576 37.6712C101.576 36.5857 100.571 36.3042 100.329 35.098C100.008 33.4496 99.7665 24.8054 99.4047 22.7951C98.882 19.8198 96.5903 18.091 94.0171 18.091C91.8058 18.091 90.1172 19.3776 88.7502 21.0662V20.2219C88.7502 18.8951 88.2275 18.493 87.5842 18.493C87.0615 18.493 86.4584 18.7745 86.0966 19.0961L83.4028 21.3075C81.875 22.5538 83.4028 22.7951 83.4028 24.6043ZM101.093 44.8681C101.093 47.5618 104.27 48.6474 110.019 48.6474C112.592 48.6474 121.799 47.7629 121.799 41.2495C121.799 38.5959 120.151 34.897 111.627 34.897C110.341 34.897 109.255 34.9372 108.371 34.9372C107.004 34.9372 106.24 34.8568 106.36 34.4547C106.521 33.9321 106.762 33.2888 106.963 32.8063C108.491 33.4094 110.14 33.6104 111.587 33.6104C115.366 33.6104 120.714 32.2032 120.714 25.9311C120.714 19.86 115.728 18.2116 111.989 18.091C112.11 17.4879 112.914 14.5931 115.407 14.5931C117.618 14.5931 116.492 18.8951 119.427 18.8951C120.995 18.8951 121.88 17.7291 121.88 16.724C121.88 14.0302 118.422 12.8642 116.331 12.8642C111.828 12.8642 110.783 17.4477 110.622 18.1312C106.963 18.3724 102.46 20.1817 102.46 25.9311C102.46 29.1074 103.827 31.0373 105.677 32.163C105.556 32.4043 105.194 33.0878 104.672 34.2537C103.908 35.9826 104.873 37.5506 107.566 37.832C112.431 38.3547 115.768 39.199 115.768 42.3351C115.768 44.6268 114.361 47.3206 110.019 47.3206C105.677 47.3206 106.481 42.6969 103.546 42.6969C101.978 42.6969 101.093 43.8629 101.093 44.8681ZM111.587 19.4178C112.874 19.4178 114.804 20.4631 114.804 25.9311C114.804 31.3991 112.874 32.2836 111.587 32.2836C110.3 32.2836 108.371 31.3991 108.371 25.9311C108.371 20.4631 110.3 19.4178 111.587 19.4178ZM133.123 11.3766C133.123 12.3014 134.249 13.2261 134.249 16.523V32.5249C134.249 35.8217 133.123 36.7465 133.123 37.6712C133.123 37.6712 133.123 38.5959 134.249 38.5959H141.004C147.919 38.5959 153.186 34.2537 153.186 24.7249C153.186 14.7539 147.919 10.4519 141.004 10.4519H134.249C133.485 10.4519 133.123 10.7735 133.123 11.3766ZM139.596 32.5249V16.523C139.596 13.7086 139.476 11.7787 140.24 11.7787H141.004C142.692 11.7787 147.276 14.7539 147.276 24.7249C147.276 34.2537 142.813 37.2692 141.004 37.2692H140.24C139.476 37.2692 139.596 35.3393 139.596 32.5249ZM163.933 38.998C167.793 38.998 170.326 36.264 170.848 34.5754C171.21 33.4094 170.285 32.5651 169.32 32.5651C168.677 32.5651 167.994 32.9269 167.672 33.8115C166.988 35.6609 165.662 37.6712 163.933 37.6712C162.526 37.6712 160.314 35.2589 160.314 28.9868H164.536C167.953 28.9868 171.17 28.2631 171.17 24.3229C171.17 19.7796 167.31 18.091 163.651 18.091C157.741 18.091 154.404 21.9105 154.404 28.1826C154.404 34.0527 157.741 38.998 163.933 38.998ZM163.651 19.4178C164.817 19.4178 165.26 21.9105 165.26 24.1621C165.26 25.7703 164.817 27.66 162.928 27.66H160.354C160.596 22.2322 162.485 19.4178 163.651 19.4178ZM180.066 38.998C183.041 38.998 188.107 37.631 188.107 33.4898C188.107 28.2229 177.935 26.6548 177.935 22.3126C177.935 20.9054 178.94 19.4178 180.428 19.4178C183.323 19.4178 182.679 25.0064 185.614 25.0064C187.182 25.0064 188.067 23.8404 188.067 22.8353C188.067 20.1415 185.052 18.091 180.388 18.091C177.412 18.091 172.467 19.659 172.467 23.8002C172.467 29.0672 182.519 30.4342 182.519 34.7764C182.519 36.1836 181.513 37.6712 180.026 37.6712C177.131 37.6712 177.774 32.0826 174.839 32.0826C173.271 32.0826 172.387 33.2486 172.387 34.2537C172.387 36.9475 175.402 38.998 180.066 38.998ZM190.435 24.7652V32.5249C190.435 35.8217 189.309 36.7465 189.309 37.6712C189.309 37.6712 189.309 38.5959 190.435 38.5959H195.782C195.782 38.5959 196.908 38.5959 196.908 37.6712C196.908 36.7465 195.782 35.8217 195.782 32.5249V20.3827C195.782 18.9353 195.3 18.493 194.737 18.493C194.174 18.493 193.531 18.8951 193.129 19.257L190.435 21.4683C188.907 22.7147 189.189 23.4786 190.435 24.7652ZM189.47 12.1405C189.47 14.191 191.078 15.7993 193.129 15.7993C195.139 15.7993 196.747 14.191 196.747 12.1405C196.747 10.1302 195.139 8.4416 193.129 8.4416C191.078 8.4416 189.47 10.1302 189.47 12.1405ZM196.818 44.8681C196.818 47.5618 199.994 48.6474 205.743 48.6474C208.317 48.6474 217.524 47.7629 217.524 41.2495C217.524 38.5959 215.875 34.897 207.352 34.897C206.065 34.897 204.979 34.9372 204.095 34.9372C202.728 34.9372 201.964 34.8568 202.085 34.4547C202.245 33.9321 202.487 33.2888 202.688 32.8063C204.216 33.4094 205.864 33.6104 207.311 33.6104C211.091 33.6104 216.438 32.2032 216.438 25.9311C216.438 19.86 211.453 18.2116 207.713 18.091C207.834 17.4879 208.638 14.5931 211.131 14.5931C213.342 14.5931 212.217 18.8951 215.152 18.8951C216.72 18.8951 217.604 17.7291 217.604 16.724C217.604 14.0302 214.146 12.8642 212.056 12.8642C207.553 12.8642 206.507 17.4477 206.346 18.1312C202.688 18.3724 198.185 20.1817 198.185 25.9311C198.185 29.1074 199.552 31.0373 201.401 32.163C201.281 32.4043 200.919 33.0878 200.396 34.2537C199.632 35.9826 200.597 37.5506 203.291 37.832C208.156 38.3547 211.493 39.199 211.493 42.3351C211.493 44.6268 210.086 47.3206 205.743 47.3206C201.401 47.3206 202.205 42.6969 199.27 42.6969C197.702 42.6969 196.818 43.8629 196.818 44.8681ZM207.311 19.4178C208.598 19.4178 210.528 20.4631 210.528 25.9311C210.528 31.3991 208.598 32.2836 207.311 32.2836C206.025 32.2836 204.095 31.3991 204.095 25.9311C204.095 20.4631 206.025 19.4178 207.311 19.4178ZM219.922 24.6043V32.5249C219.922 35.8217 218.796 36.7465 218.796 37.6712C218.796 38.2743 219.158 38.5959 219.922 38.5959H225.269C225.269 38.5959 226.395 38.5959 226.395 37.6712C226.395 36.7465 225.269 35.8217 225.269 32.5249V23.4384C226.556 21.5487 228.204 20.2621 229.491 20.2621C231.742 20.2621 231.622 22.7951 231.501 26.494C231.34 30.9971 230.657 34.0929 230.576 36.5052C230.536 37.9929 231.18 38.5959 231.863 38.5959H236.929C237.572 38.5959 238.095 38.2743 238.095 37.6712C238.095 36.5857 237.09 36.3042 236.849 35.098C236.527 33.4496 236.286 24.8054 235.924 22.7951C235.401 19.8198 233.109 18.091 230.536 18.091C228.325 18.091 226.636 19.3776 225.269 21.0662V20.2219C225.269 18.8951 224.747 18.493 224.103 18.493C223.581 18.493 222.978 18.7745 222.616 19.0961L219.922 21.3075C218.394 22.5538 219.922 22.7951 219.922 24.6043ZM239.292 33.2486C239.292 36.1032 241.463 39.0382 244.92 39.0382C246.408 39.0382 248.137 38.3949 249.303 37.5104C249.504 38.2743 249.986 38.5959 250.469 38.5959H255.535C256.178 38.5959 256.701 38.2743 256.701 37.6712C256.701 36.5857 255.696 36.3042 255.454 35.098C255.133 33.4496 254.892 24.8054 254.53 22.7951C254.007 19.8198 252.238 18.091 247.695 18.091C242.87 18.091 239.493 19.659 239.493 22.3528C239.493 23.3579 240.096 24.5239 241.664 24.5239C244.599 24.5239 245.926 19.4178 247.695 19.4178C249.062 19.4178 249.826 21.3879 250.027 23.961C249.383 24.4033 248.539 24.926 247.735 25.2878C243.956 26.9765 239.292 28.062 239.292 33.2486ZM248.258 27.0971C249.021 26.5744 249.665 26.1321 250.107 25.8105V26.494C249.946 30.5146 249.424 33.4094 249.222 35.7011C248.619 36.063 248.016 36.3444 247.293 36.3444C245.483 36.3444 245.202 34.0527 245.202 32.8867C245.202 29.6703 246.891 28.062 248.258 27.0971ZM256.976 19.8198H259.791V29.9919C259.791 32.7661 259.228 38.5959 265.299 38.5959C269.279 38.5959 270.887 35.8217 271.048 34.1331C271.169 32.8867 270.284 32.2032 269.36 32.2032C268.556 32.2032 267.751 32.7259 267.671 33.8115C267.55 35.7011 267.43 37.1887 266.344 37.1887C265.138 37.1887 265.138 31.6805 265.138 29.9919V19.8198H267.952C268.877 19.8198 268.877 18.493 267.952 18.493H265.138V12.1807C265.138 10.8539 264.615 10.4519 263.972 10.4519C263.449 10.4519 262.846 10.7333 262.484 11.055L259.791 13.2663C258.263 14.5127 258.544 15.2766 259.791 16.5632V18.493H256.976C256.052 18.493 256.052 19.8198 256.976 19.8198ZM273.438 14.5529V32.5249C273.438 35.8217 272.312 36.7465 272.312 37.6712C272.312 38.2743 272.674 38.5959 273.438 38.5959H278.785C278.785 38.5959 279.911 38.5959 279.911 37.6712C279.911 36.7465 278.785 35.8217 278.785 32.5249V23.4384C280.072 21.5487 281.72 20.2621 283.007 20.2621C285.259 20.2621 285.138 22.7951 285.017 26.494C284.856 30.9971 284.173 34.0929 284.093 36.5052C284.052 37.9929 284.696 38.5959 285.379 38.5959H290.445C291.088 38.5959 291.611 38.2743 291.611 37.6712C291.611 36.5857 290.606 36.3042 290.365 35.098C290.043 33.4496 289.802 24.8054 289.44 22.7951C288.917 19.8198 286.626 18.091 284.052 18.091C281.841 18.091 280.152 19.3776 278.785 21.0662V10.1704C278.785 8.84366 278.263 8.4416 277.619 8.4416C277.097 8.4416 276.494 8.72304 276.132 9.04468L273.438 11.256C271.91 12.5024 273.438 12.7436 273.438 14.5529ZM302.337 38.998C308.528 38.998 311.865 34.8166 311.865 28.5445C311.865 22.2724 308.528 18.091 302.337 18.091C296.145 18.091 292.808 22.2724 292.808 28.5445C292.808 34.8166 296.145 38.998 302.337 38.998ZM298.718 28.5445C298.718 22.2724 300.648 19.4178 302.337 19.4178C304.025 19.4178 305.955 22.2724 305.955 28.5445C305.955 34.8166 304.025 37.6712 302.337 37.6712C300.648 37.6712 298.718 34.8166 298.718 28.5445ZM314.194 24.6043V32.5249C314.194 35.8217 313.068 36.7465 313.068 37.6712C313.068 38.2743 313.43 38.5959 314.194 38.5959H319.541C319.541 38.5959 320.667 38.5959 320.667 37.6712C320.667 36.7465 319.541 35.8217 319.541 32.5249V23.4384C320.827 21.5487 322.476 20.2621 323.762 20.2621C326.014 20.2621 325.893 22.7951 325.773 26.494C325.612 30.9971 324.928 34.0929 324.848 36.5052C324.808 37.9929 325.451 38.5959 326.135 38.5959H331.201C331.844 38.5959 332.367 38.2743 332.367 37.6712C332.367 36.5857 331.361 36.3042 331.12 35.098C330.799 33.4496 330.557 24.8054 330.195 22.7951C329.673 19.8198 327.381 18.091 324.808 18.091C322.597 18.091 320.908 19.3776 319.541 21.0662V20.2219C319.541 18.8951 319.018 18.493 318.375 18.493C317.852 18.493 317.249 18.7745 316.887 19.0961L314.194 21.3075C312.666 22.5538 314.194 22.7951 314.194 24.6043Z" fill="#E1DBD2"/>
</g>
<g filter="url(#filter1_f_4932_113)">
<path d="M24.0769 39.6264C29.0624 39.6264 33.5253 37.0533 33.5253 32.9121C33.5253 24.8307 21.745 23.3029 21.745 16.1462C21.745 14.739 22.1471 12.005 25.645 12.005C28.9418 12.005 28.0975 17.1916 31.0325 17.1916C32.6006 17.1916 33.4851 16.0256 33.4851 15.0205C33.4851 12.3267 30.6707 10.6782 25.6048 10.6782C20.6192 10.6782 16.277 13.4927 16.277 17.6339C16.277 25.7152 27.9367 27.042 27.9367 34.1986C27.9367 35.6058 27.5346 38.2996 24.0367 38.2996C21.1419 38.2996 21.5842 33.1131 18.6491 33.1131C17.0811 33.1131 16.1966 34.2791 16.1966 35.2842C16.1966 37.978 19.4131 39.6264 24.0769 39.6264ZM35.8547 25.273V43.2047C35.8547 46.5016 34.729 47.4263 34.729 48.3511C34.729 48.3511 34.729 49.2758 35.8547 49.2758H41.2021C41.966 49.2758 42.3278 48.9542 42.3278 48.3511C42.3278 47.4263 41.2021 46.5016 41.2021 43.2047V37.7368C42.4887 38.9027 44.0165 39.6264 45.7051 39.6264C50.1278 39.6264 53.6659 34.7213 53.6659 29.2131C53.6659 23.6647 50.1278 18.7194 45.7051 18.7194C44.0165 18.7194 42.4887 19.4431 41.2021 20.6493C41.2021 19.4833 40.7196 19.1215 40.1165 19.1215C39.5939 19.1215 38.9506 19.4431 38.5485 19.7648L35.8547 21.9761C34.3269 23.2225 34.6083 23.9864 35.8547 25.273ZM44.0969 20.9709C46.9515 20.9709 47.7556 25.6348 47.7556 29.2131C47.7556 32.7512 46.9515 37.3749 44.0969 37.3749C43.0113 37.3749 42.0062 36.6914 41.2021 35.6863V22.6998C42.0062 21.6544 43.0113 20.9709 44.0969 20.9709ZM55.9969 25.2327V33.1533C55.9969 36.4502 54.8711 37.3749 54.8711 38.2996C54.8711 38.9027 55.233 39.2244 55.9969 39.2244H61.3442C61.3442 39.2244 62.47 39.2244 62.47 38.2996C62.47 37.3749 61.3442 36.4502 61.3442 33.1533V23.3029C62.7112 21.8555 64.2793 20.8905 65.405 20.8905C67.1741 20.8905 66.8926 25.1523 69.8277 25.1523C71.3957 25.1523 72.2802 23.9864 72.2802 22.9812C72.2802 20.2874 68.8627 18.7194 66.37 18.7194C64.3597 18.7194 62.7112 19.6843 61.3442 21.0513V20.8503C61.3442 19.5235 60.8216 19.1215 60.1783 19.1215C59.6556 19.1215 59.0525 19.4029 58.6907 19.7246L55.9969 21.9359C54.4691 23.1823 55.9969 23.4235 55.9969 25.2327ZM74.6078 25.3936V33.1533C74.6078 36.4502 73.482 37.3749 73.482 38.2996C73.482 38.2996 73.482 39.2244 74.6078 39.2244H79.9551C79.9551 39.2244 81.0809 39.2244 81.0809 38.2996C81.0809 37.3749 79.9551 36.4502 79.9551 33.1533V21.0111C79.9551 19.5637 79.4727 19.1215 78.9098 19.1215C78.3469 19.1215 77.7036 19.5235 77.3016 19.8854L74.6078 22.0967C73.0799 23.3431 73.3614 24.107 74.6078 25.3936ZM73.6428 12.7689C73.6428 14.8194 75.2511 16.4277 77.3016 16.4277C79.3118 16.4277 80.9201 14.8194 80.9201 12.7689C80.9201 10.7587 79.3118 9.07001 77.3016 9.07001C75.2511 9.07001 73.6428 10.7587 73.6428 12.7689ZM83.4028 25.2327V33.1533C83.4028 36.4502 82.277 37.3749 82.277 38.2996C82.277 38.9027 82.6389 39.2244 83.4028 39.2244H88.7502C88.7502 39.2244 89.8759 39.2244 89.8759 38.2996C89.8759 37.3749 88.7502 36.4502 88.7502 33.1533V24.0668C90.0367 22.1771 91.6852 20.8905 92.9718 20.8905C95.2233 20.8905 95.1027 23.4235 94.9821 27.1224C94.8212 31.6255 94.1377 34.7213 94.0573 37.1337C94.0171 38.6213 94.6604 39.2244 95.3439 39.2244H100.41C101.053 39.2244 101.576 38.9027 101.576 38.2996C101.576 37.2141 100.571 36.9326 100.329 35.7265C100.008 34.078 99.7665 25.4338 99.4047 23.4235C98.882 20.4483 96.5903 18.7194 94.0171 18.7194C91.8058 18.7194 90.1172 20.006 88.7502 21.6946V20.8503C88.7502 19.5235 88.2275 19.1215 87.5842 19.1215C87.0615 19.1215 86.4584 19.4029 86.0966 19.7246L83.4028 21.9359C81.875 23.1823 83.4028 23.4235 83.4028 25.2327ZM101.093 45.4965C101.093 48.1903 104.27 49.2758 110.019 49.2758C112.592 49.2758 121.799 48.3913 121.799 41.8779C121.799 39.2244 120.151 35.5254 111.627 35.5254C110.341 35.5254 109.255 35.5656 108.371 35.5656C107.004 35.5656 106.24 35.4852 106.36 35.0832C106.521 34.5605 106.762 33.9172 106.963 33.4347C108.491 34.0378 110.14 34.2388 111.587 34.2388C115.366 34.2388 120.714 32.8316 120.714 26.5595C120.714 20.4885 115.728 18.84 111.989 18.7194C112.11 18.1163 112.914 15.2215 115.407 15.2215C117.618 15.2215 116.492 19.5235 119.427 19.5235C120.995 19.5235 121.88 18.3576 121.88 17.3524C121.88 14.6586 118.422 13.4927 116.331 13.4927C111.828 13.4927 110.783 18.0761 110.622 18.7596C106.963 19.0008 102.46 20.8101 102.46 26.5595C102.46 29.7358 103.827 31.6657 105.677 32.7914C105.556 33.0327 105.194 33.7162 104.672 34.8821C103.908 36.611 104.873 38.179 107.566 38.4605C112.431 38.9831 115.768 39.8275 115.768 42.9635C115.768 45.2552 114.361 47.949 110.019 47.949C105.677 47.949 106.481 43.3254 103.546 43.3254C101.978 43.3254 101.093 44.4913 101.093 45.4965ZM111.587 20.0462C112.874 20.0462 114.804 21.0915 114.804 26.5595C114.804 32.0275 112.874 32.9121 111.587 32.9121C110.3 32.9121 108.371 32.0275 108.371 26.5595C108.371 21.0915 110.3 20.0462 111.587 20.0462ZM133.123 12.005C133.123 12.9298 134.249 13.8545 134.249 17.1514V33.1533C134.249 36.4502 133.123 37.3749 133.123 38.2996C133.123 38.2996 133.123 39.2244 134.249 39.2244H141.004C147.919 39.2244 153.186 34.8821 153.186 25.3534C153.186 15.3823 147.919 11.0803 141.004 11.0803H134.249C133.485 11.0803 133.123 11.402 133.123 12.005ZM139.596 33.1533V17.1514C139.596 14.337 139.476 12.4071 140.24 12.4071H141.004C142.692 12.4071 147.276 15.3823 147.276 25.3534C147.276 34.8821 142.813 37.8976 141.004 37.8976H140.24C139.476 37.8976 139.596 35.9677 139.596 33.1533ZM163.933 39.6264C167.793 39.6264 170.326 36.8924 170.848 35.2038C171.21 34.0378 170.285 33.1935 169.32 33.1935C168.677 33.1935 167.994 33.5553 167.672 34.4399C166.988 36.2893 165.662 38.2996 163.933 38.2996C162.526 38.2996 160.314 35.8873 160.314 29.6152H164.536C167.953 29.6152 171.17 28.8915 171.17 24.9513C171.17 20.4081 167.31 18.7194 163.651 18.7194C157.741 18.7194 154.404 22.539 154.404 28.8111C154.404 34.6811 157.741 39.6264 163.933 39.6264ZM163.651 20.0462C164.817 20.0462 165.26 22.539 165.26 24.7905C165.26 26.3987 164.817 28.2884 162.928 28.2884H160.354C160.596 22.8606 162.485 20.0462 163.651 20.0462ZM180.066 39.6264C183.041 39.6264 188.107 38.2594 188.107 34.1182C188.107 28.8513 177.935 27.2832 177.935 22.941C177.935 21.5338 178.94 20.0462 180.428 20.0462C183.323 20.0462 182.679 25.6348 185.614 25.6348C187.182 25.6348 188.067 24.4688 188.067 23.4637C188.067 20.7699 185.052 18.7194 180.388 18.7194C177.412 18.7194 172.467 20.2874 172.467 24.4286C172.467 29.6956 182.519 31.0626 182.519 35.4048C182.519 36.812 181.513 38.2996 180.026 38.2996C177.131 38.2996 177.774 32.711 174.839 32.711C173.271 32.711 172.387 33.877 172.387 34.8821C172.387 37.5759 175.402 39.6264 180.066 39.6264ZM190.435 25.3936V33.1533C190.435 36.4502 189.309 37.3749 189.309 38.2996C189.309 38.2996 189.309 39.2244 190.435 39.2244H195.782C195.782 39.2244 196.908 39.2244 196.908 38.2996C196.908 37.3749 195.782 36.4502 195.782 33.1533V21.0111C195.782 19.5637 195.3 19.1215 194.737 19.1215C194.174 19.1215 193.531 19.5235 193.129 19.8854L190.435 22.0967C188.907 23.3431 189.189 24.107 190.435 25.3936ZM189.47 12.7689C189.47 14.8194 191.078 16.4277 193.129 16.4277C195.139 16.4277 196.747 14.8194 196.747 12.7689C196.747 10.7587 195.139 9.07001 193.129 9.07001C191.078 9.07001 189.47 10.7587 189.47 12.7689ZM196.818 45.4965C196.818 48.1903 199.994 49.2758 205.743 49.2758C208.317 49.2758 217.524 48.3913 217.524 41.8779C217.524 39.2244 215.875 35.5254 207.352 35.5254C206.065 35.5254 204.979 35.5656 204.095 35.5656C202.728 35.5656 201.964 35.4852 202.085 35.0832C202.245 34.5605 202.487 33.9172 202.688 33.4347C204.216 34.0378 205.864 34.2388 207.311 34.2388C211.091 34.2388 216.438 32.8316 216.438 26.5595C216.438 20.4885 211.453 18.84 207.713 18.7194C207.834 18.1163 208.638 15.2215 211.131 15.2215C213.342 15.2215 212.217 19.5235 215.152 19.5235C216.72 19.5235 217.604 18.3576 217.604 17.3524C217.604 14.6586 214.146 13.4927 212.056 13.4927C207.553 13.4927 206.507 18.0761 206.346 18.7596C202.688 19.0008 198.185 20.8101 198.185 26.5595C198.185 29.7358 199.552 31.6657 201.401 32.7914C201.281 33.0327 200.919 33.7162 200.396 34.8821C199.632 36.611 200.597 38.179 203.291 38.4605C208.156 38.9831 211.493 39.8275 211.493 42.9635C211.493 45.2552 210.086 47.949 205.743 47.949C201.401 47.949 202.205 43.3254 199.27 43.3254C197.702 43.3254 196.818 44.4913 196.818 45.4965ZM207.311 20.0462C208.598 20.0462 210.528 21.0915 210.528 26.5595C210.528 32.0275 208.598 32.9121 207.311 32.9121C206.025 32.9121 204.095 32.0275 204.095 26.5595C204.095 21.0915 206.025 20.0462 207.311 20.0462ZM219.922 25.2327V33.1533C219.922 36.4502 218.796 37.3749 218.796 38.2996C218.796 38.9027 219.158 39.2244 219.922 39.2244H225.269C225.269 39.2244 226.395 39.2244 226.395 38.2996C226.395 37.3749 225.269 36.4502 225.269 33.1533V24.0668C226.556 22.1771 228.204 20.8905 229.491 20.8905C231.742 20.8905 231.622 23.4235 231.501 27.1224C231.34 31.6255 230.657 34.7213 230.576 37.1337C230.536 38.6213 231.18 39.2244 231.863 39.2244H236.929C237.572 39.2244 238.095 38.9027 238.095 38.2996C238.095 37.2141 237.09 36.9326 236.849 35.7265C236.527 34.078 236.286 25.4338 235.924 23.4235C235.401 20.4483 233.109 18.7194 230.536 18.7194C228.325 18.7194 226.636 20.006 225.269 21.6946V20.8503C225.269 19.5235 224.747 19.1215 224.103 19.1215C223.581 19.1215 222.978 19.4029 222.616 19.7246L219.922 21.9359C218.394 23.1823 219.922 23.4235 219.922 25.2327ZM239.292 33.877C239.292 36.7316 241.463 39.6666 244.92 39.6666C246.408 39.6666 248.137 39.0233 249.303 38.1388C249.504 38.9027 249.986 39.2244 250.469 39.2244H255.535C256.178 39.2244 256.701 38.9027 256.701 38.2996C256.701 37.2141 255.696 36.9326 255.454 35.7265C255.133 34.078 254.892 25.4338 254.53 23.4235C254.007 20.4483 252.238 18.7194 247.695 18.7194C242.87 18.7194 239.493 20.2874 239.493 22.9812C239.493 23.9864 240.096 25.1523 241.664 25.1523C244.599 25.1523 245.926 20.0462 247.695 20.0462C249.062 20.0462 249.826 22.0163 250.027 24.5895C249.383 25.0317 248.539 25.5544 247.735 25.9162C243.956 27.6049 239.292 28.6904 239.292 33.877ZM248.258 27.7255C249.021 27.2028 249.665 26.7606 250.107 26.4389V27.1224C249.946 31.143 249.424 34.0378 249.222 36.3295C248.619 36.6914 248.016 36.9728 247.293 36.9728C245.483 36.9728 245.202 34.6811 245.202 33.5151C245.202 30.2987 246.891 28.6904 248.258 27.7255ZM256.976 20.4483H259.791V30.6203C259.791 33.3945 259.228 39.2244 265.299 39.2244C269.279 39.2244 270.887 36.4502 271.048 34.7615C271.169 33.5151 270.284 32.8316 269.36 32.8316C268.556 32.8316 267.751 33.3543 267.671 34.4399C267.55 36.3295 267.43 37.8172 266.344 37.8172C265.138 37.8172 265.138 32.309 265.138 30.6203V20.4483H267.952C268.877 20.4483 268.877 19.1215 267.952 19.1215H265.138V12.8092C265.138 11.4824 264.615 11.0803 263.972 11.0803C263.449 11.0803 262.846 11.3617 262.484 11.6834L259.791 13.8947C258.263 15.1411 258.544 15.905 259.791 17.1916V19.1215H256.976C256.052 19.1215 256.052 20.4483 256.976 20.4483ZM273.438 15.1813V33.1533C273.438 36.4502 272.312 37.3749 272.312 38.2996C272.312 38.9027 272.674 39.2244 273.438 39.2244H278.785C278.785 39.2244 279.911 39.2244 279.911 38.2996C279.911 37.3749 278.785 36.4502 278.785 33.1533V24.0668C280.072 22.1771 281.72 20.8905 283.007 20.8905C285.259 20.8905 285.138 23.4235 285.017 27.1224C284.856 31.6255 284.173 34.7213 284.093 37.1337C284.052 38.6213 284.696 39.2244 285.379 39.2244H290.445C291.088 39.2244 291.611 38.9027 291.611 38.2996C291.611 37.2141 290.606 36.9326 290.365 35.7265C290.043 34.078 289.802 25.4338 289.44 23.4235C288.917 20.4483 286.626 18.7194 284.052 18.7194C281.841 18.7194 280.152 20.006 278.785 21.6946V10.7989C278.785 9.47207 278.263 9.07001 277.619 9.07001C277.097 9.07001 276.494 9.35146 276.132 9.6731L273.438 11.8844C271.91 13.1308 273.438 13.372 273.438 15.1813ZM302.337 39.6264C308.528 39.6264 311.865 35.445 311.865 29.1729C311.865 22.9008 308.528 18.7194 302.337 18.7194C296.145 18.7194 292.808 22.9008 292.808 29.1729C292.808 35.445 296.145 39.6264 302.337 39.6264ZM298.718 29.1729C298.718 22.9008 300.648 20.0462 302.337 20.0462C304.025 20.0462 305.955 22.9008 305.955 29.1729C305.955 35.445 304.025 38.2996 302.337 38.2996C300.648 38.2996 298.718 35.445 298.718 29.1729ZM314.194 25.2327V33.1533C314.194 36.4502 313.068 37.3749 313.068 38.2996C313.068 38.9027 313.43 39.2244 314.194 39.2244H319.541C319.541 39.2244 320.667 39.2244 320.667 38.2996C320.667 37.3749 319.541 36.4502 319.541 33.1533V24.0668C320.827 22.1771 322.476 20.8905 323.762 20.8905C326.014 20.8905 325.893 23.4235 325.773 27.1224C325.612 31.6255 324.928 34.7213 324.848 37.1337C324.808 38.6213 325.451 39.2244 326.135 39.2244H331.201C331.844 39.2244 332.367 38.9027 332.367 38.2996C332.367 37.2141 331.361 36.9326 331.12 35.7265C330.799 34.078 330.557 25.4338 330.195 23.4235C329.673 20.4483 327.381 18.7194 324.808 18.7194C322.597 18.7194 320.908 20.006 319.541 21.6946V20.8503C319.541 19.5235 319.018 19.1215 318.375 19.1215C317.852 19.1215 317.249 19.4029 316.887 19.7246L314.194 21.9359C312.666 23.1823 314.194 23.4235 314.194 25.2327Z" fill="#E1DBD2"/>
</g>
<path d="M335.95 17.4475C336.269 16.6761 336.353 15.8567 336.433 15.0287C336.527 14.0687 336.657 13.0123 336.261 12.0939C335.611 10.5828 334.193 9.34288 332.696 8.72906C328.328 6.93864 324.32 11.5377 324.555 15.7066C324.723 18.6805 326.736 21.9341 330.068 21.6889C331.711 21.568 333.421 20.4861 334.523 19.3234C335.255 18.5503 335.813 17.6048 336.163 16.5996C336.582 15.3969 336.471 14.16 336.503 12.9132" stroke="#8151FB" stroke-linecap="round"/>
<path d="M331.711 11.4016C331.826 11.5122 331.86 11.5993 331.889 11.7682C331.992 12.3649 331.946 12.9753 331.969 13.5766" stroke="#8151FB" stroke-linecap="round"/>
<path d="M329.315 11.9915C329.387 12.7033 329.065 13.3884 328.872 14.0559" stroke="#8151FB" stroke-linecap="round"/>
<path d="M327.665 15.4729C327.645 16.0616 327.727 16.6535 327.806 17.2361C327.882 17.8013 327.986 18.3889 328.166 18.932C328.47 19.847 329.788 19.6813 330.52 19.5095C331.054 19.3843 331.574 19.1671 332.052 18.9002C332.252 18.7889 332.495 18.6582 332.661 18.5008C333.133 18.052 333.396 17.3614 333.642 16.7809C333.848 16.2964 334.158 15.6574 334.197 15.1071C334.203 15.0224 334.145 14.9052 334.106 14.8328C334.02 14.6715 333.911 14.6129 333.746 14.5547" stroke="#8151FB" stroke-linecap="round"/>
<path d="M116.744 8.69361C116.773 8.62344 116.804 8.57557 116.85 8.50783C117.108 8.12691 117.382 7.75777 117.647 7.38229C118.081 6.76891 118.472 6.13218 118.851 5.48326C119.04 5.15824 119.414 4.5269 119.579 4.13146C119.668 3.91971 119.667 3.93272 119.604 3.77869C119.484 3.48437 119.165 3.29813 118.891 3.15773C118.594 3.00557 118.302 3.02056 117.993 3.13893C117.639 3.27422 117.249 3.49197 117.031 3.80978C116.757 4.20961 116.626 4.61561 116.593 5.09652C116.555 5.64507 116.559 6.21478 116.65 6.75771C116.702 7.0702 116.739 7.38763 116.78 7.70181C116.81 7.93801 116.828 8.16558 116.757 8.39433" stroke="#8151FB" stroke-linecap="round"/>
<path d="M121.44 7.9301C121.556 7.74174 121.679 7.63739 121.875 7.51466C122.211 7.30395 122.6 7.05869 122.989 6.95674C123.289 6.87818 123.639 6.94745 123.946 6.94116C124.387 6.93212 124.821 6.82699 125.261 6.80181C125.869 6.76704 126.442 6.70349 127.039 6.58047C128 6.38247 128.882 5.9081 129.486 5.12454C129.764 4.76326 129.998 4.3588 130.014 3.89166C130.028 3.47122 129.812 2.98625 129.572 2.64595C129.173 2.08132 128.328 1.59804 127.652 1.51058C126.777 1.39737 125.854 1.97985 125.211 2.51523C124.178 3.37626 123.309 4.28957 122.653 5.47289C122.38 5.96608 122.124 6.4519 121.942 6.98721C121.838 7.29069 121.797 7.60942 121.632 7.88534" stroke="#8151FB" stroke-linecap="round"/>
<path d="M12.9147 37.7651C12.4163 39.0356 12.5255 40.5153 12.6478 41.8414C12.7104 42.5206 12.7865 42.9818 12.9026 43.6135C12.9566 43.907 12.9296 43.8467 12.9579 43.7521" stroke="#8151FB" stroke-linecap="round"/>
<path d="M16.1605 37.7651C15.6811 38.4091 15.5825 39.3352 15.5017 40.1094C15.4558 40.5485 15.4178 40.9924 15.4279 41.4343C15.4409 41.9973 15.5301 42.5504 15.6403 43.1013C15.6756 43.2776 15.7017 43.4558 15.7453 43.6303C15.7795 43.7669 15.7426 43.5699 15.7413 43.5109C15.7247 42.7485 15.7264 41.9877 15.7493 41.2251C15.7745 40.3844 15.7787 39.5153 16.0691 38.7157C16.12 38.5754 16.1816 38.4354 16.2174 38.2901C16.234 38.2228 16.2359 38.1192 16.2839 38.0625C16.307 38.0352 16.4176 38.0342 16.4057 38.0104" stroke="#8151FB" stroke-linecap="round"/>
<path d="M16.0452 38.1114C16.3603 38.0873 16.6855 38.1496 16.9973 38.1835C17.4701 38.2348 17.9433 38.282 18.4159 38.3342C19.1603 38.4163 19.8962 38.3997 20.6448 38.3863C21.1339 38.3775 21.6396 38.4088 22.1235 38.3245C22.3232 38.2898 22.5954 38.2244 22.7214 38.0472C22.8668 37.8429 22.8791 37.5448 22.8898 37.3059C22.9095 36.863 22.8629 36.4468 22.7904 36.0115C22.7063 35.5072 22.5237 35.0287 22.3295 34.5576C22.0871 33.9694 21.7931 33.3953 21.4335 32.8697C20.7979 31.9408 19.9621 31.1973 19.0202 30.5887C18.4793 30.2392 17.9251 29.9061 17.3524 29.6109C16.7192 29.2846 16.0749 29.0832 15.3784 28.9393C14.4146 28.7402 13.4211 28.6454 12.453 28.8736C12.0667 28.9647 11.6894 29.0659 11.3101 29.183C10.9915 29.2813 10.6807 29.3595 10.3836 29.5164C9.21387 30.1337 8.33757 31.0538 7.63936 32.1676C7.42621 32.5077 7.22204 32.8307 7.04948 33.1943C6.84582 33.6235 6.73874 34.0424 6.65996 34.5087C6.59687 34.8823 6.56121 35.2487 6.56779 35.6276C6.57168 35.8511 6.56281 36.0992 6.64634 36.3112C6.67636 36.3874 6.74006 36.3978 6.80423 36.4299C6.90273 36.4791 6.98435 36.5722 7.07673 36.6334C7.19488 36.7117 7.30765 36.7876 7.4446 36.8282C7.73676 36.9148 8.00649 37.0501 8.29336 37.1504C8.70716 37.295 9.14625 37.338 9.57411 37.4221C10.1209 37.5296 10.6526 37.6988 11.2123 37.7299C11.5098 37.7464 11.8247 37.7457 12.1196 37.6962C12.2625 37.6722 12.4198 37.6928 12.554 37.6353" stroke="#8151FB" stroke-linecap="round"/>
<path d="M19.2045 30.8835C18.9167 31.2154 18.5037 31.5449 18.4046 31.9896C18.3121 32.4054 18.2325 32.8715 18.3261 33.2928C18.4177 33.7051 18.6353 34.048 19.0154 34.2465C19.2878 34.3888 19.6519 34.4278 19.9539 34.4084C20.4123 34.379 20.7815 34.0437 21.1553 33.8121C21.2632 33.7453 21.3543 33.6249 21.4687 33.5749C21.5324 33.547 21.517 33.577 21.4839 33.6101" stroke="#8151FB" stroke-linecap="round"/>
<path d="M12.2654 29.6143C12.3087 29.7026 12.3273 29.7823 12.3423 29.8819C12.393 30.2172 12.4401 30.5787 12.3728 30.915C12.32 31.179 12.1282 31.4679 11.9464 31.6612C11.5364 32.0972 10.9464 32.1997 10.3723 32.1181C10.0417 32.071 9.77075 31.9861 9.52196 31.759C9.41385 31.6603 9.32154 31.5466 9.21821 31.4432C9.17797 31.403 9.14757 31.372 9.12844 31.3174C9.09062 31.2093 9.01339 31.1723 8.91846 31.1002" stroke="#8151FB" stroke-linecap="round"/>
<path d="M13.3329 35.5434C13.3517 35.4357 13.3282 35.3439 13.2961 35.2373C13.2019 34.9243 13.0796 34.5872 12.836 34.3573C12.6767 34.2069 12.3985 34.125 12.182 34.1328C11.5286 34.1565 10.9164 34.6058 10.874 35.2838C10.8457 35.7376 10.9898 36.2437 11.4655 36.381C11.7366 36.4592 12.0307 36.4874 12.3079 36.4218C12.6363 36.3441 12.8967 36.0839 13.131 35.8608" stroke="#8151FB" stroke-linecap="round"/>
<path d="M7.87703 43.3223C7.96569 43.6165 8.07254 43.913 8.13096 44.215C8.14153 44.2696 8.18228 44.4111 8.13495 44.3818C8.04852 44.3285 8.02495 44.2107 7.97807 44.1206C7.89985 43.9703 7.83154 43.8149 7.76004 43.6613C7.70834 43.5501 7.65983 43.4376 7.60849 43.3263C7.46477 43.0147 7.59889 43.2283 7.54866 43.2139C7.54364 43.2125 7.54048 43.2039 7.548 43.2039C7.61311 43.2039 7.70628 43.374 7.72947 43.418C7.8183 43.5867 7.86554 43.7717 7.91825 43.9538C8.05676 44.4322 8.21348 44.9053 8.35032 45.3842C8.47566 45.8229 8.56183 46.2742 8.62551 46.7257C8.66486 47.0046 8.70438 47.2875 8.68401 47.5699C8.67702 47.6667 8.66787 47.7634 8.66141 47.8603C8.6613 47.8619 8.66117 47.9513 8.67603 47.9381C8.73399 47.8866 8.70719 47.6814 8.7086 47.6297C8.71834 47.2735 8.71973 46.9102 8.66806 46.5568C8.59718 46.0722 8.4431 45.5981 8.29049 45.1343C8.07227 44.4711 7.8249 43.8233 7.42236 43.2505" stroke="#8151FB" stroke-linecap="round"/>
<path d="M5.61564 44.0642C5.72544 44.1212 5.75664 44.2111 5.80974 44.3274C6.04423 44.8411 6.24756 45.3779 6.3495 45.9347C6.47467 46.6185 6.47769 47.3142 6.42793 48.0054C6.414 48.1989 6.39443 48.3918 6.37675 48.585C6.37308 48.6251 6.36934 48.6747 6.36345 48.7159C6.36073 48.7351 6.36259 48.7846 6.34817 48.7718C6.31612 48.7433 6.35748 48.5642 6.36279 48.5258C6.40618 48.2125 6.45411 47.9011 6.4492 47.5833C6.43854 46.8926 6.30504 46.2439 6.08361 45.5937C5.96421 45.2432 5.84137 44.8994 5.67015 44.5707C5.65311 44.538 5.52507 44.3514 5.60368 44.3514" stroke="#8151FB" stroke-linecap="round"/>
<path d="M7.53011 43.083C7.93304 42.9051 8.33382 42.7223 8.73659 42.5439C8.96874 42.4411 9.20581 42.3468 9.42923 42.2255C9.56028 42.1544 9.68786 42.0775 9.82873 42.0268C9.89436 42.0031 9.95688 41.9876 10.0109 41.941C10.1466 41.824 10.0381 41.6351 9.97164 41.5109C9.72681 41.0535 9.40452 40.6407 9.03771 40.2739C8.28667 39.5229 7.27492 39.2496 6.26182 39.0575C5.75998 38.9623 5.23324 38.9431 4.7303 39.0468C4.50569 39.0931 4.28695 39.1588 4.07022 39.2329C3.86838 39.302 3.65422 39.3576 3.46732 39.4629C2.70491 39.8927 2.01286 40.4288 1.67788 41.2617C1.50917 41.6811 1.3302 42.095 1.16339 42.5153C0.971526 42.9988 0.814048 43.491 0.658197 43.987C0.566113 44.2801 0.490864 44.5726 0.5545 44.8804C0.592908 45.0662 0.711923 45.2918 0.926745 45.2966C1.16261 45.3018 1.40631 45.2746 1.64066 45.2513C2.13582 45.2022 2.61611 45.1639 3.08045 44.9748C3.89724 44.6422 4.63616 44.1347 5.46016 43.8189C5.56862 43.7773 5.61325 43.7638 5.50536 43.8501C5.42423 43.915 5.3293 43.9629 5.24014 44.0156C5.08391 44.108 4.94723 44.2282 4.79544 44.3274C4.56946 44.475 4.33503 44.6208 4.09415 44.7422C3.78517 44.8979 3.41502 45.0751 3.06849 45.1171C2.61506 45.172 2.14687 45.1671 1.69118 45.1583C1.56825 45.1559 1.30227 45.1763 1.18001 45.0818C1.05294 44.9837 0.912713 44.852 0.839002 44.7076C0.6231 44.2846 0.643812 43.7312 0.69941 43.2765C0.772126 42.6817 0.970475 42.0994 1.26243 41.5774C1.84216 40.5409 2.72794 39.6049 3.86881 39.2024C4.28036 39.0572 4.72343 38.9366 5.15971 38.9032C5.65093 38.8657 6.16474 38.8926 6.65401 38.9458C7.13247 38.9977 7.60509 39.1252 8.0353 39.3446C8.55344 39.6089 8.90352 40.0485 9.22383 40.5238C9.32794 40.6783 9.43927 40.8332 9.51897 41.0024C9.57342 41.1181 9.61342 41.2396 9.6692 41.3547C9.71336 41.4459 9.7703 41.5324 9.75561 41.6353" stroke="#8151FB" stroke-linecap="round"/>
<path d="M5.57842 39.4226C5.50001 39.4858 5.47394 39.5679 5.42952 39.6592C5.23013 40.0693 5.00279 40.4812 4.61922 40.7474C4.311 40.9613 3.91801 41.0052 3.5643 40.897C3.3173 40.8214 3.10787 40.6582 2.88961 40.526C2.75179 40.4426 2.6659 40.3573 2.5752 40.2243" stroke="#8151FB" stroke-linecap="round"/>
<path d="M3.88066 43.9327C3.707 43.5854 3.45877 43.2616 3.16542 43.0074C2.90742 42.7838 2.58409 42.5636 2.23879 42.683C1.89082 42.8033 1.62884 43.1244 1.44445 43.4302C1.29579 43.6767 1.22709 43.9314 1.255 44.2185C1.2587 44.2566 1.25629 44.4914 1.27228 44.3634" stroke="#8151FB" stroke-linecap="round"/>
<path d="M8.28869 40.0164C8.19109 40.025 8.12422 40.1056 8.06668 40.1799C7.89907 40.3962 7.74298 40.6711 7.76622 40.9549C7.78129 41.139 7.97624 41.355 8.12185 41.4548C8.24756 41.541 8.42315 41.5216 8.56655 41.5432C8.7855 41.5762 8.95145 41.6061 9.16214 41.5359" stroke="#8151FB" stroke-linecap="round"/>
<path d="M199.971 47.4116C200.045 47.9794 199.996 48.5793 199.998 49.1483C199.999 49.3991 199.977 49.651 200.002 49.9006C200.015 50.0313 200.001 50.2058 200.11 50.2796C200.199 50.3402 200.33 50.2457 200.418 50.1835C200.59 50.0615 201.79 48.8986 201.829 48.8626" stroke="#8151FB" stroke-linecap="round"/>
<path d="M201.982 48.4553C202.283 48.4693 202.42 49.066 202.502 49.2671C202.632 49.5835 202.726 49.8284 202.816 50.1524C202.878 50.3762 202.895 50.6113 202.972 50.8312C203.114 51.2374 203.643 51.8961 204.083 51.4308C204.473 51.0193 204.439 50.3558 204.59 49.8469C204.659 49.6134 204.96 49.1446 205.203 49.4934C205.527 49.9568 205.511 50.7405 205.546 51.2781C205.608 52.2539 205.688 53.2604 206.029 54.1857C206.083 54.3306 206.361 55.1469 206.64 55.0512C206.808 54.9937 206.851 54.6776 206.881 54.5392C206.963 54.1617 207.001 53.7766 207.048 53.3937C207.15 52.5622 207.198 51.6926 207.455 50.8906C207.565 50.5453 207.76 50.2356 208.08 50.0506C208.557 49.7748 208.71 50.8997 209.124 50.5484C209.459 50.2636 209.639 50.046 210.097 50.0025C210.662 49.9487 211.023 49.6606 211.369 49.2275C211.61 48.9268 211.846 48.5952 212.166 48.3719C212.393 48.2131 212.695 48.1619 212.948 48.0565C213.387 47.8733 213.865 47.6514 214.073 47.208" stroke="#8151FB" stroke-linecap="round"/>
<defs>
<filter id="filter0_f_4932_113" x="11.4849" y="3.73003" width="325.593" height="49.629" filterUnits="userSpaceOnUse" color-interpolation-filters="sRGB">
<feFlood flood-opacity="0" result="BackgroundImageFix"/>
<feBlend mode="normal" in="SourceGraphic" in2="BackgroundImageFix" result="shape"/>
<feGaussianBlur stdDeviation="2.35581" result="effect1_foregroundBlur_4932_113"/>
</filter>
<filter id="filter1_f_4932_113" x="15.8824" y="8.75596" width="316.798" height="40.834" filterUnits="userSpaceOnUse" color-interpolation-filters="sRGB">
<feFlood flood-opacity="0" result="BackgroundImageFix"/>
<feBlend mode="normal" in="SourceGraphic" in2="BackgroundImageFix" result="shape"/>
<feGaussianBlur stdDeviation="0.157054" result="effect1_foregroundBlur_4932_113"/>
</filter>
</defs>
</svg>
