<svg width="392" height="830" viewBox="0 0 392 830" fill="none" xmlns="http://www.w3.org/2000/svg">
<g filter="url(#filter0_f_5457_266)">
<rect x="341" y="346" width="25" height="25" fill="#EDB2D0"/>
<rect x="341" y="296" width="25" height="25" fill="#EDB2D0"/>
<rect x="316" y="371" width="25" height="25" fill="#EDB2D0"/>
<rect x="291" y="396" width="25" height="25" fill="#EDB2D0"/>
<rect x="291" y="446" width="25" height="25" fill="#EDB2D0"/>
<rect x="291" y="496" width="25" height="25" fill="#EDB2D0"/>
<rect x="366" y="371" width="25" height="25" fill="#EDB2D0"/>
<rect x="366" y="321" width="25" height="25" fill="#EDB2D0"/>
<rect x="316" y="321" width="25" height="25" fill="#EDB2D0"/>
<rect x="366" y="421" width="25" height="25" fill="#EDB2D0"/>
<rect x="341" y="446" width="25" height="25" fill="#EDB2D0"/>
<rect x="316" y="471" width="25" height="25" fill="#EDB2D0"/>
<rect x="341" y="496" width="25" height="25" fill="#EDB2D0"/>
<rect x="316" y="521" width="25" height="25" fill="#EDB2D0"/>
<rect x="341" y="546" width="25" height="25" fill="#EDB2D0"/>
<rect x="366" y="471" width="25" height="25" fill="#EDB2D0"/>
<rect x="366" y="521" width="25" height="25" fill="#EDB2D0"/>
<rect x="341" y="396" width="25" height="25" fill="#EDB2D0"/>
<rect x="316" y="421" width="25" height="25" fill="#EDB2D0"/>
<rect x="266" y="421" width="25" height="25" fill="#EDB2D0"/>
<path d="M378.5 371C376.858 371 375.233 370.677 373.716 370.048C372.2 369.42 370.822 368.5 369.661 367.339C368.5 366.178 367.58 364.8 366.952 363.284C366.323 361.767 366 360.142 366 358.5C366 356.858 366.323 355.233 366.952 353.716C367.58 352.2 368.5 350.822 369.661 349.661C370.822 348.5 372.2 347.58 373.716 346.952C375.233 346.323 376.858 346 378.5 346L378.5 358.5L378.5 371Z" fill="#1A75BC"/>
<path d="M353.5 421C355.972 421 358.389 421.733 360.445 423.107C362.5 424.48 364.102 426.432 365.048 428.716C365.995 431.001 366.242 433.514 365.76 435.939C365.277 438.363 364.087 440.591 362.339 442.339C360.591 444.087 358.363 445.278 355.939 445.76C353.514 446.242 351.001 445.995 348.716 445.048C346.432 444.102 344.48 442.5 343.107 440.445C341.733 438.389 341 435.972 341 433.5L353.5 433.5L353.5 421Z" fill="#F8931F"/>
<path d="M303.5 496C301.028 496 298.611 495.267 296.555 493.893C294.5 492.52 292.898 490.568 291.952 488.284C291.005 485.999 290.758 483.486 291.24 481.061C291.723 478.637 292.913 476.409 294.661 474.661C296.409 472.913 298.637 471.722 301.061 471.24C303.486 470.758 305.999 471.005 308.284 471.952C310.568 472.898 312.52 474.5 313.893 476.555C315.267 478.611 316 481.028 316 483.5L303.5 483.5L303.5 496Z" fill="#F8931F"/>
<path d="M353.5 371.216C355.142 371.216 356.767 371.54 358.284 372.168C359.8 372.796 361.178 373.717 362.339 374.877C363.5 376.038 364.42 377.416 365.048 378.933C365.677 380.449 366 382.075 366 383.716C366 385.358 365.677 386.983 365.048 388.5C364.42 390.016 363.5 391.394 362.339 392.555C361.178 393.716 359.8 394.637 358.284 395.265C356.767 395.893 355.142 396.216 353.5 396.216L353.5 383.716L353.5 371.216Z" fill="#EF5A2B"/>
<path d="M365.533 532.1C365.533 533.711 365.216 535.306 364.6 536.794C363.983 538.283 363.08 539.635 361.941 540.774C360.802 541.913 359.449 542.817 357.961 543.433C356.473 544.05 354.878 544.367 353.267 544.367C351.656 544.367 350.061 544.05 348.572 543.433C347.084 542.817 345.732 541.913 344.593 540.774C343.454 539.635 342.55 538.283 341.934 536.794C341.317 535.306 341 533.711 341 532.1L353.267 532.1H365.533Z" fill="#EF5A2B"/>
<path d="M341 371C342.642 371 344.267 371.323 345.784 371.952C347.3 372.58 348.678 373.5 349.839 374.661C351 375.822 351.92 377.2 352.548 378.716C353.177 380.233 353.5 381.858 353.5 383.5C353.5 385.142 353.177 386.767 352.548 388.284C351.92 389.8 351 391.178 349.839 392.339C348.678 393.5 347.3 394.42 345.784 395.048C344.267 395.677 342.642 396 341 396L341 383.5L341 371Z" fill="#F15A2B"/>
<ellipse cx="378.5" cy="407.865" rx="6.25" ry="6.25" fill="#1A75BC"/>
</g>
<g filter="url(#filter1_f_5457_266)">
<rect width="25" height="25" transform="matrix(-1 0 0 1 51 629)" fill="#EDB2D0"/>
<rect width="25" height="25" transform="matrix(-1 0 0 1 51 579)" fill="#EDB2D0"/>
<rect width="25" height="25" transform="matrix(-1 0 0 1 76 654)" fill="#EDB2D0"/>
<rect width="25" height="25" transform="matrix(-1 0 0 1 101 629)" fill="#EDB2D0"/>
<rect width="25" height="25" transform="matrix(-1 0 0 1 101 729)" fill="#EDB2D0"/>
<rect width="25" height="25" transform="matrix(-1 0 0 1 26 654)" fill="#EDB2D0"/>
<rect width="25" height="25" transform="matrix(-1 0 0 1 26 604)" fill="#EDB2D0"/>
<rect width="25" height="25" transform="matrix(-1 0 0 1 76 604)" fill="#EDB2D0"/>
<rect width="25" height="25" transform="matrix(-1 0 0 1 26 704)" fill="#EDB2D0"/>
<rect width="25" height="25" transform="matrix(-1 0 0 1 51 729)" fill="#EDB2D0"/>
<rect width="25" height="25" transform="matrix(-1 0 0 1 76 754)" fill="#EDB2D0"/>
<rect width="25" height="25" transform="matrix(-1 0 0 1 51 779)" fill="#EDB2D0"/>
<rect width="25" height="25" transform="matrix(-1 0 0 1 26 754)" fill="#EDB2D0"/>
<rect width="25" height="25" transform="matrix(-1 0 0 1 26 804)" fill="#EDB2D0"/>
<rect width="25" height="25" transform="matrix(-1 0 0 1 51 679)" fill="#EDB2D0"/>
<rect width="25" height="25" transform="matrix(-1 0 0 1 102 679)" fill="#EDB2D0"/>
<rect width="25" height="25" transform="matrix(-1 0 0 1 76 704)" fill="#EDB2D0"/>
<rect width="25" height="25" transform="matrix(-1 0 0 1 126 654)" fill="#EDB2D0"/>
<path d="M13.5 654C15.1415 654 16.767 653.677 18.2835 653.048C19.8001 652.42 21.1781 651.5 22.3388 650.339C23.4996 649.178 24.4203 647.8 25.0485 646.284C25.6767 644.767 26 643.142 26 641.5C26 639.858 25.6767 638.233 25.0485 636.716C24.4203 635.2 23.4996 633.822 22.3388 632.661C21.1781 631.5 19.8001 630.58 18.2835 629.952C16.767 629.323 15.1415 629 13.5 629L13.5 641.5L13.5 654Z" fill="#1A75BC"/>
<path d="M38.5 704C36.0277 704 33.611 704.733 31.5554 706.107C29.4998 707.48 27.8976 709.432 26.9515 711.716C26.0054 714.001 25.7579 716.514 26.2402 718.939C26.7225 721.363 27.913 723.591 29.6612 725.339C31.4093 727.087 33.6366 728.278 36.0614 728.76C38.4861 729.242 40.9995 728.995 43.2835 728.048C45.5676 727.102 47.5199 725.5 48.8934 723.445C50.2669 721.389 51 718.972 51 716.5L38.5 716.5L38.5 704Z" fill="#F8931F"/>
<path d="M88.5 779C90.9723 779 93.389 778.267 95.4446 776.893C97.5002 775.52 99.1024 773.568 100.048 771.284C100.995 768.999 101.242 766.486 100.76 764.061C100.277 761.637 99.087 759.409 97.3388 757.661C95.5907 755.913 93.3634 754.722 90.9386 754.24C88.5139 753.758 86.0005 754.005 83.7165 754.952C81.4324 755.898 79.4801 757.5 78.1066 759.555C76.7331 761.611 76 764.028 76 766.5L88.5 766.5L88.5 779Z" fill="#F8931F"/>
<path d="M38.5 654.216C36.8585 654.216 35.233 654.54 33.7165 655.168C32.1999 655.796 30.8219 656.717 29.6612 657.877C28.5004 659.038 27.5797 660.416 26.9515 661.933C26.3233 663.449 26 665.075 26 666.716C26 668.358 26.3233 669.983 26.9515 671.5C27.5797 673.016 28.5004 674.394 29.6612 675.555C30.8219 676.716 32.1999 677.637 33.7165 678.265C35.233 678.893 36.8585 679.216 38.5 679.216L38.5 666.716L38.5 654.216Z" fill="#EF5A2B"/>
<path d="M26.4666 767.1C26.4666 768.711 26.7839 770.306 27.4003 771.794C28.0168 773.283 28.9203 774.635 30.0594 775.774C31.1985 776.913 32.5508 777.817 34.039 778.433C35.5273 779.05 37.1224 779.367 38.7333 779.367C40.3442 779.367 41.9393 779.05 43.4276 778.433C44.9158 777.817 46.2681 776.913 47.4072 775.774C48.5462 774.635 49.4498 773.283 50.0663 771.794C50.6827 770.306 51 768.711 51 767.1L38.7333 767.1H26.4666Z" fill="#EF5A2B"/>
<path d="M51 654C49.3585 654 47.733 654.323 46.2165 654.952C44.6999 655.58 43.3219 656.5 42.1612 657.661C41.0004 658.822 40.0797 660.2 39.4515 661.716C38.8233 663.233 38.5 664.858 38.5 666.5C38.5 668.142 38.8233 669.767 39.4515 671.284C40.0797 672.8 41.0004 674.178 42.1612 675.339C43.3219 676.5 44.6999 677.42 46.2165 678.048C47.733 678.677 49.3585 679 51 679L51 666.5L51 654Z" fill="#F15A2B"/>
<ellipse cx="6.25" cy="6.25" rx="6.25" ry="6.25" transform="matrix(-1 0 0 1 19.75 684.615)" fill="#1A75BC"/>
</g>
<g filter="url(#filter2_f_5457_266)">
<rect x="51" y="226" width="25" height="25" transform="rotate(180 51 226)" fill="#EDB2D0"/>
<rect x="51" y="276" width="25" height="25" transform="rotate(180 51 276)" fill="#EDB2D0"/>
<rect x="76" y="201" width="25" height="25" transform="rotate(180 76 201)" fill="#EDB2D0"/>
<rect x="101" y="176" width="25" height="25" transform="rotate(180 101 176)" fill="#EDB2D0"/>
<rect x="101" y="126" width="25" height="25" transform="rotate(180 101 126)" fill="#EDB2D0"/>
<rect x="101" y="76" width="25" height="25" transform="rotate(180 101 76)" fill="#EDB2D0"/>
<rect x="26" y="201" width="25" height="25" transform="rotate(180 26 201)" fill="#EDB2D0"/>
<rect x="26" y="251" width="25" height="25" transform="rotate(180 26 251)" fill="#EDB2D0"/>
<rect x="76" y="251" width="25" height="25" transform="rotate(180 76 251)" fill="#EDB2D0"/>
<rect x="26" y="151" width="25" height="25" transform="rotate(180 26 151)" fill="#EDB2D0"/>
<rect x="51" y="126" width="25" height="25" transform="rotate(180 51 126)" fill="#EDB2D0"/>
<rect x="76" y="101" width="25" height="25" transform="rotate(180 76 101)" fill="#EDB2D0"/>
<rect x="51" y="76" width="25" height="25" transform="rotate(180 51 76)" fill="#EDB2D0"/>
<rect x="76" y="51" width="25" height="25" transform="rotate(180 76 51)" fill="#EDB2D0"/>
<rect x="51" y="26" width="25" height="25" transform="rotate(180 51 26)" fill="#EDB2D0"/>
<rect x="26" y="101" width="25" height="25" transform="rotate(180 26 101)" fill="#EDB2D0"/>
<rect x="26" y="51" width="25" height="25" transform="rotate(180 26 51)" fill="#EDB2D0"/>
<rect x="51" y="176" width="25" height="25" transform="rotate(180 51 176)" fill="#EDB2D0"/>
<rect x="76" y="151" width="25" height="25" transform="rotate(180 76 151)" fill="#EDB2D0"/>
<rect x="126" y="151" width="25" height="25" transform="rotate(180 126 151)" fill="#EDB2D0"/>
<path d="M13.5 201C15.1415 201 16.767 201.323 18.2835 201.952C19.8001 202.58 21.1781 203.5 22.3388 204.661C23.4996 205.822 24.4203 207.2 25.0485 208.716C25.6767 210.233 26 211.858 26 213.5C26 215.142 25.6767 216.767 25.0485 218.284C24.4203 219.8 23.4996 221.178 22.3388 222.339C21.1781 223.5 19.8001 224.42 18.2835 225.048C16.767 225.677 15.1415 226 13.5 226L13.5 213.5L13.5 201Z" fill="#1A75BC"/>
<path d="M38.5 151C36.0277 151 33.611 150.267 31.5554 148.893C29.4998 147.52 27.8976 145.568 26.9515 143.284C26.0054 140.999 25.7579 138.486 26.2402 136.061C26.7225 133.637 27.913 131.409 29.6612 129.661C31.4093 127.913 33.6366 126.722 36.0614 126.24C38.4861 125.758 40.9995 126.005 43.2835 126.952C45.5676 127.898 47.5199 129.5 48.8934 131.555C50.2669 133.611 51 136.028 51 138.5L38.5 138.5L38.5 151Z" fill="#F8931F"/>
<path d="M88.5 76C90.9723 76 93.389 76.7331 95.4446 78.1066C97.5002 79.4802 99.1024 81.4324 100.048 83.7165C100.995 86.0005 101.242 88.5139 100.76 90.9386C100.277 93.3634 99.087 95.5907 97.3388 97.3388C95.5907 99.087 93.3634 100.278 90.9386 100.76C88.5139 101.242 86.0005 100.995 83.7165 100.048C81.4324 99.1024 79.4801 97.5002 78.1066 95.4446C76.7331 93.389 76 90.9723 76 88.5L88.5 88.5L88.5 76Z" fill="#F8931F"/>
<path d="M38.5 200.784C36.8585 200.784 35.233 200.46 33.7165 199.832C32.1999 199.204 30.8219 198.283 29.6612 197.123C28.5004 195.962 27.5797 194.584 26.9515 193.067C26.3233 191.551 26 189.925 26 188.284C26 186.642 26.3233 185.017 26.9515 183.5C27.5797 181.984 28.5004 180.606 29.6612 179.445C30.8219 178.284 32.1999 177.363 33.7165 176.735C35.233 176.107 36.8585 175.784 38.5 175.784L38.5 188.284L38.5 200.784Z" fill="#EF5A2B"/>
<path d="M26.4666 39.8998C26.4666 38.2889 26.7839 36.6938 27.4003 35.2055C28.0168 33.7173 28.9203 32.365 30.0594 31.2259C31.1985 30.0869 32.5508 29.1833 34.039 28.5668C35.5273 27.9504 37.1224 27.6331 38.7333 27.6331C40.3442 27.6331 41.9393 27.9504 43.4276 28.5668C44.9158 29.1833 46.2681 30.0869 47.4072 31.2259C48.5462 32.365 49.4498 33.7173 50.0663 35.2055C50.6827 36.6938 51 38.2889 51 39.8998L38.7333 39.8998H26.4666Z" fill="#EF5A2B"/>
<path d="M51 201C49.3585 201 47.733 200.677 46.2165 200.048C44.6999 199.42 43.3219 198.5 42.1612 197.339C41.0004 196.178 40.0797 194.8 39.4515 193.284C38.8233 191.767 38.5 190.142 38.5 188.5C38.5 186.858 38.8233 185.233 39.4515 183.716C40.0797 182.2 41.0004 180.822 42.1612 179.661C43.3219 178.5 44.6999 177.58 46.2165 176.952C47.733 176.323 49.3585 176 51 176L51 188.5L51 201Z" fill="#F15A2B"/>
<ellipse cx="13.5" cy="164.135" rx="6.25" ry="6.25" transform="rotate(180 13.5 164.135)" fill="#1A75BC"/>
</g>
<defs>
<filter id="filter0_f_5457_266" x="265.5" y="295.5" width="126" height="276" filterUnits="userSpaceOnUse" color-interpolation-filters="sRGB">
<feFlood flood-opacity="0" result="BackgroundImageFix"/>
<feBlend mode="normal" in="SourceGraphic" in2="BackgroundImageFix" result="shape"/>
<feGaussianBlur stdDeviation="0.25" result="effect1_foregroundBlur_5457_266"/>
</filter>
<filter id="filter1_f_5457_266" x="0.5" y="578.5" width="126" height="251" filterUnits="userSpaceOnUse" color-interpolation-filters="sRGB">
<feFlood flood-opacity="0" result="BackgroundImageFix"/>
<feBlend mode="normal" in="SourceGraphic" in2="BackgroundImageFix" result="shape"/>
<feGaussianBlur stdDeviation="0.25" result="effect1_foregroundBlur_5457_266"/>
</filter>
<filter id="filter2_f_5457_266" x="0.5" y="0.5" width="126" height="276" filterUnits="userSpaceOnUse" color-interpolation-filters="sRGB">
<feFlood flood-opacity="0" result="BackgroundImageFix"/>
<feBlend mode="normal" in="SourceGraphic" in2="BackgroundImageFix" result="shape"/>
<feGaussianBlur stdDeviation="0.25" result="effect1_foregroundBlur_5457_266"/>
</filter>
</defs>
</svg>
