<svg width="384" height="828" viewBox="0 0 384 828" fill="none" xmlns="http://www.w3.org/2000/svg">
<g clip-path="url(#clip0_5432_147)">
<rect width="384" height="828" fill="#2F302D"/>
<g filter="url(#filter0_f_5432_147)">
<rect x="340" y="345" width="25" height="25" fill="#EDB2D0"/>
<rect x="340" y="295" width="25" height="25" fill="#EDB2D0"/>
<rect x="315" y="370" width="25" height="25" fill="#EDB2D0"/>
<rect x="290" y="395" width="25" height="25" fill="#EDB2D0"/>
<rect x="290" y="445" width="25" height="25" fill="#EDB2D0"/>
<rect x="290" y="495" width="25" height="25" fill="#EDB2D0"/>
<rect x="365" y="370" width="25" height="25" fill="#EDB2D0"/>
<rect x="365" y="320" width="25" height="25" fill="#EDB2D0"/>
<rect x="315" y="320" width="25" height="25" fill="#EDB2D0"/>
<rect x="365" y="420" width="25" height="25" fill="#EDB2D0"/>
<rect x="340" y="445" width="25" height="25" fill="#EDB2D0"/>
<rect x="315" y="470" width="25" height="25" fill="#EDB2D0"/>
<rect x="340" y="495" width="25" height="25" fill="#EDB2D0"/>
<rect x="315" y="520" width="25" height="25" fill="#EDB2D0"/>
<rect x="340" y="545" width="25" height="25" fill="#EDB2D0"/>
<rect x="365" y="470" width="25" height="25" fill="#EDB2D0"/>
<rect x="365" y="520" width="25" height="25" fill="#EDB2D0"/>
<rect x="340" y="395" width="25" height="25" fill="#EDB2D0"/>
<rect x="315" y="420" width="25" height="25" fill="#EDB2D0"/>
<rect x="265" y="420" width="25" height="25" fill="#EDB2D0"/>
<path d="M377.5 370C375.858 370 374.233 369.677 372.716 369.048C371.2 368.42 369.822 367.5 368.661 366.339C367.5 365.178 366.58 363.8 365.952 362.284C365.323 360.767 365 359.142 365 357.5C365 355.858 365.323 354.233 365.952 352.716C366.58 351.2 367.5 349.822 368.661 348.661C369.822 347.5 371.2 346.58 372.716 345.952C374.233 345.323 375.858 345 377.5 345L377.5 357.5L377.5 370Z" fill="#1A75BC"/>
<path d="M352.5 420C354.972 420 357.389 420.733 359.445 422.107C361.5 423.48 363.102 425.432 364.048 427.716C364.995 430.001 365.242 432.514 364.76 434.939C364.277 437.363 363.087 439.591 361.339 441.339C359.591 443.087 357.363 444.278 354.939 444.76C352.514 445.242 350.001 444.995 347.716 444.048C345.432 443.102 343.48 441.5 342.107 439.445C340.733 437.389 340 434.972 340 432.5L352.5 432.5L352.5 420Z" fill="#F8931F"/>
<path d="M302.5 495C300.028 495 297.611 494.267 295.555 492.893C293.5 491.52 291.898 489.568 290.952 487.284C290.005 484.999 289.758 482.486 290.24 480.061C290.723 477.637 291.913 475.409 293.661 473.661C295.409 471.913 297.637 470.722 300.061 470.24C302.486 469.758 304.999 470.005 307.284 470.952C309.568 471.898 311.52 473.5 312.893 475.555C314.267 477.611 315 480.028 315 482.5L302.5 482.5L302.5 495Z" fill="#F8931F"/>
<path d="M352.5 370.216C354.142 370.216 355.767 370.54 357.284 371.168C358.8 371.796 360.178 372.717 361.339 373.877C362.5 375.038 363.42 376.416 364.048 377.933C364.677 379.449 365 381.075 365 382.716C365 384.358 364.677 385.983 364.048 387.5C363.42 389.016 362.5 390.394 361.339 391.555C360.178 392.716 358.8 393.637 357.284 394.265C355.767 394.893 354.142 395.216 352.5 395.216L352.5 382.716L352.5 370.216Z" fill="#EF5A2B"/>
<path d="M364.533 531.1C364.533 532.711 364.216 534.306 363.6 535.794C362.983 537.283 362.08 538.635 360.941 539.774C359.802 540.913 358.449 541.817 356.961 542.433C355.473 543.05 353.878 543.367 352.267 543.367C350.656 543.367 349.061 543.05 347.572 542.433C346.084 541.817 344.732 540.913 343.593 539.774C342.454 538.635 341.55 537.283 340.934 535.794C340.317 534.306 340 532.711 340 531.1L352.267 531.1H364.533Z" fill="#EF5A2B"/>
<path d="M340 370C341.642 370 343.267 370.323 344.784 370.952C346.3 371.58 347.678 372.5 348.839 373.661C350 374.822 350.92 376.2 351.548 377.716C352.177 379.233 352.5 380.858 352.5 382.5C352.5 384.142 352.177 385.767 351.548 387.284C350.92 388.8 350 390.178 348.839 391.339C347.678 392.5 346.3 393.42 344.784 394.048C343.267 394.677 341.642 395 340 395L340 382.5L340 370Z" fill="#F15A2B"/>
<ellipse cx="377.5" cy="406.865" rx="6.25" ry="6.25" fill="#1A75BC"/>
</g>
<g filter="url(#filter1_f_5432_147)">
<rect width="25" height="25" transform="matrix(-1 0 0 1 50 628)" fill="#EDB2D0"/>
<rect width="25" height="25" transform="matrix(-1 0 0 1 50 578)" fill="#EDB2D0"/>
<rect width="25" height="25" transform="matrix(-1 0 0 1 75 653)" fill="#EDB2D0"/>
<rect width="25" height="25" transform="matrix(-1 0 0 1 100 628)" fill="#EDB2D0"/>
<rect width="25" height="25" transform="matrix(-1 0 0 1 100 728)" fill="#EDB2D0"/>
<rect width="25" height="25" transform="matrix(-1 0 0 1 25 653)" fill="#EDB2D0"/>
<rect width="25" height="25" transform="matrix(-1 0 0 1 25 603)" fill="#EDB2D0"/>
<rect width="25" height="25" transform="matrix(-1 0 0 1 75 603)" fill="#EDB2D0"/>
<rect width="25" height="25" transform="matrix(-1 0 0 1 25 703)" fill="#EDB2D0"/>
<rect width="25" height="25" transform="matrix(-1 0 0 1 50 728)" fill="#EDB2D0"/>
<rect width="25" height="25" transform="matrix(-1 0 0 1 75 753)" fill="#EDB2D0"/>
<rect width="25" height="25" transform="matrix(-1 0 0 1 50 778)" fill="#EDB2D0"/>
<rect width="25" height="25" transform="matrix(-1 0 0 1 25 753)" fill="#EDB2D0"/>
<rect width="25" height="25" transform="matrix(-1 0 0 1 25 803)" fill="#EDB2D0"/>
<rect width="25" height="25" transform="matrix(-1 0 0 1 50 678)" fill="#EDB2D0"/>
<rect width="25" height="25" transform="matrix(-1 0 0 1 101 678)" fill="#EDB2D0"/>
<rect width="25" height="25" transform="matrix(-1 0 0 1 75 703)" fill="#EDB2D0"/>
<rect width="25" height="25" transform="matrix(-1 0 0 1 125 653)" fill="#EDB2D0"/>
<path d="M12.5 653C14.1415 653 15.767 652.677 17.2835 652.048C18.8001 651.42 20.1781 650.5 21.3388 649.339C22.4996 648.178 23.4203 646.8 24.0485 645.284C24.6767 643.767 25 642.142 25 640.5C25 638.858 24.6767 637.233 24.0485 635.716C23.4203 634.2 22.4996 632.822 21.3388 631.661C20.1781 630.5 18.8001 629.58 17.2835 628.952C15.767 628.323 14.1415 628 12.5 628L12.5 640.5L12.5 653Z" fill="#1A75BC"/>
<path d="M37.5 703C35.0277 703 32.611 703.733 30.5554 705.107C28.4998 706.48 26.8976 708.432 25.9515 710.716C25.0054 713.001 24.7579 715.514 25.2402 717.939C25.7225 720.363 26.913 722.591 28.6612 724.339C30.4093 726.087 32.6366 727.278 35.0614 727.76C37.4861 728.242 39.9995 727.995 42.2835 727.048C44.5676 726.102 46.5199 724.5 47.8934 722.445C49.2669 720.389 50 717.972 50 715.5L37.5 715.5L37.5 703Z" fill="#F8931F"/>
<path d="M87.5 778C89.9723 778 92.389 777.267 94.4446 775.893C96.5002 774.52 98.1024 772.568 99.0485 770.284C99.9946 767.999 100.242 765.486 99.7598 763.061C99.2775 760.637 98.087 758.409 96.3388 756.661C94.5907 754.913 92.3634 753.722 89.9386 753.24C87.5139 752.758 85.0005 753.005 82.7165 753.952C80.4324 754.898 78.4801 756.5 77.1066 758.555C75.7331 760.611 75 763.028 75 765.5L87.5 765.5L87.5 778Z" fill="#F8931F"/>
<path d="M37.5 653.216C35.8585 653.216 34.233 653.54 32.7165 654.168C31.1999 654.796 29.8219 655.717 28.6612 656.877C27.5004 658.038 26.5797 659.416 25.9515 660.933C25.3233 662.449 25 664.075 25 665.716C25 667.358 25.3233 668.983 25.9515 670.5C26.5797 672.016 27.5004 673.394 28.6612 674.555C29.8219 675.716 31.1999 676.637 32.7165 677.265C34.233 677.893 35.8585 678.216 37.5 678.216L37.5 665.716L37.5 653.216Z" fill="#EF5A2B"/>
<path d="M25.4666 766.1C25.4666 767.711 25.7839 769.306 26.4003 770.794C27.0168 772.283 27.9203 773.635 29.0594 774.774C30.1985 775.913 31.5508 776.817 33.039 777.433C34.5273 778.05 36.1224 778.367 37.7333 778.367C39.3442 778.367 40.9393 778.05 42.4276 777.433C43.9158 776.817 45.2681 775.913 46.4072 774.774C47.5462 773.635 48.4498 772.283 49.0663 770.794C49.6827 769.306 50 767.711 50 766.1L37.7333 766.1H25.4666Z" fill="#EF5A2B"/>
<path d="M50 653C48.3585 653 46.733 653.323 45.2165 653.952C43.6999 654.58 42.3219 655.5 41.1612 656.661C40.0004 657.822 39.0797 659.2 38.4515 660.716C37.8233 662.233 37.5 663.858 37.5 665.5C37.5 667.142 37.8233 668.767 38.4515 670.284C39.0797 671.8 40.0004 673.178 41.1612 674.339C42.3219 675.5 43.6999 676.42 45.2165 677.048C46.733 677.677 48.3585 678 50 678L50 665.5L50 653Z" fill="#F15A2B"/>
<ellipse cx="6.25" cy="6.25" rx="6.25" ry="6.25" transform="matrix(-1 0 0 1 18.75 683.615)" fill="#1A75BC"/>
</g>
<g filter="url(#filter2_f_5432_147)">
<rect x="50" y="225" width="25" height="25" transform="rotate(180 50 225)" fill="#EDB2D0"/>
<rect x="50" y="275" width="25" height="25" transform="rotate(180 50 275)" fill="#EDB2D0"/>
<rect x="75" y="200" width="25" height="25" transform="rotate(180 75 200)" fill="#EDB2D0"/>
<rect x="100" y="175" width="25" height="25" transform="rotate(180 100 175)" fill="#EDB2D0"/>
<rect x="100" y="125" width="25" height="25" transform="rotate(180 100 125)" fill="#EDB2D0"/>
<rect x="100" y="75" width="25" height="25" transform="rotate(180 100 75)" fill="#EDB2D0"/>
<rect x="25" y="200" width="25" height="25" transform="rotate(180 25 200)" fill="#EDB2D0"/>
<rect x="25" y="250" width="25" height="25" transform="rotate(180 25 250)" fill="#EDB2D0"/>
<rect x="75" y="250" width="25" height="25" transform="rotate(180 75 250)" fill="#EDB2D0"/>
<rect x="25" y="150" width="25" height="25" transform="rotate(180 25 150)" fill="#EDB2D0"/>
<rect x="50" y="125" width="25" height="25" transform="rotate(180 50 125)" fill="#EDB2D0"/>
<rect x="75" y="100" width="25" height="25" transform="rotate(180 75 100)" fill="#EDB2D0"/>
<rect x="50" y="75" width="25" height="25" transform="rotate(180 50 75)" fill="#EDB2D0"/>
<rect x="75" y="50" width="25" height="25" transform="rotate(180 75 50)" fill="#EDB2D0"/>
<rect x="50" y="25" width="25" height="25" transform="rotate(180 50 25)" fill="#EDB2D0"/>
<rect x="25" y="100" width="25" height="25" transform="rotate(180 25 100)" fill="#EDB2D0"/>
<rect x="25" y="50" width="25" height="25" transform="rotate(180 25 50)" fill="#EDB2D0"/>
<rect x="50" y="175" width="25" height="25" transform="rotate(180 50 175)" fill="#EDB2D0"/>
<rect x="75" y="150" width="25" height="25" transform="rotate(180 75 150)" fill="#EDB2D0"/>
<rect x="125" y="150" width="25" height="25" transform="rotate(180 125 150)" fill="#EDB2D0"/>
<path d="M12.5 200C14.1415 200 15.767 200.323 17.2835 200.952C18.8001 201.58 20.1781 202.5 21.3388 203.661C22.4996 204.822 23.4203 206.2 24.0485 207.716C24.6767 209.233 25 210.858 25 212.5C25 214.142 24.6767 215.767 24.0485 217.284C23.4203 218.8 22.4996 220.178 21.3388 221.339C20.1781 222.5 18.8001 223.42 17.2835 224.048C15.767 224.677 14.1415 225 12.5 225L12.5 212.5L12.5 200Z" fill="#1A75BC"/>
<path d="M37.5 150C35.0277 150 32.611 149.267 30.5554 147.893C28.4998 146.52 26.8976 144.568 25.9515 142.284C25.0054 139.999 24.7579 137.486 25.2402 135.061C25.7225 132.637 26.913 130.409 28.6612 128.661C30.4093 126.913 32.6366 125.722 35.0614 125.24C37.4861 124.758 39.9995 125.005 42.2835 125.952C44.5676 126.898 46.5199 128.5 47.8934 130.555C49.2669 132.611 50 135.028 50 137.5L37.5 137.5L37.5 150Z" fill="#F8931F"/>
<path d="M87.5 75C89.9723 75 92.389 75.7331 94.4446 77.1066C96.5002 78.4802 98.1024 80.4324 99.0485 82.7165C99.9946 85.0005 100.242 87.5139 99.7598 89.9386C99.2775 92.3634 98.087 94.5907 96.3388 96.3388C94.5907 98.087 92.3634 99.2775 89.9386 99.7598C87.5139 100.242 85.0005 99.9946 82.7165 99.0485C80.4324 98.1024 78.4801 96.5002 77.1066 94.4446C75.7331 92.389 75 89.9723 75 87.5L87.5 87.5L87.5 75Z" fill="#F8931F"/>
<path d="M37.5 199.784C35.8585 199.784 34.233 199.46 32.7165 198.832C31.1999 198.204 29.8219 197.283 28.6612 196.123C27.5004 194.962 26.5797 193.584 25.9515 192.067C25.3233 190.551 25 188.925 25 187.284C25 185.642 25.3233 184.017 25.9515 182.5C26.5797 180.984 27.5004 179.606 28.6612 178.445C29.8219 177.284 31.1999 176.363 32.7165 175.735C34.233 175.107 35.8585 174.784 37.5 174.784L37.5 187.284L37.5 199.784Z" fill="#EF5A2B"/>
<path d="M25.4666 38.8998C25.4666 37.2889 25.7839 35.6938 26.4003 34.2055C27.0168 32.7173 27.9203 31.365 29.0594 30.2259C30.1985 29.0869 31.5508 28.1833 33.039 27.5668C34.5273 26.9504 36.1224 26.6331 37.7333 26.6331C39.3442 26.6331 40.9393 26.9504 42.4276 27.5668C43.9158 28.1833 45.2681 29.0869 46.4072 30.2259C47.5462 31.365 48.4498 32.7173 49.0663 34.2055C49.6827 35.6938 50 37.2889 50 38.8998L37.7333 38.8998H25.4666Z" fill="#EF5A2B"/>
<path d="M50 200C48.3585 200 46.733 199.677 45.2165 199.048C43.6999 198.42 42.3219 197.5 41.1612 196.339C40.0004 195.178 39.0797 193.8 38.4515 192.284C37.8233 190.767 37.5 189.142 37.5 187.5C37.5 185.858 37.8233 184.233 38.4515 182.716C39.0797 181.2 40.0004 179.822 41.1612 178.661C42.3219 177.5 43.6999 176.58 45.2165 175.952C46.733 175.323 48.3585 175 50 175L50 187.5L50 200Z" fill="#F15A2B"/>
<ellipse cx="12.5" cy="163.135" rx="6.25" ry="6.25" transform="rotate(180 12.5 163.135)" fill="#1A75BC"/>
</g>
</g>
<defs>
<filter id="filter0_f_5432_147" x="264.5" y="294.5" width="126" height="276" filterUnits="userSpaceOnUse" color-interpolation-filters="sRGB">
<feFlood flood-opacity="0" result="BackgroundImageFix"/>
<feBlend mode="normal" in="SourceGraphic" in2="BackgroundImageFix" result="shape"/>
<feGaussianBlur stdDeviation="0.25" result="effect1_foregroundBlur_5432_147"/>
</filter>
<filter id="filter1_f_5432_147" x="-0.5" y="577.5" width="126" height="251" filterUnits="userSpaceOnUse" color-interpolation-filters="sRGB">
<feFlood flood-opacity="0" result="BackgroundImageFix"/>
<feBlend mode="normal" in="SourceGraphic" in2="BackgroundImageFix" result="shape"/>
<feGaussianBlur stdDeviation="0.25" result="effect1_foregroundBlur_5432_147"/>
</filter>
<filter id="filter2_f_5432_147" x="-0.5" y="-0.5" width="126" height="276" filterUnits="userSpaceOnUse" color-interpolation-filters="sRGB">
<feFlood flood-opacity="0" result="BackgroundImageFix"/>
<feBlend mode="normal" in="SourceGraphic" in2="BackgroundImageFix" result="shape"/>
<feGaussianBlur stdDeviation="0.25" result="effect1_foregroundBlur_5432_147"/>
</filter>
<clipPath id="clip0_5432_147">
<rect width="384" height="828" fill="white"/>
</clipPath>
</defs>
</svg>
