<svg width="392" height="741" viewBox="0 0 392 741" fill="none" xmlns="http://www.w3.org/2000/svg">
<g filter="url(#filter0_f_5457_336)">
<rect width="24.9525" height="24.9525" transform="matrix(1 0 0 -1 340.905 225.572)" fill="#1173D9"/>
<rect width="24.9525" height="24.9525" transform="matrix(1 0 0 -1 315.952 200.62)" fill="#1173D9"/>
<rect width="24.9525" height="24.9525" transform="matrix(1 0 0 -1 366.047 250.369)" fill="#1173D9"/>
<rect width="24.9525" height="24.9525" transform="matrix(1 0 0 -1 291 175.668)" fill="#1173D9"/>
<rect width="24.9525" height="24.9525" transform="matrix(1 0 0 -1 291 75.8574)" fill="#1173D9"/>
<rect width="24.9525" height="24.9525" transform="matrix(1 0 0 -1 365.858 200.62)" fill="#1173D9"/>
<rect width="24.9525" height="24.9525" transform="matrix(1 0 0 -1 365.858 150.715)" fill="#1173D9"/>
<rect width="24.9525" height="24.9525" transform="matrix(1 0 0 -1 340.905 125.763)" fill="#1173D9"/>
<rect width="24.9525" height="24.9525" transform="matrix(1 0 0 -1 315.952 100.81)" fill="#1173D9"/>
<rect width="24.9525" height="24.9525" transform="matrix(1 0 0 -1 340.905 75.8574)" fill="#1173D9"/>
<rect width="24.9525" height="24.9525" transform="matrix(1 0 0 -1 315.952 50.9053)" fill="#1173D9"/>
<rect width="24.9525" height="24.9525" transform="matrix(1 0 0 -1 340.905 25.9521)" fill="#1173D9"/>
<rect width="24.9525" height="24.9525" transform="matrix(1 0 0 -1 365.858 100.81)" fill="#1173D9"/>
<rect width="24.9525" height="24.9525" transform="matrix(1 0 0 -1 365.858 50.9053)" fill="#1173D9"/>
<rect width="24.9525" height="24.9525" transform="matrix(1 0 0 -1 340.905 175.668)" fill="#1173D9"/>
<rect width="24.9525" height="24.9525" transform="matrix(1 0 0 -1 315.952 150.715)" fill="#1173D9"/>
<path d="M378.334 200.62C376.695 200.62 375.073 200.942 373.559 201.569C372.046 202.196 370.67 203.115 369.512 204.274C368.353 205.432 367.434 206.808 366.807 208.322C366.18 209.835 365.858 211.458 365.858 213.096C365.858 214.734 366.18 216.357 366.807 217.87C367.434 219.384 368.353 220.76 369.512 221.918C370.67 223.077 372.046 223.996 373.559 224.623C375.073 225.25 376.695 225.572 378.334 225.572L378.334 213.096L378.334 200.62Z" fill="#8151FB"/>
<path d="M353.381 150.715C355.849 150.715 358.261 149.984 360.313 148.613C362.364 147.242 363.964 145.293 364.908 143.013C365.852 140.734 366.099 138.225 365.618 135.805C365.136 133.385 363.948 131.162 362.203 129.417C360.458 127.672 358.235 126.484 355.815 126.002C353.395 125.521 350.887 125.768 348.607 126.712C346.327 127.657 344.379 129.256 343.008 131.308C341.637 133.359 340.905 135.771 340.905 138.239L353.381 138.239L353.381 150.715Z" fill="#F8931F"/>
<path d="M353.381 200.404C355.02 200.404 356.642 200.081 358.156 199.454C359.669 198.827 361.045 197.908 362.203 196.749C363.362 195.591 364.281 194.216 364.908 192.702C365.535 191.188 365.858 189.566 365.858 187.927C365.858 186.289 365.535 184.667 364.908 183.153C364.281 181.639 363.362 180.264 362.203 179.105C361.045 177.947 359.669 177.028 358.156 176.401C356.642 175.774 355.02 175.451 353.381 175.451L353.381 187.927L353.381 200.404Z" fill="#EF5A2B"/>
<path d="M365.392 39.8259C365.392 38.2181 365.075 36.626 364.46 35.1406C363.845 33.6551 362.943 32.3054 361.806 31.1685C360.669 30.0316 359.319 29.1298 357.834 28.5145C356.348 27.8992 354.756 27.5825 353.148 27.5825C351.541 27.5825 349.949 27.8992 348.463 28.5145C346.978 29.1298 345.628 30.0316 344.491 31.1685C343.354 32.3054 342.452 33.6551 341.837 35.1406C341.222 36.626 340.905 38.2181 340.905 39.8259L353.148 39.8259H365.392Z" fill="#EF5A2B"/>
<path d="M340.905 200.62C342.543 200.62 344.166 200.298 345.679 199.671C347.193 199.044 348.568 198.125 349.727 196.966C350.886 195.808 351.805 194.432 352.432 192.919C353.059 191.405 353.381 189.783 353.381 188.144C353.381 186.506 353.059 184.883 352.432 183.37C351.805 181.856 350.886 180.481 349.727 179.322C348.568 178.164 347.193 177.245 345.679 176.618C344.166 175.991 342.543 175.668 340.905 175.668L340.905 188.144L340.905 200.62Z" fill="#F15A2B"/>
<ellipse cx="6.23813" cy="6.23813" rx="6.23813" ry="6.23813" transform="matrix(1 0 0 -1 372.096 170.062)" fill="#8152FB"/>
</g>
<g filter="url(#filter1_f_5457_336)">
<rect x="340.905" y="515.797" width="24.9525" height="24.9525" fill="#1173D9"/>
<rect x="315.952" y="540.749" width="24.9525" height="24.9525" fill="#1173D9"/>
<rect x="366.047" y="491" width="24.9525" height="24.9525" fill="#1173D9"/>
<rect x="291" y="565.701" width="24.9525" height="24.9525" fill="#1173D9"/>
<rect x="291" y="665.512" width="24.9525" height="24.9525" fill="#1173D9"/>
<rect x="365.858" y="540.749" width="24.9525" height="24.9525" fill="#1173D9"/>
<rect x="365.858" y="590.654" width="24.9525" height="24.9525" fill="#1173D9"/>
<rect x="340.905" y="615.606" width="24.9525" height="24.9525" fill="#1173D9"/>
<rect x="315.952" y="640.56" width="24.9525" height="24.9525" fill="#1173D9"/>
<rect x="340.905" y="665.512" width="24.9525" height="24.9525" fill="#1173D9"/>
<rect x="315.952" y="690.464" width="24.9525" height="24.9525" fill="#1173D9"/>
<rect x="340.905" y="715.417" width="24.9525" height="24.9525" fill="#1173D9"/>
<rect x="365.858" y="640.56" width="24.9525" height="24.9525" fill="#1173D9"/>
<rect x="365.858" y="690.464" width="24.9525" height="24.9525" fill="#1173D9"/>
<rect x="340.905" y="565.701" width="24.9525" height="24.9525" fill="#1173D9"/>
<rect x="315.952" y="590.654" width="24.9525" height="24.9525" fill="#1173D9"/>
<path d="M378.334 540.749C376.695 540.749 375.073 540.427 373.559 539.8C372.046 539.173 370.67 538.254 369.512 537.095C368.353 535.937 367.434 534.561 366.807 533.048C366.18 531.534 365.858 529.912 365.858 528.273C365.858 526.635 366.18 525.012 366.807 523.499C367.434 521.985 368.353 520.61 369.512 519.451C370.67 518.293 372.046 517.374 373.559 516.747C375.073 516.12 376.695 515.797 378.334 515.797L378.334 528.273L378.334 540.749Z" fill="#8151FB"/>
<path d="M353.381 590.654C355.849 590.654 358.261 591.386 360.313 592.757C362.364 594.127 363.964 596.076 364.908 598.356C365.852 600.635 366.099 603.144 365.618 605.564C365.136 607.984 363.948 610.207 362.203 611.952C360.458 613.697 358.235 614.885 355.815 615.367C353.395 615.848 350.887 615.601 348.607 614.657C346.327 613.712 344.379 612.113 343.008 610.062C341.637 608.01 340.905 605.598 340.905 603.13L353.381 603.13L353.381 590.654Z" fill="#F8931F"/>
<path d="M353.381 540.965C355.02 540.965 356.642 541.288 358.156 541.915C359.669 542.542 361.045 543.461 362.203 544.62C363.362 545.778 364.281 547.154 364.908 548.667C365.535 550.181 365.858 551.803 365.858 553.442C365.858 555.08 365.535 556.702 364.908 558.216C364.281 559.73 363.362 561.105 362.203 562.264C361.045 563.422 359.669 564.341 358.156 564.968C356.642 565.595 355.02 565.918 353.381 565.918L353.381 553.442L353.381 540.965Z" fill="#EF5A2B"/>
<path d="M365.392 701.543C365.392 703.151 365.075 704.743 364.46 706.229C363.845 707.714 362.943 709.064 361.806 710.201C360.669 711.338 359.319 712.239 357.834 712.855C356.348 713.47 354.756 713.787 353.148 713.787C351.541 713.787 349.949 713.47 348.463 712.855C346.978 712.239 345.628 711.338 344.491 710.201C343.354 709.064 342.452 707.714 341.837 706.229C341.222 704.743 340.905 703.151 340.905 701.543L353.148 701.543H365.392Z" fill="#EF5A2B"/>
<path d="M340.905 540.749C342.543 540.749 344.166 541.071 345.679 541.698C347.193 542.325 348.568 543.244 349.727 544.403C350.886 545.561 351.805 546.937 352.432 548.45C353.059 549.964 353.381 551.587 353.381 553.225C353.381 554.863 353.059 556.486 352.432 557.999C351.805 559.513 350.886 560.888 349.727 562.047C348.568 563.205 347.193 564.124 345.679 564.751C344.166 565.378 342.543 565.701 340.905 565.701L340.905 553.225L340.905 540.749Z" fill="#F15A2B"/>
<ellipse cx="378.334" cy="577.545" rx="6.23813" ry="6.23813" fill="#8152FB"/>
</g>
<g filter="url(#filter2_f_5457_336)">
<rect x="51.095" y="475.572" width="24.9525" height="24.9525" transform="rotate(-180 51.095 475.572)" fill="#1173D9"/>
<rect x="76.0476" y="450.62" width="24.9525" height="24.9525" transform="rotate(-180 76.0476 450.62)" fill="#1173D9"/>
<rect x="25.9526" y="500.369" width="24.9525" height="24.9525" transform="rotate(-180 25.9526 500.369)" fill="#1173D9"/>
<rect x="101" y="425.668" width="24.9525" height="24.9525" transform="rotate(-180 101 425.668)" fill="#1173D9"/>
<rect x="101" y="325.857" width="24.9525" height="24.9525" transform="rotate(-180 101 325.857)" fill="#1173D9"/>
<rect x="26.1423" y="450.62" width="24.9525" height="24.9525" transform="rotate(-180 26.1423 450.62)" fill="#1173D9"/>
<rect x="26.1423" y="400.715" width="24.9525" height="24.9525" transform="rotate(-180 26.1423 400.715)" fill="#1173D9"/>
<rect x="51.095" y="375.763" width="24.9525" height="24.9525" transform="rotate(-180 51.095 375.763)" fill="#1173D9"/>
<rect x="76.0476" y="350.81" width="24.9525" height="24.9525" transform="rotate(-180 76.0476 350.81)" fill="#1173D9"/>
<rect x="51.095" y="325.857" width="24.9525" height="24.9525" transform="rotate(-180 51.095 325.857)" fill="#1173D9"/>
<rect x="76.0476" y="300.905" width="24.9525" height="24.9525" transform="rotate(-180 76.0476 300.905)" fill="#1173D9"/>
<rect x="51.095" y="275.952" width="24.9525" height="24.9525" transform="rotate(-180 51.095 275.952)" fill="#1173D9"/>
<rect x="26.1423" y="350.81" width="24.9525" height="24.9525" transform="rotate(-180 26.1423 350.81)" fill="#1173D9"/>
<rect x="26.1423" y="300.905" width="24.9525" height="24.9525" transform="rotate(-180 26.1423 300.905)" fill="#1173D9"/>
<rect x="51.095" y="425.668" width="24.9525" height="24.9525" transform="rotate(-180 51.095 425.668)" fill="#1173D9"/>
<rect x="76.0476" y="400.715" width="24.9525" height="24.9525" transform="rotate(-180 76.0476 400.715)" fill="#1173D9"/>
<path d="M13.6662 450.62C15.3046 450.62 16.927 450.942 18.4407 451.569C19.9543 452.196 21.3297 453.115 22.4882 454.274C23.6468 455.432 24.5658 456.808 25.1928 458.322C25.8198 459.835 26.1425 461.458 26.1425 463.096C26.1425 464.734 25.8198 466.357 25.1928 467.87C24.5658 469.384 23.6468 470.76 22.4882 471.918C21.3297 473.077 19.9543 473.996 18.4407 474.623C16.927 475.25 15.3046 475.572 13.6662 475.572L13.6662 463.096L13.6662 450.62Z" fill="#8151FB"/>
<path d="M38.6187 400.715C36.1511 400.715 33.739 399.984 31.6873 398.613C29.6356 397.242 28.0365 395.293 27.0922 393.013C26.1479 390.734 25.9008 388.225 26.3822 385.805C26.8636 383.385 28.0518 381.162 29.7967 379.417C31.5415 377.672 33.7646 376.484 36.1847 376.002C38.6049 375.521 41.1134 375.768 43.3932 376.712C45.6729 377.657 47.6214 379.256 48.9923 381.308C50.3633 383.359 51.095 385.771 51.095 388.239L38.6187 388.239L38.6187 400.715Z" fill="#F8931F"/>
<path d="M38.6187 450.404C36.9803 450.404 35.3579 450.081 33.8443 449.454C32.3306 448.827 30.9552 447.908 29.7967 446.749C28.6381 445.591 27.7191 444.216 27.0922 442.702C26.4652 441.188 26.1425 439.566 26.1425 437.927C26.1425 436.289 26.4652 434.667 27.0922 433.153C27.7191 431.639 28.6381 430.264 29.7967 429.105C30.9552 427.947 32.3306 427.028 33.8443 426.401C35.3579 425.774 36.9803 425.451 38.6187 425.451L38.6187 437.927L38.6187 450.404Z" fill="#EF5A2B"/>
<path d="M26.6081 289.826C26.6081 288.218 26.9248 286.626 27.5401 285.141C28.1554 283.655 29.0572 282.305 30.1942 281.169C31.3311 280.032 32.6808 279.13 34.1662 278.514C35.6516 277.899 37.2437 277.583 38.8516 277.583C40.4594 277.583 42.0515 277.899 43.5369 278.514C45.0223 279.13 46.3721 280.032 47.509 281.169C48.6459 282.305 49.5477 283.655 50.163 285.141C50.7783 286.626 51.095 288.218 51.095 289.826L38.8516 289.826H26.6081Z" fill="#EF5A2B"/>
<path d="M51.095 450.62C49.4566 450.62 47.8343 450.298 46.3206 449.671C44.8069 449.044 43.4315 448.125 42.273 446.966C41.1145 445.808 40.1955 444.432 39.5685 442.919C38.9415 441.405 38.6188 439.783 38.6188 438.144C38.6188 436.506 38.9415 434.883 39.5685 433.37C40.1955 431.856 41.1145 430.481 42.273 429.322C43.4315 428.164 44.8069 427.245 46.3206 426.618C47.8343 425.991 49.4566 425.668 51.095 425.668L51.095 438.144L51.095 450.62Z" fill="#F15A2B"/>
<ellipse cx="13.6662" cy="413.824" rx="6.23813" ry="6.23813" transform="rotate(-180 13.6662 413.824)" fill="#8152FB"/>
</g>
<defs>
<filter id="filter0_f_5457_336" x="290.5" y="0.499512" width="101" height="250.37" filterUnits="userSpaceOnUse" color-interpolation-filters="sRGB">
<feFlood flood-opacity="0" result="BackgroundImageFix"/>
<feBlend mode="normal" in="SourceGraphic" in2="BackgroundImageFix" result="shape"/>
<feGaussianBlur stdDeviation="0.25" result="effect1_foregroundBlur_5457_336"/>
</filter>
<filter id="filter1_f_5457_336" x="290.5" y="490.5" width="101" height="250.369" filterUnits="userSpaceOnUse" color-interpolation-filters="sRGB">
<feFlood flood-opacity="0" result="BackgroundImageFix"/>
<feBlend mode="normal" in="SourceGraphic" in2="BackgroundImageFix" result="shape"/>
<feGaussianBlur stdDeviation="0.25" result="effect1_foregroundBlur_5457_336"/>
</filter>
<filter id="filter2_f_5457_336" x="0.5" y="250.5" width="101" height="250.369" filterUnits="userSpaceOnUse" color-interpolation-filters="sRGB">
<feFlood flood-opacity="0" result="BackgroundImageFix"/>
<feBlend mode="normal" in="SourceGraphic" in2="BackgroundImageFix" result="shape"/>
<feGaussianBlur stdDeviation="0.25" result="effect1_foregroundBlur_5457_336"/>
</filter>
</defs>
</svg>
