<svg width="390" height="740" viewBox="0 0 390 740" fill="none" xmlns="http://www.w3.org/2000/svg">
<g clip-path="url(#clip0_5432_220)">
<rect width="390" height="740" fill="#2F302D"/>
<g filter="url(#filter0_f_5432_220)">
<rect width="24.9525" height="24.9525" transform="matrix(1 0 0 -1 339.905 225.573)" fill="#1173D9"/>
<rect width="24.9525" height="24.9525" transform="matrix(1 0 0 -1 314.952 200.62)" fill="#1173D9"/>
<rect width="24.9525" height="24.9525" transform="matrix(1 0 0 -1 365.047 250.369)" fill="#1173D9"/>
<rect width="24.9525" height="24.9525" transform="matrix(1 0 0 -1 290 175.667)" fill="#1173D9"/>
<rect width="24.9525" height="24.9525" transform="matrix(1 0 0 -1 290 75.8574)" fill="#1173D9"/>
<rect width="24.9525" height="24.9525" transform="matrix(1 0 0 -1 364.858 200.62)" fill="#1173D9"/>
<rect width="24.9525" height="24.9525" transform="matrix(1 0 0 -1 364.858 150.715)" fill="#1173D9"/>
<rect width="24.9525" height="24.9525" transform="matrix(1 0 0 -1 339.905 125.763)" fill="#1173D9"/>
<rect width="24.9525" height="24.9525" transform="matrix(1 0 0 -1 314.952 100.81)" fill="#1173D9"/>
<rect width="24.9525" height="24.9525" transform="matrix(1 0 0 -1 339.905 75.8574)" fill="#1173D9"/>
<rect width="24.9525" height="24.9525" transform="matrix(1 0 0 -1 314.952 50.9048)" fill="#1173D9"/>
<rect width="24.9525" height="24.9525" transform="matrix(1 0 0 -1 339.905 25.9526)" fill="#1173D9"/>
<rect width="24.9525" height="24.9525" transform="matrix(1 0 0 -1 364.858 100.81)" fill="#1173D9"/>
<rect width="24.9525" height="24.9525" transform="matrix(1 0 0 -1 364.858 50.9048)" fill="#1173D9"/>
<rect width="24.9525" height="24.9525" transform="matrix(1 0 0 -1 339.905 175.667)" fill="#1173D9"/>
<rect width="24.9525" height="24.9525" transform="matrix(1 0 0 -1 314.952 150.715)" fill="#1173D9"/>
<path d="M377.334 200.62C375.695 200.62 374.073 200.943 372.559 201.57C371.046 202.197 369.67 203.116 368.512 204.274C367.353 205.433 366.434 206.808 365.807 208.322C365.18 209.836 364.858 211.458 364.858 213.096C364.858 214.735 365.18 216.357 365.807 217.871C366.434 219.385 367.353 220.76 368.512 221.919C369.67 223.077 371.046 223.996 372.559 224.623C374.073 225.25 375.695 225.573 377.334 225.573L377.334 213.096L377.334 200.62Z" fill="#8151FB"/>
<path d="M352.381 150.715C354.849 150.715 357.261 149.984 359.313 148.613C361.364 147.242 362.964 145.293 363.908 143.013C364.852 140.734 365.099 138.225 364.618 135.805C364.136 133.385 362.948 131.162 361.203 129.417C359.458 127.672 357.235 126.484 354.815 126.002C352.395 125.521 349.887 125.768 347.607 126.712C345.327 127.657 343.379 129.256 342.008 131.308C340.637 133.359 339.905 135.771 339.905 138.239L352.381 138.239L352.381 150.715Z" fill="#F8931F"/>
<path d="M352.381 200.404C354.02 200.404 355.642 200.081 357.156 199.454C358.669 198.827 360.045 197.908 361.203 196.749C362.362 195.591 363.281 194.216 363.908 192.702C364.535 191.188 364.858 189.566 364.858 187.927C364.858 186.289 364.535 184.667 363.908 183.153C363.281 181.639 362.362 180.264 361.203 179.105C360.045 177.947 358.669 177.028 357.156 176.401C355.642 175.774 354.02 175.451 352.381 175.451L352.381 187.927L352.381 200.404Z" fill="#EF5A2B"/>
<path d="M364.392 39.8259C364.392 38.2181 364.075 36.626 363.46 35.1406C362.845 33.6551 361.943 32.3054 360.806 31.1685C359.669 30.0316 358.319 29.1298 356.834 28.5145C355.348 27.8992 353.756 27.5825 352.148 27.5825C350.541 27.5825 348.949 27.8992 347.463 28.5145C345.978 29.1298 344.628 30.0316 343.491 31.1685C342.354 32.3054 341.452 33.6551 340.837 35.1406C340.222 36.626 339.905 38.2181 339.905 39.8259L352.148 39.8259H364.392Z" fill="#EF5A2B"/>
<path d="M339.905 200.62C341.543 200.62 343.166 200.297 344.679 199.67C346.193 199.043 347.568 198.124 348.727 196.966C349.886 195.807 350.805 194.432 351.432 192.918C352.059 191.405 352.381 189.782 352.381 188.144C352.381 186.505 352.059 184.883 351.432 183.369C350.805 181.856 349.886 180.48 348.727 179.322C347.568 178.163 346.193 177.244 344.679 176.617C343.166 175.99 341.543 175.667 339.905 175.667L339.905 188.144L339.905 200.62Z" fill="#F15A2B"/>
<ellipse cx="6.23813" cy="6.23813" rx="6.23813" ry="6.23813" transform="matrix(1 0 0 -1 371.096 170.063)" fill="#8152FB"/>
</g>
<g filter="url(#filter1_f_5432_220)">
<rect x="339.905" y="515.796" width="24.9525" height="24.9525" fill="#1173D9"/>
<rect x="314.952" y="540.749" width="24.9525" height="24.9525" fill="#1173D9"/>
<rect x="365.047" y="491" width="24.9525" height="24.9525" fill="#1173D9"/>
<rect x="290" y="565.702" width="24.9525" height="24.9525" fill="#1173D9"/>
<rect x="290" y="665.512" width="24.9525" height="24.9525" fill="#1173D9"/>
<rect x="364.858" y="540.749" width="24.9525" height="24.9525" fill="#1173D9"/>
<rect x="364.858" y="590.654" width="24.9525" height="24.9525" fill="#1173D9"/>
<rect x="339.905" y="615.606" width="24.9525" height="24.9525" fill="#1173D9"/>
<rect x="314.952" y="640.56" width="24.9525" height="24.9525" fill="#1173D9"/>
<rect x="339.905" y="665.512" width="24.9525" height="24.9525" fill="#1173D9"/>
<rect x="314.952" y="690.464" width="24.9525" height="24.9525" fill="#1173D9"/>
<rect x="339.905" y="715.417" width="24.9525" height="24.9525" fill="#1173D9"/>
<rect x="364.858" y="640.56" width="24.9525" height="24.9525" fill="#1173D9"/>
<rect x="364.858" y="690.464" width="24.9525" height="24.9525" fill="#1173D9"/>
<rect x="339.905" y="565.702" width="24.9525" height="24.9525" fill="#1173D9"/>
<rect x="314.952" y="590.654" width="24.9525" height="24.9525" fill="#1173D9"/>
<path d="M377.334 540.749C375.695 540.749 374.073 540.426 372.559 539.799C371.046 539.172 369.67 538.253 368.512 537.095C367.353 535.936 366.434 534.561 365.807 533.047C365.18 531.533 364.858 529.911 364.858 528.273C364.858 526.634 365.18 525.012 365.807 523.498C366.434 521.984 367.353 520.609 368.512 519.451C369.67 518.292 371.046 517.373 372.559 516.746C374.073 516.119 375.695 515.796 377.334 515.796L377.334 528.273L377.334 540.749Z" fill="#8151FB"/>
<path d="M352.381 590.654C354.849 590.654 357.261 591.386 359.313 592.757C361.364 594.127 362.964 596.076 363.908 598.356C364.852 600.635 365.099 603.144 364.618 605.564C364.136 607.984 362.948 610.207 361.203 611.952C359.458 613.697 357.235 614.885 354.815 615.367C352.395 615.848 349.887 615.601 347.607 614.657C345.327 613.712 343.379 612.113 342.008 610.062C340.637 608.01 339.905 605.598 339.905 603.13L352.381 603.13L352.381 590.654Z" fill="#F8931F"/>
<path d="M352.381 540.965C354.02 540.965 355.642 541.288 357.156 541.915C358.669 542.542 360.045 543.461 361.203 544.62C362.362 545.778 363.281 547.154 363.908 548.667C364.535 550.181 364.858 551.803 364.858 553.442C364.858 555.08 364.535 556.702 363.908 558.216C363.281 559.73 362.362 561.105 361.203 562.264C360.045 563.422 358.669 564.341 357.156 564.968C355.642 565.595 354.02 565.918 352.381 565.918L352.381 553.442L352.381 540.965Z" fill="#EF5A2B"/>
<path d="M364.392 701.543C364.392 703.151 364.075 704.743 363.46 706.229C362.845 707.714 361.943 709.064 360.806 710.201C359.669 711.338 358.319 712.239 356.834 712.855C355.348 713.47 353.756 713.787 352.148 713.787C350.541 713.787 348.949 713.47 347.463 712.855C345.978 712.239 344.628 711.338 343.491 710.201C342.354 709.064 341.452 707.714 340.837 706.229C340.222 704.743 339.905 703.151 339.905 701.543L352.148 701.543H364.392Z" fill="#EF5A2B"/>
<path d="M339.905 540.749C341.543 540.749 343.166 541.072 344.679 541.699C346.193 542.326 347.568 543.245 348.727 544.403C349.886 545.562 350.805 546.937 351.432 548.451C352.059 549.965 352.381 551.587 352.381 553.225C352.381 554.864 352.059 556.486 351.432 558C350.805 559.514 349.886 560.889 348.727 562.047C347.568 563.206 346.193 564.125 344.679 564.752C343.166 565.379 341.543 565.702 339.905 565.702L339.905 553.225L339.905 540.749Z" fill="#F15A2B"/>
<ellipse cx="377.334" cy="577.544" rx="6.23813" ry="6.23813" fill="#8152FB"/>
</g>
<g filter="url(#filter2_f_5432_220)">
<rect x="50.095" y="475.573" width="24.9525" height="24.9525" transform="rotate(-180 50.095 475.573)" fill="#1173D9"/>
<rect x="75.0476" y="450.62" width="24.9525" height="24.9525" transform="rotate(-180 75.0476 450.62)" fill="#1173D9"/>
<rect x="24.9526" y="500.369" width="24.9525" height="24.9525" transform="rotate(-180 24.9526 500.369)" fill="#1173D9"/>
<rect x="100" y="425.667" width="24.9525" height="24.9525" transform="rotate(-180 100 425.667)" fill="#1173D9"/>
<rect x="100" y="325.857" width="24.9525" height="24.9525" transform="rotate(-180 100 325.857)" fill="#1173D9"/>
<rect x="25.1423" y="450.62" width="24.9525" height="24.9525" transform="rotate(-180 25.1423 450.62)" fill="#1173D9"/>
<rect x="25.1423" y="400.715" width="24.9525" height="24.9525" transform="rotate(-180 25.1423 400.715)" fill="#1173D9"/>
<rect x="50.095" y="375.763" width="24.9525" height="24.9525" transform="rotate(-180 50.095 375.763)" fill="#1173D9"/>
<rect x="75.0476" y="350.81" width="24.9525" height="24.9525" transform="rotate(-180 75.0476 350.81)" fill="#1173D9"/>
<rect x="50.095" y="325.857" width="24.9525" height="24.9525" transform="rotate(-180 50.095 325.857)" fill="#1173D9"/>
<rect x="75.0476" y="300.905" width="24.9525" height="24.9525" transform="rotate(-180 75.0476 300.905)" fill="#1173D9"/>
<rect x="50.095" y="275.953" width="24.9525" height="24.9525" transform="rotate(-180 50.095 275.953)" fill="#1173D9"/>
<rect x="25.1423" y="350.81" width="24.9525" height="24.9525" transform="rotate(-180 25.1423 350.81)" fill="#1173D9"/>
<rect x="25.1423" y="300.905" width="24.9525" height="24.9525" transform="rotate(-180 25.1423 300.905)" fill="#1173D9"/>
<rect x="50.095" y="425.667" width="24.9525" height="24.9525" transform="rotate(-180 50.095 425.667)" fill="#1173D9"/>
<rect x="75.0476" y="400.715" width="24.9525" height="24.9525" transform="rotate(-180 75.0476 400.715)" fill="#1173D9"/>
<path d="M12.6662 450.62C14.3046 450.62 15.927 450.943 17.4407 451.57C18.9543 452.197 20.3297 453.116 21.4882 454.274C22.6468 455.433 23.5658 456.808 24.1928 458.322C24.8198 459.836 25.1425 461.458 25.1425 463.096C25.1425 464.735 24.8198 466.357 24.1928 467.871C23.5658 469.385 22.6468 470.76 21.4882 471.919C20.3297 473.077 18.9543 473.996 17.4407 474.623C15.927 475.25 14.3046 475.573 12.6662 475.573L12.6662 463.096L12.6662 450.62Z" fill="#8151FB"/>
<path d="M37.6187 400.715C35.1511 400.715 32.739 399.984 30.6873 398.613C28.6356 397.242 27.0365 395.293 26.0922 393.013C25.1479 390.734 24.9008 388.225 25.3822 385.805C25.8636 383.385 27.0518 381.162 28.7967 379.417C30.5415 377.672 32.7646 376.484 35.1847 376.002C37.6049 375.521 40.1134 375.768 42.3932 376.712C44.6729 377.657 46.6214 379.256 47.9923 381.308C49.3633 383.359 50.095 385.771 50.095 388.239L37.6187 388.239L37.6187 400.715Z" fill="#F8931F"/>
<path d="M37.6187 450.404C35.9803 450.404 34.3579 450.081 32.8443 449.454C31.3306 448.827 29.9552 447.908 28.7967 446.749C27.6381 445.591 26.7191 444.216 26.0922 442.702C25.4652 441.188 25.1425 439.566 25.1425 437.927C25.1425 436.289 25.4652 434.667 26.0922 433.153C26.7191 431.639 27.6381 430.264 28.7967 429.105C29.9552 427.947 31.3306 427.028 32.8443 426.401C34.3579 425.774 35.9803 425.451 37.6187 425.451L37.6187 437.927L37.6187 450.404Z" fill="#EF5A2B"/>
<path d="M25.6081 289.826C25.6081 288.218 25.9248 286.626 26.5401 285.141C27.1554 283.655 28.0572 282.305 29.1942 281.169C30.3311 280.032 31.6808 279.13 33.1662 278.514C34.6516 277.899 36.2437 277.583 37.8516 277.583C39.4594 277.583 41.0515 277.899 42.5369 278.514C44.0223 279.13 45.3721 280.032 46.509 281.169C47.6459 282.305 48.5477 283.655 49.163 285.141C49.7783 286.626 50.095 288.218 50.095 289.826L37.8516 289.826H25.6081Z" fill="#EF5A2B"/>
<path d="M50.095 450.62C48.4566 450.62 46.8343 450.297 45.3206 449.67C43.8069 449.043 42.4315 448.124 41.273 446.966C40.1145 445.807 39.1955 444.432 38.5685 442.918C37.9415 441.405 37.6188 439.782 37.6188 438.144C37.6188 436.505 37.9415 434.883 38.5685 433.369C39.1955 431.856 40.1145 430.48 41.273 429.322C42.4315 428.163 43.8069 427.244 45.3206 426.617C46.8343 425.99 48.4566 425.667 50.095 425.667L50.095 438.144L50.095 450.62Z" fill="#F15A2B"/>
<ellipse cx="12.6662" cy="413.825" rx="6.23813" ry="6.23813" transform="rotate(-180 12.6662 413.825)" fill="#8152FB"/>
</g>
</g>
<defs>
<filter id="filter0_f_5432_220" x="289.5" y="0.5" width="101" height="250.369" filterUnits="userSpaceOnUse" color-interpolation-filters="sRGB">
<feFlood flood-opacity="0" result="BackgroundImageFix"/>
<feBlend mode="normal" in="SourceGraphic" in2="BackgroundImageFix" result="shape"/>
<feGaussianBlur stdDeviation="0.25" result="effect1_foregroundBlur_5432_220"/>
</filter>
<filter id="filter1_f_5432_220" x="289.5" y="490.5" width="101" height="250.369" filterUnits="userSpaceOnUse" color-interpolation-filters="sRGB">
<feFlood flood-opacity="0" result="BackgroundImageFix"/>
<feBlend mode="normal" in="SourceGraphic" in2="BackgroundImageFix" result="shape"/>
<feGaussianBlur stdDeviation="0.25" result="effect1_foregroundBlur_5432_220"/>
</filter>
<filter id="filter2_f_5432_220" x="-0.5" y="250.5" width="101" height="250.369" filterUnits="userSpaceOnUse" color-interpolation-filters="sRGB">
<feFlood flood-opacity="0" result="BackgroundImageFix"/>
<feBlend mode="normal" in="SourceGraphic" in2="BackgroundImageFix" result="shape"/>
<feGaussianBlur stdDeviation="0.25" result="effect1_foregroundBlur_5432_220"/>
</filter>
<clipPath id="clip0_5432_220">
<rect width="390" height="740" fill="white"/>
</clipPath>
</defs>
</svg>
