<svg width="126" height="353" viewBox="0 0 126 353" fill="none" xmlns="http://www.w3.org/2000/svg">
<g filter="">
<rect x="100.592" y="26.5503" width="25.0631" height="25.0631" fill="#EDB2D0"/>
<rect x="100.592" y="76.6763" width="25.0631" height="25.0631" fill="#EDB2D0"/>
<rect x="75.5291" y="101.74" width="25.0631" height="25.0631" fill="#EDB2D0"/>
<rect x="25.7185" y="101.74" width="25.0631" height="25.0631" fill="#EDB2D0"/>
<rect x="50.4658" y="126.803" width="25.0631" height="25.0631" fill="#EDB2D0"/>
<rect x="0.655273" y="126.803" width="25.0631" height="25.0631" fill="#EDB2D0"/>
<rect x="75.5291" y="151.866" width="25.0631" height="25.0631" fill="#EDB2D0"/>
<rect x="25.7185" y="151.866" width="25.0631" height="25.0631" fill="#EDB2D0"/>
<rect x="50.4658" y="176.929" width="25.0631" height="25.0631" fill="#EDB2D0"/>
<rect x="75.5291" y="201.992" width="25.0631" height="25.0631" fill="#EDB2D0"/>
<rect x="100.592" y="126.803" width="25.0631" height="25.0631" fill="#EDB2D0"/>
<rect x="100.592" y="176.929" width="25.0631" height="25.0631" fill="#EDB2D0"/>
<rect x="75.5291" y="51.6133" width="25.0631" height="25.0631" fill="#EDB2D0"/>
<rect x="50.4658" y="76.6763" width="25.0631" height="25.0631" fill="#EDB2D0"/>
<path d="M113.124 26.5502C111.478 26.5502 109.849 26.226 108.328 25.5963C106.808 24.9665 105.426 24.0434 104.263 22.8798C103.099 21.7161 102.176 20.3346 101.546 18.8142C100.916 17.2938 100.592 15.6643 100.592 14.0186C100.592 12.3729 100.916 10.7434 101.546 9.223C102.176 7.7026 103.099 6.32113 104.263 5.15747C105.426 3.9938 106.808 3.07074 108.328 2.44097C109.849 1.8112 111.478 1.48706 113.124 1.48706L113.124 14.0186L113.124 26.5502Z" fill="#1A75BC"/>
<path d="M88.0606 76.6764C90.5391 76.6764 92.962 77.4114 95.0228 78.7883C97.0836 80.1653 98.6898 82.1225 99.6382 84.4123C100.587 86.7022 100.835 89.2218 100.351 91.6527C99.8678 94.0836 98.6743 96.3165 96.9217 98.0691C95.1692 99.8217 92.9363 101.015 90.5054 101.499C88.0745 101.982 85.5548 101.734 83.265 100.786C80.9751 99.8371 79.018 98.2309 77.641 96.1701C76.264 94.1093 75.5291 91.6865 75.5291 89.2079L88.0606 89.2079L88.0606 76.6764Z" fill="#F8931F"/>
<path d="M88.0606 26.767C89.7063 26.767 91.3358 27.0911 92.8562 27.7209C94.3766 28.3506 95.7581 29.2737 96.9217 30.4374C98.0854 31.601 99.0085 32.9825 99.6382 34.5029C100.268 36.0233 100.592 37.6529 100.592 39.2985C100.592 40.9442 100.268 42.5737 99.6382 44.0941C99.0085 45.6145 98.0854 46.996 96.9217 48.1597C95.7581 49.3233 94.3766 50.2464 92.8562 50.8762C91.3358 51.5059 89.7063 51.8301 88.0606 51.8301L88.0606 39.2985L88.0606 26.767Z" fill="#EF5A2B"/>
<path d="M100.124 188.057C100.124 189.672 99.8063 191.271 99.1883 192.763C98.5703 194.255 97.6644 195.611 96.5225 196.753C95.3806 197.895 94.0249 198.801 92.5328 199.419C91.0408 200.037 89.4417 200.355 87.8267 200.355C86.2118 200.355 84.6126 200.037 83.1206 199.419C81.6286 198.801 80.2729 197.895 79.131 196.753C77.989 195.611 77.0832 194.255 76.4652 192.763C75.8471 191.271 75.5291 189.672 75.5291 188.057L87.8267 188.057H100.124Z" fill="#EF5A2B"/>
<path d="M75.5291 26.5502C77.1748 26.5502 78.8043 26.8743 80.3247 27.5041C81.8451 28.1338 83.2266 29.0569 84.3903 30.2206C85.5539 31.3842 86.477 32.7657 87.1068 34.2861C87.7365 35.8065 88.0607 37.4361 88.0607 39.0817C88.0607 40.7274 87.7365 42.3569 87.1068 43.8773C86.477 45.3977 85.5539 46.7792 84.3903 47.9429C83.2266 49.1065 81.8451 50.0296 80.3247 50.6594C78.8043 51.2891 77.1748 51.6133 75.5291 51.6133L75.5291 39.0817L75.5291 26.5502Z" fill="#F15A2B"/>
<ellipse cx="113.124" cy="63.5087" rx="6.26578" ry="6.26578" fill="#1A75BC"/>
<rect width="25.0631" height="25.0631" transform="matrix(-1 0 0 1 124.989 226.555)" fill="#EDB2D0"/>
<rect width="25.0631" height="25.0631" transform="matrix(-1 0 0 1 74.8628 226.555)" fill="#EDB2D0"/>
<rect width="25.0631" height="25.0631" transform="matrix(-1 0 0 1 74.8628 276.681)" fill="#EDB2D0"/>
<rect width="25.0631" height="25.0631" transform="matrix(-1 0 0 1 99.926 301.744)" fill="#EDB2D0"/>
<rect width="25.0631" height="25.0631" transform="matrix(-1 0 0 1 124.989 326.808)" fill="#EDB2D0"/>
<rect width="25.0631" height="25.0631" transform="matrix(-1 0 0 1 99.926 251.618)" fill="#EDB2D0"/>
<rect width="25.0631" height="25.0631" transform="matrix(-1 0 0 1 50.1152 251.618)" fill="#EDB2D0"/>
<rect width="25.0631" height="25.0631" transform="matrix(-1 0 0 1 124.989 276.681)" fill="#EDB2D0"/>
<path d="M62.3314 226.555C63.977 226.555 65.6066 226.231 67.127 225.601C68.6474 224.971 70.0288 224.048 71.1925 222.885C72.3562 221.721 73.2792 220.34 73.909 218.819C74.5388 217.299 74.8629 215.669 74.8629 214.023C74.8629 212.378 74.5388 210.748 73.909 209.228C73.2792 207.707 72.3562 206.326 71.1925 205.162C70.0288 203.999 68.6474 203.076 67.127 202.446C65.6066 201.816 63.977 201.492 62.3314 201.492L62.3314 214.023L62.3314 226.555Z" fill="#1A75BC"/>
<path d="M87.3945 276.681C84.916 276.681 82.4931 277.416 80.4323 278.793C78.3715 280.17 76.7653 282.127 75.8168 284.417C74.8683 286.707 74.6202 289.227 75.1037 291.658C75.5872 294.088 76.7808 296.321 78.5333 298.074C80.2859 299.827 82.5188 301.02 84.9497 301.504C87.3806 301.987 89.9002 301.739 92.1901 300.79C94.4799 299.842 96.4371 298.236 97.8141 296.175C99.1911 294.114 99.926 291.691 99.926 289.213L87.3945 289.213L87.3945 276.681Z" fill="#F8931F"/>
<path d="M87.3945 226.772C85.7488 226.772 84.1193 227.096 82.5989 227.726C81.0785 228.356 79.697 229.279 78.5333 230.442C77.3697 231.606 76.4466 232.988 75.8168 234.508C75.1871 236.028 74.8629 237.658 74.8629 239.304C74.8629 240.949 75.1871 242.579 75.8168 244.099C76.4466 245.62 77.3697 247.001 78.5333 248.165C79.697 249.328 81.0785 250.252 82.5989 250.881C84.1193 251.511 85.7488 251.835 87.3945 251.835L87.3945 239.304L87.3945 226.772Z" fill="#EF5A2B"/>
<path d="M99.926 226.555C98.2803 226.555 96.6507 226.879 95.1303 227.509C93.61 228.139 92.2285 229.062 91.0648 230.225C89.9012 231.389 88.9781 232.771 88.3483 234.291C87.7186 235.811 87.3944 237.441 87.3944 239.087C87.3944 240.732 87.7186 242.362 88.3483 243.882C88.9781 245.403 89.9012 246.784 91.0648 247.948C92.2285 249.111 93.61 250.034 95.1304 250.664C96.6508 251.294 98.2803 251.618 99.926 251.618L99.926 239.087L99.926 226.555Z" fill="#F15A2B"/>
<ellipse cx="6.26578" cy="6.26578" rx="6.26578" ry="6.26578" transform="matrix(-1 0 0 1 68.5972 257.248)" fill="#1A75BC"/>
</g>
<defs>
<filter id="filter0_f_5477_129" x="0.155273" y="0.987061" width="126" height="351.384" filterUnits="userSpaceOnUse" color-interpolation-filters="sRGB">
<feFlood flood-opacity="0" result="BackgroundImageFix"/>
<feBlend mode="normal" in="SourceGraphic" in2="BackgroundImageFix" result="shape"/>
<feGaussianBlur stdDeviation="0.25" result="effect1_foregroundBlur_5477_129"/>
</filter>
</defs>
</svg>
