<svg width="390" height="1408" viewBox="0 0 390 1408" fill="none" xmlns="http://www.w3.org/2000/svg">
<g clip-path="url(#clip0_5290_132)">
<rect width="390" height="1408" fill="#2F302D"/>
<g filter="url(#filter0_f_5290_132)">
<rect x="290" y="151" width="25" height="25" fill="#57CFBA"/>
<rect x="290" y="202" width="25" height="25" fill="#57CFBA"/>
<rect x="365" y="26.0005" width="25" height="25" fill="#57CFBA"/>
<rect x="365" y="76" width="25" height="25" fill="#57CFBA"/>
<rect x="340" y="101" width="25" height="25" fill="#57CFBA"/>
<rect x="315" y="126" width="25" height="25" fill="#57CFBA"/>
<rect x="340" y="151" width="25" height="25" fill="#57CFBA"/>
<rect x="315" y="176" width="25" height="25" fill="#57CFBA"/>
<rect x="265" y="176" width="25" height="25" fill="#57CFBA"/>
<rect x="315" y="226" width="25" height="25" fill="#57CFBA"/>
<rect x="315" y="276" width="25" height="25" fill="#57CFBA"/>
<rect x="340" y="201" width="25" height="25" fill="#57CFBA"/>
<rect x="340" y="251" width="25" height="25" fill="#57CFBA"/>
<rect x="340" y="301" width="25" height="25" fill="#57CFBA"/>
<rect x="365" y="126" width="25" height="25" fill="#57CFBA"/>
<rect x="365" y="176" width="25" height="25" fill="#57CFBA"/>
<rect x="365" y="226" width="25" height="25" fill="#57CFBA"/>
<rect x="365" y="276" width="25" height="25" fill="#57CFBA"/>
<rect x="340" y="51" width="25" height="25" fill="#57CFBA"/>
<rect x="315" y="76" width="25" height="25" fill="#57CFBA"/>
<path d="M352.5 76C354.972 76 357.389 76.7331 359.445 78.1066C361.5 79.4801 363.102 81.4324 364.048 83.7165C364.995 86.0005 365.242 88.5139 364.76 90.9386C364.277 93.3634 363.087 95.5907 361.339 97.3388C359.591 99.087 357.363 100.278 354.939 100.76C352.514 101.242 350.001 100.995 347.716 100.048C345.432 99.1024 343.48 97.5002 342.107 95.4446C340.733 93.389 340 90.9723 340 88.5L352.5 88.5L352.5 76Z" fill="#F8931F"/>
<path d="M352.5 26.2168C354.142 26.2168 355.767 26.5401 357.284 27.1683C358.8 27.7965 360.178 28.7172 361.339 29.878C362.5 31.0387 363.42 32.4167 364.048 33.9332C364.677 35.4498 365 37.0753 365 38.7168C365 40.3583 364.677 41.9838 364.048 43.5003C363.42 45.0169 362.5 46.3949 361.339 47.5556C360.178 48.7164 358.8 49.6371 357.284 50.2653C355.767 50.8935 354.142 51.2168 352.5 51.2168L352.5 38.7168L352.5 26.2168Z" fill="#1173D9"/>
<path d="M364.533 187.101C364.533 188.712 364.216 190.307 363.6 191.795C362.983 193.283 362.08 194.635 360.941 195.775C359.802 196.914 358.449 197.817 356.961 198.434C355.473 199.05 353.878 199.367 352.267 199.367C350.656 199.367 349.061 199.05 347.572 198.434C346.084 197.817 344.732 196.914 343.593 195.775C342.454 194.635 341.55 193.283 340.934 191.795C340.317 190.307 340 188.712 340 187.101L352.267 187.101H364.533Z" fill="#EF5A2B"/>
<path d="M340 26C341.642 26 343.267 26.3233 344.784 26.9515C346.3 27.5797 347.678 28.5004 348.839 29.6612C350 30.8219 350.92 32.1999 351.548 33.7165C352.177 35.233 352.5 36.8585 352.5 38.5C352.5 40.1415 352.177 41.767 351.548 43.2835C350.92 44.8001 350 46.1781 348.839 47.3388C347.678 48.4996 346.3 49.4203 344.784 50.0485C343.267 50.6767 341.642 51 340 51L340 38.5L340 26Z" fill="#1173D9"/>
<ellipse cx="377.5" cy="62.8652" rx="6.25" ry="6.25" fill="#8152FB"/>
</g>
<g filter="url(#filter1_f_5290_132)">
<rect x="290" y="1234" width="25" height="25" fill="#57CFBA"/>
<rect x="290" y="1285" width="25" height="25" fill="#57CFBA"/>
<rect x="365" y="1109" width="25" height="25" fill="#57CFBA"/>
<rect x="365" y="1159" width="25" height="25" fill="#57CFBA"/>
<rect x="340" y="1184" width="25" height="25" fill="#57CFBA"/>
<rect x="315" y="1209" width="25" height="25" fill="#57CFBA"/>
<rect x="340" y="1234" width="25" height="25" fill="#57CFBA"/>
<rect x="315" y="1259" width="25" height="25" fill="#57CFBA"/>
<rect x="265" y="1259" width="25" height="25" fill="#57CFBA"/>
<rect x="315" y="1309" width="25" height="25" fill="#57CFBA"/>
<rect x="315" y="1359" width="25" height="25" fill="#57CFBA"/>
<rect x="340" y="1284" width="25" height="25" fill="#57CFBA"/>
<rect x="340" y="1334" width="25" height="25" fill="#57CFBA"/>
<rect x="340" y="1384" width="25" height="25" fill="#57CFBA"/>
<rect x="365" y="1209" width="25" height="25" fill="#57CFBA"/>
<rect x="365" y="1259" width="25" height="25" fill="#57CFBA"/>
<rect x="365" y="1309" width="25" height="25" fill="#57CFBA"/>
<rect x="365" y="1359" width="25" height="25" fill="#57CFBA"/>
<rect x="340" y="1134" width="25" height="25" fill="#57CFBA"/>
<rect x="315" y="1159" width="25" height="25" fill="#57CFBA"/>
<path d="M352.5 1159C354.972 1159 357.389 1159.73 359.445 1161.11C361.5 1162.48 363.102 1164.43 364.048 1166.72C364.995 1169 365.242 1171.51 364.76 1173.94C364.277 1176.36 363.087 1178.59 361.339 1180.34C359.591 1182.09 357.363 1183.28 354.939 1183.76C352.514 1184.24 350.001 1183.99 347.716 1183.05C345.432 1182.1 343.48 1180.5 342.107 1178.44C340.733 1176.39 340 1173.97 340 1171.5L352.5 1171.5L352.5 1159Z" fill="#F8931F"/>
<path d="M352.5 1109.22C354.142 1109.22 355.767 1109.54 357.284 1110.17C358.8 1110.8 360.178 1111.72 361.339 1112.88C362.5 1114.04 363.42 1115.42 364.048 1116.93C364.677 1118.45 365 1120.08 365 1121.72C365 1123.36 364.677 1124.98 364.048 1126.5C363.42 1128.02 362.5 1129.39 361.339 1130.56C360.178 1131.72 358.8 1132.64 357.284 1133.27C355.767 1133.89 354.142 1134.22 352.5 1134.22L352.5 1121.72L352.5 1109.22Z" fill="#1173D9"/>
<path d="M364.533 1270.1C364.533 1271.71 364.216 1273.31 363.6 1274.79C362.983 1276.28 362.08 1277.64 360.941 1278.77C359.802 1279.91 358.449 1280.82 356.961 1281.43C355.473 1282.05 353.878 1282.37 352.267 1282.37C350.656 1282.37 349.061 1282.05 347.572 1281.43C346.084 1280.82 344.732 1279.91 343.593 1278.77C342.454 1277.64 341.55 1276.28 340.934 1274.79C340.317 1273.31 340 1271.71 340 1270.1L352.267 1270.1H364.533Z" fill="#EF5A2B"/>
<path d="M340 1109C341.642 1109 343.267 1109.32 344.784 1109.95C346.3 1110.58 347.678 1111.5 348.839 1112.66C350 1113.82 350.92 1115.2 351.548 1116.72C352.177 1118.23 352.5 1119.86 352.5 1121.5C352.5 1123.14 352.177 1124.77 351.548 1126.28C350.92 1127.8 350 1129.18 348.839 1130.34C347.678 1131.5 346.3 1132.42 344.784 1133.05C343.267 1133.68 341.642 1134 340 1134L340 1121.5L340 1109Z" fill="#1173D9"/>
<ellipse cx="377.5" cy="1145.87" rx="6.25" ry="6.25" fill="#8152FB"/>
</g>
<g filter="url(#filter2_f_5290_132)">
<rect x="340" y="616" width="25" height="25" fill="#57CFBA"/>
<rect x="315" y="641" width="25" height="25" fill="#57CFBA"/>
<rect x="290" y="666.216" width="25" height="25" fill="#57CFBA"/>
<rect x="365" y="641" width="25" height="25" fill="#57CFBA"/>
<rect x="365" y="691" width="25" height="25" fill="#57CFBA"/>
<rect x="340" y="716" width="25" height="25" fill="#57CFBA"/>
<rect x="290" y="716" width="25" height="25" fill="#57CFBA"/>
<rect x="315" y="741" width="25" height="25" fill="#57CFBA"/>
<rect x="340" y="766" width="25" height="25" fill="#57CFBA"/>
<rect x="340" y="816" width="25" height="25" fill="#57CFBA"/>
<rect x="365" y="741" width="25" height="25" fill="#57CFBA"/>
<rect x="365" y="791" width="25" height="25" fill="#57CFBA"/>
<rect x="340" y="666" width="25" height="25" fill="#57CFBA"/>
<rect x="315" y="691" width="25" height="25" fill="#57CFBA"/>
<rect x="265" y="691" width="25" height="25" fill="#57CFBA"/>
<path d="M352.5 691C354.972 691 357.389 691.733 359.445 693.107C361.5 694.48 363.102 696.432 364.048 698.716C364.995 701.001 365.242 703.514 364.76 705.939C364.277 708.363 363.087 710.591 361.339 712.339C359.591 714.087 357.363 715.278 354.939 715.76C352.514 716.242 350.001 715.995 347.716 715.048C345.432 714.102 343.48 712.5 342.107 710.445C340.733 708.389 340 705.972 340 703.5L352.5 703.5L352.5 691Z" fill="#F8931F"/>
<path d="M352.5 641.216C354.142 641.216 355.767 641.54 357.284 642.168C358.8 642.796 360.178 643.717 361.339 644.877C362.5 646.038 363.42 647.416 364.048 648.933C364.677 650.449 365 652.075 365 653.716C365 655.358 364.677 656.983 364.048 658.5C363.42 660.016 362.5 661.394 361.339 662.555C360.178 663.716 358.8 664.637 357.284 665.265C355.767 665.893 354.142 666.216 352.5 666.216L352.5 653.716L352.5 641.216Z" fill="#1173D9"/>
<path d="M389.533 778.1C389.533 779.711 389.216 781.306 388.6 782.794C387.983 784.283 387.08 785.635 385.941 786.774C384.802 787.913 383.449 788.817 381.961 789.433C380.473 790.05 378.878 790.367 377.267 790.367C375.656 790.367 374.061 790.05 372.572 789.433C371.084 788.817 369.732 787.913 368.593 786.774C367.454 785.635 366.55 784.283 365.934 782.794C365.317 781.306 365 779.711 365 778.1L377.267 778.1H389.533Z" fill="#EF5A2B"/>
<path d="M340 641C341.642 641 343.267 641.323 344.784 641.951C346.3 642.58 347.678 643.5 348.839 644.661C350 645.822 350.92 647.2 351.548 648.716C352.177 650.233 352.5 651.858 352.5 653.5C352.5 655.142 352.177 656.767 351.548 658.284C350.92 659.8 350 661.178 348.839 662.339C347.678 663.5 346.3 664.42 344.784 665.048C343.267 665.677 341.642 666 340 666L340 653.5L340 641Z" fill="#1173D9"/>
<ellipse cx="377.5" cy="677.865" rx="6.25" ry="6.25" fill="#8152FB"/>
</g>
<g filter="url(#filter3_f_5290_132)">
<rect x="50" y="604" width="25" height="25" transform="rotate(-180 50 604)" fill="#57CFBA"/>
<rect x="75" y="579" width="25" height="25" transform="rotate(-180 75 579)" fill="#57CFBA"/>
<rect x="100" y="553.784" width="25" height="25" transform="rotate(-180 100 553.784)" fill="#57CFBA"/>
<rect x="25" y="579" width="25" height="25" transform="rotate(-180 25 579)" fill="#57CFBA"/>
<rect x="25" y="529" width="25" height="25" transform="rotate(-180 25 529)" fill="#57CFBA"/>
<rect x="50" y="504" width="25" height="25" transform="rotate(-180 50 504)" fill="#57CFBA"/>
<rect x="100" y="504" width="25" height="25" transform="rotate(-180 100 504)" fill="#57CFBA"/>
<rect x="75" y="429" width="25" height="25" transform="rotate(-180 75 429)" fill="#57CFBA"/>
<rect x="75" y="479" width="25" height="25" transform="rotate(-180 75 479)" fill="#57CFBA"/>
<rect x="50" y="454" width="25" height="25" transform="rotate(-180 50 454)" fill="#57CFBA"/>
<rect x="50" y="404" width="25" height="25" transform="rotate(-180 50 404)" fill="#57CFBA"/>
<rect x="25" y="479" width="25" height="25" transform="rotate(-180 25 479)" fill="#57CFBA"/>
<rect x="25" y="429" width="25" height="25" transform="rotate(-180 25 429)" fill="#57CFBA"/>
<rect x="50" y="554" width="25" height="25" transform="rotate(-180 50 554)" fill="#57CFBA"/>
<rect x="75" y="529" width="25" height="25" transform="rotate(-180 75 529)" fill="#57CFBA"/>
<rect x="125" y="529" width="25" height="25" transform="rotate(-180 125 529)" fill="#57CFBA"/>
<rect x="100" y="454" width="25" height="25" transform="rotate(-180 100 454)" fill="#57CFBA"/>
<path d="M37.5 529C35.0277 529 32.611 528.267 30.5554 526.893C28.4998 525.52 26.8976 523.568 25.9515 521.284C25.0054 518.999 24.7579 516.486 25.2402 514.061C25.7225 511.637 26.913 509.409 28.6612 507.661C30.4093 505.913 32.6366 504.722 35.0614 504.24C37.4861 503.758 39.9995 504.005 42.2835 504.952C44.5676 505.898 46.5199 507.5 47.8934 509.555C49.2669 511.611 50 514.028 50 516.5L37.5 516.5L37.5 529Z" fill="#F8931F"/>
<path d="M37.5 578.784C35.8585 578.784 34.233 578.46 32.7165 577.832C31.1999 577.204 29.8219 576.283 28.6612 575.123C27.5004 573.962 26.5797 572.584 25.9515 571.067C25.3233 569.551 25 567.925 25 566.284C25 564.642 25.3233 563.017 25.9515 561.5C26.5797 559.984 27.5004 558.606 28.6612 557.445C29.8219 556.284 31.1999 555.363 32.7165 554.735C34.233 554.107 35.8585 553.784 37.5 553.784L37.5 566.284L37.5 578.784Z" fill="#1173D9"/>
<path d="M0.466574 441.9C0.466574 440.289 0.783862 438.694 1.40032 437.206C2.01678 435.717 2.92034 434.365 4.05941 433.226C5.19848 432.087 6.55075 431.183 8.03902 430.567C9.52729 429.95 11.1224 429.633 12.7333 429.633C14.3442 429.633 15.9393 429.95 17.4276 430.567C18.9158 431.183 20.2681 432.087 21.4072 433.226C22.5462 434.365 23.4498 435.717 24.0663 437.206C24.6827 438.694 25 440.289 25 441.9L12.7333 441.9H0.466574Z" fill="#EF5A2B"/>
<path d="M50 579C48.3585 579 46.733 578.677 45.2165 578.049C43.6999 577.42 42.3219 576.5 41.1612 575.339C40.0004 574.178 39.0797 572.8 38.4515 571.284C37.8233 569.767 37.5 568.142 37.5 566.5C37.5 564.858 37.8233 563.233 38.4515 561.716C39.0797 560.2 40.0004 558.822 41.1612 557.661C42.3219 556.5 43.6999 555.58 45.2165 554.952C46.733 554.323 48.3585 554 50 554L50 566.5L50 579Z" fill="#1173D9"/>
<ellipse cx="12.5" cy="542.135" rx="6.25" ry="6.25" transform="rotate(-180 12.5 542.135)" fill="#8152FB"/>
</g>
<g filter="url(#filter4_f_5290_132)">
<rect x="50" y="1084" width="25" height="25" transform="rotate(-180 50 1084)" fill="#57CFBA"/>
<rect x="75" y="1059" width="25" height="25" transform="rotate(-180 75 1059)" fill="#57CFBA"/>
<rect x="100" y="1033.78" width="25" height="25" transform="rotate(-180 100 1033.78)" fill="#57CFBA"/>
<rect x="25" y="1059" width="25" height="25" transform="rotate(-180 25 1059)" fill="#57CFBA"/>
<rect x="25" y="1009" width="25" height="25" transform="rotate(-180 25 1009)" fill="#57CFBA"/>
<rect x="50" y="984" width="25" height="25" transform="rotate(-180 50 984)" fill="#57CFBA"/>
<rect x="100" y="984" width="25" height="25" transform="rotate(-180 100 984)" fill="#57CFBA"/>
<rect x="75" y="909" width="25" height="25" transform="rotate(-180 75 909)" fill="#57CFBA"/>
<rect x="75" y="959" width="25" height="25" transform="rotate(-180 75 959)" fill="#57CFBA"/>
<rect x="50" y="934" width="25" height="25" transform="rotate(-180 50 934)" fill="#57CFBA"/>
<rect x="50" y="884" width="25" height="25" transform="rotate(-180 50 884)" fill="#57CFBA"/>
<rect x="25" y="959" width="25" height="25" transform="rotate(-180 25 959)" fill="#57CFBA"/>
<rect x="25" y="909" width="25" height="25" transform="rotate(-180 25 909)" fill="#57CFBA"/>
<rect x="50" y="1034" width="25" height="25" transform="rotate(-180 50 1034)" fill="#57CFBA"/>
<rect x="75" y="1009" width="25" height="25" transform="rotate(-180 75 1009)" fill="#57CFBA"/>
<rect x="125" y="1009" width="25" height="25" transform="rotate(-180 125 1009)" fill="#57CFBA"/>
<rect x="100" y="934" width="25" height="25" transform="rotate(-180 100 934)" fill="#57CFBA"/>
<path d="M37.5 1009C35.0277 1009 32.611 1008.27 30.5554 1006.89C28.4998 1005.52 26.8976 1003.57 25.9515 1001.28C25.0054 998.999 24.7579 996.486 25.2402 994.061C25.7225 991.637 26.913 989.409 28.6612 987.661C30.4093 985.913 32.6366 984.722 35.0614 984.24C37.4861 983.758 39.9995 984.005 42.2835 984.952C44.5676 985.898 46.5199 987.5 47.8934 989.555C49.2669 991.611 50 994.028 50 996.5L37.5 996.5L37.5 1009Z" fill="#F8931F"/>
<path d="M37.5 1058.78C35.8585 1058.78 34.233 1058.46 32.7165 1057.83C31.1999 1057.2 29.8219 1056.28 28.6612 1055.12C27.5004 1053.96 26.5797 1052.58 25.9515 1051.07C25.3233 1049.55 25 1047.93 25 1046.28C25 1044.64 25.3233 1043.02 25.9515 1041.5C26.5797 1039.98 27.5004 1038.61 28.6612 1037.44C29.8219 1036.28 31.1999 1035.36 32.7165 1034.74C34.233 1034.11 35.8585 1033.78 37.5 1033.78L37.5 1046.28L37.5 1058.78Z" fill="#1173D9"/>
<path d="M0.466574 921.9C0.466574 920.289 0.783862 918.694 1.40032 917.206C2.01678 915.717 2.92034 914.365 4.05941 913.226C5.19848 912.087 6.55075 911.183 8.03902 910.567C9.52729 909.95 11.1224 909.633 12.7333 909.633C14.3442 909.633 15.9393 909.95 17.4276 910.567C18.9158 911.183 20.2681 912.087 21.4072 913.226C22.5462 914.365 23.4498 915.717 24.0663 917.206C24.6827 918.694 25 920.289 25 921.9L12.7333 921.9H0.466574Z" fill="#EF5A2B"/>
<path d="M50 1059C48.3585 1059 46.733 1058.68 45.2165 1058.05C43.6999 1057.42 42.3219 1056.5 41.1612 1055.34C40.0004 1054.18 39.0797 1052.8 38.4515 1051.28C37.8233 1049.77 37.5 1048.14 37.5 1046.5C37.5 1044.86 37.8233 1043.23 38.4515 1041.72C39.0797 1040.2 40.0004 1038.82 41.1612 1037.66C42.3219 1036.5 43.6999 1035.58 45.2165 1034.95C46.733 1034.32 48.3585 1034 50 1034L50 1046.5L50 1059Z" fill="#1173D9"/>
<ellipse cx="12.5" cy="1022.13" rx="6.25" ry="6.25" transform="rotate(-180 12.5 1022.13)" fill="#8152FB"/>
</g>
</g>
<defs>
<filter id="filter0_f_5290_132" x="264.5" y="25.5" width="126" height="301" filterUnits="userSpaceOnUse" color-interpolation-filters="sRGB">
<feFlood flood-opacity="0" result="BackgroundImageFix"/>
<feBlend mode="normal" in="SourceGraphic" in2="BackgroundImageFix" result="shape"/>
<feGaussianBlur stdDeviation="0.25" result="effect1_foregroundBlur_5290_132"/>
</filter>
<filter id="filter1_f_5290_132" x="264.5" y="1108.5" width="126" height="301" filterUnits="userSpaceOnUse" color-interpolation-filters="sRGB">
<feFlood flood-opacity="0" result="BackgroundImageFix"/>
<feBlend mode="normal" in="SourceGraphic" in2="BackgroundImageFix" result="shape"/>
<feGaussianBlur stdDeviation="0.25" result="effect1_foregroundBlur_5290_132"/>
</filter>
<filter id="filter2_f_5290_132" x="264.5" y="615.5" width="126" height="226" filterUnits="userSpaceOnUse" color-interpolation-filters="sRGB">
<feFlood flood-opacity="0" result="BackgroundImageFix"/>
<feBlend mode="normal" in="SourceGraphic" in2="BackgroundImageFix" result="shape"/>
<feGaussianBlur stdDeviation="0.25" result="effect1_foregroundBlur_5290_132"/>
</filter>
<filter id="filter3_f_5290_132" x="-0.5" y="378.5" width="126" height="226" filterUnits="userSpaceOnUse" color-interpolation-filters="sRGB">
<feFlood flood-opacity="0" result="BackgroundImageFix"/>
<feBlend mode="normal" in="SourceGraphic" in2="BackgroundImageFix" result="shape"/>
<feGaussianBlur stdDeviation="0.25" result="effect1_foregroundBlur_5290_132"/>
</filter>
<filter id="filter4_f_5290_132" x="-0.5" y="858.5" width="126" height="226" filterUnits="userSpaceOnUse" color-interpolation-filters="sRGB">
<feFlood flood-opacity="0" result="BackgroundImageFix"/>
<feBlend mode="normal" in="SourceGraphic" in2="BackgroundImageFix" result="shape"/>
<feGaussianBlur stdDeviation="0.25" result="effect1_foregroundBlur_5290_132"/>
</filter>
<clipPath id="clip0_5290_132">
<rect width="390" height="1408" fill="white"/>
</clipPath>
</defs>
</svg>
