<svg width="374" height="290" viewBox="0 0 374 290" fill="none" xmlns="http://www.w3.org/2000/svg">
<rect width="374" height="290" rx="15" fill="black" fill-opacity="0.15"/>
<rect width="374" height="290" rx="15" fill="black" fill-opacity="0.49"/>
<path d="M140.342 155.414C140.342 139.917 148.369 131.889 160.633 131.889C169.887 131.889 175.907 135.346 177.914 136.572C179.475 135.123 180.701 132.558 180.701 129.994C180.701 125.535 175.461 120.852 160.187 120.852C142.349 120.852 127.409 132.893 127.409 155.637C127.409 177.823 140.899 190.198 158.849 190.198C169.552 190.198 178.137 186.742 180.59 185.516V173.141C177.802 175.036 169.106 179.049 160.967 179.049C149.15 179.049 140.342 171.134 140.342 155.414Z" fill="white"/>
<path d="M226.356 154.281C234.405 145.226 241.671 134.382 246.701 121.079L235.187 116.831C227.921 136.059 216.854 149.027 203.663 159.759V93.9146H191.254V188.377H203.663V174.403C208.469 170.937 212.717 167.472 217.413 163.224L228.815 182.452C231.61 187.147 235.411 189.718 241.112 189.718C244.354 189.718 246.142 188.712 246.925 188.265L226.356 154.281Z" fill="white"/>
</svg>
