<svg width="321" height="722" viewBox="0 0 321 722" fill="none" xmlns="http://www.w3.org/2000/svg">
<g filter="">
<rect x="160" y="1.00049" width="80" height="80" fill="#EDB2D0"/>
<rect x="80" y="81.001" width="80" height="80" fill="#EDB2D0"/>
<rect x="0.000110626" y="161" width="80" height="80" fill="#EDB2D0"/>
<rect x="0.000110626" y="321" width="80" height="80" fill="#EDB2D0"/>
<rect x="0.000110626" y="481.001" width="80" height="80" fill="#EDB2D0"/>
<rect x="240" y="81.001" width="80" height="80" fill="#EDB2D0"/>
<rect x="240" y="241" width="80" height="80" fill="#EDB2D0"/>
<rect x="160" y="321" width="80" height="80" fill="#EDB2D0"/>
<rect x="80" y="401.001" width="80" height="80" fill="#EDB2D0"/>
<rect x="160" y="481.001" width="80" height="80" fill="#EDB2D0"/>
<rect x="80" y="561" width="80" height="80" fill="#EDB2D0"/>
<rect x="160" y="641" width="80" height="80" fill="#EDB2D0"/>
<rect x="240" y="401.001" width="80" height="80" fill="#EDB2D0"/>
<rect x="240" y="561" width="80" height="80" fill="#EDB2D0"/>
<rect x="160" y="161" width="80" height="80" fill="#EDB2D0"/>
<rect x="80" y="241" width="80" height="80" fill="#EDB2D0"/>
<path d="M280 81.0005C274.747 81.0005 269.546 79.9659 264.693 77.9557C259.84 75.9455 255.43 72.9991 251.716 69.2848C248.002 65.5704 245.055 61.1609 243.045 56.3078C241.035 51.4548 240 46.2534 240 41.0005C240 35.7476 241.035 30.5462 243.045 25.6932C245.055 20.8401 248.002 16.4306 251.716 12.7162C255.43 9.00187 259.84 6.05549 264.693 4.0453C269.546 2.03512 274.747 1.00049 280 1.00049L280 41.0005L280 81.0005Z" fill="#1A75BC"/>
<path d="M200 241C207.911 241 215.645 243.346 222.223 247.742C228.801 252.137 233.928 258.384 236.955 265.693C239.983 273.002 240.775 281.045 239.232 288.804C237.688 296.563 233.879 303.691 228.284 309.285C222.69 314.879 215.563 318.688 207.804 320.232C200.045 321.775 192.002 320.983 184.693 317.956C177.384 314.928 171.137 309.801 166.741 303.223C162.346 296.645 160 288.912 160 281L200 281L200 241Z" fill="#F8931F"/>
<path d="M40 481.001C32.0887 481.001 24.3551 478.655 17.7772 474.26C11.1992 469.865 6.07232 463.617 3.04481 456.308C0.017309 448.999 -0.77482 440.957 0.768584 433.197C2.312 425.438 6.12163 418.311 11.7157 412.717C17.3098 407.123 24.4371 403.313 32.1964 401.77C39.9556 400.226 47.9983 401.018 55.3073 404.046C62.6164 407.073 68.8635 412.2 73.2588 418.778C77.654 425.356 80 433.09 80 441.001L40 441.001L40 481.001Z" fill="#F8931F"/>
<path d="M200 81.6933C205.253 81.6933 210.455 82.728 215.308 84.7382C220.161 86.7483 224.57 89.6947 228.284 93.4091C231.999 97.1234 234.945 101.533 236.955 106.386C238.966 111.239 240 116.44 240 121.693C240 126.946 238.966 132.148 236.955 137.001C234.945 141.854 231.999 146.263 228.284 149.978C224.57 153.692 220.161 156.638 215.308 158.649C210.455 160.659 205.253 161.693 200 161.693L200 121.693L200 81.6933Z" fill="#EF5A2B"/>
<path d="M238.507 596.522C238.507 601.676 237.492 606.781 235.519 611.543C233.546 616.306 230.655 620.633 227.01 624.278C223.365 627.923 219.038 630.814 214.275 632.787C209.513 634.76 204.408 635.775 199.253 635.775C194.099 635.775 188.994 634.76 184.232 632.787C179.469 630.814 175.142 627.923 171.497 624.278C167.852 620.633 164.961 616.306 162.988 611.543C161.015 606.781 160 601.676 160 596.522L199.253 596.522H238.507Z" fill="#EF5A2B"/>
<path d="M160 81C165.253 81 170.454 82.0346 175.307 84.0448C180.16 86.055 184.57 89.0014 188.284 92.7157C191.999 96.4301 194.945 100.84 196.955 105.693C198.965 110.546 200 115.747 200 121C200 126.253 198.965 131.454 196.955 136.307C194.945 141.16 191.999 145.57 188.284 149.284C184.57 152.999 180.16 155.945 175.307 157.955C170.454 159.965 165.253 161 160 161L160 121L160 81Z" fill="#F15A2B"/>
<ellipse cx="280" cy="198.969" rx="20" ry="20" fill="#1A75BC"/>
</g>
<defs>
<filter id="filter0_f_4770_617" x="-1.00002" y="0.000488281" width="322" height="722" filterUnits="userSpaceOnUse" color-interpolation-filters="sRGB">
<feFlood flood-opacity="0" result="BackgroundImageFix"/>
<feBlend mode="normal" in="SourceGraphic" in2="BackgroundImageFix" result="shape"/>
<feGaussianBlur stdDeviation="0.5" result="effect1_foregroundBlur_4770_617"/>
</filter>
</defs>
</svg>
