<svg width="162" height="49" viewBox="0 0 162 49" fill="none" xmlns="http://www.w3.org/2000/svg">
<path d="M0.96 4.672C0.96 6.144 2.752 7.616 2.752 12.864V38.336C2.752 43.584 0.96 45.056 0.96 46.528C0.96 46.528 0.96 48 2.752 48H11.264C12.48 48 13.056 47.488 13.056 46.528C13.056 45.056 11.264 43.584 11.264 38.336V31.808C13.312 33.6 15.744 34.624 18.432 34.624C25.472 34.624 31.104 27.392 31.104 18.624C31.104 9.792 25.472 2.56 18.432 2.56C16.448 2.56 14.592 3.136 12.992 4.16C14.016 3.52 13.632 3.584 13.248 3.584C12.608 3.584 12.16 3.2 11.264 3.2H2.752C1.536 3.2 0.96 3.712 0.96 4.672ZM11.264 12.864C11.264 9.536 11.648 6.144 15.872 6.144C20.416 6.144 21.696 12.928 21.696 18.624C21.696 24.256 20.416 31.04 15.872 31.04C14.144 31.04 12.544 30.08 11.264 28.544V12.864ZM34.8145 25.728V38.336C34.8145 43.584 33.0225 45.056 33.0225 46.528C33.0225 47.488 33.5985 48 34.8145 48H43.3265C43.3265 48 45.1185 48 45.1185 46.528C45.1185 45.056 43.3265 43.584 43.3265 38.336V22.656C45.5025 20.352 47.9985 18.816 49.7905 18.816C52.6065 18.816 52.1585 25.6 56.8305 25.6C59.3265 25.6 60.7345 23.744 60.7345 22.144C60.7345 17.856 55.2945 15.36 51.3265 15.36C48.1265 15.36 45.5025 16.896 43.3265 19.072V18.752C43.3265 16.64 42.4945 16 41.4705 16C40.6385 16 39.6785 16.448 39.1025 16.96L34.8145 20.48C32.3825 22.464 34.8145 22.848 34.8145 25.728ZM64.4395 25.984V38.336C64.4395 43.584 62.6475 45.056 62.6475 46.528C62.6475 46.528 62.6475 48 64.4395 48H72.9515C72.9515 48 74.7435 48 74.7435 46.528C74.7435 45.056 72.9515 43.584 72.9515 38.336V19.008C72.9515 16.704 72.1835 16 71.2875 16C70.3915 16 69.3675 16.64 68.7275 17.216L64.4395 20.736C62.0075 22.72 62.4555 23.936 64.4395 25.984ZM62.9035 5.888C62.9035 9.152 65.4635 11.712 68.7275 11.712C71.9275 11.712 74.4875 9.152 74.4875 5.888C74.4875 2.688 71.9275 -3.8147e-06 68.7275 -3.8147e-06C65.4635 -3.8147e-06 62.9035 2.688 62.9035 5.888ZM76.6475 46.528C76.6475 46.528 76.6475 48 78.4395 48H92.8395C100.264 48 105.064 45.376 105.064 41.088C105.064 39.488 103.656 37.632 101.16 37.632C96.4875 37.632 97.5115 45.888 92.9035 45.888H89.5755C89.5755 36.608 107.24 20.544 107.24 17.472C107.24 17.472 107.24 16 105.448 16H91.0475C83.6235 16 78.8235 18.624 78.8235 22.912C78.8235 24.512 80.2315 26.368 82.7275 26.368C87.3995 26.368 86.3755 18.112 90.9835 18.112H94.3755C94.3755 28.416 76.6475 43.456 76.6475 46.528ZM123.066 48.64C129.21 48.64 133.242 44.288 134.074 41.6C134.65 39.744 133.178 38.4 131.642 38.4C130.618 38.4 129.53 38.976 129.018 40.384C127.93 43.328 125.818 46.528 123.066 46.528C120.826 46.528 117.306 42.688 117.306 32.704H124.026C129.466 32.704 134.586 31.552 134.586 25.28C134.586 18.048 128.442 15.36 122.618 15.36C113.21 15.36 107.898 21.44 107.898 31.424C107.898 40.768 113.21 48.64 123.066 48.64ZM122.618 17.472C124.474 17.472 125.178 21.44 125.178 25.024C125.178 27.584 124.474 30.592 121.466 30.592H117.37C117.754 21.952 120.762 17.472 122.618 17.472ZM148.747 48.64C153.483 48.64 161.547 46.464 161.547 39.872C161.547 31.488 145.355 28.992 145.355 22.08C145.355 19.84 146.955 17.472 149.323 17.472C153.931 17.472 152.907 26.368 157.579 26.368C160.075 26.368 161.483 24.512 161.483 22.912C161.483 18.624 156.683 15.36 149.259 15.36C144.523 15.36 136.651 17.856 136.651 24.448C136.651 32.832 152.651 35.008 152.651 41.92C152.651 44.16 151.051 46.528 148.683 46.528C144.075 46.528 145.099 37.632 140.427 37.632C137.931 37.632 136.523 39.488 136.523 41.088C136.523 45.376 141.323 48.64 148.747 48.64Z" fill="#2F302D"/>
</svg>
