<svg width="71" height="221" viewBox="0 0 71 221" fill="none" xmlns="http://www.w3.org/2000/svg">
<path d="M35.1952 75L42.3344 85.8811L54.2232 80.5871L54.3463 93.6007L67.2099 95.5746L60.2778 106.589L70.0322 115.204L58.2458 120.722L61.7939 133.243L48.8953 131.513L45.1108 143.965L35.1952 135.536L25.2796 143.965L21.4951 131.513L8.59644 133.243L12.1446 120.722L0.358238 115.204L10.1126 106.589L3.18052 95.5746L16.0441 93.6007L16.1672 80.5871L28.0559 85.8811L35.1952 75Z" fill="#8151FB"/>
<path d="M27.9788 117.319V114.187H22.4163V113.981L25.5684 111.468C27.196 110.17 28.3703 108.831 28.3703 107.018C28.3497 104.257 25.9598 102.279 22.6841 102.279C19.0581 102.279 16.5035 104.772 16.6477 108.213H20.4385C20.4797 106.626 21.3862 105.679 22.6017 105.679C23.673 105.679 24.4353 106.4 24.4353 107.409C24.4353 108.295 23.7348 108.893 22.7253 109.758L16.5859 114.847V117.319H27.9788ZM33.6827 117.319V111.468C33.6827 110.417 34.3832 109.675 35.2897 109.675C36.1962 109.675 36.773 110.376 36.773 111.406V117.319H40.6256V110.685C40.6256 108.233 39.0805 106.441 36.876 106.441C35.6193 106.441 34.7334 107.018 33.8887 108.254H33.6827V106.688H29.8301V117.319H33.6827ZM46.6094 117.587C47.9897 117.587 48.9786 117.051 49.6791 116.083H49.8851V117.319H53.7377V101.95H49.8851V107.924H49.6791C48.9786 106.956 47.9485 106.42 46.5888 106.42C43.8075 106.42 41.8915 108.625 41.8915 112.004C41.8915 115.423 43.7869 117.587 46.6094 117.587ZM47.9073 114.352C46.6506 114.352 45.7647 113.343 45.7647 112.004C45.7647 110.664 46.6506 109.655 47.9073 109.655C49.1434 109.655 50.0499 110.664 50.0499 112.004C50.0499 113.343 49.1434 114.352 47.9073 114.352Z" fill="#EBE5DB"/>
<path d="M35.1952 150L42.3344 160.881L54.2232 155.587L54.3463 168.601L67.2099 170.575L60.2778 181.589L70.0322 190.204L58.2458 195.722L61.7939 208.243L48.8953 206.513L45.1108 218.965L35.1952 210.536L25.2796 218.965L21.4951 206.513L8.59644 208.243L12.1446 195.722L0.358238 190.204L10.1126 181.589L3.18052 170.575L16.0441 168.601L16.1672 155.587L28.0559 160.881L35.1952 150Z" fill="#8151FB"/>
<path d="M22.9337 192.628C26.4566 192.628 28.9907 190.568 28.9907 187.704C28.9907 185.438 27.3837 183.542 25.1999 183.089L28.3932 179.999V177.568H17.7831V180.699H23.4075V180.905L20.8735 183.336L21.7387 185.603C22.0066 185.458 22.4804 185.355 22.8925 185.355C24.0668 185.355 24.9321 186.2 24.9321 187.354C24.9321 188.487 24.0874 189.352 22.8925 189.352C21.6563 189.352 20.7086 188.322 20.7086 186.942H16.7942C16.9179 190.217 19.4931 192.628 22.9337 192.628ZM34.1589 192.319V187.045C34.1589 185.664 34.983 184.737 36.1573 184.737C36.6517 184.737 37.3934 184.902 38.0115 185.17V181.75C37.6818 181.585 37.2492 181.482 36.8372 181.482C35.7659 181.482 34.8182 182.141 34.3649 183.192H34.1383V181.688H30.3063V192.319H34.1589ZM43.4239 192.587C44.8042 192.587 45.7931 192.051 46.4936 191.083H46.6996V192.319H50.5522V176.95H46.6996V182.924H46.4936C45.7931 181.956 44.763 181.42 43.4033 181.42C40.622 181.42 38.706 183.625 38.706 187.004C38.706 190.423 40.6014 192.587 43.4239 192.587ZM44.7218 189.352C43.4651 189.352 42.5792 188.343 42.5792 187.004C42.5792 185.664 43.4651 184.655 44.7218 184.655C45.9579 184.655 46.8644 185.664 46.8644 187.004C46.8644 188.343 45.9579 189.352 44.7218 189.352Z" fill="#EBE5DB"/>
<path d="M35.1952 0L42.3344 10.8811L54.2232 5.58711L54.3463 18.6007L67.2099 20.5746L60.2778 31.5889L70.0322 40.204L58.2458 45.722L61.7939 58.2431L48.8953 56.513L45.1108 68.9647L35.1952 60.5357L25.2796 68.9647L21.4951 56.513L8.59644 58.2431L12.1446 45.722L0.358238 40.204L10.1126 31.5889L3.18052 20.5746L16.0441 18.6007L16.1672 5.58711L28.0559 10.8811L35.1952 0Z" fill="#8151FB"/>
<path d="M28.7399 42.3184V27.5673H25.0933L21.0141 30.6164V34.6956L24.331 32.2646H24.537V42.3184H28.7399ZM35.6034 42.6686C38.9822 42.6686 41.063 41.2264 41.063 38.8572C41.063 36.3438 38.6319 35.8699 36.6953 35.6639C35.2738 35.4991 34.0171 35.4579 34.0171 34.6544C34.0171 34.0775 34.6351 33.6861 35.5004 33.6861C36.4893 33.6861 37.1898 34.1805 37.2104 34.9222H40.6303C40.6303 32.7384 38.4465 31.3581 35.5004 31.3581C32.4719 31.3581 30.4735 32.759 30.4735 35.0046C30.4735 37.9507 33.296 38.1155 35.212 38.301C36.3245 38.404 37.231 38.5276 37.231 39.2899C37.231 39.9285 36.5923 40.32 35.6858 40.32C34.4703 40.32 33.6874 39.7225 33.6874 38.816H30.4117C30.4117 41.2058 32.4101 42.6686 35.6034 42.6686ZM47.0258 42.5862C47.6851 42.5862 48.674 42.4626 49.3538 42.2153V39.5371C49.0242 39.6195 48.6122 39.6813 48.3237 39.6813C47.5615 39.6813 47.067 39.125 47.067 38.301V34.4278H49.292V31.6877H47.067V28.3708H44.0385L43.338 31.6877H41.8341V34.4278H43.1938V38.4864C43.1938 40.938 44.6978 42.5862 47.0258 42.5862Z" fill="#EBE5DB"/>
</svg>
