<svg width="358" height="115" viewBox="0 0 358 115" fill="none" xmlns="http://www.w3.org/2000/svg">
<path fill-rule="evenodd" clip-rule="evenodd" d="M0 102.356C0 108.942 5.33943 114.281 11.9253 114.281H345.81C352.396 114.281 357.735 108.942 357.735 102.356V11.9253C357.735 5.33943 352.396 0 345.81 0H11.9562C5.37034 0 0.0309029 5.33943 0.0309029 11.9253L0 102.356Z" fill="#363636"/>
<path d="M57.0861 75.9561L57.3402 68.0071V30.8027H62.8342V50.1346H62.9612C64.9322 46.7008 68.4552 44.4758 73.4547 44.4758C81.0878 44.4758 86.4925 50.835 86.4273 60.1816C86.4273 71.1833 79.4911 76.6532 72.6237 76.6532C68.1736 76.6532 64.6128 74.9363 62.3225 70.8674H62.1303L61.8762 75.9561H57.0449H57.0861ZM62.8719 63.6188C62.8719 64.3193 62.999 65.0163 63.126 65.655C64.2077 69.5351 67.4525 72.2065 71.5215 72.2065C77.3725 72.2065 80.8715 67.3993 80.8715 60.3774C80.8715 54.207 77.6919 48.9293 71.7138 48.9293C67.9367 48.9293 64.3381 51.539 63.1913 55.7968C63.0642 56.432 62.8719 57.1943 62.8719 58.0871V63.6188ZM111.974 75.9561L111.528 72.076H111.335C109.619 74.4934 106.312 76.6566 101.927 76.6566C95.6949 76.6566 92.5187 72.2683 92.5187 67.8182C92.5187 60.3774 99.132 56.3084 111.061 56.3702V55.7659C111.061 53.2249 110.36 48.6443 104.066 48.6443C101.206 48.6443 98.2152 49.5371 96.0554 50.9346L94.7849 47.2605C97.3259 45.6055 101.017 44.5273 104.897 44.5273C114.306 44.5273 116.599 50.9484 116.599 57.1188V68.6286C116.599 71.3 116.726 73.8959 117.108 76.0042L111.974 75.9561ZM111.15 60.2503C105.045 60.1233 98.1122 61.2049 98.1122 67.1864C98.1122 70.8124 100.53 72.5293 103.39 72.5293C107.397 72.5293 109.914 69.9883 110.831 67.3787C111.029 66.8049 111.137 66.2036 111.15 65.5966V60.2503ZM126.516 30.8062H132.113V75.9596H126.516V30.8062ZM141.377 70.2321C143.032 71.3137 145.954 72.4572 148.753 72.4572C152.822 72.4572 154.727 70.421 154.727 67.8766C154.727 65.2052 153.138 63.7424 149.003 62.2178C143.509 60.2469 140.855 57.1943 140.855 53.5065C140.855 48.5448 144.862 44.4758 151.476 44.4758C154.593 44.4758 157.327 45.3686 159.044 46.3849L157.646 50.4539C155.754 49.2877 153.575 48.6707 151.352 48.6718C148.045 48.6718 146.201 50.581 146.201 52.8678C146.201 55.4088 148.045 56.5556 152.052 58.0871C157.395 60.1233 160.129 62.7913 160.129 67.3718C160.129 72.7765 155.933 76.5948 148.619 76.5948C145.247 76.5948 142.095 75.7707 139.966 74.5071L141.377 70.2321ZM186.015 75.9561L185.569 72.076H185.377C183.66 74.4934 180.353 76.6566 175.968 76.6566C169.736 76.6566 166.56 72.2683 166.56 67.8182C166.56 60.3774 173.173 56.3084 185.102 56.3702V55.7659C185.102 53.2249 184.402 48.6443 178.108 48.6443C175.247 48.6443 172.256 49.5371 170.097 50.9346L168.826 47.2605C171.367 45.6055 175.058 44.5273 178.939 44.5273C188.347 44.5273 190.641 50.9484 190.641 57.1188V68.6286C190.641 71.3 190.768 73.8959 191.149 76.0042L186.015 75.9561ZM185.191 60.2503C179.086 60.1233 172.153 61.2049 172.153 67.1864C172.153 70.8124 174.571 72.5293 177.431 72.5293C181.435 72.5293 183.983 69.9883 184.872 67.3787C185.07 66.8049 185.178 66.2036 185.191 65.5966V60.2503ZM200.513 53.5099L200.258 45.1797H205.155L205.409 50.1414H205.608C207.325 47.2159 210.189 44.4827 215.274 44.4827C219.47 44.4827 222.65 47.0236 223.985 50.6531H224.113C225.067 48.9362 226.276 47.5627 227.546 46.6459C229.39 45.2484 231.426 44.4827 234.345 44.4827C238.414 44.4827 244.457 47.1541 244.457 57.8742V76.0042H238.987V58.5746C238.987 52.6618 236.824 49.0976 232.309 49.0976C229.129 49.0976 226.65 51.4497 225.695 54.1864C225.441 54.9486 225.249 55.9719 225.249 56.9848V76.0008H219.779V57.5617C219.779 52.6652 217.616 49.1148 213.358 49.1148C209.856 49.1148 207.315 51.9132 206.422 54.7117C206.109 55.5883 205.958 56.5144 205.976 57.445V76.0145H200.506V53.558L200.513 53.5099ZM260.692 36.5302C260.754 38.4393 259.318 39.9639 257.131 39.9639C255.16 39.9639 253.759 38.4359 253.759 36.5302C253.745 36.0669 253.827 35.6058 253.998 35.1751C254.168 34.7443 254.426 34.3531 254.753 34.0254C255.081 33.6977 255.472 33.4404 255.903 33.2695C256.334 33.0985 256.795 33.0174 257.258 33.0312C259.318 33.0312 260.692 34.5592 260.692 36.5336V36.5302ZM254.443 75.9561V45.1763H260.04V75.9561H254.443ZM291.448 71.1489H291.321C289.666 74.2393 286.232 76.6188 281.284 76.6188C274.101 76.6188 268.246 70.3866 268.246 61.0366C268.246 49.5268 275.687 44.438 282.173 44.438C286.98 44.438 290.122 46.7901 291.65 49.7809H291.777L291.977 45.1454H297.254L297.065 53.6026V88.5132H291.468V71.2176L291.448 71.1489ZM291.448 57.6063C291.448 56.8441 291.386 55.9513 291.194 55.2542C290.37 51.8205 287.417 48.895 283.183 48.895C277.397 48.895 273.898 53.7915 273.898 60.7242C273.898 66.8293 276.824 72.1722 282.99 72.1722C286.617 72.1722 289.731 69.9471 291.001 66.067C291.278 65.2027 291.429 64.3029 291.448 63.3956V57.6063Z" fill="white"/>
</svg>
