<svg width="36" height="736" viewBox="0 0 36 736" fill="none" xmlns="http://www.w3.org/2000/svg">
<path d="M28.6523 703.798L28.6523 722.499L35 725.648L35 735.756L1.45508 718.202L1.45508 708.095L35 690.541L35 700.648L28.6523 703.798ZM22.1094 719.252L22.1094 706.996L9.75586 713.1L22.1094 719.252ZM12.9053 632.353C14.5817 632.353 16.1279 632.597 17.5439 633.085C18.9437 633.573 20.1562 634.363 21.1816 635.453C22.1908 636.527 22.9801 637.927 23.5498 639.652C24.1195 641.378 24.4043 643.477 24.4043 645.951L24.4043 660.99L35 660.99L35 670.048L1.45508 670.048L1.45507 645.951C1.45507 643.477 1.7399 641.378 2.30957 639.652C2.86295 637.927 3.65234 636.527 4.67773 635.453C5.68684 634.363 6.89127 633.573 8.29101 633.085C9.69075 632.597 11.2288 632.353 12.9053 632.353ZM13.0518 641.508C12.2705 641.508 11.6032 641.622 11.0498 641.85C10.4801 642.061 10.0163 642.419 9.6582 642.924C9.30013 643.428 9.03971 644.088 8.87695 644.901C8.69791 645.715 8.60839 646.716 8.60839 647.904L8.6084 660.99L17.251 660.99L17.251 647.904C17.251 646.716 17.1859 645.715 17.0557 644.901C16.9092 644.088 16.6732 643.428 16.3477 642.924C16.0059 642.419 15.5664 642.061 15.0293 641.85C14.4922 641.622 13.833 641.508 13.0518 641.508ZM35 600.775L35 609.833L1.45507 609.833L1.45507 587.128C1.45507 584.687 1.70735 582.619 2.21191 580.927C2.71646 579.218 3.43261 577.834 4.36034 576.776C5.28808 575.702 6.41113 574.929 7.72949 574.457C9.03157 573.969 10.4883 573.725 12.0996 573.725C13.5156 573.725 14.7526 573.928 15.8105 574.335C16.8685 574.726 17.7799 575.263 18.5449 575.946C19.2936 576.614 19.9284 577.395 20.4492 578.29C20.97 579.185 21.4014 580.129 21.7432 581.122L35 570.136L35 580.731L22.6465 590.888L22.6465 600.775L35 600.775ZM12.0508 582.88C11.3997 582.88 10.8463 582.969 10.3906 583.148C9.93489 583.311 9.56868 583.604 9.29199 584.027C8.99902 584.451 8.78743 585.02 8.65722 585.736C8.52701 586.436 8.46191 587.315 8.46191 588.373L8.46191 600.775L15.6396 600.775L15.6396 588.373C15.6396 587.315 15.5745 586.436 15.4443 585.736C15.3141 585.02 15.1107 584.451 14.834 584.027C14.541 583.604 14.1667 583.311 13.7109 583.148C13.2552 582.969 12.7018 582.88 12.0508 582.88ZM35 548.642L1.45507 548.642L1.45507 539.584L35 539.584L35 548.642ZM35 514.062L1.45507 514.062L1.45507 505.004L27.6514 505.004L27.6514 480.517L35 480.517L35 514.062ZM35 413.285L35 423.393L8.75487 405.888L8.75487 428.69L1.45506 428.69L1.45506 395.194L7.65624 395.194L35 413.285ZM22.2558 375.165L14.248 375.165L14.248 355.146L22.2558 355.146L22.2558 375.165ZM35 327.157L8.14451 327.157L10.9521 336.166L4.23826 336.166L1.45506 327.157L1.45506 318.148L35 318.148L35 327.157ZM17.1045 270.434C17.4788 268.757 17.9345 267.325 18.4717 266.137C18.9925 264.949 19.6028 263.98 20.3027 263.231C20.9863 262.483 21.7594 261.937 22.622 261.596C23.4684 261.254 24.3961 261.083 25.4053 261.083C27.1631 261.083 28.7012 261.563 30.0195 262.523C31.3379 263.467 32.4365 264.786 33.3154 266.479C34.178 268.155 34.8209 270.141 35.2441 272.436C35.6836 274.73 35.9033 277.213 35.9033 279.882C35.9033 281.672 35.8219 283.316 35.6592 284.813C35.5127 286.311 35.3174 287.694 35.0732 288.964C34.8291 290.217 34.5605 291.373 34.2676 292.431C33.9583 293.489 33.6491 294.473 33.3398 295.385L25.3076 295.385C25.8447 294.376 26.3249 293.244 26.748 291.991C27.1712 290.722 27.5374 289.42 27.8467 288.085C28.1396 286.734 28.3675 285.375 28.5303 284.008C28.6767 282.641 28.75 281.347 28.75 280.126C28.75 277.912 28.6198 276.146 28.3594 274.828C28.0827 273.51 27.7409 272.509 27.334 271.825C26.9108 271.142 26.4632 270.702 25.9912 270.507C25.5192 270.295 25.0716 270.189 24.6484 270.189C23.9323 270.189 23.3138 270.425 22.7929 270.897C22.2721 271.353 21.8408 272.167 21.499 273.339C21.1572 274.494 20.9049 276.065 20.7422 278.051C20.5631 280.036 20.4655 282.543 20.4492 285.57L13.8086 285.57C13.8086 282.82 13.7516 280.541 13.6377 278.734C13.5237 276.911 13.3447 275.455 13.1006 274.364C12.8564 273.274 12.539 272.509 12.1484 272.069C11.7578 271.614 11.2776 271.386 10.708 271.386C10.529 271.386 10.3336 271.418 10.1221 271.483C9.91046 271.532 9.69073 271.654 9.46287 271.85C9.23501 272.045 9.01528 272.33 8.80369 272.704C8.5921 273.078 8.40493 273.591 8.24217 274.242C8.07941 274.893 7.9492 275.699 7.85154 276.659C7.75389 277.619 7.70506 278.775 7.70506 280.126C7.70506 281.396 7.77016 282.689 7.90037 284.008C8.03058 285.31 8.22589 286.588 8.48631 287.841C8.74673 289.094 9.06411 290.307 9.43846 291.479C9.81281 292.65 10.2523 293.733 10.7568 294.726L2.749 294.726C2.01658 292.512 1.47947 290.144 1.13768 287.621C0.779603 285.098 0.600566 282.6 0.600566 280.126C0.600566 277.701 0.763326 275.414 1.08885 273.266C1.41437 271.101 1.9352 269.213 2.65135 267.602C3.35122 265.974 4.27081 264.688 5.41014 263.744C6.53318 262.8 7.90037 262.328 9.5117 262.328C10.3743 262.328 11.1963 262.483 11.9775 262.792C12.7425 263.085 13.4505 263.557 14.1015 264.208C14.7526 264.859 15.3304 265.697 15.8349 266.723C16.3395 267.748 16.7627 268.985 17.1045 270.434ZM35 207.133L28.9941 207.133C26.9922 202.771 25.2018 198.987 23.623 195.78C22.0442 192.558 20.612 189.896 19.3261 187.797C18.0403 185.681 16.8685 184.11 15.8105 183.085C14.7363 182.06 13.7028 181.547 12.7099 181.547C12.4332 181.547 12.124 181.579 11.7822 181.645C11.4241 181.693 11.0661 181.824 10.708 182.035C10.3336 182.23 9.96742 182.523 9.60935 182.914C9.25128 183.305 8.94203 183.842 8.68162 184.525C8.40492 185.209 8.1852 186.055 8.02244 187.064C7.8434 188.074 7.75388 189.294 7.75388 190.727C7.75388 192.045 7.8434 193.42 8.02244 194.853C8.1852 196.285 8.4212 197.701 8.73045 199.101C9.03969 200.5 9.41404 201.851 9.85349 203.153C10.2929 204.455 10.7894 205.652 11.3428 206.742L3.35935 206.742C2.5781 204.496 1.92706 202.006 1.40623 199.271C0.869117 196.521 0.600562 193.624 0.600562 190.58C0.600562 187.732 0.852841 185.185 1.3574 182.938C1.86195 180.692 2.59438 178.796 3.55466 177.25C4.49867 175.687 5.65427 174.499 7.02146 173.686C8.37237 172.855 9.90232 172.44 11.6113 172.44C12.5553 172.44 13.4424 172.546 14.2724 172.758C15.0862 172.953 15.8838 173.311 16.665 173.832C17.4463 174.353 18.2357 175.061 19.0332 175.956C19.8144 176.835 20.6445 177.958 21.5234 179.325C22.4023 180.676 23.3545 182.296 24.3799 184.184C25.389 186.072 26.512 188.269 27.749 190.775L27.749 171.732L35 171.732L35 207.133ZM18.2519 111.347C20.9212 111.347 23.3463 111.859 25.5273 112.885C27.692 113.894 29.5475 115.285 31.0937 117.06C32.6237 118.834 33.8118 120.925 34.6582 123.334C35.4883 125.743 35.9033 128.331 35.9033 131.098C35.9033 132.953 35.7161 134.727 35.3418 136.42C34.9674 138.113 34.4222 139.7 33.706 141.181C32.9899 142.646 32.1191 143.98 31.0937 145.185C30.0521 146.373 28.8802 147.39 27.5781 148.236C26.276 149.083 24.8437 149.742 23.2812 150.214C21.7187 150.67 20.0423 150.897 18.2519 150.897C16.4778 150.897 14.8095 150.67 13.247 150.214C11.6683 149.742 10.2278 149.083 8.92576 148.236C7.62367 147.39 6.45994 146.373 5.43454 145.185C4.39288 143.98 3.51397 142.646 2.79783 141.181C2.08168 139.7 1.53643 138.113 1.16208 136.42C0.787734 134.727 0.60056 132.953 0.600559 131.098C0.600559 128.331 1.02374 125.743 1.87009 123.334C2.70017 120.925 3.88832 118.834 5.43454 117.06C6.96449 115.285 8.81996 113.894 11.0009 112.885C13.1657 111.859 15.5827 111.347 18.2519 111.347ZM18.2519 120.404C16.5592 120.404 15.0618 120.697 13.7597 121.283C12.4577 121.869 11.359 122.659 10.4638 123.651C9.56866 124.628 8.8932 125.759 8.43747 127.045C7.98174 128.331 7.75388 129.682 7.75388 131.098C7.75388 132.514 7.98174 133.873 8.43747 135.175C8.8932 136.477 9.56866 137.624 10.4638 138.617C11.359 139.594 12.4577 140.383 13.7597 140.985C15.0618 141.571 16.5592 141.864 18.2519 141.864C19.9446 141.864 21.442 141.571 22.7441 140.985C24.0462 140.383 25.1448 139.594 26.04 138.617C26.9189 137.624 27.5944 136.477 28.0664 135.175C28.5221 133.873 28.75 132.514 28.75 131.098C28.75 129.682 28.5221 128.331 28.0664 127.045C27.5944 125.759 26.9189 124.628 26.04 123.651C25.1448 122.659 24.0462 121.869 22.7441 121.283C21.442 120.697 19.9446 120.404 18.2519 120.404ZM35 91.4395L28.9941 91.4395C26.9922 87.0775 25.2018 83.2933 23.623 80.0869C22.0442 76.8643 20.612 74.2031 19.3261 72.1035C18.0403 69.9876 16.8685 68.417 15.8105 67.3916C14.7363 66.3662 13.7028 65.8535 12.7099 65.8535C12.4332 65.8535 12.124 65.8861 11.7822 65.9512C11.4241 66 11.0661 66.1302 10.708 66.3418C10.3336 66.5371 9.96742 66.8301 9.60935 67.2207C9.25127 67.6113 8.94203 68.1484 8.68161 68.832C8.40492 69.5156 8.18519 70.362 8.02243 71.3711C7.8434 72.3802 7.75388 73.6009 7.75388 75.0332C7.75388 76.3516 7.8434 77.7269 8.02243 79.1592C8.18519 80.5915 8.4212 82.0075 8.73044 83.4072C9.03969 84.807 9.41403 86.1579 9.85349 87.46C10.2929 88.762 10.7894 89.9583 11.3427 91.0488L3.35935 91.0488C2.5781 88.8027 1.92705 86.3125 1.40622 83.5781C0.869112 80.8275 0.600557 77.9303 0.600557 74.8867C0.600557 72.0384 0.852835 69.4912 1.35739 67.2451C1.86195 64.999 2.59437 63.1029 3.55466 61.5566C4.49867 59.9941 5.65427 58.806 7.02145 57.9922C8.37237 57.1621 9.90231 56.7471 11.6113 56.7471C12.5553 56.7471 13.4424 56.8529 14.2724 57.0645C15.0862 57.2598 15.8838 57.6178 16.665 58.1387C17.4463 58.6595 18.2356 59.3675 19.0332 60.2627C19.8144 61.1416 20.6445 62.2646 21.5234 63.6318C22.4023 64.9827 23.3545 66.6022 24.3799 68.4902C25.389 70.3783 26.512 72.5755 27.749 75.082L27.749 56.0391L35 56.0391L35 91.4395ZM35 36.1074L28.9941 36.1074C26.9922 31.7454 25.2018 27.9613 23.623 24.7549C22.0442 21.5322 20.6119 18.8711 19.3261 16.7715C18.0403 14.6556 16.8685 13.085 15.8105 12.0596C14.7363 11.0342 13.7028 10.5215 12.7099 10.5215C12.4332 10.5215 12.124 10.554 11.7822 10.6191C11.4241 10.668 11.066 10.7982 10.708 11.0098C10.3336 11.2051 9.96742 11.498 9.60934 11.8887C9.25127 12.2793 8.94203 12.8164 8.68161 13.5C8.40492 14.1836 8.18519 15.0299 8.02243 16.0391C7.84339 17.0482 7.75387 18.2689 7.75387 19.7012C7.75387 21.0195 7.84339 22.3949 8.02243 23.8271C8.18519 25.2594 8.42119 26.6755 8.73044 28.0752C9.03968 29.4749 9.41403 30.8258 9.85348 32.1279C10.2929 33.43 10.7894 34.6263 11.3427 35.7168L3.35934 35.7168C2.57809 33.4707 1.92705 30.9805 1.40622 28.2461C0.86911 25.4954 0.600555 22.5983 0.600555 19.5547C0.600554 16.7064 0.852833 14.1592 1.35739 11.9131C1.86195 9.66699 2.59437 7.77083 3.55466 6.22461C4.49867 4.66211 5.65426 3.47396 7.02145 2.66016C8.37236 1.83008 9.90231 1.41504 11.6113 1.41504C12.5553 1.41504 13.4424 1.52083 14.2724 1.73242C15.0862 1.92773 15.8838 2.28581 16.665 2.80664C17.4463 3.32747 18.2356 4.03548 19.0332 4.93066C19.8144 5.80957 20.6445 6.93262 21.5234 8.2998C22.4023 9.65071 23.3545 11.2702 24.3799 13.1582C25.389 15.0462 26.512 17.2435 27.749 19.75L27.749 0.70703L35 0.70703L35 36.1074Z" fill="white"/>
</svg>
