<svg width="87" height="67" viewBox="0 0 87 67" fill="none" xmlns="http://www.w3.org/2000/svg">
<path d="M73.5678 5.54036C68.0009 2.95211 62.0484 1.07108 55.8254 0C55.0611 1.37308 54.1682 3.21991 53.5526 4.68905C46.9373 3.70044 40.3828 3.70044 33.8892 4.68905C33.2737 3.21991 32.3605 1.37308 31.5894 0C25.3596 1.07108 19.4004 2.95902 13.8334 5.55406C2.60491 22.4152 -0.438964 38.8575 1.08297 55.0663C8.53032 60.5928 15.7477 63.95 22.8433 66.1469C24.5952 63.7509 26.1577 61.2039 27.5038 58.5196C24.9402 57.5516 22.4848 56.357 20.1647 54.9702C20.7802 54.5171 21.3823 54.0434 21.964 53.5559C36.1146 60.1329 51.4895 60.1329 65.4711 53.5559C66.0596 54.0434 66.6615 54.5171 67.2703 54.9702C64.9434 56.3638 62.4813 57.5584 59.9177 58.5265C61.2638 61.2039 62.8196 63.7578 64.5782 66.1537C71.6806 63.9568 78.9047 60.5998 86.3521 55.0663C88.1378 36.2761 83.3015 19.9848 73.5678 5.54036ZM29.4316 45.098C25.1837 45.098 21.7001 41.1573 21.7001 36.3585C21.7001 31.5597 25.1093 27.6122 29.4316 27.6122C33.754 27.6122 37.2374 31.5528 37.1631 36.3585C37.1698 41.1573 33.754 45.098 29.4316 45.098ZM58.0035 45.098C53.7556 45.098 50.272 41.1573 50.272 36.3585C50.272 31.5597 53.6811 27.6122 58.0035 27.6122C62.3257 27.6122 65.8093 31.5528 65.7349 36.3585C65.7349 41.1573 62.3257 45.098 58.0035 45.098Z" fill="#FFE2DE"/>
</svg>
