<svg width="374" height="290" viewBox="0 0 374 290" fill="none" xmlns="http://www.w3.org/2000/svg">
<rect width="374" height="290" rx="15" fill="black" fill-opacity="0.55"/>
<path fill-rule="evenodd" clip-rule="evenodd" d="M134.629 78.3116C139.447 78.0057 144.333 78.8431 148.774 80.7419C148.495 81.5546 148.211 82.3675 147.938 83.1817C147.164 82.6688 146.286 82.3488 145.409 82.0677C143.286 81.4095 141.1 80.9861 138.911 80.6262C139.797 82.4772 140.646 84.3466 141.511 86.2083C140.575 86.318 139.641 86.4292 138.707 86.5407C137.355 83.7951 135.969 81.065 134.629 78.3116ZM163.321 78.9513C173.05 78.9483 182.779 78.9498 192.508 78.9498C192.509 92.7795 192.508 106.609 192.509 120.437C196.148 116.649 200.646 113.682 205.6 111.924C212.056 109.614 219.053 109.163 225.839 109.801C232.036 110.419 238.131 112.198 243.622 115.15C250.346 118.739 256.104 124.085 260.254 130.479C263.504 135.458 265.793 141.042 267.124 146.833C268.657 153.5 268.943 160.429 268.197 167.221C267.485 173.604 265.751 179.892 262.88 185.645C260.521 190.386 257.389 194.751 253.593 198.447C250.118 201.841 246.09 204.667 241.721 206.792C235.764 209.701 229.2 211.289 222.591 211.658C216.814 211.958 210.827 211.621 205.461 209.27C199.802 206.812 195.197 202.544 190.953 198.164C190.956 201.606 190.954 205.05 190.954 208.493C181.743 208.493 172.533 208.493 163.321 208.493C163.321 182.134 163.323 155.777 163.321 129.419C167.001 125.261 169.709 120.236 171.089 114.852C172.71 108.585 172.547 101.868 170.614 95.6904C169.133 90.9502 166.635 86.5268 163.332 82.8202C163.307 81.5316 163.329 80.2399 163.321 78.9513H163.321ZM214.167 136.472C211.666 136.727 209.202 137.373 206.911 138.409C202.573 140.353 198.91 143.724 196.555 147.85C193.781 152.65 192.798 158.373 193.429 163.855C193.979 168.969 196.063 173.961 199.567 177.755C202.656 181.141 206.835 183.494 211.318 184.427C216.34 185.476 221.708 184.938 226.378 182.786C229.807 181.213 232.829 178.769 235.097 175.751C239.992 169.292 241.226 160.405 238.774 152.735C237.187 147.734 233.942 143.252 229.597 140.297C225.133 137.213 219.547 135.885 214.167 136.472ZM127.41 79.2819C128.597 78.9281 129.963 79.7903 130.119 81.0263C130.332 82.1759 129.422 83.3391 128.273 83.463C127.148 83.6528 125.973 82.8078 125.825 81.6706C125.638 80.6183 126.379 79.5276 127.41 79.2819ZM120.06 83.0103C121.166 82.5512 122.322 82.2222 123.501 82.0212C122.876 85.263 122.424 88.5444 122.289 91.8448C122.229 93.4716 122.255 95.1077 122.472 96.724C121.359 97.073 120.245 97.4163 119.131 97.7605C118.361 94.085 118.695 90.2688 119.389 86.6084C116.807 88.6296 114.524 91.0705 112.835 93.8919C112.043 93.1394 111.253 92.3839 110.459 91.6344C112.741 87.9279 116.002 84.6957 120.06 83.0103ZM151.252 85.4002C151.879 84.5304 152.509 83.6622 153.138 82.7939C156.702 85.1037 159.786 88.1551 162.106 91.7163C162.207 90.4727 162.305 89.2289 162.406 87.9853C163.269 88.1799 164.135 88.3652 164.996 88.5707C164.9 91.3102 164.828 94.0494 164.749 96.7905C161.936 96.9757 159.113 96.9125 156.297 96.9573C155.882 95.8911 155.508 94.8082 155.113 93.7342C156.607 93.7188 158.102 93.7544 159.596 93.81C157.476 90.4371 154.6 87.5525 151.252 85.4002ZM139.612 88.6139C140.636 88.4208 141.665 88.2587 142.686 88.0502C143.07 88.6311 143.342 89.2754 143.63 89.9071C144.676 92.3144 145.599 94.7726 146.513 97.2323C146.587 97.4176 146.625 97.6155 146.659 97.8146C143.172 98.0017 139.697 98.4357 136.276 99.1389C133.676 99.6826 131.098 100.39 128.668 101.473C127.907 100.491 127.148 99.5067 126.389 98.5224C130.797 96.225 135.814 95.5916 140.703 95.2362C137.98 94.1531 135.174 93.2555 132.296 92.6913C130.717 92.3903 129.11 92.1799 127.499 92.228C128.218 91.3316 128.943 90.4434 129.665 89.5504C133.966 89.4963 138.155 90.9454 141.898 92.9787C141.366 91.4151 140.534 89.9768 139.612 88.6139ZM105.413 109.376C105.35 104.587 106.379 99.7787 108.42 95.4447C109.271 96.1105 110.234 96.6668 111.037 97.3698C109.774 100.395 108.91 103.612 108.712 106.894C107.613 107.722 106.515 108.553 105.413 109.376ZM152.027 98.6584C152.726 99.352 153.44 100.032 154.127 100.738C154.242 101.466 154.125 102.218 154.075 102.95C153.674 106.432 152.407 109.772 150.684 112.806C152.07 112.335 153.384 111.675 154.755 111.161C154.819 112.269 155.014 113.394 155.008 114.491C152.453 115.442 149.832 116.199 147.246 117.06C146.757 117.208 146.281 117.414 145.772 117.489C145.372 113.296 144.949 109.105 144.384 104.93C145.444 104.706 146.505 104.479 147.566 104.256C147.888 106.708 148.112 109.172 148.391 111.629C149.501 109.356 150.441 106.997 151.135 104.562C151.672 102.643 152.066 100.661 152.027 98.6584ZM117.678 102.155C119.523 101.538 121.36 100.882 123.24 100.383C123.557 105.657 124.227 110.921 125.484 116.057C124.506 116.439 123.534 116.828 122.556 117.21C121.779 113.543 120.855 109.895 120.438 106.164C118.652 109.43 117.428 113.084 117.376 116.833C116.496 116.114 115.645 115.359 114.753 114.656C114.708 111.169 116.138 107.666 118.66 105.251C116.962 105.73 115.2 106.101 113.666 107.017C113.708 105.922 113.762 104.826 113.782 103.731C115.014 103.054 116.364 102.638 117.678 102.155ZM164.149 100.464C165.283 100.024 166.69 100.732 166.985 101.92C167.316 103.02 166.577 104.267 165.469 104.534C164.371 104.871 163.088 104.177 162.793 103.062C162.463 102.013 163.109 100.803 164.149 100.464ZM159.201 112.318C161.91 111.037 164.292 109.179 166.717 107.439C167.028 110.273 166.355 113.097 165.589 115.807C164.627 118.932 163.452 122.032 161.694 124.804C160.758 124.257 159.824 123.708 158.894 123.15C160.89 120.193 162.571 116.97 163.486 113.506C162.102 114.175 160.856 115.11 159.42 115.679C159.341 114.558 159.278 113.438 159.201 112.318ZM107.641 112.496C108.74 112.117 110.061 112.78 110.381 113.905C110.757 114.997 110.047 116.28 108.94 116.575C107.8 116.958 106.441 116.205 106.188 115.022C105.91 113.965 106.6 112.797 107.641 112.496ZM123.643 118.799C128.895 118.365 134.139 117.781 139.333 116.882C140.092 117.867 140.858 118.847 141.611 119.836C137.614 120.372 133.614 120.888 129.61 121.36C131.697 122.223 133.806 123.035 135.953 123.739C137.184 124.125 138.431 124.509 139.723 124.621C138.996 125.507 138.281 126.4 137.56 127.29C136.362 127.209 135.232 126.763 134.142 126.288C131.938 125.298 129.866 124.039 127.847 122.718C128.555 124.593 129.604 126.318 130.706 127.986C129.673 128.176 128.641 128.356 127.608 128.541C126.782 127.101 126.201 125.541 125.573 124.008C124.912 122.279 124.184 120.569 123.643 118.799ZM109.01 120.635C111.397 121.085 113.783 121.676 116.219 121.738C116.678 122.769 117.104 123.815 117.542 124.855C116.502 124.892 115.506 124.522 114.473 124.487C116.454 126.825 118.756 128.903 121.321 130.582C120.642 131.424 119.938 132.246 119.25 133.08C116.471 131.179 114.161 128.685 111.957 126.16C112.202 127.336 112.453 128.51 112.7 129.686C111.769 129.601 110.836 129.521 109.904 129.433C109.615 126.499 109.374 123.56 109.01 120.635ZM148.076 122.308C149.156 122.044 150.239 121.786 151.321 121.531C151.408 124.539 151.378 127.551 151.249 130.557C153.589 129.054 155.682 127.178 157.464 125.043C158.338 125.678 159.21 126.315 160.082 126.953C158.46 128.782 156.564 130.341 154.671 131.878C153.283 132.98 151.863 134.044 150.364 134.99C149.566 135.483 148.751 135.968 147.853 136.252C147.936 131.603 148.083 126.958 148.076 122.308ZM128.307 131.582C129.601 131.429 130.89 131.239 132.186 131.111C133.568 133.695 135.628 135.812 137.387 138.133C131.973 138.331 126.519 137.076 121.732 134.542C122.36 133.661 122.987 132.781 123.614 131.9C125.672 132.946 127.855 133.745 130.105 134.261C129.454 133.403 128.844 132.513 128.307 131.582ZM141.6 133.499C142.874 133.037 144.427 133.831 144.756 135.155C145.123 136.371 144.334 137.757 143.118 138.093C141.869 138.513 140.373 137.74 140.029 136.461C139.64 135.256 140.398 133.861 141.6 133.499ZM123.813 143.049C133.545 143.052 143.277 143.048 153.009 143.052C153.007 164.865 153.009 186.678 153.007 208.493C143.275 208.493 133.543 208.494 123.81 208.491C123.813 186.678 123.809 164.864 123.813 143.049Z" fill="white"/>
</svg>
