<svg width="336" height="164" viewBox="0 0 336 164" fill="none" xmlns="http://www.w3.org/2000/svg">
<g clip-path="url(#clip0_818_166)">
<path d="M147.562 50.1318V102.28L154.288 102.306V77.4733H170.455V70.9031H154.262V56.6762H175.344V50.1318H147.562ZM187.398 60.7373C188.564 60.7373 189.682 60.274 190.507 59.4493C191.332 58.6247 191.795 57.5062 191.795 56.3399C191.795 55.1737 191.332 54.0552 190.507 53.2305C189.682 52.4058 188.564 51.9425 187.398 51.9425C186.231 51.9425 185.113 52.4058 184.288 53.2305C183.464 54.0552 183 55.1737 183 56.3399C183 57.5062 183.464 58.6247 184.288 59.4493C185.113 60.274 186.231 60.7373 187.398 60.7373ZM184.009 67.2817V102.306H190.735V67.2817H184.009Z" fill="black"/>
<path fill-rule="evenodd" clip-rule="evenodd" d="M215.594 66.2734C206.695 66.2734 200.487 73.8007 200.487 82.7507C200.487 91.7007 206.695 99.228 215.594 99.228C219.681 99.228 223.043 97.676 225.501 95.0893V99.7454C225.518 101.137 225.259 102.517 224.739 103.808C224.219 105.099 223.449 106.273 222.472 107.264C221.496 108.255 220.332 109.043 219.05 109.582C217.767 110.12 216.39 110.399 214.999 110.403C212.852 110.403 210.731 109.575 209.049 108.385L205.687 114.205C208.287 115.886 211.292 116.834 214.386 116.948C217.48 117.063 220.548 116.341 223.266 114.858C225.983 113.374 228.25 111.185 229.827 108.521C231.405 105.856 232.233 102.816 232.226 99.7195V67.3081H225.501V70.438C223.043 67.8513 219.681 66.2993 215.594 66.2993V66.2734ZM207.187 82.7507C207.187 77.1893 211.429 72.8178 216.344 72.8178C221.259 72.8178 225.475 77.2152 225.475 82.7507C225.475 88.3121 221.233 92.6578 216.344 92.6578C211.429 92.6578 207.187 88.3121 207.187 82.7507Z" fill="black"/>
<path d="M256.385 72.8173C254.462 72.8512 252.629 73.641 251.283 75.0158C249.938 76.3905 249.187 78.2397 249.194 80.1635V102.306H242.469V67.2817H249.194V70.4892C250.2 69.1556 251.507 68.0786 253.009 67.3459C254.51 66.6132 256.163 66.2456 257.834 66.2729C262.542 66.2729 266.163 68.6009 268.232 72.1706C269.387 70.3811 270.967 68.9057 272.831 67.8765C274.696 66.8473 276.786 66.2963 278.915 66.2729C286.546 66.2729 291.332 72.4293 291.332 80.06V102.306H284.658V80.1376C284.665 78.2139 283.915 76.3646 282.569 74.9899C281.223 73.6151 279.39 72.8254 277.467 72.7914C275.543 72.8254 273.711 73.6151 272.365 74.9899C271.019 76.3646 270.269 78.2139 270.276 80.1376V102.28H263.55V80.1376C263.558 78.2183 262.811 76.3729 261.471 74.9988C260.13 73.6248 258.304 72.8321 256.385 72.7914V72.8173Z" fill="black"/>
<path fill-rule="evenodd" clip-rule="evenodd" d="M327.106 71.2662C325.579 69.6737 323.743 68.4096 321.71 67.5512C319.678 66.6928 317.492 66.2581 315.285 66.2738C305.3 66.2738 298.213 74.7065 298.213 84.7946C298.213 94.8828 305.3 103.315 315.285 103.315C317.491 103.327 319.676 102.89 321.708 102.032C323.74 101.174 325.576 99.9119 327.106 98.3231V102.307H333.806V67.2827H327.08V71.2662H327.106ZM304.912 84.7946C304.912 78.1209 310.034 72.8182 316.009 72.8182C321.959 72.8182 327.106 78.1209 327.106 84.7946C327.106 91.4683 321.985 96.7452 316.009 96.7452C310.06 96.7452 304.912 91.4683 304.912 84.7946Z" fill="black"/>
</g>
<circle cx="80.9072" cy="81.1025" r="27.2939" fill="#9E9E9E"/>
<path d="M54.5879 0H81.8818C96.9558 0 109.176 12.2199 109.176 27.2939C109.176 42.3679 96.9558 54.5878 81.8818 54.5878H54.5879V0Z" fill="#8F8F8F"/>
<path d="M0 27.2939C0 12.2199 12.2199 0 27.2939 0H54.5878V54.5878H27.2939C12.2199 54.5878 0 42.3679 0 27.2939Z" fill="#6E6E6E"/>
<path d="M0 81.8818C0 66.8078 12.2199 54.5879 27.2939 54.5879H54.5878V109.176H27.2939C12.2199 109.176 0 96.9558 0 81.8818Z" fill="#757575"/>
<path d="M0 136.47C0 121.396 12.2199 109.176 27.2939 109.176H54.5878V136.47C54.5878 151.544 42.3679 163.764 27.2939 163.764C12.2199 163.764 0 151.544 0 136.47Z" fill="#9F9F9F"/>
<defs>
<clipPath id="clip0_818_166">
<rect width="188.829" height="67.2543" fill="white" transform="translate(146.218 50.1318)"/>
</clipPath>
</defs>
</svg>
