<svg width="137" height="189" viewBox="0 0 137 189" fill="none" xmlns="http://www.w3.org/2000/svg">
<path d="M1.91797 137.367C10.3499 128.847 34.1367 115.374 61.8288 129.646C96.4439 147.486 107.627 162.397 132.39 151.746C130.038 158.643 125.981 164.36 120.954 169.054M120.954 169.054C105.953 183.059 79.918 187.959 67.1542 187.959C57.8347 188.048 38.2905 184.124 25.0835 167.722C19.0803 160.267 12.5688 146.421 1.91797 141.361C17.0954 132.308 36.767 154.327 42.3911 159.202C50.3792 166.125 74.9015 186.361 120.954 169.054Z" stroke="#F55E2F" stroke-width="2" stroke-linecap="round" stroke-linejoin="round"/>
<path d="M74.666 96.8942C77.95 98.0481 85.1571 98.2788 87.7133 89.9712C80.8967 89.9712 78.305 89.9712 77.8613 89.9712C78.3938 93.1664 82.1216 98.7581 91.1748 97.1605" stroke="#F55E2F" stroke-width="2" stroke-linecap="round" stroke-linejoin="round"/>
<path d="M72.0086 26.1661C71.4755 26.3102 71.1601 26.8592 71.3042 27.3923C71.4483 27.9255 71.9973 28.2409 72.5304 28.0968L72.0086 26.1661ZM94.1037 27.1314L93.8868 28.1076L94.4652 28.2362L94.8558 27.7905L94.1037 27.1314ZM135.908 1.30322L136.727 1.87668C136.941 1.57121 136.967 1.17214 136.795 0.841412C136.623 0.51068 136.281 0.303223 135.908 0.303223V1.30322ZM129.251 30.8592L130.229 31.0717L129.251 30.8592ZM108.749 52.1608L109.245 53.0291L109.252 53.0247L109.26 53.0203L108.749 52.1608ZM89.9141 70.3738C89.973 70.9229 90.4658 71.3204 91.015 71.2615C91.5641 71.2027 91.9616 70.7098 91.9028 70.1607L89.9141 70.3738ZM72.5304 28.0968C80.1845 26.0281 89.9575 27.2345 93.8868 28.1076L94.3206 26.1553C90.2618 25.2533 80.1178 23.9744 72.0086 26.1661L72.5304 28.0968ZM94.8558 27.7905C98.5848 23.5351 105.144 17.1334 112.662 11.8046C120.215 6.45071 128.564 2.30322 135.908 2.30322V0.303223C127.915 0.303223 119.134 4.76514 111.505 10.173C103.841 15.606 97.1669 22.1184 93.3516 26.4724L94.8558 27.7905ZM135.089 0.72976C133.876 2.4621 132.96 4.79331 132.234 7.35559C131.504 9.93081 130.948 12.8098 130.488 15.682C130.029 18.5542 129.661 21.4476 129.316 24.0404C128.969 26.6494 128.646 28.9352 128.274 30.6468L130.229 31.0717C130.621 29.2663 130.954 26.898 131.299 24.3043C131.646 21.6945 132.009 18.8368 132.463 15.998C132.917 13.1592 133.459 10.3674 134.158 7.90083C134.861 5.42128 135.703 3.33959 136.727 1.87668L135.089 0.72976ZM128.274 30.6468C127.63 33.6094 126.765 36.2582 124.054 39.3988C121.304 42.5852 116.62 46.3141 108.237 51.3014L109.26 53.0203C117.705 47.9958 122.607 44.136 125.568 40.7056C128.569 37.2294 129.541 34.2333 130.229 31.0717L128.274 30.6468ZM108.252 51.2926C100.725 55.5938 96.0954 59.5698 93.3692 62.8366C92.0059 64.4702 91.109 65.9382 90.5685 67.192C90.0351 68.4291 89.8226 69.5193 89.9141 70.3738L91.9028 70.1607C91.8612 69.7726 91.9483 69.0432 92.405 67.9838C92.8547 66.941 93.6386 65.6353 94.9048 64.118C97.4374 61.0831 101.861 57.2486 109.245 53.0291L108.252 51.2926Z" fill="#F55E2F"/>
<path d="M94.3644 26.1661C94.8976 26.3102 95.213 26.8592 95.0689 27.3923C94.9248 27.9255 94.3758 28.2409 93.8426 28.0968L94.3644 26.1661ZM72.2694 27.1314L72.4863 28.1076L71.9078 28.2362L71.5173 27.7905L72.2694 27.1314ZM30.4649 1.30322L29.6457 1.87668C29.4319 1.57121 29.4057 1.17214 29.5779 0.841412C29.7501 0.51068 30.092 0.303223 30.4649 0.303223V1.30322ZM37.1217 30.8592L36.1445 31.0717L37.1217 30.8592ZM57.6245 52.1608L57.1283 53.0291L57.1207 53.0247L57.1132 53.0203L57.6245 52.1608ZM76.4589 70.3738C76.4001 70.9229 75.9072 71.3204 75.3581 71.2615C74.8089 71.2027 74.4114 70.7098 74.4703 70.1607L76.4589 70.3738ZM93.8426 28.0968C86.1886 26.0281 76.4156 27.2345 72.4863 28.1076L72.0524 26.1553C76.1113 25.2533 86.2553 23.9744 94.3644 26.1661L93.8426 28.0968ZM71.5173 27.7905C67.7883 23.5351 61.2285 17.1334 53.7112 11.8046C46.1583 6.45071 37.8091 2.30322 30.4649 2.30322V0.303223C38.4579 0.303223 47.2388 4.76514 54.8678 10.173C62.5322 15.606 69.2061 22.1184 73.0214 26.4724L71.5173 27.7905ZM31.2841 0.72976C32.4968 2.4621 33.4133 4.79331 34.1393 7.35559C34.869 9.93081 35.4252 12.8098 35.8848 15.682C36.3444 18.5542 36.7117 21.4476 37.0568 24.0404C37.4041 26.6494 37.7268 28.9352 38.0989 30.6468L36.1445 31.0717C35.752 29.2663 35.4195 26.898 35.0743 24.3043C34.7269 21.6945 34.3642 18.8368 33.91 15.998C33.4557 13.1592 32.914 10.3674 32.2151 7.90083C31.5125 5.42128 30.6697 3.33959 29.6457 1.87668L31.2841 0.72976ZM38.0989 30.6468C38.7429 33.6094 39.6078 36.2582 42.3187 39.3988C45.0692 42.5852 49.7528 46.3141 58.1358 51.3014L57.1132 53.0203C48.6679 47.9958 43.7658 44.136 40.8047 40.7056C37.8041 37.2294 36.8318 34.2333 36.1445 31.0717L38.0989 30.6468ZM58.1206 51.2926C65.6476 55.5938 70.2777 59.5698 73.0038 62.8366C74.3671 64.4702 75.264 65.9382 75.8046 67.192C76.338 68.4291 76.5505 69.5193 76.4589 70.3738L74.4703 70.1607C74.5119 69.7726 74.4248 69.0432 73.968 67.9838C73.5184 66.941 72.7344 65.6353 71.4683 64.118C68.9356 61.0831 64.5125 57.2486 57.1283 53.0291L58.1206 51.2926Z" fill="#F55E2F"/>
<path d="M120.465 5.82959C114.607 9.2911 101.781 30.3265 110.941 50.563C117.971 65.0481 112.539 72.3972 105.882 77.7226C99.2251 83.048 95.4354 87.3083 95.4354 94.2313" stroke="#F55E2F" stroke-width="2" stroke-linecap="round"/>
<path d="M46.4414 6.09619C52.2994 9.55771 64.8587 30.5931 55.699 50.8296C48.6694 65.3147 54.1014 72.6638 60.7581 77.9892C67.4149 83.3146 70.1395 87.3086 70.1395 93.6991" stroke="#F55E2F" stroke-width="2" stroke-linecap="round"/>
<path d="M45.3195 43.9062C37.2427 54.9121 28.6007 80.332 59.4881 88.6397C68.5412 91.3024 77.3281 100.622 82.9198 100.622" stroke="#F55E2F" stroke-width="2" stroke-linecap="round"/>
<path d="M120.997 45.2378C129.074 56.2436 137.506 80.3322 106.619 88.6398C97.5654 91.3026 88.7785 100.622 83.1868 100.622" stroke="#F55E2F" stroke-width="2" stroke-linecap="round"/>
<path d="M58.9603 76.3913C56.2976 75.5925 50.2799 75.912 47.5107 83.5806C42.6113 96.3615 27.48 105.947 16.8292 113.935C5.38239 122.989 1.65511 134.616 1.92138 136.835" stroke="#F55E2F" stroke-width="2" stroke-linecap="round" stroke-linejoin="round"/>
<path d="M109.281 153.876C113.364 140.296 120.571 107.439 116.737 84.646C116.098 79.7466 110.346 77.1904 106.885 77.1904" stroke="#F55E2F" stroke-width="2" stroke-linecap="round" stroke-linejoin="round"/>
<path d="M70.1412 93.6992C70.566 103.006 67.4207 117.93 60.2314 128.314" stroke="#F55E2F" stroke-width="2" stroke-linecap="round" stroke-linejoin="round"/>
<path d="M95.1689 95.0303C95.1693 96.5524 93.9447 115.544 95.7009 129.912C97.3242 143.192 102.204 150.796 108.215 153.61" stroke="#F55E2F" stroke-width="2" stroke-linecap="round" stroke-linejoin="round"/>
</svg>
