<svg width="71" height="71" viewBox="0 0 71 71" fill="none" xmlns="http://www.w3.org/2000/svg">
<path fill-rule="evenodd" clip-rule="evenodd" d="M35.4363 19.2447C26.5791 19.2447 19.399 26.4248 19.399 35.282C19.399 44.1391 26.5791 51.3192 35.4363 51.3192C44.2934 51.3192 51.4735 44.1391 51.4735 35.282C51.4735 26.4248 44.2934 19.2447 35.4363 19.2447ZM35.4363 44.9043C30.122 44.9043 25.8139 40.5962 25.8139 35.282C25.8139 29.9677 30.122 25.6596 35.4363 25.6596C40.7505 25.6596 45.0586 29.9677 45.0586 35.282C45.0586 40.5962 40.7505 44.9043 35.4363 44.9043Z" fill="#FFE2DE"/>
<path fill-rule="evenodd" clip-rule="evenodd" d="M12.9841 0C5.8984 0 0.154297 5.7441 0.154297 12.8298V57.7341C0.154297 64.8198 5.8984 70.5639 12.9841 70.5639H57.8884C64.9741 70.5639 70.7182 64.8198 70.7182 57.7341V12.8298C70.7182 5.7441 64.9741 0 57.8884 0H12.9841ZM12.9841 6.4149H57.8884C61.4313 6.4149 64.3033 9.28695 64.3033 12.8298V57.7341C64.3033 61.277 61.4313 64.149 57.8884 64.149H12.9841C9.44125 64.149 6.5692 61.277 6.5692 57.7341V12.8298C6.5692 9.28695 9.44125 6.4149 12.9841 6.4149Z" fill="#FFE2DE"/>
<path d="M54.681 12.8298C52.9095 12.8298 51.4735 14.2658 51.4735 16.0373C51.4735 17.8087 52.9095 19.2447 54.681 19.2447C56.4524 19.2447 57.8884 17.8087 57.8884 16.0373C57.8884 14.2658 56.4524 12.8298 54.681 12.8298Z" fill="#FFE2DE"/>
</svg>
