<svg width="358" height="290" viewBox="0 0 358 290" fill="none" xmlns="http://www.w3.org/2000/svg">
<rect x="0.0625" width="357.875" height="290" rx="15" fill="black" fill-opacity="0.55"/>
<mask id="mask0_1356_3" style="mask-type:alpha" maskUnits="userSpaceOnUse" x="119" y="91" width="114" height="119">
<path d="M150.898 92.4355C156.395 90.0908 163.092 90.741 168.021 94.0991C172.95 97.4572 175.945 103.407 175.677 109.314C175.399 115.465 171.797 121.13 167.031 125.1C162.266 129.071 156.414 131.541 150.519 133.542C149.081 134.028 147.6 134.51 146.418 135.452C143.912 137.448 143.34 141.055 143.878 144.188C145.041 150.954 150.267 156.303 155.725 160.553C168.98 170.877 185.196 177.448 201.972 179.299C205.688 179.71 209.426 179.893 213.162 180.075C219.742 180.398 226.504 180.697 232.75 178.623C233.376 182.285 232.059 186.286 229.603 189.096C227.147 191.906 223.926 193.942 220.753 195.933C216.494 198.608 212.234 201.282 207.974 203.957C204.485 206.147 200.913 208.373 196.893 209.334C194.143 209.994 191.278 210.034 188.449 209.904C176.659 209.365 165.173 205.945 154.268 201.486C150.841 200.086 147.434 198.565 144.424 196.422C140.52 193.64 137.419 189.905 134.64 186.022C121.597 167.801 114.833 143.87 122.133 122.753C123.44 118.968 125.19 115.306 127.61 112.097C129.957 108.989 132.888 106.364 135.902 103.877C140.955 99.7093 144.859 95.0128 150.898 92.4355Z" fill="#E5889D"/>
</mask>
<g mask="url(#mask0_1356_3)">
<path d="M150.897 92.4384C156.394 90.0937 163.091 90.7439 168.02 94.102C172.949 97.4601 175.944 103.41 175.676 109.317C175.398 115.468 171.796 121.133 167.03 125.103C162.265 129.073 156.413 131.544 150.518 133.545C149.08 134.031 147.599 134.513 146.417 135.455C143.911 137.451 143.339 141.058 143.877 144.191C145.04 150.957 150.266 156.306 155.724 160.556C168.979 170.88 185.195 177.451 201.971 179.302C205.687 179.713 209.425 179.895 213.161 180.078C219.741 180.401 226.503 180.7 232.749 178.626C233.375 182.288 232.058 186.289 229.602 189.099C227.146 191.909 223.925 193.945 220.752 195.936C216.493 198.61 212.233 201.285 207.973 203.96C204.484 206.15 200.913 208.376 196.892 209.337C194.142 209.997 191.277 210.037 188.448 209.907C176.658 209.368 165.172 205.948 154.267 201.489C150.84 200.089 147.433 198.568 144.423 196.425C140.519 193.643 137.418 189.908 134.639 186.025C121.596 167.804 114.832 143.873 122.132 122.756C123.44 118.971 125.189 115.309 127.609 112.1C129.956 108.991 132.887 106.367 135.901 103.88C140.954 99.7123 144.858 95.0157 150.897 92.4384Z" fill="#E5889D"/>
<path d="M149.886 187.1C155.541 189.084 161.529 189.948 167.497 190.487C188.683 192.395 212.391 190.703 231.106 180.593C234.856 178.566 237.269 174.937 237.369 170.678C237.48 165.9 232.724 162.651 228.54 160.342C220.128 155.7 211.608 151.016 202.326 148.529C197.532 147.245 192.601 146.566 187.684 145.892C170.11 143.481 152.539 141.067 134.965 138.656C131.337 138.158 127.663 137.659 124.025 138.075C120.387 138.49 116.727 139.928 114.352 142.717C99.0304 160.696 137.6 182.793 149.886 187.1Z" fill="#4BBFA9"/>
<path d="M153.141 171.788C144.317 168.631 136.597 162.845 130.211 155.984C127.09 152.631 124.223 148.948 122.517 144.698C120.058 138.57 120.186 131.716 120.962 125.159C121.534 120.33 122.486 115.417 125.009 111.259C126.473 108.848 128.421 106.767 130.458 104.814C131.91 103.421 133.474 102.044 135.387 101.41C138.84 100.262 142.691 101.812 145.442 104.197C147.602 106.069 149.284 108.418 150.929 110.756C160.761 124.739 169.978 139.156 178.543 153.951C180.05 156.554 181.557 159.217 182.227 162.15C182.77 164.528 183.19 169.35 181.384 171.363C179.922 172.991 175.845 173.38 173.809 173.741C166.912 174.958 159.71 174.137 153.141 171.788Z" fill="#6691CB"/>
<path d="M135.459 130.13C135.741 124.928 137.628 119.942 138.255 114.768C138.974 108.826 137.975 102.686 135.414 97.2776C134.695 95.7612 133.836 94.1972 133.959 92.5265C134.083 90.8653 135.16 89.4413 136.268 88.1954C141.769 82.0156 149.765 77.4496 158 78.2232C163.66 78.7572 168.907 81.7807 172.82 85.9053C176.734 90.0299 179.411 95.194 181.331 100.548C182.84 104.751 183.915 109.307 182.935 113.665C181.442 120.295 175.618 124.954 169.963 128.725C167.395 130.436 164.756 132.102 162.613 134.321C160.895 136.098 159.535 138.187 158.249 140.299C156.794 142.684 155.418 145.114 154.119 147.587C152.688 150.314 151.367 154.016 153.847 156.548C149.235 153.608 144.558 151.505 141.057 147.077C137.294 142.314 135.127 136.224 135.459 130.13Z" fill="#FBB263"/>
</g>
<path d="M245.209 175.874C233.816 198.937 210.06 214.802 182.595 214.802C144.045 214.802 112.792 183.549 112.792 144.999C112.792 106.449 144.045 75.1963 182.595 75.1963V86.0821L182.597 86.0845C149.949 86.1889 123.514 112.683 123.514 145.355C123.514 162.779 131.032 178.445 142.998 189.292L199.264 133.026L211.417 145.182L171.063 185.536L189.752 204.225C210.145 201.835 227.37 189.095 236.042 171.401V171.406L245.209 175.874Z" fill="white"/>
<path d="M188.022 124.514C186.729 126.19 185.34 127.771 183.933 129.332C182.519 130.887 181.066 132.403 179.585 133.891L175.119 138.331C173.633 139.814 172.134 141.284 170.634 142.753C169.134 144.222 167.639 145.695 166.125 147.15C164.615 148.61 163.111 150.074 161.587 151.519C158.554 154.424 155.495 157.305 152.396 160.141C151.99 160.511 151.361 160.485 150.988 160.079C150.637 159.697 150.647 159.111 150.988 158.736C153.824 155.634 156.705 152.578 159.61 149.545C161.055 148.021 162.52 146.516 163.979 145.007C165.434 143.493 166.908 141.998 168.377 140.498C169.846 138.998 171.315 137.498 172.798 136.013L177.238 131.546C178.726 130.065 180.245 128.615 181.797 127.199C183.359 125.791 184.939 124.403 186.615 123.11C187.054 122.77 187.683 122.853 188.022 123.29C188.307 123.658 188.293 124.163 188.022 124.514Z" fill="white"/>
<path d="M193.984 130.328C193.533 130.919 193.068 131.495 192.593 132.062L191.879 132.91L191.15 133.743C190.179 134.856 189.18 135.94 188.169 137.011C186.147 139.154 184.03 141.206 181.949 143.29L175.684 149.524L169.395 155.733C167.302 157.807 165.187 159.86 163.085 161.922L156.753 168.088C152.522 172.191 148.278 176.277 143.988 180.321C143.589 180.699 142.958 180.68 142.58 180.279C142.217 179.894 142.224 179.294 142.58 178.914C146.624 174.626 150.711 170.38 154.814 166.149L160.98 159.817C163.042 157.714 165.095 155.6 167.169 153.507L173.377 147.218L179.612 140.952C181.695 138.871 183.748 136.757 185.891 134.732C186.961 133.721 188.046 132.72 189.159 131.752L189.992 131.023L190.839 130.309C191.406 129.834 191.983 129.369 192.572 128.918C193.013 128.581 193.642 128.666 193.979 129.108C194.264 129.478 194.252 129.979 193.984 130.328Z" fill="white"/>
<path d="M209.752 120.442L214.914 115.211L238.506 91.2988" stroke="white" stroke-width="2.61052" stroke-miterlimit="10" stroke-linecap="round" stroke-linejoin="round"/>
<path d="M210.376 109.99L238.505 91.2988" stroke="white" stroke-width="2.61052" stroke-miterlimit="10" stroke-linecap="round" stroke-linejoin="round"/>
<path d="M199.47 101.126L238.506 91.2988" stroke="white" stroke-width="2.61052" stroke-miterlimit="10" stroke-linecap="round" stroke-linejoin="round"/>
<path d="M210.377 109.99L199.47 101.126" stroke="white" stroke-width="2.61052" stroke-miterlimit="10" stroke-linecap="round" stroke-linejoin="round"/>
<path d="M229.945 127.019L214.914 115.21L209.752 120.441L210.376 109.989" stroke="white" stroke-width="2.61052" stroke-miterlimit="10" stroke-linecap="round" stroke-linejoin="round"/>
<path d="M229.945 127.02L238.505 91.2988" stroke="white" stroke-width="2.61052" stroke-miterlimit="10" stroke-linecap="round" stroke-linejoin="round"/>
</svg>
