<svg width="1440" height="296" viewBox="0 0 1440 296" fill="none" xmlns="http://www.w3.org/2000/svg">
<path d="M-578.574 159.468C-578.574 169.056 -580.149 177.314 -583.298 184.243C-586.378 191.172 -590.927 196.876 -596.946 201.355C-602.895 205.834 -610.208 209.159 -618.887 211.328C-627.565 213.428 -637.468 214.478 -648.596 214.478C-653.845 214.478 -659.234 214.198 -664.763 213.638C-670.292 213.148 -675.611 212.518 -680.72 211.748C-685.829 210.978 -690.553 210.173 -694.893 209.333C-699.162 208.424 -702.731 207.584 -705.601 206.814V173.01C-702.661 174.2 -699.442 175.425 -695.942 176.685C-692.443 177.874 -688.559 178.959 -684.29 179.939C-679.95 180.919 -675.191 181.724 -670.012 182.354C-664.763 182.983 -658.989 183.298 -652.69 183.298C-645.902 183.298 -640.268 182.563 -635.789 181.094C-631.239 179.554 -627.6 177.454 -624.871 174.795C-622.141 172.065 -620.216 168.881 -619.097 165.242C-617.977 161.602 -617.417 157.613 -617.417 153.274V68.5547H-578.574V159.468ZM-364.099 164.192C-364.099 171.401 -365.884 178.189 -369.453 184.558C-373.022 190.927 -378.376 196.491 -385.515 201.25C-392.654 206.009 -401.577 209.788 -412.285 212.588C-422.923 215.317 -435.381 216.682 -449.658 216.682C-463.936 216.682 -476.463 215.317 -487.241 212.588C-497.949 209.788 -506.873 206.009 -514.011 201.25C-521.15 196.491 -526.504 190.927 -530.073 184.558C-533.643 178.189 -535.427 171.401 -535.427 164.192V68.5547H-496.584V150.229C-496.584 155.059 -495.99 159.643 -494.8 163.982C-493.54 168.251 -491.23 171.995 -487.871 175.215C-484.442 178.434 -479.683 180.989 -473.594 182.878C-467.435 184.768 -459.456 185.713 -449.658 185.713C-439.93 185.713 -432.021 184.768 -425.933 182.878C-419.844 180.989 -415.12 178.434 -411.76 175.215C-408.331 171.995 -406.021 168.251 -404.832 163.982C-403.642 159.643 -403.047 155.059 -403.047 150.229V68.5547H-364.099V164.192ZM-143.325 140.571C-143.325 149.81 -144.34 158.033 -146.37 165.242C-148.399 172.38 -151.269 178.609 -154.978 183.928C-158.617 189.247 -163.027 193.761 -168.206 197.471C-173.315 201.18 -179.019 204.154 -185.317 206.394C-191.616 208.634 -198.405 210.278 -205.684 211.328C-212.962 212.308 -220.556 212.798 -228.464 212.798H-320.007V68.5547H-228.674C-220.766 68.5547 -213.172 69.0796 -205.894 70.1294C-198.615 71.1092 -191.826 72.7189 -185.527 74.9585C-179.159 77.1981 -173.385 80.1725 -168.206 83.8818C-163.027 87.5212 -158.617 92.0353 -154.978 97.4243C-151.269 102.743 -148.399 108.972 -146.37 116.111C-144.34 123.25 -143.325 131.403 -143.325 140.571ZM-182.588 140.571C-182.588 133.643 -183.498 127.624 -185.317 122.515C-187.067 117.406 -189.937 113.206 -193.926 109.917C-197.845 106.558 -202.989 104.073 -209.358 102.463C-215.727 100.784 -223.495 99.9438 -232.664 99.9438H-281.06V181.409H-232.664C-223.495 181.409 -215.727 180.604 -209.358 178.994C-202.989 177.314 -197.845 174.795 -193.926 171.436C-189.937 168.006 -187.067 163.737 -185.317 158.628C-183.498 153.519 -182.588 147.5 -182.588 140.571ZM-14.8291 64.8804C-0.691732 64.8804 12.4308 66.1051 24.5386 68.5547C36.7163 70.9342 47.8792 74.0137 58.0273 77.793V113.066C54.0381 110.827 49.5239 108.657 44.4849 106.558C39.5158 104.458 34.0918 102.603 28.2129 100.994C22.334 99.384 16.0352 98.0892 9.31641 97.1094C2.59766 96.1296 -4.47103 95.6396 -11.8896 95.6396C-21.1279 95.6396 -29.1764 96.3045 -36.0352 97.6343C-42.8939 98.964 -48.7728 100.749 -53.6719 102.988C-58.571 105.228 -62.5952 107.852 -65.7446 110.862C-68.894 113.801 -71.3786 116.951 -73.1982 120.31C-75.0179 123.669 -76.2777 127.099 -76.9775 130.598C-77.6774 134.097 -78.0273 137.492 -78.0273 140.781C-78.0273 143.651 -77.7474 146.765 -77.1875 150.125C-76.5576 153.484 -75.4378 156.843 -73.8281 160.203C-72.1484 163.562 -69.8389 166.781 -66.8994 169.861C-63.96 172.94 -60.1457 175.67 -55.4565 178.049C-50.6974 180.429 -44.9935 182.354 -38.3447 183.823C-31.696 185.223 -23.7874 185.923 -14.6191 185.923C-10 185.923 -5.97575 185.783 -2.54639 185.503C0.882975 185.223 3.9974 184.838 6.79688 184.348C9.66634 183.858 12.3258 183.263 14.7754 182.563C17.2949 181.864 19.8844 181.129 22.5439 180.359V162.932H-21.1279V131.333H61.4917V205.029C56.3127 206.779 50.5037 208.389 44.0649 209.858C37.6961 211.258 31.0824 212.448 24.2236 213.428C17.4349 214.478 10.6112 215.282 3.75244 215.842C-3.10628 216.402 -9.58008 216.682 -15.6689 216.682C-25.1172 216.682 -34.1805 216.052 -42.8589 214.792C-51.5373 213.533 -59.6558 211.608 -67.2144 209.019C-74.703 206.359 -81.5617 203 -87.7905 198.94C-93.9494 194.881 -99.2334 190.052 -103.643 184.453C-107.982 178.854 -111.376 172.45 -113.826 165.242C-116.205 157.963 -117.395 149.81 -117.395 140.781C-117.395 131.823 -116.135 123.704 -113.616 116.426C-111.096 109.147 -107.597 102.708 -103.118 97.1094C-98.5685 91.5104 -93.1445 86.6813 -86.8457 82.6221C-80.4769 78.5628 -73.5132 75.2384 -65.9546 72.6489C-58.326 69.9894 -50.2075 68.0298 -41.5991 66.77C-32.9207 65.5103 -23.9974 64.8804 -14.8291 64.8804ZM103.484 212.798V68.5547H249.512V99.314H143.481V123.145H244.053V153.904H143.481V182.039H250.981V212.798H103.484ZM421.575 109.182C418.845 107.852 415.241 106.348 410.762 104.668C406.283 102.988 401.208 101.414 395.54 99.9438C389.871 98.4041 383.712 97.1444 377.063 96.1646C370.414 95.1147 363.59 94.5898 356.592 94.5898C350.993 94.5898 346.199 94.7648 342.209 95.1147C338.29 95.4647 334.966 95.9196 332.236 96.4795C329.577 97.0394 327.442 97.7043 325.833 98.4741C324.293 99.174 323.103 99.9089 322.263 100.679C321.423 101.449 320.863 102.218 320.583 102.988C320.374 103.758 320.269 104.458 320.269 105.088C320.269 107.188 321.318 109.042 323.418 110.652C325.518 112.192 328.387 113.591 332.026 114.851C335.666 116.041 339.9 117.196 344.729 118.315C349.558 119.365 354.667 120.485 360.056 121.675C365.515 122.795 371.114 124.054 376.853 125.454C382.662 126.784 388.261 128.359 393.65 130.178C399.109 131.998 404.253 134.132 409.082 136.582C413.911 138.962 418.145 141.761 421.785 144.98C425.424 148.2 428.293 151.909 430.393 156.108C432.493 160.308 433.542 165.102 433.542 170.491C433.542 177.419 432.318 183.368 429.868 188.337C427.419 193.306 424.129 197.506 420 200.935C415.941 204.364 411.217 207.129 405.828 209.229C400.439 211.258 394.77 212.833 388.821 213.953C382.942 215.072 376.958 215.807 370.869 216.157C364.85 216.507 359.111 216.682 353.652 216.682C339.375 216.682 326.147 215.492 313.97 213.113C301.862 210.803 291.154 207.899 281.846 204.399V169.966C291.434 175.285 302.352 179.449 314.6 182.458C326.917 185.468 340.075 186.973 354.072 186.973C362.331 186.973 369.049 186.553 374.229 185.713C379.478 184.803 383.572 183.683 386.511 182.354C389.451 180.954 391.445 179.449 392.495 177.839C393.545 176.23 394.07 174.69 394.07 173.22C394.07 170.911 393.02 168.916 390.92 167.236C388.821 165.487 385.951 163.982 382.312 162.722C378.673 161.392 374.438 160.203 369.609 159.153C364.78 158.033 359.636 156.948 354.177 155.898C348.788 154.779 343.224 153.589 337.485 152.329C331.746 151.069 326.147 149.6 320.688 147.92C315.299 146.17 310.19 144.176 305.361 141.936C300.532 139.626 296.298 136.932 292.659 133.853C289.019 130.703 286.15 127.099 284.05 123.04C281.951 118.91 280.901 114.151 280.901 108.762C280.901 102.393 282.021 96.8994 284.26 92.2803C286.5 87.6611 289.509 83.7419 293.289 80.5225C297.138 77.2331 301.547 74.5736 306.516 72.5439C311.555 70.5143 316.839 68.9396 322.368 67.8198C327.897 66.7 333.496 65.9302 339.165 65.5103C344.834 65.0903 350.223 64.8804 355.332 64.8804C360.931 64.8804 366.67 65.1603 372.549 65.7202C378.498 66.2801 384.342 67.085 390.081 68.1348C395.819 69.1146 401.348 70.2694 406.667 71.5991C412.056 72.9289 417.026 74.3286 421.575 75.7983V109.182ZM655.786 159.468C655.786 169.056 654.211 177.314 651.062 184.243C647.983 191.172 643.433 196.876 637.415 201.355C631.466 205.834 624.152 209.159 615.474 211.328C606.795 213.428 596.892 214.478 585.764 214.478C580.515 214.478 575.126 214.198 569.597 213.638C564.068 213.148 558.749 212.518 553.64 211.748C548.531 210.978 543.807 210.173 539.468 209.333C535.199 208.424 531.629 207.584 528.76 206.814V173.01C531.699 174.2 534.919 175.425 538.418 176.685C541.917 177.874 545.802 178.959 550.071 179.939C554.41 180.919 559.169 181.724 564.348 182.354C569.597 182.983 575.371 183.298 581.67 183.298C588.459 183.298 594.093 182.563 598.572 181.094C603.121 179.554 606.76 177.454 609.49 174.795C612.219 172.065 614.144 168.881 615.264 165.242C616.383 161.602 616.943 157.613 616.943 153.274V68.5547H655.786V159.468ZM870.261 164.192C870.261 171.401 868.477 178.189 864.907 184.558C861.338 190.927 855.984 196.491 848.845 201.25C841.707 206.009 832.783 209.788 822.075 212.588C811.437 215.317 798.979 216.682 784.702 216.682C770.425 216.682 757.897 215.317 747.119 212.588C736.411 209.788 727.488 206.009 720.349 201.25C713.21 196.491 707.856 190.927 704.287 184.558C700.718 178.189 698.933 171.401 698.933 164.192V68.5547H737.776V150.229C737.776 155.059 738.371 159.643 739.561 163.982C740.82 168.251 743.13 171.995 746.489 175.215C749.919 178.434 754.678 180.989 760.767 182.878C766.925 184.768 774.904 185.713 784.702 185.713C794.43 185.713 802.339 184.768 808.428 182.878C814.517 180.989 819.241 178.434 822.6 175.215C826.029 171.995 828.339 168.251 829.529 163.982C830.719 159.643 831.313 155.059 831.313 150.229V68.5547H870.261V164.192ZM1091.04 140.571C1091.04 149.81 1090.02 158.033 1087.99 165.242C1085.96 172.38 1083.09 178.609 1079.38 183.928C1075.74 189.247 1071.33 193.761 1066.15 197.471C1061.05 201.18 1055.34 204.154 1049.04 206.394C1042.74 208.634 1035.96 210.278 1028.68 211.328C1021.4 212.308 1013.8 212.798 1005.9 212.798H914.353V68.5547H1005.69C1013.59 68.5547 1021.19 69.0796 1028.47 70.1294C1035.75 71.1092 1042.53 72.7189 1048.83 74.9585C1055.2 77.1981 1060.98 80.1725 1066.15 83.8818C1071.33 87.5212 1075.74 92.0353 1079.38 97.4243C1083.09 102.743 1085.96 108.972 1087.99 116.111C1090.02 123.25 1091.04 131.403 1091.04 140.571ZM1051.77 140.571C1051.77 133.643 1050.86 127.624 1049.04 122.515C1047.29 117.406 1044.42 113.206 1040.43 109.917C1036.52 106.558 1031.37 104.073 1025 102.463C1018.63 100.784 1010.87 99.9438 1001.7 99.9438H953.301V181.409H1001.7C1010.87 181.409 1018.63 180.604 1025 178.994C1031.37 177.314 1036.52 174.795 1040.43 171.436C1044.42 168.006 1047.29 163.737 1049.04 158.628C1050.86 153.519 1051.77 147.5 1051.77 140.571ZM1219.53 64.8804C1233.67 64.8804 1246.79 66.1051 1258.9 68.5547C1271.08 70.9342 1282.24 74.0137 1292.39 77.793V113.066C1288.4 110.827 1283.88 108.657 1278.85 106.558C1273.88 104.458 1268.45 102.603 1262.57 100.994C1256.69 99.384 1250.4 98.0892 1243.68 97.1094C1236.96 96.1296 1229.89 95.6396 1222.47 95.6396C1213.23 95.6396 1205.18 96.3045 1198.33 97.6343C1191.47 98.964 1185.59 100.749 1180.69 102.988C1175.79 105.228 1171.77 107.852 1168.62 110.862C1165.47 113.801 1162.98 116.951 1161.16 120.31C1159.34 123.669 1158.08 127.099 1157.38 130.598C1156.68 134.097 1156.33 137.492 1156.33 140.781C1156.33 143.651 1156.61 146.765 1157.17 150.125C1157.8 153.484 1158.92 156.843 1160.53 160.203C1162.21 163.562 1164.52 166.781 1167.46 169.861C1170.4 172.94 1174.21 175.67 1178.9 178.049C1183.66 180.429 1189.37 182.354 1196.02 183.823C1202.66 185.223 1210.57 185.923 1219.74 185.923C1224.36 185.923 1228.38 185.783 1231.81 185.503C1235.24 185.223 1238.36 184.838 1241.16 184.348C1244.03 183.858 1246.69 183.263 1249.14 182.563C1251.66 181.864 1254.24 181.129 1256.9 180.359V162.932H1213.23V131.333H1295.85V205.029C1290.67 206.779 1284.86 208.389 1278.43 209.858C1272.06 211.258 1265.44 212.448 1258.58 213.428C1251.8 214.478 1244.97 215.282 1238.11 215.842C1231.25 216.402 1224.78 216.682 1218.69 216.682C1209.24 216.682 1200.18 216.052 1191.5 214.792C1182.82 213.533 1174.7 211.608 1167.15 209.019C1159.66 206.359 1152.8 203 1146.57 198.94C1140.41 194.881 1135.13 190.052 1130.72 184.453C1126.38 178.854 1122.98 172.45 1120.53 165.242C1118.16 157.963 1116.97 149.81 1116.97 140.781C1116.97 131.823 1118.23 123.704 1120.74 116.426C1123.26 109.147 1126.76 102.708 1131.24 97.1094C1135.79 91.5104 1141.22 86.6813 1147.51 82.6221C1153.88 78.5628 1160.85 75.2384 1168.41 72.6489C1176.03 69.9894 1184.15 68.0298 1192.76 66.77C1201.44 65.5103 1210.36 64.8804 1219.53 64.8804ZM1337.84 212.798V68.5547H1483.87V99.314H1377.84V123.145H1478.41V153.904H1377.84V182.039H1485.34V212.798H1337.84ZM1655.94 109.182C1653.21 107.852 1649.6 106.348 1645.12 104.668C1640.64 102.988 1635.57 101.414 1629.9 99.9438C1624.23 98.4041 1618.07 97.1444 1611.42 96.1646C1604.77 95.1147 1597.95 94.5898 1590.95 94.5898C1585.35 94.5898 1580.56 94.7648 1576.57 95.1147C1572.65 95.4647 1569.33 95.9196 1566.6 96.4795C1563.94 97.0394 1561.8 97.7043 1560.19 98.4741C1558.65 99.174 1557.46 99.9089 1556.62 100.679C1555.78 101.449 1555.22 102.218 1554.94 102.988C1554.73 103.758 1554.63 104.458 1554.63 105.088C1554.63 107.188 1555.68 109.042 1557.78 110.652C1559.88 112.192 1562.75 113.591 1566.39 114.851C1570.03 116.041 1574.26 117.196 1579.09 118.315C1583.92 119.365 1589.03 120.485 1594.42 121.675C1599.88 122.795 1605.47 124.054 1611.21 125.454C1617.02 126.784 1622.62 128.359 1628.01 130.178C1633.47 131.998 1638.61 134.132 1643.44 136.582C1648.27 138.962 1652.51 141.761 1656.15 144.98C1659.78 148.2 1662.65 151.909 1664.75 156.108C1666.85 160.308 1667.9 165.102 1667.9 170.491C1667.9 177.419 1666.68 183.368 1664.23 188.337C1661.78 193.306 1658.49 197.506 1654.36 200.935C1650.3 204.364 1645.58 207.129 1640.19 209.229C1634.8 211.258 1629.13 212.833 1623.18 213.953C1617.3 215.072 1611.32 215.807 1605.23 216.157C1599.21 216.507 1593.47 216.682 1588.01 216.682C1573.74 216.682 1560.51 215.492 1548.33 213.113C1536.22 210.803 1525.51 207.899 1516.21 204.399V169.966C1525.79 175.285 1536.71 179.449 1548.96 182.458C1561.28 185.468 1574.44 186.973 1588.43 186.973C1596.69 186.973 1603.41 186.553 1608.59 185.713C1613.84 184.803 1617.93 183.683 1620.87 182.354C1623.81 180.954 1625.81 179.449 1626.86 177.839C1627.91 176.23 1628.43 174.69 1628.43 173.22C1628.43 170.911 1627.38 168.916 1625.28 167.236C1623.18 165.487 1620.31 163.982 1616.67 162.722C1613.03 161.392 1608.8 160.203 1603.97 159.153C1599.14 158.033 1594 156.948 1588.54 155.898C1583.15 154.779 1577.58 153.589 1571.85 152.329C1566.11 151.069 1560.51 149.6 1555.05 147.92C1549.66 146.17 1544.55 144.176 1539.72 141.936C1534.89 139.626 1530.66 136.932 1527.02 133.853C1523.38 130.703 1520.51 127.099 1518.41 123.04C1516.31 118.91 1515.26 114.151 1515.26 108.762C1515.26 102.393 1516.38 96.8994 1518.62 92.2803C1520.86 87.6611 1523.87 83.7419 1527.65 80.5225C1531.5 77.2331 1535.91 74.5736 1540.88 72.5439C1545.92 70.5143 1551.2 68.9396 1556.73 67.8198C1562.26 66.7 1567.86 65.9302 1573.53 65.5103C1579.19 65.0903 1584.58 64.8804 1589.69 64.8804C1595.29 64.8804 1601.03 65.1603 1606.91 65.7202C1612.86 66.2801 1618.7 67.085 1624.44 68.1348C1630.18 69.1146 1635.71 70.2694 1641.03 71.5991C1646.42 72.9289 1651.39 74.3286 1655.94 75.7983V109.182Z" fill="#46C2C0" fill-opacity="0.41"/>
<g filter="url(#filter0_d_886_96)">
<path d="M-572.699 173.445L-577.251 171.376L-577.259 171.395L-577.268 171.415L-572.699 173.445ZM-586.346 190.557L-589.331 186.546L-589.342 186.554L-589.354 186.563L-586.346 190.557ZM-608.287 200.53L-607.111 205.39L-607.093 205.386L-607.074 205.381L-608.287 200.53ZM-654.164 202.84L-653.66 197.865L-653.691 197.862L-653.722 197.859L-654.164 202.84ZM-684.293 198.536L-685.335 203.426L-685.289 203.436L-685.243 203.445L-684.293 198.536ZM-695.001 196.016H-700.001V199.851L-696.297 200.845L-695.001 196.016ZM-695.001 162.212L-693.125 157.578L-700.001 154.795V162.212H-695.001ZM-685.343 165.887L-687.036 170.591L-686.994 170.606L-686.952 170.621L-685.343 165.887ZM-673.69 169.141L-674.808 174.014L-674.8 174.016L-674.791 174.018L-673.69 169.141ZM-659.413 171.556L-660.016 176.519L-660.008 176.52L-659.413 171.556ZM-625.189 170.296L-623.63 175.047L-623.608 175.039L-623.586 175.032L-625.189 170.296ZM-614.271 163.997L-610.782 167.578L-610.758 167.556L-610.735 167.533L-614.271 163.997ZM-606.817 57.7568V52.7568H-611.817V57.7568H-606.817ZM-567.975 57.7568H-562.975V52.7568H-567.975V57.7568ZM-572.975 148.67C-572.975 157.724 -574.463 165.243 -577.251 171.376L-568.147 175.514C-564.636 167.79 -562.975 158.792 -562.975 148.67H-572.975ZM-577.268 171.415C-580.002 177.567 -584.009 182.586 -589.331 186.546L-583.361 194.568C-576.645 189.57 -571.554 183.181 -568.13 175.476L-577.268 171.415ZM-589.354 186.563C-594.671 190.567 -601.343 193.64 -609.5 195.68L-607.074 205.381C-597.874 203.081 -589.919 199.506 -583.339 194.551L-589.354 186.563ZM-609.463 195.67C-617.676 197.657 -627.172 198.68 -637.997 198.68V208.68C-626.565 208.68 -616.255 207.602 -607.111 205.39L-609.463 195.67ZM-637.997 198.68C-643.068 198.68 -648.289 198.409 -653.66 197.865L-654.667 207.814C-648.981 208.39 -643.423 208.68 -637.997 208.68V198.68ZM-653.722 197.859C-659.157 197.378 -664.374 196.76 -669.376 196.006L-670.866 205.894C-665.649 206.68 -660.228 207.322 -654.605 207.82L-653.722 197.859ZM-669.376 196.006C-674.427 195.245 -679.082 194.451 -683.343 193.627L-685.243 203.445C-680.826 204.3 -676.032 205.116 -670.866 205.894L-669.376 196.006ZM-683.251 193.645C-687.47 192.746 -690.949 191.926 -693.705 191.187L-696.297 200.845C-693.314 201.645 -689.654 202.505 -685.335 203.426L-683.251 193.645ZM-690.001 196.016V162.212H-700.001V196.016H-690.001ZM-696.877 166.847C-693.868 168.065 -690.587 169.313 -687.036 170.591L-683.649 161.182C-687.097 159.941 -690.255 158.739 -693.125 157.578L-696.877 166.847ZM-686.952 170.621C-683.266 171.874 -679.214 173.003 -674.808 174.014L-672.571 164.268C-676.704 163.319 -680.421 162.279 -683.733 161.153L-686.952 170.621ZM-674.791 174.018C-670.263 175.041 -665.335 175.872 -660.016 176.519L-658.809 166.592C-663.848 165.979 -668.439 165.201 -672.589 164.264L-674.791 174.018ZM-660.008 176.52C-654.528 177.178 -648.552 177.5 -642.091 177.5V167.5C-648.227 167.5 -653.799 167.193 -658.817 166.591L-660.008 176.52ZM-642.091 177.5C-634.985 177.5 -628.781 176.737 -623.63 175.047L-626.748 165.545C-630.556 166.795 -635.619 167.5 -642.091 167.5V177.5ZM-623.586 175.032C-618.508 173.313 -614.166 170.876 -610.782 167.578L-617.76 160.416C-619.835 162.437 -622.771 164.199 -626.792 165.56L-623.586 175.032ZM-610.735 167.533C-607.438 164.235 -605.081 160.344 -603.718 155.914L-613.276 152.973C-614.153 155.822 -615.645 158.3 -617.807 160.462L-610.735 167.533ZM-603.718 155.914C-602.433 151.737 -601.817 147.245 -601.817 142.476H-611.817C-611.817 146.385 -612.322 149.872 -613.276 152.973L-603.718 155.914ZM-601.817 142.476V57.7568H-611.817V142.476H-601.817ZM-606.817 62.7568H-567.975V52.7568H-606.817V62.7568ZM-572.975 57.7568V148.67H-562.975V57.7568H-572.975ZM-401.686 201.79L-400.443 206.633L-400.432 206.63L-400.421 206.627L-401.686 201.79ZM-476.642 201.79L-477.906 206.627L-477.888 206.632L-477.869 206.637L-476.642 201.79ZM-503.412 190.452L-506.185 194.612L-503.412 190.452ZM-519.474 173.76L-523.835 176.205L-519.474 173.76ZM-524.828 57.7568V52.7568H-529.828V57.7568H-524.828ZM-485.985 57.7568H-480.985V52.7568H-485.985V57.7568ZM-484.2 153.184L-489.022 154.506L-489.009 154.553L-488.996 154.599L-484.2 153.184ZM-477.271 164.417L-480.731 168.027L-480.712 168.045L-480.694 168.062L-477.271 164.417ZM-462.994 172.081L-464.476 176.856L-464.468 176.858L-464.461 176.861L-462.994 172.081ZM-401.161 164.417L-404.583 160.772L-404.602 160.789L-404.62 160.807L-401.161 164.417ZM-394.232 153.184L-389.415 154.526L-389.413 154.516L-389.41 154.506L-394.232 153.184ZM-392.447 57.7568V52.7568H-397.447V57.7568H-392.447ZM-353.5 57.7568H-348.5V52.7568H-353.5V57.7568ZM-358.5 153.394C-358.5 159.735 -360.059 165.684 -363.215 171.316L-354.492 176.205C-350.51 169.099 -348.5 161.47 -348.5 153.394H-358.5ZM-363.215 171.316C-366.336 176.884 -371.093 181.895 -377.689 186.292L-372.142 194.612C-364.461 189.492 -358.51 183.374 -354.492 176.205L-363.215 171.316ZM-377.689 186.292C-384.254 190.669 -392.632 194.255 -402.95 196.953L-400.421 206.627C-389.323 203.726 -379.854 199.754 -372.142 194.612L-377.689 186.292ZM-402.928 196.947C-413.06 199.547 -425.083 200.884 -439.059 200.884V210.884C-424.48 210.884 -411.587 209.493 -400.443 206.633L-402.928 196.947ZM-439.059 200.884C-453.033 200.884 -465.132 199.547 -475.414 196.943L-477.869 206.637C-466.595 209.492 -453.639 210.884 -439.059 210.884V200.884ZM-475.377 196.953C-485.696 194.255 -494.073 190.669 -500.638 186.292L-506.185 194.612C-498.473 199.754 -489.004 203.726 -477.906 206.627L-475.377 196.953ZM-500.638 186.292C-507.234 181.895 -511.991 176.884 -515.112 171.316L-523.835 176.205C-519.817 183.374 -513.866 189.492 -506.185 194.612L-500.638 186.292ZM-515.112 171.316C-518.268 165.684 -519.828 159.735 -519.828 153.394H-529.828C-529.828 161.47 -527.818 169.099 -523.835 176.205L-515.112 171.316ZM-519.828 153.394V57.7568H-529.828V153.394H-519.828ZM-524.828 62.7568H-485.985V52.7568H-524.828V62.7568ZM-490.985 57.7568V139.432H-480.985V57.7568H-490.985ZM-490.985 139.432C-490.985 144.675 -490.338 149.706 -489.022 154.506L-479.378 151.862C-480.442 147.984 -480.985 143.847 -480.985 139.432H-490.985ZM-488.996 154.599C-487.478 159.742 -484.69 164.233 -480.731 168.027L-473.812 160.807C-476.572 158.162 -478.403 155.164 -479.405 151.769L-488.996 154.599ZM-480.694 168.062C-476.551 171.951 -471.045 174.817 -464.476 176.856L-461.512 167.305C-467.121 165.565 -471.133 163.322 -473.849 160.772L-480.694 168.062ZM-464.461 176.861C-457.648 178.951 -449.123 179.915 -439.059 179.915V169.915C-448.59 169.915 -456.023 168.989 -461.528 167.3L-464.461 176.861ZM-439.059 179.915C-429.063 179.915 -420.602 178.951 -413.851 176.856L-416.815 167.305C-422.242 168.989 -429.598 169.915 -439.059 169.915V179.915ZM-413.851 176.856C-407.281 174.817 -401.788 171.944 -397.701 168.027L-404.62 160.807C-407.252 163.329 -411.207 165.565 -416.815 167.305L-413.851 176.856ZM-397.738 168.062C-393.685 164.257 -390.866 159.731 -389.415 154.526L-399.048 151.842C-399.977 155.176 -401.777 158.138 -404.583 160.772L-397.738 168.062ZM-389.41 154.506C-388.094 149.706 -387.447 144.675 -387.447 139.432H-397.447C-397.447 143.847 -397.991 147.984 -399.054 151.862L-389.41 154.506ZM-387.447 139.432V57.7568H-397.447V139.432H-387.447ZM-392.447 62.7568H-353.5V52.7568H-392.447V62.7568ZM-358.5 57.7568V153.394H-348.5V57.7568H-358.5ZM-135.77 154.444L-130.961 155.811L-130.957 155.799L-135.77 154.444ZM-144.378 173.13L-148.48 170.27L-148.492 170.289L-148.505 170.307L-144.378 173.13ZM-157.606 186.673L-160.517 182.608L-160.53 182.617L-160.544 182.627L-157.606 186.673ZM-174.718 195.596L-176.393 190.885L-174.718 195.596ZM-195.084 200.53L-194.417 205.486L-194.394 205.482L-194.37 205.479L-195.084 200.53ZM-309.408 202H-314.408V207H-309.408V202ZM-309.408 57.7568V52.7568H-314.408V57.7568H-309.408ZM-195.294 59.3315L-196.008 64.2803L-195.984 64.2837L-195.961 64.2868L-195.294 59.3315ZM-174.928 64.1606L-176.603 68.8717L-176.595 68.8746L-176.586 68.8775L-174.928 64.1606ZM-157.606 73.084L-160.517 77.1489L-160.499 77.162L-160.481 77.1749L-157.606 73.084ZM-144.378 86.6265L-148.522 89.4248L-148.501 89.4558L-148.48 89.4865L-144.378 86.6265ZM-174.718 111.717L-179.448 113.337L-179.438 113.366L-179.428 113.394L-174.718 111.717ZM-183.326 99.1191L-186.58 102.915L-186.544 102.946L-186.507 102.977L-183.326 99.1191ZM-198.758 91.6655L-200.033 96.5002L-200.008 96.5068L-199.984 96.5131L-198.758 91.6655ZM-270.46 89.146V84.146H-275.46V89.146H-270.46ZM-270.46 170.611H-275.46V175.611H-270.46V170.611ZM-198.758 168.196L-197.533 173.044L-197.508 173.038L-197.483 173.031L-198.758 168.196ZM-183.326 160.638L-180.072 164.434L-180.067 164.429L-183.326 160.638ZM-174.718 147.83L-179.428 146.152L-179.438 146.181L-179.448 146.21L-174.718 147.83ZM-137.726 129.773C-137.726 138.656 -138.702 146.41 -140.583 153.089L-130.957 155.799C-128.778 148.061 -127.726 139.368 -127.726 129.773H-137.726ZM-140.579 153.076C-142.479 159.758 -145.13 165.467 -148.48 170.27L-140.277 175.99C-136.208 170.156 -133.12 163.407 -130.961 155.811L-140.579 153.076ZM-148.505 170.307C-151.819 175.15 -155.818 179.242 -160.517 182.608L-154.695 190.738C-149.036 186.685 -144.217 181.749 -140.252 175.954L-148.505 170.307ZM-160.544 182.627C-165.244 186.039 -170.518 188.796 -176.393 190.885L-173.043 200.307C-166.32 197.917 -160.186 194.725 -154.668 190.719L-160.544 182.627ZM-176.393 190.885C-182.351 193.003 -188.814 194.574 -195.798 195.581L-194.37 205.479C-186.796 204.387 -179.683 202.668 -173.043 200.307L-176.393 190.885ZM-195.751 195.575C-202.792 196.523 -210.162 197 -217.865 197V207C-209.75 207 -201.933 206.497 -194.417 205.486L-195.751 195.575ZM-217.865 197H-309.408V207H-217.865V197ZM-304.408 202V57.7568H-314.408V202H-304.408ZM-309.408 62.7568H-218.075V52.7568H-309.408V62.7568ZM-218.075 62.7568C-210.387 62.7568 -203.033 63.2671 -196.008 64.2803L-194.58 54.3828C-202.112 53.2964 -209.945 52.7568 -218.075 52.7568V62.7568ZM-195.961 64.2868C-188.993 65.2249 -182.545 66.759 -176.603 68.8717L-173.253 59.4496C-179.908 57.0831 -187.038 55.3978 -194.627 54.3762L-195.961 64.2868ZM-176.586 68.8775C-170.637 70.9695 -165.289 73.7311 -160.517 77.1489L-154.695 69.019C-160.281 65.0182 -166.481 61.8309 -173.269 59.4438L-176.586 68.8775ZM-160.481 77.1749C-155.813 80.4546 -151.83 84.5263 -148.522 89.4248L-140.235 83.8282C-144.205 77.9487 -149.04 72.992 -154.731 68.993L-160.481 77.1749ZM-148.48 89.4865C-145.13 94.2902 -142.479 99.9992 -140.579 106.68L-130.961 103.946C-133.12 96.3494 -136.208 89.6007 -140.277 83.7664L-148.48 89.4865ZM-140.579 106.68C-138.702 113.284 -137.726 120.964 -137.726 129.773H-127.726C-127.726 120.247 -128.779 111.619 -130.961 103.946L-140.579 106.68ZM-166.988 129.773C-166.988 122.424 -167.951 115.813 -170.008 110.039L-179.428 113.394C-177.845 117.839 -176.988 123.265 -176.988 129.773H-166.988ZM-169.987 110.097C-172.023 104.154 -175.41 99.1659 -180.145 95.2614L-186.507 102.977C-183.264 105.651 -180.912 109.062 -179.448 113.337L-169.987 110.097ZM-180.072 95.3229C-184.715 91.3433 -190.614 88.5667 -197.533 86.818L-199.984 96.5131C-194.165 97.9837 -189.776 100.176 -186.58 102.915L-180.072 95.3229ZM-197.483 86.8308C-204.395 85.008 -212.62 84.146 -222.064 84.146V94.146C-213.172 94.146 -205.859 94.9637 -200.033 96.5002L-197.483 86.8308ZM-222.064 84.146H-270.46V94.146H-222.064V84.146ZM-275.46 89.146V170.611H-265.46V89.146H-275.46ZM-270.46 175.611H-222.064V165.611H-270.46V175.611ZM-222.064 175.611C-212.632 175.611 -204.425 174.786 -197.533 173.044L-199.984 163.349C-205.829 164.826 -213.159 165.611 -222.064 165.611V175.611ZM-197.483 173.031C-190.58 171.21 -184.7 168.401 -180.072 164.434L-186.58 156.841C-189.791 159.594 -194.199 161.823 -200.033 163.362L-197.483 173.031ZM-180.067 164.429C-175.384 160.404 -172.017 155.378 -169.987 149.45L-179.448 146.21C-180.917 150.501 -183.29 154.013 -186.586 156.846L-180.067 164.429ZM-170.008 149.508C-167.951 143.734 -166.988 137.123 -166.988 129.773H-176.988C-176.988 136.282 -177.845 141.708 -179.428 146.152L-170.008 149.508ZM35.1382 57.7568L34.1467 62.6575L34.163 62.6608L34.1793 62.664L35.1382 57.7568ZM68.627 66.9951H73.627V63.5217L70.3719 62.3095L68.627 66.9951ZM68.627 102.269L66.1793 106.628L73.627 110.81V102.269H68.627ZM55.0845 95.7598L53.1384 100.365L53.1499 100.37L53.1614 100.375L55.0845 95.7598ZM-55.145 100.064L-51.7334 103.719L-51.712 103.699L-51.6907 103.679L-55.145 100.064ZM-66.3779 119.8L-61.475 120.781L-66.3779 119.8ZM-66.5879 139.327L-71.5198 140.149L-71.5115 140.198L-71.5023 140.248L-66.5879 139.327ZM-63.2285 149.405L-67.7376 151.565L-67.7194 151.603L-67.7006 151.641L-63.2285 149.405ZM-44.8569 167.251L-47.1196 171.71L-47.1063 171.717L-47.093 171.724L-44.8569 167.251ZM-27.7451 173.025L-28.8243 177.908L-28.7998 177.913L-28.7751 177.918L-27.7451 173.025ZM8.05322 174.705L7.64642 169.722L8.05322 174.705ZM17.3965 173.55L16.555 168.622L16.5448 168.623L16.5346 168.625L17.3965 173.55ZM25.375 171.766L24.0368 166.948L24.019 166.953L24.0014 166.958L25.375 171.766ZM33.1436 169.561L34.5339 174.364L38.1436 173.319V169.561H33.1436ZM33.1436 152.134H38.1436V147.134H33.1436V152.134ZM-10.5283 152.134H-15.5283V157.134H-10.5283V152.134ZM-10.5283 120.535V115.535H-15.5283V120.535H-10.5283ZM72.0913 120.535H77.0913V115.535H72.0913V120.535ZM72.0913 194.231L73.6917 198.968L77.0913 197.82V194.231H72.0913ZM54.6646 199.061L55.7379 203.944L55.7576 203.94L55.7772 203.935L54.6646 199.061ZM34.8232 202.63L34.1161 197.68L34.0876 197.684L34.0591 197.689L34.8232 202.63ZM-56.6147 198.221L-58.2881 202.932L-58.2617 202.942L-58.2352 202.951L-56.6147 198.221ZM-77.1909 188.143L-79.9425 192.317L-79.9317 192.324L-79.9208 192.332L-77.1909 188.143ZM-93.043 173.655L-96.9951 176.718L-96.9832 176.733L-96.9711 176.749L-93.043 173.655ZM-103.226 154.444L-107.979 155.998L-107.97 156.025L-107.96 156.053L-103.226 154.444ZM-92.5181 86.3115L-96.3986 83.1586L-96.4106 83.1733L-96.4224 83.188L-92.5181 86.3115ZM-76.2461 71.8242L-78.9335 67.6078L-78.944 67.6146L-78.9546 67.6214L-76.2461 71.8242ZM-55.355 61.8511L-53.7345 66.5812L-53.7217 66.5768L-53.709 66.5724L-55.355 61.8511ZM-30.9995 55.9722L-31.7178 51.024L-31.7235 51.0249L-30.9995 55.9722ZM-4.22949 59.0825C9.62164 59.0825 22.4081 60.2827 34.1467 62.6575L36.1296 52.8561C23.6528 50.3319 10.1942 49.0825 -4.22949 49.0825V59.0825ZM34.1793 62.664C46.1272 64.9987 57.0231 68.0092 66.882 71.6807L70.3719 62.3095C59.9346 58.4225 48.5046 55.2741 36.097 52.8496L34.1793 62.664ZM63.627 66.9951V102.269H73.627V66.9951H63.627ZM71.0746 97.9086C66.887 95.5577 62.1932 93.3051 57.0076 91.1444L53.1614 100.375C58.0539 102.414 62.3884 104.5 66.1793 106.628L71.0746 97.9086ZM57.0306 91.154C51.8338 88.9582 46.1981 87.034 40.1329 85.3733L37.4921 95.0183C43.1848 96.577 48.397 98.3621 53.1384 100.365L57.0306 91.154ZM40.1329 85.3733C34.0364 83.704 27.5359 82.3699 20.6376 81.3639L19.1945 91.2592C25.7336 92.2128 31.8307 93.4682 37.4921 95.0183L40.1329 85.3733ZM20.6376 81.3639C13.6591 80.3462 6.34808 79.8418 -1.29004 79.8418V89.8418C5.90906 89.8418 12.7354 90.3172 19.1945 91.2592L20.6376 81.3639ZM-1.29004 79.8418C-10.7523 79.8418 -19.1334 80.5215 -26.3872 81.9278L-24.4839 91.745C-18.0203 90.4919 -10.3044 89.8418 -1.29004 89.8418V79.8418ZM-26.3872 81.9278C-33.5265 83.312 -39.8039 85.1986 -45.1511 87.6431L-40.9935 96.7378C-36.5425 94.7031 -31.0621 93.0204 -24.4839 91.745L-26.3872 81.9278ZM-45.1511 87.6431C-50.4421 90.0618 -54.9641 92.9754 -58.5993 96.449L-51.6907 103.679C-49.0271 101.134 -45.5007 98.7982 -40.9935 96.7378L-45.1511 87.6431ZM-58.5566 96.4087C-62.0512 99.6703 -64.8876 103.24 -66.9951 107.131L-58.2021 111.894C-56.6703 109.066 -54.5377 106.337 -51.7334 103.719L-58.5566 96.4087ZM-66.9951 107.131C-69.0358 110.898 -70.4764 114.797 -71.2808 118.82L-61.475 120.781C-60.8798 117.805 -59.8008 114.845 -58.2021 111.894L-66.9951 107.131ZM-71.2808 118.82C-72.0399 122.615 -72.4277 126.338 -72.4277 129.983H-62.4277C-62.4277 127.05 -62.1157 123.984 -61.475 120.781L-71.2808 118.82ZM-72.4277 129.983C-72.4277 133.174 -72.1169 136.566 -71.5198 140.149L-61.6559 138.505C-62.1786 135.368 -62.4277 132.532 -62.4277 129.983H-72.4277ZM-71.5023 140.248C-70.7851 144.073 -69.5191 147.847 -67.7376 151.565L-58.7194 147.244C-60.1573 144.243 -61.1309 141.299 -61.6735 138.405L-71.5023 140.248ZM-67.7006 151.641C-65.7706 155.501 -63.155 159.123 -59.9166 162.515L-52.683 155.611C-55.3235 152.844 -57.3271 150.027 -58.7564 147.169L-67.7006 151.641ZM-59.9166 162.515C-56.5063 166.088 -52.1995 169.132 -47.1196 171.71L-42.5943 162.793C-46.8926 160.611 -50.2144 158.197 -52.683 155.611L-59.9166 162.515ZM-47.093 171.724C-41.881 174.33 -35.7684 176.373 -28.8243 177.908L-26.6659 168.143C-33.0193 166.739 -38.3146 164.932 -42.6208 162.779L-47.093 171.724ZM-28.7751 177.918C-21.6937 179.409 -13.4225 180.125 -4.01953 180.125V170.125C-12.9532 170.125 -20.499 169.441 -26.7151 168.133L-28.7751 177.918ZM-4.01953 180.125C0.692749 180.125 4.85864 179.982 8.46002 179.689L7.64642 169.722C4.3891 169.988 0.50647 170.125 -4.01953 170.125V180.125ZM8.46002 179.689C12.0114 179.399 15.2808 178.997 18.2584 178.475L16.5346 168.625C13.9132 169.084 10.9538 169.452 7.64642 169.722L8.46002 179.689ZM18.238 178.479C21.2621 177.963 24.1014 177.33 26.7486 176.573L24.0014 166.958C21.7495 167.601 19.2698 168.158 16.555 168.622L18.238 178.479ZM26.7132 176.583C29.2511 175.878 31.858 175.138 34.5339 174.364L31.7532 164.758C29.1101 165.523 26.538 166.253 24.0368 166.948L26.7132 176.583ZM38.1436 169.561V152.134H28.1436V169.561H38.1436ZM33.1436 147.134H-10.5283V157.134H33.1436V147.134ZM-5.52832 152.134V120.535H-15.5283V152.134H-5.52832ZM-10.5283 125.535H72.0913V115.535H-10.5283V125.535ZM67.0913 120.535V194.231H77.0913V120.535H67.0913ZM70.491 189.494C65.5009 191.18 59.8585 192.746 53.5519 194.186L55.7772 203.935C62.3482 202.435 68.3237 200.782 73.6917 198.968L70.491 189.494ZM53.5912 194.177C47.3509 195.549 40.8596 196.717 34.1161 197.68L35.5303 207.58C42.5043 206.583 49.2406 205.372 55.7379 203.944L53.5912 194.177ZM34.0591 197.689C27.3892 198.72 20.6846 199.511 13.9453 200.061L14.7589 210.028C21.7369 209.458 28.6799 208.639 35.5873 207.571L34.0591 197.689ZM13.9453 200.061C7.20477 200.611 0.867676 200.884 -5.06934 200.884V210.884C1.17139 210.884 7.78186 210.597 14.7589 210.028L13.9453 200.061ZM-5.06934 200.884C-14.2955 200.884 -23.1179 200.269 -31.541 199.046L-32.9775 208.943C-24.0438 210.24 -14.7396 210.884 -5.06934 210.884V200.884ZM-31.541 199.046C-39.942 197.827 -47.7558 195.97 -54.9943 193.491L-58.2352 202.951C-50.3565 205.65 -41.9334 207.643 -32.9775 208.943L-31.541 199.046ZM-54.9414 193.509C-62.0839 190.972 -68.5844 187.783 -74.461 183.954L-79.9208 192.332C-73.3398 196.62 -66.1228 200.15 -58.2881 202.932L-54.9414 193.509ZM-74.4393 183.968C-80.1664 180.193 -85.0488 175.725 -89.1148 170.562L-96.9711 176.749C-92.2188 182.784 -86.5331 187.974 -79.9425 192.317L-74.4393 183.968ZM-89.0909 170.592C-93.066 165.463 -96.2073 159.558 -98.4919 152.835L-107.96 156.053C-105.346 163.747 -101.698 170.649 -96.9951 176.718L-89.0909 170.592ZM-98.4736 152.89C-100.663 146.194 -101.795 138.576 -101.795 129.983H-111.795C-111.795 139.447 -110.548 148.137 -107.979 155.998L-98.4736 152.89ZM-101.795 129.983C-101.795 121.493 -100.602 113.938 -98.2912 107.263L-107.741 103.992C-110.47 111.875 -111.795 120.557 -111.795 129.983H-101.795ZM-98.2912 107.263C-95.9444 100.484 -92.7109 94.5564 -88.6137 89.435L-96.4224 83.188C-101.284 89.2645 -105.049 96.2147 -107.741 103.992L-98.2912 107.263ZM-88.6375 89.4645C-84.434 84.2909 -79.4101 79.8116 -73.5376 76.0271L-78.9546 67.6214C-85.6797 71.9553 -91.5039 77.1343 -96.3986 83.1586L-88.6375 89.4645ZM-73.5587 76.0406C-67.5427 72.2062 -60.94 69.0497 -53.7345 66.5812L-56.9755 57.121C-64.8871 59.8314 -72.2119 63.3237 -78.9335 67.6078L-73.5587 76.0406ZM-53.709 66.5724C-46.4018 64.0249 -38.5939 62.1368 -30.2755 60.9195L-31.7235 51.0249C-40.6219 52.3271 -49.051 54.3582 -57.0009 57.1298L-53.709 66.5724ZM-30.2812 60.9203C-21.8512 59.6966 -13.1683 59.0825 -4.22949 59.0825V49.0825C-13.6273 49.0825 -22.791 49.7282 -31.7178 51.024L-30.2812 60.9203ZM114.083 202H109.083V207H114.083V202ZM114.083 57.7568V52.7568H109.083V57.7568H114.083ZM260.111 57.7568H265.111V52.7568H260.111V57.7568ZM260.111 88.5161V93.5161H265.111V88.5161H260.111ZM154.081 88.5161V83.5161H149.081V88.5161H154.081ZM154.081 112.347H149.081V117.347H154.081V112.347ZM254.652 112.347H259.652V107.347H254.652V112.347ZM254.652 143.106V148.106H259.652V143.106H254.652ZM154.081 143.106V138.106H149.081V143.106H154.081ZM154.081 171.241H149.081V176.241H154.081V171.241ZM261.581 171.241H266.581V166.241H261.581V171.241ZM261.581 202V207H266.581V202H261.581ZM119.083 202V57.7568H109.083V202H119.083ZM114.083 62.7568H260.111V52.7568H114.083V62.7568ZM255.111 57.7568V88.5161H265.111V57.7568H255.111ZM260.111 83.5161H154.081V93.5161H260.111V83.5161ZM149.081 88.5161V112.347H159.081V88.5161H149.081ZM154.081 117.347H254.652V107.347H154.081V117.347ZM249.652 112.347V143.106H259.652V112.347H249.652ZM254.652 138.106H154.081V148.106H254.652V138.106ZM149.081 143.106V171.241H159.081V143.106H149.081ZM154.081 176.241H261.581V166.241H154.081V176.241ZM256.581 171.241V202H266.581V171.241H256.581ZM261.581 197H114.083V207H261.581V197ZM432.174 98.3843L429.984 102.879L437.174 106.382V98.3843H432.174ZM406.139 89.146L404.829 93.9712L404.856 93.9787L404.884 93.986L406.139 89.146ZM387.663 85.3667L386.883 90.3055L386.908 90.3095L386.934 90.3133L387.663 85.3667ZM352.809 84.3169L352.372 79.336L352.364 79.3367L352.809 84.3169ZM342.836 85.6816L341.831 80.7836L341.819 80.7862L341.806 80.7889L342.836 85.6816ZM336.432 87.6763L338.501 92.2281L338.546 92.208L338.589 92.1869L336.432 87.6763ZM331.183 92.1904L326.484 90.4817L326.414 90.6757L326.359 90.8748L331.183 92.1904ZM334.018 99.854L330.975 103.822L331.018 103.854L331.061 103.886L334.018 99.854ZM342.626 104.053L340.99 108.778L341.031 108.792L341.072 108.806L342.626 104.053ZM355.329 107.518L354.199 112.388L354.233 112.396L354.266 112.403L355.329 107.518ZM370.656 110.877L369.578 115.759L369.614 115.767L369.651 115.775L370.656 110.877ZM387.453 114.656L386.268 119.514L386.302 119.522L386.337 119.53L387.453 114.656ZM404.25 119.38L402.65 124.118L402.659 124.121L402.668 124.124L404.25 119.38ZM419.682 125.784L417.42 130.243L417.446 130.256L417.472 130.269L419.682 125.784ZM440.468 177.54L435.983 175.329L440.468 177.54ZM430.6 190.137L427.405 186.291L427.389 186.304L427.373 186.318L430.6 190.137ZM416.427 198.431L418.19 203.11L418.216 203.1L418.242 203.09L416.427 198.431ZM399.42 203.155L398.495 198.241L398.485 198.243L399.42 203.155ZM381.469 205.359L381.182 200.368L381.179 200.368L381.469 205.359ZM324.569 202.315L325.528 197.408L325.517 197.406L325.506 197.404L324.569 202.315ZM292.445 193.602H287.445V197.064L290.686 198.282L292.445 193.602ZM292.445 159.168L294.871 154.796L287.445 150.676V159.168H292.445ZM325.199 171.661L324.006 176.516L324.013 176.518L325.199 171.661ZM384.828 174.915L385.629 179.851L385.655 179.846L385.682 179.842L384.828 174.915ZM397.111 171.556L399.172 176.111L399.216 176.091L399.26 176.07L397.111 171.556ZM401.52 156.438L398.319 160.28L398.358 160.312L398.396 160.343L401.52 156.438ZM392.912 151.924L391.196 156.621L391.236 156.635L391.276 156.649L392.912 151.924ZM380.209 148.355L379.08 153.226L379.113 153.234L379.147 153.241L380.209 148.355ZM364.777 145.101L363.76 149.996L363.796 150.004L363.833 150.011L364.777 145.101ZM331.288 137.122L329.744 141.878L329.781 141.89L329.818 141.901L331.288 137.122ZM315.961 131.138L313.804 135.649L313.83 135.662L313.857 135.674L315.961 131.138ZM303.258 123.055L299.986 126.836L300.007 126.854L300.029 126.872L303.258 123.055ZM294.65 112.242L290.193 114.508L290.201 114.523L290.209 114.539L294.65 112.242ZM294.86 81.4824L290.361 79.3011L294.86 81.4824ZM303.888 69.7246L307.13 73.5308L307.136 73.5258L303.888 69.7246ZM317.116 61.7461L315.248 57.1082L315.236 57.1127L315.225 57.1173L317.116 61.7461ZM383.148 54.9224L382.674 59.8998L382.68 59.9004L383.148 54.9224ZM400.68 57.3369L399.781 62.2553L399.81 62.2606L399.839 62.2656L400.68 57.3369ZM417.267 60.8013L416.054 65.652L416.062 65.6538L416.069 65.6557L417.267 60.8013ZM432.174 65.0005H437.174V61.3614L433.711 60.2426L432.174 65.0005ZM434.364 93.8893C431.437 92.4631 427.67 90.896 423.117 89.1885L419.606 98.5518C424.011 100.204 427.453 101.646 429.984 102.879L434.364 93.8893ZM423.117 89.1885C418.442 87.4355 413.197 85.8104 407.394 84.306L404.884 93.986C410.42 95.4211 415.322 96.9454 419.606 98.5518L423.117 89.1885ZM407.45 84.3208C401.565 82.7224 395.209 81.4248 388.392 80.4201L386.934 90.3133C393.414 91.2682 399.376 92.4902 404.829 93.9712L407.45 84.3208ZM388.442 80.4279C381.526 79.3358 374.441 78.792 367.191 78.792V88.792C373.939 88.792 380.502 89.298 386.883 90.3055L388.442 80.4279ZM367.191 78.792C361.499 78.792 356.551 78.9695 352.372 79.336L353.246 89.2978C357.046 88.9645 361.686 88.792 367.191 88.792V78.792ZM352.364 79.3367C348.327 79.6972 344.804 80.1739 341.831 80.7836L343.841 90.5797C346.327 90.0696 349.453 89.6365 353.254 89.2971L352.364 79.3367ZM341.806 80.7889C338.937 81.3929 336.379 82.1594 334.275 83.1656L338.589 92.1869C339.705 91.6534 341.416 91.0902 343.866 90.5744L341.806 80.7889ZM334.363 83.1244C332.553 83.9472 330.851 84.9418 329.484 86.1951L336.241 93.5666C336.554 93.2802 337.232 92.8051 338.501 92.2281L334.363 83.1244ZM329.484 86.1951C328.27 87.3077 327.125 88.7195 326.484 90.4817L335.882 93.8991C335.839 94.0179 335.808 94.043 335.857 93.9765C335.906 93.908 336.021 93.7686 336.241 93.5666L329.484 86.1951ZM326.359 90.8748C326.062 91.9651 325.868 93.116 325.868 94.29H335.868C335.868 94.2044 335.884 93.9554 336.007 93.506L326.359 90.8748ZM325.868 94.29C325.868 98.342 327.995 101.537 330.975 103.822L337.06 95.886C335.841 94.9514 335.868 94.4373 335.868 94.29H325.868ZM331.061 103.886C333.707 105.826 337.082 107.425 340.99 108.778L344.261 99.3283C340.891 98.1616 338.528 96.961 336.974 95.822L331.061 103.886ZM341.072 108.806C344.885 110.052 349.266 111.244 354.199 112.388L356.458 102.647C351.733 101.551 347.646 100.434 344.18 99.3007L341.072 108.806ZM354.266 112.403C359.09 113.452 364.193 114.571 369.578 115.759L371.734 105.995C366.34 104.804 361.226 103.683 356.391 102.632L354.266 112.403ZM369.651 115.775C375.046 116.882 380.585 118.128 386.268 119.514L388.637 109.799C382.842 108.385 377.183 107.112 371.661 105.979L369.651 115.775ZM386.337 119.53C391.99 120.824 397.427 122.354 402.65 124.118L405.849 114.643C400.294 112.767 394.533 111.148 388.568 109.782L386.337 119.53ZM402.668 124.124C407.908 125.87 412.823 127.912 417.42 130.243L421.943 121.325C416.882 118.757 411.509 116.53 405.831 114.637L402.668 124.124ZM417.472 130.269C421.944 132.473 425.799 135.033 429.071 137.928L435.697 130.438C431.691 126.894 427.077 123.854 421.892 121.299L417.472 130.269ZM429.071 137.928C432.248 140.738 434.717 143.94 436.521 147.547L445.465 143.074C443.069 138.283 439.799 134.066 435.697 130.438L429.071 137.928ZM436.521 147.547C438.225 150.955 439.142 154.965 439.142 159.693H449.142C449.142 153.643 447.96 148.064 445.465 143.074L436.521 147.547ZM439.142 159.693C439.142 166.042 438.019 171.198 435.983 175.329L444.953 179.75C447.815 173.943 449.142 167.201 449.142 159.693H439.142ZM435.983 175.329C433.834 179.689 430.977 183.325 427.405 186.291L433.794 193.984C438.481 190.091 442.203 185.328 444.953 179.75L435.983 175.329ZM427.373 186.318C423.77 189.361 419.533 191.855 414.612 193.772L418.242 203.09C424.1 200.807 429.31 197.772 433.826 193.957L427.373 186.318ZM414.665 193.752C409.561 195.674 404.173 197.172 398.495 198.241L400.345 208.068C406.565 206.898 412.515 205.247 418.19 203.11L414.665 193.752ZM398.485 198.243C392.824 199.321 387.057 200.03 381.182 200.368L381.756 210.351C388.058 209.989 394.259 209.228 400.356 208.066L398.485 198.243ZM381.179 200.368C375.246 200.713 369.605 200.884 364.252 200.884V210.884C369.817 210.884 375.653 210.706 381.759 210.351L381.179 200.368ZM364.252 200.884C350.25 200.884 337.347 199.717 325.528 197.408L323.61 207.222C336.147 209.672 349.7 210.884 364.252 210.884V200.884ZM325.506 197.404C313.615 195.135 303.192 192.3 294.205 188.921L290.686 198.282C300.316 201.902 311.308 204.875 323.632 207.226L325.506 197.404ZM297.445 193.602V159.168H287.445V193.602H297.445ZM290.02 163.54C300.049 169.104 311.391 173.417 324.006 176.516L326.392 166.805C314.512 163.886 304.018 159.87 294.871 154.796L290.02 163.54ZM324.013 176.518C336.756 179.631 350.316 181.175 364.672 181.175V171.175C351.033 171.175 338.277 169.709 326.386 166.804L324.013 176.518ZM364.672 181.175C373.065 181.175 380.079 180.75 385.629 179.851L384.028 169.98C379.219 170.759 372.796 171.175 364.672 171.175V181.175ZM385.682 179.842C391.115 178.9 395.679 177.691 399.172 176.111L395.05 167C392.663 168.08 389.039 169.111 383.974 169.988L385.682 179.842ZM399.26 176.07C402.52 174.518 405.492 172.518 407.283 169.773L398.907 164.31C398.598 164.784 397.58 165.794 394.961 167.041L399.26 176.07ZM407.283 169.773C408.702 167.597 409.669 165.119 409.669 162.422H399.669C399.669 162.665 399.587 163.267 398.907 164.31L407.283 169.773ZM409.669 162.422C409.669 158.335 407.711 154.988 404.644 152.534L398.396 160.343C399.529 161.248 399.669 161.891 399.669 162.422H409.669ZM404.721 152.597C402.009 150.338 398.542 148.582 394.547 147.199L391.276 156.649C394.56 157.786 396.831 159.04 398.319 160.28L404.721 152.597ZM394.628 147.228C390.726 145.802 386.265 144.555 381.271 143.469L379.147 153.241C383.811 154.255 387.818 155.387 391.196 156.621L394.628 147.228ZM381.338 143.484C376.441 142.349 371.235 141.251 365.721 140.191L363.833 150.011C369.237 151.05 374.319 152.122 379.08 153.226L381.338 143.484ZM365.794 140.205C360.425 139.089 354.879 137.904 349.157 136.648L347.013 146.415C352.769 147.678 358.351 148.872 363.76 149.996L365.794 140.205ZM349.157 136.648C343.548 135.416 338.083 133.981 332.759 132.343L329.818 141.901C335.412 143.622 341.144 145.127 347.013 146.415L349.157 136.648ZM332.832 132.366C327.622 130.675 322.701 128.752 318.065 126.602L313.857 135.674C318.88 138.003 324.176 140.07 329.744 141.878L332.832 132.366ZM318.118 126.628C313.628 124.48 309.764 122.01 306.488 119.238L300.029 126.872C304.031 130.259 308.635 133.177 313.804 135.649L318.118 126.628ZM306.53 119.274C303.345 116.518 300.883 113.41 299.091 109.945L290.209 114.539C292.616 119.192 295.893 123.293 299.986 126.836L306.53 119.274ZM299.107 109.975C297.418 106.655 296.5 102.694 296.5 97.9644H286.5C286.5 104.012 287.682 109.57 290.193 114.508L299.107 109.975ZM296.5 97.9644C296.5 92.1735 297.519 87.4594 299.359 83.6638L290.361 79.3011C287.722 84.7437 286.5 91.0176 286.5 97.9644H296.5ZM299.359 83.6638C301.307 79.6457 303.896 76.2861 307.13 73.5308L300.646 65.9184C296.322 69.602 292.892 74.0808 290.361 79.3011L299.359 83.6638ZM307.136 73.5258C310.556 70.6032 314.501 68.215 319.006 66.3749L315.225 57.1173C309.792 59.3365 304.918 62.2672 300.64 65.9235L307.136 73.5258ZM318.984 66.384C323.729 64.4728 328.719 62.984 333.96 61.9225L331.975 52.1215C326.159 53.2995 320.581 54.9602 315.248 57.1082L318.984 66.384ZM333.96 61.9225C339.282 60.8447 344.673 60.1033 350.134 59.6987L349.395 49.7261C343.519 50.1614 337.712 50.9597 331.975 52.1215L333.96 61.9225ZM350.134 59.6987C355.693 59.2869 360.959 59.0825 365.932 59.0825V49.0825C360.687 49.0825 355.174 49.298 349.395 49.7261L350.134 59.6987ZM365.932 59.0825C371.364 59.0825 376.945 59.3541 382.674 59.8998L383.622 49.9449C377.594 49.3708 371.697 49.0825 365.932 49.0825V59.0825ZM382.68 59.9004C388.488 60.447 394.188 61.2322 399.781 62.2553L401.58 52.4185C395.695 51.342 389.707 50.5175 383.617 49.9444L382.68 59.9004ZM399.839 62.2656C405.461 63.2254 410.865 64.3547 416.054 65.652L418.48 55.9506C413.031 54.5883 407.378 53.408 401.522 52.4082L399.839 62.2656ZM416.069 65.6557C421.362 66.9616 426.216 68.33 430.637 69.7583L433.711 60.2426C429.034 58.7316 423.95 57.3004 418.465 55.9469L416.069 65.6557ZM427.174 65.0005V98.3843H437.174V65.0005H427.174ZM661.662 173.445L657.11 171.376L657.101 171.395L657.093 171.415L661.662 173.445ZM648.014 190.557L645.029 186.546L645.018 186.554L645.007 186.563L648.014 190.557ZM626.073 200.53L627.249 205.39L627.267 205.386L627.286 205.381L626.073 200.53ZM580.197 202.84L580.701 197.865L580.669 197.862L580.638 197.859L580.197 202.84ZM550.067 198.536L549.025 203.426L549.071 203.436L549.117 203.445L550.067 198.536ZM539.359 196.016H534.359V199.851L538.064 200.845L539.359 196.016ZM539.359 162.212L541.235 157.578L534.359 154.795V162.212H539.359ZM549.018 165.887L547.324 170.591L547.366 170.606L547.408 170.621L549.018 165.887ZM560.67 169.141L559.552 174.014L559.561 174.016L559.569 174.018L560.67 169.141ZM574.948 171.556L574.344 176.519L574.352 176.52L574.948 171.556ZM609.171 170.296L610.73 175.047L610.752 175.039L610.774 175.032L609.171 170.296ZM620.089 163.997L623.579 167.578L623.602 167.556L623.625 167.533L620.089 163.997ZM627.543 57.7568V52.7568H622.543V57.7568H627.543ZM666.386 57.7568H671.386V52.7568H666.386V57.7568ZM661.386 148.67C661.386 157.724 659.898 165.243 657.11 171.376L666.214 175.514C669.724 167.79 671.386 158.792 671.386 148.67H661.386ZM657.093 171.415C654.358 177.567 650.351 182.586 645.029 186.546L650.999 194.568C657.715 189.57 662.806 183.181 666.231 175.476L657.093 171.415ZM645.007 186.563C639.689 190.567 633.017 193.64 624.861 195.68L627.286 205.381C636.486 203.081 644.442 199.506 651.022 194.551L645.007 186.563ZM624.897 195.67C616.685 197.657 607.188 198.68 596.364 198.68V208.68C607.795 208.68 618.105 207.602 627.249 205.39L624.897 195.67ZM596.364 198.68C591.292 198.68 586.072 198.409 580.701 197.865L579.693 207.814C585.38 208.39 590.937 208.68 596.364 208.68V198.68ZM580.638 197.859C575.203 197.378 569.986 196.76 564.985 196.006L563.495 205.894C568.712 206.68 574.132 207.322 579.755 207.82L580.638 197.859ZM564.985 196.006C559.933 195.245 555.278 194.451 551.017 193.627L549.117 203.445C553.535 204.3 558.328 205.116 563.495 205.894L564.985 196.006ZM551.109 193.645C546.89 192.746 543.412 191.926 540.655 191.187L538.064 200.845C541.046 201.645 544.706 202.505 549.025 203.426L551.109 193.645ZM544.359 196.016V162.212H534.359V196.016H544.359ZM537.483 166.847C540.492 168.065 543.774 169.313 547.324 170.591L550.711 161.182C547.263 159.941 544.105 158.739 541.235 157.578L537.483 166.847ZM547.408 170.621C551.095 171.874 555.146 173.003 559.552 174.014L561.789 164.268C557.656 163.319 553.939 162.279 550.627 161.153L547.408 170.621ZM559.569 174.018C564.098 175.041 569.026 175.872 574.344 176.519L575.551 166.592C570.512 165.979 565.921 165.201 561.772 164.264L559.569 174.018ZM574.352 176.52C579.832 177.178 585.808 177.5 592.27 177.5V167.5C586.133 167.5 580.562 167.193 575.543 166.591L574.352 176.52ZM592.27 177.5C599.376 177.5 605.58 176.737 610.73 175.047L607.613 165.545C603.805 166.795 598.741 167.5 592.27 167.5V177.5ZM610.774 175.032C615.852 173.313 620.194 170.876 623.579 167.578L616.6 160.416C614.526 162.437 611.589 164.199 607.568 165.56L610.774 175.032ZM623.625 167.533C626.923 164.235 629.279 160.344 630.642 155.914L621.084 152.973C620.208 155.822 618.715 158.3 616.554 160.462L623.625 167.533ZM630.642 155.914C631.927 151.737 632.543 147.245 632.543 142.476H622.543C622.543 146.385 622.039 149.872 621.084 152.973L630.642 155.914ZM632.543 142.476V57.7568H622.543V142.476H632.543ZM627.543 62.7568H666.386V52.7568H627.543V62.7568ZM661.386 57.7568V148.67H671.386V57.7568H661.386ZM832.675 201.79L833.917 206.633L833.928 206.63L833.939 206.627L832.675 201.79ZM757.719 201.79L756.454 206.627L756.473 206.632L756.491 206.637L757.719 201.79ZM730.949 190.452L728.175 194.612L730.949 190.452ZM714.887 173.76L710.525 176.205L714.887 173.76ZM709.533 57.7568V52.7568H704.533V57.7568H709.533ZM748.375 57.7568H753.375V52.7568H748.375V57.7568ZM750.16 153.184L745.338 154.506L745.351 154.553L745.365 154.599L750.16 153.184ZM757.089 164.417L753.629 168.027L753.648 168.045L753.667 168.062L757.089 164.417ZM771.366 172.081L769.884 176.856L769.892 176.858L769.9 176.861L771.366 172.081ZM833.2 164.417L829.778 160.772L829.759 160.789L829.74 160.807L833.2 164.417ZM840.128 153.184L844.945 154.526L844.948 154.516L844.95 154.506L840.128 153.184ZM841.913 57.7568V52.7568H836.913V57.7568H841.913ZM880.861 57.7568H885.861V52.7568H880.861V57.7568ZM875.861 153.394C875.861 159.735 874.302 165.684 871.145 171.316L879.869 176.205C883.851 169.099 885.861 161.47 885.861 153.394H875.861ZM871.145 171.316C868.024 176.884 863.267 181.895 856.671 186.292L862.218 194.612C869.9 189.492 875.851 183.374 879.869 176.205L871.145 171.316ZM856.671 186.292C850.106 190.669 841.729 194.255 831.41 196.953L833.939 206.627C845.037 203.726 854.506 199.754 862.218 194.612L856.671 186.292ZM831.432 196.947C821.3 199.547 809.278 200.884 795.302 200.884V210.884C809.88 210.884 822.773 209.493 833.917 206.633L831.432 196.947ZM795.302 200.884C781.328 200.884 769.228 199.547 758.946 196.943L756.491 206.637C767.765 209.492 780.721 210.884 795.302 210.884V200.884ZM758.983 196.953C748.665 194.255 740.287 190.669 733.722 186.292L728.175 194.612C735.888 199.754 745.357 203.726 756.454 206.627L758.983 196.953ZM733.722 186.292C727.126 181.895 722.369 176.884 719.248 171.316L710.525 176.205C714.543 183.374 720.494 189.492 728.175 194.612L733.722 186.292ZM719.248 171.316C716.092 165.684 714.533 159.735 714.533 153.394H704.533C704.533 161.47 706.543 169.099 710.525 176.205L719.248 171.316ZM714.533 153.394V57.7568H704.533V153.394H714.533ZM709.533 62.7568H748.375V52.7568H709.533V62.7568ZM743.375 57.7568V139.432H753.375V57.7568H743.375ZM743.375 139.432C743.375 144.675 744.022 149.706 745.338 154.506L754.982 151.862C753.919 147.984 753.375 143.847 753.375 139.432H743.375ZM745.365 154.599C746.882 159.742 749.671 164.233 753.629 168.027L760.548 160.807C757.788 158.162 755.958 155.164 754.956 151.769L745.365 154.599ZM753.667 168.062C757.809 171.951 763.315 174.817 769.884 176.856L772.848 167.305C767.239 165.565 763.228 163.322 760.511 160.772L753.667 168.062ZM769.9 176.861C776.713 178.951 785.237 179.915 795.302 179.915V169.915C785.77 169.915 778.338 168.989 772.833 167.3L769.9 176.861ZM795.302 179.915C805.298 179.915 813.759 178.951 820.509 176.856L817.545 167.305C812.118 168.989 804.762 169.915 795.302 169.915V179.915ZM820.509 176.856C827.079 174.817 832.572 171.944 836.659 168.027L829.74 160.807C827.109 163.329 823.153 165.565 817.545 167.305L820.509 176.856ZM836.622 168.062C840.675 164.257 843.494 159.731 844.945 154.526L835.312 151.842C834.383 155.176 832.583 158.138 829.778 160.772L836.622 168.062ZM844.95 154.506C846.267 149.706 846.913 144.675 846.913 139.432H836.913C836.913 143.847 836.37 147.984 835.306 151.862L844.95 154.506ZM846.913 139.432V57.7568H836.913V139.432H846.913ZM841.913 62.7568H880.861V52.7568H841.913V62.7568ZM875.861 57.7568V153.394H885.861V57.7568H875.861ZM1098.59 154.444L1103.4 155.811L1103.4 155.799L1098.59 154.444ZM1089.98 173.13L1085.88 170.27L1085.87 170.289L1085.86 170.307L1089.98 173.13ZM1076.75 186.673L1073.84 182.608L1073.83 182.617L1073.82 182.627L1076.75 186.673ZM1059.64 195.596L1057.97 190.885L1059.64 195.596ZM1039.28 200.53L1039.94 205.486L1039.97 205.482L1039.99 205.479L1039.28 200.53ZM924.953 202H919.953V207H924.953V202ZM924.953 57.7568V52.7568H919.953V57.7568H924.953ZM1039.07 59.3315L1038.35 64.2803L1038.38 64.2837L1038.4 64.2868L1039.07 59.3315ZM1059.43 64.1606L1057.76 68.8717L1057.77 68.8746L1057.77 68.8775L1059.43 64.1606ZM1076.75 73.084L1073.84 77.1489L1073.86 77.162L1073.88 77.1749L1076.75 73.084ZM1089.98 86.6265L1085.84 89.4248L1085.86 89.4558L1085.88 89.4865L1089.98 86.6265ZM1059.64 111.717L1054.91 113.337L1054.92 113.366L1054.93 113.394L1059.64 111.717ZM1051.03 99.1191L1047.78 102.915L1047.82 102.946L1047.85 102.977L1051.03 99.1191ZM1035.6 91.6655L1034.33 96.5002L1034.35 96.5068L1034.38 96.5131L1035.6 91.6655ZM963.9 89.146V84.146H958.9V89.146H963.9ZM963.9 170.611H958.9V175.611H963.9V170.611ZM1035.6 168.196L1036.83 173.044L1036.85 173.038L1036.88 173.031L1035.6 168.196ZM1051.03 160.638L1054.29 164.434L1054.29 164.429L1051.03 160.638ZM1059.64 147.83L1054.93 146.152L1054.92 146.181L1054.91 146.21L1059.64 147.83ZM1096.63 129.773C1096.63 138.656 1095.66 146.41 1093.78 153.089L1103.4 155.799C1105.58 148.061 1106.63 139.368 1106.63 129.773H1096.63ZM1093.78 153.076C1091.88 159.758 1089.23 165.467 1085.88 170.27L1094.08 175.99C1098.15 170.156 1101.24 163.407 1103.4 155.811L1093.78 153.076ZM1085.86 170.307C1082.54 175.15 1078.54 179.242 1073.84 182.608L1079.67 190.738C1085.32 186.685 1090.14 181.749 1094.11 175.954L1085.86 170.307ZM1073.82 182.627C1069.12 186.039 1063.84 188.796 1057.97 190.885L1061.32 200.307C1068.04 197.917 1074.17 194.725 1079.69 190.719L1073.82 182.627ZM1057.97 190.885C1052.01 193.003 1045.55 194.574 1038.56 195.581L1039.99 205.479C1047.56 204.387 1054.68 202.668 1061.32 200.307L1057.97 190.885ZM1038.61 195.575C1031.57 196.523 1024.2 197 1016.5 197V207C1024.61 207 1032.43 206.497 1039.94 205.486L1038.61 195.575ZM1016.5 197H924.953V207H1016.5V197ZM929.953 202V57.7568H919.953V202H929.953ZM924.953 62.7568H1016.29V52.7568H924.953V62.7568ZM1016.29 62.7568C1023.97 62.7568 1031.33 63.2671 1038.35 64.2803L1039.78 54.3828C1032.25 53.2964 1024.42 52.7568 1016.29 52.7568V62.7568ZM1038.4 64.2868C1045.37 65.2249 1051.82 66.759 1057.76 68.8717L1061.11 59.4496C1054.45 57.0831 1047.32 55.3978 1039.73 54.3762L1038.4 64.2868ZM1057.77 68.8775C1063.72 70.9695 1069.07 73.7311 1073.84 77.1489L1079.67 69.019C1074.08 65.0182 1067.88 61.8309 1061.09 59.4438L1057.77 68.8775ZM1073.88 77.1749C1078.55 80.4546 1082.53 84.5263 1085.84 89.4248L1094.13 83.8282C1090.16 77.9487 1085.32 72.992 1079.63 68.993L1073.88 77.1749ZM1085.88 89.4865C1089.23 94.2902 1091.88 99.9992 1093.78 106.68L1103.4 103.946C1101.24 96.3494 1098.15 89.6007 1094.08 83.7664L1085.88 89.4865ZM1093.78 106.68C1095.66 113.284 1096.63 120.964 1096.63 129.773H1106.63C1106.63 120.247 1105.58 111.619 1103.4 103.946L1093.78 106.68ZM1067.37 129.773C1067.37 122.424 1066.41 115.813 1064.35 110.039L1054.93 113.394C1056.52 117.839 1057.37 123.265 1057.37 129.773H1067.37ZM1064.37 110.097C1062.34 104.154 1058.95 99.1659 1054.22 95.2614L1047.85 102.977C1051.1 105.651 1053.45 109.062 1054.91 113.337L1064.37 110.097ZM1054.29 95.3229C1049.65 91.3433 1043.75 88.5667 1036.83 86.818L1034.38 96.5131C1040.2 97.9837 1044.58 100.176 1047.78 102.915L1054.29 95.3229ZM1036.88 86.8308C1029.97 85.008 1021.74 84.146 1012.3 84.146V94.146C1021.19 94.146 1028.5 94.9637 1034.33 96.5002L1036.88 86.8308ZM1012.3 84.146H963.9V94.146H1012.3V84.146ZM958.9 89.146V170.611H968.9V89.146H958.9ZM963.9 175.611H1012.3V165.611H963.9V175.611ZM1012.3 175.611C1021.73 175.611 1029.94 174.786 1036.83 173.044L1034.38 163.349C1028.53 164.826 1021.2 165.611 1012.3 165.611V175.611ZM1036.88 173.031C1043.78 171.21 1049.66 168.401 1054.29 164.434L1047.78 156.841C1044.57 159.594 1040.16 161.823 1034.33 163.362L1036.88 173.031ZM1054.29 164.429C1058.98 160.404 1062.34 155.378 1064.37 149.45L1054.91 146.21C1053.44 150.501 1051.07 154.013 1047.77 156.846L1054.29 164.429ZM1064.35 149.508C1066.41 143.734 1067.37 137.123 1067.37 129.773H1057.37C1057.37 136.282 1056.52 141.708 1054.93 146.152L1064.35 149.508ZM1269.5 57.7568L1268.51 62.6575L1268.52 62.6608L1268.54 62.664L1269.5 57.7568ZM1302.99 66.9951H1307.99V63.5217L1304.73 62.3095L1302.99 66.9951ZM1302.99 102.269L1300.54 106.628L1307.99 110.81V102.269H1302.99ZM1289.44 95.7598L1287.5 100.365L1287.51 100.37L1287.52 100.375L1289.44 95.7598ZM1179.22 100.064L1182.63 103.719L1182.65 103.699L1182.67 103.679L1179.22 100.064ZM1167.98 119.8L1172.89 120.781L1167.98 119.8ZM1167.77 139.327L1162.84 140.149L1162.85 140.198L1162.86 140.248L1167.77 139.327ZM1171.13 149.405L1166.62 151.565L1166.64 151.603L1166.66 151.641L1171.13 149.405ZM1189.5 167.251L1187.24 171.71L1187.25 171.717L1187.27 171.724L1189.5 167.251ZM1206.62 173.025L1205.54 177.908L1205.56 177.913L1205.59 177.918L1206.62 173.025ZM1242.41 174.705L1242.01 169.722L1242.41 174.705ZM1251.76 173.55L1250.92 168.622L1250.91 168.623L1250.89 168.625L1251.76 173.55ZM1259.74 171.766L1258.4 166.948L1258.38 166.953L1258.36 166.958L1259.74 171.766ZM1267.5 169.561L1268.89 174.364L1272.5 173.319V169.561H1267.5ZM1267.5 152.134H1272.5V147.134H1267.5V152.134ZM1223.83 152.134H1218.83V157.134H1223.83V152.134ZM1223.83 120.535V115.535H1218.83V120.535H1223.83ZM1306.45 120.535H1311.45V115.535H1306.45V120.535ZM1306.45 194.231L1308.05 198.968L1311.45 197.82V194.231H1306.45ZM1289.02 199.061L1290.1 203.944L1290.12 203.94L1290.14 203.935L1289.02 199.061ZM1269.18 202.63L1268.48 197.68L1268.45 197.684L1268.42 197.689L1269.18 202.63ZM1177.75 198.221L1176.07 202.932L1176.1 202.942L1176.13 202.951L1177.75 198.221ZM1157.17 188.143L1154.42 192.317L1154.43 192.324L1154.44 192.332L1157.17 188.143ZM1141.32 173.655L1137.37 176.718L1137.38 176.733L1137.39 176.749L1141.32 173.655ZM1131.13 154.444L1126.38 155.998L1126.39 156.025L1126.4 156.053L1131.13 154.444ZM1141.84 86.3115L1137.96 83.1586L1137.95 83.1733L1137.94 83.188L1141.84 86.3115ZM1158.11 71.8242L1155.43 67.6078L1155.42 67.6146L1155.41 67.6214L1158.11 71.8242ZM1179.01 61.8511L1180.63 66.5812L1180.64 66.5768L1180.65 66.5724L1179.01 61.8511ZM1203.36 55.9722L1202.64 51.024L1202.64 51.0249L1203.36 55.9722ZM1230.13 59.0825C1243.98 59.0825 1256.77 60.2827 1268.51 62.6575L1270.49 52.8561C1258.01 50.3319 1244.55 49.0825 1230.13 49.0825V59.0825ZM1268.54 62.664C1280.49 64.9987 1291.38 68.0092 1301.24 71.6807L1304.73 62.3095C1294.29 58.4225 1282.86 55.2741 1270.46 52.8496L1268.54 62.664ZM1297.99 66.9951V102.269H1307.99V66.9951H1297.99ZM1305.43 97.9086C1301.25 95.5577 1296.55 93.3051 1291.37 91.1444L1287.52 100.375C1292.41 102.414 1296.75 104.5 1300.54 106.628L1305.43 97.9086ZM1291.39 91.154C1286.19 88.9582 1280.56 87.034 1274.49 85.3733L1271.85 95.0183C1277.55 96.577 1282.76 98.3621 1287.5 100.365L1291.39 91.154ZM1274.49 85.3733C1268.4 83.704 1261.9 82.3699 1255 81.3639L1253.55 91.2592C1260.09 92.2128 1266.19 93.4682 1271.85 95.0183L1274.49 85.3733ZM1255 81.3639C1248.02 80.3462 1240.71 79.8418 1233.07 79.8418V89.8418C1240.27 89.8418 1247.1 90.3172 1253.55 91.2592L1255 81.3639ZM1233.07 79.8418C1223.61 79.8418 1215.23 80.5215 1207.97 81.9278L1209.88 91.745C1216.34 90.4919 1224.06 89.8418 1233.07 89.8418V79.8418ZM1207.97 81.9278C1200.83 83.312 1194.56 85.1986 1189.21 87.6431L1193.37 96.7378C1197.82 94.7031 1203.3 93.0204 1209.88 91.745L1207.97 81.9278ZM1189.21 87.6431C1183.92 90.0618 1179.4 92.9754 1175.76 96.449L1182.67 103.679C1185.33 101.134 1188.86 98.7982 1193.37 96.7378L1189.21 87.6431ZM1175.8 96.4087C1172.31 99.6703 1169.47 103.24 1167.37 107.131L1176.16 111.894C1177.69 109.066 1179.82 106.337 1182.63 103.719L1175.8 96.4087ZM1167.37 107.131C1165.32 110.898 1163.88 114.797 1163.08 118.82L1172.89 120.781C1173.48 117.805 1174.56 114.845 1176.16 111.894L1167.37 107.131ZM1163.08 118.82C1162.32 122.615 1161.93 126.338 1161.93 129.983H1171.93C1171.93 127.05 1172.24 123.984 1172.89 120.781L1163.08 118.82ZM1161.93 129.983C1161.93 133.174 1162.24 136.566 1162.84 140.149L1172.7 138.505C1172.18 135.368 1171.93 132.532 1171.93 129.983H1161.93ZM1162.86 140.248C1163.58 144.073 1164.84 147.847 1166.62 151.565L1175.64 147.244C1174.2 144.243 1173.23 141.299 1172.69 138.405L1162.86 140.248ZM1166.66 151.641C1168.59 155.501 1171.21 159.123 1174.44 162.515L1181.68 155.611C1179.04 152.844 1177.03 150.027 1175.6 147.169L1166.66 151.641ZM1174.44 162.515C1177.85 166.088 1182.16 169.132 1187.24 171.71L1191.77 162.793C1187.47 160.611 1184.15 158.197 1181.68 155.611L1174.44 162.515ZM1187.27 171.724C1192.48 174.33 1198.59 176.373 1205.54 177.908L1207.69 168.143C1201.34 166.739 1196.05 164.932 1191.74 162.779L1187.27 171.724ZM1205.59 177.918C1212.67 179.409 1220.94 180.125 1230.34 180.125V170.125C1221.41 170.125 1213.86 169.441 1207.65 168.133L1205.59 177.918ZM1230.34 180.125C1235.05 180.125 1239.22 179.982 1242.82 179.689L1242.01 169.722C1238.75 169.988 1234.87 170.125 1230.34 170.125V180.125ZM1242.82 179.689C1246.37 179.399 1249.64 178.997 1252.62 178.475L1250.89 168.625C1248.27 169.084 1245.31 169.452 1242.01 169.722L1242.82 179.689ZM1252.6 178.479C1255.62 177.963 1258.46 177.33 1261.11 176.573L1258.36 166.958C1256.11 167.601 1253.63 168.158 1250.92 168.622L1252.6 178.479ZM1261.07 176.583C1263.61 175.878 1266.22 175.138 1268.89 174.364L1266.11 164.758C1263.47 165.523 1260.9 166.253 1258.4 166.948L1261.07 176.583ZM1272.5 169.561V152.134H1262.5V169.561H1272.5ZM1267.5 147.134H1223.83V157.134H1267.5V147.134ZM1228.83 152.134V120.535H1218.83V152.134H1228.83ZM1223.83 125.535H1306.45V115.535H1223.83V125.535ZM1301.45 120.535V194.231H1311.45V120.535H1301.45ZM1304.85 189.494C1299.86 191.18 1294.22 192.746 1287.91 194.186L1290.14 203.935C1296.71 202.435 1302.68 200.782 1308.05 198.968L1304.85 189.494ZM1287.95 194.177C1281.71 195.549 1275.22 196.717 1268.48 197.68L1269.89 207.58C1276.86 206.583 1283.6 205.372 1290.1 203.944L1287.95 194.177ZM1268.42 197.689C1261.75 198.72 1255.04 199.511 1248.31 200.061L1249.12 210.028C1256.1 209.458 1263.04 208.639 1269.95 207.571L1268.42 197.689ZM1248.31 200.061C1241.57 200.611 1235.23 200.884 1229.29 200.884V210.884C1235.53 210.884 1242.14 210.597 1249.12 210.028L1248.31 200.061ZM1229.29 200.884C1220.06 200.884 1211.24 200.269 1202.82 199.046L1201.38 208.943C1210.32 210.24 1219.62 210.884 1229.29 210.884V200.884ZM1202.82 199.046C1194.42 197.827 1186.6 195.97 1179.37 193.491L1176.13 202.951C1184 205.65 1192.43 207.643 1201.38 208.943L1202.82 199.046ZM1179.42 193.509C1172.28 190.972 1165.78 187.783 1159.9 183.954L1154.44 192.332C1161.02 196.62 1168.24 200.15 1176.07 202.932L1179.42 193.509ZM1159.92 183.968C1154.19 180.193 1149.31 175.725 1145.25 170.562L1137.39 176.749C1142.14 182.784 1147.83 187.974 1154.42 192.317L1159.92 183.968ZM1145.27 170.592C1141.29 165.463 1138.15 159.558 1135.87 152.835L1126.4 156.053C1129.01 163.747 1132.66 170.649 1137.37 176.718L1145.27 170.592ZM1135.89 152.89C1133.7 146.194 1132.56 138.576 1132.56 129.983H1122.56C1122.56 139.447 1123.81 148.137 1126.38 155.998L1135.89 152.89ZM1132.56 129.983C1132.56 121.493 1133.76 113.938 1136.07 107.263L1126.62 103.992C1123.89 111.875 1122.56 120.557 1122.56 129.983H1132.56ZM1136.07 107.263C1138.42 100.484 1141.65 94.5564 1145.75 89.435L1137.94 83.188C1133.08 89.2645 1129.31 96.2147 1126.62 103.992L1136.07 107.263ZM1145.72 89.4645C1149.93 84.2909 1154.95 79.8116 1160.82 76.0271L1155.41 67.6214C1148.68 71.9553 1142.86 77.1343 1137.96 83.1586L1145.72 89.4645ZM1160.8 76.0406C1166.82 72.2062 1173.42 69.0497 1180.63 66.5812L1177.38 57.121C1169.47 59.8314 1162.15 63.3237 1155.43 67.6078L1160.8 76.0406ZM1180.65 66.5724C1187.96 64.0249 1195.77 62.1368 1204.08 60.9195L1202.64 51.0249C1193.74 52.3271 1185.31 54.3582 1177.36 57.1298L1180.65 66.5724ZM1204.08 60.9203C1212.51 59.6966 1221.19 59.0825 1230.13 59.0825V49.0825C1220.73 49.0825 1211.57 49.7282 1202.64 51.024L1204.08 60.9203ZM1348.44 202H1343.44V207H1348.44V202ZM1348.44 57.7568V52.7568H1343.44V57.7568H1348.44ZM1494.47 57.7568H1499.47V52.7568H1494.47V57.7568ZM1494.47 88.5161V93.5161H1499.47V88.5161H1494.47ZM1388.44 88.5161V83.5161H1383.44V88.5161H1388.44ZM1388.44 112.347H1383.44V117.347H1388.44V112.347ZM1489.01 112.347H1494.01V107.347H1489.01V112.347ZM1489.01 143.106V148.106H1494.01V143.106H1489.01ZM1388.44 143.106V138.106H1383.44V143.106H1388.44ZM1388.44 171.241H1383.44V176.241H1388.44V171.241ZM1495.94 171.241H1500.94V166.241H1495.94V171.241ZM1495.94 202V207H1500.94V202H1495.94ZM1353.44 202V57.7568H1343.44V202H1353.44ZM1348.44 62.7568H1494.47V52.7568H1348.44V62.7568ZM1489.47 57.7568V88.5161H1499.47V57.7568H1489.47ZM1494.47 83.5161H1388.44V93.5161H1494.47V83.5161ZM1383.44 88.5161V112.347H1393.44V88.5161H1383.44ZM1388.44 117.347H1489.01V107.347H1388.44V117.347ZM1484.01 112.347V143.106H1494.01V112.347H1484.01ZM1489.01 138.106H1388.44V148.106H1489.01V138.106ZM1383.44 143.106V171.241H1393.44V143.106H1383.44ZM1388.44 176.241H1495.94V166.241H1388.44V176.241ZM1490.94 171.241V202H1500.94V171.241H1490.94ZM1495.94 197H1348.44V207H1495.94V197ZM1666.53 98.3843L1664.34 102.879L1671.53 106.382V98.3843H1666.53ZM1640.5 89.146L1639.19 93.9712L1639.22 93.9787L1639.24 93.986L1640.5 89.146ZM1622.02 85.3667L1621.24 90.3055L1621.27 90.3095L1621.29 90.3133L1622.02 85.3667ZM1587.17 84.3169L1586.73 79.336L1586.72 79.3367L1587.17 84.3169ZM1577.2 85.6816L1576.19 80.7836L1576.18 80.7862L1576.17 80.7889L1577.2 85.6816ZM1570.79 87.6763L1572.86 92.2281L1572.91 92.208L1572.95 92.1869L1570.79 87.6763ZM1565.54 92.1904L1560.84 90.4817L1560.77 90.6757L1560.72 90.8748L1565.54 92.1904ZM1568.38 99.854L1565.34 103.822L1565.38 103.854L1565.42 103.886L1568.38 99.854ZM1576.99 104.053L1575.35 108.778L1575.39 108.792L1575.43 108.806L1576.99 104.053ZM1589.69 107.518L1588.56 112.388L1588.59 112.396L1588.63 112.403L1589.69 107.518ZM1605.02 110.877L1603.94 115.759L1603.97 115.767L1604.01 115.775L1605.02 110.877ZM1621.81 114.656L1620.63 119.514L1620.66 119.522L1620.7 119.53L1621.81 114.656ZM1638.61 119.38L1637.01 124.118L1637.02 124.121L1637.03 124.124L1638.61 119.38ZM1654.04 125.784L1651.78 130.243L1651.81 130.256L1651.83 130.269L1654.04 125.784ZM1674.83 177.54L1670.34 175.329L1674.83 177.54ZM1664.96 190.137L1661.77 186.291L1661.75 186.304L1661.73 186.318L1664.96 190.137ZM1650.79 198.431L1652.55 203.11L1652.58 203.1L1652.6 203.09L1650.79 198.431ZM1633.78 203.155L1632.86 198.241L1632.85 198.243L1633.78 203.155ZM1615.83 205.359L1615.54 200.368L1615.54 200.368L1615.83 205.359ZM1558.93 202.315L1559.89 197.408L1559.88 197.406L1559.87 197.404L1558.93 202.315ZM1526.81 193.602H1521.81V197.064L1525.05 198.282L1526.81 193.602ZM1526.81 159.168L1529.23 154.796L1521.81 150.676V159.168H1526.81ZM1559.56 171.661L1558.37 176.516L1558.37 176.518L1559.56 171.661ZM1619.19 174.915L1619.99 179.851L1620.02 179.846L1620.04 179.842L1619.19 174.915ZM1631.47 171.556L1633.53 176.111L1633.58 176.091L1633.62 176.07L1631.47 171.556ZM1635.88 156.438L1632.68 160.28L1632.72 160.312L1632.76 160.343L1635.88 156.438ZM1627.27 151.924L1625.56 156.621L1625.6 156.635L1625.64 156.649L1627.27 151.924ZM1614.57 148.355L1613.44 153.226L1613.47 153.234L1613.51 153.241L1614.57 148.355ZM1599.14 145.101L1598.12 149.996L1598.16 150.004L1598.19 150.011L1599.14 145.101ZM1565.65 137.122L1564.1 141.878L1564.14 141.89L1564.18 141.901L1565.65 137.122ZM1550.32 131.138L1548.16 135.649L1548.19 135.662L1548.22 135.674L1550.32 131.138ZM1537.62 123.055L1534.35 126.836L1534.37 126.854L1534.39 126.872L1537.62 123.055ZM1529.01 112.242L1524.55 114.508L1524.56 114.523L1524.57 114.539L1529.01 112.242ZM1529.22 81.4824L1524.72 79.3011L1529.22 81.4824ZM1538.25 69.7246L1541.49 73.5308L1541.5 73.5258L1538.25 69.7246ZM1551.48 61.7461L1549.61 57.1082L1549.6 57.1127L1549.59 57.1173L1551.48 61.7461ZM1617.51 54.9224L1617.03 59.8998L1617.04 59.9004L1617.51 54.9224ZM1635.04 57.3369L1634.14 62.2553L1634.17 62.2606L1634.2 62.2656L1635.04 57.3369ZM1651.63 60.8013L1650.41 65.652L1650.42 65.6538L1650.43 65.6557L1651.63 60.8013ZM1666.53 65.0005H1671.53V61.3614L1668.07 60.2426L1666.53 65.0005ZM1668.72 93.8893C1665.8 92.4631 1662.03 90.896 1657.48 89.1885L1653.97 98.5518C1658.37 100.204 1661.81 101.646 1664.34 102.879L1668.72 93.8893ZM1657.48 89.1885C1652.8 87.4355 1647.56 85.8104 1641.75 84.306L1639.24 93.986C1644.78 95.4211 1649.68 96.9454 1653.97 98.5518L1657.48 89.1885ZM1641.81 84.3208C1635.92 82.7224 1629.57 81.4248 1622.75 80.4201L1621.29 90.3133C1627.77 91.2682 1633.74 92.4902 1639.19 93.9712L1641.81 84.3208ZM1622.8 80.4279C1615.89 79.3358 1608.8 78.792 1601.55 78.792V88.792C1608.3 88.792 1614.86 89.298 1621.24 90.3055L1622.8 80.4279ZM1601.55 78.792C1595.86 78.792 1590.91 78.9695 1586.73 79.336L1587.61 89.2978C1591.41 88.9645 1596.05 88.792 1601.55 88.792V78.792ZM1586.72 79.3367C1582.69 79.6972 1579.16 80.1739 1576.19 80.7836L1578.2 90.5797C1580.69 90.0696 1583.81 89.6365 1587.61 89.2971L1586.72 79.3367ZM1576.17 80.7889C1573.3 81.3929 1570.74 82.1594 1568.64 83.1656L1572.95 92.1869C1574.07 91.6534 1575.78 91.0902 1578.23 90.5744L1576.17 80.7889ZM1568.72 83.1244C1566.91 83.9472 1565.21 84.9418 1563.84 86.1951L1570.6 93.5666C1570.91 93.2802 1571.59 92.8051 1572.86 92.2281L1568.72 83.1244ZM1563.84 86.1951C1562.63 87.3077 1561.49 88.7195 1560.84 90.4817L1570.24 93.8991C1570.2 94.0179 1570.17 94.043 1570.22 93.9765C1570.27 93.908 1570.38 93.7686 1570.6 93.5666L1563.84 86.1951ZM1560.72 90.8748C1560.42 91.9651 1560.23 93.116 1560.23 94.29H1570.23C1570.23 94.2044 1570.24 93.9554 1570.37 93.506L1560.72 90.8748ZM1560.23 94.29C1560.23 98.342 1562.36 101.537 1565.34 103.822L1571.42 95.886C1570.2 94.9514 1570.23 94.4373 1570.23 94.29H1560.23ZM1565.42 103.886C1568.07 105.826 1571.44 107.425 1575.35 108.778L1578.62 99.3283C1575.25 98.1616 1572.89 96.961 1571.33 95.822L1565.42 103.886ZM1575.43 108.806C1579.25 110.052 1583.63 111.244 1588.56 112.388L1590.82 102.647C1586.09 101.551 1582.01 100.434 1578.54 99.3007L1575.43 108.806ZM1588.63 112.403C1593.45 113.452 1598.55 114.571 1603.94 115.759L1606.09 105.995C1600.7 104.804 1595.59 103.683 1590.75 102.632L1588.63 112.403ZM1604.01 115.775C1609.41 116.882 1614.95 118.128 1620.63 119.514L1623 109.799C1617.2 108.385 1611.54 107.112 1606.02 105.979L1604.01 115.775ZM1620.7 119.53C1626.35 120.824 1631.79 122.354 1637.01 124.118L1640.21 114.643C1634.65 112.767 1628.89 111.148 1622.93 109.782L1620.7 119.53ZM1637.03 124.124C1642.27 125.87 1647.18 127.912 1651.78 130.243L1656.3 121.325C1651.24 118.757 1645.87 116.53 1640.19 114.637L1637.03 124.124ZM1651.83 130.269C1656.3 132.473 1660.16 135.033 1663.43 137.928L1670.06 130.438C1666.05 126.894 1661.44 123.854 1656.25 121.299L1651.83 130.269ZM1663.43 137.928C1666.61 140.738 1669.08 143.94 1670.88 147.547L1679.83 143.074C1677.43 138.283 1674.16 134.066 1670.06 130.438L1663.43 137.928ZM1670.88 147.547C1672.59 150.955 1673.5 154.965 1673.5 159.693H1683.5C1683.5 153.643 1682.32 148.064 1679.83 143.074L1670.88 147.547ZM1673.5 159.693C1673.5 166.042 1672.38 171.198 1670.34 175.329L1679.31 179.75C1682.18 173.943 1683.5 167.201 1683.5 159.693H1673.5ZM1670.34 175.329C1668.19 179.689 1665.34 183.325 1661.77 186.291L1668.15 193.984C1672.84 190.091 1676.56 185.328 1679.31 179.75L1670.34 175.329ZM1661.73 186.318C1658.13 189.361 1653.89 191.855 1648.97 193.772L1652.6 203.09C1658.46 200.807 1663.67 197.772 1668.19 193.957L1661.73 186.318ZM1649.03 193.752C1643.92 195.674 1638.53 197.172 1632.86 198.241L1634.71 208.068C1640.93 206.898 1646.88 205.247 1652.55 203.11L1649.03 193.752ZM1632.85 198.243C1627.18 199.321 1621.42 200.03 1615.54 200.368L1616.12 210.351C1622.42 209.989 1628.62 209.228 1634.72 208.066L1632.85 198.243ZM1615.54 200.368C1609.61 200.713 1603.97 200.884 1598.61 200.884V210.884C1604.18 210.884 1610.01 210.706 1616.12 210.351L1615.54 200.368ZM1598.61 200.884C1584.61 200.884 1571.71 199.717 1559.89 197.408L1557.97 207.222C1570.51 209.672 1584.06 210.884 1598.61 210.884V200.884ZM1559.87 197.404C1547.98 195.135 1537.55 192.3 1528.57 188.921L1525.05 198.282C1534.68 201.902 1545.67 204.875 1557.99 207.226L1559.87 197.404ZM1531.81 193.602V159.168H1521.81V193.602H1531.81ZM1524.38 163.54C1534.41 169.104 1545.75 173.417 1558.37 176.516L1560.75 166.805C1548.87 163.886 1538.38 159.87 1529.23 154.796L1524.38 163.54ZM1558.37 176.518C1571.12 179.631 1584.68 181.175 1599.03 181.175V171.175C1585.39 171.175 1572.64 169.709 1560.75 166.804L1558.37 176.518ZM1599.03 181.175C1607.43 181.175 1614.44 180.75 1619.99 179.851L1618.39 169.98C1613.58 170.759 1607.16 171.175 1599.03 171.175V181.175ZM1620.04 179.842C1625.48 178.9 1630.04 177.691 1633.53 176.111L1629.41 167C1627.02 168.08 1623.4 169.111 1618.33 169.988L1620.04 179.842ZM1633.62 176.07C1636.88 174.518 1639.85 172.518 1641.64 169.773L1633.27 164.31C1632.96 164.784 1631.94 165.794 1629.32 167.041L1633.62 176.07ZM1641.64 169.773C1643.06 167.597 1644.03 165.119 1644.03 162.422H1634.03C1634.03 162.665 1633.95 163.267 1633.27 164.31L1641.64 169.773ZM1644.03 162.422C1644.03 158.335 1642.07 154.988 1639 152.534L1632.76 160.343C1633.89 161.248 1634.03 161.891 1634.03 162.422H1644.03ZM1639.08 152.597C1636.37 150.338 1632.9 148.582 1628.91 147.199L1625.64 156.649C1628.92 157.786 1631.19 159.04 1632.68 160.28L1639.08 152.597ZM1628.99 147.228C1625.09 145.802 1620.63 144.555 1615.63 143.469L1613.51 153.241C1618.17 154.255 1622.18 155.387 1625.56 156.621L1628.99 147.228ZM1615.7 143.484C1610.8 142.349 1605.6 141.251 1600.08 140.191L1598.19 150.011C1603.6 151.05 1608.68 152.122 1613.44 153.226L1615.7 143.484ZM1600.15 140.205C1594.78 139.089 1589.24 137.904 1583.52 136.648L1581.37 146.415C1587.13 147.678 1592.71 148.872 1598.12 149.996L1600.15 140.205ZM1583.52 136.648C1577.91 135.416 1572.44 133.981 1567.12 132.343L1564.18 141.901C1569.77 143.622 1575.5 145.127 1581.37 146.415L1583.52 136.648ZM1567.19 132.366C1561.98 130.675 1557.06 128.752 1552.42 126.602L1548.22 135.674C1553.24 138.003 1558.54 140.07 1564.1 141.878L1567.19 132.366ZM1552.48 126.628C1547.99 124.48 1544.12 122.01 1540.85 119.238L1534.39 126.872C1538.39 130.259 1543 133.177 1548.16 135.649L1552.48 126.628ZM1540.89 119.274C1537.71 116.518 1535.24 113.41 1533.45 109.945L1524.57 114.539C1526.98 119.192 1530.25 123.293 1534.35 126.836L1540.89 119.274ZM1533.47 109.975C1531.78 106.655 1530.86 102.694 1530.86 97.9644H1520.86C1520.86 104.012 1522.04 109.57 1524.55 114.508L1533.47 109.975ZM1530.86 97.9644C1530.86 92.1735 1531.88 87.4594 1533.72 83.6638L1524.72 79.3011C1522.08 84.7437 1520.86 91.0176 1520.86 97.9644H1530.86ZM1533.72 83.6638C1535.67 79.6457 1538.26 76.2861 1541.49 73.5308L1535.01 65.9184C1530.68 69.602 1527.25 74.0808 1524.72 79.3011L1533.72 83.6638ZM1541.5 73.5258C1544.92 70.6032 1548.86 68.215 1553.37 66.3749L1549.59 57.1173C1544.15 59.3365 1539.28 62.2672 1535 65.9235L1541.5 73.5258ZM1553.34 66.384C1558.09 64.4728 1563.08 62.984 1568.32 61.9225L1566.34 52.1215C1560.52 53.2995 1554.94 54.9602 1549.61 57.1082L1553.34 66.384ZM1568.32 61.9225C1573.64 60.8447 1579.03 60.1033 1584.49 59.6987L1583.76 49.7261C1577.88 50.1614 1572.07 50.9597 1566.34 52.1215L1568.32 61.9225ZM1584.49 59.6987C1590.05 59.2869 1595.32 59.0825 1600.29 59.0825V49.0825C1595.05 49.0825 1589.53 49.298 1583.76 49.7261L1584.49 59.6987ZM1600.29 59.0825C1605.72 59.0825 1611.3 59.3541 1617.03 59.8998L1617.98 49.9449C1611.95 49.3708 1606.06 49.0825 1600.29 49.0825V59.0825ZM1617.04 59.9004C1622.85 60.447 1628.55 61.2322 1634.14 62.2553L1635.94 52.4185C1630.06 51.342 1624.07 50.5175 1617.98 49.9444L1617.04 59.9004ZM1634.2 62.2656C1639.82 63.2254 1645.23 64.3547 1650.41 65.652L1652.84 55.9506C1647.39 54.5883 1641.74 53.408 1635.88 52.4082L1634.2 62.2656ZM1650.43 65.6557C1655.72 66.9616 1660.58 68.33 1665 69.7583L1668.07 60.2426C1663.39 58.7316 1658.31 57.3004 1652.83 55.9469L1650.43 65.6557ZM1661.53 65.0005V98.3843H1671.53V65.0005H1661.53Z" fill="#3D6873"/>
</g>
<defs>
<filter id="filter0_d_886_96" x="-699.001" y="54.0825" width="2381.5" height="159.802" filterUnits="userSpaceOnUse" color-interpolation-filters="sRGB">
<feFlood flood-opacity="0" result="BackgroundImageFix"/>
<feColorMatrix in="SourceAlpha" type="matrix" values="0 0 0 0 0 0 0 0 0 0 0 0 0 0 0 0 0 0 127 0" result="hardAlpha"/>
<feOffset dy="4"/>
<feGaussianBlur stdDeviation="2"/>
<feComposite in2="hardAlpha" operator="out"/>
<feColorMatrix type="matrix" values="0 0 0 0 0 0 0 0 0 0 0 0 0 0 0 0 0 0 0.25 0"/>
<feBlend mode="normal" in2="BackgroundImageFix" result="effect1_dropShadow_886_96"/>
<feBlend mode="normal" in="SourceGraphic" in2="effect1_dropShadow_886_96" result="shape"/>
</filter>
</defs>
</svg>
