<svg width="374" height="290" viewBox="0 0 374 290" fill="none" xmlns="http://www.w3.org/2000/svg">
<rect width="374" height="290" rx="15" fill="black" fill-opacity="0.55"/>
<path d="M179.737 182.877L174.789 194.384C184.207 193.425 192.986 192.866 200.888 192.866L195.54 180.8C190.273 181.519 184.925 182.238 179.737 182.877ZM227.067 178.802C225.152 183.756 223.077 188.791 221.321 193.425C240.716 194.944 252.209 198.06 252.209 198.06L261.228 179.042C248.936 178.642 237.683 178.642 227.067 178.802ZM112.533 205.491C108.543 208.368 107.345 209.727 107.186 209.727C107.026 209.886 116.045 206.45 129.853 202.775C142.863 199.339 149.408 198.14 156.511 197.021C155.394 194.304 154.436 191.428 153.079 188.391C130.811 194.384 118.519 201.256 112.533 205.491Z" fill="#D7182A"/>
<path d="M188.357 96.5759L211.742 157.466L255.321 72.0439L212.141 128.699L188.357 74.2814L164.332 128.699L121.232 72.0439L164.572 157.466L188.357 96.5759Z" fill="white"/>
<path d="M227.067 178.802C231.696 167.055 236.086 155.549 238.401 149.635C246.462 128.699 266.815 72.0439 266.815 72.0439L211.343 185.594C205.198 170.012 188.516 128.699 188.516 128.699C187.399 131.576 171.835 170.012 165.689 185.594L110.059 72.0439C110.059 72.0439 130.172 128.699 138.473 149.635C141.506 157.307 147.891 173.608 153.637 188.471C154.755 191.348 155.952 194.224 157.069 197.101C161.699 208.848 165.131 218.037 165.131 218.037L175.507 194.784L180.455 183.277L188.915 164.099L196.418 181.199L201.766 193.106L212.541 218.037C212.541 218.037 216.771 207.09 221.959 193.825C223.076 188.95 225.151 183.996 227.067 178.802Z" fill="white"/>
</svg>
