<svg width="71" height="74" viewBox="0 0 71 74" fill="none" xmlns="http://www.w3.org/2000/svg">
<path d="M70.1897 53.3659C64.1503 65.5906 51.5582 74 37 74C16.5659 74 0 57.4341 0 37C0 16.5659 16.5659 0 37 0V5.7702L37.0013 5.77146C19.6957 5.82681 5.68341 19.8705 5.68341 37.1887C5.68341 46.4245 9.66858 54.7282 16.0112 60.4783L45.8358 30.6537L52.2778 37.0969L30.8876 58.487L40.794 68.3933C51.6035 67.1266 60.7337 60.3739 65.3302 50.9947V50.9972L70.1897 53.3659Z" fill="white"/>
<path d="M39.8774 26.1417C39.1918 27.0298 38.4559 27.8676 37.7099 28.6953C36.9602 29.5193 36.1903 30.3231 35.4054 31.1119L33.0379 33.4655C32.2505 34.2517 31.4554 35.0304 30.6604 35.809C29.8654 36.5877 29.0729 37.3689 28.2703 38.14C27.4703 38.9137 26.6727 39.6898 25.8651 40.4559C24.2575 41.9956 22.636 43.5228 20.9931 45.026C20.778 45.2223 20.4446 45.2084 20.2471 44.9933C20.061 44.7908 20.066 44.4801 20.2471 44.2813C21.7504 42.6372 23.2775 41.0169 24.8172 39.4093C25.5833 38.6017 26.3595 37.8041 27.1331 37.0041C27.9042 36.2015 28.6854 35.409 29.4641 34.614C30.2428 33.819 31.0214 33.0239 31.8077 32.2365L34.1613 29.869C34.95 29.0841 35.7551 28.3154 36.5778 27.5645C37.4055 26.8185 38.2433 26.0826 39.1314 25.397C39.3641 25.2171 39.6975 25.2612 39.8774 25.4926C40.0283 25.6876 40.0208 25.9555 39.8774 26.1417Z" fill="white"/>
<path d="M43.0366 29.2241C42.7975 29.5373 42.551 29.843 42.2994 30.1437L41.9208 30.5928L41.5346 31.0343C41.0201 31.6243 40.4905 32.1992 39.9546 32.7665C38.8828 33.9024 37.7607 34.9905 36.6575 36.095L33.3365 39.3997L30.003 42.6904C28.8935 43.7899 27.7726 44.878 26.6581 45.9712L23.3019 49.2393C21.059 51.4143 18.8098 53.5805 16.5354 55.724C16.324 55.924 15.9894 55.914 15.7894 55.7014C15.597 55.4976 15.6007 55.1793 15.7894 54.9781C17.933 52.705 20.0991 50.4545 22.2741 48.2116L25.5423 44.8554C26.6354 43.7408 27.7236 42.62 28.823 41.5105L32.1138 38.1769L35.4184 34.8559C36.5229 33.7527 37.611 32.6319 38.747 31.5589C39.3143 31.023 39.8892 30.4921 40.4791 29.9789L40.9207 29.5927L41.3698 29.2141C41.6704 28.9625 41.9761 28.7159 42.2881 28.4769C42.5221 28.2983 42.8554 28.3436 43.034 28.5775C43.185 28.7738 43.1787 29.0392 43.0366 29.2241Z" fill="white"/>
<path d="M51.3945 23.9827L54.1306 21.2102L66.6358 8.53516" stroke="white" stroke-width="1.38374" stroke-miterlimit="10" stroke-linecap="round" stroke-linejoin="round"/>
<path d="M51.7256 18.4427L66.636 8.53516" stroke="white" stroke-width="1.38374" stroke-miterlimit="10" stroke-linecap="round" stroke-linejoin="round"/>
<path d="M45.9443 13.7443L66.6363 8.53516" stroke="white" stroke-width="1.38374" stroke-miterlimit="10" stroke-linecap="round" stroke-linejoin="round"/>
<path d="M51.7259 18.4431L45.9443 13.7446" stroke="white" stroke-width="1.38374" stroke-miterlimit="10" stroke-linecap="round" stroke-linejoin="round"/>
<path d="M62.0984 27.4694L54.1306 21.2099L51.3945 23.9824L51.7254 18.4424" stroke="white" stroke-width="1.38374" stroke-miterlimit="10" stroke-linecap="round" stroke-linejoin="round"/>
<path d="M62.0986 27.4698L66.636 8.53516" stroke="white" stroke-width="1.38374" stroke-miterlimit="10" stroke-linecap="round" stroke-linejoin="round"/>
</svg>
